{
  "/home/matt/Documents/drum-tranxn": {
    "summary": {
      "total_files_found": 5,
      "successfully_analyzed": 5,
      "analysis_success_rate": 100.0
    },
    "drum_analysis": {
      "unique_notes": 6,
      "total_occurrences": 3470,
      "note_range": [
        35,
        51
      ],
      "frequency_distribution": {
        "51": 1025,
        "35": 970,
        "42": 675,
        "37": 585,
        "41": 160,
        "45": 55
      },
      "note_statistics": {
        "35": {
          "count": 970,
          "percentage": 27.953890489913547,
          "gm_name": "Acoustic Bass Drum",
          "velocity_stats": {
            "mean": 92.79381443298969,
            "std": 18.52885080770593,
            "min": 63,
            "max": 126
          },
          "duration_stats": {
            "mean": 0.05380974695407671,
            "std": 0.02368105889686926,
            "min": 0.002272727272726982,
            "max": 0.10000000000000142
          }
        },
        "51": {
          "count": 1025,
          "percentage": 29.53890489913545,
          "gm_name": "Ride Cymbal 1",
          "velocity_stats": {
            "mean": 84.53658536585365,
            "std": 12.033890275781227,
            "min": 63,
            "max": 114
          },
          "duration_stats": {
            "mean": 0.04117516629711772,
            "std": 0.024316700249075538,
            "min": 0.002272727272726982,
            "max": 0.10000000000000142
          }
        },
        "42": {
          "count": 675,
          "percentage": 19.45244956772334,
          "gm_name": "Closed Hi Hat",
          "velocity_stats": {
            "mean": 87.18518518518519,
            "std": 13.907730429744717,
            "min": 63,
            "max": 118
          },
          "duration_stats": {
            "mean": 0.05416835016835024,
            "std": 0.02624660782319285,
            "min": 0.006818181818180946,
            "max": 0.10000000000000142
          }
        },
        "45": {
          "count": 55,
          "percentage": 1.585014409221902,
          "gm_name": "Low Tom",
          "velocity_stats": {
            "mean": 76.18181818181819,
            "std": 12.415665923766575,
            "min": 63,
            "max": 97
          },
          "duration_stats": {
            "mean": 0.06413223140495977,
            "std": 0.026918117863733246,
            "min": 0.004545454545454852,
            "max": 0.10000000000000142
          }
        },
        "41": {
          "count": 160,
          "percentage": 4.610951008645533,
          "gm_name": "Low Floor Tom",
          "velocity_stats": {
            "mean": 76.84375,
            "std": 9.51350807733404,
            "min": 64,
            "max": 103
          },
          "duration_stats": {
            "mean": 0.059218750000000465,
            "std": 0.02677727870108978,
            "min": 0.0022727272727287584,
            "max": 0.10000000000000142
          }
        },
        "37": {
          "count": 585,
          "percentage": 16.85878962536023,
          "gm_name": "Side Stick",
          "velocity_stats": {
            "mean": 82.75213675213675,
            "std": 13.834742580615554,
            "min": 63,
            "max": 120
          },
          "duration_stats": {
            "mean": 0.05333333333333329,
            "std": 0.02773494614036691,
            "min": 0.002272727272726982,
            "max": 0.10000000000000142
          }
        }
      }
    },
    "melodic_analysis": {},
    "mapping_analysis": {
      "current_egmd_notes": "{36, 38, 41, 42, 43, 44, 45, 46, 47, 48, 49, 50, 51, 53, 55, 57, 59}",
      "found_drum_notes": "{35, 37, 41, 42, 45, 51}",
      "additional_notes_found": "{35, 37}",
      "missing_egmd_notes": "{36, 38, 43, 44, 46, 47, 48, 49, 50, 53, 55, 57, 59}",
      "coverage_percentage": 23.52941176470588
    },
    "file_details": [
      {
        "file_path": "/home/matt/Documents/drum-tranxn/drum-transcription-api/test_audio/32 Soft Pink Glow_transcribed_alt.mid",
        "total_notes": 694,
        "drum_notes": [
          {
            "pitch": 35,
            "start": 0.07045454545454545,
            "end": 0.17045454545454544,
            "velocity": 126,
            "duration": 0.09999999999999999
          },
          {
            "pitch": 35,
            "start": 0.16363636363636364,
            "end": 0.17045454545454544,
            "velocity": 100,
            "duration": 0.006818181818181807
          },
          {
            "pitch": 51,
            "start": 0.07045454545454545,
            "end": 0.17045454545454544,
            "velocity": 109,
            "duration": 0.09999999999999999
          },
          {
            "pitch": 51,
            "start": 0.16363636363636364,
            "end": 0.17045454545454544,
            "velocity": 112,
            "duration": 0.006818181818181807
          },
          {
            "pitch": 42,
            "start": 0.09318181818181817,
            "end": 0.19318181818181818,
            "velocity": 104,
            "duration": 0.1
          },
          {
            "pitch": 42,
            "start": 0.18636363636363634,
            "end": 0.19318181818181818,
            "velocity": 70,
            "duration": 0.006818181818181834
          },
          {
            "pitch": 45,
            "start": 0.09318181818181817,
            "end": 0.19318181818181818,
            "velocity": 64,
            "duration": 0.1
          },
          {
            "pitch": 35,
            "start": 0.2545454545454545,
            "end": 0.2636363636363636,
            "velocity": 120,
            "duration": 0.009090909090909094
          },
          {
            "pitch": 51,
            "start": 0.2545454545454545,
            "end": 0.2636363636363636,
            "velocity": 113,
            "duration": 0.009090909090909094
          },
          {
            "pitch": 41,
            "start": 0.18636363636363634,
            "end": 0.2863636363636364,
            "velocity": 75,
            "duration": 0.10000000000000003
          },
          {
            "pitch": 41,
            "start": 0.2545454545454545,
            "end": 0.2863636363636364,
            "velocity": 79,
            "duration": 0.03181818181818186
          },
          {
            "pitch": 42,
            "start": 0.2545454545454545,
            "end": 0.2863636363636364,
            "velocity": 106,
            "duration": 0.03181818181818186
          },
          {
            "pitch": 51,
            "start": 0.3477272727272727,
            "end": 0.35454545454545455,
            "velocity": 114,
            "duration": 0.006818181818181834
          },
          {
            "pitch": 51,
            "start": 0.44090909090909086,
            "end": 0.4477272727272727,
            "velocity": 88,
            "duration": 0.006818181818181834
          },
          {
            "pitch": 35,
            "start": 0.3704545454545454,
            "end": 0.47045454545454546,
            "velocity": 102,
            "duration": 0.10000000000000003
          },
          {
            "pitch": 35,
            "start": 0.44090909090909086,
            "end": 0.47045454545454546,
            "velocity": 106,
            "duration": 0.029545454545454597
          },
          {
            "pitch": 41,
            "start": 0.3704545454545454,
            "end": 0.47045454545454546,
            "velocity": 81,
            "duration": 0.10000000000000003
          },
          {
            "pitch": 41,
            "start": 0.44090909090909086,
            "end": 0.47045454545454546,
            "velocity": 75,
            "duration": 0.029545454545454597
          },
          {
            "pitch": 42,
            "start": 0.3704545454545454,
            "end": 0.47045454545454546,
            "velocity": 78,
            "duration": 0.10000000000000003
          },
          {
            "pitch": 45,
            "start": 0.3704545454545454,
            "end": 0.47045454545454546,
            "velocity": 63,
            "duration": 0.10000000000000003
          },
          {
            "pitch": 35,
            "start": 0.5113636363636364,
            "end": 0.5409090909090909,
            "velocity": 123,
            "duration": 0.02954545454545454
          },
          {
            "pitch": 41,
            "start": 0.5340909090909091,
            "end": 0.5409090909090909,
            "velocity": 67,
            "duration": 0.006818181818181834
          },
          {
            "pitch": 51,
            "start": 0.5340909090909091,
            "end": 0.5409090909090909,
            "velocity": 111,
            "duration": 0.006818181818181834
          },
          {
            "pitch": 37,
            "start": 0.4636363636363636,
            "end": 0.5636363636363636,
            "velocity": 78,
            "duration": 0.09999999999999998
          },
          {
            "pitch": 51,
            "start": 0.6272727272727272,
            "end": 0.634090909090909,
            "velocity": 103,
            "duration": 0.006818181818181834
          },
          {
            "pitch": 42,
            "start": 0.5568181818181818,
            "end": 0.6568181818181817,
            "velocity": 80,
            "duration": 0.09999999999999998
          },
          {
            "pitch": 42,
            "start": 0.6272727272727272,
            "end": 0.6568181818181817,
            "velocity": 118,
            "duration": 0.02954545454545454
          },
          {
            "pitch": 35,
            "start": 0.6272727272727272,
            "end": 0.7272727272727273,
            "velocity": 112,
            "duration": 0.10000000000000009
          },
          {
            "pitch": 35,
            "start": 0.6977272727272726,
            "end": 0.7272727272727273,
            "velocity": 88,
            "duration": 0.029545454545454652
          },
          {
            "pitch": 45,
            "start": 0.6272727272727272,
            "end": 0.7272727272727273,
            "velocity": 71,
            "duration": 0.10000000000000009
          },
          {
            "pitch": 51,
            "start": 0.7204545454545455,
            "end": 0.7272727272727273,
            "velocity": 113,
            "duration": 0.006818181818181834
          },
          {
            "pitch": 41,
            "start": 0.65,
            "end": 0.75,
            "velocity": 103,
            "duration": 0.09999999999999998
          },
          {
            "pitch": 41,
            "start": 0.7204545454545455,
            "end": 0.75,
            "velocity": 75,
            "duration": 0.02954545454545454
          },
          {
            "pitch": 51,
            "start": 0.7886363636363636,
            "end": 0.8204545454545454,
            "velocity": 110,
            "duration": 0.03181818181818186
          },
          {
            "pitch": 35,
            "start": 0.8136363636363636,
            "end": 0.9136363636363636,
            "velocity": 121,
            "duration": 0.09999999999999998
          },
          {
            "pitch": 35,
            "start": 0.8818181818181817,
            "end": 0.9136363636363636,
            "velocity": 121,
            "duration": 0.03181818181818186
          },
          {
            "pitch": 42,
            "start": 0.8136363636363636,
            "end": 0.9136363636363636,
            "velocity": 113,
            "duration": 0.09999999999999998
          },
          {
            "pitch": 35,
            "start": 0.9522727272727273,
            "end": 0.9818181818181818,
            "velocity": 89,
            "duration": 0.02954545454545454
          },
          {
            "pitch": 51,
            "start": 0.9045454545454545,
            "end": 1.0045454545454544,
            "velocity": 84,
            "duration": 0.09999999999999987
          },
          {
            "pitch": 51,
            "start": 0.975,
            "end": 1.0045454545454544,
            "velocity": 101,
            "duration": 0.02954545454545443
          },
          {
            "pitch": 42,
            "start": 0.975,
            "end": 1.075,
            "velocity": 85,
            "duration": 0.09999999999999998
          },
          {
            "pitch": 42,
            "start": 1.0681818181818181,
            "end": 1.075,
            "velocity": 91,
            "duration": 0.006818181818181834
          },
          {
            "pitch": 51,
            "start": 1.0681818181818181,
            "end": 1.075,
            "velocity": 72,
            "duration": 0.006818181818181834
          },
          {
            "pitch": 41,
            "start": 0.9977272727272727,
            "end": 1.0977272727272727,
            "velocity": 81,
            "duration": 0.09999999999999998
          },
          {
            "pitch": 41,
            "start": 1.0681818181818181,
            "end": 1.0977272727272727,
            "velocity": 74,
            "duration": 0.02954545454545454
          },
          {
            "pitch": 35,
            "start": 1.0681818181818181,
            "end": 1.1681818181818182,
            "velocity": 89,
            "duration": 0.10000000000000009
          },
          {
            "pitch": 51,
            "start": 1.1613636363636364,
            "end": 1.1681818181818182,
            "velocity": 94,
            "duration": 0.006818181818181834
          },
          {
            "pitch": 51,
            "start": 1.2545454545454544,
            "end": 1.2613636363636362,
            "velocity": 105,
            "duration": 0.006818181818181834
          },
          {
            "pitch": 42,
            "start": 1.184090909090909,
            "end": 1.284090909090909,
            "velocity": 73,
            "duration": 0.09999999999999987
          },
          {
            "pitch": 42,
            "start": 1.2545454545454544,
            "end": 1.284090909090909,
            "velocity": 70,
            "duration": 0.02954545454545454
          },
          {
            "pitch": 35,
            "start": 1.2545454545454544,
            "end": 1.3545454545454545,
            "velocity": 122,
            "duration": 0.10000000000000009
          },
          {
            "pitch": 51,
            "start": 1.3477272727272727,
            "end": 1.3545454545454545,
            "velocity": 89,
            "duration": 0.006818181818181834
          },
          {
            "pitch": 51,
            "start": 1.4386363636363635,
            "end": 1.4477272727272728,
            "velocity": 85,
            "duration": 0.00909090909090926
          },
          {
            "pitch": 37,
            "start": 1.393181818181818,
            "end": 1.4931818181818182,
            "velocity": 113,
            "duration": 0.10000000000000009
          },
          {
            "pitch": 37,
            "start": 1.4863636363636363,
            "end": 1.4931818181818182,
            "velocity": 70,
            "duration": 0.006818181818181834
          },
          {
            "pitch": 41,
            "start": 1.4159090909090908,
            "end": 1.5159090909090909,
            "velocity": 77,
            "duration": 0.10000000000000009
          },
          {
            "pitch": 35,
            "start": 1.4386363636363635,
            "end": 1.5386363636363636,
            "velocity": 122,
            "duration": 0.10000000000000009
          },
          {
            "pitch": 35,
            "start": 1.509090909090909,
            "end": 1.5386363636363636,
            "velocity": 115,
            "duration": 0.02954545454545454
          },
          {
            "pitch": 42,
            "start": 1.4386363636363635,
            "end": 1.5386363636363636,
            "velocity": 89,
            "duration": 0.10000000000000009
          },
          {
            "pitch": 51,
            "start": 1.5318181818181817,
            "end": 1.5386363636363636,
            "velocity": 91,
            "duration": 0.006818181818181834
          },
          {
            "pitch": 51,
            "start": 1.625,
            "end": 1.6318181818181818,
            "velocity": 108,
            "duration": 0.006818181818181834
          },
          {
            "pitch": 42,
            "start": 1.5568181818181817,
            "end": 1.6568181818181817,
            "velocity": 92,
            "duration": 0.10000000000000009
          },
          {
            "pitch": 42,
            "start": 1.625,
            "end": 1.6568181818181817,
            "velocity": 96,
            "duration": 0.031818181818181746
          },
          {
            "pitch": 45,
            "start": 1.5795454545454544,
            "end": 1.6795454545454545,
            "velocity": 97,
            "duration": 0.10000000000000009
          },
          {
            "pitch": 35,
            "start": 1.625,
            "end": 1.7249999999999999,
            "velocity": 121,
            "duration": 0.09999999999999987
          },
          {
            "pitch": 35,
            "start": 1.6954545454545453,
            "end": 1.7249999999999999,
            "velocity": 72,
            "duration": 0.02954545454545454
          },
          {
            "pitch": 41,
            "start": 1.625,
            "end": 1.7249999999999999,
            "velocity": 71,
            "duration": 0.09999999999999987
          },
          {
            "pitch": 41,
            "start": 1.718181818181818,
            "end": 1.7249999999999999,
            "velocity": 95,
            "duration": 0.006818181818181834
          },
          {
            "pitch": 42,
            "start": 1.6954545454545453,
            "end": 1.7249999999999999,
            "velocity": 81,
            "duration": 0.02954545454545454
          },
          {
            "pitch": 51,
            "start": 1.6954545454545453,
            "end": 1.7249999999999999,
            "velocity": 70,
            "duration": 0.02954545454545454
          },
          {
            "pitch": 51,
            "start": 1.7886363636363636,
            "end": 1.7954545454545454,
            "velocity": 105,
            "duration": 0.006818181818181834
          },
          {
            "pitch": 51,
            "start": 1.8818181818181818,
            "end": 1.8886363636363634,
            "velocity": 104,
            "duration": 0.006818181818181612
          },
          {
            "pitch": 35,
            "start": 1.8113636363636363,
            "end": 1.9113636363636364,
            "velocity": 119,
            "duration": 0.10000000000000009
          },
          {
            "pitch": 35,
            "start": 1.8818181818181818,
            "end": 1.9113636363636364,
            "velocity": 121,
            "duration": 0.02954545454545454
          },
          {
            "pitch": 42,
            "start": 1.8113636363636363,
            "end": 1.9113636363636364,
            "velocity": 102,
            "duration": 0.10000000000000009
          },
          {
            "pitch": 42,
            "start": 1.9045454545454545,
            "end": 1.9113636363636364,
            "velocity": 95,
            "duration": 0.006818181818181834
          },
          {
            "pitch": 37,
            "start": 1.834090909090909,
            "end": 1.934090909090909,
            "velocity": 89,
            "duration": 0.10000000000000009
          },
          {
            "pitch": 35,
            "start": 1.9727272727272727,
            "end": 1.9818181818181817,
            "velocity": 96,
            "duration": 0.009090909090909038
          },
          {
            "pitch": 51,
            "start": 1.9727272727272727,
            "end": 1.9818181818181817,
            "velocity": 83,
            "duration": 0.009090909090909038
          },
          {
            "pitch": 42,
            "start": 1.9977272727272726,
            "end": 2.0045454545454544,
            "velocity": 78,
            "duration": 0.006818181818181834
          },
          {
            "pitch": 35,
            "start": 2.065909090909091,
            "end": 2.0727272727272728,
            "velocity": 85,
            "duration": 0.006818181818181834
          },
          {
            "pitch": 51,
            "start": 2.065909090909091,
            "end": 2.0727272727272728,
            "velocity": 75,
            "duration": 0.006818181818181834
          },
          {
            "pitch": 37,
            "start": 2.0204545454545455,
            "end": 2.120454545454545,
            "velocity": 80,
            "duration": 0.09999999999999964
          },
          {
            "pitch": 35,
            "start": 2.1363636363636362,
            "end": 2.165909090909091,
            "velocity": 89,
            "duration": 0.029545454545454763
          },
          {
            "pitch": 51,
            "start": 2.159090909090909,
            "end": 2.165909090909091,
            "velocity": 88,
            "duration": 0.006818181818181834
          },
          {
            "pitch": 41,
            "start": 2.159090909090909,
            "end": 2.259090909090909,
            "velocity": 90,
            "duration": 0.09999999999999964
          },
          {
            "pitch": 41,
            "start": 2.252272727272727,
            "end": 2.259090909090909,
            "velocity": 87,
            "duration": 0.006818181818181834
          },
          {
            "pitch": 51,
            "start": 2.252272727272727,
            "end": 2.259090909090909,
            "velocity": 93,
            "duration": 0.006818181818181834
          },
          {
            "pitch": 42,
            "start": 2.1818181818181817,
            "end": 2.2818181818181817,
            "velocity": 80,
            "duration": 0.10000000000000009
          },
          {
            "pitch": 42,
            "start": 2.252272727272727,
            "end": 2.2818181818181817,
            "velocity": 79,
            "duration": 0.029545454545454763
          },
          {
            "pitch": 35,
            "start": 2.252272727272727,
            "end": 2.352272727272727,
            "velocity": 111,
            "duration": 0.10000000000000009
          },
          {
            "pitch": 51,
            "start": 2.3454545454545452,
            "end": 2.352272727272727,
            "velocity": 94,
            "duration": 0.006818181818181834
          },
          {
            "pitch": 37,
            "start": 2.275,
            "end": 2.375,
            "velocity": 80,
            "duration": 0.10000000000000009
          },
          {
            "pitch": 37,
            "start": 2.3454545454545452,
            "end": 2.375,
            "velocity": 73,
            "duration": 0.029545454545454763
          },
          {
            "pitch": 37,
            "start": 2.3909090909090907,
            "end": 2.4454545454545453,
            "velocity": 99,
            "duration": 0.054545454545454675
          },
          {
            "pitch": 51,
            "start": 2.4386363636363635,
            "end": 2.4454545454545453,
            "velocity": 96,
            "duration": 0.006818181818181834
          },
          {
            "pitch": 35,
            "start": 2.368181818181818,
            "end": 2.4681818181818183,
            "velocity": 82,
            "duration": 0.10000000000000009
          },
          {
            "pitch": 35,
            "start": 2.4386363636363635,
            "end": 2.4681818181818183,
            "velocity": 118,
            "duration": 0.029545454545454763
          },
          {
            "pitch": 42,
            "start": 2.368181818181818,
            "end": 2.4681818181818183,
            "velocity": 116,
            "duration": 0.10000000000000009
          },
          {
            "pitch": 42,
            "start": 2.4386363636363635,
            "end": 2.4681818181818183,
            "velocity": 83,
            "duration": 0.029545454545454763
          },
          {
            "pitch": 37,
            "start": 2.484090909090909,
            "end": 2.4909090909090907,
            "velocity": 74,
            "duration": 0.006818181818181834
          },
          {
            "pitch": 35,
            "start": 2.506818181818182,
            "end": 2.5386363636363636,
            "velocity": 109,
            "duration": 0.031818181818181746
          },
          {
            "pitch": 51,
            "start": 2.506818181818182,
            "end": 2.5386363636363636,
            "velocity": 88,
            "duration": 0.031818181818181746
          },
          {
            "pitch": 35,
            "start": 2.6227272727272726,
            "end": 2.7227272727272727,
            "velocity": 100,
            "duration": 0.10000000000000009
          },
          {
            "pitch": 35,
            "start": 2.693181818181818,
            "end": 2.7227272727272727,
            "velocity": 73,
            "duration": 0.029545454545454763
          },
          {
            "pitch": 42,
            "start": 2.6227272727272726,
            "end": 2.7227272727272727,
            "velocity": 107,
            "duration": 0.10000000000000009
          },
          {
            "pitch": 42,
            "start": 2.693181818181818,
            "end": 2.7227272727272727,
            "velocity": 100,
            "duration": 0.029545454545454763
          },
          {
            "pitch": 51,
            "start": 2.6227272727272726,
            "end": 2.7227272727272727,
            "velocity": 96,
            "duration": 0.10000000000000009
          },
          {
            "pitch": 51,
            "start": 2.693181818181818,
            "end": 2.7227272727272727,
            "velocity": 81,
            "duration": 0.029545454545454763
          },
          {
            "pitch": 41,
            "start": 2.6477272727272725,
            "end": 2.7477272727272726,
            "velocity": 89,
            "duration": 0.10000000000000009
          },
          {
            "pitch": 35,
            "start": 2.786363636363636,
            "end": 2.793181818181818,
            "velocity": 121,
            "duration": 0.006818181818181834
          },
          {
            "pitch": 51,
            "start": 2.786363636363636,
            "end": 2.793181818181818,
            "velocity": 111,
            "duration": 0.006818181818181834
          },
          {
            "pitch": 35,
            "start": 2.8795454545454544,
            "end": 2.8863636363636362,
            "velocity": 115,
            "duration": 0.006818181818181834
          },
          {
            "pitch": 51,
            "start": 2.8795454545454544,
            "end": 2.8863636363636362,
            "velocity": 70,
            "duration": 0.006818181818181834
          },
          {
            "pitch": 42,
            "start": 2.809090909090909,
            "end": 2.909090909090909,
            "velocity": 104,
            "duration": 0.10000000000000009
          },
          {
            "pitch": 42,
            "start": 2.8795454545454544,
            "end": 2.909090909090909,
            "velocity": 89,
            "duration": 0.029545454545454763
          },
          {
            "pitch": 35,
            "start": 2.9499999999999997,
            "end": 2.9795454545454545,
            "velocity": 74,
            "duration": 0.029545454545454763
          },
          {
            "pitch": 51,
            "start": 2.9727272727272727,
            "end": 2.9795454545454545,
            "velocity": 70,
            "duration": 0.006818181818181834
          },
          {
            "pitch": 37,
            "start": 2.925,
            "end": 3.025,
            "velocity": 101,
            "duration": 0.10000000000000009
          },
          {
            "pitch": 37,
            "start": 2.9727272727272727,
            "end": 3.025,
            "velocity": 94,
            "duration": 0.05227272727272725
          },
          {
            "pitch": 51,
            "start": 3.065909090909091,
            "end": 3.0727272727272728,
            "velocity": 70,
            "duration": 0.006818181818181834
          },
          {
            "pitch": 42,
            "start": 2.995454545454545,
            "end": 3.0954545454545452,
            "velocity": 69,
            "duration": 0.10000000000000009
          },
          {
            "pitch": 42,
            "start": 3.065909090909091,
            "end": 3.0954545454545452,
            "velocity": 84,
            "duration": 0.02954545454545432
          },
          {
            "pitch": 41,
            "start": 3.0409090909090906,
            "end": 3.1409090909090907,
            "velocity": 87,
            "duration": 0.10000000000000009
          },
          {
            "pitch": 41,
            "start": 3.1113636363636363,
            "end": 3.1409090909090907,
            "velocity": 91,
            "duration": 0.02954545454545432
          },
          {
            "pitch": 35,
            "start": 3.065909090909091,
            "end": 3.1659090909090906,
            "velocity": 95,
            "duration": 0.09999999999999964
          },
          {
            "pitch": 42,
            "start": 3.1818181818181817,
            "end": 3.2818181818181817,
            "velocity": 80,
            "duration": 0.10000000000000009
          },
          {
            "pitch": 42,
            "start": 3.25,
            "end": 3.2818181818181817,
            "velocity": 105,
            "duration": 0.031818181818181746
          },
          {
            "pitch": 51,
            "start": 3.1818181818181817,
            "end": 3.2818181818181817,
            "velocity": 63,
            "duration": 0.10000000000000009
          },
          {
            "pitch": 51,
            "start": 3.25,
            "end": 3.2818181818181817,
            "velocity": 91,
            "duration": 0.031818181818181746
          },
          {
            "pitch": 37,
            "start": 3.227272727272727,
            "end": 3.327272727272727,
            "velocity": 64,
            "duration": 0.10000000000000009
          },
          {
            "pitch": 37,
            "start": 3.275,
            "end": 3.327272727272727,
            "velocity": 63,
            "duration": 0.05227272727272725
          },
          {
            "pitch": 35,
            "start": 3.25,
            "end": 3.3499999999999996,
            "velocity": 119,
            "duration": 0.09999999999999964
          },
          {
            "pitch": 35,
            "start": 3.3204545454545453,
            "end": 3.3499999999999996,
            "velocity": 81,
            "duration": 0.02954545454545432
          },
          {
            "pitch": 51,
            "start": 3.3204545454545453,
            "end": 3.3499999999999996,
            "velocity": 72,
            "duration": 0.02954545454545432
          },
          {
            "pitch": 35,
            "start": 3.436363636363636,
            "end": 3.536363636363636,
            "velocity": 121,
            "duration": 0.10000000000000009
          },
          {
            "pitch": 35,
            "start": 3.506818181818182,
            "end": 3.536363636363636,
            "velocity": 107,
            "duration": 0.02954545454545432
          },
          {
            "pitch": 42,
            "start": 3.436363636363636,
            "end": 3.536363636363636,
            "velocity": 105,
            "duration": 0.10000000000000009
          },
          {
            "pitch": 51,
            "start": 3.436363636363636,
            "end": 3.536363636363636,
            "velocity": 92,
            "duration": 0.10000000000000009
          },
          {
            "pitch": 51,
            "start": 3.506818181818182,
            "end": 3.536363636363636,
            "velocity": 93,
            "duration": 0.02954545454545432
          },
          {
            "pitch": 37,
            "start": 3.459090909090909,
            "end": 3.559090909090909,
            "velocity": 71,
            "duration": 0.10000000000000009
          },
          {
            "pitch": 37,
            "start": 3.5522727272727272,
            "end": 3.559090909090909,
            "velocity": 92,
            "duration": 0.006818181818181834
          },
          {
            "pitch": 51,
            "start": 3.5999999999999996,
            "end": 3.6068181818181815,
            "velocity": 98,
            "duration": 0.006818181818181834
          },
          {
            "pitch": 51,
            "start": 3.690909090909091,
            "end": 3.6999999999999997,
            "velocity": 85,
            "duration": 0.009090909090908816
          },
          {
            "pitch": 35,
            "start": 3.6227272727272726,
            "end": 3.7227272727272727,
            "velocity": 96,
            "duration": 0.10000000000000009
          },
          {
            "pitch": 35,
            "start": 3.690909090909091,
            "end": 3.7227272727272727,
            "velocity": 78,
            "duration": 0.031818181818181746
          },
          {
            "pitch": 42,
            "start": 3.6227272727272726,
            "end": 3.7227272727272727,
            "velocity": 100,
            "duration": 0.10000000000000009
          },
          {
            "pitch": 42,
            "start": 3.690909090909091,
            "end": 3.7227272727272727,
            "velocity": 97,
            "duration": 0.031818181818181746
          },
          {
            "pitch": 35,
            "start": 3.7613636363636362,
            "end": 3.7909090909090906,
            "velocity": 82,
            "duration": 0.02954545454545432
          },
          {
            "pitch": 51,
            "start": 3.7840909090909087,
            "end": 3.7909090909090906,
            "velocity": 91,
            "duration": 0.006818181818181834
          },
          {
            "pitch": 41,
            "start": 3.715909090909091,
            "end": 3.815909090909091,
            "velocity": 68,
            "duration": 0.10000000000000009
          },
          {
            "pitch": 51,
            "start": 3.877272727272727,
            "end": 3.884090909090909,
            "velocity": 101,
            "duration": 0.006818181818181834
          },
          {
            "pitch": 42,
            "start": 3.809090909090909,
            "end": 3.9090909090909087,
            "velocity": 91,
            "duration": 0.09999999999999964
          },
          {
            "pitch": 42,
            "start": 3.877272727272727,
            "end": 3.9090909090909087,
            "velocity": 85,
            "duration": 0.031818181818181746
          },
          {
            "pitch": 35,
            "start": 3.877272727272727,
            "end": 3.977272727272727,
            "velocity": 122,
            "duration": 0.10000000000000009
          },
          {
            "pitch": 35,
            "start": 3.9477272727272728,
            "end": 3.977272727272727,
            "velocity": 88,
            "duration": 0.02954545454545432
          },
          {
            "pitch": 37,
            "start": 3.877272727272727,
            "end": 3.977272727272727,
            "velocity": 87,
            "duration": 0.10000000000000009
          },
          {
            "pitch": 37,
            "start": 3.925,
            "end": 3.977272727272727,
            "velocity": 110,
            "duration": 0.05227272727272725
          },
          {
            "pitch": 37,
            "start": 3.9704545454545452,
            "end": 3.977272727272727,
            "velocity": 85,
            "duration": 0.006818181818181834
          },
          {
            "pitch": 37,
            "start": 4.018181818181818,
            "end": 4.0249999999999995,
            "velocity": 68,
            "duration": 0.006818181818181834
          },
          {
            "pitch": 42,
            "start": 3.993181818181818,
            "end": 4.093181818181818,
            "velocity": 65,
            "duration": 0.09999999999999964
          },
          {
            "pitch": 42,
            "start": 4.0636363636363635,
            "end": 4.093181818181818,
            "velocity": 105,
            "duration": 0.02954545454545432
          },
          {
            "pitch": 37,
            "start": 4.1090909090909085,
            "end": 4.118181818181818,
            "velocity": 93,
            "duration": 0.009090909090909705
          },
          {
            "pitch": 35,
            "start": 4.0636363636363635,
            "end": 4.163636363636363,
            "velocity": 117,
            "duration": 0.09999999999999964
          },
          {
            "pitch": 35,
            "start": 4.134090909090909,
            "end": 4.163636363636363,
            "velocity": 92,
            "duration": 0.02954545454545432
          },
          {
            "pitch": 51,
            "start": 4.0636363636363635,
            "end": 4.163636363636363,
            "velocity": 92,
            "duration": 0.09999999999999964
          },
          {
            "pitch": 51,
            "start": 4.156818181818181,
            "end": 4.163636363636363,
            "velocity": 94,
            "duration": 0.006818181818181834
          },
          {
            "pitch": 51,
            "start": 4.25,
            "end": 4.256818181818182,
            "velocity": 108,
            "duration": 0.006818181818181834
          },
          {
            "pitch": 35,
            "start": 4.25,
            "end": 4.35,
            "velocity": 124,
            "duration": 0.09999999999999964
          },
          {
            "pitch": 35,
            "start": 4.318181818181818,
            "end": 4.35,
            "velocity": 89,
            "duration": 0.0318181818181813
          },
          {
            "pitch": 42,
            "start": 4.25,
            "end": 4.35,
            "velocity": 98,
            "duration": 0.09999999999999964
          },
          {
            "pitch": 42,
            "start": 4.318181818181818,
            "end": 4.35,
            "velocity": 67,
            "duration": 0.0318181818181813
          },
          {
            "pitch": 51,
            "start": 4.343181818181818,
            "end": 4.35,
            "velocity": 90,
            "duration": 0.006818181818181834
          },
          {
            "pitch": 51,
            "start": 4.411363636363636,
            "end": 4.443181818181818,
            "velocity": 78,
            "duration": 0.03181818181818219
          },
          {
            "pitch": 51,
            "start": 4.504545454545454,
            "end": 4.511363636363636,
            "velocity": 102,
            "duration": 0.006818181818181834
          },
          {
            "pitch": 35,
            "start": 4.434090909090909,
            "end": 4.534090909090909,
            "velocity": 106,
            "duration": 0.10000000000000053
          },
          {
            "pitch": 35,
            "start": 4.504545454545454,
            "end": 4.534090909090909,
            "velocity": 117,
            "duration": 0.029545454545455208
          },
          {
            "pitch": 35,
            "start": 4.575,
            "end": 4.6045454545454545,
            "velocity": 65,
            "duration": 0.02954545454545432
          },
          {
            "pitch": 51,
            "start": 4.597727272727273,
            "end": 4.6045454545454545,
            "velocity": 76,
            "duration": 0.006818181818181834
          },
          {
            "pitch": 35,
            "start": 4.620454545454545,
            "end": 4.675,
            "velocity": 78,
            "duration": 0.054545454545454675
          },
          {
            "pitch": 51,
            "start": 4.6909090909090905,
            "end": 4.697727272727272,
            "velocity": 69,
            "duration": 0.006818181818181834
          },
          {
            "pitch": 35,
            "start": 4.6909090909090905,
            "end": 4.720454545454545,
            "velocity": 111,
            "duration": 0.02954545454545432
          },
          {
            "pitch": 42,
            "start": 4.620454545454545,
            "end": 4.720454545454545,
            "velocity": 100,
            "duration": 0.09999999999999964
          },
          {
            "pitch": 42,
            "start": 4.6909090909090905,
            "end": 4.720454545454545,
            "velocity": 89,
            "duration": 0.02954545454545432
          },
          {
            "pitch": 37,
            "start": 4.643181818181818,
            "end": 4.743181818181818,
            "velocity": 95,
            "duration": 0.10000000000000053
          },
          {
            "pitch": 37,
            "start": 4.736363636363636,
            "end": 4.743181818181818,
            "velocity": 103,
            "duration": 0.006818181818181834
          },
          {
            "pitch": 35,
            "start": 4.759090909090909,
            "end": 4.790909090909091,
            "velocity": 81,
            "duration": 0.03181818181818219
          },
          {
            "pitch": 37,
            "start": 4.852272727272727,
            "end": 4.952272727272727,
            "velocity": 101,
            "duration": 0.10000000000000053
          },
          {
            "pitch": 37,
            "start": 4.922727272727273,
            "end": 4.952272727272727,
            "velocity": 90,
            "duration": 0.02954545454545432
          },
          {
            "pitch": 35,
            "start": 4.877272727272727,
            "end": 4.977272727272727,
            "velocity": 117,
            "duration": 0.09999999999999964
          },
          {
            "pitch": 35,
            "start": 4.945454545454545,
            "end": 4.977272727272727,
            "velocity": 90,
            "duration": 0.0318181818181813
          },
          {
            "pitch": 37,
            "start": 5.015909090909091,
            "end": 5.0227272727272725,
            "velocity": 89,
            "duration": 0.006818181818181834
          },
          {
            "pitch": 42,
            "start": 4.993181818181818,
            "end": 5.093181818181818,
            "velocity": 68,
            "duration": 0.09999999999999964
          },
          {
            "pitch": 42,
            "start": 5.0613636363636365,
            "end": 5.093181818181818,
            "velocity": 111,
            "duration": 0.0318181818181813
          },
          {
            "pitch": 37,
            "start": 5.1090909090909085,
            "end": 5.11590909090909,
            "velocity": 115,
            "duration": 0.006818181818181834
          },
          {
            "pitch": 35,
            "start": 5.0613636363636365,
            "end": 5.161363636363636,
            "velocity": 118,
            "duration": 0.09999999999999964
          },
          {
            "pitch": 35,
            "start": 5.131818181818182,
            "end": 5.161363636363636,
            "velocity": 91,
            "duration": 0.02954545454545432
          },
          {
            "pitch": 51,
            "start": 5.0613636363636365,
            "end": 5.161363636363636,
            "velocity": 81,
            "duration": 0.09999999999999964
          },
          {
            "pitch": 51,
            "start": 5.131818181818182,
            "end": 5.161363636363636,
            "velocity": 79,
            "duration": 0.02954545454545432
          },
          {
            "pitch": 37,
            "start": 5.177272727272727,
            "end": 5.209090909090909,
            "velocity": 67,
            "duration": 0.03181818181818219
          },
          {
            "pitch": 51,
            "start": 5.225,
            "end": 5.2318181818181815,
            "velocity": 99,
            "duration": 0.006818181818181834
          },
          {
            "pitch": 45,
            "start": 5.154545454545454,
            "end": 5.254545454545454,
            "velocity": 70,
            "duration": 0.09999999999999964
          },
          {
            "pitch": 45,
            "start": 5.247727272727272,
            "end": 5.254545454545454,
            "velocity": 75,
            "duration": 0.006818181818181834
          },
          {
            "pitch": 35,
            "start": 5.247727272727272,
            "end": 5.347727272727273,
            "velocity": 102,
            "duration": 0.10000000000000053
          },
          {
            "pitch": 45,
            "start": 5.293181818181818,
            "end": 5.347727272727273,
            "velocity": 85,
            "duration": 0.054545454545454675
          },
          {
            "pitch": 51,
            "start": 5.386363636363636,
            "end": 5.486363636363636,
            "velocity": 70,
            "duration": 0.10000000000000053
          },
          {
            "pitch": 41,
            "start": 5.411363636363636,
            "end": 5.511363636363636,
            "velocity": 71,
            "duration": 0.09999999999999964
          },
          {
            "pitch": 35,
            "start": 5.502272727272727,
            "end": 5.602272727272727,
            "velocity": 91,
            "duration": 0.09999999999999964
          },
          {
            "pitch": 35,
            "start": 5.595454545454545,
            "end": 5.602272727272727,
            "velocity": 111,
            "duration": 0.006818181818181834
          },
          {
            "pitch": 42,
            "start": 5.502272727272727,
            "end": 5.602272727272727,
            "velocity": 83,
            "duration": 0.09999999999999964
          },
          {
            "pitch": 51,
            "start": 5.502272727272727,
            "end": 5.602272727272727,
            "velocity": 86,
            "duration": 0.09999999999999964
          },
          {
            "pitch": 51,
            "start": 5.595454545454545,
            "end": 5.602272727272727,
            "velocity": 88,
            "duration": 0.006818181818181834
          },
          {
            "pitch": 35,
            "start": 5.6886363636363635,
            "end": 5.695454545454545,
            "velocity": 123,
            "duration": 0.006818181818181834
          },
          {
            "pitch": 51,
            "start": 5.6886363636363635,
            "end": 5.695454545454545,
            "velocity": 101,
            "duration": 0.006818181818181834
          },
          {
            "pitch": 35,
            "start": 5.759090909090909,
            "end": 5.788636363636363,
            "velocity": 89,
            "duration": 0.02954545454545432
          },
          {
            "pitch": 42,
            "start": 5.6886363636363635,
            "end": 5.788636363636363,
            "velocity": 101,
            "duration": 0.09999999999999964
          },
          {
            "pitch": 51,
            "start": 5.759090909090909,
            "end": 5.788636363636363,
            "velocity": 94,
            "duration": 0.02954545454545432
          },
          {
            "pitch": 37,
            "start": 5.736363636363636,
            "end": 5.836363636363636,
            "velocity": 90,
            "duration": 0.09999999999999964
          },
          {
            "pitch": 37,
            "start": 5.852272727272727,
            "end": 5.952272727272727,
            "velocity": 109,
            "duration": 0.10000000000000053
          },
          {
            "pitch": 35,
            "start": 5.875,
            "end": 5.975,
            "velocity": 124,
            "duration": 0.09999999999999964
          },
          {
            "pitch": 35,
            "start": 5.9431818181818175,
            "end": 5.975,
            "velocity": 97,
            "duration": 0.03181818181818219
          },
          {
            "pitch": 42,
            "start": 5.875,
            "end": 5.975,
            "velocity": 108,
            "duration": 0.09999999999999964
          },
          {
            "pitch": 42,
            "start": 5.968181818181818,
            "end": 5.975,
            "velocity": 90,
            "duration": 0.006818181818181834
          },
          {
            "pitch": 51,
            "start": 5.875,
            "end": 5.975,
            "velocity": 107,
            "duration": 0.09999999999999964
          },
          {
            "pitch": 51,
            "start": 5.9431818181818175,
            "end": 5.975,
            "velocity": 75,
            "duration": 0.03181818181818219
          },
          {
            "pitch": 51,
            "start": 5.99090909090909,
            "end": 6.043181818181818,
            "velocity": 65,
            "duration": 0.05227272727272769
          },
          {
            "pitch": 51,
            "start": 6.036363636363636,
            "end": 6.043181818181818,
            "velocity": 77,
            "duration": 0.006818181818181834
          },
          {
            "pitch": 37,
            "start": 5.968181818181818,
            "end": 6.0681818181818175,
            "velocity": 71,
            "duration": 0.09999999999999964
          },
          {
            "pitch": 42,
            "start": 6.0613636363636365,
            "end": 6.0681818181818175,
            "velocity": 107,
            "duration": 0.006818181818180946
          },
          {
            "pitch": 51,
            "start": 6.129545454545454,
            "end": 6.136363636363636,
            "velocity": 100,
            "duration": 0.006818181818181834
          },
          {
            "pitch": 35,
            "start": 6.0613636363636365,
            "end": 6.161363636363636,
            "velocity": 103,
            "duration": 0.09999999999999964
          },
          {
            "pitch": 35,
            "start": 6.129545454545454,
            "end": 6.161363636363636,
            "velocity": 113,
            "duration": 0.03181818181818219
          },
          {
            "pitch": 37,
            "start": 6.084090909090909,
            "end": 6.184090909090909,
            "velocity": 70,
            "duration": 0.09999999999999964
          },
          {
            "pitch": 51,
            "start": 6.222727272727273,
            "end": 6.2295454545454545,
            "velocity": 71,
            "duration": 0.006818181818181834
          },
          {
            "pitch": 51,
            "start": 6.2704545454545455,
            "end": 6.322727272727272,
            "velocity": 77,
            "duration": 0.052272727272726804
          },
          {
            "pitch": 51,
            "start": 6.3159090909090905,
            "end": 6.322727272727272,
            "velocity": 84,
            "duration": 0.006818181818181834
          },
          {
            "pitch": 35,
            "start": 6.245454545454545,
            "end": 6.345454545454545,
            "velocity": 92,
            "duration": 0.09999999999999964
          },
          {
            "pitch": 35,
            "start": 6.3159090909090905,
            "end": 6.345454545454545,
            "velocity": 115,
            "duration": 0.02954545454545432
          },
          {
            "pitch": 42,
            "start": 6.245454545454545,
            "end": 6.345454545454545,
            "velocity": 98,
            "duration": 0.09999999999999964
          },
          {
            "pitch": 42,
            "start": 6.3159090909090905,
            "end": 6.345454545454545,
            "velocity": 101,
            "duration": 0.02954545454545432
          },
          {
            "pitch": 37,
            "start": 6.293181818181818,
            "end": 6.393181818181818,
            "velocity": 70,
            "duration": 0.09999999999999964
          },
          {
            "pitch": 37,
            "start": 6.361363636363636,
            "end": 6.393181818181818,
            "velocity": 94,
            "duration": 0.0318181818181813
          },
          {
            "pitch": 35,
            "start": 6.386363636363636,
            "end": 6.415909090909091,
            "velocity": 70,
            "duration": 0.029545454545455208
          },
          {
            "pitch": 42,
            "start": 6.409090909090909,
            "end": 6.415909090909091,
            "velocity": 86,
            "duration": 0.006818181818181834
          },
          {
            "pitch": 51,
            "start": 6.409090909090909,
            "end": 6.415909090909091,
            "velocity": 95,
            "duration": 0.006818181818181834
          },
          {
            "pitch": 37,
            "start": 6.454545454545454,
            "end": 6.461363636363636,
            "velocity": 81,
            "duration": 0.006818181818181834
          },
          {
            "pitch": 35,
            "start": 6.431818181818182,
            "end": 6.486363636363636,
            "velocity": 76,
            "duration": 0.054545454545454675
          },
          {
            "pitch": 42,
            "start": 6.502272727272727,
            "end": 6.509090909090909,
            "velocity": 98,
            "duration": 0.006818181818181834
          },
          {
            "pitch": 51,
            "start": 6.502272727272727,
            "end": 6.509090909090909,
            "velocity": 107,
            "duration": 0.006818181818181834
          },
          {
            "pitch": 35,
            "start": 6.502272727272727,
            "end": 6.531818181818181,
            "velocity": 124,
            "duration": 0.02954545454545432
          },
          {
            "pitch": 37,
            "start": 6.5249999999999995,
            "end": 6.554545454545454,
            "velocity": 92,
            "duration": 0.02954545454545432
          },
          {
            "pitch": 35,
            "start": 6.570454545454545,
            "end": 6.602272727272727,
            "velocity": 94,
            "duration": 0.0318181818181813
          },
          {
            "pitch": 51,
            "start": 6.595454545454545,
            "end": 6.602272727272727,
            "velocity": 83,
            "duration": 0.006818181818181834
          },
          {
            "pitch": 51,
            "start": 6.686363636363636,
            "end": 6.695454545454545,
            "velocity": 98,
            "duration": 0.009090909090909705
          },
          {
            "pitch": 35,
            "start": 6.686363636363636,
            "end": 6.786363636363636,
            "velocity": 120,
            "duration": 0.10000000000000053
          },
          {
            "pitch": 35,
            "start": 6.756818181818182,
            "end": 6.786363636363636,
            "velocity": 101,
            "duration": 0.02954545454545432
          },
          {
            "pitch": 42,
            "start": 6.686363636363636,
            "end": 6.786363636363636,
            "velocity": 114,
            "duration": 0.10000000000000053
          },
          {
            "pitch": 42,
            "start": 6.756818181818182,
            "end": 6.786363636363636,
            "velocity": 64,
            "duration": 0.02954545454545432
          },
          {
            "pitch": 51,
            "start": 6.756818181818182,
            "end": 6.786363636363636,
            "velocity": 94,
            "duration": 0.02954545454545432
          },
          {
            "pitch": 37,
            "start": 6.85,
            "end": 6.949999999999999,
            "velocity": 96,
            "duration": 0.09999999999999964
          },
          {
            "pitch": 35,
            "start": 6.872727272727272,
            "end": 6.972727272727273,
            "velocity": 114,
            "duration": 0.10000000000000053
          },
          {
            "pitch": 35,
            "start": 6.9431818181818175,
            "end": 6.972727272727273,
            "velocity": 114,
            "duration": 0.029545454545455208
          },
          {
            "pitch": 42,
            "start": 6.872727272727272,
            "end": 6.972727272727273,
            "velocity": 90,
            "duration": 0.10000000000000053
          },
          {
            "pitch": 42,
            "start": 6.9431818181818175,
            "end": 6.972727272727273,
            "velocity": 88,
            "duration": 0.029545454545455208
          },
          {
            "pitch": 51,
            "start": 6.872727272727272,
            "end": 6.972727272727273,
            "velocity": 99,
            "duration": 0.10000000000000053
          },
          {
            "pitch": 51,
            "start": 6.9431818181818175,
            "end": 6.972727272727273,
            "velocity": 98,
            "duration": 0.029545454545455208
          },
          {
            "pitch": 51,
            "start": 6.988636363636363,
            "end": 7.043181818181818,
            "velocity": 74,
            "duration": 0.054545454545454675
          },
          {
            "pitch": 51,
            "start": 7.036363636363636,
            "end": 7.043181818181818,
            "velocity": 87,
            "duration": 0.006818181818181834
          },
          {
            "pitch": 51,
            "start": 7.129545454545454,
            "end": 7.136363636363636,
            "velocity": 107,
            "duration": 0.006818181818181834
          },
          {
            "pitch": 35,
            "start": 7.059090909090909,
            "end": 7.159090909090909,
            "velocity": 72,
            "duration": 0.10000000000000053
          },
          {
            "pitch": 35,
            "start": 7.129545454545454,
            "end": 7.159090909090909,
            "velocity": 122,
            "duration": 0.029545454545455208
          },
          {
            "pitch": 42,
            "start": 7.059090909090909,
            "end": 7.159090909090909,
            "velocity": 99,
            "duration": 0.10000000000000053
          },
          {
            "pitch": 42,
            "start": 7.129545454545454,
            "end": 7.159090909090909,
            "velocity": 80,
            "duration": 0.029545454545455208
          },
          {
            "pitch": 37,
            "start": 7.081818181818181,
            "end": 7.181818181818182,
            "velocity": 95,
            "duration": 0.10000000000000053
          },
          {
            "pitch": 51,
            "start": 7.220454545454545,
            "end": 7.2295454545454545,
            "velocity": 82,
            "duration": 0.009090909090909705
          },
          {
            "pitch": 37,
            "start": 7.220454545454545,
            "end": 7.320454545454545,
            "velocity": 67,
            "duration": 0.10000000000000053
          },
          {
            "pitch": 37,
            "start": 7.268181818181818,
            "end": 7.320454545454545,
            "velocity": 83,
            "duration": 0.05227272727272769
          },
          {
            "pitch": 51,
            "start": 7.3136363636363635,
            "end": 7.320454545454545,
            "velocity": 94,
            "duration": 0.006818181818181834
          },
          {
            "pitch": 35,
            "start": 7.245454545454545,
            "end": 7.345454545454545,
            "velocity": 76,
            "duration": 0.09999999999999964
          },
          {
            "pitch": 35,
            "start": 7.3136363636363635,
            "end": 7.345454545454545,
            "velocity": 121,
            "duration": 0.0318181818181813
          },
          {
            "pitch": 42,
            "start": 7.245454545454545,
            "end": 7.345454545454545,
            "velocity": 101,
            "duration": 0.09999999999999964
          },
          {
            "pitch": 42,
            "start": 7.3136363636363635,
            "end": 7.345454545454545,
            "velocity": 112,
            "duration": 0.0318181818181813
          },
          {
            "pitch": 37,
            "start": 7.338636363636363,
            "end": 7.368181818181818,
            "velocity": 93,
            "duration": 0.029545454545455208
          },
          {
            "pitch": 35,
            "start": 7.384090909090909,
            "end": 7.413636363636363,
            "velocity": 79,
            "duration": 0.02954545454545432
          },
          {
            "pitch": 42,
            "start": 7.406818181818181,
            "end": 7.413636363636363,
            "velocity": 101,
            "duration": 0.006818181818181834
          },
          {
            "pitch": 51,
            "start": 7.406818181818181,
            "end": 7.413636363636363,
            "velocity": 97,
            "duration": 0.006818181818181834
          },
          {
            "pitch": 42,
            "start": 7.5,
            "end": 7.506818181818182,
            "velocity": 114,
            "duration": 0.006818181818181834
          },
          {
            "pitch": 51,
            "start": 7.5,
            "end": 7.506818181818182,
            "velocity": 103,
            "duration": 0.006818181818181834
          },
          {
            "pitch": 37,
            "start": 7.454545454545454,
            "end": 7.554545454545454,
            "velocity": 68,
            "duration": 0.09999999999999964
          },
          {
            "pitch": 37,
            "start": 7.545454545454545,
            "end": 7.554545454545454,
            "velocity": 66,
            "duration": 0.009090909090908816
          },
          {
            "pitch": 35,
            "start": 7.5,
            "end": 7.6,
            "velocity": 125,
            "duration": 0.09999999999999964
          },
          {
            "pitch": 35,
            "start": 7.570454545454545,
            "end": 7.6,
            "velocity": 101,
            "duration": 0.02954545454545432
          },
          {
            "pitch": 42,
            "start": 7.593181818181818,
            "end": 7.6,
            "velocity": 88,
            "duration": 0.006818181818181834
          },
          {
            "pitch": 51,
            "start": 7.570454545454545,
            "end": 7.6,
            "velocity": 86,
            "duration": 0.02954545454545432
          },
          {
            "pitch": 45,
            "start": 7.5227272727272725,
            "end": 7.622727272727272,
            "velocity": 66,
            "duration": 0.09999999999999964
          },
          {
            "pitch": 51,
            "start": 7.663636363636363,
            "end": 7.670454545454545,
            "velocity": 99,
            "duration": 0.006818181818181834
          },
          {
            "pitch": 42,
            "start": 7.686363636363636,
            "end": 7.6931818181818175,
            "velocity": 90,
            "duration": 0.006818181818181834
          },
          {
            "pitch": 51,
            "start": 7.754545454545454,
            "end": 7.763636363636364,
            "velocity": 95,
            "duration": 0.009090909090909705
          },
          {
            "pitch": 35,
            "start": 7.709090909090909,
            "end": 7.809090909090909,
            "velocity": 77,
            "duration": 0.09999999999999964
          },
          {
            "pitch": 35,
            "start": 7.754545454545454,
            "end": 7.809090909090909,
            "velocity": 65,
            "duration": 0.054545454545454675
          },
          {
            "pitch": 51,
            "start": 7.847727272727273,
            "end": 7.8545454545454545,
            "velocity": 100,
            "duration": 0.006818181818181834
          },
          {
            "pitch": 51,
            "start": 7.9409090909090905,
            "end": 7.947727272727272,
            "velocity": 73,
            "duration": 0.006818181818181834
          },
          {
            "pitch": 35,
            "start": 7.870454545454545,
            "end": 7.970454545454545,
            "velocity": 97,
            "duration": 0.09999999999999964
          },
          {
            "pitch": 42,
            "start": 7.870454545454545,
            "end": 7.970454545454545,
            "velocity": 91,
            "duration": 0.09999999999999964
          },
          {
            "pitch": 42,
            "start": 7.963636363636363,
            "end": 7.970454545454545,
            "velocity": 79,
            "duration": 0.006818181818181834
          },
          {
            "pitch": 51,
            "start": 7.988636363636363,
            "end": 8.040909090909091,
            "velocity": 79,
            "duration": 0.05227272727272769
          },
          {
            "pitch": 51,
            "start": 8.034090909090908,
            "end": 8.040909090909091,
            "velocity": 94,
            "duration": 0.0068181818181827225
          },
          {
            "pitch": 42,
            "start": 8.056818181818182,
            "end": 8.063636363636363,
            "velocity": 97,
            "duration": 0.006818181818180946
          },
          {
            "pitch": 51,
            "start": 8.104545454545454,
            "end": 8.134090909090908,
            "velocity": 76,
            "duration": 0.02954545454545432
          },
          {
            "pitch": 42,
            "start": 8.127272727272727,
            "end": 8.156818181818181,
            "velocity": 93,
            "duration": 0.02954545454545432
          },
          {
            "pitch": 41,
            "start": 8.15,
            "end": 8.25,
            "velocity": 79,
            "duration": 0.09999999999999964
          },
          {
            "pitch": 51,
            "start": 8.220454545454546,
            "end": 8.320454545454545,
            "velocity": 100,
            "duration": 0.09999999999999964
          },
          {
            "pitch": 51,
            "start": 8.288636363636364,
            "end": 8.320454545454545,
            "velocity": 92,
            "duration": 0.0318181818181813
          },
          {
            "pitch": 35,
            "start": 8.243181818181817,
            "end": 8.343181818181817,
            "velocity": 74,
            "duration": 0.09999999999999964
          },
          {
            "pitch": 35,
            "start": 8.313636363636363,
            "end": 8.343181818181817,
            "velocity": 82,
            "duration": 0.02954545454545432
          },
          {
            "pitch": 42,
            "start": 8.313636363636363,
            "end": 8.413636363636364,
            "velocity": 107,
            "duration": 0.10000000000000142
          },
          {
            "pitch": 42,
            "start": 8.404545454545454,
            "end": 8.413636363636364,
            "velocity": 69,
            "duration": 0.009090909090909705
          },
          {
            "pitch": 42,
            "start": 8.497727272727273,
            "end": 8.504545454545454,
            "velocity": 77,
            "duration": 0.006818181818180946
          },
          {
            "pitch": 51,
            "start": 8.404545454545454,
            "end": 8.504545454545454,
            "velocity": 73,
            "duration": 0.09999999999999964
          },
          {
            "pitch": 51,
            "start": 8.475,
            "end": 8.504545454545454,
            "velocity": 82,
            "duration": 0.02954545454545432
          },
          {
            "pitch": 35,
            "start": 8.497727272727273,
            "end": 8.597727272727273,
            "velocity": 90,
            "duration": 0.09999999999999964
          },
          {
            "pitch": 42,
            "start": 8.59090909090909,
            "end": 8.597727272727273,
            "velocity": 79,
            "duration": 0.0068181818181827225
          },
          {
            "pitch": 41,
            "start": 8.522727272727272,
            "end": 8.622727272727273,
            "velocity": 68,
            "duration": 0.10000000000000142
          },
          {
            "pitch": 42,
            "start": 8.684090909090909,
            "end": 8.690909090909091,
            "velocity": 91,
            "duration": 0.0068181818181827225
          },
          {
            "pitch": 51,
            "start": 8.661363636363635,
            "end": 8.761363636363637,
            "velocity": 79,
            "duration": 0.10000000000000142
          },
          {
            "pitch": 51,
            "start": 8.754545454545454,
            "end": 8.761363636363637,
            "velocity": 94,
            "duration": 0.0068181818181827225
          },
          {
            "pitch": 35,
            "start": 8.684090909090909,
            "end": 8.784090909090908,
            "velocity": 86,
            "duration": 0.09999999999999964
          },
          {
            "pitch": 35,
            "start": 8.754545454545454,
            "end": 8.784090909090908,
            "velocity": 106,
            "duration": 0.02954545454545432
          },
          {
            "pitch": 42,
            "start": 8.777272727272727,
            "end": 8.784090909090908,
            "velocity": 70,
            "duration": 0.006818181818180946
          },
          {
            "pitch": 41,
            "start": 8.73181818181818,
            "end": 8.831818181818182,
            "velocity": 75,
            "duration": 0.10000000000000142
          },
          {
            "pitch": 41,
            "start": 8.777272727272727,
            "end": 8.831818181818182,
            "velocity": 66,
            "duration": 0.054545454545454675
          },
          {
            "pitch": 51,
            "start": 8.847727272727273,
            "end": 8.854545454545454,
            "velocity": 78,
            "duration": 0.006818181818180946
          },
          {
            "pitch": 42,
            "start": 8.870454545454544,
            "end": 8.877272727272727,
            "velocity": 87,
            "duration": 0.0068181818181827225
          },
          {
            "pitch": 35,
            "start": 8.870454545454544,
            "end": 8.970454545454546,
            "velocity": 81,
            "duration": 0.10000000000000142
          },
          {
            "pitch": 35,
            "start": 8.938636363636363,
            "end": 8.970454545454546,
            "velocity": 100,
            "duration": 0.03181818181818308
          },
          {
            "pitch": 42,
            "start": 8.963636363636363,
            "end": 8.970454545454546,
            "velocity": 66,
            "duration": 0.0068181818181827225
          },
          {
            "pitch": 37,
            "start": 8.893181818181818,
            "end": 8.993181818181817,
            "velocity": 120,
            "duration": 0.09999999999999964
          },
          {
            "pitch": 37,
            "start": 8.986363636363636,
            "end": 8.993181818181817,
            "velocity": 100,
            "duration": 0.006818181818180946
          },
          {
            "pitch": 35,
            "start": 9.009090909090908,
            "end": 9.038636363636364,
            "velocity": 75,
            "duration": 0.029545454545456096
          },
          {
            "pitch": 42,
            "start": 9.056818181818182,
            "end": 9.063636363636363,
            "velocity": 81,
            "duration": 0.006818181818180946
          },
          {
            "pitch": 35,
            "start": 9.056818181818182,
            "end": 9.10909090909091,
            "velocity": 77,
            "duration": 0.05227272727272769
          },
          {
            "pitch": 51,
            "start": 9.031818181818181,
            "end": 9.131818181818181,
            "velocity": 75,
            "duration": 0.09999999999999964
          },
          {
            "pitch": 51,
            "start": 9.102272727272727,
            "end": 9.131818181818181,
            "velocity": 85,
            "duration": 0.02954545454545432
          },
          {
            "pitch": 35,
            "start": 9.125,
            "end": 9.156818181818181,
            "velocity": 109,
            "duration": 0.0318181818181813
          },
          {
            "pitch": 45,
            "start": 9.079545454545453,
            "end": 9.179545454545455,
            "velocity": 95,
            "duration": 0.10000000000000142
          },
          {
            "pitch": 51,
            "start": 9.172727272727272,
            "end": 9.202272727272726,
            "velocity": 76,
            "duration": 0.02954545454545432
          },
          {
            "pitch": 51,
            "start": 9.218181818181817,
            "end": 9.272727272727272,
            "velocity": 78,
            "duration": 0.054545454545454675
          },
          {
            "pitch": 41,
            "start": 9.218181818181817,
            "end": 9.318181818181818,
            "velocity": 69,
            "duration": 0.10000000000000142
          },
          {
            "pitch": 51,
            "start": 9.311363636363636,
            "end": 9.318181818181818,
            "velocity": 93,
            "duration": 0.0068181818181827225
          },
          {
            "pitch": 35,
            "start": 9.311363636363636,
            "end": 9.411363636363635,
            "velocity": 114,
            "duration": 0.09999999999999964
          },
          {
            "pitch": 35,
            "start": 9.381818181818181,
            "end": 9.411363636363635,
            "velocity": 72,
            "duration": 0.02954545454545432
          },
          {
            "pitch": 42,
            "start": 9.311363636363636,
            "end": 9.411363636363635,
            "velocity": 94,
            "duration": 0.09999999999999964
          },
          {
            "pitch": 42,
            "start": 9.404545454545454,
            "end": 9.411363636363635,
            "velocity": 81,
            "duration": 0.006818181818180946
          },
          {
            "pitch": 51,
            "start": 9.35681818181818,
            "end": 9.411363636363635,
            "velocity": 81,
            "duration": 0.054545454545454675
          },
          {
            "pitch": 51,
            "start": 9.404545454545454,
            "end": 9.411363636363635,
            "velocity": 80,
            "duration": 0.006818181818180946
          },
          {
            "pitch": 42,
            "start": 9.497727272727273,
            "end": 9.504545454545454,
            "velocity": 88,
            "duration": 0.006818181818180946
          },
          {
            "pitch": 35,
            "start": 9.497727272727273,
            "end": 9.597727272727273,
            "velocity": 90,
            "duration": 0.09999999999999964
          },
          {
            "pitch": 35,
            "start": 9.56590909090909,
            "end": 9.597727272727273,
            "velocity": 101,
            "duration": 0.03181818181818308
          },
          {
            "pitch": 42,
            "start": 9.59090909090909,
            "end": 9.597727272727273,
            "velocity": 81,
            "duration": 0.0068181818181827225
          },
          {
            "pitch": 37,
            "start": 9.520454545454545,
            "end": 9.620454545454544,
            "velocity": 104,
            "duration": 0.09999999999999964
          },
          {
            "pitch": 51,
            "start": 9.56590909090909,
            "end": 9.665909090909091,
            "velocity": 64,
            "duration": 0.10000000000000142
          },
          {
            "pitch": 51,
            "start": 9.659090909090908,
            "end": 9.665909090909091,
            "velocity": 85,
            "duration": 0.0068181818181827225
          },
          {
            "pitch": 42,
            "start": 9.681818181818182,
            "end": 9.69090909090909,
            "velocity": 95,
            "duration": 0.009090909090907928
          },
          {
            "pitch": 41,
            "start": 9.659090909090908,
            "end": 9.759090909090908,
            "velocity": 68,
            "duration": 0.09999999999999964
          },
          {
            "pitch": 51,
            "start": 9.752272727272727,
            "end": 9.759090909090908,
            "velocity": 87,
            "duration": 0.006818181818180946
          },
          {
            "pitch": 35,
            "start": 9.681818181818182,
            "end": 9.781818181818181,
            "velocity": 78,
            "duration": 0.09999999999999964
          },
          {
            "pitch": 35,
            "start": 9.752272727272727,
            "end": 9.781818181818181,
            "velocity": 79,
            "duration": 0.02954545454545432
          },
          {
            "pitch": 42,
            "start": 9.752272727272727,
            "end": 9.781818181818181,
            "velocity": 71,
            "duration": 0.02954545454545432
          },
          {
            "pitch": 35,
            "start": 9.822727272727272,
            "end": 9.852272727272727,
            "velocity": 65,
            "duration": 0.02954545454545432
          },
          {
            "pitch": 37,
            "start": 9.775,
            "end": 9.875,
            "velocity": 70,
            "duration": 0.09999999999999964
          },
          {
            "pitch": 37,
            "start": 9.845454545454546,
            "end": 9.875,
            "velocity": 85,
            "duration": 0.02954545454545432
          },
          {
            "pitch": 35,
            "start": 9.868181818181817,
            "end": 9.922727272727272,
            "velocity": 98,
            "duration": 0.054545454545454675
          },
          {
            "pitch": 37,
            "start": 9.89090909090909,
            "end": 9.945454545454545,
            "velocity": 109,
            "duration": 0.054545454545454675
          },
          {
            "pitch": 35,
            "start": 9.938636363636363,
            "end": 9.968181818181817,
            "velocity": 113,
            "duration": 0.02954545454545432
          },
          {
            "pitch": 42,
            "start": 9.868181818181817,
            "end": 9.968181818181817,
            "velocity": 106,
            "duration": 0.09999999999999964
          },
          {
            "pitch": 42,
            "start": 9.938636363636363,
            "end": 9.968181818181817,
            "velocity": 74,
            "duration": 0.02954545454545432
          },
          {
            "pitch": 51,
            "start": 9.868181818181817,
            "end": 9.968181818181817,
            "velocity": 79,
            "duration": 0.09999999999999964
          },
          {
            "pitch": 51,
            "start": 9.938636363636363,
            "end": 9.968181818181817,
            "velocity": 93,
            "duration": 0.02954545454545432
          },
          {
            "pitch": 35,
            "start": 10.006818181818181,
            "end": 10.038636363636364,
            "velocity": 74,
            "duration": 0.03181818181818308
          },
          {
            "pitch": 51,
            "start": 9.98409090909091,
            "end": 10.038636363636364,
            "velocity": 79,
            "duration": 0.054545454545454675
          },
          {
            "pitch": 37,
            "start": 10.031818181818181,
            "end": 10.131818181818181,
            "velocity": 84,
            "duration": 0.09999999999999964
          },
          {
            "pitch": 35,
            "start": 10.125,
            "end": 10.225,
            "velocity": 79,
            "duration": 0.09999999999999964
          },
          {
            "pitch": 35,
            "start": 10.193181818181818,
            "end": 10.225,
            "velocity": 68,
            "duration": 0.0318181818181813
          },
          {
            "pitch": 42,
            "start": 10.125,
            "end": 10.225,
            "velocity": 92,
            "duration": 0.09999999999999964
          },
          {
            "pitch": 42,
            "start": 10.193181818181818,
            "end": 10.225,
            "velocity": 79,
            "duration": 0.0318181818181813
          },
          {
            "pitch": 51,
            "start": 10.125,
            "end": 10.225,
            "velocity": 92,
            "duration": 0.09999999999999964
          },
          {
            "pitch": 51,
            "start": 10.193181818181818,
            "end": 10.225,
            "velocity": 87,
            "duration": 0.0318181818181813
          },
          {
            "pitch": 41,
            "start": 10.21590909090909,
            "end": 10.31590909090909,
            "velocity": 71,
            "duration": 0.09999999999999964
          },
          {
            "pitch": 35,
            "start": 10.309090909090909,
            "end": 10.409090909090908,
            "velocity": 104,
            "duration": 0.09999999999999964
          },
          {
            "pitch": 35,
            "start": 10.379545454545454,
            "end": 10.409090909090908,
            "velocity": 94,
            "duration": 0.02954545454545432
          },
          {
            "pitch": 42,
            "start": 10.309090909090909,
            "end": 10.409090909090908,
            "velocity": 90,
            "duration": 0.09999999999999964
          },
          {
            "pitch": 42,
            "start": 10.402272727272727,
            "end": 10.409090909090908,
            "velocity": 65,
            "duration": 0.006818181818180946
          },
          {
            "pitch": 51,
            "start": 10.331818181818182,
            "end": 10.431818181818182,
            "velocity": 93,
            "duration": 0.09999999999999964
          },
          {
            "pitch": 51,
            "start": 10.379545454545454,
            "end": 10.431818181818182,
            "velocity": 89,
            "duration": 0.05227272727272769
          },
          {
            "pitch": 51,
            "start": 10.472727272727273,
            "end": 10.479545454545454,
            "velocity": 70,
            "duration": 0.006818181818180946
          },
          {
            "pitch": 35,
            "start": 10.495454545454544,
            "end": 10.595454545454546,
            "velocity": 74,
            "duration": 0.10000000000000142
          },
          {
            "pitch": 35,
            "start": 10.56590909090909,
            "end": 10.595454545454546,
            "velocity": 69,
            "duration": 0.029545454545456096
          },
          {
            "pitch": 37,
            "start": 10.518181818181818,
            "end": 10.618181818181817,
            "velocity": 97,
            "duration": 0.09999999999999964
          },
          {
            "pitch": 37,
            "start": 10.588636363636363,
            "end": 10.618181818181817,
            "velocity": 93,
            "duration": 0.02954545454545432
          },
          {
            "pitch": 41,
            "start": 10.518181818181818,
            "end": 10.618181818181817,
            "velocity": 78,
            "duration": 0.09999999999999964
          },
          {
            "pitch": 42,
            "start": 10.611363636363636,
            "end": 10.711363636363636,
            "velocity": 92,
            "duration": 0.09999999999999964
          },
          {
            "pitch": 42,
            "start": 10.681818181818182,
            "end": 10.711363636363636,
            "velocity": 94,
            "duration": 0.02954545454545432
          },
          {
            "pitch": 51,
            "start": 10.659090909090908,
            "end": 10.759090909090908,
            "velocity": 68,
            "duration": 0.09999999999999964
          },
          {
            "pitch": 51,
            "start": 10.75,
            "end": 10.759090909090908,
            "velocity": 85,
            "duration": 0.009090909090907928
          },
          {
            "pitch": 35,
            "start": 10.681818181818182,
            "end": 10.781818181818181,
            "velocity": 80,
            "duration": 0.09999999999999964
          },
          {
            "pitch": 35,
            "start": 10.75,
            "end": 10.781818181818181,
            "velocity": 112,
            "duration": 0.0318181818181813
          },
          {
            "pitch": 42,
            "start": 10.75,
            "end": 10.781818181818181,
            "velocity": 97,
            "duration": 0.0318181818181813
          },
          {
            "pitch": 37,
            "start": 10.727272727272727,
            "end": 10.827272727272726,
            "velocity": 70,
            "duration": 0.09999999999999964
          },
          {
            "pitch": 35,
            "start": 10.820454545454545,
            "end": 10.85,
            "velocity": 65,
            "duration": 0.02954545454545432
          },
          {
            "pitch": 51,
            "start": 10.797727272727272,
            "end": 10.85,
            "velocity": 82,
            "duration": 0.05227272727272769
          },
          {
            "pitch": 51,
            "start": 10.843181818181817,
            "end": 10.85,
            "velocity": 75,
            "duration": 0.0068181818181827225
          },
          {
            "pitch": 35,
            "start": 10.86590909090909,
            "end": 10.920454545454545,
            "velocity": 70,
            "duration": 0.054545454545454675
          },
          {
            "pitch": 51,
            "start": 10.936363636363636,
            "end": 10.943181818181818,
            "velocity": 81,
            "duration": 0.0068181818181827225
          },
          {
            "pitch": 35,
            "start": 10.936363636363636,
            "end": 10.96590909090909,
            "velocity": 111,
            "duration": 0.02954545454545432
          },
          {
            "pitch": 35,
            "start": 11.006818181818181,
            "end": 11.036363636363635,
            "velocity": 74,
            "duration": 0.02954545454545432
          },
          {
            "pitch": 42,
            "start": 10.936363636363636,
            "end": 11.036363636363635,
            "velocity": 99,
            "duration": 0.09999999999999964
          },
          {
            "pitch": 51,
            "start": 11.006818181818181,
            "end": 11.036363636363635,
            "velocity": 80,
            "duration": 0.02954545454545432
          },
          {
            "pitch": 37,
            "start": 10.98409090909091,
            "end": 11.084090909090909,
            "velocity": 89,
            "duration": 0.09999999999999964
          },
          {
            "pitch": 51,
            "start": 11.1,
            "end": 11.10681818181818,
            "velocity": 75,
            "duration": 0.006818181818180946
          },
          {
            "pitch": 51,
            "start": 11.19090909090909,
            "end": 11.2,
            "velocity": 67,
            "duration": 0.009090909090909705
          },
          {
            "pitch": 35,
            "start": 11.122727272727273,
            "end": 11.222727272727273,
            "velocity": 78,
            "duration": 0.09999999999999964
          },
          {
            "pitch": 42,
            "start": 11.122727272727273,
            "end": 11.222727272727273,
            "velocity": 85,
            "duration": 0.09999999999999964
          },
          {
            "pitch": 42,
            "start": 11.19090909090909,
            "end": 11.222727272727273,
            "velocity": 68,
            "duration": 0.03181818181818308
          },
          {
            "pitch": 51,
            "start": 11.261363636363637,
            "end": 11.290909090909091,
            "velocity": 75,
            "duration": 0.02954545454545432
          },
          {
            "pitch": 35,
            "start": 11.309090909090909,
            "end": 11.409090909090908,
            "velocity": 90,
            "duration": 0.09999999999999964
          },
          {
            "pitch": 35,
            "start": 11.377272727272727,
            "end": 11.409090909090908,
            "velocity": 107,
            "duration": 0.0318181818181813
          },
          {
            "pitch": 42,
            "start": 11.309090909090909,
            "end": 11.409090909090908,
            "velocity": 65,
            "duration": 0.09999999999999964
          },
          {
            "pitch": 35,
            "start": 11.447727272727272,
            "end": 11.477272727272727,
            "velocity": 66,
            "duration": 0.02954545454545432
          },
          {
            "pitch": 37,
            "start": 11.399999999999999,
            "end": 11.5,
            "velocity": 104,
            "duration": 0.10000000000000142
          },
          {
            "pitch": 37,
            "start": 11.470454545454546,
            "end": 11.5,
            "velocity": 78,
            "duration": 0.02954545454545432
          },
          {
            "pitch": 35,
            "start": 11.493181818181817,
            "end": 11.547727272727272,
            "velocity": 71,
            "duration": 0.054545454545454675
          },
          {
            "pitch": 35,
            "start": 11.563636363636363,
            "end": 11.593181818181817,
            "velocity": 107,
            "duration": 0.02954545454545432
          },
          {
            "pitch": 42,
            "start": 11.493181818181817,
            "end": 11.593181818181817,
            "velocity": 68,
            "duration": 0.09999999999999964
          },
          {
            "pitch": 42,
            "start": 11.563636363636363,
            "end": 11.593181818181817,
            "velocity": 89,
            "duration": 0.02954545454545432
          },
          {
            "pitch": 51,
            "start": 11.563636363636363,
            "end": 11.663636363636362,
            "velocity": 86,
            "duration": 0.09999999999999964
          },
          {
            "pitch": 51,
            "start": 11.656818181818181,
            "end": 11.663636363636362,
            "velocity": 85,
            "duration": 0.006818181818180946
          },
          {
            "pitch": 51,
            "start": 11.75,
            "end": 11.756818181818181,
            "velocity": 98,
            "duration": 0.006818181818180946
          },
          {
            "pitch": 42,
            "start": 11.679545454545455,
            "end": 11.779545454545454,
            "velocity": 65,
            "duration": 0.09999999999999964
          },
          {
            "pitch": 42,
            "start": 11.75,
            "end": 11.779545454545454,
            "velocity": 84,
            "duration": 0.02954545454545432
          },
          {
            "pitch": 35,
            "start": 11.75,
            "end": 11.85,
            "velocity": 117,
            "duration": 0.09999999999999964
          },
          {
            "pitch": 35,
            "start": 11.818181818181818,
            "end": 11.85,
            "velocity": 64,
            "duration": 0.0318181818181813
          },
          {
            "pitch": 51,
            "start": 11.843181818181817,
            "end": 11.85,
            "velocity": 86,
            "duration": 0.0068181818181827225
          },
          {
            "pitch": 35,
            "start": 11.86590909090909,
            "end": 11.918181818181818,
            "velocity": 68,
            "duration": 0.05227272727272769
          },
          {
            "pitch": 51,
            "start": 11.934090909090909,
            "end": 11.943181818181818,
            "velocity": 76,
            "duration": 0.009090909090909705
          },
          {
            "pitch": 35,
            "start": 11.934090909090909,
            "end": 11.96590909090909,
            "velocity": 102,
            "duration": 0.0318181818181813
          },
          {
            "pitch": 35,
            "start": 12.004545454545454,
            "end": 12.034090909090908,
            "velocity": 80,
            "duration": 0.02954545454545432
          },
          {
            "pitch": 42,
            "start": 11.934090909090909,
            "end": 12.034090909090908,
            "velocity": 83,
            "duration": 0.09999999999999964
          },
          {
            "pitch": 51,
            "start": 12.004545454545454,
            "end": 12.034090909090908,
            "velocity": 77,
            "duration": 0.02954545454545432
          },
          {
            "pitch": 37,
            "start": 11.959090909090909,
            "end": 12.059090909090909,
            "velocity": 83,
            "duration": 0.09999999999999964
          },
          {
            "pitch": 37,
            "start": 12.052272727272726,
            "end": 12.059090909090909,
            "velocity": 70,
            "duration": 0.0068181818181827225
          },
          {
            "pitch": 51,
            "start": 12.097727272727273,
            "end": 12.104545454545454,
            "velocity": 75,
            "duration": 0.006818181818180946
          },
          {
            "pitch": 37,
            "start": 12.143181818181818,
            "end": 12.152272727272727,
            "velocity": 82,
            "duration": 0.009090909090909705
          },
          {
            "pitch": 35,
            "start": 12.120454545454544,
            "end": 12.220454545454546,
            "velocity": 81,
            "duration": 0.10000000000000142
          },
          {
            "pitch": 35,
            "start": 12.19090909090909,
            "end": 12.220454545454546,
            "velocity": 88,
            "duration": 0.029545454545456096
          },
          {
            "pitch": 42,
            "start": 12.120454545454544,
            "end": 12.220454545454546,
            "velocity": 92,
            "duration": 0.10000000000000142
          },
          {
            "pitch": 37,
            "start": 12.236363636363636,
            "end": 12.243181818181817,
            "velocity": 87,
            "duration": 0.006818181818180946
          },
          {
            "pitch": 35,
            "start": 12.306818181818182,
            "end": 12.406818181818181,
            "velocity": 78,
            "duration": 0.09999999999999964
          },
          {
            "pitch": 35,
            "start": 12.377272727272727,
            "end": 12.406818181818181,
            "velocity": 104,
            "duration": 0.02954545454545432
          },
          {
            "pitch": 37,
            "start": 12.352272727272727,
            "end": 12.452272727272726,
            "velocity": 77,
            "duration": 0.09999999999999964
          },
          {
            "pitch": 37,
            "start": 12.422727272727272,
            "end": 12.452272727272726,
            "velocity": 79,
            "duration": 0.02954545454545432
          },
          {
            "pitch": 35,
            "start": 12.445454545454545,
            "end": 12.477272727272727,
            "velocity": 63,
            "duration": 0.0318181818181813
          },
          {
            "pitch": 35,
            "start": 12.493181818181817,
            "end": 12.545454545454545,
            "velocity": 67,
            "duration": 0.05227272727272769
          },
          {
            "pitch": 42,
            "start": 12.493181818181817,
            "end": 12.593181818181817,
            "velocity": 75,
            "duration": 0.09999999999999964
          },
          {
            "pitch": 42,
            "start": 12.561363636363636,
            "end": 12.593181818181817,
            "velocity": 91,
            "duration": 0.0318181818181813
          },
          {
            "pitch": 35,
            "start": 12.631818181818181,
            "end": 12.73181818181818,
            "velocity": 64,
            "duration": 0.09999999999999964
          },
          {
            "pitch": 41,
            "start": 12.793181818181818,
            "end": 12.893181818181818,
            "velocity": 68,
            "duration": 0.09999999999999964
          },
          {
            "pitch": 35,
            "start": 12.84090909090909,
            "end": 12.94090909090909,
            "velocity": 76,
            "duration": 0.09999999999999964
          },
          {
            "pitch": 35,
            "start": 12.886363636363635,
            "end": 12.94090909090909,
            "velocity": 69,
            "duration": 0.054545454545454675
          },
          {
            "pitch": 35,
            "start": 12.934090909090909,
            "end": 12.94090909090909,
            "velocity": 69,
            "duration": 0.006818181818180946
          },
          {
            "pitch": 41,
            "start": 12.911363636363635,
            "end": 13.011363636363635,
            "velocity": 67,
            "duration": 0.09999999999999964
          },
          {
            "pitch": 51,
            "start": 13.002272727272727,
            "end": 13.102272727272727,
            "velocity": 75,
            "duration": 0.09999999999999964
          },
          {
            "pitch": 51,
            "start": 13.095454545454546,
            "end": 13.102272727272727,
            "velocity": 77,
            "duration": 0.006818181818180946
          },
          {
            "pitch": 51,
            "start": 13.188636363636363,
            "end": 13.195454545454545,
            "velocity": 96,
            "duration": 0.0068181818181827225
          },
          {
            "pitch": 35,
            "start": 13.118181818181817,
            "end": 13.218181818181817,
            "velocity": 96,
            "duration": 0.09999999999999964
          },
          {
            "pitch": 35,
            "start": 13.188636363636363,
            "end": 13.218181818181817,
            "velocity": 114,
            "duration": 0.02954545454545432
          },
          {
            "pitch": 42,
            "start": 13.188636363636363,
            "end": 13.288636363636362,
            "velocity": 94,
            "duration": 0.09999999999999964
          },
          {
            "pitch": 51,
            "start": 13.281818181818181,
            "end": 13.288636363636362,
            "velocity": 87,
            "duration": 0.006818181818180946
          },
          {
            "pitch": 51,
            "start": 13.375,
            "end": 13.381818181818181,
            "velocity": 98,
            "duration": 0.006818181818180946
          },
          {
            "pitch": 35,
            "start": 13.304545454545455,
            "end": 13.404545454545454,
            "velocity": 63,
            "duration": 0.09999999999999964
          },
          {
            "pitch": 35,
            "start": 13.375,
            "end": 13.404545454545454,
            "velocity": 114,
            "duration": 0.02954545454545432
          },
          {
            "pitch": 42,
            "start": 13.304545454545455,
            "end": 13.404545454545454,
            "velocity": 64,
            "duration": 0.09999999999999964
          },
          {
            "pitch": 42,
            "start": 13.375,
            "end": 13.404545454545454,
            "velocity": 101,
            "duration": 0.02954545454545432
          },
          {
            "pitch": 37,
            "start": 13.352272727272727,
            "end": 13.452272727272726,
            "velocity": 82,
            "duration": 0.09999999999999964
          },
          {
            "pitch": 35,
            "start": 13.445454545454545,
            "end": 13.475,
            "velocity": 70,
            "duration": 0.02954545454545432
          },
          {
            "pitch": 51,
            "start": 13.468181818181817,
            "end": 13.475,
            "velocity": 67,
            "duration": 0.0068181818181827225
          },
          {
            "pitch": 37,
            "start": 13.468181818181817,
            "end": 13.568181818181818,
            "velocity": 68,
            "duration": 0.10000000000000142
          },
          {
            "pitch": 37,
            "start": 13.536363636363635,
            "end": 13.568181818181818,
            "velocity": 81,
            "duration": 0.03181818181818308
          },
          {
            "pitch": 51,
            "start": 13.561363636363636,
            "end": 13.568181818181818,
            "velocity": 75,
            "duration": 0.0068181818181827225
          },
          {
            "pitch": 35,
            "start": 13.561363636363636,
            "end": 13.661363636363635,
            "velocity": 105,
            "duration": 0.09999999999999964
          },
          {
            "pitch": 35,
            "start": 13.629545454545454,
            "end": 13.661363636363635,
            "velocity": 93,
            "duration": 0.0318181818181813
          },
          {
            "pitch": 42,
            "start": 13.561363636363636,
            "end": 13.661363636363635,
            "velocity": 99,
            "duration": 0.09999999999999964
          },
          {
            "pitch": 51,
            "start": 13.629545454545454,
            "end": 13.661363636363635,
            "velocity": 86,
            "duration": 0.0318181818181813
          },
          {
            "pitch": 35,
            "start": 13.745454545454544,
            "end": 13.845454545454544,
            "velocity": 97,
            "duration": 0.09999999999999964
          },
          {
            "pitch": 35,
            "start": 13.81590909090909,
            "end": 13.845454545454544,
            "velocity": 101,
            "duration": 0.02954545454545432
          },
          {
            "pitch": 42,
            "start": 13.745454545454544,
            "end": 13.845454545454544,
            "velocity": 90,
            "duration": 0.09999999999999964
          },
          {
            "pitch": 42,
            "start": 13.81590909090909,
            "end": 13.845454545454544,
            "velocity": 90,
            "duration": 0.02954545454545432
          },
          {
            "pitch": 37,
            "start": 13.770454545454545,
            "end": 13.870454545454544,
            "velocity": 92,
            "duration": 0.09999999999999964
          },
          {
            "pitch": 37,
            "start": 13.861363636363636,
            "end": 13.870454545454544,
            "velocity": 67,
            "duration": 0.009090909090907928
          },
          {
            "pitch": 51,
            "start": 13.81590909090909,
            "end": 13.915909090909091,
            "velocity": 80,
            "duration": 0.10000000000000142
          },
          {
            "pitch": 51,
            "start": 13.909090909090908,
            "end": 13.915909090909091,
            "velocity": 83,
            "duration": 0.0068181818181827225
          },
          {
            "pitch": 37,
            "start": 13.954545454545453,
            "end": 13.961363636363636,
            "velocity": 75,
            "duration": 0.0068181818181827225
          },
          {
            "pitch": 51,
            "start": 14.002272727272727,
            "end": 14.009090909090908,
            "velocity": 99,
            "duration": 0.006818181818180946
          },
          {
            "pitch": 35,
            "start": 13.931818181818182,
            "end": 14.031818181818181,
            "velocity": 91,
            "duration": 0.09999999999999964
          },
          {
            "pitch": 35,
            "start": 14.002272727272727,
            "end": 14.031818181818181,
            "velocity": 117,
            "duration": 0.02954545454545432
          },
          {
            "pitch": 42,
            "start": 13.931818181818182,
            "end": 14.031818181818181,
            "velocity": 80,
            "duration": 0.09999999999999964
          },
          {
            "pitch": 37,
            "start": 14.047727272727272,
            "end": 14.054545454545455,
            "velocity": 86,
            "duration": 0.0068181818181827225
          },
          {
            "pitch": 51,
            "start": 14.095454545454544,
            "end": 14.102272727272727,
            "velocity": 79,
            "duration": 0.0068181818181827225
          },
          {
            "pitch": 51,
            "start": 14.186363636363636,
            "end": 14.195454545454545,
            "velocity": 98,
            "duration": 0.009090909090909705
          },
          {
            "pitch": 35,
            "start": 14.118181818181817,
            "end": 14.218181818181817,
            "velocity": 74,
            "duration": 0.09999999999999964
          },
          {
            "pitch": 35,
            "start": 14.186363636363636,
            "end": 14.218181818181817,
            "velocity": 115,
            "duration": 0.0318181818181813
          },
          {
            "pitch": 35,
            "start": 14.256818181818181,
            "end": 14.286363636363635,
            "velocity": 73,
            "duration": 0.02954545454545432
          },
          {
            "pitch": 42,
            "start": 14.186363636363636,
            "end": 14.286363636363635,
            "velocity": 107,
            "duration": 0.09999999999999964
          },
          {
            "pitch": 51,
            "start": 14.256818181818181,
            "end": 14.286363636363635,
            "velocity": 85,
            "duration": 0.02954545454545432
          },
          {
            "pitch": 37,
            "start": 14.35,
            "end": 14.45,
            "velocity": 92,
            "duration": 0.09999999999999964
          },
          {
            "pitch": 35,
            "start": 14.372727272727271,
            "end": 14.472727272727273,
            "velocity": 107,
            "duration": 0.10000000000000142
          },
          {
            "pitch": 35,
            "start": 14.443181818181818,
            "end": 14.472727272727273,
            "velocity": 85,
            "duration": 0.02954545454545432
          },
          {
            "pitch": 42,
            "start": 14.372727272727271,
            "end": 14.472727272727273,
            "velocity": 95,
            "duration": 0.10000000000000142
          },
          {
            "pitch": 51,
            "start": 14.372727272727271,
            "end": 14.472727272727273,
            "velocity": 91,
            "duration": 0.10000000000000142
          },
          {
            "pitch": 51,
            "start": 14.443181818181818,
            "end": 14.472727272727273,
            "velocity": 77,
            "duration": 0.02954545454545432
          },
          {
            "pitch": 51,
            "start": 14.536363636363635,
            "end": 14.543181818181818,
            "velocity": 70,
            "duration": 0.0068181818181827225
          },
          {
            "pitch": 37,
            "start": 14.536363636363635,
            "end": 14.636363636363635,
            "velocity": 74,
            "duration": 0.09999999999999964
          },
          {
            "pitch": 51,
            "start": 14.629545454545454,
            "end": 14.636363636363635,
            "velocity": 90,
            "duration": 0.006818181818180946
          },
          {
            "pitch": 35,
            "start": 14.559090909090909,
            "end": 14.659090909090908,
            "velocity": 77,
            "duration": 0.09999999999999964
          },
          {
            "pitch": 35,
            "start": 14.629545454545454,
            "end": 14.659090909090908,
            "velocity": 108,
            "duration": 0.02954545454545432
          },
          {
            "pitch": 42,
            "start": 14.559090909090909,
            "end": 14.659090909090908,
            "velocity": 97,
            "duration": 0.09999999999999964
          },
          {
            "pitch": 51,
            "start": 14.720454545454544,
            "end": 14.729545454545454,
            "velocity": 78,
            "duration": 0.009090909090909705
          },
          {
            "pitch": 51,
            "start": 14.813636363636363,
            "end": 14.820454545454545,
            "velocity": 81,
            "duration": 0.0068181818181827225
          },
          {
            "pitch": 35,
            "start": 14.745454545454544,
            "end": 14.845454545454544,
            "velocity": 82,
            "duration": 0.09999999999999964
          },
          {
            "pitch": 35,
            "start": 14.813636363636363,
            "end": 14.845454545454544,
            "velocity": 111,
            "duration": 0.0318181818181813
          },
          {
            "pitch": 37,
            "start": 14.768181818181818,
            "end": 14.868181818181817,
            "velocity": 73,
            "duration": 0.09999999999999964
          },
          {
            "pitch": 37,
            "start": 14.861363636363636,
            "end": 14.868181818181817,
            "velocity": 99,
            "duration": 0.006818181818180946
          },
          {
            "pitch": 35,
            "start": 14.884090909090908,
            "end": 14.913636363636362,
            "velocity": 64,
            "duration": 0.02954545454545432
          },
          {
            "pitch": 42,
            "start": 14.813636363636363,
            "end": 14.913636363636362,
            "velocity": 101,
            "duration": 0.09999999999999964
          },
          {
            "pitch": 51,
            "start": 14.906818181818181,
            "end": 14.913636363636362,
            "velocity": 88,
            "duration": 0.006818181818180946
          },
          {
            "pitch": 37,
            "start": 14.929545454545455,
            "end": 14.961363636363636,
            "velocity": 64,
            "duration": 0.0318181818181813
          },
          {
            "pitch": 35,
            "start": 14.929545454545455,
            "end": 14.984090909090908,
            "velocity": 65,
            "duration": 0.0545454545454529
          },
          {
            "pitch": 51,
            "start": 14.977272727272727,
            "end": 15.006818181818181,
            "velocity": 93,
            "duration": 0.02954545454545432
          },
          {
            "pitch": 51,
            "start": 15.070454545454545,
            "end": 15.077272727272726,
            "velocity": 64,
            "duration": 0.006818181818180946
          },
          {
            "pitch": 37,
            "start": 15.045454545454545,
            "end": 15.145454545454545,
            "velocity": 101,
            "duration": 0.09999999999999964
          },
          {
            "pitch": 37,
            "start": 15.093181818181817,
            "end": 15.145454545454545,
            "velocity": 89,
            "duration": 0.05227272727272769
          },
          {
            "pitch": 37,
            "start": 15.138636363636364,
            "end": 15.145454545454545,
            "velocity": 101,
            "duration": 0.006818181818180946
          },
          {
            "pitch": 51,
            "start": 15.163636363636362,
            "end": 15.170454545454545,
            "velocity": 71,
            "duration": 0.0068181818181827225
          },
          {
            "pitch": 37,
            "start": 15.186363636363636,
            "end": 15.193181818181817,
            "velocity": 66,
            "duration": 0.006818181818180946
          },
          {
            "pitch": 51,
            "start": 15.254545454545454,
            "end": 15.263636363636364,
            "velocity": 78,
            "duration": 0.009090909090909705
          },
          {
            "pitch": 42,
            "start": 15.186363636363636,
            "end": 15.286363636363635,
            "velocity": 65,
            "duration": 0.09999999999999964
          },
          {
            "pitch": 42,
            "start": 15.279545454545454,
            "end": 15.286363636363635,
            "velocity": 67,
            "duration": 0.006818181818180946
          },
          {
            "pitch": 51,
            "start": 15.302272727272726,
            "end": 15.354545454545454,
            "velocity": 76,
            "duration": 0.05227272727272769
          },
          {
            "pitch": 51,
            "start": 15.347727272727273,
            "end": 15.354545454545454,
            "velocity": 94,
            "duration": 0.006818181818180946
          },
          {
            "pitch": 42,
            "start": 15.372727272727271,
            "end": 15.379545454545454,
            "velocity": 87,
            "duration": 0.0068181818181827225
          },
          {
            "pitch": 51,
            "start": 15.418181818181818,
            "end": 15.447727272727272,
            "velocity": 71,
            "duration": 0.02954545454545432
          },
          {
            "pitch": 51,
            "start": 15.463636363636363,
            "end": 15.518181818181818,
            "velocity": 69,
            "duration": 0.054545454545454675
          },
          {
            "pitch": 51,
            "start": 15.534090909090908,
            "end": 15.563636363636363,
            "velocity": 87,
            "duration": 0.02954545454545432
          },
          {
            "pitch": 37,
            "start": 15.488636363636363,
            "end": 15.588636363636363,
            "velocity": 87,
            "duration": 0.09999999999999964
          },
          {
            "pitch": 51,
            "start": 15.627272727272727,
            "end": 15.634090909090908,
            "velocity": 86,
            "duration": 0.006818181818180946
          },
          {
            "pitch": 42,
            "start": 15.556818181818182,
            "end": 15.656818181818181,
            "velocity": 77,
            "duration": 0.09999999999999964
          },
          {
            "pitch": 35,
            "start": 15.627272727272727,
            "end": 15.727272727272727,
            "velocity": 110,
            "duration": 0.09999999999999964
          },
          {
            "pitch": 51,
            "start": 15.720454545454544,
            "end": 15.727272727272727,
            "velocity": 90,
            "duration": 0.0068181818181827225
          },
          {
            "pitch": 51,
            "start": 15.788636363636362,
            "end": 15.820454545454545,
            "velocity": 77,
            "duration": 0.03181818181818308
          },
          {
            "pitch": 35,
            "start": 15.743181818181817,
            "end": 15.843181818181817,
            "velocity": 69,
            "duration": 0.09999999999999964
          },
          {
            "pitch": 37,
            "start": 15.76590909090909,
            "end": 15.86590909090909,
            "velocity": 107,
            "duration": 0.09999999999999964
          },
          {
            "pitch": 37,
            "start": 15.859090909090908,
            "end": 15.86590909090909,
            "velocity": 88,
            "duration": 0.0068181818181827225
          },
          {
            "pitch": 51,
            "start": 15.881818181818181,
            "end": 15.888636363636364,
            "velocity": 63,
            "duration": 0.0068181818181827225
          },
          {
            "pitch": 42,
            "start": 15.813636363636363,
            "end": 15.913636363636362,
            "velocity": 72,
            "duration": 0.09999999999999964
          },
          {
            "pitch": 37,
            "start": 15.904545454545454,
            "end": 15.959090909090909,
            "velocity": 69,
            "duration": 0.054545454545454675
          },
          {
            "pitch": 35,
            "start": 15.997727272727271,
            "end": 16.097727272727273,
            "velocity": 86,
            "duration": 0.10000000000000142
          },
          {
            "pitch": 51,
            "start": 15.997727272727271,
            "end": 16.097727272727273,
            "velocity": 86,
            "duration": 0.10000000000000142
          },
          {
            "pitch": 51,
            "start": 16.09090909090909,
            "end": 16.097727272727273,
            "velocity": 68,
            "duration": 0.0068181818181827225
          },
          {
            "pitch": 42,
            "start": 16.068181818181817,
            "end": 16.168181818181818,
            "velocity": 63,
            "duration": 0.10000000000000142
          },
          {
            "pitch": 51,
            "start": 16.161363636363635,
            "end": 16.19090909090909,
            "velocity": 71,
            "duration": 0.029545454545456096
          },
          {
            "pitch": 51,
            "start": 16.254545454545454,
            "end": 16.261363636363637,
            "velocity": 84,
            "duration": 0.0068181818181827225
          },
          {
            "pitch": 37,
            "start": 16.18409090909091,
            "end": 16.28409090909091,
            "velocity": 68,
            "duration": 0.10000000000000142
          },
          {
            "pitch": 35,
            "start": 16.254545454545454,
            "end": 16.354545454545455,
            "velocity": 85,
            "duration": 0.10000000000000142
          },
          {
            "pitch": 51,
            "start": 16.347727272727273,
            "end": 16.354545454545455,
            "velocity": 84,
            "duration": 0.0068181818181827225
          },
          {
            "pitch": 37,
            "start": 16.3,
            "end": 16.4,
            "velocity": 66,
            "duration": 0.09999999999999787
          },
          {
            "pitch": 37,
            "start": 16.393181818181816,
            "end": 16.4,
            "velocity": 97,
            "duration": 0.0068181818181827225
          },
          {
            "pitch": 51,
            "start": 16.438636363636363,
            "end": 16.44772727272727,
            "velocity": 67,
            "duration": 0.009090909090907928
          },
          {
            "pitch": 35,
            "start": 16.370454545454546,
            "end": 16.470454545454544,
            "velocity": 92,
            "duration": 0.09999999999999787
          },
          {
            "pitch": 42,
            "start": 16.370454545454546,
            "end": 16.470454545454544,
            "velocity": 73,
            "duration": 0.09999999999999787
          },
          {
            "pitch": 42,
            "start": 16.438636363636363,
            "end": 16.470454545454544,
            "velocity": 69,
            "duration": 0.0318181818181813
          },
          {
            "pitch": 37,
            "start": 16.486363636363635,
            "end": 16.493181818181817,
            "velocity": 99,
            "duration": 0.0068181818181827225
          },
          {
            "pitch": 51,
            "start": 16.53181818181818,
            "end": 16.538636363636364,
            "velocity": 65,
            "duration": 0.0068181818181827225
          },
          {
            "pitch": 35,
            "start": 16.625,
            "end": 16.724999999999998,
            "velocity": 109,
            "duration": 0.09999999999999787
          },
          {
            "pitch": 35,
            "start": 16.74090909090909,
            "end": 16.84090909090909,
            "velocity": 68,
            "duration": 0.10000000000000142
          },
          {
            "pitch": 37,
            "start": 16.76590909090909,
            "end": 16.86590909090909,
            "velocity": 79,
            "duration": 0.09999999999999787
          },
          {
            "pitch": 37,
            "start": 16.85681818181818,
            "end": 16.86590909090909,
            "velocity": 91,
            "duration": 0.009090909090907928
          },
          {
            "pitch": 37,
            "start": 16.95,
            "end": 16.956818181818182,
            "velocity": 100,
            "duration": 0.0068181818181827225
          },
          {
            "pitch": 35,
            "start": 16.881818181818183,
            "end": 16.98181818181818,
            "velocity": 65,
            "duration": 0.09999999999999787
          },
          {
            "pitch": 35,
            "start": 16.927272727272726,
            "end": 16.98181818181818,
            "velocity": 67,
            "duration": 0.054545454545454675
          },
          {
            "pitch": 37,
            "start": 17.06590909090909,
            "end": 17.16590909090909,
            "velocity": 75,
            "duration": 0.09999999999999787
          },
          {
            "pitch": 51,
            "start": 17.113636363636363,
            "end": 17.21363636363636,
            "velocity": 67,
            "duration": 0.09999999999999787
          },
          {
            "pitch": 51,
            "start": 17.18181818181818,
            "end": 17.21363636363636,
            "velocity": 78,
            "duration": 0.0318181818181813
          },
          {
            "pitch": 37,
            "start": 17.206818181818182,
            "end": 17.30681818181818,
            "velocity": 66,
            "duration": 0.09999999999999787
          },
          {
            "pitch": 37,
            "start": 17.275,
            "end": 17.30681818181818,
            "velocity": 90,
            "duration": 0.0318181818181813
          },
          {
            "pitch": 45,
            "start": 17.3,
            "end": 17.4,
            "velocity": 89,
            "duration": 0.09999999999999787
          },
          {
            "pitch": 41,
            "start": 17.39090909090909,
            "end": 17.49090909090909,
            "velocity": 67,
            "duration": 0.09999999999999787
          },
          {
            "pitch": 41,
            "start": 17.438636363636363,
            "end": 17.49090909090909,
            "velocity": 64,
            "duration": 0.052272727272725916
          },
          {
            "pitch": 51,
            "start": 17.41590909090909,
            "end": 17.51590909090909,
            "velocity": 71,
            "duration": 0.10000000000000142
          },
          {
            "pitch": 41,
            "start": 17.53181818181818,
            "end": 17.538636363636364,
            "velocity": 83,
            "duration": 0.0068181818181827225
          },
          {
            "pitch": 35,
            "start": 17.461363636363636,
            "end": 17.561363636363634,
            "velocity": 70,
            "duration": 0.09999999999999787
          },
          {
            "pitch": 35,
            "start": 17.554545454545455,
            "end": 17.561363636363634,
            "velocity": 68,
            "duration": 0.00681818181817917
          },
          {
            "pitch": 35,
            "start": 17.625,
            "end": 17.654545454545453,
            "velocity": 101,
            "duration": 0.029545454545452543
          },
          {
            "pitch": 51,
            "start": 17.625,
            "end": 17.724999999999998,
            "velocity": 86,
            "duration": 0.09999999999999787
          },
          {
            "pitch": 51,
            "start": 17.693181818181817,
            "end": 17.724999999999998,
            "velocity": 71,
            "duration": 0.0318181818181813
          },
          {
            "pitch": 51,
            "start": 17.786363636363635,
            "end": 17.793181818181818,
            "velocity": 80,
            "duration": 0.0068181818181827225
          },
          {
            "pitch": 51,
            "start": 17.879545454545454,
            "end": 17.886363636363637,
            "velocity": 85,
            "duration": 0.0068181818181827225
          },
          {
            "pitch": 35,
            "start": 17.80909090909091,
            "end": 17.909090909090907,
            "velocity": 84,
            "duration": 0.09999999999999787
          },
          {
            "pitch": 35,
            "start": 17.879545454545454,
            "end": 17.909090909090907,
            "velocity": 82,
            "duration": 0.029545454545452543
          },
          {
            "pitch": 42,
            "start": 17.80909090909091,
            "end": 17.909090909090907,
            "velocity": 77,
            "duration": 0.09999999999999787
          },
          {
            "pitch": 37,
            "start": 17.85681818181818,
            "end": 17.956818181818182,
            "velocity": 79,
            "duration": 0.10000000000000142
          },
          {
            "pitch": 51,
            "start": 17.972727272727273,
            "end": 17.979545454545455,
            "velocity": 77,
            "duration": 0.0068181818181827225
          },
          {
            "pitch": 51,
            "start": 18.06590909090909,
            "end": 18.07272727272727,
            "velocity": 73,
            "duration": 0.00681818181817917
          },
          {
            "pitch": 35,
            "start": 17.995454545454546,
            "end": 18.095454545454544,
            "velocity": 79,
            "duration": 0.09999999999999787
          },
          {
            "pitch": 35,
            "start": 18.06590909090909,
            "end": 18.095454545454544,
            "velocity": 92,
            "duration": 0.029545454545452543
          },
          {
            "pitch": 42,
            "start": 17.995454545454546,
            "end": 18.095454545454544,
            "velocity": 88,
            "duration": 0.09999999999999787
          },
          {
            "pitch": 42,
            "start": 18.06590909090909,
            "end": 18.095454545454544,
            "velocity": 67,
            "duration": 0.029545454545452543
          },
          {
            "pitch": 37,
            "start": 18.018181818181816,
            "end": 18.118181818181817,
            "velocity": 73,
            "duration": 0.10000000000000142
          },
          {
            "pitch": 51,
            "start": 18.159090909090907,
            "end": 18.16590909090909,
            "velocity": 83,
            "duration": 0.0068181818181827225
          },
          {
            "pitch": 51,
            "start": 18.25,
            "end": 18.259090909090908,
            "velocity": 79,
            "duration": 0.009090909090907928
          },
          {
            "pitch": 35,
            "start": 18.18181818181818,
            "end": 18.28181818181818,
            "velocity": 89,
            "duration": 0.10000000000000142
          },
          {
            "pitch": 35,
            "start": 18.25,
            "end": 18.28181818181818,
            "velocity": 106,
            "duration": 0.0318181818181813
          },
          {
            "pitch": 42,
            "start": 18.18181818181818,
            "end": 18.28181818181818,
            "velocity": 77,
            "duration": 0.10000000000000142
          },
          {
            "pitch": 42,
            "start": 18.25,
            "end": 18.28181818181818,
            "velocity": 70,
            "duration": 0.0318181818181813
          },
          {
            "pitch": 51,
            "start": 18.34318181818182,
            "end": 18.349999999999998,
            "velocity": 73,
            "duration": 0.00681818181817917
          },
          {
            "pitch": 37,
            "start": 18.297727272727272,
            "end": 18.397727272727273,
            "velocity": 64,
            "duration": 0.10000000000000142
          },
          {
            "pitch": 51,
            "start": 18.436363636363634,
            "end": 18.443181818181817,
            "velocity": 74,
            "duration": 0.0068181818181827225
          },
          {
            "pitch": 35,
            "start": 18.36590909090909,
            "end": 18.46590909090909,
            "velocity": 72,
            "duration": 0.10000000000000142
          },
          {
            "pitch": 35,
            "start": 18.436363636363634,
            "end": 18.46590909090909,
            "velocity": 105,
            "duration": 0.029545454545456096
          },
          {
            "pitch": 42,
            "start": 18.436363636363634,
            "end": 18.536363636363635,
            "velocity": 80,
            "duration": 0.10000000000000142
          },
          {
            "pitch": 37,
            "start": 18.459090909090907,
            "end": 18.55909090909091,
            "velocity": 69,
            "duration": 0.10000000000000142
          },
          {
            "pitch": 37,
            "start": 18.529545454545453,
            "end": 18.55909090909091,
            "velocity": 64,
            "duration": 0.029545454545456096
          },
          {
            "pitch": 35,
            "start": 18.62272727272727,
            "end": 18.722727272727273,
            "velocity": 96,
            "duration": 0.10000000000000142
          },
          {
            "pitch": 35,
            "start": 18.693181818181817,
            "end": 18.722727272727273,
            "velocity": 82,
            "duration": 0.029545454545456096
          },
          {
            "pitch": 42,
            "start": 18.62272727272727,
            "end": 18.722727272727273,
            "velocity": 77,
            "duration": 0.10000000000000142
          },
          {
            "pitch": 51,
            "start": 18.62272727272727,
            "end": 18.722727272727273,
            "velocity": 86,
            "duration": 0.10000000000000142
          },
          {
            "pitch": 51,
            "start": 18.693181818181817,
            "end": 18.722727272727273,
            "velocity": 84,
            "duration": 0.029545454545456096
          },
          {
            "pitch": 51,
            "start": 18.784090909090907,
            "end": 18.793181818181818,
            "velocity": 75,
            "duration": 0.009090909090911481
          },
          {
            "pitch": 51,
            "start": 18.877272727272725,
            "end": 18.884090909090908,
            "velocity": 83,
            "duration": 0.0068181818181827225
          },
          {
            "pitch": 35,
            "start": 18.80909090909091,
            "end": 18.909090909090907,
            "velocity": 71,
            "duration": 0.09999999999999787
          },
          {
            "pitch": 35,
            "start": 18.877272727272725,
            "end": 18.909090909090907,
            "velocity": 87,
            "duration": 0.0318181818181813
          },
          {
            "pitch": 42,
            "start": 18.80909090909091,
            "end": 18.909090909090907,
            "velocity": 65,
            "duration": 0.09999999999999787
          },
          {
            "pitch": 37,
            "start": 18.854545454545455,
            "end": 18.954545454545453,
            "velocity": 64,
            "duration": 0.09999999999999787
          },
          {
            "pitch": 51,
            "start": 18.970454545454544,
            "end": 18.977272727272727,
            "velocity": 77,
            "duration": 0.0068181818181827225
          },
          {
            "pitch": 51,
            "start": 19.063636363636363,
            "end": 19.070454545454545,
            "velocity": 78,
            "duration": 0.0068181818181827225
          },
          {
            "pitch": 35,
            "start": 18.993181818181817,
            "end": 19.09318181818182,
            "velocity": 75,
            "duration": 0.10000000000000142
          },
          {
            "pitch": 35,
            "start": 19.063636363636363,
            "end": 19.09318181818182,
            "velocity": 103,
            "duration": 0.029545454545456096
          },
          {
            "pitch": 42,
            "start": 18.993181818181817,
            "end": 19.09318181818182,
            "velocity": 71,
            "duration": 0.10000000000000142
          },
          {
            "pitch": 42,
            "start": 19.063636363636363,
            "end": 19.09318181818182,
            "velocity": 82,
            "duration": 0.029545454545456096
          },
          {
            "pitch": 37,
            "start": 19.018181818181816,
            "end": 19.118181818181817,
            "velocity": 71,
            "duration": 0.10000000000000142
          },
          {
            "pitch": 51,
            "start": 19.15681818181818,
            "end": 19.163636363636364,
            "velocity": 80,
            "duration": 0.0068181818181827225
          },
          {
            "pitch": 51,
            "start": 19.25,
            "end": 19.25681818181818,
            "velocity": 86,
            "duration": 0.00681818181817917
          },
          {
            "pitch": 35,
            "start": 19.179545454545455,
            "end": 19.279545454545453,
            "velocity": 66,
            "duration": 0.09999999999999787
          },
          {
            "pitch": 35,
            "start": 19.25,
            "end": 19.279545454545453,
            "velocity": 102,
            "duration": 0.029545454545452543
          },
          {
            "pitch": 37,
            "start": 19.224999999999998,
            "end": 19.325,
            "velocity": 79,
            "duration": 0.10000000000000142
          },
          {
            "pitch": 42,
            "start": 19.25,
            "end": 19.349999999999998,
            "velocity": 98,
            "duration": 0.09999999999999787
          },
          {
            "pitch": 37,
            "start": 19.34318181818182,
            "end": 19.443181818181817,
            "velocity": 75,
            "duration": 0.09999999999999787
          },
          {
            "pitch": 51,
            "start": 19.411363636363635,
            "end": 19.511363636363637,
            "velocity": 72,
            "duration": 0.10000000000000142
          },
          {
            "pitch": 51,
            "start": 19.48181818181818,
            "end": 19.511363636363637,
            "velocity": 82,
            "duration": 0.029545454545456096
          },
          {
            "pitch": 35,
            "start": 19.43409090909091,
            "end": 19.534090909090907,
            "velocity": 84,
            "duration": 0.09999999999999787
          },
          {
            "pitch": 37,
            "start": 19.459090909090907,
            "end": 19.55909090909091,
            "velocity": 88,
            "duration": 0.10000000000000142
          },
          {
            "pitch": 37,
            "start": 19.552272727272726,
            "end": 19.55909090909091,
            "velocity": 74,
            "duration": 0.0068181818181827225
          },
          {
            "pitch": 51,
            "start": 19.527272727272727,
            "end": 19.581818181818182,
            "velocity": 66,
            "duration": 0.054545454545454675
          },
          {
            "pitch": 51,
            "start": 19.597727272727273,
            "end": 19.627272727272725,
            "velocity": 63,
            "duration": 0.029545454545452543
          },
          {
            "pitch": 37,
            "start": 19.643181818181816,
            "end": 19.652272727272727,
            "velocity": 94,
            "duration": 0.009090909090911481
          },
          {
            "pitch": 51,
            "start": 19.784090909090907,
            "end": 19.884090909090908,
            "velocity": 86,
            "duration": 0.10000000000000142
          },
          {
            "pitch": 51,
            "start": 19.877272727272725,
            "end": 19.884090909090908,
            "velocity": 76,
            "duration": 0.0068181818181827225
          },
          {
            "pitch": 51,
            "start": 19.922727272727272,
            "end": 19.977272727272727,
            "velocity": 71,
            "duration": 0.054545454545454675
          },
          {
            "pitch": 35,
            "start": 19.993181818181817,
            "end": 20.09318181818182,
            "velocity": 72,
            "duration": 0.10000000000000142
          },
          {
            "pitch": 37,
            "start": 20.01590909090909,
            "end": 20.11590909090909,
            "velocity": 67,
            "duration": 0.09999999999999787
          },
          {
            "pitch": 51,
            "start": 20.038636363636364,
            "end": 20.138636363636362,
            "velocity": 70,
            "duration": 0.09999999999999787
          },
          {
            "pitch": 42,
            "start": 20.061363636363634,
            "end": 20.161363636363635,
            "velocity": 66,
            "duration": 0.10000000000000142
          },
          {
            "pitch": 51,
            "start": 20.154545454545453,
            "end": 20.254545454545454,
            "velocity": 82,
            "duration": 0.10000000000000142
          },
          {
            "pitch": 51,
            "start": 20.24772727272727,
            "end": 20.254545454545454,
            "velocity": 75,
            "duration": 0.0068181818181827225
          },
          {
            "pitch": 35,
            "start": 20.24772727272727,
            "end": 20.347727272727273,
            "velocity": 94,
            "duration": 0.10000000000000142
          },
          {
            "pitch": 37,
            "start": 20.270454545454545,
            "end": 20.370454545454546,
            "velocity": 95,
            "duration": 0.10000000000000142
          },
          {
            "pitch": 37,
            "start": 20.318181818181817,
            "end": 20.370454545454546,
            "velocity": 70,
            "duration": 0.05227272727272947
          },
          {
            "pitch": 37,
            "start": 20.411363636363635,
            "end": 20.418181818181818,
            "velocity": 78,
            "duration": 0.0068181818181827225
          },
          {
            "pitch": 37,
            "start": 20.456818181818182,
            "end": 20.511363636363637,
            "velocity": 68,
            "duration": 0.054545454545454675
          },
          {
            "pitch": 37,
            "start": 20.55,
            "end": 20.55681818181818,
            "velocity": 65,
            "duration": 0.00681818181817917
          },
          {
            "pitch": 51,
            "start": 20.502272727272725,
            "end": 20.602272727272727,
            "velocity": 70,
            "duration": 0.10000000000000142
          },
          {
            "pitch": 37,
            "start": 20.643181818181816,
            "end": 20.65,
            "velocity": 83,
            "duration": 0.0068181818181827225
          },
          {
            "pitch": 35,
            "start": 20.620454545454546,
            "end": 20.720454545454544,
            "velocity": 80,
            "duration": 0.09999999999999787
          },
          {
            "pitch": 37,
            "start": 20.736363636363635,
            "end": 20.743181818181817,
            "velocity": 70,
            "duration": 0.0068181818181827225
          },
          {
            "pitch": 51,
            "start": 20.78181818181818,
            "end": 20.88181818181818,
            "velocity": 71,
            "duration": 0.09999999999999787
          },
          {
            "pitch": 51,
            "start": 20.875,
            "end": 20.88181818181818,
            "velocity": 76,
            "duration": 0.00681818181817917
          },
          {
            "pitch": 37,
            "start": 20.852272727272727,
            "end": 20.952272727272724,
            "velocity": 65,
            "duration": 0.09999999999999787
          },
          {
            "pitch": 37,
            "start": 20.897727272727273,
            "end": 20.952272727272724,
            "velocity": 67,
            "duration": 0.05454545454545112
          },
          {
            "pitch": 35,
            "start": 20.875,
            "end": 20.974999999999998,
            "velocity": 93,
            "duration": 0.09999999999999787
          },
          {
            "pitch": 35,
            "start": 20.99090909090909,
            "end": 21.09090909090909,
            "velocity": 70,
            "duration": 0.10000000000000142
          },
          {
            "pitch": 37,
            "start": 21.013636363636362,
            "end": 21.113636363636363,
            "velocity": 65,
            "duration": 0.10000000000000142
          },
          {
            "pitch": 45,
            "start": 21.084090909090907,
            "end": 21.18409090909091,
            "velocity": 63,
            "duration": 0.10000000000000142
          },
          {
            "pitch": 35,
            "start": 21.245454545454546,
            "end": 21.345454545454544,
            "velocity": 78,
            "duration": 0.09999999999999787
          },
          {
            "pitch": 37,
            "start": 21.270454545454545,
            "end": 21.370454545454546,
            "velocity": 87,
            "duration": 0.10000000000000142
          },
          {
            "pitch": 37,
            "start": 21.33863636363636,
            "end": 21.370454545454546,
            "velocity": 71,
            "duration": 0.031818181818184854
          },
          {
            "pitch": 37,
            "start": 21.454545454545453,
            "end": 21.554545454545455,
            "velocity": 75,
            "duration": 0.10000000000000142
          }
        ],
        "melodic_notes": [],
        "instruments": [
          {
            "program": "0",
            "is_drum": true,
            "name": "",
            "note_count": 694
          }
        ],
        "duration": 21.554545454545455,
        "tempo_changes": 0
      },
      {
        "file_path": "/home/matt/Documents/drum-tranxn/drum-transcription-api/test_audio/fixed_output.mid",
        "total_notes": 694,
        "drum_notes": [
          {
            "pitch": 35,
            "start": 0.5568181818181818,
            "end": 0.6068181818181818,
            "velocity": 126,
            "duration": 0.050000000000000044
          },
          {
            "pitch": 51,
            "start": 0.5568181818181818,
            "end": 0.6068181818181818,
            "velocity": 109,
            "duration": 0.050000000000000044
          },
          {
            "pitch": 42,
            "start": 0.7431818181818182,
            "end": 0.7931818181818181,
            "velocity": 104,
            "duration": 0.04999999999999993
          },
          {
            "pitch": 45,
            "start": 0.7431818181818182,
            "end": 0.7931818181818181,
            "velocity": 64,
            "duration": 0.04999999999999993
          },
          {
            "pitch": 35,
            "start": 1.3,
            "end": 1.3499999999999999,
            "velocity": 100,
            "duration": 0.04999999999999982
          },
          {
            "pitch": 51,
            "start": 1.3,
            "end": 1.3499999999999999,
            "velocity": 112,
            "duration": 0.04999999999999982
          },
          {
            "pitch": 41,
            "start": 1.4863636363636363,
            "end": 1.5363636363636364,
            "velocity": 75,
            "duration": 0.050000000000000044
          },
          {
            "pitch": 42,
            "start": 1.4863636363636363,
            "end": 1.5363636363636364,
            "velocity": 70,
            "duration": 0.050000000000000044
          },
          {
            "pitch": 35,
            "start": 2.043181818181818,
            "end": 2.0931818181818183,
            "velocity": 120,
            "duration": 0.050000000000000266
          },
          {
            "pitch": 41,
            "start": 2.043181818181818,
            "end": 2.0931818181818183,
            "velocity": 79,
            "duration": 0.050000000000000266
          },
          {
            "pitch": 42,
            "start": 2.043181818181818,
            "end": 2.0931818181818183,
            "velocity": 106,
            "duration": 0.050000000000000266
          },
          {
            "pitch": 51,
            "start": 2.043181818181818,
            "end": 2.0931818181818183,
            "velocity": 113,
            "duration": 0.050000000000000266
          },
          {
            "pitch": 51,
            "start": 2.786363636363636,
            "end": 2.8363636363636364,
            "velocity": 114,
            "duration": 0.050000000000000266
          },
          {
            "pitch": 35,
            "start": 2.9727272727272727,
            "end": 3.0227272727272725,
            "velocity": 102,
            "duration": 0.04999999999999982
          },
          {
            "pitch": 41,
            "start": 2.9727272727272727,
            "end": 3.0227272727272725,
            "velocity": 81,
            "duration": 0.04999999999999982
          },
          {
            "pitch": 42,
            "start": 2.9727272727272727,
            "end": 3.0227272727272725,
            "velocity": 78,
            "duration": 0.04999999999999982
          },
          {
            "pitch": 45,
            "start": 2.9727272727272727,
            "end": 3.0227272727272725,
            "velocity": 63,
            "duration": 0.04999999999999982
          },
          {
            "pitch": 35,
            "start": 3.5295454545454543,
            "end": 3.5795454545454546,
            "velocity": 106,
            "duration": 0.050000000000000266
          },
          {
            "pitch": 41,
            "start": 3.5295454545454543,
            "end": 3.5795454545454546,
            "velocity": 75,
            "duration": 0.050000000000000266
          },
          {
            "pitch": 51,
            "start": 3.5295454545454543,
            "end": 3.5795454545454546,
            "velocity": 88,
            "duration": 0.050000000000000266
          },
          {
            "pitch": 37,
            "start": 3.715909090909091,
            "end": 3.7659090909090907,
            "velocity": 78,
            "duration": 0.04999999999999982
          },
          {
            "pitch": 35,
            "start": 4.086363636363636,
            "end": 4.136363636363636,
            "velocity": 123,
            "duration": 0.04999999999999982
          },
          {
            "pitch": 41,
            "start": 4.2727272727272725,
            "end": 4.322727272727272,
            "velocity": 67,
            "duration": 0.04999999999999982
          },
          {
            "pitch": 51,
            "start": 4.2727272727272725,
            "end": 4.322727272727272,
            "velocity": 111,
            "duration": 0.04999999999999982
          },
          {
            "pitch": 42,
            "start": 4.459090909090909,
            "end": 4.509090909090909,
            "velocity": 80,
            "duration": 0.04999999999999982
          },
          {
            "pitch": 35,
            "start": 5.015909090909091,
            "end": 5.0659090909090905,
            "velocity": 112,
            "duration": 0.04999999999999982
          },
          {
            "pitch": 42,
            "start": 5.015909090909091,
            "end": 5.0659090909090905,
            "velocity": 118,
            "duration": 0.04999999999999982
          },
          {
            "pitch": 45,
            "start": 5.015909090909091,
            "end": 5.0659090909090905,
            "velocity": 71,
            "duration": 0.04999999999999982
          },
          {
            "pitch": 51,
            "start": 5.015909090909091,
            "end": 5.0659090909090905,
            "velocity": 103,
            "duration": 0.04999999999999982
          },
          {
            "pitch": 41,
            "start": 5.202272727272727,
            "end": 5.252272727272727,
            "velocity": 103,
            "duration": 0.04999999999999982
          },
          {
            "pitch": 35,
            "start": 5.572727272727272,
            "end": 5.622727272727272,
            "velocity": 88,
            "duration": 0.04999999999999982
          },
          {
            "pitch": 41,
            "start": 5.759090909090909,
            "end": 5.809090909090909,
            "velocity": 75,
            "duration": 0.04999999999999982
          },
          {
            "pitch": 51,
            "start": 5.759090909090909,
            "end": 5.809090909090909,
            "velocity": 113,
            "duration": 0.04999999999999982
          },
          {
            "pitch": 51,
            "start": 6.3159090909090905,
            "end": 6.36590909090909,
            "velocity": 110,
            "duration": 0.04999999999999982
          },
          {
            "pitch": 35,
            "start": 6.502272727272727,
            "end": 6.552272727272727,
            "velocity": 121,
            "duration": 0.04999999999999982
          },
          {
            "pitch": 42,
            "start": 6.502272727272727,
            "end": 6.552272727272727,
            "velocity": 113,
            "duration": 0.04999999999999982
          },
          {
            "pitch": 35,
            "start": 7.059090909090909,
            "end": 7.1090909090909085,
            "velocity": 121,
            "duration": 0.04999999999999982
          },
          {
            "pitch": 51,
            "start": 7.245454545454545,
            "end": 7.295454545454545,
            "velocity": 84,
            "duration": 0.04999999999999982
          },
          {
            "pitch": 35,
            "start": 7.61590909090909,
            "end": 7.66590909090909,
            "velocity": 89,
            "duration": 0.04999999999999982
          },
          {
            "pitch": 42,
            "start": 7.802272727272727,
            "end": 7.852272727272727,
            "velocity": 85,
            "duration": 0.04999999999999982
          },
          {
            "pitch": 51,
            "start": 7.802272727272727,
            "end": 7.852272727272727,
            "velocity": 101,
            "duration": 0.04999999999999982
          },
          {
            "pitch": 41,
            "start": 7.988636363636363,
            "end": 8.038636363636364,
            "velocity": 81,
            "duration": 0.05000000000000071
          },
          {
            "pitch": 35,
            "start": 8.545454545454545,
            "end": 8.595454545454546,
            "velocity": 89,
            "duration": 0.05000000000000071
          },
          {
            "pitch": 41,
            "start": 8.545454545454545,
            "end": 8.595454545454546,
            "velocity": 74,
            "duration": 0.05000000000000071
          },
          {
            "pitch": 42,
            "start": 8.545454545454545,
            "end": 8.595454545454546,
            "velocity": 91,
            "duration": 0.05000000000000071
          },
          {
            "pitch": 51,
            "start": 8.545454545454545,
            "end": 8.595454545454546,
            "velocity": 72,
            "duration": 0.05000000000000071
          },
          {
            "pitch": 51,
            "start": 9.288636363636364,
            "end": 9.338636363636363,
            "velocity": 94,
            "duration": 0.049999999999998934
          },
          {
            "pitch": 42,
            "start": 9.472727272727273,
            "end": 9.522727272727272,
            "velocity": 73,
            "duration": 0.049999999999998934
          },
          {
            "pitch": 35,
            "start": 10.031818181818181,
            "end": 10.081818181818182,
            "velocity": 122,
            "duration": 0.05000000000000071
          },
          {
            "pitch": 42,
            "start": 10.031818181818181,
            "end": 10.081818181818182,
            "velocity": 70,
            "duration": 0.05000000000000071
          },
          {
            "pitch": 51,
            "start": 10.031818181818181,
            "end": 10.081818181818182,
            "velocity": 105,
            "duration": 0.05000000000000071
          },
          {
            "pitch": 51,
            "start": 10.775,
            "end": 10.825,
            "velocity": 89,
            "duration": 0.049999999999998934
          },
          {
            "pitch": 37,
            "start": 11.145454545454545,
            "end": 11.195454545454545,
            "velocity": 113,
            "duration": 0.05000000000000071
          },
          {
            "pitch": 41,
            "start": 11.331818181818182,
            "end": 11.381818181818181,
            "velocity": 77,
            "duration": 0.049999999999998934
          },
          {
            "pitch": 35,
            "start": 11.518181818181818,
            "end": 11.568181818181818,
            "velocity": 122,
            "duration": 0.05000000000000071
          },
          {
            "pitch": 42,
            "start": 11.518181818181818,
            "end": 11.568181818181818,
            "velocity": 89,
            "duration": 0.05000000000000071
          },
          {
            "pitch": 51,
            "start": 11.518181818181818,
            "end": 11.568181818181818,
            "velocity": 85,
            "duration": 0.05000000000000071
          },
          {
            "pitch": 37,
            "start": 11.888636363636364,
            "end": 11.938636363636363,
            "velocity": 70,
            "duration": 0.049999999999998934
          },
          {
            "pitch": 35,
            "start": 12.075,
            "end": 12.125,
            "velocity": 115,
            "duration": 0.05000000000000071
          },
          {
            "pitch": 51,
            "start": 12.259090909090908,
            "end": 12.309090909090909,
            "velocity": 91,
            "duration": 0.05000000000000071
          },
          {
            "pitch": 42,
            "start": 12.445454545454545,
            "end": 12.495454545454544,
            "velocity": 92,
            "duration": 0.049999999999998934
          },
          {
            "pitch": 45,
            "start": 12.631818181818181,
            "end": 12.681818181818182,
            "velocity": 97,
            "duration": 0.05000000000000071
          },
          {
            "pitch": 35,
            "start": 13.002272727272727,
            "end": 13.052272727272726,
            "velocity": 121,
            "duration": 0.049999999999998934
          },
          {
            "pitch": 41,
            "start": 13.002272727272727,
            "end": 13.052272727272726,
            "velocity": 71,
            "duration": 0.049999999999998934
          },
          {
            "pitch": 42,
            "start": 13.002272727272727,
            "end": 13.052272727272726,
            "velocity": 96,
            "duration": 0.049999999999998934
          },
          {
            "pitch": 51,
            "start": 13.002272727272727,
            "end": 13.052272727272726,
            "velocity": 108,
            "duration": 0.049999999999998934
          },
          {
            "pitch": 35,
            "start": 13.561363636363636,
            "end": 13.611363636363636,
            "velocity": 72,
            "duration": 0.05000000000000071
          },
          {
            "pitch": 42,
            "start": 13.561363636363636,
            "end": 13.611363636363636,
            "velocity": 81,
            "duration": 0.05000000000000071
          },
          {
            "pitch": 51,
            "start": 13.561363636363636,
            "end": 13.611363636363636,
            "velocity": 70,
            "duration": 0.05000000000000071
          },
          {
            "pitch": 41,
            "start": 13.745454545454544,
            "end": 13.795454545454545,
            "velocity": 95,
            "duration": 0.05000000000000071
          },
          {
            "pitch": 51,
            "start": 14.304545454545455,
            "end": 14.354545454545454,
            "velocity": 105,
            "duration": 0.049999999999998934
          },
          {
            "pitch": 35,
            "start": 14.488636363636363,
            "end": 14.538636363636362,
            "velocity": 119,
            "duration": 0.049999999999998934
          },
          {
            "pitch": 42,
            "start": 14.488636363636363,
            "end": 14.538636363636362,
            "velocity": 102,
            "duration": 0.049999999999998934
          },
          {
            "pitch": 37,
            "start": 14.674999999999999,
            "end": 14.725,
            "velocity": 89,
            "duration": 0.05000000000000071
          },
          {
            "pitch": 35,
            "start": 15.045454545454545,
            "end": 15.095454545454544,
            "velocity": 121,
            "duration": 0.049999999999998934
          },
          {
            "pitch": 51,
            "start": 15.045454545454545,
            "end": 15.095454545454544,
            "velocity": 104,
            "duration": 0.049999999999998934
          },
          {
            "pitch": 42,
            "start": 15.23181818181818,
            "end": 15.281818181818181,
            "velocity": 95,
            "duration": 0.05000000000000071
          },
          {
            "pitch": 35,
            "start": 15.788636363636362,
            "end": 15.838636363636363,
            "velocity": 96,
            "duration": 0.05000000000000071
          },
          {
            "pitch": 51,
            "start": 15.788636363636362,
            "end": 15.838636363636363,
            "velocity": 83,
            "duration": 0.05000000000000071
          },
          {
            "pitch": 42,
            "start": 15.975,
            "end": 16.025,
            "velocity": 78,
            "duration": 0.049999999999998934
          },
          {
            "pitch": 37,
            "start": 16.161363636363635,
            "end": 16.211363636363636,
            "velocity": 80,
            "duration": 0.05000000000000071
          },
          {
            "pitch": 35,
            "start": 16.53181818181818,
            "end": 16.581818181818182,
            "velocity": 85,
            "duration": 0.05000000000000071
          },
          {
            "pitch": 51,
            "start": 16.53181818181818,
            "end": 16.581818181818182,
            "velocity": 75,
            "duration": 0.05000000000000071
          },
          {
            "pitch": 35,
            "start": 17.09090909090909,
            "end": 17.14090909090909,
            "velocity": 89,
            "duration": 0.05000000000000071
          },
          {
            "pitch": 41,
            "start": 17.275,
            "end": 17.325,
            "velocity": 90,
            "duration": 0.05000000000000071
          },
          {
            "pitch": 51,
            "start": 17.275,
            "end": 17.325,
            "velocity": 88,
            "duration": 0.05000000000000071
          },
          {
            "pitch": 42,
            "start": 17.461363636363636,
            "end": 17.511363636363637,
            "velocity": 80,
            "duration": 0.05000000000000071
          },
          {
            "pitch": 35,
            "start": 18.018181818181816,
            "end": 18.068181818181817,
            "velocity": 111,
            "duration": 0.05000000000000071
          },
          {
            "pitch": 41,
            "start": 18.018181818181816,
            "end": 18.068181818181817,
            "velocity": 87,
            "duration": 0.05000000000000071
          },
          {
            "pitch": 42,
            "start": 18.018181818181816,
            "end": 18.068181818181817,
            "velocity": 79,
            "duration": 0.05000000000000071
          },
          {
            "pitch": 51,
            "start": 18.018181818181816,
            "end": 18.068181818181817,
            "velocity": 93,
            "duration": 0.05000000000000071
          },
          {
            "pitch": 37,
            "start": 18.204545454545453,
            "end": 18.254545454545454,
            "velocity": 80,
            "duration": 0.05000000000000071
          },
          {
            "pitch": 37,
            "start": 18.761363636363637,
            "end": 18.811363636363634,
            "velocity": 73,
            "duration": 0.04999999999999716
          },
          {
            "pitch": 51,
            "start": 18.761363636363637,
            "end": 18.811363636363634,
            "velocity": 94,
            "duration": 0.04999999999999716
          },
          {
            "pitch": 35,
            "start": 18.94772727272727,
            "end": 18.99772727272727,
            "velocity": 82,
            "duration": 0.05000000000000071
          },
          {
            "pitch": 42,
            "start": 18.94772727272727,
            "end": 18.99772727272727,
            "velocity": 116,
            "duration": 0.05000000000000071
          },
          {
            "pitch": 37,
            "start": 19.134090909090908,
            "end": 19.18409090909091,
            "velocity": 99,
            "duration": 0.05000000000000071
          },
          {
            "pitch": 35,
            "start": 19.504545454545454,
            "end": 19.554545454545455,
            "velocity": 118,
            "duration": 0.05000000000000071
          },
          {
            "pitch": 42,
            "start": 19.504545454545454,
            "end": 19.554545454545455,
            "velocity": 83,
            "duration": 0.05000000000000071
          },
          {
            "pitch": 51,
            "start": 19.504545454545454,
            "end": 19.554545454545455,
            "velocity": 96,
            "duration": 0.05000000000000071
          },
          {
            "pitch": 37,
            "start": 19.877272727272725,
            "end": 19.927272727272726,
            "velocity": 74,
            "duration": 0.05000000000000071
          },
          {
            "pitch": 35,
            "start": 20.061363636363634,
            "end": 20.111363636363635,
            "velocity": 109,
            "duration": 0.05000000000000071
          },
          {
            "pitch": 51,
            "start": 20.061363636363634,
            "end": 20.111363636363635,
            "velocity": 88,
            "duration": 0.05000000000000071
          },
          {
            "pitch": 35,
            "start": 20.99090909090909,
            "end": 21.04090909090909,
            "velocity": 100,
            "duration": 0.05000000000000071
          },
          {
            "pitch": 42,
            "start": 20.99090909090909,
            "end": 21.04090909090909,
            "velocity": 107,
            "duration": 0.05000000000000071
          },
          {
            "pitch": 51,
            "start": 20.99090909090909,
            "end": 21.04090909090909,
            "velocity": 96,
            "duration": 0.05000000000000071
          },
          {
            "pitch": 41,
            "start": 21.177272727272726,
            "end": 21.227272727272727,
            "velocity": 89,
            "duration": 0.05000000000000071
          },
          {
            "pitch": 35,
            "start": 21.547727272727272,
            "end": 21.597727272727273,
            "velocity": 73,
            "duration": 0.05000000000000071
          },
          {
            "pitch": 42,
            "start": 21.547727272727272,
            "end": 21.597727272727273,
            "velocity": 100,
            "duration": 0.05000000000000071
          },
          {
            "pitch": 51,
            "start": 21.547727272727272,
            "end": 21.597727272727273,
            "velocity": 81,
            "duration": 0.05000000000000071
          },
          {
            "pitch": 35,
            "start": 22.29090909090909,
            "end": 22.34090909090909,
            "velocity": 121,
            "duration": 0.05000000000000071
          },
          {
            "pitch": 51,
            "start": 22.29090909090909,
            "end": 22.34090909090909,
            "velocity": 111,
            "duration": 0.05000000000000071
          },
          {
            "pitch": 42,
            "start": 22.477272727272727,
            "end": 22.527272727272727,
            "velocity": 104,
            "duration": 0.05000000000000071
          },
          {
            "pitch": 35,
            "start": 23.034090909090907,
            "end": 23.084090909090907,
            "velocity": 115,
            "duration": 0.05000000000000071
          },
          {
            "pitch": 42,
            "start": 23.034090909090907,
            "end": 23.084090909090907,
            "velocity": 89,
            "duration": 0.05000000000000071
          },
          {
            "pitch": 51,
            "start": 23.034090909090907,
            "end": 23.084090909090907,
            "velocity": 70,
            "duration": 0.05000000000000071
          },
          {
            "pitch": 37,
            "start": 23.40681818181818,
            "end": 23.456818181818182,
            "velocity": 101,
            "duration": 0.05000000000000071
          },
          {
            "pitch": 35,
            "start": 23.59090909090909,
            "end": 23.64090909090909,
            "velocity": 74,
            "duration": 0.05000000000000071
          },
          {
            "pitch": 37,
            "start": 23.777272727272727,
            "end": 23.827272727272724,
            "velocity": 94,
            "duration": 0.04999999999999716
          },
          {
            "pitch": 51,
            "start": 23.777272727272727,
            "end": 23.827272727272724,
            "velocity": 70,
            "duration": 0.04999999999999716
          },
          {
            "pitch": 42,
            "start": 23.96363636363636,
            "end": 24.013636363636362,
            "velocity": 69,
            "duration": 0.05000000000000071
          },
          {
            "pitch": 41,
            "start": 24.334090909090907,
            "end": 24.384090909090908,
            "velocity": 87,
            "duration": 0.05000000000000071
          },
          {
            "pitch": 35,
            "start": 24.520454545454545,
            "end": 24.570454545454545,
            "velocity": 95,
            "duration": 0.05000000000000071
          },
          {
            "pitch": 42,
            "start": 24.520454545454545,
            "end": 24.570454545454545,
            "velocity": 84,
            "duration": 0.05000000000000071
          },
          {
            "pitch": 51,
            "start": 24.520454545454545,
            "end": 24.570454545454545,
            "velocity": 70,
            "duration": 0.05000000000000071
          },
          {
            "pitch": 41,
            "start": 24.89090909090909,
            "end": 24.94090909090909,
            "velocity": 91,
            "duration": 0.05000000000000071
          },
          {
            "pitch": 42,
            "start": 25.45,
            "end": 25.5,
            "velocity": 80,
            "duration": 0.05000000000000071
          },
          {
            "pitch": 51,
            "start": 25.45,
            "end": 25.5,
            "velocity": 63,
            "duration": 0.05000000000000071
          },
          {
            "pitch": 37,
            "start": 25.820454545454545,
            "end": 25.870454545454542,
            "velocity": 64,
            "duration": 0.04999999999999716
          },
          {
            "pitch": 35,
            "start": 26.00681818181818,
            "end": 26.05681818181818,
            "velocity": 119,
            "duration": 0.05000000000000071
          },
          {
            "pitch": 42,
            "start": 26.00681818181818,
            "end": 26.05681818181818,
            "velocity": 105,
            "duration": 0.05000000000000071
          },
          {
            "pitch": 51,
            "start": 26.00681818181818,
            "end": 26.05681818181818,
            "velocity": 91,
            "duration": 0.05000000000000071
          },
          {
            "pitch": 37,
            "start": 26.193181818181817,
            "end": 26.243181818181817,
            "velocity": 63,
            "duration": 0.05000000000000071
          },
          {
            "pitch": 35,
            "start": 26.563636363636363,
            "end": 26.613636363636363,
            "velocity": 81,
            "duration": 0.05000000000000071
          },
          {
            "pitch": 51,
            "start": 26.563636363636363,
            "end": 26.613636363636363,
            "velocity": 72,
            "duration": 0.05000000000000071
          },
          {
            "pitch": 35,
            "start": 27.493181818181817,
            "end": 27.543181818181818,
            "velocity": 121,
            "duration": 0.05000000000000071
          },
          {
            "pitch": 42,
            "start": 27.493181818181817,
            "end": 27.543181818181818,
            "velocity": 105,
            "duration": 0.05000000000000071
          },
          {
            "pitch": 51,
            "start": 27.493181818181817,
            "end": 27.543181818181818,
            "velocity": 92,
            "duration": 0.05000000000000071
          },
          {
            "pitch": 37,
            "start": 27.677272727272726,
            "end": 27.727272727272727,
            "velocity": 71,
            "duration": 0.05000000000000071
          },
          {
            "pitch": 35,
            "start": 28.049999999999997,
            "end": 28.099999999999998,
            "velocity": 107,
            "duration": 0.05000000000000071
          },
          {
            "pitch": 51,
            "start": 28.049999999999997,
            "end": 28.099999999999998,
            "velocity": 93,
            "duration": 0.05000000000000071
          },
          {
            "pitch": 37,
            "start": 28.420454545454543,
            "end": 28.470454545454544,
            "velocity": 92,
            "duration": 0.05000000000000071
          },
          {
            "pitch": 51,
            "start": 28.793181818181818,
            "end": 28.843181818181815,
            "velocity": 98,
            "duration": 0.04999999999999716
          },
          {
            "pitch": 35,
            "start": 28.979545454545452,
            "end": 29.029545454545453,
            "velocity": 96,
            "duration": 0.05000000000000071
          },
          {
            "pitch": 42,
            "start": 28.979545454545452,
            "end": 29.029545454545453,
            "velocity": 100,
            "duration": 0.05000000000000071
          },
          {
            "pitch": 35,
            "start": 29.536363636363635,
            "end": 29.586363636363636,
            "velocity": 78,
            "duration": 0.05000000000000071
          },
          {
            "pitch": 42,
            "start": 29.536363636363635,
            "end": 29.586363636363636,
            "velocity": 97,
            "duration": 0.05000000000000071
          },
          {
            "pitch": 51,
            "start": 29.536363636363635,
            "end": 29.586363636363636,
            "velocity": 85,
            "duration": 0.05000000000000071
          },
          {
            "pitch": 41,
            "start": 29.720454545454544,
            "end": 29.770454545454545,
            "velocity": 68,
            "duration": 0.05000000000000071
          },
          {
            "pitch": 35,
            "start": 30.093181818181815,
            "end": 30.143181818181816,
            "velocity": 82,
            "duration": 0.05000000000000071
          },
          {
            "pitch": 51,
            "start": 30.279545454545453,
            "end": 30.329545454545453,
            "velocity": 91,
            "duration": 0.05000000000000071
          },
          {
            "pitch": 42,
            "start": 30.46363636363636,
            "end": 30.513636363636362,
            "velocity": 91,
            "duration": 0.05000000000000071
          },
          {
            "pitch": 35,
            "start": 31.02272727272727,
            "end": 31.07272727272727,
            "velocity": 122,
            "duration": 0.05000000000000071
          },
          {
            "pitch": 37,
            "start": 31.02272727272727,
            "end": 31.07272727272727,
            "velocity": 87,
            "duration": 0.05000000000000071
          },
          {
            "pitch": 42,
            "start": 31.02272727272727,
            "end": 31.07272727272727,
            "velocity": 85,
            "duration": 0.05000000000000071
          },
          {
            "pitch": 51,
            "start": 31.02272727272727,
            "end": 31.07272727272727,
            "velocity": 101,
            "duration": 0.05000000000000071
          },
          {
            "pitch": 37,
            "start": 31.393181818181816,
            "end": 31.443181818181817,
            "velocity": 110,
            "duration": 0.05000000000000071
          },
          {
            "pitch": 35,
            "start": 31.579545454545453,
            "end": 31.629545454545454,
            "velocity": 88,
            "duration": 0.05000000000000071
          },
          {
            "pitch": 37,
            "start": 31.76590909090909,
            "end": 31.815909090909088,
            "velocity": 85,
            "duration": 0.04999999999999716
          },
          {
            "pitch": 42,
            "start": 31.95,
            "end": 32.0,
            "velocity": 65,
            "duration": 0.05000000000000071
          },
          {
            "pitch": 37,
            "start": 32.13636363636363,
            "end": 32.18636363636364,
            "velocity": 68,
            "duration": 0.05000000000000426
          },
          {
            "pitch": 35,
            "start": 32.50681818181818,
            "end": 32.55681818181818,
            "velocity": 117,
            "duration": 0.04999999999999716
          },
          {
            "pitch": 42,
            "start": 32.50681818181818,
            "end": 32.55681818181818,
            "velocity": 105,
            "duration": 0.04999999999999716
          },
          {
            "pitch": 51,
            "start": 32.50681818181818,
            "end": 32.55681818181818,
            "velocity": 92,
            "duration": 0.04999999999999716
          },
          {
            "pitch": 37,
            "start": 32.87954545454545,
            "end": 32.929545454545455,
            "velocity": 93,
            "duration": 0.05000000000000426
          },
          {
            "pitch": 35,
            "start": 33.06590909090909,
            "end": 33.11590909090909,
            "velocity": 92,
            "duration": 0.05000000000000426
          },
          {
            "pitch": 51,
            "start": 33.25,
            "end": 33.3,
            "velocity": 94,
            "duration": 0.04999999999999716
          },
          {
            "pitch": 35,
            "start": 33.99318181818182,
            "end": 34.043181818181814,
            "velocity": 124,
            "duration": 0.04999999999999716
          },
          {
            "pitch": 42,
            "start": 33.99318181818182,
            "end": 34.043181818181814,
            "velocity": 98,
            "duration": 0.04999999999999716
          },
          {
            "pitch": 51,
            "start": 33.99318181818182,
            "end": 34.043181818181814,
            "velocity": 108,
            "duration": 0.04999999999999716
          },
          {
            "pitch": 35,
            "start": 34.55227272727272,
            "end": 34.60227272727273,
            "velocity": 89,
            "duration": 0.05000000000000426
          },
          {
            "pitch": 42,
            "start": 34.55227272727272,
            "end": 34.60227272727273,
            "velocity": 67,
            "duration": 0.05000000000000426
          },
          {
            "pitch": 51,
            "start": 34.736363636363635,
            "end": 34.78636363636363,
            "velocity": 90,
            "duration": 0.04999999999999716
          },
          {
            "pitch": 51,
            "start": 35.29545454545455,
            "end": 35.345454545454544,
            "velocity": 78,
            "duration": 0.04999999999999716
          },
          {
            "pitch": 35,
            "start": 35.47954545454545,
            "end": 35.529545454545456,
            "velocity": 106,
            "duration": 0.05000000000000426
          },
          {
            "pitch": 35,
            "start": 36.03636363636363,
            "end": 36.086363636363636,
            "velocity": 117,
            "duration": 0.05000000000000426
          },
          {
            "pitch": 51,
            "start": 36.03636363636363,
            "end": 36.086363636363636,
            "velocity": 102,
            "duration": 0.05000000000000426
          },
          {
            "pitch": 35,
            "start": 36.595454545454544,
            "end": 36.64545454545454,
            "velocity": 65,
            "duration": 0.04999999999999716
          },
          {
            "pitch": 51,
            "start": 36.779545454545456,
            "end": 36.82954545454545,
            "velocity": 76,
            "duration": 0.04999999999999716
          },
          {
            "pitch": 35,
            "start": 36.965909090909086,
            "end": 37.01590909090909,
            "velocity": 78,
            "duration": 0.05000000000000426
          },
          {
            "pitch": 42,
            "start": 36.965909090909086,
            "end": 37.01590909090909,
            "velocity": 100,
            "duration": 0.05000000000000426
          },
          {
            "pitch": 37,
            "start": 37.152272727272724,
            "end": 37.20227272727273,
            "velocity": 95,
            "duration": 0.05000000000000426
          },
          {
            "pitch": 35,
            "start": 37.52272727272727,
            "end": 37.57272727272727,
            "velocity": 111,
            "duration": 0.04999999999999716
          },
          {
            "pitch": 42,
            "start": 37.52272727272727,
            "end": 37.57272727272727,
            "velocity": 89,
            "duration": 0.04999999999999716
          },
          {
            "pitch": 51,
            "start": 37.52272727272727,
            "end": 37.57272727272727,
            "velocity": 69,
            "duration": 0.04999999999999716
          },
          {
            "pitch": 37,
            "start": 37.89545454545454,
            "end": 37.945454545454545,
            "velocity": 103,
            "duration": 0.05000000000000426
          },
          {
            "pitch": 35,
            "start": 38.08181818181818,
            "end": 38.13181818181818,
            "velocity": 81,
            "duration": 0.05000000000000426
          },
          {
            "pitch": 37,
            "start": 38.82272727272727,
            "end": 38.87272727272727,
            "velocity": 101,
            "duration": 0.04999999999999716
          },
          {
            "pitch": 35,
            "start": 39.00909090909091,
            "end": 39.059090909090905,
            "velocity": 117,
            "duration": 0.04999999999999716
          },
          {
            "pitch": 37,
            "start": 39.38181818181818,
            "end": 39.43181818181818,
            "velocity": 90,
            "duration": 0.04999999999999716
          },
          {
            "pitch": 35,
            "start": 39.56590909090909,
            "end": 39.61590909090909,
            "velocity": 90,
            "duration": 0.05000000000000426
          },
          {
            "pitch": 42,
            "start": 39.93863636363636,
            "end": 39.98863636363636,
            "velocity": 68,
            "duration": 0.04999999999999716
          },
          {
            "pitch": 37,
            "start": 40.125,
            "end": 40.175,
            "velocity": 89,
            "duration": 0.04999999999999716
          },
          {
            "pitch": 35,
            "start": 40.49545454545454,
            "end": 40.54545454545455,
            "velocity": 118,
            "duration": 0.05000000000000426
          },
          {
            "pitch": 42,
            "start": 40.49545454545454,
            "end": 40.54545454545455,
            "velocity": 111,
            "duration": 0.05000000000000426
          },
          {
            "pitch": 51,
            "start": 40.49545454545454,
            "end": 40.54545454545455,
            "velocity": 81,
            "duration": 0.05000000000000426
          },
          {
            "pitch": 37,
            "start": 40.86818181818182,
            "end": 40.918181818181814,
            "velocity": 115,
            "duration": 0.04999999999999716
          },
          {
            "pitch": 35,
            "start": 41.05227272727272,
            "end": 41.10227272727273,
            "velocity": 91,
            "duration": 0.05000000000000426
          },
          {
            "pitch": 51,
            "start": 41.05227272727272,
            "end": 41.10227272727273,
            "velocity": 79,
            "duration": 0.05000000000000426
          },
          {
            "pitch": 45,
            "start": 41.23863636363636,
            "end": 41.288636363636364,
            "velocity": 70,
            "duration": 0.05000000000000426
          },
          {
            "pitch": 37,
            "start": 41.425,
            "end": 41.475,
            "velocity": 67,
            "duration": 0.05000000000000426
          },
          {
            "pitch": 51,
            "start": 41.79545454545455,
            "end": 41.845454545454544,
            "velocity": 99,
            "duration": 0.04999999999999716
          },
          {
            "pitch": 35,
            "start": 41.98181818181818,
            "end": 42.03181818181818,
            "velocity": 102,
            "duration": 0.05000000000000426
          },
          {
            "pitch": 45,
            "start": 41.98181818181818,
            "end": 42.03181818181818,
            "velocity": 75,
            "duration": 0.05000000000000426
          },
          {
            "pitch": 45,
            "start": 42.35227272727273,
            "end": 42.402272727272724,
            "velocity": 85,
            "duration": 0.04999999999999716
          },
          {
            "pitch": 51,
            "start": 43.095454545454544,
            "end": 43.14545454545454,
            "velocity": 70,
            "duration": 0.04999999999999716
          },
          {
            "pitch": 41,
            "start": 43.28181818181818,
            "end": 43.33181818181818,
            "velocity": 71,
            "duration": 0.04999999999999716
          },
          {
            "pitch": 35,
            "start": 44.025,
            "end": 44.074999999999996,
            "velocity": 91,
            "duration": 0.04999999999999716
          },
          {
            "pitch": 42,
            "start": 44.025,
            "end": 44.074999999999996,
            "velocity": 83,
            "duration": 0.04999999999999716
          },
          {
            "pitch": 51,
            "start": 44.025,
            "end": 44.074999999999996,
            "velocity": 86,
            "duration": 0.04999999999999716
          },
          {
            "pitch": 35,
            "start": 44.768181818181816,
            "end": 44.81818181818181,
            "velocity": 111,
            "duration": 0.04999999999999716
          },
          {
            "pitch": 51,
            "start": 44.768181818181816,
            "end": 44.81818181818181,
            "velocity": 88,
            "duration": 0.04999999999999716
          },
          {
            "pitch": 35,
            "start": 45.51136363636363,
            "end": 45.56136363636364,
            "velocity": 123,
            "duration": 0.05000000000000426
          },
          {
            "pitch": 42,
            "start": 45.51136363636363,
            "end": 45.56136363636364,
            "velocity": 101,
            "duration": 0.05000000000000426
          },
          {
            "pitch": 51,
            "start": 45.51136363636363,
            "end": 45.56136363636364,
            "velocity": 101,
            "duration": 0.05000000000000426
          },
          {
            "pitch": 37,
            "start": 45.88181818181818,
            "end": 45.93181818181818,
            "velocity": 90,
            "duration": 0.04999999999999716
          },
          {
            "pitch": 35,
            "start": 46.06818181818181,
            "end": 46.11818181818182,
            "velocity": 89,
            "duration": 0.05000000000000426
          },
          {
            "pitch": 51,
            "start": 46.06818181818181,
            "end": 46.11818181818182,
            "velocity": 94,
            "duration": 0.05000000000000426
          },
          {
            "pitch": 37,
            "start": 46.81136363636364,
            "end": 46.861363636363635,
            "velocity": 109,
            "duration": 0.04999999999999716
          },
          {
            "pitch": 35,
            "start": 46.99772727272727,
            "end": 47.04772727272727,
            "velocity": 124,
            "duration": 0.05000000000000426
          },
          {
            "pitch": 42,
            "start": 46.99772727272727,
            "end": 47.04772727272727,
            "velocity": 108,
            "duration": 0.05000000000000426
          },
          {
            "pitch": 51,
            "start": 46.99772727272727,
            "end": 47.04772727272727,
            "velocity": 107,
            "duration": 0.05000000000000426
          },
          {
            "pitch": 35,
            "start": 47.554545454545455,
            "end": 47.60454545454545,
            "velocity": 97,
            "duration": 0.04999999999999716
          },
          {
            "pitch": 51,
            "start": 47.554545454545455,
            "end": 47.60454545454545,
            "velocity": 75,
            "duration": 0.04999999999999716
          },
          {
            "pitch": 37,
            "start": 47.74090909090909,
            "end": 47.79090909090909,
            "velocity": 71,
            "duration": 0.04999999999999716
          },
          {
            "pitch": 42,
            "start": 47.74090909090909,
            "end": 47.79090909090909,
            "velocity": 90,
            "duration": 0.04999999999999716
          },
          {
            "pitch": 51,
            "start": 47.925,
            "end": 47.974999999999994,
            "velocity": 65,
            "duration": 0.04999999999999716
          },
          {
            "pitch": 51,
            "start": 48.29772727272727,
            "end": 48.34772727272727,
            "velocity": 77,
            "duration": 0.04999999999999716
          },
          {
            "pitch": 35,
            "start": 48.48409090909091,
            "end": 48.53409090909091,
            "velocity": 103,
            "duration": 0.04999999999999716
          },
          {
            "pitch": 42,
            "start": 48.48409090909091,
            "end": 48.53409090909091,
            "velocity": 107,
            "duration": 0.04999999999999716
          },
          {
            "pitch": 37,
            "start": 48.668181818181814,
            "end": 48.71818181818182,
            "velocity": 70,
            "duration": 0.05000000000000426
          },
          {
            "pitch": 35,
            "start": 49.04090909090909,
            "end": 49.090909090909086,
            "velocity": 113,
            "duration": 0.04999999999999716
          },
          {
            "pitch": 51,
            "start": 49.04090909090909,
            "end": 49.090909090909086,
            "velocity": 100,
            "duration": 0.04999999999999716
          },
          {
            "pitch": 51,
            "start": 49.78409090909091,
            "end": 49.834090909090904,
            "velocity": 71,
            "duration": 0.04999999999999716
          },
          {
            "pitch": 35,
            "start": 49.970454545454544,
            "end": 50.02045454545454,
            "velocity": 92,
            "duration": 0.04999999999999716
          },
          {
            "pitch": 42,
            "start": 49.970454545454544,
            "end": 50.02045454545454,
            "velocity": 98,
            "duration": 0.04999999999999716
          },
          {
            "pitch": 51,
            "start": 50.15454545454545,
            "end": 50.20454545454545,
            "velocity": 77,
            "duration": 0.05000000000000426
          },
          {
            "pitch": 37,
            "start": 50.340909090909086,
            "end": 50.39090909090909,
            "velocity": 70,
            "duration": 0.05000000000000426
          },
          {
            "pitch": 35,
            "start": 50.527272727272724,
            "end": 50.57727272727273,
            "velocity": 115,
            "duration": 0.05000000000000426
          },
          {
            "pitch": 42,
            "start": 50.527272727272724,
            "end": 50.57727272727273,
            "velocity": 101,
            "duration": 0.05000000000000426
          },
          {
            "pitch": 51,
            "start": 50.527272727272724,
            "end": 50.57727272727273,
            "velocity": 84,
            "duration": 0.05000000000000426
          },
          {
            "pitch": 37,
            "start": 50.89772727272727,
            "end": 50.94772727272727,
            "velocity": 94,
            "duration": 0.04999999999999716
          },
          {
            "pitch": 35,
            "start": 51.084090909090904,
            "end": 51.13409090909091,
            "velocity": 70,
            "duration": 0.05000000000000426
          },
          {
            "pitch": 42,
            "start": 51.27045454545454,
            "end": 51.320454545454545,
            "velocity": 86,
            "duration": 0.05000000000000426
          },
          {
            "pitch": 51,
            "start": 51.27045454545454,
            "end": 51.320454545454545,
            "velocity": 95,
            "duration": 0.05000000000000426
          },
          {
            "pitch": 35,
            "start": 51.45454545454545,
            "end": 51.50454545454545,
            "velocity": 76,
            "duration": 0.04999999999999716
          },
          {
            "pitch": 37,
            "start": 51.64090909090909,
            "end": 51.69090909090909,
            "velocity": 81,
            "duration": 0.04999999999999716
          },
          {
            "pitch": 35,
            "start": 52.01363636363636,
            "end": 52.06363636363636,
            "velocity": 124,
            "duration": 0.05000000000000426
          },
          {
            "pitch": 42,
            "start": 52.01363636363636,
            "end": 52.06363636363636,
            "velocity": 98,
            "duration": 0.05000000000000426
          },
          {
            "pitch": 51,
            "start": 52.01363636363636,
            "end": 52.06363636363636,
            "velocity": 107,
            "duration": 0.05000000000000426
          },
          {
            "pitch": 37,
            "start": 52.19772727272727,
            "end": 52.24772727272727,
            "velocity": 92,
            "duration": 0.04999999999999716
          },
          {
            "pitch": 35,
            "start": 52.570454545454545,
            "end": 52.62045454545454,
            "velocity": 94,
            "duration": 0.04999999999999716
          },
          {
            "pitch": 51,
            "start": 52.75681818181818,
            "end": 52.80681818181818,
            "velocity": 83,
            "duration": 0.04999999999999716
          },
          {
            "pitch": 35,
            "start": 53.49772727272727,
            "end": 53.54772727272727,
            "velocity": 120,
            "duration": 0.05000000000000426
          },
          {
            "pitch": 42,
            "start": 53.49772727272727,
            "end": 53.54772727272727,
            "velocity": 114,
            "duration": 0.05000000000000426
          },
          {
            "pitch": 51,
            "start": 53.49772727272727,
            "end": 53.54772727272727,
            "velocity": 98,
            "duration": 0.05000000000000426
          },
          {
            "pitch": 35,
            "start": 54.05681818181818,
            "end": 54.10681818181818,
            "velocity": 101,
            "duration": 0.04999999999999716
          },
          {
            "pitch": 42,
            "start": 54.05681818181818,
            "end": 54.10681818181818,
            "velocity": 64,
            "duration": 0.04999999999999716
          },
          {
            "pitch": 51,
            "start": 54.05681818181818,
            "end": 54.10681818181818,
            "velocity": 94,
            "duration": 0.04999999999999716
          },
          {
            "pitch": 37,
            "start": 54.8,
            "end": 54.849999999999994,
            "velocity": 96,
            "duration": 0.04999999999999716
          },
          {
            "pitch": 35,
            "start": 54.98409090909091,
            "end": 55.03409090909091,
            "velocity": 114,
            "duration": 0.04999999999999716
          },
          {
            "pitch": 42,
            "start": 54.98409090909091,
            "end": 55.03409090909091,
            "velocity": 90,
            "duration": 0.04999999999999716
          },
          {
            "pitch": 51,
            "start": 54.98409090909091,
            "end": 55.03409090909091,
            "velocity": 99,
            "duration": 0.04999999999999716
          },
          {
            "pitch": 35,
            "start": 55.543181818181814,
            "end": 55.59318181818182,
            "velocity": 114,
            "duration": 0.05000000000000426
          },
          {
            "pitch": 42,
            "start": 55.543181818181814,
            "end": 55.59318181818182,
            "velocity": 88,
            "duration": 0.05000000000000426
          },
          {
            "pitch": 51,
            "start": 55.543181818181814,
            "end": 55.59318181818182,
            "velocity": 98,
            "duration": 0.05000000000000426
          },
          {
            "pitch": 51,
            "start": 55.913636363636364,
            "end": 55.96363636363636,
            "velocity": 74,
            "duration": 0.04999999999999716
          },
          {
            "pitch": 51,
            "start": 56.28409090909091,
            "end": 56.334090909090904,
            "velocity": 87,
            "duration": 0.04999999999999716
          },
          {
            "pitch": 35,
            "start": 56.470454545454544,
            "end": 56.52045454545454,
            "velocity": 72,
            "duration": 0.04999999999999716
          },
          {
            "pitch": 42,
            "start": 56.470454545454544,
            "end": 56.52045454545454,
            "velocity": 99,
            "duration": 0.04999999999999716
          },
          {
            "pitch": 37,
            "start": 56.65681818181818,
            "end": 56.70681818181818,
            "velocity": 95,
            "duration": 0.04999999999999716
          },
          {
            "pitch": 35,
            "start": 57.027272727272724,
            "end": 57.07727272727273,
            "velocity": 122,
            "duration": 0.05000000000000426
          },
          {
            "pitch": 42,
            "start": 57.027272727272724,
            "end": 57.07727272727273,
            "velocity": 80,
            "duration": 0.05000000000000426
          },
          {
            "pitch": 51,
            "start": 57.027272727272724,
            "end": 57.07727272727273,
            "velocity": 107,
            "duration": 0.05000000000000426
          },
          {
            "pitch": 37,
            "start": 57.77045454545454,
            "end": 57.820454545454545,
            "velocity": 67,
            "duration": 0.05000000000000426
          },
          {
            "pitch": 51,
            "start": 57.77045454545454,
            "end": 57.820454545454545,
            "velocity": 82,
            "duration": 0.05000000000000426
          },
          {
            "pitch": 35,
            "start": 57.95681818181818,
            "end": 58.006818181818176,
            "velocity": 76,
            "duration": 0.04999999999999716
          },
          {
            "pitch": 42,
            "start": 57.95681818181818,
            "end": 58.006818181818176,
            "velocity": 101,
            "duration": 0.04999999999999716
          },
          {
            "pitch": 37,
            "start": 58.143181818181816,
            "end": 58.19318181818181,
            "velocity": 83,
            "duration": 0.04999999999999716
          },
          {
            "pitch": 35,
            "start": 58.51363636363636,
            "end": 58.56363636363636,
            "velocity": 121,
            "duration": 0.05000000000000426
          },
          {
            "pitch": 42,
            "start": 58.51363636363636,
            "end": 58.56363636363636,
            "velocity": 112,
            "duration": 0.05000000000000426
          },
          {
            "pitch": 51,
            "start": 58.51363636363636,
            "end": 58.56363636363636,
            "velocity": 94,
            "duration": 0.05000000000000426
          },
          {
            "pitch": 37,
            "start": 58.699999999999996,
            "end": 58.75,
            "velocity": 93,
            "duration": 0.05000000000000426
          },
          {
            "pitch": 35,
            "start": 59.070454545454545,
            "end": 59.12045454545454,
            "velocity": 79,
            "duration": 0.04999999999999716
          },
          {
            "pitch": 42,
            "start": 59.256818181818176,
            "end": 59.30681818181818,
            "velocity": 101,
            "duration": 0.05000000000000426
          },
          {
            "pitch": 51,
            "start": 59.256818181818176,
            "end": 59.30681818181818,
            "velocity": 97,
            "duration": 0.05000000000000426
          },
          {
            "pitch": 37,
            "start": 59.62954545454545,
            "end": 59.679545454545455,
            "velocity": 68,
            "duration": 0.05000000000000426
          },
          {
            "pitch": 35,
            "start": 60.0,
            "end": 60.05,
            "velocity": 125,
            "duration": 0.04999999999999716
          },
          {
            "pitch": 42,
            "start": 60.0,
            "end": 60.05,
            "velocity": 114,
            "duration": 0.04999999999999716
          },
          {
            "pitch": 51,
            "start": 60.0,
            "end": 60.05,
            "velocity": 103,
            "duration": 0.04999999999999716
          },
          {
            "pitch": 45,
            "start": 60.18636363636363,
            "end": 60.236363636363635,
            "velocity": 66,
            "duration": 0.05000000000000426
          },
          {
            "pitch": 37,
            "start": 60.37272727272727,
            "end": 60.42272727272727,
            "velocity": 66,
            "duration": 0.05000000000000426
          },
          {
            "pitch": 35,
            "start": 60.55681818181818,
            "end": 60.60681818181818,
            "velocity": 101,
            "duration": 0.04999999999999716
          },
          {
            "pitch": 51,
            "start": 60.55681818181818,
            "end": 60.60681818181818,
            "velocity": 86,
            "duration": 0.04999999999999716
          },
          {
            "pitch": 42,
            "start": 60.74318181818182,
            "end": 60.793181818181814,
            "velocity": 88,
            "duration": 0.04999999999999716
          },
          {
            "pitch": 51,
            "start": 61.3,
            "end": 61.349999999999994,
            "velocity": 99,
            "duration": 0.04999999999999716
          },
          {
            "pitch": 42,
            "start": 61.486363636363635,
            "end": 61.53636363636363,
            "velocity": 90,
            "duration": 0.04999999999999716
          },
          {
            "pitch": 35,
            "start": 61.67272727272727,
            "end": 61.72272727272727,
            "velocity": 77,
            "duration": 0.04999999999999716
          },
          {
            "pitch": 35,
            "start": 62.043181818181814,
            "end": 62.09318181818182,
            "velocity": 65,
            "duration": 0.05000000000000426
          },
          {
            "pitch": 51,
            "start": 62.043181818181814,
            "end": 62.09318181818182,
            "velocity": 95,
            "duration": 0.05000000000000426
          },
          {
            "pitch": 51,
            "start": 62.78636363636363,
            "end": 62.836363636363636,
            "velocity": 100,
            "duration": 0.05000000000000426
          },
          {
            "pitch": 35,
            "start": 62.97272727272727,
            "end": 63.022727272727266,
            "velocity": 97,
            "duration": 0.04999999999999716
          },
          {
            "pitch": 42,
            "start": 62.97272727272727,
            "end": 63.022727272727266,
            "velocity": 91,
            "duration": 0.04999999999999716
          },
          {
            "pitch": 51,
            "start": 63.52954545454545,
            "end": 63.57954545454545,
            "velocity": 73,
            "duration": 0.05000000000000426
          },
          {
            "pitch": 42,
            "start": 63.715909090909086,
            "end": 63.76590909090909,
            "velocity": 79,
            "duration": 0.05000000000000426
          },
          {
            "pitch": 51,
            "start": 63.902272727272724,
            "end": 63.95227272727272,
            "velocity": 79,
            "duration": 0.04999999999999716
          },
          {
            "pitch": 51,
            "start": 64.27272727272727,
            "end": 64.32272727272726,
            "velocity": 94,
            "duration": 0.04999999999999716
          },
          {
            "pitch": 42,
            "start": 64.4590909090909,
            "end": 64.5090909090909,
            "velocity": 97,
            "duration": 0.04999999999999716
          },
          {
            "pitch": 51,
            "start": 64.82954545454545,
            "end": 64.87954545454545,
            "velocity": 76,
            "duration": 0.04999999999999716
          },
          {
            "pitch": 42,
            "start": 65.01590909090909,
            "end": 65.06590909090909,
            "velocity": 93,
            "duration": 0.04999999999999716
          },
          {
            "pitch": 41,
            "start": 65.20227272727273,
            "end": 65.25227272727273,
            "velocity": 79,
            "duration": 0.04999999999999716
          },
          {
            "pitch": 51,
            "start": 65.7590909090909,
            "end": 65.80909090909091,
            "velocity": 100,
            "duration": 0.05000000000001137
          },
          {
            "pitch": 35,
            "start": 65.94545454545454,
            "end": 65.99545454545454,
            "velocity": 74,
            "duration": 0.04999999999999716
          },
          {
            "pitch": 51,
            "start": 66.31590909090909,
            "end": 66.36590909090908,
            "velocity": 92,
            "duration": 0.04999999999999716
          },
          {
            "pitch": 35,
            "start": 66.50227272727273,
            "end": 66.55227272727272,
            "velocity": 82,
            "duration": 0.04999999999999716
          },
          {
            "pitch": 42,
            "start": 66.50227272727273,
            "end": 66.55227272727272,
            "velocity": 107,
            "duration": 0.04999999999999716
          },
          {
            "pitch": 42,
            "start": 67.24545454545454,
            "end": 67.29545454545455,
            "velocity": 69,
            "duration": 0.05000000000001137
          },
          {
            "pitch": 51,
            "start": 67.24545454545454,
            "end": 67.29545454545455,
            "velocity": 73,
            "duration": 0.05000000000001137
          },
          {
            "pitch": 51,
            "start": 67.80227272727272,
            "end": 67.85227272727272,
            "velocity": 82,
            "duration": 0.04999999999999716
          },
          {
            "pitch": 35,
            "start": 67.98863636363636,
            "end": 68.03863636363636,
            "velocity": 90,
            "duration": 0.04999999999999716
          },
          {
            "pitch": 42,
            "start": 67.98863636363636,
            "end": 68.03863636363636,
            "velocity": 77,
            "duration": 0.04999999999999716
          },
          {
            "pitch": 41,
            "start": 68.17272727272727,
            "end": 68.22272727272727,
            "velocity": 68,
            "duration": 0.04999999999999716
          },
          {
            "pitch": 42,
            "start": 68.73181818181818,
            "end": 68.78181818181818,
            "velocity": 79,
            "duration": 0.04999999999999716
          },
          {
            "pitch": 51,
            "start": 69.28863636363636,
            "end": 69.33863636363635,
            "velocity": 79,
            "duration": 0.04999999999999716
          },
          {
            "pitch": 35,
            "start": 69.475,
            "end": 69.52499999999999,
            "velocity": 86,
            "duration": 0.04999999999999716
          },
          {
            "pitch": 42,
            "start": 69.475,
            "end": 69.52499999999999,
            "velocity": 91,
            "duration": 0.04999999999999716
          },
          {
            "pitch": 41,
            "start": 69.84545454545454,
            "end": 69.89545454545454,
            "velocity": 75,
            "duration": 0.04999999999999716
          },
          {
            "pitch": 35,
            "start": 70.03181818181818,
            "end": 70.08181818181818,
            "velocity": 106,
            "duration": 0.04999999999999716
          },
          {
            "pitch": 51,
            "start": 70.03181818181818,
            "end": 70.08181818181818,
            "velocity": 94,
            "duration": 0.04999999999999716
          },
          {
            "pitch": 41,
            "start": 70.21818181818182,
            "end": 70.26818181818182,
            "velocity": 66,
            "duration": 0.04999999999999716
          },
          {
            "pitch": 42,
            "start": 70.21818181818182,
            "end": 70.26818181818182,
            "velocity": 70,
            "duration": 0.04999999999999716
          },
          {
            "pitch": 51,
            "start": 70.77499999999999,
            "end": 70.825,
            "velocity": 78,
            "duration": 0.05000000000001137
          },
          {
            "pitch": 35,
            "start": 70.9590909090909,
            "end": 71.0090909090909,
            "velocity": 81,
            "duration": 0.04999999999999716
          },
          {
            "pitch": 42,
            "start": 70.9590909090909,
            "end": 71.0090909090909,
            "velocity": 87,
            "duration": 0.04999999999999716
          },
          {
            "pitch": 37,
            "start": 71.14545454545454,
            "end": 71.19545454545454,
            "velocity": 120,
            "duration": 0.04999999999999716
          },
          {
            "pitch": 35,
            "start": 71.51818181818182,
            "end": 71.56818181818181,
            "velocity": 100,
            "duration": 0.04999999999999716
          },
          {
            "pitch": 42,
            "start": 71.70227272727273,
            "end": 71.75227272727273,
            "velocity": 66,
            "duration": 0.04999999999999716
          },
          {
            "pitch": 37,
            "start": 71.88863636363637,
            "end": 71.93863636363636,
            "velocity": 100,
            "duration": 0.04999999999999716
          },
          {
            "pitch": 35,
            "start": 72.075,
            "end": 72.125,
            "velocity": 75,
            "duration": 0.04999999999999716
          },
          {
            "pitch": 51,
            "start": 72.26136363636363,
            "end": 72.31136363636364,
            "velocity": 75,
            "duration": 0.05000000000001137
          },
          {
            "pitch": 35,
            "start": 72.44545454545454,
            "end": 72.49545454545454,
            "velocity": 77,
            "duration": 0.04999999999999716
          },
          {
            "pitch": 42,
            "start": 72.44545454545454,
            "end": 72.49545454545454,
            "velocity": 81,
            "duration": 0.04999999999999716
          },
          {
            "pitch": 45,
            "start": 72.63181818181818,
            "end": 72.68181818181817,
            "velocity": 95,
            "duration": 0.04999999999999716
          },
          {
            "pitch": 51,
            "start": 72.81818181818181,
            "end": 72.86818181818181,
            "velocity": 85,
            "duration": 0.04999999999999716
          },
          {
            "pitch": 35,
            "start": 73.00454545454545,
            "end": 73.05454545454545,
            "velocity": 109,
            "duration": 0.04999999999999716
          },
          {
            "pitch": 51,
            "start": 73.375,
            "end": 73.425,
            "velocity": 76,
            "duration": 0.04999999999999716
          },
          {
            "pitch": 41,
            "start": 73.74545454545454,
            "end": 73.79545454545455,
            "velocity": 69,
            "duration": 0.05000000000001137
          },
          {
            "pitch": 51,
            "start": 73.74545454545454,
            "end": 73.79545454545455,
            "velocity": 78,
            "duration": 0.05000000000001137
          },
          {
            "pitch": 35,
            "start": 74.48863636363636,
            "end": 74.53863636363636,
            "velocity": 114,
            "duration": 0.04999999999999716
          },
          {
            "pitch": 42,
            "start": 74.48863636363636,
            "end": 74.53863636363636,
            "velocity": 94,
            "duration": 0.04999999999999716
          },
          {
            "pitch": 51,
            "start": 74.48863636363636,
            "end": 74.53863636363636,
            "velocity": 93,
            "duration": 0.04999999999999716
          },
          {
            "pitch": 51,
            "start": 74.86136363636363,
            "end": 74.91136363636363,
            "velocity": 81,
            "duration": 0.04999999999999716
          },
          {
            "pitch": 35,
            "start": 75.04772727272727,
            "end": 75.09772727272727,
            "velocity": 72,
            "duration": 0.04999999999999716
          },
          {
            "pitch": 42,
            "start": 75.23181818181818,
            "end": 75.28181818181818,
            "velocity": 81,
            "duration": 0.04999999999999716
          },
          {
            "pitch": 51,
            "start": 75.23181818181818,
            "end": 75.28181818181818,
            "velocity": 80,
            "duration": 0.04999999999999716
          },
          {
            "pitch": 35,
            "start": 75.975,
            "end": 76.02499999999999,
            "velocity": 90,
            "duration": 0.04999999999999716
          },
          {
            "pitch": 42,
            "start": 75.975,
            "end": 76.02499999999999,
            "velocity": 88,
            "duration": 0.04999999999999716
          },
          {
            "pitch": 37,
            "start": 76.16136363636363,
            "end": 76.21136363636363,
            "velocity": 104,
            "duration": 0.04999999999999716
          },
          {
            "pitch": 35,
            "start": 76.5340909090909,
            "end": 76.5840909090909,
            "velocity": 101,
            "duration": 0.04999999999999716
          },
          {
            "pitch": 51,
            "start": 76.5340909090909,
            "end": 76.5840909090909,
            "velocity": 64,
            "duration": 0.04999999999999716
          },
          {
            "pitch": 42,
            "start": 76.71818181818182,
            "end": 76.76818181818182,
            "velocity": 81,
            "duration": 0.04999999999999716
          },
          {
            "pitch": 41,
            "start": 77.27499999999999,
            "end": 77.325,
            "velocity": 68,
            "duration": 0.05000000000001137
          },
          {
            "pitch": 51,
            "start": 77.27499999999999,
            "end": 77.325,
            "velocity": 85,
            "duration": 0.05000000000001137
          },
          {
            "pitch": 35,
            "start": 77.46136363636363,
            "end": 77.51136363636363,
            "velocity": 78,
            "duration": 0.04999999999999716
          },
          {
            "pitch": 42,
            "start": 77.46136363636363,
            "end": 77.51136363636363,
            "velocity": 95,
            "duration": 0.04999999999999716
          },
          {
            "pitch": 35,
            "start": 78.01818181818182,
            "end": 78.06818181818181,
            "velocity": 79,
            "duration": 0.04999999999999716
          },
          {
            "pitch": 42,
            "start": 78.01818181818182,
            "end": 78.06818181818181,
            "velocity": 71,
            "duration": 0.04999999999999716
          },
          {
            "pitch": 51,
            "start": 78.01818181818182,
            "end": 78.06818181818181,
            "velocity": 87,
            "duration": 0.04999999999999716
          },
          {
            "pitch": 37,
            "start": 78.20454545454545,
            "end": 78.25454545454545,
            "velocity": 70,
            "duration": 0.04999999999999716
          },
          {
            "pitch": 35,
            "start": 78.57727272727273,
            "end": 78.62727272727273,
            "velocity": 65,
            "duration": 0.04999999999999716
          },
          {
            "pitch": 37,
            "start": 78.76136363636363,
            "end": 78.81136363636364,
            "velocity": 85,
            "duration": 0.05000000000001137
          },
          {
            "pitch": 35,
            "start": 78.94772727272726,
            "end": 78.99772727272727,
            "velocity": 98,
            "duration": 0.05000000000001137
          },
          {
            "pitch": 42,
            "start": 78.94772727272726,
            "end": 78.99772727272727,
            "velocity": 106,
            "duration": 0.05000000000001137
          },
          {
            "pitch": 51,
            "start": 78.94772727272726,
            "end": 78.99772727272727,
            "velocity": 79,
            "duration": 0.05000000000001137
          },
          {
            "pitch": 37,
            "start": 79.1340909090909,
            "end": 79.18409090909091,
            "velocity": 109,
            "duration": 0.05000000000001137
          },
          {
            "pitch": 35,
            "start": 79.50454545454545,
            "end": 79.55454545454545,
            "velocity": 113,
            "duration": 0.04999999999999716
          },
          {
            "pitch": 42,
            "start": 79.50454545454545,
            "end": 79.55454545454545,
            "velocity": 74,
            "duration": 0.04999999999999716
          },
          {
            "pitch": 51,
            "start": 79.50454545454545,
            "end": 79.55454545454545,
            "velocity": 93,
            "duration": 0.04999999999999716
          },
          {
            "pitch": 51,
            "start": 79.87727272727273,
            "end": 79.92727272727272,
            "velocity": 79,
            "duration": 0.04999999999999716
          },
          {
            "pitch": 35,
            "start": 80.06136363636364,
            "end": 80.11136363636363,
            "velocity": 74,
            "duration": 0.04999999999999716
          },
          {
            "pitch": 37,
            "start": 80.24772727272727,
            "end": 80.29772727272727,
            "velocity": 84,
            "duration": 0.04999999999999716
          },
          {
            "pitch": 35,
            "start": 80.99090909090908,
            "end": 81.04090909090908,
            "velocity": 79,
            "duration": 0.04999999999999716
          },
          {
            "pitch": 42,
            "start": 80.99090909090908,
            "end": 81.04090909090908,
            "velocity": 92,
            "duration": 0.04999999999999716
          },
          {
            "pitch": 51,
            "start": 80.99090909090908,
            "end": 81.04090909090908,
            "velocity": 92,
            "duration": 0.04999999999999716
          },
          {
            "pitch": 35,
            "start": 81.54772727272727,
            "end": 81.59772727272727,
            "velocity": 68,
            "duration": 0.04999999999999716
          },
          {
            "pitch": 42,
            "start": 81.54772727272727,
            "end": 81.59772727272727,
            "velocity": 79,
            "duration": 0.04999999999999716
          },
          {
            "pitch": 51,
            "start": 81.54772727272727,
            "end": 81.59772727272727,
            "velocity": 87,
            "duration": 0.04999999999999716
          },
          {
            "pitch": 41,
            "start": 81.73409090909091,
            "end": 81.7840909090909,
            "velocity": 71,
            "duration": 0.04999999999999716
          },
          {
            "pitch": 35,
            "start": 82.47727272727272,
            "end": 82.52727272727272,
            "velocity": 104,
            "duration": 0.04999999999999716
          },
          {
            "pitch": 42,
            "start": 82.47727272727272,
            "end": 82.52727272727272,
            "velocity": 90,
            "duration": 0.04999999999999716
          },
          {
            "pitch": 51,
            "start": 82.66363636363636,
            "end": 82.71363636363635,
            "velocity": 93,
            "duration": 0.04999999999999716
          },
          {
            "pitch": 35,
            "start": 83.0340909090909,
            "end": 83.0840909090909,
            "velocity": 94,
            "duration": 0.04999999999999716
          },
          {
            "pitch": 51,
            "start": 83.0340909090909,
            "end": 83.0840909090909,
            "velocity": 89,
            "duration": 0.04999999999999716
          },
          {
            "pitch": 42,
            "start": 83.22045454545454,
            "end": 83.27045454545454,
            "velocity": 65,
            "duration": 0.04999999999999716
          },
          {
            "pitch": 51,
            "start": 83.77727272727272,
            "end": 83.82727272727273,
            "velocity": 70,
            "duration": 0.05000000000001137
          },
          {
            "pitch": 35,
            "start": 83.96363636363635,
            "end": 84.01363636363637,
            "velocity": 74,
            "duration": 0.05000000000001137
          },
          {
            "pitch": 37,
            "start": 84.14999999999999,
            "end": 84.2,
            "velocity": 97,
            "duration": 0.05000000000001137
          },
          {
            "pitch": 41,
            "start": 84.14999999999999,
            "end": 84.2,
            "velocity": 78,
            "duration": 0.05000000000001137
          },
          {
            "pitch": 35,
            "start": 84.52045454545454,
            "end": 84.57045454545454,
            "velocity": 69,
            "duration": 0.04999999999999716
          },
          {
            "pitch": 37,
            "start": 84.70681818181818,
            "end": 84.75681818181818,
            "velocity": 93,
            "duration": 0.04999999999999716
          },
          {
            "pitch": 42,
            "start": 84.89318181818182,
            "end": 84.94318181818181,
            "velocity": 92,
            "duration": 0.04999999999999716
          },
          {
            "pitch": 51,
            "start": 85.26363636363637,
            "end": 85.31363636363636,
            "velocity": 68,
            "duration": 0.04999999999999716
          },
          {
            "pitch": 35,
            "start": 85.45,
            "end": 85.5,
            "velocity": 80,
            "duration": 0.04999999999999716
          },
          {
            "pitch": 42,
            "start": 85.45,
            "end": 85.5,
            "velocity": 94,
            "duration": 0.04999999999999716
          },
          {
            "pitch": 37,
            "start": 85.82045454545454,
            "end": 85.87045454545454,
            "velocity": 70,
            "duration": 0.04999999999999716
          },
          {
            "pitch": 35,
            "start": 86.00681818181818,
            "end": 86.05681818181817,
            "velocity": 112,
            "duration": 0.04999999999999716
          },
          {
            "pitch": 42,
            "start": 86.00681818181818,
            "end": 86.05681818181817,
            "velocity": 97,
            "duration": 0.04999999999999716
          },
          {
            "pitch": 51,
            "start": 86.00681818181818,
            "end": 86.05681818181817,
            "velocity": 85,
            "duration": 0.04999999999999716
          },
          {
            "pitch": 51,
            "start": 86.37727272727273,
            "end": 86.42727272727272,
            "velocity": 82,
            "duration": 0.04999999999999716
          },
          {
            "pitch": 35,
            "start": 86.56363636363636,
            "end": 86.61363636363636,
            "velocity": 65,
            "duration": 0.04999999999999716
          },
          {
            "pitch": 51,
            "start": 86.75,
            "end": 86.8,
            "velocity": 75,
            "duration": 0.04999999999999716
          },
          {
            "pitch": 35,
            "start": 86.93636363636364,
            "end": 86.98636363636363,
            "velocity": 70,
            "duration": 0.04999999999999716
          },
          {
            "pitch": 35,
            "start": 87.49318181818181,
            "end": 87.54318181818181,
            "velocity": 111,
            "duration": 0.04999999999999716
          },
          {
            "pitch": 42,
            "start": 87.49318181818181,
            "end": 87.54318181818181,
            "velocity": 99,
            "duration": 0.04999999999999716
          },
          {
            "pitch": 51,
            "start": 87.49318181818181,
            "end": 87.54318181818181,
            "velocity": 81,
            "duration": 0.04999999999999716
          },
          {
            "pitch": 37,
            "start": 87.86363636363636,
            "end": 87.91363636363636,
            "velocity": 89,
            "duration": 0.04999999999999716
          },
          {
            "pitch": 35,
            "start": 88.05,
            "end": 88.1,
            "velocity": 74,
            "duration": 0.04999999999999716
          },
          {
            "pitch": 51,
            "start": 88.05,
            "end": 88.1,
            "velocity": 80,
            "duration": 0.04999999999999716
          },
          {
            "pitch": 51,
            "start": 88.79318181818181,
            "end": 88.84318181818182,
            "velocity": 75,
            "duration": 0.05000000000001137
          },
          {
            "pitch": 35,
            "start": 88.97954545454544,
            "end": 89.02954545454546,
            "velocity": 78,
            "duration": 0.05000000000001137
          },
          {
            "pitch": 42,
            "start": 88.97954545454544,
            "end": 89.02954545454546,
            "velocity": 85,
            "duration": 0.05000000000001137
          },
          {
            "pitch": 42,
            "start": 89.53636363636363,
            "end": 89.58636363636363,
            "velocity": 68,
            "duration": 0.04999999999999716
          },
          {
            "pitch": 51,
            "start": 89.53636363636363,
            "end": 89.58636363636363,
            "velocity": 67,
            "duration": 0.04999999999999716
          },
          {
            "pitch": 51,
            "start": 90.09318181818182,
            "end": 90.14318181818182,
            "velocity": 75,
            "duration": 0.04999999999999716
          },
          {
            "pitch": 35,
            "start": 90.4659090909091,
            "end": 90.51590909090909,
            "velocity": 90,
            "duration": 0.04999999999999716
          },
          {
            "pitch": 42,
            "start": 90.4659090909091,
            "end": 90.51590909090909,
            "velocity": 65,
            "duration": 0.04999999999999716
          },
          {
            "pitch": 35,
            "start": 91.02272727272727,
            "end": 91.07272727272726,
            "velocity": 107,
            "duration": 0.04999999999999716
          },
          {
            "pitch": 37,
            "start": 91.2090909090909,
            "end": 91.2590909090909,
            "velocity": 104,
            "duration": 0.04999999999999716
          },
          {
            "pitch": 35,
            "start": 91.57954545454545,
            "end": 91.62954545454545,
            "velocity": 66,
            "duration": 0.04999999999999716
          },
          {
            "pitch": 37,
            "start": 91.76590909090909,
            "end": 91.81590909090909,
            "velocity": 78,
            "duration": 0.04999999999999716
          },
          {
            "pitch": 35,
            "start": 91.94999999999999,
            "end": 92.0,
            "velocity": 71,
            "duration": 0.05000000000001137
          },
          {
            "pitch": 42,
            "start": 91.94999999999999,
            "end": 92.0,
            "velocity": 68,
            "duration": 0.05000000000001137
          },
          {
            "pitch": 35,
            "start": 92.5090909090909,
            "end": 92.5590909090909,
            "velocity": 107,
            "duration": 0.04999999999999716
          },
          {
            "pitch": 42,
            "start": 92.5090909090909,
            "end": 92.5590909090909,
            "velocity": 89,
            "duration": 0.04999999999999716
          },
          {
            "pitch": 51,
            "start": 92.5090909090909,
            "end": 92.5590909090909,
            "velocity": 86,
            "duration": 0.04999999999999716
          },
          {
            "pitch": 51,
            "start": 93.25227272727273,
            "end": 93.30227272727272,
            "velocity": 85,
            "duration": 0.04999999999999716
          },
          {
            "pitch": 42,
            "start": 93.43636363636364,
            "end": 93.48636363636363,
            "velocity": 65,
            "duration": 0.04999999999999716
          },
          {
            "pitch": 35,
            "start": 93.99545454545454,
            "end": 94.04545454545455,
            "velocity": 117,
            "duration": 0.05000000000001137
          },
          {
            "pitch": 42,
            "start": 93.99545454545454,
            "end": 94.04545454545455,
            "velocity": 84,
            "duration": 0.05000000000001137
          },
          {
            "pitch": 51,
            "start": 93.99545454545454,
            "end": 94.04545454545455,
            "velocity": 98,
            "duration": 0.05000000000001137
          },
          {
            "pitch": 35,
            "start": 94.55227272727272,
            "end": 94.60227272727272,
            "velocity": 64,
            "duration": 0.04999999999999716
          },
          {
            "pitch": 51,
            "start": 94.73636363636363,
            "end": 94.78636363636363,
            "velocity": 86,
            "duration": 0.04999999999999716
          },
          {
            "pitch": 35,
            "start": 94.92272727272727,
            "end": 94.97272727272727,
            "velocity": 68,
            "duration": 0.04999999999999716
          },
          {
            "pitch": 35,
            "start": 95.47954545454544,
            "end": 95.52954545454546,
            "velocity": 102,
            "duration": 0.05000000000001137
          },
          {
            "pitch": 42,
            "start": 95.47954545454544,
            "end": 95.52954545454546,
            "velocity": 83,
            "duration": 0.05000000000001137
          },
          {
            "pitch": 51,
            "start": 95.47954545454544,
            "end": 95.52954545454546,
            "velocity": 76,
            "duration": 0.05000000000001137
          },
          {
            "pitch": 37,
            "start": 95.66590909090908,
            "end": 95.71590909090908,
            "velocity": 83,
            "duration": 0.04999999999999716
          },
          {
            "pitch": 35,
            "start": 96.03863636363636,
            "end": 96.08863636363635,
            "velocity": 80,
            "duration": 0.04999999999999716
          },
          {
            "pitch": 51,
            "start": 96.03863636363636,
            "end": 96.08863636363635,
            "velocity": 77,
            "duration": 0.04999999999999716
          },
          {
            "pitch": 37,
            "start": 96.4090909090909,
            "end": 96.4590909090909,
            "velocity": 70,
            "duration": 0.04999999999999716
          },
          {
            "pitch": 51,
            "start": 96.78181818181818,
            "end": 96.83181818181818,
            "velocity": 75,
            "duration": 0.04999999999999716
          },
          {
            "pitch": 35,
            "start": 96.96590909090908,
            "end": 97.01590909090909,
            "velocity": 81,
            "duration": 0.05000000000001137
          },
          {
            "pitch": 42,
            "start": 96.96590909090908,
            "end": 97.01590909090909,
            "velocity": 92,
            "duration": 0.05000000000001137
          },
          {
            "pitch": 37,
            "start": 97.15227272727272,
            "end": 97.20227272727273,
            "velocity": 82,
            "duration": 0.05000000000001137
          },
          {
            "pitch": 35,
            "start": 97.52272727272727,
            "end": 97.57272727272726,
            "velocity": 88,
            "duration": 0.04999999999999716
          },
          {
            "pitch": 37,
            "start": 97.89545454545454,
            "end": 97.94545454545454,
            "velocity": 87,
            "duration": 0.04999999999999716
          },
          {
            "pitch": 35,
            "start": 98.45227272727273,
            "end": 98.50227272727273,
            "velocity": 78,
            "duration": 0.04999999999999716
          },
          {
            "pitch": 37,
            "start": 98.82499999999999,
            "end": 98.875,
            "velocity": 77,
            "duration": 0.05000000000001137
          },
          {
            "pitch": 35,
            "start": 99.0090909090909,
            "end": 99.0590909090909,
            "velocity": 104,
            "duration": 0.04999999999999716
          },
          {
            "pitch": 37,
            "start": 99.38181818181818,
            "end": 99.43181818181817,
            "velocity": 79,
            "duration": 0.04999999999999716
          },
          {
            "pitch": 35,
            "start": 99.56818181818181,
            "end": 99.61818181818181,
            "velocity": 63,
            "duration": 0.04999999999999716
          },
          {
            "pitch": 35,
            "start": 99.93863636363636,
            "end": 99.98863636363636,
            "velocity": 67,
            "duration": 0.04999999999999716
          },
          {
            "pitch": 42,
            "start": 99.93863636363636,
            "end": 99.98863636363636,
            "velocity": 75,
            "duration": 0.04999999999999716
          },
          {
            "pitch": 42,
            "start": 100.49545454545454,
            "end": 100.54545454545455,
            "velocity": 91,
            "duration": 0.05000000000001137
          },
          {
            "pitch": 35,
            "start": 101.05227272727272,
            "end": 101.10227272727272,
            "velocity": 64,
            "duration": 0.04999999999999716
          },
          {
            "pitch": 41,
            "start": 102.35454545454544,
            "end": 102.40454545454546,
            "velocity": 68,
            "duration": 0.05000000000001137
          },
          {
            "pitch": 35,
            "start": 102.725,
            "end": 102.77499999999999,
            "velocity": 76,
            "duration": 0.04999999999999716
          },
          {
            "pitch": 35,
            "start": 103.09772727272727,
            "end": 103.14772727272727,
            "velocity": 69,
            "duration": 0.04999999999999716
          },
          {
            "pitch": 41,
            "start": 103.28181818181818,
            "end": 103.33181818181818,
            "velocity": 67,
            "duration": 0.04999999999999716
          },
          {
            "pitch": 35,
            "start": 103.46818181818182,
            "end": 103.51818181818182,
            "velocity": 69,
            "duration": 0.04999999999999716
          },
          {
            "pitch": 51,
            "start": 104.02499999999999,
            "end": 104.07499999999999,
            "velocity": 75,
            "duration": 0.04999999999999716
          },
          {
            "pitch": 51,
            "start": 104.76818181818182,
            "end": 104.81818181818181,
            "velocity": 77,
            "duration": 0.04999999999999716
          },
          {
            "pitch": 35,
            "start": 104.95454545454545,
            "end": 105.00454545454545,
            "velocity": 96,
            "duration": 0.04999999999999716
          },
          {
            "pitch": 35,
            "start": 105.51136363636363,
            "end": 105.56136363636364,
            "velocity": 114,
            "duration": 0.05000000000001137
          },
          {
            "pitch": 42,
            "start": 105.51136363636363,
            "end": 105.56136363636364,
            "velocity": 94,
            "duration": 0.05000000000001137
          },
          {
            "pitch": 51,
            "start": 105.51136363636363,
            "end": 105.56136363636364,
            "velocity": 96,
            "duration": 0.05000000000001137
          },
          {
            "pitch": 51,
            "start": 106.25454545454545,
            "end": 106.30454545454545,
            "velocity": 87,
            "duration": 0.04999999999999716
          },
          {
            "pitch": 35,
            "start": 106.44090909090909,
            "end": 106.49090909090908,
            "velocity": 63,
            "duration": 0.04999999999999716
          },
          {
            "pitch": 42,
            "start": 106.44090909090909,
            "end": 106.49090909090908,
            "velocity": 64,
            "duration": 0.04999999999999716
          },
          {
            "pitch": 37,
            "start": 106.81136363636364,
            "end": 106.86136363636363,
            "velocity": 82,
            "duration": 0.04999999999999716
          },
          {
            "pitch": 35,
            "start": 106.99772727272726,
            "end": 107.04772727272727,
            "velocity": 114,
            "duration": 0.05000000000001137
          },
          {
            "pitch": 42,
            "start": 106.99772727272726,
            "end": 107.04772727272727,
            "velocity": 101,
            "duration": 0.05000000000001137
          },
          {
            "pitch": 51,
            "start": 106.99772727272726,
            "end": 107.04772727272727,
            "velocity": 98,
            "duration": 0.05000000000001137
          },
          {
            "pitch": 35,
            "start": 107.55454545454545,
            "end": 107.60454545454544,
            "velocity": 70,
            "duration": 0.04999999999999716
          },
          {
            "pitch": 37,
            "start": 107.74090909090908,
            "end": 107.79090909090908,
            "velocity": 68,
            "duration": 0.04999999999999716
          },
          {
            "pitch": 51,
            "start": 107.74090909090908,
            "end": 107.79090909090908,
            "velocity": 67,
            "duration": 0.04999999999999716
          },
          {
            "pitch": 37,
            "start": 108.29772727272727,
            "end": 108.34772727272727,
            "velocity": 81,
            "duration": 0.04999999999999716
          },
          {
            "pitch": 35,
            "start": 108.48409090909091,
            "end": 108.5340909090909,
            "velocity": 105,
            "duration": 0.04999999999999716
          },
          {
            "pitch": 42,
            "start": 108.48409090909091,
            "end": 108.5340909090909,
            "velocity": 99,
            "duration": 0.04999999999999716
          },
          {
            "pitch": 51,
            "start": 108.48409090909091,
            "end": 108.5340909090909,
            "velocity": 75,
            "duration": 0.04999999999999716
          },
          {
            "pitch": 35,
            "start": 109.04090909090908,
            "end": 109.09090909090908,
            "velocity": 93,
            "duration": 0.04999999999999716
          },
          {
            "pitch": 51,
            "start": 109.04090909090908,
            "end": 109.09090909090908,
            "velocity": 86,
            "duration": 0.04999999999999716
          },
          {
            "pitch": 35,
            "start": 109.97045454545454,
            "end": 110.02045454545454,
            "velocity": 97,
            "duration": 0.04999999999999716
          },
          {
            "pitch": 42,
            "start": 109.97045454545454,
            "end": 110.02045454545454,
            "velocity": 90,
            "duration": 0.04999999999999716
          },
          {
            "pitch": 37,
            "start": 110.15454545454546,
            "end": 110.20454545454545,
            "velocity": 92,
            "duration": 0.04999999999999716
          },
          {
            "pitch": 35,
            "start": 110.52727272727272,
            "end": 110.57727272727273,
            "velocity": 101,
            "duration": 0.05000000000001137
          },
          {
            "pitch": 42,
            "start": 110.52727272727272,
            "end": 110.57727272727273,
            "velocity": 90,
            "duration": 0.05000000000001137
          },
          {
            "pitch": 51,
            "start": 110.52727272727272,
            "end": 110.57727272727273,
            "velocity": 80,
            "duration": 0.05000000000001137
          },
          {
            "pitch": 37,
            "start": 110.89772727272727,
            "end": 110.94772727272726,
            "velocity": 67,
            "duration": 0.04999999999999716
          },
          {
            "pitch": 51,
            "start": 111.27045454545454,
            "end": 111.32045454545454,
            "velocity": 83,
            "duration": 0.04999999999999716
          },
          {
            "pitch": 35,
            "start": 111.45681818181818,
            "end": 111.50681818181818,
            "velocity": 91,
            "duration": 0.04999999999999716
          },
          {
            "pitch": 42,
            "start": 111.45681818181818,
            "end": 111.50681818181818,
            "velocity": 80,
            "duration": 0.04999999999999716
          },
          {
            "pitch": 37,
            "start": 111.64090909090909,
            "end": 111.69090909090909,
            "velocity": 75,
            "duration": 0.04999999999999716
          },
          {
            "pitch": 35,
            "start": 112.01363636363635,
            "end": 112.06363636363636,
            "velocity": 117,
            "duration": 0.05000000000001137
          },
          {
            "pitch": 51,
            "start": 112.01363636363635,
            "end": 112.06363636363636,
            "velocity": 99,
            "duration": 0.05000000000001137
          },
          {
            "pitch": 37,
            "start": 112.3840909090909,
            "end": 112.4340909090909,
            "velocity": 86,
            "duration": 0.04999999999999716
          },
          {
            "pitch": 51,
            "start": 112.75681818181818,
            "end": 112.80681818181817,
            "velocity": 79,
            "duration": 0.04999999999999716
          },
          {
            "pitch": 35,
            "start": 112.94090909090909,
            "end": 112.99090909090908,
            "velocity": 74,
            "duration": 0.04999999999999716
          },
          {
            "pitch": 35,
            "start": 113.5,
            "end": 113.55,
            "velocity": 115,
            "duration": 0.04999999999999716
          },
          {
            "pitch": 42,
            "start": 113.5,
            "end": 113.55,
            "velocity": 107,
            "duration": 0.04999999999999716
          },
          {
            "pitch": 51,
            "start": 113.5,
            "end": 113.55,
            "velocity": 98,
            "duration": 0.04999999999999716
          },
          {
            "pitch": 35,
            "start": 114.05681818181817,
            "end": 114.10681818181817,
            "velocity": 73,
            "duration": 0.04999999999999716
          },
          {
            "pitch": 51,
            "start": 114.05681818181817,
            "end": 114.10681818181817,
            "velocity": 85,
            "duration": 0.04999999999999716
          },
          {
            "pitch": 37,
            "start": 114.8,
            "end": 114.85,
            "velocity": 92,
            "duration": 0.04999999999999716
          },
          {
            "pitch": 35,
            "start": 114.98409090909091,
            "end": 115.0340909090909,
            "velocity": 107,
            "duration": 0.04999999999999716
          },
          {
            "pitch": 42,
            "start": 114.98409090909091,
            "end": 115.0340909090909,
            "velocity": 95,
            "duration": 0.04999999999999716
          },
          {
            "pitch": 51,
            "start": 114.98409090909091,
            "end": 115.0340909090909,
            "velocity": 91,
            "duration": 0.04999999999999716
          },
          {
            "pitch": 35,
            "start": 115.54318181818181,
            "end": 115.59318181818182,
            "velocity": 85,
            "duration": 0.05000000000001137
          },
          {
            "pitch": 51,
            "start": 115.54318181818181,
            "end": 115.59318181818182,
            "velocity": 77,
            "duration": 0.05000000000001137
          },
          {
            "pitch": 37,
            "start": 116.28636363636363,
            "end": 116.33636363636363,
            "velocity": 74,
            "duration": 0.04999999999999716
          },
          {
            "pitch": 51,
            "start": 116.28636363636363,
            "end": 116.33636363636363,
            "velocity": 70,
            "duration": 0.04999999999999716
          },
          {
            "pitch": 35,
            "start": 116.47045454545454,
            "end": 116.52045454545454,
            "velocity": 77,
            "duration": 0.04999999999999716
          },
          {
            "pitch": 42,
            "start": 116.47045454545454,
            "end": 116.52045454545454,
            "velocity": 97,
            "duration": 0.04999999999999716
          },
          {
            "pitch": 35,
            "start": 117.02954545454544,
            "end": 117.07954545454545,
            "velocity": 108,
            "duration": 0.05000000000001137
          },
          {
            "pitch": 51,
            "start": 117.02954545454544,
            "end": 117.07954545454545,
            "velocity": 90,
            "duration": 0.05000000000001137
          },
          {
            "pitch": 51,
            "start": 117.77272727272727,
            "end": 117.82272727272726,
            "velocity": 78,
            "duration": 0.04999999999999716
          },
          {
            "pitch": 35,
            "start": 117.95681818181818,
            "end": 118.00681818181818,
            "velocity": 82,
            "duration": 0.04999999999999716
          },
          {
            "pitch": 37,
            "start": 118.14318181818182,
            "end": 118.19318181818181,
            "velocity": 73,
            "duration": 0.04999999999999716
          },
          {
            "pitch": 35,
            "start": 118.51363636363635,
            "end": 118.56363636363636,
            "velocity": 111,
            "duration": 0.05000000000001137
          },
          {
            "pitch": 42,
            "start": 118.51363636363635,
            "end": 118.56363636363636,
            "velocity": 101,
            "duration": 0.05000000000001137
          },
          {
            "pitch": 51,
            "start": 118.51363636363635,
            "end": 118.56363636363636,
            "velocity": 81,
            "duration": 0.05000000000001137
          },
          {
            "pitch": 37,
            "start": 118.88636363636363,
            "end": 118.93636363636364,
            "velocity": 99,
            "duration": 0.05000000000001137
          },
          {
            "pitch": 35,
            "start": 119.07272727272726,
            "end": 119.12272727272726,
            "velocity": 64,
            "duration": 0.04999999999999716
          },
          {
            "pitch": 51,
            "start": 119.25681818181818,
            "end": 119.30681818181817,
            "velocity": 88,
            "duration": 0.04999999999999716
          },
          {
            "pitch": 35,
            "start": 119.44318181818181,
            "end": 119.49318181818181,
            "velocity": 65,
            "duration": 0.04999999999999716
          },
          {
            "pitch": 37,
            "start": 119.44318181818181,
            "end": 119.49318181818181,
            "velocity": 64,
            "duration": 0.04999999999999716
          },
          {
            "pitch": 51,
            "start": 119.81590909090909,
            "end": 119.86590909090908,
            "velocity": 93,
            "duration": 0.04999999999999716
          },
          {
            "pitch": 37,
            "start": 120.37272727272726,
            "end": 120.42272727272727,
            "velocity": 101,
            "duration": 0.05000000000001137
          },
          {
            "pitch": 51,
            "start": 120.5590909090909,
            "end": 120.60909090909091,
            "velocity": 64,
            "duration": 0.05000000000001137
          },
          {
            "pitch": 37,
            "start": 120.74318181818181,
            "end": 120.79318181818181,
            "velocity": 89,
            "duration": 0.04999999999999716
          },
          {
            "pitch": 37,
            "start": 121.11590909090908,
            "end": 121.16590909090908,
            "velocity": 101,
            "duration": 0.04999999999999716
          },
          {
            "pitch": 51,
            "start": 121.3,
            "end": 121.35,
            "velocity": 71,
            "duration": 0.04999999999999716
          },
          {
            "pitch": 37,
            "start": 121.48636363636363,
            "end": 121.53636363636363,
            "velocity": 66,
            "duration": 0.04999999999999716
          },
          {
            "pitch": 42,
            "start": 121.48636363636363,
            "end": 121.53636363636363,
            "velocity": 65,
            "duration": 0.04999999999999716
          },
          {
            "pitch": 51,
            "start": 122.04318181818181,
            "end": 122.09318181818182,
            "velocity": 78,
            "duration": 0.05000000000001137
          },
          {
            "pitch": 42,
            "start": 122.22954545454544,
            "end": 122.27954545454544,
            "velocity": 67,
            "duration": 0.04999999999999716
          },
          {
            "pitch": 51,
            "start": 122.41590909090908,
            "end": 122.46590909090908,
            "velocity": 76,
            "duration": 0.04999999999999716
          },
          {
            "pitch": 51,
            "start": 122.78636363636363,
            "end": 122.83636363636363,
            "velocity": 94,
            "duration": 0.04999999999999716
          },
          {
            "pitch": 42,
            "start": 122.97272727272727,
            "end": 123.02272727272727,
            "velocity": 87,
            "duration": 0.04999999999999716
          },
          {
            "pitch": 51,
            "start": 123.34545454545454,
            "end": 123.39545454545454,
            "velocity": 71,
            "duration": 0.04999999999999716
          },
          {
            "pitch": 51,
            "start": 123.71590909090908,
            "end": 123.76590909090909,
            "velocity": 69,
            "duration": 0.05000000000001137
          },
          {
            "pitch": 37,
            "start": 123.90227272727272,
            "end": 123.95227272727273,
            "velocity": 87,
            "duration": 0.05000000000001137
          },
          {
            "pitch": 51,
            "start": 124.27272727272727,
            "end": 124.32272727272726,
            "velocity": 87,
            "duration": 0.04999999999999716
          },
          {
            "pitch": 42,
            "start": 124.4590909090909,
            "end": 124.5090909090909,
            "velocity": 77,
            "duration": 0.04999999999999716
          },
          {
            "pitch": 35,
            "start": 125.01590909090909,
            "end": 125.06590909090909,
            "velocity": 110,
            "duration": 0.04999999999999716
          },
          {
            "pitch": 51,
            "start": 125.01590909090909,
            "end": 125.06590909090909,
            "velocity": 86,
            "duration": 0.04999999999999716
          },
          {
            "pitch": 51,
            "start": 125.7590909090909,
            "end": 125.8090909090909,
            "velocity": 90,
            "duration": 0.04999999999999716
          },
          {
            "pitch": 35,
            "start": 125.94545454545454,
            "end": 125.99545454545454,
            "velocity": 69,
            "duration": 0.04999999999999716
          },
          {
            "pitch": 37,
            "start": 126.13181818181818,
            "end": 126.18181818181817,
            "velocity": 107,
            "duration": 0.04999999999999716
          },
          {
            "pitch": 51,
            "start": 126.31590909090909,
            "end": 126.36590909090908,
            "velocity": 77,
            "duration": 0.04999999999999716
          },
          {
            "pitch": 42,
            "start": 126.50227272727273,
            "end": 126.55227272727272,
            "velocity": 72,
            "duration": 0.04999999999999716
          },
          {
            "pitch": 37,
            "start": 126.87272727272726,
            "end": 126.92272727272727,
            "velocity": 88,
            "duration": 0.05000000000001137
          },
          {
            "pitch": 51,
            "start": 127.0590909090909,
            "end": 127.10909090909091,
            "velocity": 63,
            "duration": 0.05000000000001137
          },
          {
            "pitch": 37,
            "start": 127.24545454545454,
            "end": 127.29545454545453,
            "velocity": 69,
            "duration": 0.04999999999999716
          },
          {
            "pitch": 35,
            "start": 127.98863636363636,
            "end": 128.03863636363636,
            "velocity": 86,
            "duration": 0.04999999999999716
          },
          {
            "pitch": 51,
            "start": 127.98863636363636,
            "end": 128.03863636363636,
            "velocity": 86,
            "duration": 0.04999999999999716
          },
          {
            "pitch": 42,
            "start": 128.54545454545453,
            "end": 128.59545454545454,
            "velocity": 63,
            "duration": 0.05000000000001137
          },
          {
            "pitch": 51,
            "start": 128.73181818181817,
            "end": 128.78181818181818,
            "velocity": 68,
            "duration": 0.05000000000001137
          },
          {
            "pitch": 51,
            "start": 129.28863636363636,
            "end": 129.33863636363637,
            "velocity": 71,
            "duration": 0.05000000000001137
          },
          {
            "pitch": 37,
            "start": 129.475,
            "end": 129.525,
            "velocity": 68,
            "duration": 0.05000000000001137
          },
          {
            "pitch": 35,
            "start": 130.03181818181818,
            "end": 130.08181818181816,
            "velocity": 85,
            "duration": 0.04999999999998295
          },
          {
            "pitch": 51,
            "start": 130.03181818181818,
            "end": 130.08181818181816,
            "velocity": 84,
            "duration": 0.04999999999998295
          },
          {
            "pitch": 37,
            "start": 130.40227272727273,
            "end": 130.4522727272727,
            "velocity": 66,
            "duration": 0.04999999999998295
          },
          {
            "pitch": 51,
            "start": 130.775,
            "end": 130.825,
            "velocity": 84,
            "duration": 0.04999999999998295
          },
          {
            "pitch": 35,
            "start": 130.96136363636364,
            "end": 131.01136363636363,
            "velocity": 92,
            "duration": 0.04999999999998295
          },
          {
            "pitch": 42,
            "start": 130.96136363636364,
            "end": 131.01136363636363,
            "velocity": 73,
            "duration": 0.04999999999998295
          },
          {
            "pitch": 37,
            "start": 131.14545454545453,
            "end": 131.19545454545454,
            "velocity": 97,
            "duration": 0.05000000000001137
          },
          {
            "pitch": 42,
            "start": 131.5181818181818,
            "end": 131.5681818181818,
            "velocity": 69,
            "duration": 0.05000000000001137
          },
          {
            "pitch": 51,
            "start": 131.5181818181818,
            "end": 131.5681818181818,
            "velocity": 67,
            "duration": 0.05000000000001137
          },
          {
            "pitch": 37,
            "start": 131.88863636363635,
            "end": 131.93863636363636,
            "velocity": 99,
            "duration": 0.05000000000001137
          },
          {
            "pitch": 51,
            "start": 132.26136363636363,
            "end": 132.31136363636364,
            "velocity": 65,
            "duration": 0.05000000000001137
          },
          {
            "pitch": 35,
            "start": 133.00454545454545,
            "end": 133.05454545454546,
            "velocity": 109,
            "duration": 0.05000000000001137
          },
          {
            "pitch": 35,
            "start": 133.9318181818182,
            "end": 133.98181818181817,
            "velocity": 68,
            "duration": 0.04999999999998295
          },
          {
            "pitch": 37,
            "start": 134.11818181818182,
            "end": 134.1681818181818,
            "velocity": 79,
            "duration": 0.04999999999998295
          },
          {
            "pitch": 37,
            "start": 134.86136363636362,
            "end": 134.91136363636363,
            "velocity": 91,
            "duration": 0.05000000000001137
          },
          {
            "pitch": 35,
            "start": 135.04772727272726,
            "end": 135.09772727272727,
            "velocity": 65,
            "duration": 0.05000000000001137
          },
          {
            "pitch": 35,
            "start": 135.4181818181818,
            "end": 135.46818181818182,
            "velocity": 67,
            "duration": 0.05000000000001137
          },
          {
            "pitch": 37,
            "start": 135.60454545454544,
            "end": 135.65454545454546,
            "velocity": 100,
            "duration": 0.05000000000001137
          },
          {
            "pitch": 37,
            "start": 136.5340909090909,
            "end": 136.5840909090909,
            "velocity": 75,
            "duration": 0.04999999999998295
          },
          {
            "pitch": 51,
            "start": 136.90454545454546,
            "end": 136.95454545454544,
            "velocity": 67,
            "duration": 0.04999999999998295
          },
          {
            "pitch": 51,
            "start": 137.46136363636364,
            "end": 137.51136363636363,
            "velocity": 78,
            "duration": 0.04999999999998295
          },
          {
            "pitch": 37,
            "start": 137.64772727272725,
            "end": 137.69772727272726,
            "velocity": 66,
            "duration": 0.05000000000001137
          },
          {
            "pitch": 37,
            "start": 138.20454545454544,
            "end": 138.25454545454545,
            "velocity": 90,
            "duration": 0.05000000000001137
          },
          {
            "pitch": 45,
            "start": 138.39090909090908,
            "end": 138.4409090909091,
            "velocity": 89,
            "duration": 0.05000000000001137
          },
          {
            "pitch": 41,
            "start": 139.1340909090909,
            "end": 139.1840909090909,
            "velocity": 67,
            "duration": 0.05000000000001137
          },
          {
            "pitch": 51,
            "start": 139.32045454545454,
            "end": 139.37045454545455,
            "velocity": 71,
            "duration": 0.05000000000001137
          },
          {
            "pitch": 41,
            "start": 139.50454545454545,
            "end": 139.55454545454546,
            "velocity": 64,
            "duration": 0.05000000000001137
          },
          {
            "pitch": 35,
            "start": 139.6909090909091,
            "end": 139.74090909090907,
            "velocity": 70,
            "duration": 0.04999999999998295
          },
          {
            "pitch": 41,
            "start": 140.24772727272727,
            "end": 140.29772727272726,
            "velocity": 83,
            "duration": 0.04999999999998295
          },
          {
            "pitch": 35,
            "start": 140.4340909090909,
            "end": 140.4840909090909,
            "velocity": 68,
            "duration": 0.04999999999998295
          },
          {
            "pitch": 35,
            "start": 140.99090909090907,
            "end": 141.04090909090908,
            "velocity": 101,
            "duration": 0.05000000000001137
          },
          {
            "pitch": 51,
            "start": 140.99090909090907,
            "end": 141.04090909090908,
            "velocity": 86,
            "duration": 0.05000000000001137
          },
          {
            "pitch": 51,
            "start": 141.54772727272726,
            "end": 141.59772727272727,
            "velocity": 71,
            "duration": 0.05000000000001137
          },
          {
            "pitch": 51,
            "start": 142.29090909090908,
            "end": 142.3409090909091,
            "velocity": 80,
            "duration": 0.05000000000001137
          },
          {
            "pitch": 35,
            "start": 142.47727272727272,
            "end": 142.52727272727273,
            "velocity": 84,
            "duration": 0.05000000000001137
          },
          {
            "pitch": 42,
            "start": 142.47727272727272,
            "end": 142.52727272727273,
            "velocity": 77,
            "duration": 0.05000000000001137
          },
          {
            "pitch": 37,
            "start": 142.85,
            "end": 142.9,
            "velocity": 79,
            "duration": 0.05000000000001137
          },
          {
            "pitch": 35,
            "start": 143.0340909090909,
            "end": 143.0840909090909,
            "velocity": 82,
            "duration": 0.04999999999998295
          },
          {
            "pitch": 51,
            "start": 143.0340909090909,
            "end": 143.0840909090909,
            "velocity": 85,
            "duration": 0.04999999999998295
          },
          {
            "pitch": 51,
            "start": 143.77727272727273,
            "end": 143.8272727272727,
            "velocity": 77,
            "duration": 0.04999999999998295
          },
          {
            "pitch": 35,
            "start": 143.96363636363637,
            "end": 144.01363636363635,
            "velocity": 79,
            "duration": 0.04999999999998295
          },
          {
            "pitch": 42,
            "start": 143.96363636363637,
            "end": 144.01363636363635,
            "velocity": 88,
            "duration": 0.04999999999998295
          },
          {
            "pitch": 37,
            "start": 144.15,
            "end": 144.2,
            "velocity": 73,
            "duration": 0.04999999999998295
          },
          {
            "pitch": 35,
            "start": 144.52045454545453,
            "end": 144.57045454545454,
            "velocity": 92,
            "duration": 0.05000000000001137
          },
          {
            "pitch": 42,
            "start": 144.52045454545453,
            "end": 144.57045454545454,
            "velocity": 67,
            "duration": 0.05000000000001137
          },
          {
            "pitch": 51,
            "start": 144.52045454545453,
            "end": 144.57045454545454,
            "velocity": 73,
            "duration": 0.05000000000001137
          },
          {
            "pitch": 51,
            "start": 145.26363636363635,
            "end": 145.31363636363636,
            "velocity": 83,
            "duration": 0.05000000000001137
          },
          {
            "pitch": 35,
            "start": 145.45,
            "end": 145.5,
            "velocity": 89,
            "duration": 0.05000000000001137
          },
          {
            "pitch": 42,
            "start": 145.45,
            "end": 145.5,
            "velocity": 77,
            "duration": 0.05000000000001137
          },
          {
            "pitch": 35,
            "start": 146.00681818181818,
            "end": 146.0568181818182,
            "velocity": 106,
            "duration": 0.05000000000001137
          },
          {
            "pitch": 42,
            "start": 146.00681818181818,
            "end": 146.0568181818182,
            "velocity": 70,
            "duration": 0.05000000000001137
          },
          {
            "pitch": 51,
            "start": 146.00681818181818,
            "end": 146.0568181818182,
            "velocity": 79,
            "duration": 0.05000000000001137
          },
          {
            "pitch": 37,
            "start": 146.37954545454545,
            "end": 146.42954545454543,
            "velocity": 64,
            "duration": 0.04999999999998295
          },
          {
            "pitch": 51,
            "start": 146.75,
            "end": 146.79999999999998,
            "velocity": 73,
            "duration": 0.04999999999998295
          },
          {
            "pitch": 35,
            "start": 146.93636363636364,
            "end": 146.98636363636362,
            "velocity": 72,
            "duration": 0.04999999999998295
          },
          {
            "pitch": 35,
            "start": 147.49318181818182,
            "end": 147.5431818181818,
            "velocity": 105,
            "duration": 0.04999999999998295
          },
          {
            "pitch": 42,
            "start": 147.49318181818182,
            "end": 147.5431818181818,
            "velocity": 80,
            "duration": 0.04999999999998295
          },
          {
            "pitch": 51,
            "start": 147.49318181818182,
            "end": 147.5431818181818,
            "velocity": 74,
            "duration": 0.04999999999998295
          },
          {
            "pitch": 37,
            "start": 147.67954545454543,
            "end": 147.72954545454544,
            "velocity": 69,
            "duration": 0.05000000000001137
          },
          {
            "pitch": 37,
            "start": 148.23636363636362,
            "end": 148.28636363636363,
            "velocity": 64,
            "duration": 0.05000000000001137
          },
          {
            "pitch": 35,
            "start": 148.97954545454544,
            "end": 149.02954545454546,
            "velocity": 96,
            "duration": 0.05000000000001137
          },
          {
            "pitch": 42,
            "start": 148.97954545454544,
            "end": 149.02954545454546,
            "velocity": 77,
            "duration": 0.05000000000001137
          },
          {
            "pitch": 51,
            "start": 148.97954545454544,
            "end": 149.02954545454546,
            "velocity": 86,
            "duration": 0.05000000000001137
          },
          {
            "pitch": 35,
            "start": 149.53636363636363,
            "end": 149.58636363636364,
            "velocity": 82,
            "duration": 0.05000000000001137
          },
          {
            "pitch": 51,
            "start": 149.53636363636363,
            "end": 149.58636363636364,
            "velocity": 84,
            "duration": 0.05000000000001137
          },
          {
            "pitch": 51,
            "start": 150.27954545454546,
            "end": 150.32954545454544,
            "velocity": 75,
            "duration": 0.04999999999998295
          },
          {
            "pitch": 35,
            "start": 150.4659090909091,
            "end": 150.51590909090908,
            "velocity": 71,
            "duration": 0.04999999999998295
          },
          {
            "pitch": 42,
            "start": 150.4659090909091,
            "end": 150.51590909090908,
            "velocity": 65,
            "duration": 0.04999999999998295
          },
          {
            "pitch": 37,
            "start": 150.83636363636364,
            "end": 150.88636363636363,
            "velocity": 64,
            "duration": 0.04999999999998295
          },
          {
            "pitch": 35,
            "start": 151.02272727272725,
            "end": 151.07272727272726,
            "velocity": 87,
            "duration": 0.05000000000001137
          },
          {
            "pitch": 51,
            "start": 151.02272727272725,
            "end": 151.07272727272726,
            "velocity": 83,
            "duration": 0.05000000000001137
          },
          {
            "pitch": 51,
            "start": 151.76590909090908,
            "end": 151.8159090909091,
            "velocity": 77,
            "duration": 0.05000000000001137
          },
          {
            "pitch": 35,
            "start": 151.9522727272727,
            "end": 152.00227272727273,
            "velocity": 75,
            "duration": 0.05000000000001137
          },
          {
            "pitch": 42,
            "start": 151.9522727272727,
            "end": 152.00227272727273,
            "velocity": 71,
            "duration": 0.05000000000001137
          },
          {
            "pitch": 37,
            "start": 152.13636363636363,
            "end": 152.18636363636364,
            "velocity": 71,
            "duration": 0.05000000000001137
          },
          {
            "pitch": 35,
            "start": 152.5090909090909,
            "end": 152.5590909090909,
            "velocity": 103,
            "duration": 0.05000000000001137
          },
          {
            "pitch": 42,
            "start": 152.5090909090909,
            "end": 152.5590909090909,
            "velocity": 82,
            "duration": 0.05000000000001137
          },
          {
            "pitch": 51,
            "start": 152.5090909090909,
            "end": 152.5590909090909,
            "velocity": 78,
            "duration": 0.05000000000001137
          },
          {
            "pitch": 51,
            "start": 153.25227272727273,
            "end": 153.3022727272727,
            "velocity": 80,
            "duration": 0.04999999999998295
          },
          {
            "pitch": 35,
            "start": 153.43636363636364,
            "end": 153.48636363636362,
            "velocity": 66,
            "duration": 0.04999999999998295
          },
          {
            "pitch": 37,
            "start": 153.8090909090909,
            "end": 153.8590909090909,
            "velocity": 79,
            "duration": 0.04999999999998295
          },
          {
            "pitch": 35,
            "start": 153.99545454545455,
            "end": 154.04545454545453,
            "velocity": 102,
            "duration": 0.04999999999998295
          },
          {
            "pitch": 42,
            "start": 153.99545454545455,
            "end": 154.04545454545453,
            "velocity": 98,
            "duration": 0.04999999999998295
          },
          {
            "pitch": 51,
            "start": 153.99545454545455,
            "end": 154.04545454545453,
            "velocity": 86,
            "duration": 0.04999999999998295
          },
          {
            "pitch": 37,
            "start": 154.73863636363635,
            "end": 154.78863636363636,
            "velocity": 75,
            "duration": 0.05000000000001137
          },
          {
            "pitch": 51,
            "start": 155.29545454545453,
            "end": 155.34545454545454,
            "velocity": 72,
            "duration": 0.05000000000001137
          },
          {
            "pitch": 35,
            "start": 155.48181818181817,
            "end": 155.53181818181818,
            "velocity": 84,
            "duration": 0.05000000000001137
          },
          {
            "pitch": 37,
            "start": 155.66590909090908,
            "end": 155.7159090909091,
            "velocity": 88,
            "duration": 0.05000000000001137
          },
          {
            "pitch": 51,
            "start": 155.85227272727272,
            "end": 155.90227272727273,
            "velocity": 82,
            "duration": 0.05000000000001137
          },
          {
            "pitch": 51,
            "start": 156.22272727272727,
            "end": 156.27272727272725,
            "velocity": 66,
            "duration": 0.04999999999998295
          },
          {
            "pitch": 37,
            "start": 156.4090909090909,
            "end": 156.4590909090909,
            "velocity": 74,
            "duration": 0.04999999999998295
          },
          {
            "pitch": 51,
            "start": 156.78181818181818,
            "end": 156.83181818181816,
            "velocity": 63,
            "duration": 0.04999999999998295
          },
          {
            "pitch": 37,
            "start": 157.15227272727273,
            "end": 157.2022727272727,
            "velocity": 94,
            "duration": 0.04999999999998295
          },
          {
            "pitch": 51,
            "start": 158.2681818181818,
            "end": 158.3181818181818,
            "velocity": 86,
            "duration": 0.05000000000001137
          },
          {
            "pitch": 51,
            "start": 159.01136363636363,
            "end": 159.06136363636364,
            "velocity": 76,
            "duration": 0.05000000000001137
          },
          {
            "pitch": 51,
            "start": 159.38181818181818,
            "end": 159.4318181818182,
            "velocity": 71,
            "duration": 0.05000000000001137
          },
          {
            "pitch": 35,
            "start": 159.93863636363636,
            "end": 159.98863636363635,
            "velocity": 72,
            "duration": 0.04999999999998295
          },
          {
            "pitch": 37,
            "start": 160.125,
            "end": 160.17499999999998,
            "velocity": 67,
            "duration": 0.04999999999998295
          },
          {
            "pitch": 51,
            "start": 160.31136363636364,
            "end": 160.36136363636362,
            "velocity": 70,
            "duration": 0.04999999999998295
          },
          {
            "pitch": 42,
            "start": 160.49545454545455,
            "end": 160.54545454545453,
            "velocity": 66,
            "duration": 0.04999999999998295
          },
          {
            "pitch": 51,
            "start": 161.23863636363635,
            "end": 161.28863636363636,
            "velocity": 82,
            "duration": 0.05000000000001137
          },
          {
            "pitch": 35,
            "start": 161.98181818181817,
            "end": 162.03181818181818,
            "velocity": 94,
            "duration": 0.05000000000001137
          },
          {
            "pitch": 51,
            "start": 161.98181818181817,
            "end": 162.03181818181818,
            "velocity": 75,
            "duration": 0.05000000000001137
          },
          {
            "pitch": 37,
            "start": 162.1681818181818,
            "end": 162.21818181818182,
            "velocity": 95,
            "duration": 0.05000000000001137
          },
          {
            "pitch": 37,
            "start": 162.53863636363636,
            "end": 162.58863636363637,
            "velocity": 70,
            "duration": 0.05000000000001137
          },
          {
            "pitch": 37,
            "start": 163.28181818181818,
            "end": 163.33181818181816,
            "velocity": 78,
            "duration": 0.04999999999998295
          },
          {
            "pitch": 37,
            "start": 163.65454545454546,
            "end": 163.70454545454544,
            "velocity": 68,
            "duration": 0.04999999999998295
          },
          {
            "pitch": 51,
            "start": 164.025,
            "end": 164.075,
            "velocity": 70,
            "duration": 0.04999999999998295
          },
          {
            "pitch": 37,
            "start": 164.39772727272725,
            "end": 164.44772727272726,
            "velocity": 65,
            "duration": 0.05000000000001137
          },
          {
            "pitch": 35,
            "start": 164.95454545454544,
            "end": 165.00454545454545,
            "velocity": 80,
            "duration": 0.05000000000001137
          },
          {
            "pitch": 37,
            "start": 165.14090909090908,
            "end": 165.1909090909091,
            "velocity": 83,
            "duration": 0.05000000000001137
          },
          {
            "pitch": 37,
            "start": 165.8840909090909,
            "end": 165.9340909090909,
            "velocity": 70,
            "duration": 0.05000000000001137
          },
          {
            "pitch": 51,
            "start": 166.25454545454545,
            "end": 166.30454545454543,
            "velocity": 71,
            "duration": 0.04999999999998295
          },
          {
            "pitch": 37,
            "start": 166.81136363636364,
            "end": 166.86136363636362,
            "velocity": 65,
            "duration": 0.04999999999998295
          },
          {
            "pitch": 35,
            "start": 166.99772727272727,
            "end": 167.04772727272726,
            "velocity": 93,
            "duration": 0.04999999999998295
          },
          {
            "pitch": 51,
            "start": 166.99772727272727,
            "end": 167.04772727272726,
            "velocity": 76,
            "duration": 0.04999999999998295
          },
          {
            "pitch": 37,
            "start": 167.1840909090909,
            "end": 167.2340909090909,
            "velocity": 67,
            "duration": 0.04999999999998295
          },
          {
            "pitch": 35,
            "start": 167.9272727272727,
            "end": 167.97727272727272,
            "velocity": 70,
            "duration": 0.05000000000001137
          },
          {
            "pitch": 37,
            "start": 168.11136363636362,
            "end": 168.16136363636363,
            "velocity": 65,
            "duration": 0.05000000000001137
          },
          {
            "pitch": 45,
            "start": 168.67045454545453,
            "end": 168.72045454545454,
            "velocity": 63,
            "duration": 0.05000000000001137
          },
          {
            "pitch": 35,
            "start": 169.97045454545454,
            "end": 170.02045454545453,
            "velocity": 78,
            "duration": 0.04999999999998295
          },
          {
            "pitch": 37,
            "start": 170.15681818181818,
            "end": 170.20681818181816,
            "velocity": 87,
            "duration": 0.04999999999998295
          },
          {
            "pitch": 37,
            "start": 170.71363636363637,
            "end": 170.76363636363635,
            "velocity": 71,
            "duration": 0.04999999999998295
          },
          {
            "pitch": 37,
            "start": 171.64090909090908,
            "end": 171.6909090909091,
            "velocity": 75,
            "duration": 0.05000000000001137
          }
        ],
        "melodic_notes": [],
        "instruments": [
          {
            "program": "0",
            "is_drum": true,
            "name": "",
            "note_count": 694
          }
        ],
        "duration": 171.6909090909091,
        "tempo_changes": 0
      },
      {
        "file_path": "/home/matt/Documents/drum-tranxn/drum-transcription-api/test_audio/32 Soft Pink Glow_transcribed.mid",
        "total_notes": 694,
        "drum_notes": [
          {
            "pitch": 35,
            "start": 0.07045454545454545,
            "end": 0.17045454545454544,
            "velocity": 126,
            "duration": 0.09999999999999999
          },
          {
            "pitch": 35,
            "start": 0.16363636363636364,
            "end": 0.17045454545454544,
            "velocity": 100,
            "duration": 0.006818181818181807
          },
          {
            "pitch": 51,
            "start": 0.07045454545454545,
            "end": 0.17045454545454544,
            "velocity": 109,
            "duration": 0.09999999999999999
          },
          {
            "pitch": 51,
            "start": 0.16363636363636364,
            "end": 0.17045454545454544,
            "velocity": 112,
            "duration": 0.006818181818181807
          },
          {
            "pitch": 42,
            "start": 0.09318181818181817,
            "end": 0.19318181818181818,
            "velocity": 104,
            "duration": 0.1
          },
          {
            "pitch": 42,
            "start": 0.18636363636363634,
            "end": 0.19318181818181818,
            "velocity": 70,
            "duration": 0.006818181818181834
          },
          {
            "pitch": 45,
            "start": 0.09318181818181817,
            "end": 0.19318181818181818,
            "velocity": 64,
            "duration": 0.1
          },
          {
            "pitch": 35,
            "start": 0.2545454545454545,
            "end": 0.2636363636363636,
            "velocity": 120,
            "duration": 0.009090909090909094
          },
          {
            "pitch": 51,
            "start": 0.2545454545454545,
            "end": 0.2636363636363636,
            "velocity": 113,
            "duration": 0.009090909090909094
          },
          {
            "pitch": 41,
            "start": 0.18636363636363634,
            "end": 0.2863636363636364,
            "velocity": 75,
            "duration": 0.10000000000000003
          },
          {
            "pitch": 41,
            "start": 0.2545454545454545,
            "end": 0.2863636363636364,
            "velocity": 79,
            "duration": 0.03181818181818186
          },
          {
            "pitch": 42,
            "start": 0.2545454545454545,
            "end": 0.2863636363636364,
            "velocity": 106,
            "duration": 0.03181818181818186
          },
          {
            "pitch": 51,
            "start": 0.3477272727272727,
            "end": 0.35454545454545455,
            "velocity": 114,
            "duration": 0.006818181818181834
          },
          {
            "pitch": 51,
            "start": 0.44090909090909086,
            "end": 0.4477272727272727,
            "velocity": 88,
            "duration": 0.006818181818181834
          },
          {
            "pitch": 35,
            "start": 0.3704545454545454,
            "end": 0.47045454545454546,
            "velocity": 102,
            "duration": 0.10000000000000003
          },
          {
            "pitch": 35,
            "start": 0.44090909090909086,
            "end": 0.47045454545454546,
            "velocity": 106,
            "duration": 0.029545454545454597
          },
          {
            "pitch": 41,
            "start": 0.3704545454545454,
            "end": 0.47045454545454546,
            "velocity": 81,
            "duration": 0.10000000000000003
          },
          {
            "pitch": 41,
            "start": 0.44090909090909086,
            "end": 0.47045454545454546,
            "velocity": 75,
            "duration": 0.029545454545454597
          },
          {
            "pitch": 42,
            "start": 0.3704545454545454,
            "end": 0.47045454545454546,
            "velocity": 78,
            "duration": 0.10000000000000003
          },
          {
            "pitch": 45,
            "start": 0.3704545454545454,
            "end": 0.47045454545454546,
            "velocity": 63,
            "duration": 0.10000000000000003
          },
          {
            "pitch": 35,
            "start": 0.5113636363636364,
            "end": 0.5409090909090909,
            "velocity": 123,
            "duration": 0.02954545454545454
          },
          {
            "pitch": 41,
            "start": 0.5340909090909091,
            "end": 0.5409090909090909,
            "velocity": 67,
            "duration": 0.006818181818181834
          },
          {
            "pitch": 51,
            "start": 0.5340909090909091,
            "end": 0.5409090909090909,
            "velocity": 111,
            "duration": 0.006818181818181834
          },
          {
            "pitch": 37,
            "start": 0.4636363636363636,
            "end": 0.5636363636363636,
            "velocity": 78,
            "duration": 0.09999999999999998
          },
          {
            "pitch": 51,
            "start": 0.6272727272727272,
            "end": 0.634090909090909,
            "velocity": 103,
            "duration": 0.006818181818181834
          },
          {
            "pitch": 42,
            "start": 0.5568181818181818,
            "end": 0.6568181818181817,
            "velocity": 80,
            "duration": 0.09999999999999998
          },
          {
            "pitch": 42,
            "start": 0.6272727272727272,
            "end": 0.6568181818181817,
            "velocity": 118,
            "duration": 0.02954545454545454
          },
          {
            "pitch": 35,
            "start": 0.6272727272727272,
            "end": 0.7272727272727273,
            "velocity": 112,
            "duration": 0.10000000000000009
          },
          {
            "pitch": 35,
            "start": 0.6977272727272726,
            "end": 0.7272727272727273,
            "velocity": 88,
            "duration": 0.029545454545454652
          },
          {
            "pitch": 45,
            "start": 0.6272727272727272,
            "end": 0.7272727272727273,
            "velocity": 71,
            "duration": 0.10000000000000009
          },
          {
            "pitch": 51,
            "start": 0.7204545454545455,
            "end": 0.7272727272727273,
            "velocity": 113,
            "duration": 0.006818181818181834
          },
          {
            "pitch": 41,
            "start": 0.65,
            "end": 0.75,
            "velocity": 103,
            "duration": 0.09999999999999998
          },
          {
            "pitch": 41,
            "start": 0.7204545454545455,
            "end": 0.75,
            "velocity": 75,
            "duration": 0.02954545454545454
          },
          {
            "pitch": 51,
            "start": 0.7886363636363636,
            "end": 0.8204545454545454,
            "velocity": 110,
            "duration": 0.03181818181818186
          },
          {
            "pitch": 35,
            "start": 0.8136363636363636,
            "end": 0.9136363636363636,
            "velocity": 121,
            "duration": 0.09999999999999998
          },
          {
            "pitch": 35,
            "start": 0.8818181818181817,
            "end": 0.9136363636363636,
            "velocity": 121,
            "duration": 0.03181818181818186
          },
          {
            "pitch": 42,
            "start": 0.8136363636363636,
            "end": 0.9136363636363636,
            "velocity": 113,
            "duration": 0.09999999999999998
          },
          {
            "pitch": 35,
            "start": 0.9522727272727273,
            "end": 0.9818181818181818,
            "velocity": 89,
            "duration": 0.02954545454545454
          },
          {
            "pitch": 51,
            "start": 0.9045454545454545,
            "end": 1.0045454545454544,
            "velocity": 84,
            "duration": 0.09999999999999987
          },
          {
            "pitch": 51,
            "start": 0.975,
            "end": 1.0045454545454544,
            "velocity": 101,
            "duration": 0.02954545454545443
          },
          {
            "pitch": 42,
            "start": 0.975,
            "end": 1.075,
            "velocity": 85,
            "duration": 0.09999999999999998
          },
          {
            "pitch": 42,
            "start": 1.0681818181818181,
            "end": 1.075,
            "velocity": 91,
            "duration": 0.006818181818181834
          },
          {
            "pitch": 51,
            "start": 1.0681818181818181,
            "end": 1.075,
            "velocity": 72,
            "duration": 0.006818181818181834
          },
          {
            "pitch": 41,
            "start": 0.9977272727272727,
            "end": 1.0977272727272727,
            "velocity": 81,
            "duration": 0.09999999999999998
          },
          {
            "pitch": 41,
            "start": 1.0681818181818181,
            "end": 1.0977272727272727,
            "velocity": 74,
            "duration": 0.02954545454545454
          },
          {
            "pitch": 35,
            "start": 1.0681818181818181,
            "end": 1.1681818181818182,
            "velocity": 89,
            "duration": 0.10000000000000009
          },
          {
            "pitch": 51,
            "start": 1.1613636363636364,
            "end": 1.1681818181818182,
            "velocity": 94,
            "duration": 0.006818181818181834
          },
          {
            "pitch": 51,
            "start": 1.2545454545454544,
            "end": 1.2613636363636362,
            "velocity": 105,
            "duration": 0.006818181818181834
          },
          {
            "pitch": 42,
            "start": 1.184090909090909,
            "end": 1.284090909090909,
            "velocity": 73,
            "duration": 0.09999999999999987
          },
          {
            "pitch": 42,
            "start": 1.2545454545454544,
            "end": 1.284090909090909,
            "velocity": 70,
            "duration": 0.02954545454545454
          },
          {
            "pitch": 35,
            "start": 1.2545454545454544,
            "end": 1.3545454545454545,
            "velocity": 122,
            "duration": 0.10000000000000009
          },
          {
            "pitch": 51,
            "start": 1.3477272727272727,
            "end": 1.3545454545454545,
            "velocity": 89,
            "duration": 0.006818181818181834
          },
          {
            "pitch": 51,
            "start": 1.4386363636363635,
            "end": 1.4477272727272728,
            "velocity": 85,
            "duration": 0.00909090909090926
          },
          {
            "pitch": 37,
            "start": 1.393181818181818,
            "end": 1.4931818181818182,
            "velocity": 113,
            "duration": 0.10000000000000009
          },
          {
            "pitch": 37,
            "start": 1.4863636363636363,
            "end": 1.4931818181818182,
            "velocity": 70,
            "duration": 0.006818181818181834
          },
          {
            "pitch": 41,
            "start": 1.4159090909090908,
            "end": 1.5159090909090909,
            "velocity": 77,
            "duration": 0.10000000000000009
          },
          {
            "pitch": 35,
            "start": 1.4386363636363635,
            "end": 1.5386363636363636,
            "velocity": 122,
            "duration": 0.10000000000000009
          },
          {
            "pitch": 35,
            "start": 1.509090909090909,
            "end": 1.5386363636363636,
            "velocity": 115,
            "duration": 0.02954545454545454
          },
          {
            "pitch": 42,
            "start": 1.4386363636363635,
            "end": 1.5386363636363636,
            "velocity": 89,
            "duration": 0.10000000000000009
          },
          {
            "pitch": 51,
            "start": 1.5318181818181817,
            "end": 1.5386363636363636,
            "velocity": 91,
            "duration": 0.006818181818181834
          },
          {
            "pitch": 51,
            "start": 1.625,
            "end": 1.6318181818181818,
            "velocity": 108,
            "duration": 0.006818181818181834
          },
          {
            "pitch": 42,
            "start": 1.5568181818181817,
            "end": 1.6568181818181817,
            "velocity": 92,
            "duration": 0.10000000000000009
          },
          {
            "pitch": 42,
            "start": 1.625,
            "end": 1.6568181818181817,
            "velocity": 96,
            "duration": 0.031818181818181746
          },
          {
            "pitch": 45,
            "start": 1.5795454545454544,
            "end": 1.6795454545454545,
            "velocity": 97,
            "duration": 0.10000000000000009
          },
          {
            "pitch": 35,
            "start": 1.625,
            "end": 1.7249999999999999,
            "velocity": 121,
            "duration": 0.09999999999999987
          },
          {
            "pitch": 35,
            "start": 1.6954545454545453,
            "end": 1.7249999999999999,
            "velocity": 72,
            "duration": 0.02954545454545454
          },
          {
            "pitch": 41,
            "start": 1.625,
            "end": 1.7249999999999999,
            "velocity": 71,
            "duration": 0.09999999999999987
          },
          {
            "pitch": 41,
            "start": 1.718181818181818,
            "end": 1.7249999999999999,
            "velocity": 95,
            "duration": 0.006818181818181834
          },
          {
            "pitch": 42,
            "start": 1.6954545454545453,
            "end": 1.7249999999999999,
            "velocity": 81,
            "duration": 0.02954545454545454
          },
          {
            "pitch": 51,
            "start": 1.6954545454545453,
            "end": 1.7249999999999999,
            "velocity": 70,
            "duration": 0.02954545454545454
          },
          {
            "pitch": 51,
            "start": 1.7886363636363636,
            "end": 1.7954545454545454,
            "velocity": 105,
            "duration": 0.006818181818181834
          },
          {
            "pitch": 51,
            "start": 1.8818181818181818,
            "end": 1.8886363636363634,
            "velocity": 104,
            "duration": 0.006818181818181612
          },
          {
            "pitch": 35,
            "start": 1.8113636363636363,
            "end": 1.9113636363636364,
            "velocity": 119,
            "duration": 0.10000000000000009
          },
          {
            "pitch": 35,
            "start": 1.8818181818181818,
            "end": 1.9113636363636364,
            "velocity": 121,
            "duration": 0.02954545454545454
          },
          {
            "pitch": 42,
            "start": 1.8113636363636363,
            "end": 1.9113636363636364,
            "velocity": 102,
            "duration": 0.10000000000000009
          },
          {
            "pitch": 42,
            "start": 1.9045454545454545,
            "end": 1.9113636363636364,
            "velocity": 95,
            "duration": 0.006818181818181834
          },
          {
            "pitch": 37,
            "start": 1.834090909090909,
            "end": 1.934090909090909,
            "velocity": 89,
            "duration": 0.10000000000000009
          },
          {
            "pitch": 35,
            "start": 1.9727272727272727,
            "end": 1.9818181818181817,
            "velocity": 96,
            "duration": 0.009090909090909038
          },
          {
            "pitch": 51,
            "start": 1.9727272727272727,
            "end": 1.9818181818181817,
            "velocity": 83,
            "duration": 0.009090909090909038
          },
          {
            "pitch": 42,
            "start": 1.9977272727272726,
            "end": 2.0045454545454544,
            "velocity": 78,
            "duration": 0.006818181818181834
          },
          {
            "pitch": 35,
            "start": 2.065909090909091,
            "end": 2.0727272727272728,
            "velocity": 85,
            "duration": 0.006818181818181834
          },
          {
            "pitch": 51,
            "start": 2.065909090909091,
            "end": 2.0727272727272728,
            "velocity": 75,
            "duration": 0.006818181818181834
          },
          {
            "pitch": 37,
            "start": 2.0204545454545455,
            "end": 2.120454545454545,
            "velocity": 80,
            "duration": 0.09999999999999964
          },
          {
            "pitch": 35,
            "start": 2.1363636363636362,
            "end": 2.165909090909091,
            "velocity": 89,
            "duration": 0.029545454545454763
          },
          {
            "pitch": 51,
            "start": 2.159090909090909,
            "end": 2.165909090909091,
            "velocity": 88,
            "duration": 0.006818181818181834
          },
          {
            "pitch": 41,
            "start": 2.159090909090909,
            "end": 2.259090909090909,
            "velocity": 90,
            "duration": 0.09999999999999964
          },
          {
            "pitch": 41,
            "start": 2.252272727272727,
            "end": 2.259090909090909,
            "velocity": 87,
            "duration": 0.006818181818181834
          },
          {
            "pitch": 51,
            "start": 2.252272727272727,
            "end": 2.259090909090909,
            "velocity": 93,
            "duration": 0.006818181818181834
          },
          {
            "pitch": 42,
            "start": 2.1818181818181817,
            "end": 2.2818181818181817,
            "velocity": 80,
            "duration": 0.10000000000000009
          },
          {
            "pitch": 42,
            "start": 2.252272727272727,
            "end": 2.2818181818181817,
            "velocity": 79,
            "duration": 0.029545454545454763
          },
          {
            "pitch": 35,
            "start": 2.252272727272727,
            "end": 2.352272727272727,
            "velocity": 111,
            "duration": 0.10000000000000009
          },
          {
            "pitch": 51,
            "start": 2.3454545454545452,
            "end": 2.352272727272727,
            "velocity": 94,
            "duration": 0.006818181818181834
          },
          {
            "pitch": 37,
            "start": 2.275,
            "end": 2.375,
            "velocity": 80,
            "duration": 0.10000000000000009
          },
          {
            "pitch": 37,
            "start": 2.3454545454545452,
            "end": 2.375,
            "velocity": 73,
            "duration": 0.029545454545454763
          },
          {
            "pitch": 37,
            "start": 2.3909090909090907,
            "end": 2.4454545454545453,
            "velocity": 99,
            "duration": 0.054545454545454675
          },
          {
            "pitch": 51,
            "start": 2.4386363636363635,
            "end": 2.4454545454545453,
            "velocity": 96,
            "duration": 0.006818181818181834
          },
          {
            "pitch": 35,
            "start": 2.368181818181818,
            "end": 2.4681818181818183,
            "velocity": 82,
            "duration": 0.10000000000000009
          },
          {
            "pitch": 35,
            "start": 2.4386363636363635,
            "end": 2.4681818181818183,
            "velocity": 118,
            "duration": 0.029545454545454763
          },
          {
            "pitch": 42,
            "start": 2.368181818181818,
            "end": 2.4681818181818183,
            "velocity": 116,
            "duration": 0.10000000000000009
          },
          {
            "pitch": 42,
            "start": 2.4386363636363635,
            "end": 2.4681818181818183,
            "velocity": 83,
            "duration": 0.029545454545454763
          },
          {
            "pitch": 37,
            "start": 2.484090909090909,
            "end": 2.4909090909090907,
            "velocity": 74,
            "duration": 0.006818181818181834
          },
          {
            "pitch": 35,
            "start": 2.506818181818182,
            "end": 2.5386363636363636,
            "velocity": 109,
            "duration": 0.031818181818181746
          },
          {
            "pitch": 51,
            "start": 2.506818181818182,
            "end": 2.5386363636363636,
            "velocity": 88,
            "duration": 0.031818181818181746
          },
          {
            "pitch": 35,
            "start": 2.6227272727272726,
            "end": 2.7227272727272727,
            "velocity": 100,
            "duration": 0.10000000000000009
          },
          {
            "pitch": 35,
            "start": 2.693181818181818,
            "end": 2.7227272727272727,
            "velocity": 73,
            "duration": 0.029545454545454763
          },
          {
            "pitch": 42,
            "start": 2.6227272727272726,
            "end": 2.7227272727272727,
            "velocity": 107,
            "duration": 0.10000000000000009
          },
          {
            "pitch": 42,
            "start": 2.693181818181818,
            "end": 2.7227272727272727,
            "velocity": 100,
            "duration": 0.029545454545454763
          },
          {
            "pitch": 51,
            "start": 2.6227272727272726,
            "end": 2.7227272727272727,
            "velocity": 96,
            "duration": 0.10000000000000009
          },
          {
            "pitch": 51,
            "start": 2.693181818181818,
            "end": 2.7227272727272727,
            "velocity": 81,
            "duration": 0.029545454545454763
          },
          {
            "pitch": 41,
            "start": 2.6477272727272725,
            "end": 2.7477272727272726,
            "velocity": 89,
            "duration": 0.10000000000000009
          },
          {
            "pitch": 35,
            "start": 2.786363636363636,
            "end": 2.793181818181818,
            "velocity": 121,
            "duration": 0.006818181818181834
          },
          {
            "pitch": 51,
            "start": 2.786363636363636,
            "end": 2.793181818181818,
            "velocity": 111,
            "duration": 0.006818181818181834
          },
          {
            "pitch": 35,
            "start": 2.8795454545454544,
            "end": 2.8863636363636362,
            "velocity": 115,
            "duration": 0.006818181818181834
          },
          {
            "pitch": 51,
            "start": 2.8795454545454544,
            "end": 2.8863636363636362,
            "velocity": 70,
            "duration": 0.006818181818181834
          },
          {
            "pitch": 42,
            "start": 2.809090909090909,
            "end": 2.909090909090909,
            "velocity": 104,
            "duration": 0.10000000000000009
          },
          {
            "pitch": 42,
            "start": 2.8795454545454544,
            "end": 2.909090909090909,
            "velocity": 89,
            "duration": 0.029545454545454763
          },
          {
            "pitch": 35,
            "start": 2.9499999999999997,
            "end": 2.9795454545454545,
            "velocity": 74,
            "duration": 0.029545454545454763
          },
          {
            "pitch": 51,
            "start": 2.9727272727272727,
            "end": 2.9795454545454545,
            "velocity": 70,
            "duration": 0.006818181818181834
          },
          {
            "pitch": 37,
            "start": 2.925,
            "end": 3.025,
            "velocity": 101,
            "duration": 0.10000000000000009
          },
          {
            "pitch": 37,
            "start": 2.9727272727272727,
            "end": 3.025,
            "velocity": 94,
            "duration": 0.05227272727272725
          },
          {
            "pitch": 51,
            "start": 3.065909090909091,
            "end": 3.0727272727272728,
            "velocity": 70,
            "duration": 0.006818181818181834
          },
          {
            "pitch": 42,
            "start": 2.995454545454545,
            "end": 3.0954545454545452,
            "velocity": 69,
            "duration": 0.10000000000000009
          },
          {
            "pitch": 42,
            "start": 3.065909090909091,
            "end": 3.0954545454545452,
            "velocity": 84,
            "duration": 0.02954545454545432
          },
          {
            "pitch": 41,
            "start": 3.0409090909090906,
            "end": 3.1409090909090907,
            "velocity": 87,
            "duration": 0.10000000000000009
          },
          {
            "pitch": 41,
            "start": 3.1113636363636363,
            "end": 3.1409090909090907,
            "velocity": 91,
            "duration": 0.02954545454545432
          },
          {
            "pitch": 35,
            "start": 3.065909090909091,
            "end": 3.1659090909090906,
            "velocity": 95,
            "duration": 0.09999999999999964
          },
          {
            "pitch": 42,
            "start": 3.1818181818181817,
            "end": 3.2818181818181817,
            "velocity": 80,
            "duration": 0.10000000000000009
          },
          {
            "pitch": 42,
            "start": 3.25,
            "end": 3.2818181818181817,
            "velocity": 105,
            "duration": 0.031818181818181746
          },
          {
            "pitch": 51,
            "start": 3.1818181818181817,
            "end": 3.2818181818181817,
            "velocity": 63,
            "duration": 0.10000000000000009
          },
          {
            "pitch": 51,
            "start": 3.25,
            "end": 3.2818181818181817,
            "velocity": 91,
            "duration": 0.031818181818181746
          },
          {
            "pitch": 37,
            "start": 3.227272727272727,
            "end": 3.327272727272727,
            "velocity": 64,
            "duration": 0.10000000000000009
          },
          {
            "pitch": 37,
            "start": 3.275,
            "end": 3.327272727272727,
            "velocity": 63,
            "duration": 0.05227272727272725
          },
          {
            "pitch": 35,
            "start": 3.25,
            "end": 3.3499999999999996,
            "velocity": 119,
            "duration": 0.09999999999999964
          },
          {
            "pitch": 35,
            "start": 3.3204545454545453,
            "end": 3.3499999999999996,
            "velocity": 81,
            "duration": 0.02954545454545432
          },
          {
            "pitch": 51,
            "start": 3.3204545454545453,
            "end": 3.3499999999999996,
            "velocity": 72,
            "duration": 0.02954545454545432
          },
          {
            "pitch": 35,
            "start": 3.436363636363636,
            "end": 3.536363636363636,
            "velocity": 121,
            "duration": 0.10000000000000009
          },
          {
            "pitch": 35,
            "start": 3.506818181818182,
            "end": 3.536363636363636,
            "velocity": 107,
            "duration": 0.02954545454545432
          },
          {
            "pitch": 42,
            "start": 3.436363636363636,
            "end": 3.536363636363636,
            "velocity": 105,
            "duration": 0.10000000000000009
          },
          {
            "pitch": 51,
            "start": 3.436363636363636,
            "end": 3.536363636363636,
            "velocity": 92,
            "duration": 0.10000000000000009
          },
          {
            "pitch": 51,
            "start": 3.506818181818182,
            "end": 3.536363636363636,
            "velocity": 93,
            "duration": 0.02954545454545432
          },
          {
            "pitch": 37,
            "start": 3.459090909090909,
            "end": 3.559090909090909,
            "velocity": 71,
            "duration": 0.10000000000000009
          },
          {
            "pitch": 37,
            "start": 3.5522727272727272,
            "end": 3.559090909090909,
            "velocity": 92,
            "duration": 0.006818181818181834
          },
          {
            "pitch": 51,
            "start": 3.5999999999999996,
            "end": 3.6068181818181815,
            "velocity": 98,
            "duration": 0.006818181818181834
          },
          {
            "pitch": 51,
            "start": 3.690909090909091,
            "end": 3.6999999999999997,
            "velocity": 85,
            "duration": 0.009090909090908816
          },
          {
            "pitch": 35,
            "start": 3.6227272727272726,
            "end": 3.7227272727272727,
            "velocity": 96,
            "duration": 0.10000000000000009
          },
          {
            "pitch": 35,
            "start": 3.690909090909091,
            "end": 3.7227272727272727,
            "velocity": 78,
            "duration": 0.031818181818181746
          },
          {
            "pitch": 42,
            "start": 3.6227272727272726,
            "end": 3.7227272727272727,
            "velocity": 100,
            "duration": 0.10000000000000009
          },
          {
            "pitch": 42,
            "start": 3.690909090909091,
            "end": 3.7227272727272727,
            "velocity": 97,
            "duration": 0.031818181818181746
          },
          {
            "pitch": 35,
            "start": 3.7613636363636362,
            "end": 3.7909090909090906,
            "velocity": 82,
            "duration": 0.02954545454545432
          },
          {
            "pitch": 51,
            "start": 3.7840909090909087,
            "end": 3.7909090909090906,
            "velocity": 91,
            "duration": 0.006818181818181834
          },
          {
            "pitch": 41,
            "start": 3.715909090909091,
            "end": 3.815909090909091,
            "velocity": 68,
            "duration": 0.10000000000000009
          },
          {
            "pitch": 51,
            "start": 3.877272727272727,
            "end": 3.884090909090909,
            "velocity": 101,
            "duration": 0.006818181818181834
          },
          {
            "pitch": 42,
            "start": 3.809090909090909,
            "end": 3.9090909090909087,
            "velocity": 91,
            "duration": 0.09999999999999964
          },
          {
            "pitch": 42,
            "start": 3.877272727272727,
            "end": 3.9090909090909087,
            "velocity": 85,
            "duration": 0.031818181818181746
          },
          {
            "pitch": 35,
            "start": 3.877272727272727,
            "end": 3.977272727272727,
            "velocity": 122,
            "duration": 0.10000000000000009
          },
          {
            "pitch": 35,
            "start": 3.9477272727272728,
            "end": 3.977272727272727,
            "velocity": 88,
            "duration": 0.02954545454545432
          },
          {
            "pitch": 37,
            "start": 3.877272727272727,
            "end": 3.977272727272727,
            "velocity": 87,
            "duration": 0.10000000000000009
          },
          {
            "pitch": 37,
            "start": 3.925,
            "end": 3.977272727272727,
            "velocity": 110,
            "duration": 0.05227272727272725
          },
          {
            "pitch": 37,
            "start": 3.9704545454545452,
            "end": 3.977272727272727,
            "velocity": 85,
            "duration": 0.006818181818181834
          },
          {
            "pitch": 37,
            "start": 4.018181818181818,
            "end": 4.0249999999999995,
            "velocity": 68,
            "duration": 0.006818181818181834
          },
          {
            "pitch": 42,
            "start": 3.993181818181818,
            "end": 4.093181818181818,
            "velocity": 65,
            "duration": 0.09999999999999964
          },
          {
            "pitch": 42,
            "start": 4.0636363636363635,
            "end": 4.093181818181818,
            "velocity": 105,
            "duration": 0.02954545454545432
          },
          {
            "pitch": 37,
            "start": 4.1090909090909085,
            "end": 4.118181818181818,
            "velocity": 93,
            "duration": 0.009090909090909705
          },
          {
            "pitch": 35,
            "start": 4.0636363636363635,
            "end": 4.163636363636363,
            "velocity": 117,
            "duration": 0.09999999999999964
          },
          {
            "pitch": 35,
            "start": 4.134090909090909,
            "end": 4.163636363636363,
            "velocity": 92,
            "duration": 0.02954545454545432
          },
          {
            "pitch": 51,
            "start": 4.0636363636363635,
            "end": 4.163636363636363,
            "velocity": 92,
            "duration": 0.09999999999999964
          },
          {
            "pitch": 51,
            "start": 4.156818181818181,
            "end": 4.163636363636363,
            "velocity": 94,
            "duration": 0.006818181818181834
          },
          {
            "pitch": 51,
            "start": 4.25,
            "end": 4.256818181818182,
            "velocity": 108,
            "duration": 0.006818181818181834
          },
          {
            "pitch": 35,
            "start": 4.25,
            "end": 4.35,
            "velocity": 124,
            "duration": 0.09999999999999964
          },
          {
            "pitch": 35,
            "start": 4.318181818181818,
            "end": 4.35,
            "velocity": 89,
            "duration": 0.0318181818181813
          },
          {
            "pitch": 42,
            "start": 4.25,
            "end": 4.35,
            "velocity": 98,
            "duration": 0.09999999999999964
          },
          {
            "pitch": 42,
            "start": 4.318181818181818,
            "end": 4.35,
            "velocity": 67,
            "duration": 0.0318181818181813
          },
          {
            "pitch": 51,
            "start": 4.343181818181818,
            "end": 4.35,
            "velocity": 90,
            "duration": 0.006818181818181834
          },
          {
            "pitch": 51,
            "start": 4.411363636363636,
            "end": 4.443181818181818,
            "velocity": 78,
            "duration": 0.03181818181818219
          },
          {
            "pitch": 51,
            "start": 4.504545454545454,
            "end": 4.511363636363636,
            "velocity": 102,
            "duration": 0.006818181818181834
          },
          {
            "pitch": 35,
            "start": 4.434090909090909,
            "end": 4.534090909090909,
            "velocity": 106,
            "duration": 0.10000000000000053
          },
          {
            "pitch": 35,
            "start": 4.504545454545454,
            "end": 4.534090909090909,
            "velocity": 117,
            "duration": 0.029545454545455208
          },
          {
            "pitch": 35,
            "start": 4.575,
            "end": 4.6045454545454545,
            "velocity": 65,
            "duration": 0.02954545454545432
          },
          {
            "pitch": 51,
            "start": 4.597727272727273,
            "end": 4.6045454545454545,
            "velocity": 76,
            "duration": 0.006818181818181834
          },
          {
            "pitch": 35,
            "start": 4.620454545454545,
            "end": 4.675,
            "velocity": 78,
            "duration": 0.054545454545454675
          },
          {
            "pitch": 51,
            "start": 4.6909090909090905,
            "end": 4.697727272727272,
            "velocity": 69,
            "duration": 0.006818181818181834
          },
          {
            "pitch": 35,
            "start": 4.6909090909090905,
            "end": 4.720454545454545,
            "velocity": 111,
            "duration": 0.02954545454545432
          },
          {
            "pitch": 42,
            "start": 4.620454545454545,
            "end": 4.720454545454545,
            "velocity": 100,
            "duration": 0.09999999999999964
          },
          {
            "pitch": 42,
            "start": 4.6909090909090905,
            "end": 4.720454545454545,
            "velocity": 89,
            "duration": 0.02954545454545432
          },
          {
            "pitch": 37,
            "start": 4.643181818181818,
            "end": 4.743181818181818,
            "velocity": 95,
            "duration": 0.10000000000000053
          },
          {
            "pitch": 37,
            "start": 4.736363636363636,
            "end": 4.743181818181818,
            "velocity": 103,
            "duration": 0.006818181818181834
          },
          {
            "pitch": 35,
            "start": 4.759090909090909,
            "end": 4.790909090909091,
            "velocity": 81,
            "duration": 0.03181818181818219
          },
          {
            "pitch": 37,
            "start": 4.852272727272727,
            "end": 4.952272727272727,
            "velocity": 101,
            "duration": 0.10000000000000053
          },
          {
            "pitch": 37,
            "start": 4.922727272727273,
            "end": 4.952272727272727,
            "velocity": 90,
            "duration": 0.02954545454545432
          },
          {
            "pitch": 35,
            "start": 4.877272727272727,
            "end": 4.977272727272727,
            "velocity": 117,
            "duration": 0.09999999999999964
          },
          {
            "pitch": 35,
            "start": 4.945454545454545,
            "end": 4.977272727272727,
            "velocity": 90,
            "duration": 0.0318181818181813
          },
          {
            "pitch": 37,
            "start": 5.015909090909091,
            "end": 5.0227272727272725,
            "velocity": 89,
            "duration": 0.006818181818181834
          },
          {
            "pitch": 42,
            "start": 4.993181818181818,
            "end": 5.093181818181818,
            "velocity": 68,
            "duration": 0.09999999999999964
          },
          {
            "pitch": 42,
            "start": 5.0613636363636365,
            "end": 5.093181818181818,
            "velocity": 111,
            "duration": 0.0318181818181813
          },
          {
            "pitch": 37,
            "start": 5.1090909090909085,
            "end": 5.11590909090909,
            "velocity": 115,
            "duration": 0.006818181818181834
          },
          {
            "pitch": 35,
            "start": 5.0613636363636365,
            "end": 5.161363636363636,
            "velocity": 118,
            "duration": 0.09999999999999964
          },
          {
            "pitch": 35,
            "start": 5.131818181818182,
            "end": 5.161363636363636,
            "velocity": 91,
            "duration": 0.02954545454545432
          },
          {
            "pitch": 51,
            "start": 5.0613636363636365,
            "end": 5.161363636363636,
            "velocity": 81,
            "duration": 0.09999999999999964
          },
          {
            "pitch": 51,
            "start": 5.131818181818182,
            "end": 5.161363636363636,
            "velocity": 79,
            "duration": 0.02954545454545432
          },
          {
            "pitch": 37,
            "start": 5.177272727272727,
            "end": 5.209090909090909,
            "velocity": 67,
            "duration": 0.03181818181818219
          },
          {
            "pitch": 51,
            "start": 5.225,
            "end": 5.2318181818181815,
            "velocity": 99,
            "duration": 0.006818181818181834
          },
          {
            "pitch": 45,
            "start": 5.154545454545454,
            "end": 5.254545454545454,
            "velocity": 70,
            "duration": 0.09999999999999964
          },
          {
            "pitch": 45,
            "start": 5.247727272727272,
            "end": 5.254545454545454,
            "velocity": 75,
            "duration": 0.006818181818181834
          },
          {
            "pitch": 35,
            "start": 5.247727272727272,
            "end": 5.347727272727273,
            "velocity": 102,
            "duration": 0.10000000000000053
          },
          {
            "pitch": 45,
            "start": 5.293181818181818,
            "end": 5.347727272727273,
            "velocity": 85,
            "duration": 0.054545454545454675
          },
          {
            "pitch": 51,
            "start": 5.386363636363636,
            "end": 5.486363636363636,
            "velocity": 70,
            "duration": 0.10000000000000053
          },
          {
            "pitch": 41,
            "start": 5.411363636363636,
            "end": 5.511363636363636,
            "velocity": 71,
            "duration": 0.09999999999999964
          },
          {
            "pitch": 35,
            "start": 5.502272727272727,
            "end": 5.602272727272727,
            "velocity": 91,
            "duration": 0.09999999999999964
          },
          {
            "pitch": 35,
            "start": 5.595454545454545,
            "end": 5.602272727272727,
            "velocity": 111,
            "duration": 0.006818181818181834
          },
          {
            "pitch": 42,
            "start": 5.502272727272727,
            "end": 5.602272727272727,
            "velocity": 83,
            "duration": 0.09999999999999964
          },
          {
            "pitch": 51,
            "start": 5.502272727272727,
            "end": 5.602272727272727,
            "velocity": 86,
            "duration": 0.09999999999999964
          },
          {
            "pitch": 51,
            "start": 5.595454545454545,
            "end": 5.602272727272727,
            "velocity": 88,
            "duration": 0.006818181818181834
          },
          {
            "pitch": 35,
            "start": 5.6886363636363635,
            "end": 5.695454545454545,
            "velocity": 123,
            "duration": 0.006818181818181834
          },
          {
            "pitch": 51,
            "start": 5.6886363636363635,
            "end": 5.695454545454545,
            "velocity": 101,
            "duration": 0.006818181818181834
          },
          {
            "pitch": 35,
            "start": 5.759090909090909,
            "end": 5.788636363636363,
            "velocity": 89,
            "duration": 0.02954545454545432
          },
          {
            "pitch": 42,
            "start": 5.6886363636363635,
            "end": 5.788636363636363,
            "velocity": 101,
            "duration": 0.09999999999999964
          },
          {
            "pitch": 51,
            "start": 5.759090909090909,
            "end": 5.788636363636363,
            "velocity": 94,
            "duration": 0.02954545454545432
          },
          {
            "pitch": 37,
            "start": 5.736363636363636,
            "end": 5.836363636363636,
            "velocity": 90,
            "duration": 0.09999999999999964
          },
          {
            "pitch": 37,
            "start": 5.852272727272727,
            "end": 5.952272727272727,
            "velocity": 109,
            "duration": 0.10000000000000053
          },
          {
            "pitch": 35,
            "start": 5.875,
            "end": 5.975,
            "velocity": 124,
            "duration": 0.09999999999999964
          },
          {
            "pitch": 35,
            "start": 5.9431818181818175,
            "end": 5.975,
            "velocity": 97,
            "duration": 0.03181818181818219
          },
          {
            "pitch": 42,
            "start": 5.875,
            "end": 5.975,
            "velocity": 108,
            "duration": 0.09999999999999964
          },
          {
            "pitch": 42,
            "start": 5.968181818181818,
            "end": 5.975,
            "velocity": 90,
            "duration": 0.006818181818181834
          },
          {
            "pitch": 51,
            "start": 5.875,
            "end": 5.975,
            "velocity": 107,
            "duration": 0.09999999999999964
          },
          {
            "pitch": 51,
            "start": 5.9431818181818175,
            "end": 5.975,
            "velocity": 75,
            "duration": 0.03181818181818219
          },
          {
            "pitch": 51,
            "start": 5.99090909090909,
            "end": 6.043181818181818,
            "velocity": 65,
            "duration": 0.05227272727272769
          },
          {
            "pitch": 51,
            "start": 6.036363636363636,
            "end": 6.043181818181818,
            "velocity": 77,
            "duration": 0.006818181818181834
          },
          {
            "pitch": 37,
            "start": 5.968181818181818,
            "end": 6.0681818181818175,
            "velocity": 71,
            "duration": 0.09999999999999964
          },
          {
            "pitch": 42,
            "start": 6.0613636363636365,
            "end": 6.0681818181818175,
            "velocity": 107,
            "duration": 0.006818181818180946
          },
          {
            "pitch": 51,
            "start": 6.129545454545454,
            "end": 6.136363636363636,
            "velocity": 100,
            "duration": 0.006818181818181834
          },
          {
            "pitch": 35,
            "start": 6.0613636363636365,
            "end": 6.161363636363636,
            "velocity": 103,
            "duration": 0.09999999999999964
          },
          {
            "pitch": 35,
            "start": 6.129545454545454,
            "end": 6.161363636363636,
            "velocity": 113,
            "duration": 0.03181818181818219
          },
          {
            "pitch": 37,
            "start": 6.084090909090909,
            "end": 6.184090909090909,
            "velocity": 70,
            "duration": 0.09999999999999964
          },
          {
            "pitch": 51,
            "start": 6.222727272727273,
            "end": 6.2295454545454545,
            "velocity": 71,
            "duration": 0.006818181818181834
          },
          {
            "pitch": 51,
            "start": 6.2704545454545455,
            "end": 6.322727272727272,
            "velocity": 77,
            "duration": 0.052272727272726804
          },
          {
            "pitch": 51,
            "start": 6.3159090909090905,
            "end": 6.322727272727272,
            "velocity": 84,
            "duration": 0.006818181818181834
          },
          {
            "pitch": 35,
            "start": 6.245454545454545,
            "end": 6.345454545454545,
            "velocity": 92,
            "duration": 0.09999999999999964
          },
          {
            "pitch": 35,
            "start": 6.3159090909090905,
            "end": 6.345454545454545,
            "velocity": 115,
            "duration": 0.02954545454545432
          },
          {
            "pitch": 42,
            "start": 6.245454545454545,
            "end": 6.345454545454545,
            "velocity": 98,
            "duration": 0.09999999999999964
          },
          {
            "pitch": 42,
            "start": 6.3159090909090905,
            "end": 6.345454545454545,
            "velocity": 101,
            "duration": 0.02954545454545432
          },
          {
            "pitch": 37,
            "start": 6.293181818181818,
            "end": 6.393181818181818,
            "velocity": 70,
            "duration": 0.09999999999999964
          },
          {
            "pitch": 37,
            "start": 6.361363636363636,
            "end": 6.393181818181818,
            "velocity": 94,
            "duration": 0.0318181818181813
          },
          {
            "pitch": 35,
            "start": 6.386363636363636,
            "end": 6.415909090909091,
            "velocity": 70,
            "duration": 0.029545454545455208
          },
          {
            "pitch": 42,
            "start": 6.409090909090909,
            "end": 6.415909090909091,
            "velocity": 86,
            "duration": 0.006818181818181834
          },
          {
            "pitch": 51,
            "start": 6.409090909090909,
            "end": 6.415909090909091,
            "velocity": 95,
            "duration": 0.006818181818181834
          },
          {
            "pitch": 37,
            "start": 6.454545454545454,
            "end": 6.461363636363636,
            "velocity": 81,
            "duration": 0.006818181818181834
          },
          {
            "pitch": 35,
            "start": 6.431818181818182,
            "end": 6.486363636363636,
            "velocity": 76,
            "duration": 0.054545454545454675
          },
          {
            "pitch": 42,
            "start": 6.502272727272727,
            "end": 6.509090909090909,
            "velocity": 98,
            "duration": 0.006818181818181834
          },
          {
            "pitch": 51,
            "start": 6.502272727272727,
            "end": 6.509090909090909,
            "velocity": 107,
            "duration": 0.006818181818181834
          },
          {
            "pitch": 35,
            "start": 6.502272727272727,
            "end": 6.531818181818181,
            "velocity": 124,
            "duration": 0.02954545454545432
          },
          {
            "pitch": 37,
            "start": 6.5249999999999995,
            "end": 6.554545454545454,
            "velocity": 92,
            "duration": 0.02954545454545432
          },
          {
            "pitch": 35,
            "start": 6.570454545454545,
            "end": 6.602272727272727,
            "velocity": 94,
            "duration": 0.0318181818181813
          },
          {
            "pitch": 51,
            "start": 6.595454545454545,
            "end": 6.602272727272727,
            "velocity": 83,
            "duration": 0.006818181818181834
          },
          {
            "pitch": 51,
            "start": 6.686363636363636,
            "end": 6.695454545454545,
            "velocity": 98,
            "duration": 0.009090909090909705
          },
          {
            "pitch": 35,
            "start": 6.686363636363636,
            "end": 6.786363636363636,
            "velocity": 120,
            "duration": 0.10000000000000053
          },
          {
            "pitch": 35,
            "start": 6.756818181818182,
            "end": 6.786363636363636,
            "velocity": 101,
            "duration": 0.02954545454545432
          },
          {
            "pitch": 42,
            "start": 6.686363636363636,
            "end": 6.786363636363636,
            "velocity": 114,
            "duration": 0.10000000000000053
          },
          {
            "pitch": 42,
            "start": 6.756818181818182,
            "end": 6.786363636363636,
            "velocity": 64,
            "duration": 0.02954545454545432
          },
          {
            "pitch": 51,
            "start": 6.756818181818182,
            "end": 6.786363636363636,
            "velocity": 94,
            "duration": 0.02954545454545432
          },
          {
            "pitch": 37,
            "start": 6.85,
            "end": 6.949999999999999,
            "velocity": 96,
            "duration": 0.09999999999999964
          },
          {
            "pitch": 35,
            "start": 6.872727272727272,
            "end": 6.972727272727273,
            "velocity": 114,
            "duration": 0.10000000000000053
          },
          {
            "pitch": 35,
            "start": 6.9431818181818175,
            "end": 6.972727272727273,
            "velocity": 114,
            "duration": 0.029545454545455208
          },
          {
            "pitch": 42,
            "start": 6.872727272727272,
            "end": 6.972727272727273,
            "velocity": 90,
            "duration": 0.10000000000000053
          },
          {
            "pitch": 42,
            "start": 6.9431818181818175,
            "end": 6.972727272727273,
            "velocity": 88,
            "duration": 0.029545454545455208
          },
          {
            "pitch": 51,
            "start": 6.872727272727272,
            "end": 6.972727272727273,
            "velocity": 99,
            "duration": 0.10000000000000053
          },
          {
            "pitch": 51,
            "start": 6.9431818181818175,
            "end": 6.972727272727273,
            "velocity": 98,
            "duration": 0.029545454545455208
          },
          {
            "pitch": 51,
            "start": 6.988636363636363,
            "end": 7.043181818181818,
            "velocity": 74,
            "duration": 0.054545454545454675
          },
          {
            "pitch": 51,
            "start": 7.036363636363636,
            "end": 7.043181818181818,
            "velocity": 87,
            "duration": 0.006818181818181834
          },
          {
            "pitch": 51,
            "start": 7.129545454545454,
            "end": 7.136363636363636,
            "velocity": 107,
            "duration": 0.006818181818181834
          },
          {
            "pitch": 35,
            "start": 7.059090909090909,
            "end": 7.159090909090909,
            "velocity": 72,
            "duration": 0.10000000000000053
          },
          {
            "pitch": 35,
            "start": 7.129545454545454,
            "end": 7.159090909090909,
            "velocity": 122,
            "duration": 0.029545454545455208
          },
          {
            "pitch": 42,
            "start": 7.059090909090909,
            "end": 7.159090909090909,
            "velocity": 99,
            "duration": 0.10000000000000053
          },
          {
            "pitch": 42,
            "start": 7.129545454545454,
            "end": 7.159090909090909,
            "velocity": 80,
            "duration": 0.029545454545455208
          },
          {
            "pitch": 37,
            "start": 7.081818181818181,
            "end": 7.181818181818182,
            "velocity": 95,
            "duration": 0.10000000000000053
          },
          {
            "pitch": 51,
            "start": 7.220454545454545,
            "end": 7.2295454545454545,
            "velocity": 82,
            "duration": 0.009090909090909705
          },
          {
            "pitch": 37,
            "start": 7.220454545454545,
            "end": 7.320454545454545,
            "velocity": 67,
            "duration": 0.10000000000000053
          },
          {
            "pitch": 37,
            "start": 7.268181818181818,
            "end": 7.320454545454545,
            "velocity": 83,
            "duration": 0.05227272727272769
          },
          {
            "pitch": 51,
            "start": 7.3136363636363635,
            "end": 7.320454545454545,
            "velocity": 94,
            "duration": 0.006818181818181834
          },
          {
            "pitch": 35,
            "start": 7.245454545454545,
            "end": 7.345454545454545,
            "velocity": 76,
            "duration": 0.09999999999999964
          },
          {
            "pitch": 35,
            "start": 7.3136363636363635,
            "end": 7.345454545454545,
            "velocity": 121,
            "duration": 0.0318181818181813
          },
          {
            "pitch": 42,
            "start": 7.245454545454545,
            "end": 7.345454545454545,
            "velocity": 101,
            "duration": 0.09999999999999964
          },
          {
            "pitch": 42,
            "start": 7.3136363636363635,
            "end": 7.345454545454545,
            "velocity": 112,
            "duration": 0.0318181818181813
          },
          {
            "pitch": 37,
            "start": 7.338636363636363,
            "end": 7.368181818181818,
            "velocity": 93,
            "duration": 0.029545454545455208
          },
          {
            "pitch": 35,
            "start": 7.384090909090909,
            "end": 7.413636363636363,
            "velocity": 79,
            "duration": 0.02954545454545432
          },
          {
            "pitch": 42,
            "start": 7.406818181818181,
            "end": 7.413636363636363,
            "velocity": 101,
            "duration": 0.006818181818181834
          },
          {
            "pitch": 51,
            "start": 7.406818181818181,
            "end": 7.413636363636363,
            "velocity": 97,
            "duration": 0.006818181818181834
          },
          {
            "pitch": 42,
            "start": 7.5,
            "end": 7.506818181818182,
            "velocity": 114,
            "duration": 0.006818181818181834
          },
          {
            "pitch": 51,
            "start": 7.5,
            "end": 7.506818181818182,
            "velocity": 103,
            "duration": 0.006818181818181834
          },
          {
            "pitch": 37,
            "start": 7.454545454545454,
            "end": 7.554545454545454,
            "velocity": 68,
            "duration": 0.09999999999999964
          },
          {
            "pitch": 37,
            "start": 7.545454545454545,
            "end": 7.554545454545454,
            "velocity": 66,
            "duration": 0.009090909090908816
          },
          {
            "pitch": 35,
            "start": 7.5,
            "end": 7.6,
            "velocity": 125,
            "duration": 0.09999999999999964
          },
          {
            "pitch": 35,
            "start": 7.570454545454545,
            "end": 7.6,
            "velocity": 101,
            "duration": 0.02954545454545432
          },
          {
            "pitch": 42,
            "start": 7.593181818181818,
            "end": 7.6,
            "velocity": 88,
            "duration": 0.006818181818181834
          },
          {
            "pitch": 51,
            "start": 7.570454545454545,
            "end": 7.6,
            "velocity": 86,
            "duration": 0.02954545454545432
          },
          {
            "pitch": 45,
            "start": 7.5227272727272725,
            "end": 7.622727272727272,
            "velocity": 66,
            "duration": 0.09999999999999964
          },
          {
            "pitch": 51,
            "start": 7.663636363636363,
            "end": 7.670454545454545,
            "velocity": 99,
            "duration": 0.006818181818181834
          },
          {
            "pitch": 42,
            "start": 7.686363636363636,
            "end": 7.6931818181818175,
            "velocity": 90,
            "duration": 0.006818181818181834
          },
          {
            "pitch": 51,
            "start": 7.754545454545454,
            "end": 7.763636363636364,
            "velocity": 95,
            "duration": 0.009090909090909705
          },
          {
            "pitch": 35,
            "start": 7.709090909090909,
            "end": 7.809090909090909,
            "velocity": 77,
            "duration": 0.09999999999999964
          },
          {
            "pitch": 35,
            "start": 7.754545454545454,
            "end": 7.809090909090909,
            "velocity": 65,
            "duration": 0.054545454545454675
          },
          {
            "pitch": 51,
            "start": 7.847727272727273,
            "end": 7.8545454545454545,
            "velocity": 100,
            "duration": 0.006818181818181834
          },
          {
            "pitch": 51,
            "start": 7.9409090909090905,
            "end": 7.947727272727272,
            "velocity": 73,
            "duration": 0.006818181818181834
          },
          {
            "pitch": 35,
            "start": 7.870454545454545,
            "end": 7.970454545454545,
            "velocity": 97,
            "duration": 0.09999999999999964
          },
          {
            "pitch": 42,
            "start": 7.870454545454545,
            "end": 7.970454545454545,
            "velocity": 91,
            "duration": 0.09999999999999964
          },
          {
            "pitch": 42,
            "start": 7.963636363636363,
            "end": 7.970454545454545,
            "velocity": 79,
            "duration": 0.006818181818181834
          },
          {
            "pitch": 51,
            "start": 7.988636363636363,
            "end": 8.040909090909091,
            "velocity": 79,
            "duration": 0.05227272727272769
          },
          {
            "pitch": 51,
            "start": 8.034090909090908,
            "end": 8.040909090909091,
            "velocity": 94,
            "duration": 0.0068181818181827225
          },
          {
            "pitch": 42,
            "start": 8.056818181818182,
            "end": 8.063636363636363,
            "velocity": 97,
            "duration": 0.006818181818180946
          },
          {
            "pitch": 51,
            "start": 8.104545454545454,
            "end": 8.134090909090908,
            "velocity": 76,
            "duration": 0.02954545454545432
          },
          {
            "pitch": 42,
            "start": 8.127272727272727,
            "end": 8.156818181818181,
            "velocity": 93,
            "duration": 0.02954545454545432
          },
          {
            "pitch": 41,
            "start": 8.15,
            "end": 8.25,
            "velocity": 79,
            "duration": 0.09999999999999964
          },
          {
            "pitch": 51,
            "start": 8.220454545454546,
            "end": 8.320454545454545,
            "velocity": 100,
            "duration": 0.09999999999999964
          },
          {
            "pitch": 51,
            "start": 8.288636363636364,
            "end": 8.320454545454545,
            "velocity": 92,
            "duration": 0.0318181818181813
          },
          {
            "pitch": 35,
            "start": 8.243181818181817,
            "end": 8.343181818181817,
            "velocity": 74,
            "duration": 0.09999999999999964
          },
          {
            "pitch": 35,
            "start": 8.313636363636363,
            "end": 8.343181818181817,
            "velocity": 82,
            "duration": 0.02954545454545432
          },
          {
            "pitch": 42,
            "start": 8.313636363636363,
            "end": 8.413636363636364,
            "velocity": 107,
            "duration": 0.10000000000000142
          },
          {
            "pitch": 42,
            "start": 8.404545454545454,
            "end": 8.413636363636364,
            "velocity": 69,
            "duration": 0.009090909090909705
          },
          {
            "pitch": 42,
            "start": 8.497727272727273,
            "end": 8.504545454545454,
            "velocity": 77,
            "duration": 0.006818181818180946
          },
          {
            "pitch": 51,
            "start": 8.404545454545454,
            "end": 8.504545454545454,
            "velocity": 73,
            "duration": 0.09999999999999964
          },
          {
            "pitch": 51,
            "start": 8.475,
            "end": 8.504545454545454,
            "velocity": 82,
            "duration": 0.02954545454545432
          },
          {
            "pitch": 35,
            "start": 8.497727272727273,
            "end": 8.597727272727273,
            "velocity": 90,
            "duration": 0.09999999999999964
          },
          {
            "pitch": 42,
            "start": 8.59090909090909,
            "end": 8.597727272727273,
            "velocity": 79,
            "duration": 0.0068181818181827225
          },
          {
            "pitch": 41,
            "start": 8.522727272727272,
            "end": 8.622727272727273,
            "velocity": 68,
            "duration": 0.10000000000000142
          },
          {
            "pitch": 42,
            "start": 8.684090909090909,
            "end": 8.690909090909091,
            "velocity": 91,
            "duration": 0.0068181818181827225
          },
          {
            "pitch": 51,
            "start": 8.661363636363635,
            "end": 8.761363636363637,
            "velocity": 79,
            "duration": 0.10000000000000142
          },
          {
            "pitch": 51,
            "start": 8.754545454545454,
            "end": 8.761363636363637,
            "velocity": 94,
            "duration": 0.0068181818181827225
          },
          {
            "pitch": 35,
            "start": 8.684090909090909,
            "end": 8.784090909090908,
            "velocity": 86,
            "duration": 0.09999999999999964
          },
          {
            "pitch": 35,
            "start": 8.754545454545454,
            "end": 8.784090909090908,
            "velocity": 106,
            "duration": 0.02954545454545432
          },
          {
            "pitch": 42,
            "start": 8.777272727272727,
            "end": 8.784090909090908,
            "velocity": 70,
            "duration": 0.006818181818180946
          },
          {
            "pitch": 41,
            "start": 8.73181818181818,
            "end": 8.831818181818182,
            "velocity": 75,
            "duration": 0.10000000000000142
          },
          {
            "pitch": 41,
            "start": 8.777272727272727,
            "end": 8.831818181818182,
            "velocity": 66,
            "duration": 0.054545454545454675
          },
          {
            "pitch": 51,
            "start": 8.847727272727273,
            "end": 8.854545454545454,
            "velocity": 78,
            "duration": 0.006818181818180946
          },
          {
            "pitch": 42,
            "start": 8.870454545454544,
            "end": 8.877272727272727,
            "velocity": 87,
            "duration": 0.0068181818181827225
          },
          {
            "pitch": 35,
            "start": 8.870454545454544,
            "end": 8.970454545454546,
            "velocity": 81,
            "duration": 0.10000000000000142
          },
          {
            "pitch": 35,
            "start": 8.938636363636363,
            "end": 8.970454545454546,
            "velocity": 100,
            "duration": 0.03181818181818308
          },
          {
            "pitch": 42,
            "start": 8.963636363636363,
            "end": 8.970454545454546,
            "velocity": 66,
            "duration": 0.0068181818181827225
          },
          {
            "pitch": 37,
            "start": 8.893181818181818,
            "end": 8.993181818181817,
            "velocity": 120,
            "duration": 0.09999999999999964
          },
          {
            "pitch": 37,
            "start": 8.986363636363636,
            "end": 8.993181818181817,
            "velocity": 100,
            "duration": 0.006818181818180946
          },
          {
            "pitch": 35,
            "start": 9.009090909090908,
            "end": 9.038636363636364,
            "velocity": 75,
            "duration": 0.029545454545456096
          },
          {
            "pitch": 42,
            "start": 9.056818181818182,
            "end": 9.063636363636363,
            "velocity": 81,
            "duration": 0.006818181818180946
          },
          {
            "pitch": 35,
            "start": 9.056818181818182,
            "end": 9.10909090909091,
            "velocity": 77,
            "duration": 0.05227272727272769
          },
          {
            "pitch": 51,
            "start": 9.031818181818181,
            "end": 9.131818181818181,
            "velocity": 75,
            "duration": 0.09999999999999964
          },
          {
            "pitch": 51,
            "start": 9.102272727272727,
            "end": 9.131818181818181,
            "velocity": 85,
            "duration": 0.02954545454545432
          },
          {
            "pitch": 35,
            "start": 9.125,
            "end": 9.156818181818181,
            "velocity": 109,
            "duration": 0.0318181818181813
          },
          {
            "pitch": 45,
            "start": 9.079545454545453,
            "end": 9.179545454545455,
            "velocity": 95,
            "duration": 0.10000000000000142
          },
          {
            "pitch": 51,
            "start": 9.172727272727272,
            "end": 9.202272727272726,
            "velocity": 76,
            "duration": 0.02954545454545432
          },
          {
            "pitch": 51,
            "start": 9.218181818181817,
            "end": 9.272727272727272,
            "velocity": 78,
            "duration": 0.054545454545454675
          },
          {
            "pitch": 41,
            "start": 9.218181818181817,
            "end": 9.318181818181818,
            "velocity": 69,
            "duration": 0.10000000000000142
          },
          {
            "pitch": 51,
            "start": 9.311363636363636,
            "end": 9.318181818181818,
            "velocity": 93,
            "duration": 0.0068181818181827225
          },
          {
            "pitch": 35,
            "start": 9.311363636363636,
            "end": 9.411363636363635,
            "velocity": 114,
            "duration": 0.09999999999999964
          },
          {
            "pitch": 35,
            "start": 9.381818181818181,
            "end": 9.411363636363635,
            "velocity": 72,
            "duration": 0.02954545454545432
          },
          {
            "pitch": 42,
            "start": 9.311363636363636,
            "end": 9.411363636363635,
            "velocity": 94,
            "duration": 0.09999999999999964
          },
          {
            "pitch": 42,
            "start": 9.404545454545454,
            "end": 9.411363636363635,
            "velocity": 81,
            "duration": 0.006818181818180946
          },
          {
            "pitch": 51,
            "start": 9.35681818181818,
            "end": 9.411363636363635,
            "velocity": 81,
            "duration": 0.054545454545454675
          },
          {
            "pitch": 51,
            "start": 9.404545454545454,
            "end": 9.411363636363635,
            "velocity": 80,
            "duration": 0.006818181818180946
          },
          {
            "pitch": 42,
            "start": 9.497727272727273,
            "end": 9.504545454545454,
            "velocity": 88,
            "duration": 0.006818181818180946
          },
          {
            "pitch": 35,
            "start": 9.497727272727273,
            "end": 9.597727272727273,
            "velocity": 90,
            "duration": 0.09999999999999964
          },
          {
            "pitch": 35,
            "start": 9.56590909090909,
            "end": 9.597727272727273,
            "velocity": 101,
            "duration": 0.03181818181818308
          },
          {
            "pitch": 42,
            "start": 9.59090909090909,
            "end": 9.597727272727273,
            "velocity": 81,
            "duration": 0.0068181818181827225
          },
          {
            "pitch": 37,
            "start": 9.520454545454545,
            "end": 9.620454545454544,
            "velocity": 104,
            "duration": 0.09999999999999964
          },
          {
            "pitch": 51,
            "start": 9.56590909090909,
            "end": 9.665909090909091,
            "velocity": 64,
            "duration": 0.10000000000000142
          },
          {
            "pitch": 51,
            "start": 9.659090909090908,
            "end": 9.665909090909091,
            "velocity": 85,
            "duration": 0.0068181818181827225
          },
          {
            "pitch": 42,
            "start": 9.681818181818182,
            "end": 9.69090909090909,
            "velocity": 95,
            "duration": 0.009090909090907928
          },
          {
            "pitch": 41,
            "start": 9.659090909090908,
            "end": 9.759090909090908,
            "velocity": 68,
            "duration": 0.09999999999999964
          },
          {
            "pitch": 51,
            "start": 9.752272727272727,
            "end": 9.759090909090908,
            "velocity": 87,
            "duration": 0.006818181818180946
          },
          {
            "pitch": 35,
            "start": 9.681818181818182,
            "end": 9.781818181818181,
            "velocity": 78,
            "duration": 0.09999999999999964
          },
          {
            "pitch": 35,
            "start": 9.752272727272727,
            "end": 9.781818181818181,
            "velocity": 79,
            "duration": 0.02954545454545432
          },
          {
            "pitch": 42,
            "start": 9.752272727272727,
            "end": 9.781818181818181,
            "velocity": 71,
            "duration": 0.02954545454545432
          },
          {
            "pitch": 35,
            "start": 9.822727272727272,
            "end": 9.852272727272727,
            "velocity": 65,
            "duration": 0.02954545454545432
          },
          {
            "pitch": 37,
            "start": 9.775,
            "end": 9.875,
            "velocity": 70,
            "duration": 0.09999999999999964
          },
          {
            "pitch": 37,
            "start": 9.845454545454546,
            "end": 9.875,
            "velocity": 85,
            "duration": 0.02954545454545432
          },
          {
            "pitch": 35,
            "start": 9.868181818181817,
            "end": 9.922727272727272,
            "velocity": 98,
            "duration": 0.054545454545454675
          },
          {
            "pitch": 37,
            "start": 9.89090909090909,
            "end": 9.945454545454545,
            "velocity": 109,
            "duration": 0.054545454545454675
          },
          {
            "pitch": 35,
            "start": 9.938636363636363,
            "end": 9.968181818181817,
            "velocity": 113,
            "duration": 0.02954545454545432
          },
          {
            "pitch": 42,
            "start": 9.868181818181817,
            "end": 9.968181818181817,
            "velocity": 106,
            "duration": 0.09999999999999964
          },
          {
            "pitch": 42,
            "start": 9.938636363636363,
            "end": 9.968181818181817,
            "velocity": 74,
            "duration": 0.02954545454545432
          },
          {
            "pitch": 51,
            "start": 9.868181818181817,
            "end": 9.968181818181817,
            "velocity": 79,
            "duration": 0.09999999999999964
          },
          {
            "pitch": 51,
            "start": 9.938636363636363,
            "end": 9.968181818181817,
            "velocity": 93,
            "duration": 0.02954545454545432
          },
          {
            "pitch": 35,
            "start": 10.006818181818181,
            "end": 10.038636363636364,
            "velocity": 74,
            "duration": 0.03181818181818308
          },
          {
            "pitch": 51,
            "start": 9.98409090909091,
            "end": 10.038636363636364,
            "velocity": 79,
            "duration": 0.054545454545454675
          },
          {
            "pitch": 37,
            "start": 10.031818181818181,
            "end": 10.131818181818181,
            "velocity": 84,
            "duration": 0.09999999999999964
          },
          {
            "pitch": 35,
            "start": 10.125,
            "end": 10.225,
            "velocity": 79,
            "duration": 0.09999999999999964
          },
          {
            "pitch": 35,
            "start": 10.193181818181818,
            "end": 10.225,
            "velocity": 68,
            "duration": 0.0318181818181813
          },
          {
            "pitch": 42,
            "start": 10.125,
            "end": 10.225,
            "velocity": 92,
            "duration": 0.09999999999999964
          },
          {
            "pitch": 42,
            "start": 10.193181818181818,
            "end": 10.225,
            "velocity": 79,
            "duration": 0.0318181818181813
          },
          {
            "pitch": 51,
            "start": 10.125,
            "end": 10.225,
            "velocity": 92,
            "duration": 0.09999999999999964
          },
          {
            "pitch": 51,
            "start": 10.193181818181818,
            "end": 10.225,
            "velocity": 87,
            "duration": 0.0318181818181813
          },
          {
            "pitch": 41,
            "start": 10.21590909090909,
            "end": 10.31590909090909,
            "velocity": 71,
            "duration": 0.09999999999999964
          },
          {
            "pitch": 35,
            "start": 10.309090909090909,
            "end": 10.409090909090908,
            "velocity": 104,
            "duration": 0.09999999999999964
          },
          {
            "pitch": 35,
            "start": 10.379545454545454,
            "end": 10.409090909090908,
            "velocity": 94,
            "duration": 0.02954545454545432
          },
          {
            "pitch": 42,
            "start": 10.309090909090909,
            "end": 10.409090909090908,
            "velocity": 90,
            "duration": 0.09999999999999964
          },
          {
            "pitch": 42,
            "start": 10.402272727272727,
            "end": 10.409090909090908,
            "velocity": 65,
            "duration": 0.006818181818180946
          },
          {
            "pitch": 51,
            "start": 10.331818181818182,
            "end": 10.431818181818182,
            "velocity": 93,
            "duration": 0.09999999999999964
          },
          {
            "pitch": 51,
            "start": 10.379545454545454,
            "end": 10.431818181818182,
            "velocity": 89,
            "duration": 0.05227272727272769
          },
          {
            "pitch": 51,
            "start": 10.472727272727273,
            "end": 10.479545454545454,
            "velocity": 70,
            "duration": 0.006818181818180946
          },
          {
            "pitch": 35,
            "start": 10.495454545454544,
            "end": 10.595454545454546,
            "velocity": 74,
            "duration": 0.10000000000000142
          },
          {
            "pitch": 35,
            "start": 10.56590909090909,
            "end": 10.595454545454546,
            "velocity": 69,
            "duration": 0.029545454545456096
          },
          {
            "pitch": 37,
            "start": 10.518181818181818,
            "end": 10.618181818181817,
            "velocity": 97,
            "duration": 0.09999999999999964
          },
          {
            "pitch": 37,
            "start": 10.588636363636363,
            "end": 10.618181818181817,
            "velocity": 93,
            "duration": 0.02954545454545432
          },
          {
            "pitch": 41,
            "start": 10.518181818181818,
            "end": 10.618181818181817,
            "velocity": 78,
            "duration": 0.09999999999999964
          },
          {
            "pitch": 42,
            "start": 10.611363636363636,
            "end": 10.711363636363636,
            "velocity": 92,
            "duration": 0.09999999999999964
          },
          {
            "pitch": 42,
            "start": 10.681818181818182,
            "end": 10.711363636363636,
            "velocity": 94,
            "duration": 0.02954545454545432
          },
          {
            "pitch": 51,
            "start": 10.659090909090908,
            "end": 10.759090909090908,
            "velocity": 68,
            "duration": 0.09999999999999964
          },
          {
            "pitch": 51,
            "start": 10.75,
            "end": 10.759090909090908,
            "velocity": 85,
            "duration": 0.009090909090907928
          },
          {
            "pitch": 35,
            "start": 10.681818181818182,
            "end": 10.781818181818181,
            "velocity": 80,
            "duration": 0.09999999999999964
          },
          {
            "pitch": 35,
            "start": 10.75,
            "end": 10.781818181818181,
            "velocity": 112,
            "duration": 0.0318181818181813
          },
          {
            "pitch": 42,
            "start": 10.75,
            "end": 10.781818181818181,
            "velocity": 97,
            "duration": 0.0318181818181813
          },
          {
            "pitch": 37,
            "start": 10.727272727272727,
            "end": 10.827272727272726,
            "velocity": 70,
            "duration": 0.09999999999999964
          },
          {
            "pitch": 35,
            "start": 10.820454545454545,
            "end": 10.85,
            "velocity": 65,
            "duration": 0.02954545454545432
          },
          {
            "pitch": 51,
            "start": 10.797727272727272,
            "end": 10.85,
            "velocity": 82,
            "duration": 0.05227272727272769
          },
          {
            "pitch": 51,
            "start": 10.843181818181817,
            "end": 10.85,
            "velocity": 75,
            "duration": 0.0068181818181827225
          },
          {
            "pitch": 35,
            "start": 10.86590909090909,
            "end": 10.920454545454545,
            "velocity": 70,
            "duration": 0.054545454545454675
          },
          {
            "pitch": 51,
            "start": 10.936363636363636,
            "end": 10.943181818181818,
            "velocity": 81,
            "duration": 0.0068181818181827225
          },
          {
            "pitch": 35,
            "start": 10.936363636363636,
            "end": 10.96590909090909,
            "velocity": 111,
            "duration": 0.02954545454545432
          },
          {
            "pitch": 35,
            "start": 11.006818181818181,
            "end": 11.036363636363635,
            "velocity": 74,
            "duration": 0.02954545454545432
          },
          {
            "pitch": 42,
            "start": 10.936363636363636,
            "end": 11.036363636363635,
            "velocity": 99,
            "duration": 0.09999999999999964
          },
          {
            "pitch": 51,
            "start": 11.006818181818181,
            "end": 11.036363636363635,
            "velocity": 80,
            "duration": 0.02954545454545432
          },
          {
            "pitch": 37,
            "start": 10.98409090909091,
            "end": 11.084090909090909,
            "velocity": 89,
            "duration": 0.09999999999999964
          },
          {
            "pitch": 51,
            "start": 11.1,
            "end": 11.10681818181818,
            "velocity": 75,
            "duration": 0.006818181818180946
          },
          {
            "pitch": 51,
            "start": 11.19090909090909,
            "end": 11.2,
            "velocity": 67,
            "duration": 0.009090909090909705
          },
          {
            "pitch": 35,
            "start": 11.122727272727273,
            "end": 11.222727272727273,
            "velocity": 78,
            "duration": 0.09999999999999964
          },
          {
            "pitch": 42,
            "start": 11.122727272727273,
            "end": 11.222727272727273,
            "velocity": 85,
            "duration": 0.09999999999999964
          },
          {
            "pitch": 42,
            "start": 11.19090909090909,
            "end": 11.222727272727273,
            "velocity": 68,
            "duration": 0.03181818181818308
          },
          {
            "pitch": 51,
            "start": 11.261363636363637,
            "end": 11.290909090909091,
            "velocity": 75,
            "duration": 0.02954545454545432
          },
          {
            "pitch": 35,
            "start": 11.309090909090909,
            "end": 11.409090909090908,
            "velocity": 90,
            "duration": 0.09999999999999964
          },
          {
            "pitch": 35,
            "start": 11.377272727272727,
            "end": 11.409090909090908,
            "velocity": 107,
            "duration": 0.0318181818181813
          },
          {
            "pitch": 42,
            "start": 11.309090909090909,
            "end": 11.409090909090908,
            "velocity": 65,
            "duration": 0.09999999999999964
          },
          {
            "pitch": 35,
            "start": 11.447727272727272,
            "end": 11.477272727272727,
            "velocity": 66,
            "duration": 0.02954545454545432
          },
          {
            "pitch": 37,
            "start": 11.399999999999999,
            "end": 11.5,
            "velocity": 104,
            "duration": 0.10000000000000142
          },
          {
            "pitch": 37,
            "start": 11.470454545454546,
            "end": 11.5,
            "velocity": 78,
            "duration": 0.02954545454545432
          },
          {
            "pitch": 35,
            "start": 11.493181818181817,
            "end": 11.547727272727272,
            "velocity": 71,
            "duration": 0.054545454545454675
          },
          {
            "pitch": 35,
            "start": 11.563636363636363,
            "end": 11.593181818181817,
            "velocity": 107,
            "duration": 0.02954545454545432
          },
          {
            "pitch": 42,
            "start": 11.493181818181817,
            "end": 11.593181818181817,
            "velocity": 68,
            "duration": 0.09999999999999964
          },
          {
            "pitch": 42,
            "start": 11.563636363636363,
            "end": 11.593181818181817,
            "velocity": 89,
            "duration": 0.02954545454545432
          },
          {
            "pitch": 51,
            "start": 11.563636363636363,
            "end": 11.663636363636362,
            "velocity": 86,
            "duration": 0.09999999999999964
          },
          {
            "pitch": 51,
            "start": 11.656818181818181,
            "end": 11.663636363636362,
            "velocity": 85,
            "duration": 0.006818181818180946
          },
          {
            "pitch": 51,
            "start": 11.75,
            "end": 11.756818181818181,
            "velocity": 98,
            "duration": 0.006818181818180946
          },
          {
            "pitch": 42,
            "start": 11.679545454545455,
            "end": 11.779545454545454,
            "velocity": 65,
            "duration": 0.09999999999999964
          },
          {
            "pitch": 42,
            "start": 11.75,
            "end": 11.779545454545454,
            "velocity": 84,
            "duration": 0.02954545454545432
          },
          {
            "pitch": 35,
            "start": 11.75,
            "end": 11.85,
            "velocity": 117,
            "duration": 0.09999999999999964
          },
          {
            "pitch": 35,
            "start": 11.818181818181818,
            "end": 11.85,
            "velocity": 64,
            "duration": 0.0318181818181813
          },
          {
            "pitch": 51,
            "start": 11.843181818181817,
            "end": 11.85,
            "velocity": 86,
            "duration": 0.0068181818181827225
          },
          {
            "pitch": 35,
            "start": 11.86590909090909,
            "end": 11.918181818181818,
            "velocity": 68,
            "duration": 0.05227272727272769
          },
          {
            "pitch": 51,
            "start": 11.934090909090909,
            "end": 11.943181818181818,
            "velocity": 76,
            "duration": 0.009090909090909705
          },
          {
            "pitch": 35,
            "start": 11.934090909090909,
            "end": 11.96590909090909,
            "velocity": 102,
            "duration": 0.0318181818181813
          },
          {
            "pitch": 35,
            "start": 12.004545454545454,
            "end": 12.034090909090908,
            "velocity": 80,
            "duration": 0.02954545454545432
          },
          {
            "pitch": 42,
            "start": 11.934090909090909,
            "end": 12.034090909090908,
            "velocity": 83,
            "duration": 0.09999999999999964
          },
          {
            "pitch": 51,
            "start": 12.004545454545454,
            "end": 12.034090909090908,
            "velocity": 77,
            "duration": 0.02954545454545432
          },
          {
            "pitch": 37,
            "start": 11.959090909090909,
            "end": 12.059090909090909,
            "velocity": 83,
            "duration": 0.09999999999999964
          },
          {
            "pitch": 37,
            "start": 12.052272727272726,
            "end": 12.059090909090909,
            "velocity": 70,
            "duration": 0.0068181818181827225
          },
          {
            "pitch": 51,
            "start": 12.097727272727273,
            "end": 12.104545454545454,
            "velocity": 75,
            "duration": 0.006818181818180946
          },
          {
            "pitch": 37,
            "start": 12.143181818181818,
            "end": 12.152272727272727,
            "velocity": 82,
            "duration": 0.009090909090909705
          },
          {
            "pitch": 35,
            "start": 12.120454545454544,
            "end": 12.220454545454546,
            "velocity": 81,
            "duration": 0.10000000000000142
          },
          {
            "pitch": 35,
            "start": 12.19090909090909,
            "end": 12.220454545454546,
            "velocity": 88,
            "duration": 0.029545454545456096
          },
          {
            "pitch": 42,
            "start": 12.120454545454544,
            "end": 12.220454545454546,
            "velocity": 92,
            "duration": 0.10000000000000142
          },
          {
            "pitch": 37,
            "start": 12.236363636363636,
            "end": 12.243181818181817,
            "velocity": 87,
            "duration": 0.006818181818180946
          },
          {
            "pitch": 35,
            "start": 12.306818181818182,
            "end": 12.406818181818181,
            "velocity": 78,
            "duration": 0.09999999999999964
          },
          {
            "pitch": 35,
            "start": 12.377272727272727,
            "end": 12.406818181818181,
            "velocity": 104,
            "duration": 0.02954545454545432
          },
          {
            "pitch": 37,
            "start": 12.352272727272727,
            "end": 12.452272727272726,
            "velocity": 77,
            "duration": 0.09999999999999964
          },
          {
            "pitch": 37,
            "start": 12.422727272727272,
            "end": 12.452272727272726,
            "velocity": 79,
            "duration": 0.02954545454545432
          },
          {
            "pitch": 35,
            "start": 12.445454545454545,
            "end": 12.477272727272727,
            "velocity": 63,
            "duration": 0.0318181818181813
          },
          {
            "pitch": 35,
            "start": 12.493181818181817,
            "end": 12.545454545454545,
            "velocity": 67,
            "duration": 0.05227272727272769
          },
          {
            "pitch": 42,
            "start": 12.493181818181817,
            "end": 12.593181818181817,
            "velocity": 75,
            "duration": 0.09999999999999964
          },
          {
            "pitch": 42,
            "start": 12.561363636363636,
            "end": 12.593181818181817,
            "velocity": 91,
            "duration": 0.0318181818181813
          },
          {
            "pitch": 35,
            "start": 12.631818181818181,
            "end": 12.73181818181818,
            "velocity": 64,
            "duration": 0.09999999999999964
          },
          {
            "pitch": 41,
            "start": 12.793181818181818,
            "end": 12.893181818181818,
            "velocity": 68,
            "duration": 0.09999999999999964
          },
          {
            "pitch": 35,
            "start": 12.84090909090909,
            "end": 12.94090909090909,
            "velocity": 76,
            "duration": 0.09999999999999964
          },
          {
            "pitch": 35,
            "start": 12.886363636363635,
            "end": 12.94090909090909,
            "velocity": 69,
            "duration": 0.054545454545454675
          },
          {
            "pitch": 35,
            "start": 12.934090909090909,
            "end": 12.94090909090909,
            "velocity": 69,
            "duration": 0.006818181818180946
          },
          {
            "pitch": 41,
            "start": 12.911363636363635,
            "end": 13.011363636363635,
            "velocity": 67,
            "duration": 0.09999999999999964
          },
          {
            "pitch": 51,
            "start": 13.002272727272727,
            "end": 13.102272727272727,
            "velocity": 75,
            "duration": 0.09999999999999964
          },
          {
            "pitch": 51,
            "start": 13.095454545454546,
            "end": 13.102272727272727,
            "velocity": 77,
            "duration": 0.006818181818180946
          },
          {
            "pitch": 51,
            "start": 13.188636363636363,
            "end": 13.195454545454545,
            "velocity": 96,
            "duration": 0.0068181818181827225
          },
          {
            "pitch": 35,
            "start": 13.118181818181817,
            "end": 13.218181818181817,
            "velocity": 96,
            "duration": 0.09999999999999964
          },
          {
            "pitch": 35,
            "start": 13.188636363636363,
            "end": 13.218181818181817,
            "velocity": 114,
            "duration": 0.02954545454545432
          },
          {
            "pitch": 42,
            "start": 13.188636363636363,
            "end": 13.288636363636362,
            "velocity": 94,
            "duration": 0.09999999999999964
          },
          {
            "pitch": 51,
            "start": 13.281818181818181,
            "end": 13.288636363636362,
            "velocity": 87,
            "duration": 0.006818181818180946
          },
          {
            "pitch": 51,
            "start": 13.375,
            "end": 13.381818181818181,
            "velocity": 98,
            "duration": 0.006818181818180946
          },
          {
            "pitch": 35,
            "start": 13.304545454545455,
            "end": 13.404545454545454,
            "velocity": 63,
            "duration": 0.09999999999999964
          },
          {
            "pitch": 35,
            "start": 13.375,
            "end": 13.404545454545454,
            "velocity": 114,
            "duration": 0.02954545454545432
          },
          {
            "pitch": 42,
            "start": 13.304545454545455,
            "end": 13.404545454545454,
            "velocity": 64,
            "duration": 0.09999999999999964
          },
          {
            "pitch": 42,
            "start": 13.375,
            "end": 13.404545454545454,
            "velocity": 101,
            "duration": 0.02954545454545432
          },
          {
            "pitch": 37,
            "start": 13.352272727272727,
            "end": 13.452272727272726,
            "velocity": 82,
            "duration": 0.09999999999999964
          },
          {
            "pitch": 35,
            "start": 13.445454545454545,
            "end": 13.475,
            "velocity": 70,
            "duration": 0.02954545454545432
          },
          {
            "pitch": 51,
            "start": 13.468181818181817,
            "end": 13.475,
            "velocity": 67,
            "duration": 0.0068181818181827225
          },
          {
            "pitch": 37,
            "start": 13.468181818181817,
            "end": 13.568181818181818,
            "velocity": 68,
            "duration": 0.10000000000000142
          },
          {
            "pitch": 37,
            "start": 13.536363636363635,
            "end": 13.568181818181818,
            "velocity": 81,
            "duration": 0.03181818181818308
          },
          {
            "pitch": 51,
            "start": 13.561363636363636,
            "end": 13.568181818181818,
            "velocity": 75,
            "duration": 0.0068181818181827225
          },
          {
            "pitch": 35,
            "start": 13.561363636363636,
            "end": 13.661363636363635,
            "velocity": 105,
            "duration": 0.09999999999999964
          },
          {
            "pitch": 35,
            "start": 13.629545454545454,
            "end": 13.661363636363635,
            "velocity": 93,
            "duration": 0.0318181818181813
          },
          {
            "pitch": 42,
            "start": 13.561363636363636,
            "end": 13.661363636363635,
            "velocity": 99,
            "duration": 0.09999999999999964
          },
          {
            "pitch": 51,
            "start": 13.629545454545454,
            "end": 13.661363636363635,
            "velocity": 86,
            "duration": 0.0318181818181813
          },
          {
            "pitch": 35,
            "start": 13.745454545454544,
            "end": 13.845454545454544,
            "velocity": 97,
            "duration": 0.09999999999999964
          },
          {
            "pitch": 35,
            "start": 13.81590909090909,
            "end": 13.845454545454544,
            "velocity": 101,
            "duration": 0.02954545454545432
          },
          {
            "pitch": 42,
            "start": 13.745454545454544,
            "end": 13.845454545454544,
            "velocity": 90,
            "duration": 0.09999999999999964
          },
          {
            "pitch": 42,
            "start": 13.81590909090909,
            "end": 13.845454545454544,
            "velocity": 90,
            "duration": 0.02954545454545432
          },
          {
            "pitch": 37,
            "start": 13.770454545454545,
            "end": 13.870454545454544,
            "velocity": 92,
            "duration": 0.09999999999999964
          },
          {
            "pitch": 37,
            "start": 13.861363636363636,
            "end": 13.870454545454544,
            "velocity": 67,
            "duration": 0.009090909090907928
          },
          {
            "pitch": 51,
            "start": 13.81590909090909,
            "end": 13.915909090909091,
            "velocity": 80,
            "duration": 0.10000000000000142
          },
          {
            "pitch": 51,
            "start": 13.909090909090908,
            "end": 13.915909090909091,
            "velocity": 83,
            "duration": 0.0068181818181827225
          },
          {
            "pitch": 37,
            "start": 13.954545454545453,
            "end": 13.961363636363636,
            "velocity": 75,
            "duration": 0.0068181818181827225
          },
          {
            "pitch": 51,
            "start": 14.002272727272727,
            "end": 14.009090909090908,
            "velocity": 99,
            "duration": 0.006818181818180946
          },
          {
            "pitch": 35,
            "start": 13.931818181818182,
            "end": 14.031818181818181,
            "velocity": 91,
            "duration": 0.09999999999999964
          },
          {
            "pitch": 35,
            "start": 14.002272727272727,
            "end": 14.031818181818181,
            "velocity": 117,
            "duration": 0.02954545454545432
          },
          {
            "pitch": 42,
            "start": 13.931818181818182,
            "end": 14.031818181818181,
            "velocity": 80,
            "duration": 0.09999999999999964
          },
          {
            "pitch": 37,
            "start": 14.047727272727272,
            "end": 14.054545454545455,
            "velocity": 86,
            "duration": 0.0068181818181827225
          },
          {
            "pitch": 51,
            "start": 14.095454545454544,
            "end": 14.102272727272727,
            "velocity": 79,
            "duration": 0.0068181818181827225
          },
          {
            "pitch": 51,
            "start": 14.186363636363636,
            "end": 14.195454545454545,
            "velocity": 98,
            "duration": 0.009090909090909705
          },
          {
            "pitch": 35,
            "start": 14.118181818181817,
            "end": 14.218181818181817,
            "velocity": 74,
            "duration": 0.09999999999999964
          },
          {
            "pitch": 35,
            "start": 14.186363636363636,
            "end": 14.218181818181817,
            "velocity": 115,
            "duration": 0.0318181818181813
          },
          {
            "pitch": 35,
            "start": 14.256818181818181,
            "end": 14.286363636363635,
            "velocity": 73,
            "duration": 0.02954545454545432
          },
          {
            "pitch": 42,
            "start": 14.186363636363636,
            "end": 14.286363636363635,
            "velocity": 107,
            "duration": 0.09999999999999964
          },
          {
            "pitch": 51,
            "start": 14.256818181818181,
            "end": 14.286363636363635,
            "velocity": 85,
            "duration": 0.02954545454545432
          },
          {
            "pitch": 37,
            "start": 14.35,
            "end": 14.45,
            "velocity": 92,
            "duration": 0.09999999999999964
          },
          {
            "pitch": 35,
            "start": 14.372727272727271,
            "end": 14.472727272727273,
            "velocity": 107,
            "duration": 0.10000000000000142
          },
          {
            "pitch": 35,
            "start": 14.443181818181818,
            "end": 14.472727272727273,
            "velocity": 85,
            "duration": 0.02954545454545432
          },
          {
            "pitch": 42,
            "start": 14.372727272727271,
            "end": 14.472727272727273,
            "velocity": 95,
            "duration": 0.10000000000000142
          },
          {
            "pitch": 51,
            "start": 14.372727272727271,
            "end": 14.472727272727273,
            "velocity": 91,
            "duration": 0.10000000000000142
          },
          {
            "pitch": 51,
            "start": 14.443181818181818,
            "end": 14.472727272727273,
            "velocity": 77,
            "duration": 0.02954545454545432
          },
          {
            "pitch": 51,
            "start": 14.536363636363635,
            "end": 14.543181818181818,
            "velocity": 70,
            "duration": 0.0068181818181827225
          },
          {
            "pitch": 37,
            "start": 14.536363636363635,
            "end": 14.636363636363635,
            "velocity": 74,
            "duration": 0.09999999999999964
          },
          {
            "pitch": 51,
            "start": 14.629545454545454,
            "end": 14.636363636363635,
            "velocity": 90,
            "duration": 0.006818181818180946
          },
          {
            "pitch": 35,
            "start": 14.559090909090909,
            "end": 14.659090909090908,
            "velocity": 77,
            "duration": 0.09999999999999964
          },
          {
            "pitch": 35,
            "start": 14.629545454545454,
            "end": 14.659090909090908,
            "velocity": 108,
            "duration": 0.02954545454545432
          },
          {
            "pitch": 42,
            "start": 14.559090909090909,
            "end": 14.659090909090908,
            "velocity": 97,
            "duration": 0.09999999999999964
          },
          {
            "pitch": 51,
            "start": 14.720454545454544,
            "end": 14.729545454545454,
            "velocity": 78,
            "duration": 0.009090909090909705
          },
          {
            "pitch": 51,
            "start": 14.813636363636363,
            "end": 14.820454545454545,
            "velocity": 81,
            "duration": 0.0068181818181827225
          },
          {
            "pitch": 35,
            "start": 14.745454545454544,
            "end": 14.845454545454544,
            "velocity": 82,
            "duration": 0.09999999999999964
          },
          {
            "pitch": 35,
            "start": 14.813636363636363,
            "end": 14.845454545454544,
            "velocity": 111,
            "duration": 0.0318181818181813
          },
          {
            "pitch": 37,
            "start": 14.768181818181818,
            "end": 14.868181818181817,
            "velocity": 73,
            "duration": 0.09999999999999964
          },
          {
            "pitch": 37,
            "start": 14.861363636363636,
            "end": 14.868181818181817,
            "velocity": 99,
            "duration": 0.006818181818180946
          },
          {
            "pitch": 35,
            "start": 14.884090909090908,
            "end": 14.913636363636362,
            "velocity": 64,
            "duration": 0.02954545454545432
          },
          {
            "pitch": 42,
            "start": 14.813636363636363,
            "end": 14.913636363636362,
            "velocity": 101,
            "duration": 0.09999999999999964
          },
          {
            "pitch": 51,
            "start": 14.906818181818181,
            "end": 14.913636363636362,
            "velocity": 88,
            "duration": 0.006818181818180946
          },
          {
            "pitch": 37,
            "start": 14.929545454545455,
            "end": 14.961363636363636,
            "velocity": 64,
            "duration": 0.0318181818181813
          },
          {
            "pitch": 35,
            "start": 14.929545454545455,
            "end": 14.984090909090908,
            "velocity": 65,
            "duration": 0.0545454545454529
          },
          {
            "pitch": 51,
            "start": 14.977272727272727,
            "end": 15.006818181818181,
            "velocity": 93,
            "duration": 0.02954545454545432
          },
          {
            "pitch": 51,
            "start": 15.070454545454545,
            "end": 15.077272727272726,
            "velocity": 64,
            "duration": 0.006818181818180946
          },
          {
            "pitch": 37,
            "start": 15.045454545454545,
            "end": 15.145454545454545,
            "velocity": 101,
            "duration": 0.09999999999999964
          },
          {
            "pitch": 37,
            "start": 15.093181818181817,
            "end": 15.145454545454545,
            "velocity": 89,
            "duration": 0.05227272727272769
          },
          {
            "pitch": 37,
            "start": 15.138636363636364,
            "end": 15.145454545454545,
            "velocity": 101,
            "duration": 0.006818181818180946
          },
          {
            "pitch": 51,
            "start": 15.163636363636362,
            "end": 15.170454545454545,
            "velocity": 71,
            "duration": 0.0068181818181827225
          },
          {
            "pitch": 37,
            "start": 15.186363636363636,
            "end": 15.193181818181817,
            "velocity": 66,
            "duration": 0.006818181818180946
          },
          {
            "pitch": 51,
            "start": 15.254545454545454,
            "end": 15.263636363636364,
            "velocity": 78,
            "duration": 0.009090909090909705
          },
          {
            "pitch": 42,
            "start": 15.186363636363636,
            "end": 15.286363636363635,
            "velocity": 65,
            "duration": 0.09999999999999964
          },
          {
            "pitch": 42,
            "start": 15.279545454545454,
            "end": 15.286363636363635,
            "velocity": 67,
            "duration": 0.006818181818180946
          },
          {
            "pitch": 51,
            "start": 15.302272727272726,
            "end": 15.354545454545454,
            "velocity": 76,
            "duration": 0.05227272727272769
          },
          {
            "pitch": 51,
            "start": 15.347727272727273,
            "end": 15.354545454545454,
            "velocity": 94,
            "duration": 0.006818181818180946
          },
          {
            "pitch": 42,
            "start": 15.372727272727271,
            "end": 15.379545454545454,
            "velocity": 87,
            "duration": 0.0068181818181827225
          },
          {
            "pitch": 51,
            "start": 15.418181818181818,
            "end": 15.447727272727272,
            "velocity": 71,
            "duration": 0.02954545454545432
          },
          {
            "pitch": 51,
            "start": 15.463636363636363,
            "end": 15.518181818181818,
            "velocity": 69,
            "duration": 0.054545454545454675
          },
          {
            "pitch": 51,
            "start": 15.534090909090908,
            "end": 15.563636363636363,
            "velocity": 87,
            "duration": 0.02954545454545432
          },
          {
            "pitch": 37,
            "start": 15.488636363636363,
            "end": 15.588636363636363,
            "velocity": 87,
            "duration": 0.09999999999999964
          },
          {
            "pitch": 51,
            "start": 15.627272727272727,
            "end": 15.634090909090908,
            "velocity": 86,
            "duration": 0.006818181818180946
          },
          {
            "pitch": 42,
            "start": 15.556818181818182,
            "end": 15.656818181818181,
            "velocity": 77,
            "duration": 0.09999999999999964
          },
          {
            "pitch": 35,
            "start": 15.627272727272727,
            "end": 15.727272727272727,
            "velocity": 110,
            "duration": 0.09999999999999964
          },
          {
            "pitch": 51,
            "start": 15.720454545454544,
            "end": 15.727272727272727,
            "velocity": 90,
            "duration": 0.0068181818181827225
          },
          {
            "pitch": 51,
            "start": 15.788636363636362,
            "end": 15.820454545454545,
            "velocity": 77,
            "duration": 0.03181818181818308
          },
          {
            "pitch": 35,
            "start": 15.743181818181817,
            "end": 15.843181818181817,
            "velocity": 69,
            "duration": 0.09999999999999964
          },
          {
            "pitch": 37,
            "start": 15.76590909090909,
            "end": 15.86590909090909,
            "velocity": 107,
            "duration": 0.09999999999999964
          },
          {
            "pitch": 37,
            "start": 15.859090909090908,
            "end": 15.86590909090909,
            "velocity": 88,
            "duration": 0.0068181818181827225
          },
          {
            "pitch": 51,
            "start": 15.881818181818181,
            "end": 15.888636363636364,
            "velocity": 63,
            "duration": 0.0068181818181827225
          },
          {
            "pitch": 42,
            "start": 15.813636363636363,
            "end": 15.913636363636362,
            "velocity": 72,
            "duration": 0.09999999999999964
          },
          {
            "pitch": 37,
            "start": 15.904545454545454,
            "end": 15.959090909090909,
            "velocity": 69,
            "duration": 0.054545454545454675
          },
          {
            "pitch": 35,
            "start": 15.997727272727271,
            "end": 16.097727272727273,
            "velocity": 86,
            "duration": 0.10000000000000142
          },
          {
            "pitch": 51,
            "start": 15.997727272727271,
            "end": 16.097727272727273,
            "velocity": 86,
            "duration": 0.10000000000000142
          },
          {
            "pitch": 51,
            "start": 16.09090909090909,
            "end": 16.097727272727273,
            "velocity": 68,
            "duration": 0.0068181818181827225
          },
          {
            "pitch": 42,
            "start": 16.068181818181817,
            "end": 16.168181818181818,
            "velocity": 63,
            "duration": 0.10000000000000142
          },
          {
            "pitch": 51,
            "start": 16.161363636363635,
            "end": 16.19090909090909,
            "velocity": 71,
            "duration": 0.029545454545456096
          },
          {
            "pitch": 51,
            "start": 16.254545454545454,
            "end": 16.261363636363637,
            "velocity": 84,
            "duration": 0.0068181818181827225
          },
          {
            "pitch": 37,
            "start": 16.18409090909091,
            "end": 16.28409090909091,
            "velocity": 68,
            "duration": 0.10000000000000142
          },
          {
            "pitch": 35,
            "start": 16.254545454545454,
            "end": 16.354545454545455,
            "velocity": 85,
            "duration": 0.10000000000000142
          },
          {
            "pitch": 51,
            "start": 16.347727272727273,
            "end": 16.354545454545455,
            "velocity": 84,
            "duration": 0.0068181818181827225
          },
          {
            "pitch": 37,
            "start": 16.3,
            "end": 16.4,
            "velocity": 66,
            "duration": 0.09999999999999787
          },
          {
            "pitch": 37,
            "start": 16.393181818181816,
            "end": 16.4,
            "velocity": 97,
            "duration": 0.0068181818181827225
          },
          {
            "pitch": 51,
            "start": 16.438636363636363,
            "end": 16.44772727272727,
            "velocity": 67,
            "duration": 0.009090909090907928
          },
          {
            "pitch": 35,
            "start": 16.370454545454546,
            "end": 16.470454545454544,
            "velocity": 92,
            "duration": 0.09999999999999787
          },
          {
            "pitch": 42,
            "start": 16.370454545454546,
            "end": 16.470454545454544,
            "velocity": 73,
            "duration": 0.09999999999999787
          },
          {
            "pitch": 42,
            "start": 16.438636363636363,
            "end": 16.470454545454544,
            "velocity": 69,
            "duration": 0.0318181818181813
          },
          {
            "pitch": 37,
            "start": 16.486363636363635,
            "end": 16.493181818181817,
            "velocity": 99,
            "duration": 0.0068181818181827225
          },
          {
            "pitch": 51,
            "start": 16.53181818181818,
            "end": 16.538636363636364,
            "velocity": 65,
            "duration": 0.0068181818181827225
          },
          {
            "pitch": 35,
            "start": 16.625,
            "end": 16.724999999999998,
            "velocity": 109,
            "duration": 0.09999999999999787
          },
          {
            "pitch": 35,
            "start": 16.74090909090909,
            "end": 16.84090909090909,
            "velocity": 68,
            "duration": 0.10000000000000142
          },
          {
            "pitch": 37,
            "start": 16.76590909090909,
            "end": 16.86590909090909,
            "velocity": 79,
            "duration": 0.09999999999999787
          },
          {
            "pitch": 37,
            "start": 16.85681818181818,
            "end": 16.86590909090909,
            "velocity": 91,
            "duration": 0.009090909090907928
          },
          {
            "pitch": 37,
            "start": 16.95,
            "end": 16.956818181818182,
            "velocity": 100,
            "duration": 0.0068181818181827225
          },
          {
            "pitch": 35,
            "start": 16.881818181818183,
            "end": 16.98181818181818,
            "velocity": 65,
            "duration": 0.09999999999999787
          },
          {
            "pitch": 35,
            "start": 16.927272727272726,
            "end": 16.98181818181818,
            "velocity": 67,
            "duration": 0.054545454545454675
          },
          {
            "pitch": 37,
            "start": 17.06590909090909,
            "end": 17.16590909090909,
            "velocity": 75,
            "duration": 0.09999999999999787
          },
          {
            "pitch": 51,
            "start": 17.113636363636363,
            "end": 17.21363636363636,
            "velocity": 67,
            "duration": 0.09999999999999787
          },
          {
            "pitch": 51,
            "start": 17.18181818181818,
            "end": 17.21363636363636,
            "velocity": 78,
            "duration": 0.0318181818181813
          },
          {
            "pitch": 37,
            "start": 17.206818181818182,
            "end": 17.30681818181818,
            "velocity": 66,
            "duration": 0.09999999999999787
          },
          {
            "pitch": 37,
            "start": 17.275,
            "end": 17.30681818181818,
            "velocity": 90,
            "duration": 0.0318181818181813
          },
          {
            "pitch": 45,
            "start": 17.3,
            "end": 17.4,
            "velocity": 89,
            "duration": 0.09999999999999787
          },
          {
            "pitch": 41,
            "start": 17.39090909090909,
            "end": 17.49090909090909,
            "velocity": 67,
            "duration": 0.09999999999999787
          },
          {
            "pitch": 41,
            "start": 17.438636363636363,
            "end": 17.49090909090909,
            "velocity": 64,
            "duration": 0.052272727272725916
          },
          {
            "pitch": 51,
            "start": 17.41590909090909,
            "end": 17.51590909090909,
            "velocity": 71,
            "duration": 0.10000000000000142
          },
          {
            "pitch": 41,
            "start": 17.53181818181818,
            "end": 17.538636363636364,
            "velocity": 83,
            "duration": 0.0068181818181827225
          },
          {
            "pitch": 35,
            "start": 17.461363636363636,
            "end": 17.561363636363634,
            "velocity": 70,
            "duration": 0.09999999999999787
          },
          {
            "pitch": 35,
            "start": 17.554545454545455,
            "end": 17.561363636363634,
            "velocity": 68,
            "duration": 0.00681818181817917
          },
          {
            "pitch": 35,
            "start": 17.625,
            "end": 17.654545454545453,
            "velocity": 101,
            "duration": 0.029545454545452543
          },
          {
            "pitch": 51,
            "start": 17.625,
            "end": 17.724999999999998,
            "velocity": 86,
            "duration": 0.09999999999999787
          },
          {
            "pitch": 51,
            "start": 17.693181818181817,
            "end": 17.724999999999998,
            "velocity": 71,
            "duration": 0.0318181818181813
          },
          {
            "pitch": 51,
            "start": 17.786363636363635,
            "end": 17.793181818181818,
            "velocity": 80,
            "duration": 0.0068181818181827225
          },
          {
            "pitch": 51,
            "start": 17.879545454545454,
            "end": 17.886363636363637,
            "velocity": 85,
            "duration": 0.0068181818181827225
          },
          {
            "pitch": 35,
            "start": 17.80909090909091,
            "end": 17.909090909090907,
            "velocity": 84,
            "duration": 0.09999999999999787
          },
          {
            "pitch": 35,
            "start": 17.879545454545454,
            "end": 17.909090909090907,
            "velocity": 82,
            "duration": 0.029545454545452543
          },
          {
            "pitch": 42,
            "start": 17.80909090909091,
            "end": 17.909090909090907,
            "velocity": 77,
            "duration": 0.09999999999999787
          },
          {
            "pitch": 37,
            "start": 17.85681818181818,
            "end": 17.956818181818182,
            "velocity": 79,
            "duration": 0.10000000000000142
          },
          {
            "pitch": 51,
            "start": 17.972727272727273,
            "end": 17.979545454545455,
            "velocity": 77,
            "duration": 0.0068181818181827225
          },
          {
            "pitch": 51,
            "start": 18.06590909090909,
            "end": 18.07272727272727,
            "velocity": 73,
            "duration": 0.00681818181817917
          },
          {
            "pitch": 35,
            "start": 17.995454545454546,
            "end": 18.095454545454544,
            "velocity": 79,
            "duration": 0.09999999999999787
          },
          {
            "pitch": 35,
            "start": 18.06590909090909,
            "end": 18.095454545454544,
            "velocity": 92,
            "duration": 0.029545454545452543
          },
          {
            "pitch": 42,
            "start": 17.995454545454546,
            "end": 18.095454545454544,
            "velocity": 88,
            "duration": 0.09999999999999787
          },
          {
            "pitch": 42,
            "start": 18.06590909090909,
            "end": 18.095454545454544,
            "velocity": 67,
            "duration": 0.029545454545452543
          },
          {
            "pitch": 37,
            "start": 18.018181818181816,
            "end": 18.118181818181817,
            "velocity": 73,
            "duration": 0.10000000000000142
          },
          {
            "pitch": 51,
            "start": 18.159090909090907,
            "end": 18.16590909090909,
            "velocity": 83,
            "duration": 0.0068181818181827225
          },
          {
            "pitch": 51,
            "start": 18.25,
            "end": 18.259090909090908,
            "velocity": 79,
            "duration": 0.009090909090907928
          },
          {
            "pitch": 35,
            "start": 18.18181818181818,
            "end": 18.28181818181818,
            "velocity": 89,
            "duration": 0.10000000000000142
          },
          {
            "pitch": 35,
            "start": 18.25,
            "end": 18.28181818181818,
            "velocity": 106,
            "duration": 0.0318181818181813
          },
          {
            "pitch": 42,
            "start": 18.18181818181818,
            "end": 18.28181818181818,
            "velocity": 77,
            "duration": 0.10000000000000142
          },
          {
            "pitch": 42,
            "start": 18.25,
            "end": 18.28181818181818,
            "velocity": 70,
            "duration": 0.0318181818181813
          },
          {
            "pitch": 51,
            "start": 18.34318181818182,
            "end": 18.349999999999998,
            "velocity": 73,
            "duration": 0.00681818181817917
          },
          {
            "pitch": 37,
            "start": 18.297727272727272,
            "end": 18.397727272727273,
            "velocity": 64,
            "duration": 0.10000000000000142
          },
          {
            "pitch": 51,
            "start": 18.436363636363634,
            "end": 18.443181818181817,
            "velocity": 74,
            "duration": 0.0068181818181827225
          },
          {
            "pitch": 35,
            "start": 18.36590909090909,
            "end": 18.46590909090909,
            "velocity": 72,
            "duration": 0.10000000000000142
          },
          {
            "pitch": 35,
            "start": 18.436363636363634,
            "end": 18.46590909090909,
            "velocity": 105,
            "duration": 0.029545454545456096
          },
          {
            "pitch": 42,
            "start": 18.436363636363634,
            "end": 18.536363636363635,
            "velocity": 80,
            "duration": 0.10000000000000142
          },
          {
            "pitch": 37,
            "start": 18.459090909090907,
            "end": 18.55909090909091,
            "velocity": 69,
            "duration": 0.10000000000000142
          },
          {
            "pitch": 37,
            "start": 18.529545454545453,
            "end": 18.55909090909091,
            "velocity": 64,
            "duration": 0.029545454545456096
          },
          {
            "pitch": 35,
            "start": 18.62272727272727,
            "end": 18.722727272727273,
            "velocity": 96,
            "duration": 0.10000000000000142
          },
          {
            "pitch": 35,
            "start": 18.693181818181817,
            "end": 18.722727272727273,
            "velocity": 82,
            "duration": 0.029545454545456096
          },
          {
            "pitch": 42,
            "start": 18.62272727272727,
            "end": 18.722727272727273,
            "velocity": 77,
            "duration": 0.10000000000000142
          },
          {
            "pitch": 51,
            "start": 18.62272727272727,
            "end": 18.722727272727273,
            "velocity": 86,
            "duration": 0.10000000000000142
          },
          {
            "pitch": 51,
            "start": 18.693181818181817,
            "end": 18.722727272727273,
            "velocity": 84,
            "duration": 0.029545454545456096
          },
          {
            "pitch": 51,
            "start": 18.784090909090907,
            "end": 18.793181818181818,
            "velocity": 75,
            "duration": 0.009090909090911481
          },
          {
            "pitch": 51,
            "start": 18.877272727272725,
            "end": 18.884090909090908,
            "velocity": 83,
            "duration": 0.0068181818181827225
          },
          {
            "pitch": 35,
            "start": 18.80909090909091,
            "end": 18.909090909090907,
            "velocity": 71,
            "duration": 0.09999999999999787
          },
          {
            "pitch": 35,
            "start": 18.877272727272725,
            "end": 18.909090909090907,
            "velocity": 87,
            "duration": 0.0318181818181813
          },
          {
            "pitch": 42,
            "start": 18.80909090909091,
            "end": 18.909090909090907,
            "velocity": 65,
            "duration": 0.09999999999999787
          },
          {
            "pitch": 37,
            "start": 18.854545454545455,
            "end": 18.954545454545453,
            "velocity": 64,
            "duration": 0.09999999999999787
          },
          {
            "pitch": 51,
            "start": 18.970454545454544,
            "end": 18.977272727272727,
            "velocity": 77,
            "duration": 0.0068181818181827225
          },
          {
            "pitch": 51,
            "start": 19.063636363636363,
            "end": 19.070454545454545,
            "velocity": 78,
            "duration": 0.0068181818181827225
          },
          {
            "pitch": 35,
            "start": 18.993181818181817,
            "end": 19.09318181818182,
            "velocity": 75,
            "duration": 0.10000000000000142
          },
          {
            "pitch": 35,
            "start": 19.063636363636363,
            "end": 19.09318181818182,
            "velocity": 103,
            "duration": 0.029545454545456096
          },
          {
            "pitch": 42,
            "start": 18.993181818181817,
            "end": 19.09318181818182,
            "velocity": 71,
            "duration": 0.10000000000000142
          },
          {
            "pitch": 42,
            "start": 19.063636363636363,
            "end": 19.09318181818182,
            "velocity": 82,
            "duration": 0.029545454545456096
          },
          {
            "pitch": 37,
            "start": 19.018181818181816,
            "end": 19.118181818181817,
            "velocity": 71,
            "duration": 0.10000000000000142
          },
          {
            "pitch": 51,
            "start": 19.15681818181818,
            "end": 19.163636363636364,
            "velocity": 80,
            "duration": 0.0068181818181827225
          },
          {
            "pitch": 51,
            "start": 19.25,
            "end": 19.25681818181818,
            "velocity": 86,
            "duration": 0.00681818181817917
          },
          {
            "pitch": 35,
            "start": 19.179545454545455,
            "end": 19.279545454545453,
            "velocity": 66,
            "duration": 0.09999999999999787
          },
          {
            "pitch": 35,
            "start": 19.25,
            "end": 19.279545454545453,
            "velocity": 102,
            "duration": 0.029545454545452543
          },
          {
            "pitch": 37,
            "start": 19.224999999999998,
            "end": 19.325,
            "velocity": 79,
            "duration": 0.10000000000000142
          },
          {
            "pitch": 42,
            "start": 19.25,
            "end": 19.349999999999998,
            "velocity": 98,
            "duration": 0.09999999999999787
          },
          {
            "pitch": 37,
            "start": 19.34318181818182,
            "end": 19.443181818181817,
            "velocity": 75,
            "duration": 0.09999999999999787
          },
          {
            "pitch": 51,
            "start": 19.411363636363635,
            "end": 19.511363636363637,
            "velocity": 72,
            "duration": 0.10000000000000142
          },
          {
            "pitch": 51,
            "start": 19.48181818181818,
            "end": 19.511363636363637,
            "velocity": 82,
            "duration": 0.029545454545456096
          },
          {
            "pitch": 35,
            "start": 19.43409090909091,
            "end": 19.534090909090907,
            "velocity": 84,
            "duration": 0.09999999999999787
          },
          {
            "pitch": 37,
            "start": 19.459090909090907,
            "end": 19.55909090909091,
            "velocity": 88,
            "duration": 0.10000000000000142
          },
          {
            "pitch": 37,
            "start": 19.552272727272726,
            "end": 19.55909090909091,
            "velocity": 74,
            "duration": 0.0068181818181827225
          },
          {
            "pitch": 51,
            "start": 19.527272727272727,
            "end": 19.581818181818182,
            "velocity": 66,
            "duration": 0.054545454545454675
          },
          {
            "pitch": 51,
            "start": 19.597727272727273,
            "end": 19.627272727272725,
            "velocity": 63,
            "duration": 0.029545454545452543
          },
          {
            "pitch": 37,
            "start": 19.643181818181816,
            "end": 19.652272727272727,
            "velocity": 94,
            "duration": 0.009090909090911481
          },
          {
            "pitch": 51,
            "start": 19.784090909090907,
            "end": 19.884090909090908,
            "velocity": 86,
            "duration": 0.10000000000000142
          },
          {
            "pitch": 51,
            "start": 19.877272727272725,
            "end": 19.884090909090908,
            "velocity": 76,
            "duration": 0.0068181818181827225
          },
          {
            "pitch": 51,
            "start": 19.922727272727272,
            "end": 19.977272727272727,
            "velocity": 71,
            "duration": 0.054545454545454675
          },
          {
            "pitch": 35,
            "start": 19.993181818181817,
            "end": 20.09318181818182,
            "velocity": 72,
            "duration": 0.10000000000000142
          },
          {
            "pitch": 37,
            "start": 20.01590909090909,
            "end": 20.11590909090909,
            "velocity": 67,
            "duration": 0.09999999999999787
          },
          {
            "pitch": 51,
            "start": 20.038636363636364,
            "end": 20.138636363636362,
            "velocity": 70,
            "duration": 0.09999999999999787
          },
          {
            "pitch": 42,
            "start": 20.061363636363634,
            "end": 20.161363636363635,
            "velocity": 66,
            "duration": 0.10000000000000142
          },
          {
            "pitch": 51,
            "start": 20.154545454545453,
            "end": 20.254545454545454,
            "velocity": 82,
            "duration": 0.10000000000000142
          },
          {
            "pitch": 51,
            "start": 20.24772727272727,
            "end": 20.254545454545454,
            "velocity": 75,
            "duration": 0.0068181818181827225
          },
          {
            "pitch": 35,
            "start": 20.24772727272727,
            "end": 20.347727272727273,
            "velocity": 94,
            "duration": 0.10000000000000142
          },
          {
            "pitch": 37,
            "start": 20.270454545454545,
            "end": 20.370454545454546,
            "velocity": 95,
            "duration": 0.10000000000000142
          },
          {
            "pitch": 37,
            "start": 20.318181818181817,
            "end": 20.370454545454546,
            "velocity": 70,
            "duration": 0.05227272727272947
          },
          {
            "pitch": 37,
            "start": 20.411363636363635,
            "end": 20.418181818181818,
            "velocity": 78,
            "duration": 0.0068181818181827225
          },
          {
            "pitch": 37,
            "start": 20.456818181818182,
            "end": 20.511363636363637,
            "velocity": 68,
            "duration": 0.054545454545454675
          },
          {
            "pitch": 37,
            "start": 20.55,
            "end": 20.55681818181818,
            "velocity": 65,
            "duration": 0.00681818181817917
          },
          {
            "pitch": 51,
            "start": 20.502272727272725,
            "end": 20.602272727272727,
            "velocity": 70,
            "duration": 0.10000000000000142
          },
          {
            "pitch": 37,
            "start": 20.643181818181816,
            "end": 20.65,
            "velocity": 83,
            "duration": 0.0068181818181827225
          },
          {
            "pitch": 35,
            "start": 20.620454545454546,
            "end": 20.720454545454544,
            "velocity": 80,
            "duration": 0.09999999999999787
          },
          {
            "pitch": 37,
            "start": 20.736363636363635,
            "end": 20.743181818181817,
            "velocity": 70,
            "duration": 0.0068181818181827225
          },
          {
            "pitch": 51,
            "start": 20.78181818181818,
            "end": 20.88181818181818,
            "velocity": 71,
            "duration": 0.09999999999999787
          },
          {
            "pitch": 51,
            "start": 20.875,
            "end": 20.88181818181818,
            "velocity": 76,
            "duration": 0.00681818181817917
          },
          {
            "pitch": 37,
            "start": 20.852272727272727,
            "end": 20.952272727272724,
            "velocity": 65,
            "duration": 0.09999999999999787
          },
          {
            "pitch": 37,
            "start": 20.897727272727273,
            "end": 20.952272727272724,
            "velocity": 67,
            "duration": 0.05454545454545112
          },
          {
            "pitch": 35,
            "start": 20.875,
            "end": 20.974999999999998,
            "velocity": 93,
            "duration": 0.09999999999999787
          },
          {
            "pitch": 35,
            "start": 20.99090909090909,
            "end": 21.09090909090909,
            "velocity": 70,
            "duration": 0.10000000000000142
          },
          {
            "pitch": 37,
            "start": 21.013636363636362,
            "end": 21.113636363636363,
            "velocity": 65,
            "duration": 0.10000000000000142
          },
          {
            "pitch": 45,
            "start": 21.084090909090907,
            "end": 21.18409090909091,
            "velocity": 63,
            "duration": 0.10000000000000142
          },
          {
            "pitch": 35,
            "start": 21.245454545454546,
            "end": 21.345454545454544,
            "velocity": 78,
            "duration": 0.09999999999999787
          },
          {
            "pitch": 37,
            "start": 21.270454545454545,
            "end": 21.370454545454546,
            "velocity": 87,
            "duration": 0.10000000000000142
          },
          {
            "pitch": 37,
            "start": 21.33863636363636,
            "end": 21.370454545454546,
            "velocity": 71,
            "duration": 0.031818181818184854
          },
          {
            "pitch": 37,
            "start": 21.454545454545453,
            "end": 21.554545454545455,
            "velocity": 75,
            "duration": 0.10000000000000142
          }
        ],
        "melodic_notes": [],
        "instruments": [
          {
            "program": "0",
            "is_drum": true,
            "name": "",
            "note_count": 694
          }
        ],
        "duration": 21.554545454545455,
        "tempo_changes": 0
      },
      {
        "file_path": "/home/matt/Documents/drum-tranxn/drum-transcription-api/test_audio/debug_output.mid",
        "total_notes": 694,
        "drum_notes": [
          {
            "pitch": 35,
            "start": 0.07045454545454545,
            "end": 0.12045454545454545,
            "velocity": 126,
            "duration": 0.05
          },
          {
            "pitch": 51,
            "start": 0.07045454545454545,
            "end": 0.12045454545454545,
            "velocity": 109,
            "duration": 0.05
          },
          {
            "pitch": 42,
            "start": 0.09318181818181817,
            "end": 0.1431818181818182,
            "velocity": 104,
            "duration": 0.05000000000000002
          },
          {
            "pitch": 45,
            "start": 0.09318181818181817,
            "end": 0.1431818181818182,
            "velocity": 64,
            "duration": 0.05000000000000002
          },
          {
            "pitch": 35,
            "start": 0.16363636363636364,
            "end": 0.21363636363636362,
            "velocity": 100,
            "duration": 0.04999999999999999
          },
          {
            "pitch": 51,
            "start": 0.16363636363636364,
            "end": 0.21363636363636362,
            "velocity": 112,
            "duration": 0.04999999999999999
          },
          {
            "pitch": 41,
            "start": 0.18636363636363634,
            "end": 0.23636363636363636,
            "velocity": 75,
            "duration": 0.05000000000000002
          },
          {
            "pitch": 42,
            "start": 0.18636363636363634,
            "end": 0.23636363636363636,
            "velocity": 70,
            "duration": 0.05000000000000002
          },
          {
            "pitch": 35,
            "start": 0.2545454545454545,
            "end": 0.3045454545454545,
            "velocity": 120,
            "duration": 0.04999999999999999
          },
          {
            "pitch": 41,
            "start": 0.2545454545454545,
            "end": 0.3045454545454545,
            "velocity": 79,
            "duration": 0.04999999999999999
          },
          {
            "pitch": 42,
            "start": 0.2545454545454545,
            "end": 0.3045454545454545,
            "velocity": 106,
            "duration": 0.04999999999999999
          },
          {
            "pitch": 51,
            "start": 0.2545454545454545,
            "end": 0.3045454545454545,
            "velocity": 113,
            "duration": 0.04999999999999999
          },
          {
            "pitch": 51,
            "start": 0.3477272727272727,
            "end": 0.3977272727272727,
            "velocity": 114,
            "duration": 0.04999999999999999
          },
          {
            "pitch": 35,
            "start": 0.3704545454545454,
            "end": 0.4204545454545454,
            "velocity": 102,
            "duration": 0.04999999999999999
          },
          {
            "pitch": 41,
            "start": 0.3704545454545454,
            "end": 0.4204545454545454,
            "velocity": 81,
            "duration": 0.04999999999999999
          },
          {
            "pitch": 42,
            "start": 0.3704545454545454,
            "end": 0.4204545454545454,
            "velocity": 78,
            "duration": 0.04999999999999999
          },
          {
            "pitch": 45,
            "start": 0.3704545454545454,
            "end": 0.4204545454545454,
            "velocity": 63,
            "duration": 0.04999999999999999
          },
          {
            "pitch": 35,
            "start": 0.44090909090909086,
            "end": 0.4909090909090909,
            "velocity": 106,
            "duration": 0.050000000000000044
          },
          {
            "pitch": 41,
            "start": 0.44090909090909086,
            "end": 0.4909090909090909,
            "velocity": 75,
            "duration": 0.050000000000000044
          },
          {
            "pitch": 51,
            "start": 0.44090909090909086,
            "end": 0.4909090909090909,
            "velocity": 88,
            "duration": 0.050000000000000044
          },
          {
            "pitch": 37,
            "start": 0.4636363636363636,
            "end": 0.5136363636363636,
            "velocity": 78,
            "duration": 0.04999999999999993
          },
          {
            "pitch": 35,
            "start": 0.5113636363636364,
            "end": 0.5613636363636363,
            "velocity": 123,
            "duration": 0.04999999999999993
          },
          {
            "pitch": 41,
            "start": 0.5340909090909091,
            "end": 0.5840909090909091,
            "velocity": 67,
            "duration": 0.050000000000000044
          },
          {
            "pitch": 51,
            "start": 0.5340909090909091,
            "end": 0.5840909090909091,
            "velocity": 111,
            "duration": 0.050000000000000044
          },
          {
            "pitch": 42,
            "start": 0.5568181818181818,
            "end": 0.6068181818181818,
            "velocity": 80,
            "duration": 0.050000000000000044
          },
          {
            "pitch": 35,
            "start": 0.6272727272727272,
            "end": 0.6772727272727272,
            "velocity": 112,
            "duration": 0.050000000000000044
          },
          {
            "pitch": 42,
            "start": 0.6272727272727272,
            "end": 0.6772727272727272,
            "velocity": 118,
            "duration": 0.050000000000000044
          },
          {
            "pitch": 45,
            "start": 0.6272727272727272,
            "end": 0.6772727272727272,
            "velocity": 71,
            "duration": 0.050000000000000044
          },
          {
            "pitch": 51,
            "start": 0.6272727272727272,
            "end": 0.6772727272727272,
            "velocity": 103,
            "duration": 0.050000000000000044
          },
          {
            "pitch": 41,
            "start": 0.65,
            "end": 0.7,
            "velocity": 103,
            "duration": 0.04999999999999993
          },
          {
            "pitch": 35,
            "start": 0.6977272727272726,
            "end": 0.7477272727272727,
            "velocity": 88,
            "duration": 0.050000000000000044
          },
          {
            "pitch": 41,
            "start": 0.7204545454545455,
            "end": 0.7704545454545454,
            "velocity": 75,
            "duration": 0.04999999999999993
          },
          {
            "pitch": 51,
            "start": 0.7204545454545455,
            "end": 0.7704545454545454,
            "velocity": 113,
            "duration": 0.04999999999999993
          },
          {
            "pitch": 51,
            "start": 0.7886363636363636,
            "end": 0.8386363636363636,
            "velocity": 110,
            "duration": 0.050000000000000044
          },
          {
            "pitch": 35,
            "start": 0.8136363636363636,
            "end": 0.8636363636363636,
            "velocity": 121,
            "duration": 0.050000000000000044
          },
          {
            "pitch": 42,
            "start": 0.8136363636363636,
            "end": 0.8636363636363636,
            "velocity": 113,
            "duration": 0.050000000000000044
          },
          {
            "pitch": 35,
            "start": 0.8818181818181817,
            "end": 0.9318181818181818,
            "velocity": 121,
            "duration": 0.050000000000000044
          },
          {
            "pitch": 51,
            "start": 0.9045454545454545,
            "end": 0.9545454545454545,
            "velocity": 84,
            "duration": 0.04999999999999993
          },
          {
            "pitch": 35,
            "start": 0.9522727272727273,
            "end": 1.0022727272727272,
            "velocity": 89,
            "duration": 0.04999999999999993
          },
          {
            "pitch": 42,
            "start": 0.975,
            "end": 1.025,
            "velocity": 85,
            "duration": 0.04999999999999993
          },
          {
            "pitch": 51,
            "start": 0.975,
            "end": 1.025,
            "velocity": 101,
            "duration": 0.04999999999999993
          },
          {
            "pitch": 41,
            "start": 0.9977272727272727,
            "end": 1.0477272727272726,
            "velocity": 81,
            "duration": 0.04999999999999993
          },
          {
            "pitch": 35,
            "start": 1.0681818181818181,
            "end": 1.1181818181818182,
            "velocity": 89,
            "duration": 0.050000000000000044
          },
          {
            "pitch": 41,
            "start": 1.0681818181818181,
            "end": 1.1181818181818182,
            "velocity": 74,
            "duration": 0.050000000000000044
          },
          {
            "pitch": 42,
            "start": 1.0681818181818181,
            "end": 1.1181818181818182,
            "velocity": 91,
            "duration": 0.050000000000000044
          },
          {
            "pitch": 51,
            "start": 1.0681818181818181,
            "end": 1.1181818181818182,
            "velocity": 72,
            "duration": 0.050000000000000044
          },
          {
            "pitch": 51,
            "start": 1.1613636363636364,
            "end": 1.2113636363636362,
            "velocity": 94,
            "duration": 0.04999999999999982
          },
          {
            "pitch": 42,
            "start": 1.184090909090909,
            "end": 1.2340909090909091,
            "velocity": 73,
            "duration": 0.050000000000000044
          },
          {
            "pitch": 35,
            "start": 1.2545454545454544,
            "end": 1.3045454545454545,
            "velocity": 122,
            "duration": 0.050000000000000044
          },
          {
            "pitch": 42,
            "start": 1.2545454545454544,
            "end": 1.3045454545454545,
            "velocity": 70,
            "duration": 0.050000000000000044
          },
          {
            "pitch": 51,
            "start": 1.2545454545454544,
            "end": 1.3045454545454545,
            "velocity": 105,
            "duration": 0.050000000000000044
          },
          {
            "pitch": 51,
            "start": 1.3477272727272727,
            "end": 1.3977272727272727,
            "velocity": 89,
            "duration": 0.050000000000000044
          },
          {
            "pitch": 37,
            "start": 1.393181818181818,
            "end": 1.4431818181818181,
            "velocity": 113,
            "duration": 0.050000000000000044
          },
          {
            "pitch": 41,
            "start": 1.4159090909090908,
            "end": 1.4659090909090908,
            "velocity": 77,
            "duration": 0.050000000000000044
          },
          {
            "pitch": 35,
            "start": 1.4386363636363635,
            "end": 1.4886363636363635,
            "velocity": 122,
            "duration": 0.050000000000000044
          },
          {
            "pitch": 42,
            "start": 1.4386363636363635,
            "end": 1.4886363636363635,
            "velocity": 89,
            "duration": 0.050000000000000044
          },
          {
            "pitch": 51,
            "start": 1.4386363636363635,
            "end": 1.4886363636363635,
            "velocity": 85,
            "duration": 0.050000000000000044
          },
          {
            "pitch": 37,
            "start": 1.4863636363636363,
            "end": 1.5363636363636364,
            "velocity": 70,
            "duration": 0.050000000000000044
          },
          {
            "pitch": 35,
            "start": 1.509090909090909,
            "end": 1.559090909090909,
            "velocity": 115,
            "duration": 0.050000000000000044
          },
          {
            "pitch": 51,
            "start": 1.5318181818181817,
            "end": 1.5818181818181818,
            "velocity": 91,
            "duration": 0.050000000000000044
          },
          {
            "pitch": 42,
            "start": 1.5568181818181817,
            "end": 1.6068181818181817,
            "velocity": 92,
            "duration": 0.050000000000000044
          },
          {
            "pitch": 45,
            "start": 1.5795454545454544,
            "end": 1.6295454545454544,
            "velocity": 97,
            "duration": 0.050000000000000044
          },
          {
            "pitch": 35,
            "start": 1.625,
            "end": 1.6749999999999998,
            "velocity": 121,
            "duration": 0.04999999999999982
          },
          {
            "pitch": 41,
            "start": 1.625,
            "end": 1.6749999999999998,
            "velocity": 71,
            "duration": 0.04999999999999982
          },
          {
            "pitch": 42,
            "start": 1.625,
            "end": 1.6749999999999998,
            "velocity": 96,
            "duration": 0.04999999999999982
          },
          {
            "pitch": 51,
            "start": 1.625,
            "end": 1.6749999999999998,
            "velocity": 108,
            "duration": 0.04999999999999982
          },
          {
            "pitch": 35,
            "start": 1.6954545454545453,
            "end": 1.7454545454545454,
            "velocity": 72,
            "duration": 0.050000000000000044
          },
          {
            "pitch": 42,
            "start": 1.6954545454545453,
            "end": 1.7454545454545454,
            "velocity": 81,
            "duration": 0.050000000000000044
          },
          {
            "pitch": 51,
            "start": 1.6954545454545453,
            "end": 1.7454545454545454,
            "velocity": 70,
            "duration": 0.050000000000000044
          },
          {
            "pitch": 41,
            "start": 1.718181818181818,
            "end": 1.768181818181818,
            "velocity": 95,
            "duration": 0.050000000000000044
          },
          {
            "pitch": 51,
            "start": 1.7886363636363636,
            "end": 1.8386363636363636,
            "velocity": 105,
            "duration": 0.050000000000000044
          },
          {
            "pitch": 35,
            "start": 1.8113636363636363,
            "end": 1.8613636363636363,
            "velocity": 119,
            "duration": 0.050000000000000044
          },
          {
            "pitch": 42,
            "start": 1.8113636363636363,
            "end": 1.8613636363636363,
            "velocity": 102,
            "duration": 0.050000000000000044
          },
          {
            "pitch": 37,
            "start": 1.834090909090909,
            "end": 1.884090909090909,
            "velocity": 89,
            "duration": 0.050000000000000044
          },
          {
            "pitch": 35,
            "start": 1.8818181818181818,
            "end": 1.9318181818181817,
            "velocity": 121,
            "duration": 0.04999999999999982
          },
          {
            "pitch": 51,
            "start": 1.8818181818181818,
            "end": 1.9318181818181817,
            "velocity": 104,
            "duration": 0.04999999999999982
          },
          {
            "pitch": 42,
            "start": 1.9045454545454545,
            "end": 1.9545454545454544,
            "velocity": 95,
            "duration": 0.04999999999999982
          },
          {
            "pitch": 35,
            "start": 1.9727272727272727,
            "end": 2.0227272727272725,
            "velocity": 96,
            "duration": 0.04999999999999982
          },
          {
            "pitch": 51,
            "start": 1.9727272727272727,
            "end": 2.0227272727272725,
            "velocity": 83,
            "duration": 0.04999999999999982
          },
          {
            "pitch": 42,
            "start": 1.9977272727272726,
            "end": 2.047727272727273,
            "velocity": 78,
            "duration": 0.050000000000000266
          },
          {
            "pitch": 37,
            "start": 2.0204545454545455,
            "end": 2.0704545454545453,
            "velocity": 80,
            "duration": 0.04999999999999982
          },
          {
            "pitch": 35,
            "start": 2.065909090909091,
            "end": 2.1159090909090907,
            "velocity": 85,
            "duration": 0.04999999999999982
          },
          {
            "pitch": 51,
            "start": 2.065909090909091,
            "end": 2.1159090909090907,
            "velocity": 75,
            "duration": 0.04999999999999982
          },
          {
            "pitch": 35,
            "start": 2.1363636363636362,
            "end": 2.186363636363636,
            "velocity": 89,
            "duration": 0.04999999999999982
          },
          {
            "pitch": 41,
            "start": 2.159090909090909,
            "end": 2.209090909090909,
            "velocity": 90,
            "duration": 0.04999999999999982
          },
          {
            "pitch": 51,
            "start": 2.159090909090909,
            "end": 2.209090909090909,
            "velocity": 88,
            "duration": 0.04999999999999982
          },
          {
            "pitch": 42,
            "start": 2.1818181818181817,
            "end": 2.231818181818182,
            "velocity": 80,
            "duration": 0.050000000000000266
          },
          {
            "pitch": 35,
            "start": 2.252272727272727,
            "end": 2.3022727272727272,
            "velocity": 111,
            "duration": 0.050000000000000266
          },
          {
            "pitch": 41,
            "start": 2.252272727272727,
            "end": 2.3022727272727272,
            "velocity": 87,
            "duration": 0.050000000000000266
          },
          {
            "pitch": 42,
            "start": 2.252272727272727,
            "end": 2.3022727272727272,
            "velocity": 79,
            "duration": 0.050000000000000266
          },
          {
            "pitch": 51,
            "start": 2.252272727272727,
            "end": 2.3022727272727272,
            "velocity": 93,
            "duration": 0.050000000000000266
          },
          {
            "pitch": 37,
            "start": 2.275,
            "end": 2.3249999999999997,
            "velocity": 80,
            "duration": 0.04999999999999982
          },
          {
            "pitch": 37,
            "start": 2.3454545454545452,
            "end": 2.3954545454545455,
            "velocity": 73,
            "duration": 0.050000000000000266
          },
          {
            "pitch": 37,
            "start": 2.3909090909090907,
            "end": 2.3954545454545455,
            "velocity": 99,
            "duration": 0.004545454545454852
          },
          {
            "pitch": 51,
            "start": 2.3454545454545452,
            "end": 2.3954545454545455,
            "velocity": 94,
            "duration": 0.050000000000000266
          },
          {
            "pitch": 35,
            "start": 2.368181818181818,
            "end": 2.418181818181818,
            "velocity": 82,
            "duration": 0.04999999999999982
          },
          {
            "pitch": 42,
            "start": 2.368181818181818,
            "end": 2.418181818181818,
            "velocity": 116,
            "duration": 0.04999999999999982
          },
          {
            "pitch": 35,
            "start": 2.4386363636363635,
            "end": 2.4886363636363633,
            "velocity": 118,
            "duration": 0.04999999999999982
          },
          {
            "pitch": 42,
            "start": 2.4386363636363635,
            "end": 2.4886363636363633,
            "velocity": 83,
            "duration": 0.04999999999999982
          },
          {
            "pitch": 51,
            "start": 2.4386363636363635,
            "end": 2.4886363636363633,
            "velocity": 96,
            "duration": 0.04999999999999982
          },
          {
            "pitch": 37,
            "start": 2.484090909090909,
            "end": 2.534090909090909,
            "velocity": 74,
            "duration": 0.050000000000000266
          },
          {
            "pitch": 35,
            "start": 2.506818181818182,
            "end": 2.5568181818181817,
            "velocity": 109,
            "duration": 0.04999999999999982
          },
          {
            "pitch": 51,
            "start": 2.506818181818182,
            "end": 2.5568181818181817,
            "velocity": 88,
            "duration": 0.04999999999999982
          },
          {
            "pitch": 35,
            "start": 2.6227272727272726,
            "end": 2.6727272727272724,
            "velocity": 100,
            "duration": 0.04999999999999982
          },
          {
            "pitch": 42,
            "start": 2.6227272727272726,
            "end": 2.6727272727272724,
            "velocity": 107,
            "duration": 0.04999999999999982
          },
          {
            "pitch": 51,
            "start": 2.6227272727272726,
            "end": 2.6727272727272724,
            "velocity": 96,
            "duration": 0.04999999999999982
          },
          {
            "pitch": 41,
            "start": 2.6477272727272725,
            "end": 2.6977272727272728,
            "velocity": 89,
            "duration": 0.050000000000000266
          },
          {
            "pitch": 35,
            "start": 2.693181818181818,
            "end": 2.743181818181818,
            "velocity": 73,
            "duration": 0.050000000000000266
          },
          {
            "pitch": 42,
            "start": 2.693181818181818,
            "end": 2.743181818181818,
            "velocity": 100,
            "duration": 0.050000000000000266
          },
          {
            "pitch": 51,
            "start": 2.693181818181818,
            "end": 2.743181818181818,
            "velocity": 81,
            "duration": 0.050000000000000266
          },
          {
            "pitch": 35,
            "start": 2.786363636363636,
            "end": 2.8363636363636364,
            "velocity": 121,
            "duration": 0.050000000000000266
          },
          {
            "pitch": 51,
            "start": 2.786363636363636,
            "end": 2.8363636363636364,
            "velocity": 111,
            "duration": 0.050000000000000266
          },
          {
            "pitch": 42,
            "start": 2.809090909090909,
            "end": 2.859090909090909,
            "velocity": 104,
            "duration": 0.04999999999999982
          },
          {
            "pitch": 35,
            "start": 2.8795454545454544,
            "end": 2.9295454545454542,
            "velocity": 115,
            "duration": 0.04999999999999982
          },
          {
            "pitch": 42,
            "start": 2.8795454545454544,
            "end": 2.9295454545454542,
            "velocity": 89,
            "duration": 0.04999999999999982
          },
          {
            "pitch": 51,
            "start": 2.8795454545454544,
            "end": 2.9295454545454542,
            "velocity": 70,
            "duration": 0.04999999999999982
          },
          {
            "pitch": 37,
            "start": 2.925,
            "end": 2.9749999999999996,
            "velocity": 101,
            "duration": 0.04999999999999982
          },
          {
            "pitch": 37,
            "start": 2.9727272727272727,
            "end": 2.9749999999999996,
            "velocity": 94,
            "duration": 0.002272727272726982
          },
          {
            "pitch": 35,
            "start": 2.9499999999999997,
            "end": 3.0,
            "velocity": 74,
            "duration": 0.050000000000000266
          },
          {
            "pitch": 51,
            "start": 2.9727272727272727,
            "end": 3.0227272727272725,
            "velocity": 70,
            "duration": 0.04999999999999982
          },
          {
            "pitch": 42,
            "start": 2.995454545454545,
            "end": 3.0454545454545454,
            "velocity": 69,
            "duration": 0.050000000000000266
          },
          {
            "pitch": 41,
            "start": 3.0409090909090906,
            "end": 3.090909090909091,
            "velocity": 87,
            "duration": 0.050000000000000266
          },
          {
            "pitch": 35,
            "start": 3.065909090909091,
            "end": 3.1159090909090907,
            "velocity": 95,
            "duration": 0.04999999999999982
          },
          {
            "pitch": 42,
            "start": 3.065909090909091,
            "end": 3.1159090909090907,
            "velocity": 84,
            "duration": 0.04999999999999982
          },
          {
            "pitch": 51,
            "start": 3.065909090909091,
            "end": 3.1159090909090907,
            "velocity": 70,
            "duration": 0.04999999999999982
          },
          {
            "pitch": 41,
            "start": 3.1113636363636363,
            "end": 3.161363636363636,
            "velocity": 91,
            "duration": 0.04999999999999982
          },
          {
            "pitch": 42,
            "start": 3.1818181818181817,
            "end": 3.2318181818181815,
            "velocity": 80,
            "duration": 0.04999999999999982
          },
          {
            "pitch": 51,
            "start": 3.1818181818181817,
            "end": 3.2318181818181815,
            "velocity": 63,
            "duration": 0.04999999999999982
          },
          {
            "pitch": 37,
            "start": 3.227272727272727,
            "end": 3.277272727272727,
            "velocity": 64,
            "duration": 0.04999999999999982
          },
          {
            "pitch": 37,
            "start": 3.275,
            "end": 3.277272727272727,
            "velocity": 63,
            "duration": 0.002272727272726982
          },
          {
            "pitch": 35,
            "start": 3.25,
            "end": 3.3,
            "velocity": 119,
            "duration": 0.04999999999999982
          },
          {
            "pitch": 42,
            "start": 3.25,
            "end": 3.3,
            "velocity": 105,
            "duration": 0.04999999999999982
          },
          {
            "pitch": 51,
            "start": 3.25,
            "end": 3.3,
            "velocity": 91,
            "duration": 0.04999999999999982
          },
          {
            "pitch": 35,
            "start": 3.3204545454545453,
            "end": 3.370454545454545,
            "velocity": 81,
            "duration": 0.04999999999999982
          },
          {
            "pitch": 51,
            "start": 3.3204545454545453,
            "end": 3.370454545454545,
            "velocity": 72,
            "duration": 0.04999999999999982
          },
          {
            "pitch": 35,
            "start": 3.436363636363636,
            "end": 3.4863636363636363,
            "velocity": 121,
            "duration": 0.050000000000000266
          },
          {
            "pitch": 42,
            "start": 3.436363636363636,
            "end": 3.4863636363636363,
            "velocity": 105,
            "duration": 0.050000000000000266
          },
          {
            "pitch": 51,
            "start": 3.436363636363636,
            "end": 3.4863636363636363,
            "velocity": 92,
            "duration": 0.050000000000000266
          },
          {
            "pitch": 37,
            "start": 3.459090909090909,
            "end": 3.509090909090909,
            "velocity": 71,
            "duration": 0.04999999999999982
          },
          {
            "pitch": 35,
            "start": 3.506818181818182,
            "end": 3.5568181818181817,
            "velocity": 107,
            "duration": 0.04999999999999982
          },
          {
            "pitch": 51,
            "start": 3.506818181818182,
            "end": 3.5568181818181817,
            "velocity": 93,
            "duration": 0.04999999999999982
          },
          {
            "pitch": 37,
            "start": 3.5522727272727272,
            "end": 3.602272727272727,
            "velocity": 92,
            "duration": 0.04999999999999982
          },
          {
            "pitch": 51,
            "start": 3.5999999999999996,
            "end": 3.65,
            "velocity": 98,
            "duration": 0.050000000000000266
          },
          {
            "pitch": 35,
            "start": 3.6227272727272726,
            "end": 3.6727272727272724,
            "velocity": 96,
            "duration": 0.04999999999999982
          },
          {
            "pitch": 42,
            "start": 3.6227272727272726,
            "end": 3.6727272727272724,
            "velocity": 100,
            "duration": 0.04999999999999982
          },
          {
            "pitch": 35,
            "start": 3.690909090909091,
            "end": 3.7409090909090907,
            "velocity": 78,
            "duration": 0.04999999999999982
          },
          {
            "pitch": 42,
            "start": 3.690909090909091,
            "end": 3.7409090909090907,
            "velocity": 97,
            "duration": 0.04999999999999982
          },
          {
            "pitch": 51,
            "start": 3.690909090909091,
            "end": 3.7409090909090907,
            "velocity": 85,
            "duration": 0.04999999999999982
          },
          {
            "pitch": 41,
            "start": 3.715909090909091,
            "end": 3.7659090909090907,
            "velocity": 68,
            "duration": 0.04999999999999982
          },
          {
            "pitch": 35,
            "start": 3.7613636363636362,
            "end": 3.811363636363636,
            "velocity": 82,
            "duration": 0.04999999999999982
          },
          {
            "pitch": 51,
            "start": 3.7840909090909087,
            "end": 3.834090909090909,
            "velocity": 91,
            "duration": 0.050000000000000266
          },
          {
            "pitch": 42,
            "start": 3.809090909090909,
            "end": 3.859090909090909,
            "velocity": 91,
            "duration": 0.04999999999999982
          },
          {
            "pitch": 35,
            "start": 3.877272727272727,
            "end": 3.9272727272727272,
            "velocity": 122,
            "duration": 0.050000000000000266
          },
          {
            "pitch": 37,
            "start": 3.877272727272727,
            "end": 3.9272727272727272,
            "velocity": 87,
            "duration": 0.050000000000000266
          },
          {
            "pitch": 37,
            "start": 3.925,
            "end": 3.9272727272727272,
            "velocity": 110,
            "duration": 0.002272727272727426
          },
          {
            "pitch": 42,
            "start": 3.877272727272727,
            "end": 3.9272727272727272,
            "velocity": 85,
            "duration": 0.050000000000000266
          },
          {
            "pitch": 51,
            "start": 3.877272727272727,
            "end": 3.9272727272727272,
            "velocity": 101,
            "duration": 0.050000000000000266
          },
          {
            "pitch": 37,
            "start": 3.9704545454545452,
            "end": 3.9749999999999996,
            "velocity": 85,
            "duration": 0.004545454545454408
          },
          {
            "pitch": 35,
            "start": 3.9477272727272728,
            "end": 3.9977272727272726,
            "velocity": 88,
            "duration": 0.04999999999999982
          },
          {
            "pitch": 37,
            "start": 4.018181818181818,
            "end": 4.0204545454545455,
            "velocity": 68,
            "duration": 0.0022727272727278702
          },
          {
            "pitch": 42,
            "start": 3.993181818181818,
            "end": 4.043181818181818,
            "velocity": 65,
            "duration": 0.04999999999999982
          },
          {
            "pitch": 35,
            "start": 4.0636363636363635,
            "end": 4.113636363636363,
            "velocity": 117,
            "duration": 0.04999999999999982
          },
          {
            "pitch": 42,
            "start": 4.0636363636363635,
            "end": 4.113636363636363,
            "velocity": 105,
            "duration": 0.04999999999999982
          },
          {
            "pitch": 51,
            "start": 4.0636363636363635,
            "end": 4.113636363636363,
            "velocity": 92,
            "duration": 0.04999999999999982
          },
          {
            "pitch": 37,
            "start": 4.1090909090909085,
            "end": 4.159090909090909,
            "velocity": 93,
            "duration": 0.05000000000000071
          },
          {
            "pitch": 35,
            "start": 4.134090909090909,
            "end": 4.184090909090909,
            "velocity": 92,
            "duration": 0.04999999999999982
          },
          {
            "pitch": 51,
            "start": 4.156818181818181,
            "end": 4.206818181818182,
            "velocity": 94,
            "duration": 0.05000000000000071
          },
          {
            "pitch": 35,
            "start": 4.25,
            "end": 4.3,
            "velocity": 124,
            "duration": 0.04999999999999982
          },
          {
            "pitch": 42,
            "start": 4.25,
            "end": 4.3,
            "velocity": 98,
            "duration": 0.04999999999999982
          },
          {
            "pitch": 51,
            "start": 4.25,
            "end": 4.3,
            "velocity": 108,
            "duration": 0.04999999999999982
          },
          {
            "pitch": 35,
            "start": 4.318181818181818,
            "end": 4.368181818181818,
            "velocity": 89,
            "duration": 0.04999999999999982
          },
          {
            "pitch": 42,
            "start": 4.318181818181818,
            "end": 4.368181818181818,
            "velocity": 67,
            "duration": 0.04999999999999982
          },
          {
            "pitch": 51,
            "start": 4.343181818181818,
            "end": 4.393181818181818,
            "velocity": 90,
            "duration": 0.04999999999999982
          },
          {
            "pitch": 51,
            "start": 4.411363636363636,
            "end": 4.461363636363636,
            "velocity": 78,
            "duration": 0.04999999999999982
          },
          {
            "pitch": 35,
            "start": 4.434090909090909,
            "end": 4.4840909090909085,
            "velocity": 106,
            "duration": 0.04999999999999982
          },
          {
            "pitch": 35,
            "start": 4.504545454545454,
            "end": 4.554545454545455,
            "velocity": 117,
            "duration": 0.05000000000000071
          },
          {
            "pitch": 51,
            "start": 4.504545454545454,
            "end": 4.554545454545455,
            "velocity": 102,
            "duration": 0.05000000000000071
          },
          {
            "pitch": 35,
            "start": 4.575,
            "end": 4.625,
            "velocity": 65,
            "duration": 0.04999999999999982
          },
          {
            "pitch": 35,
            "start": 4.620454545454545,
            "end": 4.625,
            "velocity": 78,
            "duration": 0.004545454545454852
          },
          {
            "pitch": 51,
            "start": 4.597727272727273,
            "end": 4.6477272727272725,
            "velocity": 76,
            "duration": 0.04999999999999982
          },
          {
            "pitch": 42,
            "start": 4.620454545454545,
            "end": 4.670454545454545,
            "velocity": 100,
            "duration": 0.04999999999999982
          },
          {
            "pitch": 37,
            "start": 4.643181818181818,
            "end": 4.693181818181818,
            "velocity": 95,
            "duration": 0.05000000000000071
          },
          {
            "pitch": 35,
            "start": 4.6909090909090905,
            "end": 4.74090909090909,
            "velocity": 111,
            "duration": 0.04999999999999982
          },
          {
            "pitch": 42,
            "start": 4.6909090909090905,
            "end": 4.74090909090909,
            "velocity": 89,
            "duration": 0.04999999999999982
          },
          {
            "pitch": 51,
            "start": 4.6909090909090905,
            "end": 4.74090909090909,
            "velocity": 69,
            "duration": 0.04999999999999982
          },
          {
            "pitch": 37,
            "start": 4.736363636363636,
            "end": 4.786363636363636,
            "velocity": 103,
            "duration": 0.04999999999999982
          },
          {
            "pitch": 35,
            "start": 4.759090909090909,
            "end": 4.809090909090909,
            "velocity": 81,
            "duration": 0.04999999999999982
          },
          {
            "pitch": 37,
            "start": 4.852272727272727,
            "end": 4.902272727272727,
            "velocity": 101,
            "duration": 0.05000000000000071
          },
          {
            "pitch": 35,
            "start": 4.877272727272727,
            "end": 4.927272727272727,
            "velocity": 117,
            "duration": 0.04999999999999982
          },
          {
            "pitch": 37,
            "start": 4.922727272727273,
            "end": 4.972727272727273,
            "velocity": 90,
            "duration": 0.04999999999999982
          },
          {
            "pitch": 35,
            "start": 4.945454545454545,
            "end": 4.995454545454545,
            "velocity": 90,
            "duration": 0.04999999999999982
          },
          {
            "pitch": 42,
            "start": 4.993181818181818,
            "end": 5.043181818181818,
            "velocity": 68,
            "duration": 0.04999999999999982
          },
          {
            "pitch": 37,
            "start": 5.015909090909091,
            "end": 5.0659090909090905,
            "velocity": 89,
            "duration": 0.04999999999999982
          },
          {
            "pitch": 35,
            "start": 5.0613636363636365,
            "end": 5.111363636363636,
            "velocity": 118,
            "duration": 0.04999999999999982
          },
          {
            "pitch": 42,
            "start": 5.0613636363636365,
            "end": 5.111363636363636,
            "velocity": 111,
            "duration": 0.04999999999999982
          },
          {
            "pitch": 51,
            "start": 5.0613636363636365,
            "end": 5.111363636363636,
            "velocity": 81,
            "duration": 0.04999999999999982
          },
          {
            "pitch": 37,
            "start": 5.1090909090909085,
            "end": 5.159090909090909,
            "velocity": 115,
            "duration": 0.05000000000000071
          },
          {
            "pitch": 35,
            "start": 5.131818181818182,
            "end": 5.181818181818182,
            "velocity": 91,
            "duration": 0.04999999999999982
          },
          {
            "pitch": 51,
            "start": 5.131818181818182,
            "end": 5.181818181818182,
            "velocity": 79,
            "duration": 0.04999999999999982
          },
          {
            "pitch": 45,
            "start": 5.154545454545454,
            "end": 5.204545454545454,
            "velocity": 70,
            "duration": 0.04999999999999982
          },
          {
            "pitch": 37,
            "start": 5.177272727272727,
            "end": 5.227272727272727,
            "velocity": 67,
            "duration": 0.04999999999999982
          },
          {
            "pitch": 51,
            "start": 5.225,
            "end": 5.2749999999999995,
            "velocity": 99,
            "duration": 0.04999999999999982
          },
          {
            "pitch": 35,
            "start": 5.247727272727272,
            "end": 5.297727272727273,
            "velocity": 102,
            "duration": 0.05000000000000071
          },
          {
            "pitch": 45,
            "start": 5.247727272727272,
            "end": 5.297727272727273,
            "velocity": 75,
            "duration": 0.05000000000000071
          },
          {
            "pitch": 45,
            "start": 5.293181818181818,
            "end": 5.297727272727273,
            "velocity": 85,
            "duration": 0.004545454545454852
          },
          {
            "pitch": 51,
            "start": 5.386363636363636,
            "end": 5.4363636363636365,
            "velocity": 70,
            "duration": 0.05000000000000071
          },
          {
            "pitch": 41,
            "start": 5.411363636363636,
            "end": 5.461363636363636,
            "velocity": 71,
            "duration": 0.04999999999999982
          },
          {
            "pitch": 35,
            "start": 5.502272727272727,
            "end": 5.552272727272727,
            "velocity": 91,
            "duration": 0.04999999999999982
          },
          {
            "pitch": 42,
            "start": 5.502272727272727,
            "end": 5.552272727272727,
            "velocity": 83,
            "duration": 0.04999999999999982
          },
          {
            "pitch": 51,
            "start": 5.502272727272727,
            "end": 5.552272727272727,
            "velocity": 86,
            "duration": 0.04999999999999982
          },
          {
            "pitch": 35,
            "start": 5.595454545454545,
            "end": 5.6454545454545455,
            "velocity": 111,
            "duration": 0.05000000000000071
          },
          {
            "pitch": 51,
            "start": 5.595454545454545,
            "end": 5.6454545454545455,
            "velocity": 88,
            "duration": 0.05000000000000071
          },
          {
            "pitch": 35,
            "start": 5.6886363636363635,
            "end": 5.738636363636363,
            "velocity": 123,
            "duration": 0.04999999999999982
          },
          {
            "pitch": 42,
            "start": 5.6886363636363635,
            "end": 5.738636363636363,
            "velocity": 101,
            "duration": 0.04999999999999982
          },
          {
            "pitch": 51,
            "start": 5.6886363636363635,
            "end": 5.738636363636363,
            "velocity": 101,
            "duration": 0.04999999999999982
          },
          {
            "pitch": 37,
            "start": 5.736363636363636,
            "end": 5.786363636363636,
            "velocity": 90,
            "duration": 0.04999999999999982
          },
          {
            "pitch": 35,
            "start": 5.759090909090909,
            "end": 5.809090909090909,
            "velocity": 89,
            "duration": 0.04999999999999982
          },
          {
            "pitch": 51,
            "start": 5.759090909090909,
            "end": 5.809090909090909,
            "velocity": 94,
            "duration": 0.04999999999999982
          },
          {
            "pitch": 37,
            "start": 5.852272727272727,
            "end": 5.902272727272727,
            "velocity": 109,
            "duration": 0.05000000000000071
          },
          {
            "pitch": 35,
            "start": 5.875,
            "end": 5.925,
            "velocity": 124,
            "duration": 0.04999999999999982
          },
          {
            "pitch": 42,
            "start": 5.875,
            "end": 5.925,
            "velocity": 108,
            "duration": 0.04999999999999982
          },
          {
            "pitch": 51,
            "start": 5.875,
            "end": 5.925,
            "velocity": 107,
            "duration": 0.04999999999999982
          },
          {
            "pitch": 35,
            "start": 5.9431818181818175,
            "end": 5.993181818181818,
            "velocity": 97,
            "duration": 0.05000000000000071
          },
          {
            "pitch": 51,
            "start": 5.9431818181818175,
            "end": 5.993181818181818,
            "velocity": 75,
            "duration": 0.05000000000000071
          },
          {
            "pitch": 51,
            "start": 5.99090909090909,
            "end": 5.993181818181818,
            "velocity": 65,
            "duration": 0.0022727272727278702
          },
          {
            "pitch": 37,
            "start": 5.968181818181818,
            "end": 6.018181818181818,
            "velocity": 71,
            "duration": 0.04999999999999982
          },
          {
            "pitch": 42,
            "start": 5.968181818181818,
            "end": 6.018181818181818,
            "velocity": 90,
            "duration": 0.04999999999999982
          },
          {
            "pitch": 51,
            "start": 6.036363636363636,
            "end": 6.040909090909091,
            "velocity": 77,
            "duration": 0.004545454545454852
          },
          {
            "pitch": 35,
            "start": 6.0613636363636365,
            "end": 6.111363636363636,
            "velocity": 103,
            "duration": 0.04999999999999982
          },
          {
            "pitch": 42,
            "start": 6.0613636363636365,
            "end": 6.111363636363636,
            "velocity": 107,
            "duration": 0.04999999999999982
          },
          {
            "pitch": 37,
            "start": 6.084090909090909,
            "end": 6.134090909090909,
            "velocity": 70,
            "duration": 0.04999999999999982
          },
          {
            "pitch": 35,
            "start": 6.129545454545454,
            "end": 6.179545454545455,
            "velocity": 113,
            "duration": 0.05000000000000071
          },
          {
            "pitch": 51,
            "start": 6.129545454545454,
            "end": 6.179545454545455,
            "velocity": 100,
            "duration": 0.05000000000000071
          },
          {
            "pitch": 51,
            "start": 6.222727272727273,
            "end": 6.2727272727272725,
            "velocity": 71,
            "duration": 0.04999999999999982
          },
          {
            "pitch": 51,
            "start": 6.2704545454545455,
            "end": 6.2727272727272725,
            "velocity": 77,
            "duration": 0.002272727272726982
          },
          {
            "pitch": 35,
            "start": 6.245454545454545,
            "end": 6.295454545454545,
            "velocity": 92,
            "duration": 0.04999999999999982
          },
          {
            "pitch": 42,
            "start": 6.245454545454545,
            "end": 6.295454545454545,
            "velocity": 98,
            "duration": 0.04999999999999982
          },
          {
            "pitch": 51,
            "start": 6.3159090909090905,
            "end": 6.320454545454545,
            "velocity": 84,
            "duration": 0.004545454545454852
          },
          {
            "pitch": 37,
            "start": 6.293181818181818,
            "end": 6.343181818181818,
            "velocity": 70,
            "duration": 0.04999999999999982
          },
          {
            "pitch": 35,
            "start": 6.3159090909090905,
            "end": 6.36590909090909,
            "velocity": 115,
            "duration": 0.04999999999999982
          },
          {
            "pitch": 42,
            "start": 6.3159090909090905,
            "end": 6.36590909090909,
            "velocity": 101,
            "duration": 0.04999999999999982
          },
          {
            "pitch": 37,
            "start": 6.361363636363636,
            "end": 6.411363636363636,
            "velocity": 94,
            "duration": 0.04999999999999982
          },
          {
            "pitch": 35,
            "start": 6.386363636363636,
            "end": 6.436363636363636,
            "velocity": 70,
            "duration": 0.04999999999999982
          },
          {
            "pitch": 35,
            "start": 6.431818181818182,
            "end": 6.436363636363636,
            "velocity": 76,
            "duration": 0.004545454545453964
          },
          {
            "pitch": 42,
            "start": 6.409090909090909,
            "end": 6.459090909090909,
            "velocity": 86,
            "duration": 0.04999999999999982
          },
          {
            "pitch": 51,
            "start": 6.409090909090909,
            "end": 6.459090909090909,
            "velocity": 95,
            "duration": 0.04999999999999982
          },
          {
            "pitch": 37,
            "start": 6.454545454545454,
            "end": 6.504545454545454,
            "velocity": 81,
            "duration": 0.04999999999999982
          },
          {
            "pitch": 35,
            "start": 6.502272727272727,
            "end": 6.552272727272727,
            "velocity": 124,
            "duration": 0.04999999999999982
          },
          {
            "pitch": 42,
            "start": 6.502272727272727,
            "end": 6.552272727272727,
            "velocity": 98,
            "duration": 0.04999999999999982
          },
          {
            "pitch": 51,
            "start": 6.502272727272727,
            "end": 6.552272727272727,
            "velocity": 107,
            "duration": 0.04999999999999982
          },
          {
            "pitch": 37,
            "start": 6.5249999999999995,
            "end": 6.574999999999999,
            "velocity": 92,
            "duration": 0.04999999999999982
          },
          {
            "pitch": 35,
            "start": 6.570454545454545,
            "end": 6.620454545454545,
            "velocity": 94,
            "duration": 0.04999999999999982
          },
          {
            "pitch": 51,
            "start": 6.595454545454545,
            "end": 6.6454545454545455,
            "velocity": 83,
            "duration": 0.05000000000000071
          },
          {
            "pitch": 35,
            "start": 6.686363636363636,
            "end": 6.736363636363636,
            "velocity": 120,
            "duration": 0.05000000000000071
          },
          {
            "pitch": 42,
            "start": 6.686363636363636,
            "end": 6.736363636363636,
            "velocity": 114,
            "duration": 0.05000000000000071
          },
          {
            "pitch": 51,
            "start": 6.686363636363636,
            "end": 6.736363636363636,
            "velocity": 98,
            "duration": 0.05000000000000071
          },
          {
            "pitch": 35,
            "start": 6.756818181818182,
            "end": 6.806818181818182,
            "velocity": 101,
            "duration": 0.04999999999999982
          },
          {
            "pitch": 42,
            "start": 6.756818181818182,
            "end": 6.806818181818182,
            "velocity": 64,
            "duration": 0.04999999999999982
          },
          {
            "pitch": 51,
            "start": 6.756818181818182,
            "end": 6.806818181818182,
            "velocity": 94,
            "duration": 0.04999999999999982
          },
          {
            "pitch": 37,
            "start": 6.85,
            "end": 6.8999999999999995,
            "velocity": 96,
            "duration": 0.04999999999999982
          },
          {
            "pitch": 35,
            "start": 6.872727272727272,
            "end": 6.922727272727272,
            "velocity": 114,
            "duration": 0.04999999999999982
          },
          {
            "pitch": 42,
            "start": 6.872727272727272,
            "end": 6.922727272727272,
            "velocity": 90,
            "duration": 0.04999999999999982
          },
          {
            "pitch": 51,
            "start": 6.872727272727272,
            "end": 6.922727272727272,
            "velocity": 99,
            "duration": 0.04999999999999982
          },
          {
            "pitch": 35,
            "start": 6.9431818181818175,
            "end": 6.993181818181818,
            "velocity": 114,
            "duration": 0.05000000000000071
          },
          {
            "pitch": 42,
            "start": 6.9431818181818175,
            "end": 6.993181818181818,
            "velocity": 88,
            "duration": 0.05000000000000071
          },
          {
            "pitch": 51,
            "start": 6.9431818181818175,
            "end": 6.993181818181818,
            "velocity": 98,
            "duration": 0.05000000000000071
          },
          {
            "pitch": 51,
            "start": 6.988636363636363,
            "end": 6.993181818181818,
            "velocity": 74,
            "duration": 0.004545454545454852
          },
          {
            "pitch": 51,
            "start": 7.036363636363636,
            "end": 7.038636363636363,
            "velocity": 87,
            "duration": 0.002272727272726982
          },
          {
            "pitch": 35,
            "start": 7.059090909090909,
            "end": 7.1090909090909085,
            "velocity": 72,
            "duration": 0.04999999999999982
          },
          {
            "pitch": 42,
            "start": 7.059090909090909,
            "end": 7.1090909090909085,
            "velocity": 99,
            "duration": 0.04999999999999982
          },
          {
            "pitch": 37,
            "start": 7.081818181818181,
            "end": 7.131818181818182,
            "velocity": 95,
            "duration": 0.05000000000000071
          },
          {
            "pitch": 35,
            "start": 7.129545454545454,
            "end": 7.179545454545454,
            "velocity": 122,
            "duration": 0.04999999999999982
          },
          {
            "pitch": 42,
            "start": 7.129545454545454,
            "end": 7.179545454545454,
            "velocity": 80,
            "duration": 0.04999999999999982
          },
          {
            "pitch": 51,
            "start": 7.129545454545454,
            "end": 7.179545454545454,
            "velocity": 107,
            "duration": 0.04999999999999982
          },
          {
            "pitch": 37,
            "start": 7.220454545454545,
            "end": 7.2704545454545455,
            "velocity": 67,
            "duration": 0.05000000000000071
          },
          {
            "pitch": 37,
            "start": 7.268181818181818,
            "end": 7.2704545454545455,
            "velocity": 83,
            "duration": 0.0022727272727278702
          },
          {
            "pitch": 51,
            "start": 7.220454545454545,
            "end": 7.2704545454545455,
            "velocity": 82,
            "duration": 0.05000000000000071
          },
          {
            "pitch": 35,
            "start": 7.245454545454545,
            "end": 7.295454545454545,
            "velocity": 76,
            "duration": 0.04999999999999982
          },
          {
            "pitch": 42,
            "start": 7.245454545454545,
            "end": 7.295454545454545,
            "velocity": 101,
            "duration": 0.04999999999999982
          },
          {
            "pitch": 35,
            "start": 7.3136363636363635,
            "end": 7.363636363636363,
            "velocity": 121,
            "duration": 0.04999999999999982
          },
          {
            "pitch": 42,
            "start": 7.3136363636363635,
            "end": 7.363636363636363,
            "velocity": 112,
            "duration": 0.04999999999999982
          },
          {
            "pitch": 51,
            "start": 7.3136363636363635,
            "end": 7.363636363636363,
            "velocity": 94,
            "duration": 0.04999999999999982
          },
          {
            "pitch": 37,
            "start": 7.338636363636363,
            "end": 7.388636363636364,
            "velocity": 93,
            "duration": 0.05000000000000071
          },
          {
            "pitch": 35,
            "start": 7.384090909090909,
            "end": 7.434090909090909,
            "velocity": 79,
            "duration": 0.04999999999999982
          },
          {
            "pitch": 42,
            "start": 7.406818181818181,
            "end": 7.456818181818181,
            "velocity": 101,
            "duration": 0.04999999999999982
          },
          {
            "pitch": 51,
            "start": 7.406818181818181,
            "end": 7.456818181818181,
            "velocity": 97,
            "duration": 0.04999999999999982
          },
          {
            "pitch": 37,
            "start": 7.454545454545454,
            "end": 7.504545454545454,
            "velocity": 68,
            "duration": 0.04999999999999982
          },
          {
            "pitch": 35,
            "start": 7.5,
            "end": 7.55,
            "velocity": 125,
            "duration": 0.04999999999999982
          },
          {
            "pitch": 42,
            "start": 7.5,
            "end": 7.55,
            "velocity": 114,
            "duration": 0.04999999999999982
          },
          {
            "pitch": 51,
            "start": 7.5,
            "end": 7.55,
            "velocity": 103,
            "duration": 0.04999999999999982
          },
          {
            "pitch": 45,
            "start": 7.5227272727272725,
            "end": 7.572727272727272,
            "velocity": 66,
            "duration": 0.04999999999999982
          },
          {
            "pitch": 37,
            "start": 7.545454545454545,
            "end": 7.595454545454545,
            "velocity": 66,
            "duration": 0.04999999999999982
          },
          {
            "pitch": 35,
            "start": 7.570454545454545,
            "end": 7.620454545454545,
            "velocity": 101,
            "duration": 0.04999999999999982
          },
          {
            "pitch": 51,
            "start": 7.570454545454545,
            "end": 7.620454545454545,
            "velocity": 86,
            "duration": 0.04999999999999982
          },
          {
            "pitch": 42,
            "start": 7.593181818181818,
            "end": 7.643181818181818,
            "velocity": 88,
            "duration": 0.04999999999999982
          },
          {
            "pitch": 51,
            "start": 7.663636363636363,
            "end": 7.713636363636363,
            "velocity": 99,
            "duration": 0.04999999999999982
          },
          {
            "pitch": 42,
            "start": 7.686363636363636,
            "end": 7.736363636363636,
            "velocity": 90,
            "duration": 0.05000000000000071
          },
          {
            "pitch": 35,
            "start": 7.709090909090909,
            "end": 7.759090909090909,
            "velocity": 77,
            "duration": 0.04999999999999982
          },
          {
            "pitch": 35,
            "start": 7.754545454545454,
            "end": 7.759090909090909,
            "velocity": 65,
            "duration": 0.004545454545454852
          },
          {
            "pitch": 51,
            "start": 7.754545454545454,
            "end": 7.804545454545454,
            "velocity": 95,
            "duration": 0.04999999999999982
          },
          {
            "pitch": 51,
            "start": 7.847727272727273,
            "end": 7.8977272727272725,
            "velocity": 100,
            "duration": 0.04999999999999982
          },
          {
            "pitch": 35,
            "start": 7.870454545454545,
            "end": 7.920454545454545,
            "velocity": 97,
            "duration": 0.04999999999999982
          },
          {
            "pitch": 42,
            "start": 7.870454545454545,
            "end": 7.920454545454545,
            "velocity": 91,
            "duration": 0.04999999999999982
          },
          {
            "pitch": 51,
            "start": 7.9409090909090905,
            "end": 7.99090909090909,
            "velocity": 73,
            "duration": 0.04999999999999982
          },
          {
            "pitch": 51,
            "start": 7.988636363636363,
            "end": 7.99090909090909,
            "velocity": 79,
            "duration": 0.002272727272726982
          },
          {
            "pitch": 42,
            "start": 7.963636363636363,
            "end": 8.013636363636364,
            "velocity": 79,
            "duration": 0.05000000000000071
          },
          {
            "pitch": 51,
            "start": 8.034090909090908,
            "end": 8.038636363636364,
            "velocity": 94,
            "duration": 0.0045454545454557405
          },
          {
            "pitch": 42,
            "start": 8.056818181818182,
            "end": 8.10681818181818,
            "velocity": 97,
            "duration": 0.049999999999998934
          },
          {
            "pitch": 51,
            "start": 8.104545454545454,
            "end": 8.154545454545454,
            "velocity": 76,
            "duration": 0.05000000000000071
          },
          {
            "pitch": 42,
            "start": 8.127272727272727,
            "end": 8.177272727272728,
            "velocity": 93,
            "duration": 0.05000000000000071
          },
          {
            "pitch": 41,
            "start": 8.15,
            "end": 8.2,
            "velocity": 79,
            "duration": 0.049999999999998934
          },
          {
            "pitch": 51,
            "start": 8.220454545454546,
            "end": 8.270454545454545,
            "velocity": 100,
            "duration": 0.049999999999998934
          },
          {
            "pitch": 35,
            "start": 8.243181818181817,
            "end": 8.293181818181818,
            "velocity": 74,
            "duration": 0.05000000000000071
          },
          {
            "pitch": 51,
            "start": 8.288636363636364,
            "end": 8.338636363636363,
            "velocity": 92,
            "duration": 0.049999999999998934
          },
          {
            "pitch": 35,
            "start": 8.313636363636363,
            "end": 8.363636363636363,
            "velocity": 82,
            "duration": 0.05000000000000071
          },
          {
            "pitch": 42,
            "start": 8.313636363636363,
            "end": 8.363636363636363,
            "velocity": 107,
            "duration": 0.05000000000000071
          },
          {
            "pitch": 42,
            "start": 8.404545454545454,
            "end": 8.454545454545453,
            "velocity": 69,
            "duration": 0.049999999999998934
          },
          {
            "pitch": 51,
            "start": 8.404545454545454,
            "end": 8.454545454545453,
            "velocity": 73,
            "duration": 0.049999999999998934
          },
          {
            "pitch": 51,
            "start": 8.475,
            "end": 8.525,
            "velocity": 82,
            "duration": 0.05000000000000071
          },
          {
            "pitch": 35,
            "start": 8.497727272727273,
            "end": 8.547727272727272,
            "velocity": 90,
            "duration": 0.049999999999998934
          },
          {
            "pitch": 42,
            "start": 8.497727272727273,
            "end": 8.547727272727272,
            "velocity": 77,
            "duration": 0.049999999999998934
          },
          {
            "pitch": 41,
            "start": 8.522727272727272,
            "end": 8.572727272727272,
            "velocity": 68,
            "duration": 0.05000000000000071
          },
          {
            "pitch": 42,
            "start": 8.59090909090909,
            "end": 8.64090909090909,
            "velocity": 79,
            "duration": 0.05000000000000071
          },
          {
            "pitch": 51,
            "start": 8.661363636363635,
            "end": 8.711363636363636,
            "velocity": 79,
            "duration": 0.05000000000000071
          },
          {
            "pitch": 35,
            "start": 8.684090909090909,
            "end": 8.73409090909091,
            "velocity": 86,
            "duration": 0.05000000000000071
          },
          {
            "pitch": 42,
            "start": 8.684090909090909,
            "end": 8.73409090909091,
            "velocity": 91,
            "duration": 0.05000000000000071
          },
          {
            "pitch": 41,
            "start": 8.73181818181818,
            "end": 8.781818181818181,
            "velocity": 75,
            "duration": 0.05000000000000071
          },
          {
            "pitch": 41,
            "start": 8.777272727272727,
            "end": 8.781818181818181,
            "velocity": 66,
            "duration": 0.004545454545453964
          },
          {
            "pitch": 35,
            "start": 8.754545454545454,
            "end": 8.804545454545455,
            "velocity": 106,
            "duration": 0.05000000000000071
          },
          {
            "pitch": 51,
            "start": 8.754545454545454,
            "end": 8.804545454545455,
            "velocity": 94,
            "duration": 0.05000000000000071
          },
          {
            "pitch": 42,
            "start": 8.777272727272727,
            "end": 8.827272727272726,
            "velocity": 70,
            "duration": 0.049999999999998934
          },
          {
            "pitch": 51,
            "start": 8.847727272727273,
            "end": 8.897727272727272,
            "velocity": 78,
            "duration": 0.049999999999998934
          },
          {
            "pitch": 35,
            "start": 8.870454545454544,
            "end": 8.920454545454545,
            "velocity": 81,
            "duration": 0.05000000000000071
          },
          {
            "pitch": 42,
            "start": 8.870454545454544,
            "end": 8.920454545454545,
            "velocity": 87,
            "duration": 0.05000000000000071
          },
          {
            "pitch": 37,
            "start": 8.893181818181818,
            "end": 8.943181818181818,
            "velocity": 120,
            "duration": 0.05000000000000071
          },
          {
            "pitch": 35,
            "start": 8.938636363636363,
            "end": 8.988636363636363,
            "velocity": 100,
            "duration": 0.05000000000000071
          },
          {
            "pitch": 42,
            "start": 8.963636363636363,
            "end": 9.013636363636364,
            "velocity": 66,
            "duration": 0.05000000000000071
          },
          {
            "pitch": 37,
            "start": 8.986363636363636,
            "end": 9.036363636363635,
            "velocity": 100,
            "duration": 0.049999999999998934
          },
          {
            "pitch": 35,
            "start": 9.009090909090908,
            "end": 9.059090909090909,
            "velocity": 75,
            "duration": 0.05000000000000071
          },
          {
            "pitch": 35,
            "start": 9.056818181818182,
            "end": 9.059090909090909,
            "velocity": 77,
            "duration": 0.002272727272726982
          },
          {
            "pitch": 51,
            "start": 9.031818181818181,
            "end": 9.081818181818182,
            "velocity": 75,
            "duration": 0.05000000000000071
          },
          {
            "pitch": 42,
            "start": 9.056818181818182,
            "end": 9.10681818181818,
            "velocity": 81,
            "duration": 0.049999999999998934
          },
          {
            "pitch": 45,
            "start": 9.079545454545453,
            "end": 9.129545454545454,
            "velocity": 95,
            "duration": 0.05000000000000071
          },
          {
            "pitch": 51,
            "start": 9.102272727272727,
            "end": 9.152272727272727,
            "velocity": 85,
            "duration": 0.05000000000000071
          },
          {
            "pitch": 35,
            "start": 9.125,
            "end": 9.174999999999999,
            "velocity": 109,
            "duration": 0.049999999999998934
          },
          {
            "pitch": 51,
            "start": 9.172727272727272,
            "end": 9.222727272727273,
            "velocity": 76,
            "duration": 0.05000000000000071
          },
          {
            "pitch": 51,
            "start": 9.218181818181817,
            "end": 9.222727272727273,
            "velocity": 78,
            "duration": 0.0045454545454557405
          },
          {
            "pitch": 41,
            "start": 9.218181818181817,
            "end": 9.268181818181818,
            "velocity": 69,
            "duration": 0.05000000000000071
          },
          {
            "pitch": 35,
            "start": 9.311363636363636,
            "end": 9.361363636363636,
            "velocity": 114,
            "duration": 0.05000000000000071
          },
          {
            "pitch": 42,
            "start": 9.311363636363636,
            "end": 9.361363636363636,
            "velocity": 94,
            "duration": 0.05000000000000071
          },
          {
            "pitch": 51,
            "start": 9.311363636363636,
            "end": 9.361363636363636,
            "velocity": 93,
            "duration": 0.05000000000000071
          },
          {
            "pitch": 51,
            "start": 9.35681818181818,
            "end": 9.361363636363636,
            "velocity": 81,
            "duration": 0.0045454545454557405
          },
          {
            "pitch": 51,
            "start": 9.404545454545454,
            "end": 9.406818181818181,
            "velocity": 80,
            "duration": 0.002272727272726982
          },
          {
            "pitch": 35,
            "start": 9.381818181818181,
            "end": 9.431818181818182,
            "velocity": 72,
            "duration": 0.05000000000000071
          },
          {
            "pitch": 42,
            "start": 9.404545454545454,
            "end": 9.454545454545453,
            "velocity": 81,
            "duration": 0.049999999999998934
          },
          {
            "pitch": 35,
            "start": 9.497727272727273,
            "end": 9.547727272727272,
            "velocity": 90,
            "duration": 0.049999999999998934
          },
          {
            "pitch": 42,
            "start": 9.497727272727273,
            "end": 9.547727272727272,
            "velocity": 88,
            "duration": 0.049999999999998934
          },
          {
            "pitch": 37,
            "start": 9.520454545454545,
            "end": 9.570454545454545,
            "velocity": 104,
            "duration": 0.05000000000000071
          },
          {
            "pitch": 35,
            "start": 9.56590909090909,
            "end": 9.61590909090909,
            "velocity": 101,
            "duration": 0.05000000000000071
          },
          {
            "pitch": 51,
            "start": 9.56590909090909,
            "end": 9.61590909090909,
            "velocity": 64,
            "duration": 0.05000000000000071
          },
          {
            "pitch": 42,
            "start": 9.59090909090909,
            "end": 9.64090909090909,
            "velocity": 81,
            "duration": 0.05000000000000071
          },
          {
            "pitch": 41,
            "start": 9.659090909090908,
            "end": 9.709090909090909,
            "velocity": 68,
            "duration": 0.05000000000000071
          },
          {
            "pitch": 51,
            "start": 9.659090909090908,
            "end": 9.709090909090909,
            "velocity": 85,
            "duration": 0.05000000000000071
          },
          {
            "pitch": 35,
            "start": 9.681818181818182,
            "end": 9.73181818181818,
            "velocity": 78,
            "duration": 0.049999999999998934
          },
          {
            "pitch": 42,
            "start": 9.681818181818182,
            "end": 9.73181818181818,
            "velocity": 95,
            "duration": 0.049999999999998934
          },
          {
            "pitch": 35,
            "start": 9.752272727272727,
            "end": 9.802272727272726,
            "velocity": 79,
            "duration": 0.049999999999998934
          },
          {
            "pitch": 42,
            "start": 9.752272727272727,
            "end": 9.802272727272726,
            "velocity": 71,
            "duration": 0.049999999999998934
          },
          {
            "pitch": 51,
            "start": 9.752272727272727,
            "end": 9.802272727272726,
            "velocity": 87,
            "duration": 0.049999999999998934
          },
          {
            "pitch": 37,
            "start": 9.775,
            "end": 9.825,
            "velocity": 70,
            "duration": 0.049999999999998934
          },
          {
            "pitch": 35,
            "start": 9.822727272727272,
            "end": 9.872727272727273,
            "velocity": 65,
            "duration": 0.05000000000000071
          },
          {
            "pitch": 35,
            "start": 9.868181818181817,
            "end": 9.872727272727273,
            "velocity": 98,
            "duration": 0.0045454545454557405
          },
          {
            "pitch": 37,
            "start": 9.845454545454546,
            "end": 9.895454545454545,
            "velocity": 85,
            "duration": 0.049999999999998934
          },
          {
            "pitch": 37,
            "start": 9.89090909090909,
            "end": 9.895454545454545,
            "velocity": 109,
            "duration": 0.004545454545453964
          },
          {
            "pitch": 42,
            "start": 9.868181818181817,
            "end": 9.918181818181818,
            "velocity": 106,
            "duration": 0.05000000000000071
          },
          {
            "pitch": 51,
            "start": 9.868181818181817,
            "end": 9.918181818181818,
            "velocity": 79,
            "duration": 0.05000000000000071
          },
          {
            "pitch": 35,
            "start": 9.938636363636363,
            "end": 9.988636363636363,
            "velocity": 113,
            "duration": 0.05000000000000071
          },
          {
            "pitch": 42,
            "start": 9.938636363636363,
            "end": 9.988636363636363,
            "velocity": 74,
            "duration": 0.05000000000000071
          },
          {
            "pitch": 51,
            "start": 9.938636363636363,
            "end": 9.988636363636363,
            "velocity": 93,
            "duration": 0.05000000000000071
          },
          {
            "pitch": 51,
            "start": 9.98409090909091,
            "end": 9.988636363636363,
            "velocity": 79,
            "duration": 0.004545454545453964
          },
          {
            "pitch": 35,
            "start": 10.006818181818181,
            "end": 10.056818181818182,
            "velocity": 74,
            "duration": 0.05000000000000071
          },
          {
            "pitch": 37,
            "start": 10.031818181818181,
            "end": 10.081818181818182,
            "velocity": 84,
            "duration": 0.05000000000000071
          },
          {
            "pitch": 35,
            "start": 10.125,
            "end": 10.174999999999999,
            "velocity": 79,
            "duration": 0.049999999999998934
          },
          {
            "pitch": 42,
            "start": 10.125,
            "end": 10.174999999999999,
            "velocity": 92,
            "duration": 0.049999999999998934
          },
          {
            "pitch": 51,
            "start": 10.125,
            "end": 10.174999999999999,
            "velocity": 92,
            "duration": 0.049999999999998934
          },
          {
            "pitch": 35,
            "start": 10.193181818181818,
            "end": 10.243181818181817,
            "velocity": 68,
            "duration": 0.049999999999998934
          },
          {
            "pitch": 42,
            "start": 10.193181818181818,
            "end": 10.243181818181817,
            "velocity": 79,
            "duration": 0.049999999999998934
          },
          {
            "pitch": 51,
            "start": 10.193181818181818,
            "end": 10.243181818181817,
            "velocity": 87,
            "duration": 0.049999999999998934
          },
          {
            "pitch": 41,
            "start": 10.21590909090909,
            "end": 10.26590909090909,
            "velocity": 71,
            "duration": 0.05000000000000071
          },
          {
            "pitch": 35,
            "start": 10.309090909090909,
            "end": 10.35909090909091,
            "velocity": 104,
            "duration": 0.05000000000000071
          },
          {
            "pitch": 42,
            "start": 10.309090909090909,
            "end": 10.35909090909091,
            "velocity": 90,
            "duration": 0.05000000000000071
          },
          {
            "pitch": 51,
            "start": 10.331818181818182,
            "end": 10.381818181818181,
            "velocity": 93,
            "duration": 0.049999999999998934
          },
          {
            "pitch": 51,
            "start": 10.379545454545454,
            "end": 10.381818181818181,
            "velocity": 89,
            "duration": 0.002272727272726982
          },
          {
            "pitch": 35,
            "start": 10.379545454545454,
            "end": 10.429545454545455,
            "velocity": 94,
            "duration": 0.05000000000000071
          },
          {
            "pitch": 42,
            "start": 10.402272727272727,
            "end": 10.452272727272726,
            "velocity": 65,
            "duration": 0.049999999999998934
          },
          {
            "pitch": 51,
            "start": 10.472727272727273,
            "end": 10.522727272727272,
            "velocity": 70,
            "duration": 0.049999999999998934
          },
          {
            "pitch": 35,
            "start": 10.495454545454544,
            "end": 10.545454545454545,
            "velocity": 74,
            "duration": 0.05000000000000071
          },
          {
            "pitch": 37,
            "start": 10.518181818181818,
            "end": 10.568181818181818,
            "velocity": 97,
            "duration": 0.05000000000000071
          },
          {
            "pitch": 41,
            "start": 10.518181818181818,
            "end": 10.568181818181818,
            "velocity": 78,
            "duration": 0.05000000000000071
          },
          {
            "pitch": 35,
            "start": 10.56590909090909,
            "end": 10.61590909090909,
            "velocity": 69,
            "duration": 0.05000000000000071
          },
          {
            "pitch": 37,
            "start": 10.588636363636363,
            "end": 10.638636363636364,
            "velocity": 93,
            "duration": 0.05000000000000071
          },
          {
            "pitch": 42,
            "start": 10.611363636363636,
            "end": 10.661363636363635,
            "velocity": 92,
            "duration": 0.049999999999998934
          },
          {
            "pitch": 51,
            "start": 10.659090909090908,
            "end": 10.709090909090909,
            "velocity": 68,
            "duration": 0.05000000000000071
          },
          {
            "pitch": 35,
            "start": 10.681818181818182,
            "end": 10.73181818181818,
            "velocity": 80,
            "duration": 0.049999999999998934
          },
          {
            "pitch": 42,
            "start": 10.681818181818182,
            "end": 10.73181818181818,
            "velocity": 94,
            "duration": 0.049999999999998934
          },
          {
            "pitch": 37,
            "start": 10.727272727272727,
            "end": 10.777272727272727,
            "velocity": 70,
            "duration": 0.05000000000000071
          },
          {
            "pitch": 35,
            "start": 10.75,
            "end": 10.799999999999999,
            "velocity": 112,
            "duration": 0.049999999999998934
          },
          {
            "pitch": 42,
            "start": 10.75,
            "end": 10.799999999999999,
            "velocity": 97,
            "duration": 0.049999999999998934
          },
          {
            "pitch": 51,
            "start": 10.75,
            "end": 10.799999999999999,
            "velocity": 85,
            "duration": 0.049999999999998934
          },
          {
            "pitch": 51,
            "start": 10.797727272727272,
            "end": 10.799999999999999,
            "velocity": 82,
            "duration": 0.002272727272726982
          },
          {
            "pitch": 51,
            "start": 10.843181818181817,
            "end": 10.847727272727273,
            "velocity": 75,
            "duration": 0.0045454545454557405
          },
          {
            "pitch": 35,
            "start": 10.820454545454545,
            "end": 10.870454545454544,
            "velocity": 65,
            "duration": 0.049999999999998934
          },
          {
            "pitch": 35,
            "start": 10.86590909090909,
            "end": 10.870454545454544,
            "velocity": 70,
            "duration": 0.004545454545453964
          },
          {
            "pitch": 35,
            "start": 10.936363636363636,
            "end": 10.986363636363636,
            "velocity": 111,
            "duration": 0.05000000000000071
          },
          {
            "pitch": 42,
            "start": 10.936363636363636,
            "end": 10.986363636363636,
            "velocity": 99,
            "duration": 0.05000000000000071
          },
          {
            "pitch": 51,
            "start": 10.936363636363636,
            "end": 10.986363636363636,
            "velocity": 81,
            "duration": 0.05000000000000071
          },
          {
            "pitch": 37,
            "start": 10.98409090909091,
            "end": 11.034090909090908,
            "velocity": 89,
            "duration": 0.049999999999998934
          },
          {
            "pitch": 35,
            "start": 11.006818181818181,
            "end": 11.056818181818182,
            "velocity": 74,
            "duration": 0.05000000000000071
          },
          {
            "pitch": 51,
            "start": 11.006818181818181,
            "end": 11.056818181818182,
            "velocity": 80,
            "duration": 0.05000000000000071
          },
          {
            "pitch": 51,
            "start": 11.1,
            "end": 11.149999999999999,
            "velocity": 75,
            "duration": 0.049999999999998934
          },
          {
            "pitch": 35,
            "start": 11.122727272727273,
            "end": 11.172727272727272,
            "velocity": 78,
            "duration": 0.049999999999998934
          },
          {
            "pitch": 42,
            "start": 11.122727272727273,
            "end": 11.172727272727272,
            "velocity": 85,
            "duration": 0.049999999999998934
          },
          {
            "pitch": 42,
            "start": 11.19090909090909,
            "end": 11.24090909090909,
            "velocity": 68,
            "duration": 0.05000000000000071
          },
          {
            "pitch": 51,
            "start": 11.19090909090909,
            "end": 11.24090909090909,
            "velocity": 67,
            "duration": 0.05000000000000071
          },
          {
            "pitch": 51,
            "start": 11.261363636363637,
            "end": 11.311363636363636,
            "velocity": 75,
            "duration": 0.049999999999998934
          },
          {
            "pitch": 35,
            "start": 11.309090909090909,
            "end": 11.35909090909091,
            "velocity": 90,
            "duration": 0.05000000000000071
          },
          {
            "pitch": 42,
            "start": 11.309090909090909,
            "end": 11.35909090909091,
            "velocity": 65,
            "duration": 0.05000000000000071
          },
          {
            "pitch": 35,
            "start": 11.377272727272727,
            "end": 11.427272727272726,
            "velocity": 107,
            "duration": 0.049999999999998934
          },
          {
            "pitch": 37,
            "start": 11.399999999999999,
            "end": 11.45,
            "velocity": 104,
            "duration": 0.05000000000000071
          },
          {
            "pitch": 35,
            "start": 11.447727272727272,
            "end": 11.497727272727273,
            "velocity": 66,
            "duration": 0.05000000000000071
          },
          {
            "pitch": 35,
            "start": 11.493181818181817,
            "end": 11.497727272727273,
            "velocity": 71,
            "duration": 0.0045454545454557405
          },
          {
            "pitch": 37,
            "start": 11.470454545454546,
            "end": 11.520454545454545,
            "velocity": 78,
            "duration": 0.049999999999998934
          },
          {
            "pitch": 42,
            "start": 11.493181818181817,
            "end": 11.543181818181818,
            "velocity": 68,
            "duration": 0.05000000000000071
          },
          {
            "pitch": 35,
            "start": 11.563636363636363,
            "end": 11.613636363636363,
            "velocity": 107,
            "duration": 0.05000000000000071
          },
          {
            "pitch": 42,
            "start": 11.563636363636363,
            "end": 11.613636363636363,
            "velocity": 89,
            "duration": 0.05000000000000071
          },
          {
            "pitch": 51,
            "start": 11.563636363636363,
            "end": 11.613636363636363,
            "velocity": 86,
            "duration": 0.05000000000000071
          },
          {
            "pitch": 51,
            "start": 11.656818181818181,
            "end": 11.706818181818182,
            "velocity": 85,
            "duration": 0.05000000000000071
          },
          {
            "pitch": 42,
            "start": 11.679545454545455,
            "end": 11.729545454545454,
            "velocity": 65,
            "duration": 0.049999999999998934
          },
          {
            "pitch": 35,
            "start": 11.75,
            "end": 11.799999999999999,
            "velocity": 117,
            "duration": 0.049999999999998934
          },
          {
            "pitch": 42,
            "start": 11.75,
            "end": 11.799999999999999,
            "velocity": 84,
            "duration": 0.049999999999998934
          },
          {
            "pitch": 51,
            "start": 11.75,
            "end": 11.799999999999999,
            "velocity": 98,
            "duration": 0.049999999999998934
          },
          {
            "pitch": 35,
            "start": 11.818181818181818,
            "end": 11.868181818181817,
            "velocity": 64,
            "duration": 0.049999999999998934
          },
          {
            "pitch": 35,
            "start": 11.86590909090909,
            "end": 11.868181818181817,
            "velocity": 68,
            "duration": 0.002272727272726982
          },
          {
            "pitch": 51,
            "start": 11.843181818181817,
            "end": 11.893181818181818,
            "velocity": 86,
            "duration": 0.05000000000000071
          },
          {
            "pitch": 35,
            "start": 11.934090909090909,
            "end": 11.98409090909091,
            "velocity": 102,
            "duration": 0.05000000000000071
          },
          {
            "pitch": 42,
            "start": 11.934090909090909,
            "end": 11.98409090909091,
            "velocity": 83,
            "duration": 0.05000000000000071
          },
          {
            "pitch": 51,
            "start": 11.934090909090909,
            "end": 11.98409090909091,
            "velocity": 76,
            "duration": 0.05000000000000071
          },
          {
            "pitch": 37,
            "start": 11.959090909090909,
            "end": 12.009090909090908,
            "velocity": 83,
            "duration": 0.049999999999998934
          },
          {
            "pitch": 35,
            "start": 12.004545454545454,
            "end": 12.054545454545455,
            "velocity": 80,
            "duration": 0.05000000000000071
          },
          {
            "pitch": 51,
            "start": 12.004545454545454,
            "end": 12.054545454545455,
            "velocity": 77,
            "duration": 0.05000000000000071
          },
          {
            "pitch": 37,
            "start": 12.052272727272726,
            "end": 12.102272727272727,
            "velocity": 70,
            "duration": 0.05000000000000071
          },
          {
            "pitch": 51,
            "start": 12.097727272727273,
            "end": 12.147727272727272,
            "velocity": 75,
            "duration": 0.049999999999998934
          },
          {
            "pitch": 35,
            "start": 12.120454545454544,
            "end": 12.170454545454545,
            "velocity": 81,
            "duration": 0.05000000000000071
          },
          {
            "pitch": 42,
            "start": 12.120454545454544,
            "end": 12.170454545454545,
            "velocity": 92,
            "duration": 0.05000000000000071
          },
          {
            "pitch": 37,
            "start": 12.143181818181818,
            "end": 12.193181818181818,
            "velocity": 82,
            "duration": 0.05000000000000071
          },
          {
            "pitch": 35,
            "start": 12.19090909090909,
            "end": 12.24090909090909,
            "velocity": 88,
            "duration": 0.05000000000000071
          },
          {
            "pitch": 37,
            "start": 12.236363636363636,
            "end": 12.286363636363635,
            "velocity": 87,
            "duration": 0.049999999999998934
          },
          {
            "pitch": 35,
            "start": 12.306818181818182,
            "end": 12.35681818181818,
            "velocity": 78,
            "duration": 0.049999999999998934
          },
          {
            "pitch": 37,
            "start": 12.352272727272727,
            "end": 12.402272727272727,
            "velocity": 77,
            "duration": 0.05000000000000071
          },
          {
            "pitch": 35,
            "start": 12.377272727272727,
            "end": 12.427272727272726,
            "velocity": 104,
            "duration": 0.049999999999998934
          },
          {
            "pitch": 37,
            "start": 12.422727272727272,
            "end": 12.472727272727273,
            "velocity": 79,
            "duration": 0.05000000000000071
          },
          {
            "pitch": 35,
            "start": 12.445454545454545,
            "end": 12.495454545454544,
            "velocity": 63,
            "duration": 0.049999999999998934
          },
          {
            "pitch": 35,
            "start": 12.493181818181817,
            "end": 12.495454545454544,
            "velocity": 67,
            "duration": 0.002272727272726982
          },
          {
            "pitch": 42,
            "start": 12.493181818181817,
            "end": 12.543181818181818,
            "velocity": 75,
            "duration": 0.05000000000000071
          },
          {
            "pitch": 42,
            "start": 12.561363636363636,
            "end": 12.611363636363636,
            "velocity": 91,
            "duration": 0.05000000000000071
          },
          {
            "pitch": 35,
            "start": 12.631818181818181,
            "end": 12.681818181818182,
            "velocity": 64,
            "duration": 0.05000000000000071
          },
          {
            "pitch": 41,
            "start": 12.793181818181818,
            "end": 12.843181818181817,
            "velocity": 68,
            "duration": 0.049999999999998934
          },
          {
            "pitch": 35,
            "start": 12.84090909090909,
            "end": 12.89090909090909,
            "velocity": 76,
            "duration": 0.05000000000000071
          },
          {
            "pitch": 35,
            "start": 12.886363636363635,
            "end": 12.89090909090909,
            "velocity": 69,
            "duration": 0.0045454545454557405
          },
          {
            "pitch": 35,
            "start": 12.934090909090909,
            "end": 12.936363636363636,
            "velocity": 69,
            "duration": 0.002272727272726982
          },
          {
            "pitch": 41,
            "start": 12.911363636363635,
            "end": 12.961363636363636,
            "velocity": 67,
            "duration": 0.05000000000000071
          },
          {
            "pitch": 51,
            "start": 13.002272727272727,
            "end": 13.052272727272726,
            "velocity": 75,
            "duration": 0.049999999999998934
          },
          {
            "pitch": 51,
            "start": 13.095454545454546,
            "end": 13.145454545454545,
            "velocity": 77,
            "duration": 0.049999999999998934
          },
          {
            "pitch": 35,
            "start": 13.118181818181817,
            "end": 13.168181818181818,
            "velocity": 96,
            "duration": 0.05000000000000071
          },
          {
            "pitch": 35,
            "start": 13.188636363636363,
            "end": 13.238636363636363,
            "velocity": 114,
            "duration": 0.05000000000000071
          },
          {
            "pitch": 42,
            "start": 13.188636363636363,
            "end": 13.238636363636363,
            "velocity": 94,
            "duration": 0.05000000000000071
          },
          {
            "pitch": 51,
            "start": 13.188636363636363,
            "end": 13.238636363636363,
            "velocity": 96,
            "duration": 0.05000000000000071
          },
          {
            "pitch": 51,
            "start": 13.281818181818181,
            "end": 13.331818181818182,
            "velocity": 87,
            "duration": 0.05000000000000071
          },
          {
            "pitch": 35,
            "start": 13.304545454545455,
            "end": 13.354545454545454,
            "velocity": 63,
            "duration": 0.049999999999998934
          },
          {
            "pitch": 42,
            "start": 13.304545454545455,
            "end": 13.354545454545454,
            "velocity": 64,
            "duration": 0.049999999999998934
          },
          {
            "pitch": 37,
            "start": 13.352272727272727,
            "end": 13.402272727272727,
            "velocity": 82,
            "duration": 0.05000000000000071
          },
          {
            "pitch": 35,
            "start": 13.375,
            "end": 13.424999999999999,
            "velocity": 114,
            "duration": 0.049999999999998934
          },
          {
            "pitch": 42,
            "start": 13.375,
            "end": 13.424999999999999,
            "velocity": 101,
            "duration": 0.049999999999998934
          },
          {
            "pitch": 51,
            "start": 13.375,
            "end": 13.424999999999999,
            "velocity": 98,
            "duration": 0.049999999999998934
          },
          {
            "pitch": 35,
            "start": 13.445454545454545,
            "end": 13.495454545454544,
            "velocity": 70,
            "duration": 0.049999999999998934
          },
          {
            "pitch": 37,
            "start": 13.468181818181817,
            "end": 13.518181818181818,
            "velocity": 68,
            "duration": 0.05000000000000071
          },
          {
            "pitch": 51,
            "start": 13.468181818181817,
            "end": 13.518181818181818,
            "velocity": 67,
            "duration": 0.05000000000000071
          },
          {
            "pitch": 37,
            "start": 13.536363636363635,
            "end": 13.586363636363636,
            "velocity": 81,
            "duration": 0.05000000000000071
          },
          {
            "pitch": 35,
            "start": 13.561363636363636,
            "end": 13.611363636363636,
            "velocity": 105,
            "duration": 0.05000000000000071
          },
          {
            "pitch": 42,
            "start": 13.561363636363636,
            "end": 13.611363636363636,
            "velocity": 99,
            "duration": 0.05000000000000071
          },
          {
            "pitch": 51,
            "start": 13.561363636363636,
            "end": 13.611363636363636,
            "velocity": 75,
            "duration": 0.05000000000000071
          },
          {
            "pitch": 35,
            "start": 13.629545454545454,
            "end": 13.679545454545455,
            "velocity": 93,
            "duration": 0.05000000000000071
          },
          {
            "pitch": 51,
            "start": 13.629545454545454,
            "end": 13.679545454545455,
            "velocity": 86,
            "duration": 0.05000000000000071
          },
          {
            "pitch": 35,
            "start": 13.745454545454544,
            "end": 13.795454545454545,
            "velocity": 97,
            "duration": 0.05000000000000071
          },
          {
            "pitch": 42,
            "start": 13.745454545454544,
            "end": 13.795454545454545,
            "velocity": 90,
            "duration": 0.05000000000000071
          },
          {
            "pitch": 37,
            "start": 13.770454545454545,
            "end": 13.820454545454545,
            "velocity": 92,
            "duration": 0.05000000000000071
          },
          {
            "pitch": 35,
            "start": 13.81590909090909,
            "end": 13.86590909090909,
            "velocity": 101,
            "duration": 0.05000000000000071
          },
          {
            "pitch": 42,
            "start": 13.81590909090909,
            "end": 13.86590909090909,
            "velocity": 90,
            "duration": 0.05000000000000071
          },
          {
            "pitch": 51,
            "start": 13.81590909090909,
            "end": 13.86590909090909,
            "velocity": 80,
            "duration": 0.05000000000000071
          },
          {
            "pitch": 37,
            "start": 13.861363636363636,
            "end": 13.911363636363635,
            "velocity": 67,
            "duration": 0.049999999999998934
          },
          {
            "pitch": 51,
            "start": 13.909090909090908,
            "end": 13.959090909090909,
            "velocity": 83,
            "duration": 0.05000000000000071
          },
          {
            "pitch": 35,
            "start": 13.931818181818182,
            "end": 13.98181818181818,
            "velocity": 91,
            "duration": 0.049999999999998934
          },
          {
            "pitch": 42,
            "start": 13.931818181818182,
            "end": 13.98181818181818,
            "velocity": 80,
            "duration": 0.049999999999998934
          },
          {
            "pitch": 37,
            "start": 13.954545454545453,
            "end": 14.004545454545454,
            "velocity": 75,
            "duration": 0.05000000000000071
          },
          {
            "pitch": 35,
            "start": 14.002272727272727,
            "end": 14.052272727272726,
            "velocity": 117,
            "duration": 0.049999999999998934
          },
          {
            "pitch": 51,
            "start": 14.002272727272727,
            "end": 14.052272727272726,
            "velocity": 99,
            "duration": 0.049999999999998934
          },
          {
            "pitch": 37,
            "start": 14.047727272727272,
            "end": 14.097727272727273,
            "velocity": 86,
            "duration": 0.05000000000000071
          },
          {
            "pitch": 51,
            "start": 14.095454545454544,
            "end": 14.145454545454545,
            "velocity": 79,
            "duration": 0.05000000000000071
          },
          {
            "pitch": 35,
            "start": 14.118181818181817,
            "end": 14.168181818181818,
            "velocity": 74,
            "duration": 0.05000000000000071
          },
          {
            "pitch": 35,
            "start": 14.186363636363636,
            "end": 14.236363636363636,
            "velocity": 115,
            "duration": 0.05000000000000071
          },
          {
            "pitch": 42,
            "start": 14.186363636363636,
            "end": 14.236363636363636,
            "velocity": 107,
            "duration": 0.05000000000000071
          },
          {
            "pitch": 51,
            "start": 14.186363636363636,
            "end": 14.236363636363636,
            "velocity": 98,
            "duration": 0.05000000000000071
          },
          {
            "pitch": 35,
            "start": 14.256818181818181,
            "end": 14.306818181818182,
            "velocity": 73,
            "duration": 0.05000000000000071
          },
          {
            "pitch": 51,
            "start": 14.256818181818181,
            "end": 14.306818181818182,
            "velocity": 85,
            "duration": 0.05000000000000071
          },
          {
            "pitch": 37,
            "start": 14.35,
            "end": 14.399999999999999,
            "velocity": 92,
            "duration": 0.049999999999998934
          },
          {
            "pitch": 35,
            "start": 14.372727272727271,
            "end": 14.422727272727272,
            "velocity": 107,
            "duration": 0.05000000000000071
          },
          {
            "pitch": 42,
            "start": 14.372727272727271,
            "end": 14.422727272727272,
            "velocity": 95,
            "duration": 0.05000000000000071
          },
          {
            "pitch": 51,
            "start": 14.372727272727271,
            "end": 14.422727272727272,
            "velocity": 91,
            "duration": 0.05000000000000071
          },
          {
            "pitch": 35,
            "start": 14.443181818181818,
            "end": 14.493181818181817,
            "velocity": 85,
            "duration": 0.049999999999998934
          },
          {
            "pitch": 51,
            "start": 14.443181818181818,
            "end": 14.493181818181817,
            "velocity": 77,
            "duration": 0.049999999999998934
          },
          {
            "pitch": 37,
            "start": 14.536363636363635,
            "end": 14.586363636363636,
            "velocity": 74,
            "duration": 0.05000000000000071
          },
          {
            "pitch": 51,
            "start": 14.536363636363635,
            "end": 14.586363636363636,
            "velocity": 70,
            "duration": 0.05000000000000071
          },
          {
            "pitch": 35,
            "start": 14.559090909090909,
            "end": 14.609090909090908,
            "velocity": 77,
            "duration": 0.049999999999998934
          },
          {
            "pitch": 42,
            "start": 14.559090909090909,
            "end": 14.609090909090908,
            "velocity": 97,
            "duration": 0.049999999999998934
          },
          {
            "pitch": 35,
            "start": 14.629545454545454,
            "end": 14.679545454545455,
            "velocity": 108,
            "duration": 0.05000000000000071
          },
          {
            "pitch": 51,
            "start": 14.629545454545454,
            "end": 14.679545454545455,
            "velocity": 90,
            "duration": 0.05000000000000071
          },
          {
            "pitch": 51,
            "start": 14.720454545454544,
            "end": 14.770454545454545,
            "velocity": 78,
            "duration": 0.05000000000000071
          },
          {
            "pitch": 35,
            "start": 14.745454545454544,
            "end": 14.795454545454545,
            "velocity": 82,
            "duration": 0.05000000000000071
          },
          {
            "pitch": 37,
            "start": 14.768181818181818,
            "end": 14.818181818181818,
            "velocity": 73,
            "duration": 0.05000000000000071
          },
          {
            "pitch": 35,
            "start": 14.813636363636363,
            "end": 14.863636363636363,
            "velocity": 111,
            "duration": 0.05000000000000071
          },
          {
            "pitch": 42,
            "start": 14.813636363636363,
            "end": 14.863636363636363,
            "velocity": 101,
            "duration": 0.05000000000000071
          },
          {
            "pitch": 51,
            "start": 14.813636363636363,
            "end": 14.863636363636363,
            "velocity": 81,
            "duration": 0.05000000000000071
          },
          {
            "pitch": 37,
            "start": 14.861363636363636,
            "end": 14.911363636363635,
            "velocity": 99,
            "duration": 0.049999999999998934
          },
          {
            "pitch": 35,
            "start": 14.884090909090908,
            "end": 14.934090909090909,
            "velocity": 64,
            "duration": 0.05000000000000071
          },
          {
            "pitch": 35,
            "start": 14.929545454545455,
            "end": 14.934090909090909,
            "velocity": 65,
            "duration": 0.004545454545453964
          },
          {
            "pitch": 51,
            "start": 14.906818181818181,
            "end": 14.95681818181818,
            "velocity": 88,
            "duration": 0.049999999999998934
          },
          {
            "pitch": 37,
            "start": 14.929545454545455,
            "end": 14.979545454545454,
            "velocity": 64,
            "duration": 0.049999999999998934
          },
          {
            "pitch": 51,
            "start": 14.977272727272727,
            "end": 15.027272727272727,
            "velocity": 93,
            "duration": 0.05000000000000071
          },
          {
            "pitch": 37,
            "start": 15.045454545454545,
            "end": 15.095454545454544,
            "velocity": 101,
            "duration": 0.049999999999998934
          },
          {
            "pitch": 37,
            "start": 15.093181818181817,
            "end": 15.095454545454544,
            "velocity": 89,
            "duration": 0.002272727272726982
          },
          {
            "pitch": 51,
            "start": 15.070454545454545,
            "end": 15.120454545454544,
            "velocity": 64,
            "duration": 0.049999999999998934
          },
          {
            "pitch": 37,
            "start": 15.138636363636364,
            "end": 15.143181818181818,
            "velocity": 101,
            "duration": 0.004545454545453964
          },
          {
            "pitch": 37,
            "start": 15.186363636363636,
            "end": 15.188636363636363,
            "velocity": 66,
            "duration": 0.002272727272726982
          },
          {
            "pitch": 51,
            "start": 15.163636363636362,
            "end": 15.213636363636363,
            "velocity": 71,
            "duration": 0.05000000000000071
          },
          {
            "pitch": 42,
            "start": 15.186363636363636,
            "end": 15.236363636363636,
            "velocity": 65,
            "duration": 0.05000000000000071
          },
          {
            "pitch": 51,
            "start": 15.254545454545454,
            "end": 15.304545454545455,
            "velocity": 78,
            "duration": 0.05000000000000071
          },
          {
            "pitch": 51,
            "start": 15.302272727272726,
            "end": 15.304545454545455,
            "velocity": 76,
            "duration": 0.0022727272727287584
          },
          {
            "pitch": 42,
            "start": 15.279545454545454,
            "end": 15.329545454545453,
            "velocity": 67,
            "duration": 0.049999999999998934
          },
          {
            "pitch": 51,
            "start": 15.347727272727273,
            "end": 15.352272727272727,
            "velocity": 94,
            "duration": 0.004545454545453964
          },
          {
            "pitch": 42,
            "start": 15.372727272727271,
            "end": 15.422727272727272,
            "velocity": 87,
            "duration": 0.05000000000000071
          },
          {
            "pitch": 51,
            "start": 15.418181818181818,
            "end": 15.468181818181817,
            "velocity": 71,
            "duration": 0.049999999999998934
          },
          {
            "pitch": 51,
            "start": 15.463636363636363,
            "end": 15.468181818181817,
            "velocity": 69,
            "duration": 0.004545454545453964
          },
          {
            "pitch": 37,
            "start": 15.488636363636363,
            "end": 15.538636363636362,
            "velocity": 87,
            "duration": 0.049999999999998934
          },
          {
            "pitch": 51,
            "start": 15.534090909090908,
            "end": 15.584090909090909,
            "velocity": 87,
            "duration": 0.05000000000000071
          },
          {
            "pitch": 42,
            "start": 15.556818181818182,
            "end": 15.60681818181818,
            "velocity": 77,
            "duration": 0.049999999999998934
          },
          {
            "pitch": 35,
            "start": 15.627272727272727,
            "end": 15.677272727272726,
            "velocity": 110,
            "duration": 0.049999999999998934
          },
          {
            "pitch": 51,
            "start": 15.627272727272727,
            "end": 15.677272727272726,
            "velocity": 86,
            "duration": 0.049999999999998934
          },
          {
            "pitch": 51,
            "start": 15.720454545454544,
            "end": 15.770454545454545,
            "velocity": 90,
            "duration": 0.05000000000000071
          },
          {
            "pitch": 35,
            "start": 15.743181818181817,
            "end": 15.793181818181818,
            "velocity": 69,
            "duration": 0.05000000000000071
          },
          {
            "pitch": 37,
            "start": 15.76590909090909,
            "end": 15.81590909090909,
            "velocity": 107,
            "duration": 0.049999999999998934
          },
          {
            "pitch": 51,
            "start": 15.788636363636362,
            "end": 15.838636363636363,
            "velocity": 77,
            "duration": 0.05000000000000071
          },
          {
            "pitch": 42,
            "start": 15.813636363636363,
            "end": 15.863636363636363,
            "velocity": 72,
            "duration": 0.05000000000000071
          },
          {
            "pitch": 37,
            "start": 15.859090909090908,
            "end": 15.909090909090908,
            "velocity": 88,
            "duration": 0.05000000000000071
          },
          {
            "pitch": 37,
            "start": 15.904545454545454,
            "end": 15.909090909090908,
            "velocity": 69,
            "duration": 0.004545454545453964
          },
          {
            "pitch": 51,
            "start": 15.881818181818181,
            "end": 15.931818181818182,
            "velocity": 63,
            "duration": 0.05000000000000071
          },
          {
            "pitch": 35,
            "start": 15.997727272727271,
            "end": 16.047727272727272,
            "velocity": 86,
            "duration": 0.05000000000000071
          },
          {
            "pitch": 51,
            "start": 15.997727272727271,
            "end": 16.047727272727272,
            "velocity": 86,
            "duration": 0.05000000000000071
          },
          {
            "pitch": 42,
            "start": 16.068181818181817,
            "end": 16.118181818181817,
            "velocity": 63,
            "duration": 0.05000000000000071
          },
          {
            "pitch": 51,
            "start": 16.09090909090909,
            "end": 16.14090909090909,
            "velocity": 68,
            "duration": 0.05000000000000071
          },
          {
            "pitch": 51,
            "start": 16.161363636363635,
            "end": 16.211363636363636,
            "velocity": 71,
            "duration": 0.05000000000000071
          },
          {
            "pitch": 37,
            "start": 16.18409090909091,
            "end": 16.23409090909091,
            "velocity": 68,
            "duration": 0.05000000000000071
          },
          {
            "pitch": 35,
            "start": 16.254545454545454,
            "end": 16.304545454545455,
            "velocity": 85,
            "duration": 0.05000000000000071
          },
          {
            "pitch": 51,
            "start": 16.254545454545454,
            "end": 16.304545454545455,
            "velocity": 84,
            "duration": 0.05000000000000071
          },
          {
            "pitch": 37,
            "start": 16.3,
            "end": 16.349999999999998,
            "velocity": 66,
            "duration": 0.04999999999999716
          },
          {
            "pitch": 51,
            "start": 16.347727272727273,
            "end": 16.397727272727273,
            "velocity": 84,
            "duration": 0.05000000000000071
          },
          {
            "pitch": 35,
            "start": 16.370454545454546,
            "end": 16.420454545454543,
            "velocity": 92,
            "duration": 0.04999999999999716
          },
          {
            "pitch": 42,
            "start": 16.370454545454546,
            "end": 16.420454545454543,
            "velocity": 73,
            "duration": 0.04999999999999716
          },
          {
            "pitch": 37,
            "start": 16.393181818181816,
            "end": 16.443181818181817,
            "velocity": 97,
            "duration": 0.05000000000000071
          },
          {
            "pitch": 42,
            "start": 16.438636363636363,
            "end": 16.488636363636363,
            "velocity": 69,
            "duration": 0.05000000000000071
          },
          {
            "pitch": 51,
            "start": 16.438636363636363,
            "end": 16.488636363636363,
            "velocity": 67,
            "duration": 0.05000000000000071
          },
          {
            "pitch": 37,
            "start": 16.486363636363635,
            "end": 16.536363636363635,
            "velocity": 99,
            "duration": 0.05000000000000071
          },
          {
            "pitch": 51,
            "start": 16.53181818181818,
            "end": 16.581818181818182,
            "velocity": 65,
            "duration": 0.05000000000000071
          },
          {
            "pitch": 35,
            "start": 16.625,
            "end": 16.675,
            "velocity": 109,
            "duration": 0.05000000000000071
          },
          {
            "pitch": 35,
            "start": 16.74090909090909,
            "end": 16.79090909090909,
            "velocity": 68,
            "duration": 0.05000000000000071
          },
          {
            "pitch": 37,
            "start": 16.76590909090909,
            "end": 16.81590909090909,
            "velocity": 79,
            "duration": 0.05000000000000071
          },
          {
            "pitch": 37,
            "start": 16.85681818181818,
            "end": 16.90681818181818,
            "velocity": 91,
            "duration": 0.05000000000000071
          },
          {
            "pitch": 35,
            "start": 16.881818181818183,
            "end": 16.93181818181818,
            "velocity": 65,
            "duration": 0.04999999999999716
          },
          {
            "pitch": 35,
            "start": 16.927272727272726,
            "end": 16.93181818181818,
            "velocity": 67,
            "duration": 0.004545454545453964
          },
          {
            "pitch": 37,
            "start": 16.95,
            "end": 17.0,
            "velocity": 100,
            "duration": 0.05000000000000071
          },
          {
            "pitch": 37,
            "start": 17.06590909090909,
            "end": 17.11590909090909,
            "velocity": 75,
            "duration": 0.04999999999999716
          },
          {
            "pitch": 51,
            "start": 17.113636363636363,
            "end": 17.163636363636364,
            "velocity": 67,
            "duration": 0.05000000000000071
          },
          {
            "pitch": 51,
            "start": 17.18181818181818,
            "end": 17.23181818181818,
            "velocity": 78,
            "duration": 0.05000000000000071
          },
          {
            "pitch": 37,
            "start": 17.206818181818182,
            "end": 17.256818181818183,
            "velocity": 66,
            "duration": 0.05000000000000071
          },
          {
            "pitch": 37,
            "start": 17.275,
            "end": 17.325,
            "velocity": 90,
            "duration": 0.05000000000000071
          },
          {
            "pitch": 45,
            "start": 17.3,
            "end": 17.349999999999998,
            "velocity": 89,
            "duration": 0.04999999999999716
          },
          {
            "pitch": 41,
            "start": 17.39090909090909,
            "end": 17.44090909090909,
            "velocity": 67,
            "duration": 0.05000000000000071
          },
          {
            "pitch": 41,
            "start": 17.438636363636363,
            "end": 17.44090909090909,
            "velocity": 64,
            "duration": 0.0022727272727287584
          },
          {
            "pitch": 51,
            "start": 17.41590909090909,
            "end": 17.46590909090909,
            "velocity": 71,
            "duration": 0.05000000000000071
          },
          {
            "pitch": 35,
            "start": 17.461363636363636,
            "end": 17.511363636363637,
            "velocity": 70,
            "duration": 0.05000000000000071
          },
          {
            "pitch": 41,
            "start": 17.53181818181818,
            "end": 17.581818181818182,
            "velocity": 83,
            "duration": 0.05000000000000071
          },
          {
            "pitch": 35,
            "start": 17.554545454545455,
            "end": 17.604545454545455,
            "velocity": 68,
            "duration": 0.05000000000000071
          },
          {
            "pitch": 35,
            "start": 17.625,
            "end": 17.675,
            "velocity": 101,
            "duration": 0.05000000000000071
          },
          {
            "pitch": 51,
            "start": 17.625,
            "end": 17.675,
            "velocity": 86,
            "duration": 0.05000000000000071
          },
          {
            "pitch": 51,
            "start": 17.693181818181817,
            "end": 17.743181818181817,
            "velocity": 71,
            "duration": 0.05000000000000071
          },
          {
            "pitch": 51,
            "start": 17.786363636363635,
            "end": 17.836363636363636,
            "velocity": 80,
            "duration": 0.05000000000000071
          },
          {
            "pitch": 35,
            "start": 17.80909090909091,
            "end": 17.85909090909091,
            "velocity": 84,
            "duration": 0.05000000000000071
          },
          {
            "pitch": 42,
            "start": 17.80909090909091,
            "end": 17.85909090909091,
            "velocity": 77,
            "duration": 0.05000000000000071
          },
          {
            "pitch": 37,
            "start": 17.85681818181818,
            "end": 17.90681818181818,
            "velocity": 79,
            "duration": 0.05000000000000071
          },
          {
            "pitch": 35,
            "start": 17.879545454545454,
            "end": 17.929545454545455,
            "velocity": 82,
            "duration": 0.05000000000000071
          },
          {
            "pitch": 51,
            "start": 17.879545454545454,
            "end": 17.929545454545455,
            "velocity": 85,
            "duration": 0.05000000000000071
          },
          {
            "pitch": 51,
            "start": 17.972727272727273,
            "end": 18.022727272727273,
            "velocity": 77,
            "duration": 0.05000000000000071
          },
          {
            "pitch": 35,
            "start": 17.995454545454546,
            "end": 18.045454545454543,
            "velocity": 79,
            "duration": 0.04999999999999716
          },
          {
            "pitch": 42,
            "start": 17.995454545454546,
            "end": 18.045454545454543,
            "velocity": 88,
            "duration": 0.04999999999999716
          },
          {
            "pitch": 37,
            "start": 18.018181818181816,
            "end": 18.068181818181817,
            "velocity": 73,
            "duration": 0.05000000000000071
          },
          {
            "pitch": 35,
            "start": 18.06590909090909,
            "end": 18.11590909090909,
            "velocity": 92,
            "duration": 0.04999999999999716
          },
          {
            "pitch": 42,
            "start": 18.06590909090909,
            "end": 18.11590909090909,
            "velocity": 67,
            "duration": 0.04999999999999716
          },
          {
            "pitch": 51,
            "start": 18.06590909090909,
            "end": 18.11590909090909,
            "velocity": 73,
            "duration": 0.04999999999999716
          },
          {
            "pitch": 51,
            "start": 18.159090909090907,
            "end": 18.209090909090907,
            "velocity": 83,
            "duration": 0.05000000000000071
          },
          {
            "pitch": 35,
            "start": 18.18181818181818,
            "end": 18.23181818181818,
            "velocity": 89,
            "duration": 0.05000000000000071
          },
          {
            "pitch": 42,
            "start": 18.18181818181818,
            "end": 18.23181818181818,
            "velocity": 77,
            "duration": 0.05000000000000071
          },
          {
            "pitch": 35,
            "start": 18.25,
            "end": 18.3,
            "velocity": 106,
            "duration": 0.05000000000000071
          },
          {
            "pitch": 42,
            "start": 18.25,
            "end": 18.3,
            "velocity": 70,
            "duration": 0.05000000000000071
          },
          {
            "pitch": 51,
            "start": 18.25,
            "end": 18.3,
            "velocity": 79,
            "duration": 0.05000000000000071
          },
          {
            "pitch": 37,
            "start": 18.297727272727272,
            "end": 18.347727272727273,
            "velocity": 64,
            "duration": 0.05000000000000071
          },
          {
            "pitch": 51,
            "start": 18.34318181818182,
            "end": 18.393181818181816,
            "velocity": 73,
            "duration": 0.04999999999999716
          },
          {
            "pitch": 35,
            "start": 18.36590909090909,
            "end": 18.41590909090909,
            "velocity": 72,
            "duration": 0.05000000000000071
          },
          {
            "pitch": 35,
            "start": 18.436363636363634,
            "end": 18.486363636363635,
            "velocity": 105,
            "duration": 0.05000000000000071
          },
          {
            "pitch": 42,
            "start": 18.436363636363634,
            "end": 18.486363636363635,
            "velocity": 80,
            "duration": 0.05000000000000071
          },
          {
            "pitch": 51,
            "start": 18.436363636363634,
            "end": 18.486363636363635,
            "velocity": 74,
            "duration": 0.05000000000000071
          },
          {
            "pitch": 37,
            "start": 18.459090909090907,
            "end": 18.509090909090908,
            "velocity": 69,
            "duration": 0.05000000000000071
          },
          {
            "pitch": 37,
            "start": 18.529545454545453,
            "end": 18.579545454545453,
            "velocity": 64,
            "duration": 0.05000000000000071
          },
          {
            "pitch": 35,
            "start": 18.62272727272727,
            "end": 18.672727272727272,
            "velocity": 96,
            "duration": 0.05000000000000071
          },
          {
            "pitch": 42,
            "start": 18.62272727272727,
            "end": 18.672727272727272,
            "velocity": 77,
            "duration": 0.05000000000000071
          },
          {
            "pitch": 51,
            "start": 18.62272727272727,
            "end": 18.672727272727272,
            "velocity": 86,
            "duration": 0.05000000000000071
          },
          {
            "pitch": 35,
            "start": 18.693181818181817,
            "end": 18.743181818181817,
            "velocity": 82,
            "duration": 0.05000000000000071
          },
          {
            "pitch": 51,
            "start": 18.693181818181817,
            "end": 18.743181818181817,
            "velocity": 84,
            "duration": 0.05000000000000071
          },
          {
            "pitch": 51,
            "start": 18.784090909090907,
            "end": 18.834090909090907,
            "velocity": 75,
            "duration": 0.05000000000000071
          },
          {
            "pitch": 35,
            "start": 18.80909090909091,
            "end": 18.85909090909091,
            "velocity": 71,
            "duration": 0.05000000000000071
          },
          {
            "pitch": 42,
            "start": 18.80909090909091,
            "end": 18.85909090909091,
            "velocity": 65,
            "duration": 0.05000000000000071
          },
          {
            "pitch": 37,
            "start": 18.854545454545455,
            "end": 18.904545454545453,
            "velocity": 64,
            "duration": 0.04999999999999716
          },
          {
            "pitch": 35,
            "start": 18.877272727272725,
            "end": 18.927272727272726,
            "velocity": 87,
            "duration": 0.05000000000000071
          },
          {
            "pitch": 51,
            "start": 18.877272727272725,
            "end": 18.927272727272726,
            "velocity": 83,
            "duration": 0.05000000000000071
          },
          {
            "pitch": 51,
            "start": 18.970454545454544,
            "end": 19.020454545454545,
            "velocity": 77,
            "duration": 0.05000000000000071
          },
          {
            "pitch": 35,
            "start": 18.993181818181817,
            "end": 19.043181818181818,
            "velocity": 75,
            "duration": 0.05000000000000071
          },
          {
            "pitch": 42,
            "start": 18.993181818181817,
            "end": 19.043181818181818,
            "velocity": 71,
            "duration": 0.05000000000000071
          },
          {
            "pitch": 37,
            "start": 19.018181818181816,
            "end": 19.068181818181817,
            "velocity": 71,
            "duration": 0.05000000000000071
          },
          {
            "pitch": 35,
            "start": 19.063636363636363,
            "end": 19.113636363636363,
            "velocity": 103,
            "duration": 0.05000000000000071
          },
          {
            "pitch": 42,
            "start": 19.063636363636363,
            "end": 19.113636363636363,
            "velocity": 82,
            "duration": 0.05000000000000071
          },
          {
            "pitch": 51,
            "start": 19.063636363636363,
            "end": 19.113636363636363,
            "velocity": 78,
            "duration": 0.05000000000000071
          },
          {
            "pitch": 51,
            "start": 19.15681818181818,
            "end": 19.206818181818182,
            "velocity": 80,
            "duration": 0.05000000000000071
          },
          {
            "pitch": 35,
            "start": 19.179545454545455,
            "end": 19.229545454545455,
            "velocity": 66,
            "duration": 0.05000000000000071
          },
          {
            "pitch": 37,
            "start": 19.224999999999998,
            "end": 19.275,
            "velocity": 79,
            "duration": 0.05000000000000071
          },
          {
            "pitch": 35,
            "start": 19.25,
            "end": 19.3,
            "velocity": 102,
            "duration": 0.05000000000000071
          },
          {
            "pitch": 42,
            "start": 19.25,
            "end": 19.3,
            "velocity": 98,
            "duration": 0.05000000000000071
          },
          {
            "pitch": 51,
            "start": 19.25,
            "end": 19.3,
            "velocity": 86,
            "duration": 0.05000000000000071
          },
          {
            "pitch": 37,
            "start": 19.34318181818182,
            "end": 19.393181818181816,
            "velocity": 75,
            "duration": 0.04999999999999716
          },
          {
            "pitch": 51,
            "start": 19.411363636363635,
            "end": 19.461363636363636,
            "velocity": 72,
            "duration": 0.05000000000000071
          },
          {
            "pitch": 35,
            "start": 19.43409090909091,
            "end": 19.48409090909091,
            "velocity": 84,
            "duration": 0.05000000000000071
          },
          {
            "pitch": 37,
            "start": 19.459090909090907,
            "end": 19.509090909090908,
            "velocity": 88,
            "duration": 0.05000000000000071
          },
          {
            "pitch": 51,
            "start": 19.48181818181818,
            "end": 19.53181818181818,
            "velocity": 82,
            "duration": 0.05000000000000071
          },
          {
            "pitch": 51,
            "start": 19.527272727272727,
            "end": 19.53181818181818,
            "velocity": 66,
            "duration": 0.004545454545453964
          },
          {
            "pitch": 37,
            "start": 19.552272727272726,
            "end": 19.602272727272727,
            "velocity": 74,
            "duration": 0.05000000000000071
          },
          {
            "pitch": 51,
            "start": 19.597727272727273,
            "end": 19.647727272727273,
            "velocity": 63,
            "duration": 0.05000000000000071
          },
          {
            "pitch": 37,
            "start": 19.643181818181816,
            "end": 19.693181818181817,
            "velocity": 94,
            "duration": 0.05000000000000071
          },
          {
            "pitch": 51,
            "start": 19.784090909090907,
            "end": 19.834090909090907,
            "velocity": 86,
            "duration": 0.05000000000000071
          },
          {
            "pitch": 51,
            "start": 19.877272727272725,
            "end": 19.927272727272726,
            "velocity": 76,
            "duration": 0.05000000000000071
          },
          {
            "pitch": 51,
            "start": 19.922727272727272,
            "end": 19.927272727272726,
            "velocity": 71,
            "duration": 0.004545454545453964
          },
          {
            "pitch": 35,
            "start": 19.993181818181817,
            "end": 20.043181818181818,
            "velocity": 72,
            "duration": 0.05000000000000071
          },
          {
            "pitch": 37,
            "start": 20.01590909090909,
            "end": 20.06590909090909,
            "velocity": 67,
            "duration": 0.05000000000000071
          },
          {
            "pitch": 51,
            "start": 20.038636363636364,
            "end": 20.08863636363636,
            "velocity": 70,
            "duration": 0.04999999999999716
          },
          {
            "pitch": 42,
            "start": 20.061363636363634,
            "end": 20.111363636363635,
            "velocity": 66,
            "duration": 0.05000000000000071
          },
          {
            "pitch": 51,
            "start": 20.154545454545453,
            "end": 20.204545454545453,
            "velocity": 82,
            "duration": 0.05000000000000071
          },
          {
            "pitch": 35,
            "start": 20.24772727272727,
            "end": 20.297727272727272,
            "velocity": 94,
            "duration": 0.05000000000000071
          },
          {
            "pitch": 51,
            "start": 20.24772727272727,
            "end": 20.297727272727272,
            "velocity": 75,
            "duration": 0.05000000000000071
          },
          {
            "pitch": 37,
            "start": 20.270454545454545,
            "end": 20.320454545454545,
            "velocity": 95,
            "duration": 0.05000000000000071
          },
          {
            "pitch": 37,
            "start": 20.318181818181817,
            "end": 20.320454545454545,
            "velocity": 70,
            "duration": 0.0022727272727287584
          },
          {
            "pitch": 37,
            "start": 20.411363636363635,
            "end": 20.461363636363636,
            "velocity": 78,
            "duration": 0.05000000000000071
          },
          {
            "pitch": 37,
            "start": 20.456818181818182,
            "end": 20.461363636363636,
            "velocity": 68,
            "duration": 0.004545454545453964
          },
          {
            "pitch": 51,
            "start": 20.502272727272725,
            "end": 20.552272727272726,
            "velocity": 70,
            "duration": 0.05000000000000071
          },
          {
            "pitch": 37,
            "start": 20.55,
            "end": 20.599999999999998,
            "velocity": 65,
            "duration": 0.04999999999999716
          },
          {
            "pitch": 35,
            "start": 20.620454545454546,
            "end": 20.670454545454543,
            "velocity": 80,
            "duration": 0.04999999999999716
          },
          {
            "pitch": 37,
            "start": 20.643181818181816,
            "end": 20.693181818181817,
            "velocity": 83,
            "duration": 0.05000000000000071
          },
          {
            "pitch": 37,
            "start": 20.736363636363635,
            "end": 20.786363636363635,
            "velocity": 70,
            "duration": 0.05000000000000071
          },
          {
            "pitch": 51,
            "start": 20.78181818181818,
            "end": 20.831818181818182,
            "velocity": 71,
            "duration": 0.05000000000000071
          },
          {
            "pitch": 37,
            "start": 20.852272727272727,
            "end": 20.902272727272727,
            "velocity": 65,
            "duration": 0.05000000000000071
          },
          {
            "pitch": 37,
            "start": 20.897727272727273,
            "end": 20.902272727272727,
            "velocity": 67,
            "duration": 0.004545454545453964
          },
          {
            "pitch": 35,
            "start": 20.875,
            "end": 20.925,
            "velocity": 93,
            "duration": 0.05000000000000071
          },
          {
            "pitch": 51,
            "start": 20.875,
            "end": 20.925,
            "velocity": 76,
            "duration": 0.05000000000000071
          },
          {
            "pitch": 35,
            "start": 20.99090909090909,
            "end": 21.04090909090909,
            "velocity": 70,
            "duration": 0.05000000000000071
          },
          {
            "pitch": 37,
            "start": 21.013636363636362,
            "end": 21.063636363636363,
            "velocity": 65,
            "duration": 0.05000000000000071
          },
          {
            "pitch": 45,
            "start": 21.084090909090907,
            "end": 21.134090909090908,
            "velocity": 63,
            "duration": 0.05000000000000071
          },
          {
            "pitch": 35,
            "start": 21.245454545454546,
            "end": 21.295454545454543,
            "velocity": 78,
            "duration": 0.04999999999999716
          },
          {
            "pitch": 37,
            "start": 21.270454545454545,
            "end": 21.320454545454545,
            "velocity": 87,
            "duration": 0.05000000000000071
          },
          {
            "pitch": 37,
            "start": 21.33863636363636,
            "end": 21.388636363636362,
            "velocity": 71,
            "duration": 0.05000000000000071
          },
          {
            "pitch": 37,
            "start": 21.454545454545453,
            "end": 21.504545454545454,
            "velocity": 75,
            "duration": 0.05000000000000071
          }
        ],
        "melodic_notes": [],
        "instruments": [
          {
            "program": "0",
            "is_drum": true,
            "name": "",
            "note_count": 694
          }
        ],
        "duration": 21.504545454545454,
        "tempo_changes": 0
      },
      {
        "file_path": "/home/matt/Documents/drum-tranxn/drum-transcription-api/test_audio/final_output.mid",
        "total_notes": 694,
        "drum_notes": [
          {
            "pitch": 35,
            "start": 0.5568181818181818,
            "end": 0.6068181818181818,
            "velocity": 126,
            "duration": 0.050000000000000044
          },
          {
            "pitch": 51,
            "start": 0.5568181818181818,
            "end": 0.6068181818181818,
            "velocity": 109,
            "duration": 0.050000000000000044
          },
          {
            "pitch": 42,
            "start": 0.7431818181818182,
            "end": 0.7931818181818181,
            "velocity": 104,
            "duration": 0.04999999999999993
          },
          {
            "pitch": 45,
            "start": 0.7431818181818182,
            "end": 0.7931818181818181,
            "velocity": 64,
            "duration": 0.04999999999999993
          },
          {
            "pitch": 35,
            "start": 1.3,
            "end": 1.3499999999999999,
            "velocity": 100,
            "duration": 0.04999999999999982
          },
          {
            "pitch": 51,
            "start": 1.3,
            "end": 1.3499999999999999,
            "velocity": 112,
            "duration": 0.04999999999999982
          },
          {
            "pitch": 41,
            "start": 1.4863636363636363,
            "end": 1.5363636363636364,
            "velocity": 75,
            "duration": 0.050000000000000044
          },
          {
            "pitch": 42,
            "start": 1.4863636363636363,
            "end": 1.5363636363636364,
            "velocity": 70,
            "duration": 0.050000000000000044
          },
          {
            "pitch": 35,
            "start": 2.043181818181818,
            "end": 2.0931818181818183,
            "velocity": 120,
            "duration": 0.050000000000000266
          },
          {
            "pitch": 41,
            "start": 2.043181818181818,
            "end": 2.0931818181818183,
            "velocity": 79,
            "duration": 0.050000000000000266
          },
          {
            "pitch": 42,
            "start": 2.043181818181818,
            "end": 2.0931818181818183,
            "velocity": 106,
            "duration": 0.050000000000000266
          },
          {
            "pitch": 51,
            "start": 2.043181818181818,
            "end": 2.0931818181818183,
            "velocity": 113,
            "duration": 0.050000000000000266
          },
          {
            "pitch": 51,
            "start": 2.786363636363636,
            "end": 2.8363636363636364,
            "velocity": 114,
            "duration": 0.050000000000000266
          },
          {
            "pitch": 35,
            "start": 2.9727272727272727,
            "end": 3.0227272727272725,
            "velocity": 102,
            "duration": 0.04999999999999982
          },
          {
            "pitch": 41,
            "start": 2.9727272727272727,
            "end": 3.0227272727272725,
            "velocity": 81,
            "duration": 0.04999999999999982
          },
          {
            "pitch": 42,
            "start": 2.9727272727272727,
            "end": 3.0227272727272725,
            "velocity": 78,
            "duration": 0.04999999999999982
          },
          {
            "pitch": 45,
            "start": 2.9727272727272727,
            "end": 3.0227272727272725,
            "velocity": 63,
            "duration": 0.04999999999999982
          },
          {
            "pitch": 35,
            "start": 3.5295454545454543,
            "end": 3.5795454545454546,
            "velocity": 106,
            "duration": 0.050000000000000266
          },
          {
            "pitch": 41,
            "start": 3.5295454545454543,
            "end": 3.5795454545454546,
            "velocity": 75,
            "duration": 0.050000000000000266
          },
          {
            "pitch": 51,
            "start": 3.5295454545454543,
            "end": 3.5795454545454546,
            "velocity": 88,
            "duration": 0.050000000000000266
          },
          {
            "pitch": 37,
            "start": 3.715909090909091,
            "end": 3.7659090909090907,
            "velocity": 78,
            "duration": 0.04999999999999982
          },
          {
            "pitch": 35,
            "start": 4.086363636363636,
            "end": 4.136363636363636,
            "velocity": 123,
            "duration": 0.04999999999999982
          },
          {
            "pitch": 41,
            "start": 4.2727272727272725,
            "end": 4.322727272727272,
            "velocity": 67,
            "duration": 0.04999999999999982
          },
          {
            "pitch": 51,
            "start": 4.2727272727272725,
            "end": 4.322727272727272,
            "velocity": 111,
            "duration": 0.04999999999999982
          },
          {
            "pitch": 42,
            "start": 4.459090909090909,
            "end": 4.509090909090909,
            "velocity": 80,
            "duration": 0.04999999999999982
          },
          {
            "pitch": 35,
            "start": 5.015909090909091,
            "end": 5.0659090909090905,
            "velocity": 112,
            "duration": 0.04999999999999982
          },
          {
            "pitch": 42,
            "start": 5.015909090909091,
            "end": 5.0659090909090905,
            "velocity": 118,
            "duration": 0.04999999999999982
          },
          {
            "pitch": 45,
            "start": 5.015909090909091,
            "end": 5.0659090909090905,
            "velocity": 71,
            "duration": 0.04999999999999982
          },
          {
            "pitch": 51,
            "start": 5.015909090909091,
            "end": 5.0659090909090905,
            "velocity": 103,
            "duration": 0.04999999999999982
          },
          {
            "pitch": 41,
            "start": 5.202272727272727,
            "end": 5.252272727272727,
            "velocity": 103,
            "duration": 0.04999999999999982
          },
          {
            "pitch": 35,
            "start": 5.572727272727272,
            "end": 5.622727272727272,
            "velocity": 88,
            "duration": 0.04999999999999982
          },
          {
            "pitch": 41,
            "start": 5.759090909090909,
            "end": 5.809090909090909,
            "velocity": 75,
            "duration": 0.04999999999999982
          },
          {
            "pitch": 51,
            "start": 5.759090909090909,
            "end": 5.809090909090909,
            "velocity": 113,
            "duration": 0.04999999999999982
          },
          {
            "pitch": 51,
            "start": 6.3159090909090905,
            "end": 6.36590909090909,
            "velocity": 110,
            "duration": 0.04999999999999982
          },
          {
            "pitch": 35,
            "start": 6.502272727272727,
            "end": 6.552272727272727,
            "velocity": 121,
            "duration": 0.04999999999999982
          },
          {
            "pitch": 42,
            "start": 6.502272727272727,
            "end": 6.552272727272727,
            "velocity": 113,
            "duration": 0.04999999999999982
          },
          {
            "pitch": 35,
            "start": 7.059090909090909,
            "end": 7.1090909090909085,
            "velocity": 121,
            "duration": 0.04999999999999982
          },
          {
            "pitch": 51,
            "start": 7.245454545454545,
            "end": 7.295454545454545,
            "velocity": 84,
            "duration": 0.04999999999999982
          },
          {
            "pitch": 35,
            "start": 7.61590909090909,
            "end": 7.66590909090909,
            "velocity": 89,
            "duration": 0.04999999999999982
          },
          {
            "pitch": 42,
            "start": 7.802272727272727,
            "end": 7.852272727272727,
            "velocity": 85,
            "duration": 0.04999999999999982
          },
          {
            "pitch": 51,
            "start": 7.802272727272727,
            "end": 7.852272727272727,
            "velocity": 101,
            "duration": 0.04999999999999982
          },
          {
            "pitch": 41,
            "start": 7.988636363636363,
            "end": 8.038636363636364,
            "velocity": 81,
            "duration": 0.05000000000000071
          },
          {
            "pitch": 35,
            "start": 8.545454545454545,
            "end": 8.595454545454546,
            "velocity": 89,
            "duration": 0.05000000000000071
          },
          {
            "pitch": 41,
            "start": 8.545454545454545,
            "end": 8.595454545454546,
            "velocity": 74,
            "duration": 0.05000000000000071
          },
          {
            "pitch": 42,
            "start": 8.545454545454545,
            "end": 8.595454545454546,
            "velocity": 91,
            "duration": 0.05000000000000071
          },
          {
            "pitch": 51,
            "start": 8.545454545454545,
            "end": 8.595454545454546,
            "velocity": 72,
            "duration": 0.05000000000000071
          },
          {
            "pitch": 51,
            "start": 9.288636363636364,
            "end": 9.338636363636363,
            "velocity": 94,
            "duration": 0.049999999999998934
          },
          {
            "pitch": 42,
            "start": 9.472727272727273,
            "end": 9.522727272727272,
            "velocity": 73,
            "duration": 0.049999999999998934
          },
          {
            "pitch": 35,
            "start": 10.031818181818181,
            "end": 10.081818181818182,
            "velocity": 122,
            "duration": 0.05000000000000071
          },
          {
            "pitch": 42,
            "start": 10.031818181818181,
            "end": 10.081818181818182,
            "velocity": 70,
            "duration": 0.05000000000000071
          },
          {
            "pitch": 51,
            "start": 10.031818181818181,
            "end": 10.081818181818182,
            "velocity": 105,
            "duration": 0.05000000000000071
          },
          {
            "pitch": 51,
            "start": 10.775,
            "end": 10.825,
            "velocity": 89,
            "duration": 0.049999999999998934
          },
          {
            "pitch": 37,
            "start": 11.145454545454545,
            "end": 11.195454545454545,
            "velocity": 113,
            "duration": 0.05000000000000071
          },
          {
            "pitch": 41,
            "start": 11.331818181818182,
            "end": 11.381818181818181,
            "velocity": 77,
            "duration": 0.049999999999998934
          },
          {
            "pitch": 35,
            "start": 11.518181818181818,
            "end": 11.568181818181818,
            "velocity": 122,
            "duration": 0.05000000000000071
          },
          {
            "pitch": 42,
            "start": 11.518181818181818,
            "end": 11.568181818181818,
            "velocity": 89,
            "duration": 0.05000000000000071
          },
          {
            "pitch": 51,
            "start": 11.518181818181818,
            "end": 11.568181818181818,
            "velocity": 85,
            "duration": 0.05000000000000071
          },
          {
            "pitch": 37,
            "start": 11.888636363636364,
            "end": 11.938636363636363,
            "velocity": 70,
            "duration": 0.049999999999998934
          },
          {
            "pitch": 35,
            "start": 12.075,
            "end": 12.125,
            "velocity": 115,
            "duration": 0.05000000000000071
          },
          {
            "pitch": 51,
            "start": 12.259090909090908,
            "end": 12.309090909090909,
            "velocity": 91,
            "duration": 0.05000000000000071
          },
          {
            "pitch": 42,
            "start": 12.445454545454545,
            "end": 12.495454545454544,
            "velocity": 92,
            "duration": 0.049999999999998934
          },
          {
            "pitch": 45,
            "start": 12.631818181818181,
            "end": 12.681818181818182,
            "velocity": 97,
            "duration": 0.05000000000000071
          },
          {
            "pitch": 35,
            "start": 13.002272727272727,
            "end": 13.052272727272726,
            "velocity": 121,
            "duration": 0.049999999999998934
          },
          {
            "pitch": 41,
            "start": 13.002272727272727,
            "end": 13.052272727272726,
            "velocity": 71,
            "duration": 0.049999999999998934
          },
          {
            "pitch": 42,
            "start": 13.002272727272727,
            "end": 13.052272727272726,
            "velocity": 96,
            "duration": 0.049999999999998934
          },
          {
            "pitch": 51,
            "start": 13.002272727272727,
            "end": 13.052272727272726,
            "velocity": 108,
            "duration": 0.049999999999998934
          },
          {
            "pitch": 35,
            "start": 13.561363636363636,
            "end": 13.611363636363636,
            "velocity": 72,
            "duration": 0.05000000000000071
          },
          {
            "pitch": 42,
            "start": 13.561363636363636,
            "end": 13.611363636363636,
            "velocity": 81,
            "duration": 0.05000000000000071
          },
          {
            "pitch": 51,
            "start": 13.561363636363636,
            "end": 13.611363636363636,
            "velocity": 70,
            "duration": 0.05000000000000071
          },
          {
            "pitch": 41,
            "start": 13.745454545454544,
            "end": 13.795454545454545,
            "velocity": 95,
            "duration": 0.05000000000000071
          },
          {
            "pitch": 51,
            "start": 14.304545454545455,
            "end": 14.354545454545454,
            "velocity": 105,
            "duration": 0.049999999999998934
          },
          {
            "pitch": 35,
            "start": 14.488636363636363,
            "end": 14.538636363636362,
            "velocity": 119,
            "duration": 0.049999999999998934
          },
          {
            "pitch": 42,
            "start": 14.488636363636363,
            "end": 14.538636363636362,
            "velocity": 102,
            "duration": 0.049999999999998934
          },
          {
            "pitch": 37,
            "start": 14.674999999999999,
            "end": 14.725,
            "velocity": 89,
            "duration": 0.05000000000000071
          },
          {
            "pitch": 35,
            "start": 15.045454545454545,
            "end": 15.095454545454544,
            "velocity": 121,
            "duration": 0.049999999999998934
          },
          {
            "pitch": 51,
            "start": 15.045454545454545,
            "end": 15.095454545454544,
            "velocity": 104,
            "duration": 0.049999999999998934
          },
          {
            "pitch": 42,
            "start": 15.23181818181818,
            "end": 15.281818181818181,
            "velocity": 95,
            "duration": 0.05000000000000071
          },
          {
            "pitch": 35,
            "start": 15.788636363636362,
            "end": 15.838636363636363,
            "velocity": 96,
            "duration": 0.05000000000000071
          },
          {
            "pitch": 51,
            "start": 15.788636363636362,
            "end": 15.838636363636363,
            "velocity": 83,
            "duration": 0.05000000000000071
          },
          {
            "pitch": 42,
            "start": 15.975,
            "end": 16.025,
            "velocity": 78,
            "duration": 0.049999999999998934
          },
          {
            "pitch": 37,
            "start": 16.161363636363635,
            "end": 16.211363636363636,
            "velocity": 80,
            "duration": 0.05000000000000071
          },
          {
            "pitch": 35,
            "start": 16.53181818181818,
            "end": 16.581818181818182,
            "velocity": 85,
            "duration": 0.05000000000000071
          },
          {
            "pitch": 51,
            "start": 16.53181818181818,
            "end": 16.581818181818182,
            "velocity": 75,
            "duration": 0.05000000000000071
          },
          {
            "pitch": 35,
            "start": 17.09090909090909,
            "end": 17.14090909090909,
            "velocity": 89,
            "duration": 0.05000000000000071
          },
          {
            "pitch": 41,
            "start": 17.275,
            "end": 17.325,
            "velocity": 90,
            "duration": 0.05000000000000071
          },
          {
            "pitch": 51,
            "start": 17.275,
            "end": 17.325,
            "velocity": 88,
            "duration": 0.05000000000000071
          },
          {
            "pitch": 42,
            "start": 17.461363636363636,
            "end": 17.511363636363637,
            "velocity": 80,
            "duration": 0.05000000000000071
          },
          {
            "pitch": 35,
            "start": 18.018181818181816,
            "end": 18.068181818181817,
            "velocity": 111,
            "duration": 0.05000000000000071
          },
          {
            "pitch": 41,
            "start": 18.018181818181816,
            "end": 18.068181818181817,
            "velocity": 87,
            "duration": 0.05000000000000071
          },
          {
            "pitch": 42,
            "start": 18.018181818181816,
            "end": 18.068181818181817,
            "velocity": 79,
            "duration": 0.05000000000000071
          },
          {
            "pitch": 51,
            "start": 18.018181818181816,
            "end": 18.068181818181817,
            "velocity": 93,
            "duration": 0.05000000000000071
          },
          {
            "pitch": 37,
            "start": 18.204545454545453,
            "end": 18.254545454545454,
            "velocity": 80,
            "duration": 0.05000000000000071
          },
          {
            "pitch": 37,
            "start": 18.761363636363637,
            "end": 18.811363636363634,
            "velocity": 73,
            "duration": 0.04999999999999716
          },
          {
            "pitch": 51,
            "start": 18.761363636363637,
            "end": 18.811363636363634,
            "velocity": 94,
            "duration": 0.04999999999999716
          },
          {
            "pitch": 35,
            "start": 18.94772727272727,
            "end": 18.99772727272727,
            "velocity": 82,
            "duration": 0.05000000000000071
          },
          {
            "pitch": 42,
            "start": 18.94772727272727,
            "end": 18.99772727272727,
            "velocity": 116,
            "duration": 0.05000000000000071
          },
          {
            "pitch": 37,
            "start": 19.134090909090908,
            "end": 19.18409090909091,
            "velocity": 99,
            "duration": 0.05000000000000071
          },
          {
            "pitch": 35,
            "start": 19.504545454545454,
            "end": 19.554545454545455,
            "velocity": 118,
            "duration": 0.05000000000000071
          },
          {
            "pitch": 42,
            "start": 19.504545454545454,
            "end": 19.554545454545455,
            "velocity": 83,
            "duration": 0.05000000000000071
          },
          {
            "pitch": 51,
            "start": 19.504545454545454,
            "end": 19.554545454545455,
            "velocity": 96,
            "duration": 0.05000000000000071
          },
          {
            "pitch": 37,
            "start": 19.877272727272725,
            "end": 19.927272727272726,
            "velocity": 74,
            "duration": 0.05000000000000071
          },
          {
            "pitch": 35,
            "start": 20.061363636363634,
            "end": 20.111363636363635,
            "velocity": 109,
            "duration": 0.05000000000000071
          },
          {
            "pitch": 51,
            "start": 20.061363636363634,
            "end": 20.111363636363635,
            "velocity": 88,
            "duration": 0.05000000000000071
          },
          {
            "pitch": 35,
            "start": 20.99090909090909,
            "end": 21.04090909090909,
            "velocity": 100,
            "duration": 0.05000000000000071
          },
          {
            "pitch": 42,
            "start": 20.99090909090909,
            "end": 21.04090909090909,
            "velocity": 107,
            "duration": 0.05000000000000071
          },
          {
            "pitch": 51,
            "start": 20.99090909090909,
            "end": 21.04090909090909,
            "velocity": 96,
            "duration": 0.05000000000000071
          },
          {
            "pitch": 41,
            "start": 21.177272727272726,
            "end": 21.227272727272727,
            "velocity": 89,
            "duration": 0.05000000000000071
          },
          {
            "pitch": 35,
            "start": 21.547727272727272,
            "end": 21.597727272727273,
            "velocity": 73,
            "duration": 0.05000000000000071
          },
          {
            "pitch": 42,
            "start": 21.547727272727272,
            "end": 21.597727272727273,
            "velocity": 100,
            "duration": 0.05000000000000071
          },
          {
            "pitch": 51,
            "start": 21.547727272727272,
            "end": 21.597727272727273,
            "velocity": 81,
            "duration": 0.05000000000000071
          },
          {
            "pitch": 35,
            "start": 22.29090909090909,
            "end": 22.34090909090909,
            "velocity": 121,
            "duration": 0.05000000000000071
          },
          {
            "pitch": 51,
            "start": 22.29090909090909,
            "end": 22.34090909090909,
            "velocity": 111,
            "duration": 0.05000000000000071
          },
          {
            "pitch": 42,
            "start": 22.477272727272727,
            "end": 22.527272727272727,
            "velocity": 104,
            "duration": 0.05000000000000071
          },
          {
            "pitch": 35,
            "start": 23.034090909090907,
            "end": 23.084090909090907,
            "velocity": 115,
            "duration": 0.05000000000000071
          },
          {
            "pitch": 42,
            "start": 23.034090909090907,
            "end": 23.084090909090907,
            "velocity": 89,
            "duration": 0.05000000000000071
          },
          {
            "pitch": 51,
            "start": 23.034090909090907,
            "end": 23.084090909090907,
            "velocity": 70,
            "duration": 0.05000000000000071
          },
          {
            "pitch": 37,
            "start": 23.40681818181818,
            "end": 23.456818181818182,
            "velocity": 101,
            "duration": 0.05000000000000071
          },
          {
            "pitch": 35,
            "start": 23.59090909090909,
            "end": 23.64090909090909,
            "velocity": 74,
            "duration": 0.05000000000000071
          },
          {
            "pitch": 37,
            "start": 23.777272727272727,
            "end": 23.827272727272724,
            "velocity": 94,
            "duration": 0.04999999999999716
          },
          {
            "pitch": 51,
            "start": 23.777272727272727,
            "end": 23.827272727272724,
            "velocity": 70,
            "duration": 0.04999999999999716
          },
          {
            "pitch": 42,
            "start": 23.96363636363636,
            "end": 24.013636363636362,
            "velocity": 69,
            "duration": 0.05000000000000071
          },
          {
            "pitch": 41,
            "start": 24.334090909090907,
            "end": 24.384090909090908,
            "velocity": 87,
            "duration": 0.05000000000000071
          },
          {
            "pitch": 35,
            "start": 24.520454545454545,
            "end": 24.570454545454545,
            "velocity": 95,
            "duration": 0.05000000000000071
          },
          {
            "pitch": 42,
            "start": 24.520454545454545,
            "end": 24.570454545454545,
            "velocity": 84,
            "duration": 0.05000000000000071
          },
          {
            "pitch": 51,
            "start": 24.520454545454545,
            "end": 24.570454545454545,
            "velocity": 70,
            "duration": 0.05000000000000071
          },
          {
            "pitch": 41,
            "start": 24.89090909090909,
            "end": 24.94090909090909,
            "velocity": 91,
            "duration": 0.05000000000000071
          },
          {
            "pitch": 42,
            "start": 25.45,
            "end": 25.5,
            "velocity": 80,
            "duration": 0.05000000000000071
          },
          {
            "pitch": 51,
            "start": 25.45,
            "end": 25.5,
            "velocity": 63,
            "duration": 0.05000000000000071
          },
          {
            "pitch": 37,
            "start": 25.820454545454545,
            "end": 25.870454545454542,
            "velocity": 64,
            "duration": 0.04999999999999716
          },
          {
            "pitch": 35,
            "start": 26.00681818181818,
            "end": 26.05681818181818,
            "velocity": 119,
            "duration": 0.05000000000000071
          },
          {
            "pitch": 42,
            "start": 26.00681818181818,
            "end": 26.05681818181818,
            "velocity": 105,
            "duration": 0.05000000000000071
          },
          {
            "pitch": 51,
            "start": 26.00681818181818,
            "end": 26.05681818181818,
            "velocity": 91,
            "duration": 0.05000000000000071
          },
          {
            "pitch": 37,
            "start": 26.193181818181817,
            "end": 26.243181818181817,
            "velocity": 63,
            "duration": 0.05000000000000071
          },
          {
            "pitch": 35,
            "start": 26.563636363636363,
            "end": 26.613636363636363,
            "velocity": 81,
            "duration": 0.05000000000000071
          },
          {
            "pitch": 51,
            "start": 26.563636363636363,
            "end": 26.613636363636363,
            "velocity": 72,
            "duration": 0.05000000000000071
          },
          {
            "pitch": 35,
            "start": 27.493181818181817,
            "end": 27.543181818181818,
            "velocity": 121,
            "duration": 0.05000000000000071
          },
          {
            "pitch": 42,
            "start": 27.493181818181817,
            "end": 27.543181818181818,
            "velocity": 105,
            "duration": 0.05000000000000071
          },
          {
            "pitch": 51,
            "start": 27.493181818181817,
            "end": 27.543181818181818,
            "velocity": 92,
            "duration": 0.05000000000000071
          },
          {
            "pitch": 37,
            "start": 27.677272727272726,
            "end": 27.727272727272727,
            "velocity": 71,
            "duration": 0.05000000000000071
          },
          {
            "pitch": 35,
            "start": 28.049999999999997,
            "end": 28.099999999999998,
            "velocity": 107,
            "duration": 0.05000000000000071
          },
          {
            "pitch": 51,
            "start": 28.049999999999997,
            "end": 28.099999999999998,
            "velocity": 93,
            "duration": 0.05000000000000071
          },
          {
            "pitch": 37,
            "start": 28.420454545454543,
            "end": 28.470454545454544,
            "velocity": 92,
            "duration": 0.05000000000000071
          },
          {
            "pitch": 51,
            "start": 28.793181818181818,
            "end": 28.843181818181815,
            "velocity": 98,
            "duration": 0.04999999999999716
          },
          {
            "pitch": 35,
            "start": 28.979545454545452,
            "end": 29.029545454545453,
            "velocity": 96,
            "duration": 0.05000000000000071
          },
          {
            "pitch": 42,
            "start": 28.979545454545452,
            "end": 29.029545454545453,
            "velocity": 100,
            "duration": 0.05000000000000071
          },
          {
            "pitch": 35,
            "start": 29.536363636363635,
            "end": 29.586363636363636,
            "velocity": 78,
            "duration": 0.05000000000000071
          },
          {
            "pitch": 42,
            "start": 29.536363636363635,
            "end": 29.586363636363636,
            "velocity": 97,
            "duration": 0.05000000000000071
          },
          {
            "pitch": 51,
            "start": 29.536363636363635,
            "end": 29.586363636363636,
            "velocity": 85,
            "duration": 0.05000000000000071
          },
          {
            "pitch": 41,
            "start": 29.720454545454544,
            "end": 29.770454545454545,
            "velocity": 68,
            "duration": 0.05000000000000071
          },
          {
            "pitch": 35,
            "start": 30.093181818181815,
            "end": 30.143181818181816,
            "velocity": 82,
            "duration": 0.05000000000000071
          },
          {
            "pitch": 51,
            "start": 30.279545454545453,
            "end": 30.329545454545453,
            "velocity": 91,
            "duration": 0.05000000000000071
          },
          {
            "pitch": 42,
            "start": 30.46363636363636,
            "end": 30.513636363636362,
            "velocity": 91,
            "duration": 0.05000000000000071
          },
          {
            "pitch": 35,
            "start": 31.02272727272727,
            "end": 31.07272727272727,
            "velocity": 122,
            "duration": 0.05000000000000071
          },
          {
            "pitch": 37,
            "start": 31.02272727272727,
            "end": 31.07272727272727,
            "velocity": 87,
            "duration": 0.05000000000000071
          },
          {
            "pitch": 42,
            "start": 31.02272727272727,
            "end": 31.07272727272727,
            "velocity": 85,
            "duration": 0.05000000000000071
          },
          {
            "pitch": 51,
            "start": 31.02272727272727,
            "end": 31.07272727272727,
            "velocity": 101,
            "duration": 0.05000000000000071
          },
          {
            "pitch": 37,
            "start": 31.393181818181816,
            "end": 31.443181818181817,
            "velocity": 110,
            "duration": 0.05000000000000071
          },
          {
            "pitch": 35,
            "start": 31.579545454545453,
            "end": 31.629545454545454,
            "velocity": 88,
            "duration": 0.05000000000000071
          },
          {
            "pitch": 37,
            "start": 31.76590909090909,
            "end": 31.815909090909088,
            "velocity": 85,
            "duration": 0.04999999999999716
          },
          {
            "pitch": 42,
            "start": 31.95,
            "end": 32.0,
            "velocity": 65,
            "duration": 0.05000000000000071
          },
          {
            "pitch": 37,
            "start": 32.13636363636363,
            "end": 32.18636363636364,
            "velocity": 68,
            "duration": 0.05000000000000426
          },
          {
            "pitch": 35,
            "start": 32.50681818181818,
            "end": 32.55681818181818,
            "velocity": 117,
            "duration": 0.04999999999999716
          },
          {
            "pitch": 42,
            "start": 32.50681818181818,
            "end": 32.55681818181818,
            "velocity": 105,
            "duration": 0.04999999999999716
          },
          {
            "pitch": 51,
            "start": 32.50681818181818,
            "end": 32.55681818181818,
            "velocity": 92,
            "duration": 0.04999999999999716
          },
          {
            "pitch": 37,
            "start": 32.87954545454545,
            "end": 32.929545454545455,
            "velocity": 93,
            "duration": 0.05000000000000426
          },
          {
            "pitch": 35,
            "start": 33.06590909090909,
            "end": 33.11590909090909,
            "velocity": 92,
            "duration": 0.05000000000000426
          },
          {
            "pitch": 51,
            "start": 33.25,
            "end": 33.3,
            "velocity": 94,
            "duration": 0.04999999999999716
          },
          {
            "pitch": 35,
            "start": 33.99318181818182,
            "end": 34.043181818181814,
            "velocity": 124,
            "duration": 0.04999999999999716
          },
          {
            "pitch": 42,
            "start": 33.99318181818182,
            "end": 34.043181818181814,
            "velocity": 98,
            "duration": 0.04999999999999716
          },
          {
            "pitch": 51,
            "start": 33.99318181818182,
            "end": 34.043181818181814,
            "velocity": 108,
            "duration": 0.04999999999999716
          },
          {
            "pitch": 35,
            "start": 34.55227272727272,
            "end": 34.60227272727273,
            "velocity": 89,
            "duration": 0.05000000000000426
          },
          {
            "pitch": 42,
            "start": 34.55227272727272,
            "end": 34.60227272727273,
            "velocity": 67,
            "duration": 0.05000000000000426
          },
          {
            "pitch": 51,
            "start": 34.736363636363635,
            "end": 34.78636363636363,
            "velocity": 90,
            "duration": 0.04999999999999716
          },
          {
            "pitch": 51,
            "start": 35.29545454545455,
            "end": 35.345454545454544,
            "velocity": 78,
            "duration": 0.04999999999999716
          },
          {
            "pitch": 35,
            "start": 35.47954545454545,
            "end": 35.529545454545456,
            "velocity": 106,
            "duration": 0.05000000000000426
          },
          {
            "pitch": 35,
            "start": 36.03636363636363,
            "end": 36.086363636363636,
            "velocity": 117,
            "duration": 0.05000000000000426
          },
          {
            "pitch": 51,
            "start": 36.03636363636363,
            "end": 36.086363636363636,
            "velocity": 102,
            "duration": 0.05000000000000426
          },
          {
            "pitch": 35,
            "start": 36.595454545454544,
            "end": 36.64545454545454,
            "velocity": 65,
            "duration": 0.04999999999999716
          },
          {
            "pitch": 51,
            "start": 36.779545454545456,
            "end": 36.82954545454545,
            "velocity": 76,
            "duration": 0.04999999999999716
          },
          {
            "pitch": 35,
            "start": 36.965909090909086,
            "end": 37.01590909090909,
            "velocity": 78,
            "duration": 0.05000000000000426
          },
          {
            "pitch": 42,
            "start": 36.965909090909086,
            "end": 37.01590909090909,
            "velocity": 100,
            "duration": 0.05000000000000426
          },
          {
            "pitch": 37,
            "start": 37.152272727272724,
            "end": 37.20227272727273,
            "velocity": 95,
            "duration": 0.05000000000000426
          },
          {
            "pitch": 35,
            "start": 37.52272727272727,
            "end": 37.57272727272727,
            "velocity": 111,
            "duration": 0.04999999999999716
          },
          {
            "pitch": 42,
            "start": 37.52272727272727,
            "end": 37.57272727272727,
            "velocity": 89,
            "duration": 0.04999999999999716
          },
          {
            "pitch": 51,
            "start": 37.52272727272727,
            "end": 37.57272727272727,
            "velocity": 69,
            "duration": 0.04999999999999716
          },
          {
            "pitch": 37,
            "start": 37.89545454545454,
            "end": 37.945454545454545,
            "velocity": 103,
            "duration": 0.05000000000000426
          },
          {
            "pitch": 35,
            "start": 38.08181818181818,
            "end": 38.13181818181818,
            "velocity": 81,
            "duration": 0.05000000000000426
          },
          {
            "pitch": 37,
            "start": 38.82272727272727,
            "end": 38.87272727272727,
            "velocity": 101,
            "duration": 0.04999999999999716
          },
          {
            "pitch": 35,
            "start": 39.00909090909091,
            "end": 39.059090909090905,
            "velocity": 117,
            "duration": 0.04999999999999716
          },
          {
            "pitch": 37,
            "start": 39.38181818181818,
            "end": 39.43181818181818,
            "velocity": 90,
            "duration": 0.04999999999999716
          },
          {
            "pitch": 35,
            "start": 39.56590909090909,
            "end": 39.61590909090909,
            "velocity": 90,
            "duration": 0.05000000000000426
          },
          {
            "pitch": 42,
            "start": 39.93863636363636,
            "end": 39.98863636363636,
            "velocity": 68,
            "duration": 0.04999999999999716
          },
          {
            "pitch": 37,
            "start": 40.125,
            "end": 40.175,
            "velocity": 89,
            "duration": 0.04999999999999716
          },
          {
            "pitch": 35,
            "start": 40.49545454545454,
            "end": 40.54545454545455,
            "velocity": 118,
            "duration": 0.05000000000000426
          },
          {
            "pitch": 42,
            "start": 40.49545454545454,
            "end": 40.54545454545455,
            "velocity": 111,
            "duration": 0.05000000000000426
          },
          {
            "pitch": 51,
            "start": 40.49545454545454,
            "end": 40.54545454545455,
            "velocity": 81,
            "duration": 0.05000000000000426
          },
          {
            "pitch": 37,
            "start": 40.86818181818182,
            "end": 40.918181818181814,
            "velocity": 115,
            "duration": 0.04999999999999716
          },
          {
            "pitch": 35,
            "start": 41.05227272727272,
            "end": 41.10227272727273,
            "velocity": 91,
            "duration": 0.05000000000000426
          },
          {
            "pitch": 51,
            "start": 41.05227272727272,
            "end": 41.10227272727273,
            "velocity": 79,
            "duration": 0.05000000000000426
          },
          {
            "pitch": 45,
            "start": 41.23863636363636,
            "end": 41.288636363636364,
            "velocity": 70,
            "duration": 0.05000000000000426
          },
          {
            "pitch": 37,
            "start": 41.425,
            "end": 41.475,
            "velocity": 67,
            "duration": 0.05000000000000426
          },
          {
            "pitch": 51,
            "start": 41.79545454545455,
            "end": 41.845454545454544,
            "velocity": 99,
            "duration": 0.04999999999999716
          },
          {
            "pitch": 35,
            "start": 41.98181818181818,
            "end": 42.03181818181818,
            "velocity": 102,
            "duration": 0.05000000000000426
          },
          {
            "pitch": 45,
            "start": 41.98181818181818,
            "end": 42.03181818181818,
            "velocity": 75,
            "duration": 0.05000000000000426
          },
          {
            "pitch": 45,
            "start": 42.35227272727273,
            "end": 42.402272727272724,
            "velocity": 85,
            "duration": 0.04999999999999716
          },
          {
            "pitch": 51,
            "start": 43.095454545454544,
            "end": 43.14545454545454,
            "velocity": 70,
            "duration": 0.04999999999999716
          },
          {
            "pitch": 41,
            "start": 43.28181818181818,
            "end": 43.33181818181818,
            "velocity": 71,
            "duration": 0.04999999999999716
          },
          {
            "pitch": 35,
            "start": 44.025,
            "end": 44.074999999999996,
            "velocity": 91,
            "duration": 0.04999999999999716
          },
          {
            "pitch": 42,
            "start": 44.025,
            "end": 44.074999999999996,
            "velocity": 83,
            "duration": 0.04999999999999716
          },
          {
            "pitch": 51,
            "start": 44.025,
            "end": 44.074999999999996,
            "velocity": 86,
            "duration": 0.04999999999999716
          },
          {
            "pitch": 35,
            "start": 44.768181818181816,
            "end": 44.81818181818181,
            "velocity": 111,
            "duration": 0.04999999999999716
          },
          {
            "pitch": 51,
            "start": 44.768181818181816,
            "end": 44.81818181818181,
            "velocity": 88,
            "duration": 0.04999999999999716
          },
          {
            "pitch": 35,
            "start": 45.51136363636363,
            "end": 45.56136363636364,
            "velocity": 123,
            "duration": 0.05000000000000426
          },
          {
            "pitch": 42,
            "start": 45.51136363636363,
            "end": 45.56136363636364,
            "velocity": 101,
            "duration": 0.05000000000000426
          },
          {
            "pitch": 51,
            "start": 45.51136363636363,
            "end": 45.56136363636364,
            "velocity": 101,
            "duration": 0.05000000000000426
          },
          {
            "pitch": 37,
            "start": 45.88181818181818,
            "end": 45.93181818181818,
            "velocity": 90,
            "duration": 0.04999999999999716
          },
          {
            "pitch": 35,
            "start": 46.06818181818181,
            "end": 46.11818181818182,
            "velocity": 89,
            "duration": 0.05000000000000426
          },
          {
            "pitch": 51,
            "start": 46.06818181818181,
            "end": 46.11818181818182,
            "velocity": 94,
            "duration": 0.05000000000000426
          },
          {
            "pitch": 37,
            "start": 46.81136363636364,
            "end": 46.861363636363635,
            "velocity": 109,
            "duration": 0.04999999999999716
          },
          {
            "pitch": 35,
            "start": 46.99772727272727,
            "end": 47.04772727272727,
            "velocity": 124,
            "duration": 0.05000000000000426
          },
          {
            "pitch": 42,
            "start": 46.99772727272727,
            "end": 47.04772727272727,
            "velocity": 108,
            "duration": 0.05000000000000426
          },
          {
            "pitch": 51,
            "start": 46.99772727272727,
            "end": 47.04772727272727,
            "velocity": 107,
            "duration": 0.05000000000000426
          },
          {
            "pitch": 35,
            "start": 47.554545454545455,
            "end": 47.60454545454545,
            "velocity": 97,
            "duration": 0.04999999999999716
          },
          {
            "pitch": 51,
            "start": 47.554545454545455,
            "end": 47.60454545454545,
            "velocity": 75,
            "duration": 0.04999999999999716
          },
          {
            "pitch": 37,
            "start": 47.74090909090909,
            "end": 47.79090909090909,
            "velocity": 71,
            "duration": 0.04999999999999716
          },
          {
            "pitch": 42,
            "start": 47.74090909090909,
            "end": 47.79090909090909,
            "velocity": 90,
            "duration": 0.04999999999999716
          },
          {
            "pitch": 51,
            "start": 47.925,
            "end": 47.974999999999994,
            "velocity": 65,
            "duration": 0.04999999999999716
          },
          {
            "pitch": 51,
            "start": 48.29772727272727,
            "end": 48.34772727272727,
            "velocity": 77,
            "duration": 0.04999999999999716
          },
          {
            "pitch": 35,
            "start": 48.48409090909091,
            "end": 48.53409090909091,
            "velocity": 103,
            "duration": 0.04999999999999716
          },
          {
            "pitch": 42,
            "start": 48.48409090909091,
            "end": 48.53409090909091,
            "velocity": 107,
            "duration": 0.04999999999999716
          },
          {
            "pitch": 37,
            "start": 48.668181818181814,
            "end": 48.71818181818182,
            "velocity": 70,
            "duration": 0.05000000000000426
          },
          {
            "pitch": 35,
            "start": 49.04090909090909,
            "end": 49.090909090909086,
            "velocity": 113,
            "duration": 0.04999999999999716
          },
          {
            "pitch": 51,
            "start": 49.04090909090909,
            "end": 49.090909090909086,
            "velocity": 100,
            "duration": 0.04999999999999716
          },
          {
            "pitch": 51,
            "start": 49.78409090909091,
            "end": 49.834090909090904,
            "velocity": 71,
            "duration": 0.04999999999999716
          },
          {
            "pitch": 35,
            "start": 49.970454545454544,
            "end": 50.02045454545454,
            "velocity": 92,
            "duration": 0.04999999999999716
          },
          {
            "pitch": 42,
            "start": 49.970454545454544,
            "end": 50.02045454545454,
            "velocity": 98,
            "duration": 0.04999999999999716
          },
          {
            "pitch": 51,
            "start": 50.15454545454545,
            "end": 50.20454545454545,
            "velocity": 77,
            "duration": 0.05000000000000426
          },
          {
            "pitch": 37,
            "start": 50.340909090909086,
            "end": 50.39090909090909,
            "velocity": 70,
            "duration": 0.05000000000000426
          },
          {
            "pitch": 35,
            "start": 50.527272727272724,
            "end": 50.57727272727273,
            "velocity": 115,
            "duration": 0.05000000000000426
          },
          {
            "pitch": 42,
            "start": 50.527272727272724,
            "end": 50.57727272727273,
            "velocity": 101,
            "duration": 0.05000000000000426
          },
          {
            "pitch": 51,
            "start": 50.527272727272724,
            "end": 50.57727272727273,
            "velocity": 84,
            "duration": 0.05000000000000426
          },
          {
            "pitch": 37,
            "start": 50.89772727272727,
            "end": 50.94772727272727,
            "velocity": 94,
            "duration": 0.04999999999999716
          },
          {
            "pitch": 35,
            "start": 51.084090909090904,
            "end": 51.13409090909091,
            "velocity": 70,
            "duration": 0.05000000000000426
          },
          {
            "pitch": 42,
            "start": 51.27045454545454,
            "end": 51.320454545454545,
            "velocity": 86,
            "duration": 0.05000000000000426
          },
          {
            "pitch": 51,
            "start": 51.27045454545454,
            "end": 51.320454545454545,
            "velocity": 95,
            "duration": 0.05000000000000426
          },
          {
            "pitch": 35,
            "start": 51.45454545454545,
            "end": 51.50454545454545,
            "velocity": 76,
            "duration": 0.04999999999999716
          },
          {
            "pitch": 37,
            "start": 51.64090909090909,
            "end": 51.69090909090909,
            "velocity": 81,
            "duration": 0.04999999999999716
          },
          {
            "pitch": 35,
            "start": 52.01363636363636,
            "end": 52.06363636363636,
            "velocity": 124,
            "duration": 0.05000000000000426
          },
          {
            "pitch": 42,
            "start": 52.01363636363636,
            "end": 52.06363636363636,
            "velocity": 98,
            "duration": 0.05000000000000426
          },
          {
            "pitch": 51,
            "start": 52.01363636363636,
            "end": 52.06363636363636,
            "velocity": 107,
            "duration": 0.05000000000000426
          },
          {
            "pitch": 37,
            "start": 52.19772727272727,
            "end": 52.24772727272727,
            "velocity": 92,
            "duration": 0.04999999999999716
          },
          {
            "pitch": 35,
            "start": 52.570454545454545,
            "end": 52.62045454545454,
            "velocity": 94,
            "duration": 0.04999999999999716
          },
          {
            "pitch": 51,
            "start": 52.75681818181818,
            "end": 52.80681818181818,
            "velocity": 83,
            "duration": 0.04999999999999716
          },
          {
            "pitch": 35,
            "start": 53.49772727272727,
            "end": 53.54772727272727,
            "velocity": 120,
            "duration": 0.05000000000000426
          },
          {
            "pitch": 42,
            "start": 53.49772727272727,
            "end": 53.54772727272727,
            "velocity": 114,
            "duration": 0.05000000000000426
          },
          {
            "pitch": 51,
            "start": 53.49772727272727,
            "end": 53.54772727272727,
            "velocity": 98,
            "duration": 0.05000000000000426
          },
          {
            "pitch": 35,
            "start": 54.05681818181818,
            "end": 54.10681818181818,
            "velocity": 101,
            "duration": 0.04999999999999716
          },
          {
            "pitch": 42,
            "start": 54.05681818181818,
            "end": 54.10681818181818,
            "velocity": 64,
            "duration": 0.04999999999999716
          },
          {
            "pitch": 51,
            "start": 54.05681818181818,
            "end": 54.10681818181818,
            "velocity": 94,
            "duration": 0.04999999999999716
          },
          {
            "pitch": 37,
            "start": 54.8,
            "end": 54.849999999999994,
            "velocity": 96,
            "duration": 0.04999999999999716
          },
          {
            "pitch": 35,
            "start": 54.98409090909091,
            "end": 55.03409090909091,
            "velocity": 114,
            "duration": 0.04999999999999716
          },
          {
            "pitch": 42,
            "start": 54.98409090909091,
            "end": 55.03409090909091,
            "velocity": 90,
            "duration": 0.04999999999999716
          },
          {
            "pitch": 51,
            "start": 54.98409090909091,
            "end": 55.03409090909091,
            "velocity": 99,
            "duration": 0.04999999999999716
          },
          {
            "pitch": 35,
            "start": 55.543181818181814,
            "end": 55.59318181818182,
            "velocity": 114,
            "duration": 0.05000000000000426
          },
          {
            "pitch": 42,
            "start": 55.543181818181814,
            "end": 55.59318181818182,
            "velocity": 88,
            "duration": 0.05000000000000426
          },
          {
            "pitch": 51,
            "start": 55.543181818181814,
            "end": 55.59318181818182,
            "velocity": 98,
            "duration": 0.05000000000000426
          },
          {
            "pitch": 51,
            "start": 55.913636363636364,
            "end": 55.96363636363636,
            "velocity": 74,
            "duration": 0.04999999999999716
          },
          {
            "pitch": 51,
            "start": 56.28409090909091,
            "end": 56.334090909090904,
            "velocity": 87,
            "duration": 0.04999999999999716
          },
          {
            "pitch": 35,
            "start": 56.470454545454544,
            "end": 56.52045454545454,
            "velocity": 72,
            "duration": 0.04999999999999716
          },
          {
            "pitch": 42,
            "start": 56.470454545454544,
            "end": 56.52045454545454,
            "velocity": 99,
            "duration": 0.04999999999999716
          },
          {
            "pitch": 37,
            "start": 56.65681818181818,
            "end": 56.70681818181818,
            "velocity": 95,
            "duration": 0.04999999999999716
          },
          {
            "pitch": 35,
            "start": 57.027272727272724,
            "end": 57.07727272727273,
            "velocity": 122,
            "duration": 0.05000000000000426
          },
          {
            "pitch": 42,
            "start": 57.027272727272724,
            "end": 57.07727272727273,
            "velocity": 80,
            "duration": 0.05000000000000426
          },
          {
            "pitch": 51,
            "start": 57.027272727272724,
            "end": 57.07727272727273,
            "velocity": 107,
            "duration": 0.05000000000000426
          },
          {
            "pitch": 37,
            "start": 57.77045454545454,
            "end": 57.820454545454545,
            "velocity": 67,
            "duration": 0.05000000000000426
          },
          {
            "pitch": 51,
            "start": 57.77045454545454,
            "end": 57.820454545454545,
            "velocity": 82,
            "duration": 0.05000000000000426
          },
          {
            "pitch": 35,
            "start": 57.95681818181818,
            "end": 58.006818181818176,
            "velocity": 76,
            "duration": 0.04999999999999716
          },
          {
            "pitch": 42,
            "start": 57.95681818181818,
            "end": 58.006818181818176,
            "velocity": 101,
            "duration": 0.04999999999999716
          },
          {
            "pitch": 37,
            "start": 58.143181818181816,
            "end": 58.19318181818181,
            "velocity": 83,
            "duration": 0.04999999999999716
          },
          {
            "pitch": 35,
            "start": 58.51363636363636,
            "end": 58.56363636363636,
            "velocity": 121,
            "duration": 0.05000000000000426
          },
          {
            "pitch": 42,
            "start": 58.51363636363636,
            "end": 58.56363636363636,
            "velocity": 112,
            "duration": 0.05000000000000426
          },
          {
            "pitch": 51,
            "start": 58.51363636363636,
            "end": 58.56363636363636,
            "velocity": 94,
            "duration": 0.05000000000000426
          },
          {
            "pitch": 37,
            "start": 58.699999999999996,
            "end": 58.75,
            "velocity": 93,
            "duration": 0.05000000000000426
          },
          {
            "pitch": 35,
            "start": 59.070454545454545,
            "end": 59.12045454545454,
            "velocity": 79,
            "duration": 0.04999999999999716
          },
          {
            "pitch": 42,
            "start": 59.256818181818176,
            "end": 59.30681818181818,
            "velocity": 101,
            "duration": 0.05000000000000426
          },
          {
            "pitch": 51,
            "start": 59.256818181818176,
            "end": 59.30681818181818,
            "velocity": 97,
            "duration": 0.05000000000000426
          },
          {
            "pitch": 37,
            "start": 59.62954545454545,
            "end": 59.679545454545455,
            "velocity": 68,
            "duration": 0.05000000000000426
          },
          {
            "pitch": 35,
            "start": 60.0,
            "end": 60.05,
            "velocity": 125,
            "duration": 0.04999999999999716
          },
          {
            "pitch": 42,
            "start": 60.0,
            "end": 60.05,
            "velocity": 114,
            "duration": 0.04999999999999716
          },
          {
            "pitch": 51,
            "start": 60.0,
            "end": 60.05,
            "velocity": 103,
            "duration": 0.04999999999999716
          },
          {
            "pitch": 45,
            "start": 60.18636363636363,
            "end": 60.236363636363635,
            "velocity": 66,
            "duration": 0.05000000000000426
          },
          {
            "pitch": 37,
            "start": 60.37272727272727,
            "end": 60.42272727272727,
            "velocity": 66,
            "duration": 0.05000000000000426
          },
          {
            "pitch": 35,
            "start": 60.55681818181818,
            "end": 60.60681818181818,
            "velocity": 101,
            "duration": 0.04999999999999716
          },
          {
            "pitch": 51,
            "start": 60.55681818181818,
            "end": 60.60681818181818,
            "velocity": 86,
            "duration": 0.04999999999999716
          },
          {
            "pitch": 42,
            "start": 60.74318181818182,
            "end": 60.793181818181814,
            "velocity": 88,
            "duration": 0.04999999999999716
          },
          {
            "pitch": 51,
            "start": 61.3,
            "end": 61.349999999999994,
            "velocity": 99,
            "duration": 0.04999999999999716
          },
          {
            "pitch": 42,
            "start": 61.486363636363635,
            "end": 61.53636363636363,
            "velocity": 90,
            "duration": 0.04999999999999716
          },
          {
            "pitch": 35,
            "start": 61.67272727272727,
            "end": 61.72272727272727,
            "velocity": 77,
            "duration": 0.04999999999999716
          },
          {
            "pitch": 35,
            "start": 62.043181818181814,
            "end": 62.09318181818182,
            "velocity": 65,
            "duration": 0.05000000000000426
          },
          {
            "pitch": 51,
            "start": 62.043181818181814,
            "end": 62.09318181818182,
            "velocity": 95,
            "duration": 0.05000000000000426
          },
          {
            "pitch": 51,
            "start": 62.78636363636363,
            "end": 62.836363636363636,
            "velocity": 100,
            "duration": 0.05000000000000426
          },
          {
            "pitch": 35,
            "start": 62.97272727272727,
            "end": 63.022727272727266,
            "velocity": 97,
            "duration": 0.04999999999999716
          },
          {
            "pitch": 42,
            "start": 62.97272727272727,
            "end": 63.022727272727266,
            "velocity": 91,
            "duration": 0.04999999999999716
          },
          {
            "pitch": 51,
            "start": 63.52954545454545,
            "end": 63.57954545454545,
            "velocity": 73,
            "duration": 0.05000000000000426
          },
          {
            "pitch": 42,
            "start": 63.715909090909086,
            "end": 63.76590909090909,
            "velocity": 79,
            "duration": 0.05000000000000426
          },
          {
            "pitch": 51,
            "start": 63.902272727272724,
            "end": 63.95227272727272,
            "velocity": 79,
            "duration": 0.04999999999999716
          },
          {
            "pitch": 51,
            "start": 64.27272727272727,
            "end": 64.32272727272726,
            "velocity": 94,
            "duration": 0.04999999999999716
          },
          {
            "pitch": 42,
            "start": 64.4590909090909,
            "end": 64.5090909090909,
            "velocity": 97,
            "duration": 0.04999999999999716
          },
          {
            "pitch": 51,
            "start": 64.82954545454545,
            "end": 64.87954545454545,
            "velocity": 76,
            "duration": 0.04999999999999716
          },
          {
            "pitch": 42,
            "start": 65.01590909090909,
            "end": 65.06590909090909,
            "velocity": 93,
            "duration": 0.04999999999999716
          },
          {
            "pitch": 41,
            "start": 65.20227272727273,
            "end": 65.25227272727273,
            "velocity": 79,
            "duration": 0.04999999999999716
          },
          {
            "pitch": 51,
            "start": 65.7590909090909,
            "end": 65.80909090909091,
            "velocity": 100,
            "duration": 0.05000000000001137
          },
          {
            "pitch": 35,
            "start": 65.94545454545454,
            "end": 65.99545454545454,
            "velocity": 74,
            "duration": 0.04999999999999716
          },
          {
            "pitch": 51,
            "start": 66.31590909090909,
            "end": 66.36590909090908,
            "velocity": 92,
            "duration": 0.04999999999999716
          },
          {
            "pitch": 35,
            "start": 66.50227272727273,
            "end": 66.55227272727272,
            "velocity": 82,
            "duration": 0.04999999999999716
          },
          {
            "pitch": 42,
            "start": 66.50227272727273,
            "end": 66.55227272727272,
            "velocity": 107,
            "duration": 0.04999999999999716
          },
          {
            "pitch": 42,
            "start": 67.24545454545454,
            "end": 67.29545454545455,
            "velocity": 69,
            "duration": 0.05000000000001137
          },
          {
            "pitch": 51,
            "start": 67.24545454545454,
            "end": 67.29545454545455,
            "velocity": 73,
            "duration": 0.05000000000001137
          },
          {
            "pitch": 51,
            "start": 67.80227272727272,
            "end": 67.85227272727272,
            "velocity": 82,
            "duration": 0.04999999999999716
          },
          {
            "pitch": 35,
            "start": 67.98863636363636,
            "end": 68.03863636363636,
            "velocity": 90,
            "duration": 0.04999999999999716
          },
          {
            "pitch": 42,
            "start": 67.98863636363636,
            "end": 68.03863636363636,
            "velocity": 77,
            "duration": 0.04999999999999716
          },
          {
            "pitch": 41,
            "start": 68.17272727272727,
            "end": 68.22272727272727,
            "velocity": 68,
            "duration": 0.04999999999999716
          },
          {
            "pitch": 42,
            "start": 68.73181818181818,
            "end": 68.78181818181818,
            "velocity": 79,
            "duration": 0.04999999999999716
          },
          {
            "pitch": 51,
            "start": 69.28863636363636,
            "end": 69.33863636363635,
            "velocity": 79,
            "duration": 0.04999999999999716
          },
          {
            "pitch": 35,
            "start": 69.475,
            "end": 69.52499999999999,
            "velocity": 86,
            "duration": 0.04999999999999716
          },
          {
            "pitch": 42,
            "start": 69.475,
            "end": 69.52499999999999,
            "velocity": 91,
            "duration": 0.04999999999999716
          },
          {
            "pitch": 41,
            "start": 69.84545454545454,
            "end": 69.89545454545454,
            "velocity": 75,
            "duration": 0.04999999999999716
          },
          {
            "pitch": 35,
            "start": 70.03181818181818,
            "end": 70.08181818181818,
            "velocity": 106,
            "duration": 0.04999999999999716
          },
          {
            "pitch": 51,
            "start": 70.03181818181818,
            "end": 70.08181818181818,
            "velocity": 94,
            "duration": 0.04999999999999716
          },
          {
            "pitch": 41,
            "start": 70.21818181818182,
            "end": 70.26818181818182,
            "velocity": 66,
            "duration": 0.04999999999999716
          },
          {
            "pitch": 42,
            "start": 70.21818181818182,
            "end": 70.26818181818182,
            "velocity": 70,
            "duration": 0.04999999999999716
          },
          {
            "pitch": 51,
            "start": 70.77499999999999,
            "end": 70.825,
            "velocity": 78,
            "duration": 0.05000000000001137
          },
          {
            "pitch": 35,
            "start": 70.9590909090909,
            "end": 71.0090909090909,
            "velocity": 81,
            "duration": 0.04999999999999716
          },
          {
            "pitch": 42,
            "start": 70.9590909090909,
            "end": 71.0090909090909,
            "velocity": 87,
            "duration": 0.04999999999999716
          },
          {
            "pitch": 37,
            "start": 71.14545454545454,
            "end": 71.19545454545454,
            "velocity": 120,
            "duration": 0.04999999999999716
          },
          {
            "pitch": 35,
            "start": 71.51818181818182,
            "end": 71.56818181818181,
            "velocity": 100,
            "duration": 0.04999999999999716
          },
          {
            "pitch": 42,
            "start": 71.70227272727273,
            "end": 71.75227272727273,
            "velocity": 66,
            "duration": 0.04999999999999716
          },
          {
            "pitch": 37,
            "start": 71.88863636363637,
            "end": 71.93863636363636,
            "velocity": 100,
            "duration": 0.04999999999999716
          },
          {
            "pitch": 35,
            "start": 72.075,
            "end": 72.125,
            "velocity": 75,
            "duration": 0.04999999999999716
          },
          {
            "pitch": 51,
            "start": 72.26136363636363,
            "end": 72.31136363636364,
            "velocity": 75,
            "duration": 0.05000000000001137
          },
          {
            "pitch": 35,
            "start": 72.44545454545454,
            "end": 72.49545454545454,
            "velocity": 77,
            "duration": 0.04999999999999716
          },
          {
            "pitch": 42,
            "start": 72.44545454545454,
            "end": 72.49545454545454,
            "velocity": 81,
            "duration": 0.04999999999999716
          },
          {
            "pitch": 45,
            "start": 72.63181818181818,
            "end": 72.68181818181817,
            "velocity": 95,
            "duration": 0.04999999999999716
          },
          {
            "pitch": 51,
            "start": 72.81818181818181,
            "end": 72.86818181818181,
            "velocity": 85,
            "duration": 0.04999999999999716
          },
          {
            "pitch": 35,
            "start": 73.00454545454545,
            "end": 73.05454545454545,
            "velocity": 109,
            "duration": 0.04999999999999716
          },
          {
            "pitch": 51,
            "start": 73.375,
            "end": 73.425,
            "velocity": 76,
            "duration": 0.04999999999999716
          },
          {
            "pitch": 41,
            "start": 73.74545454545454,
            "end": 73.79545454545455,
            "velocity": 69,
            "duration": 0.05000000000001137
          },
          {
            "pitch": 51,
            "start": 73.74545454545454,
            "end": 73.79545454545455,
            "velocity": 78,
            "duration": 0.05000000000001137
          },
          {
            "pitch": 35,
            "start": 74.48863636363636,
            "end": 74.53863636363636,
            "velocity": 114,
            "duration": 0.04999999999999716
          },
          {
            "pitch": 42,
            "start": 74.48863636363636,
            "end": 74.53863636363636,
            "velocity": 94,
            "duration": 0.04999999999999716
          },
          {
            "pitch": 51,
            "start": 74.48863636363636,
            "end": 74.53863636363636,
            "velocity": 93,
            "duration": 0.04999999999999716
          },
          {
            "pitch": 51,
            "start": 74.86136363636363,
            "end": 74.91136363636363,
            "velocity": 81,
            "duration": 0.04999999999999716
          },
          {
            "pitch": 35,
            "start": 75.04772727272727,
            "end": 75.09772727272727,
            "velocity": 72,
            "duration": 0.04999999999999716
          },
          {
            "pitch": 42,
            "start": 75.23181818181818,
            "end": 75.28181818181818,
            "velocity": 81,
            "duration": 0.04999999999999716
          },
          {
            "pitch": 51,
            "start": 75.23181818181818,
            "end": 75.28181818181818,
            "velocity": 80,
            "duration": 0.04999999999999716
          },
          {
            "pitch": 35,
            "start": 75.975,
            "end": 76.02499999999999,
            "velocity": 90,
            "duration": 0.04999999999999716
          },
          {
            "pitch": 42,
            "start": 75.975,
            "end": 76.02499999999999,
            "velocity": 88,
            "duration": 0.04999999999999716
          },
          {
            "pitch": 37,
            "start": 76.16136363636363,
            "end": 76.21136363636363,
            "velocity": 104,
            "duration": 0.04999999999999716
          },
          {
            "pitch": 35,
            "start": 76.5340909090909,
            "end": 76.5840909090909,
            "velocity": 101,
            "duration": 0.04999999999999716
          },
          {
            "pitch": 51,
            "start": 76.5340909090909,
            "end": 76.5840909090909,
            "velocity": 64,
            "duration": 0.04999999999999716
          },
          {
            "pitch": 42,
            "start": 76.71818181818182,
            "end": 76.76818181818182,
            "velocity": 81,
            "duration": 0.04999999999999716
          },
          {
            "pitch": 41,
            "start": 77.27499999999999,
            "end": 77.325,
            "velocity": 68,
            "duration": 0.05000000000001137
          },
          {
            "pitch": 51,
            "start": 77.27499999999999,
            "end": 77.325,
            "velocity": 85,
            "duration": 0.05000000000001137
          },
          {
            "pitch": 35,
            "start": 77.46136363636363,
            "end": 77.51136363636363,
            "velocity": 78,
            "duration": 0.04999999999999716
          },
          {
            "pitch": 42,
            "start": 77.46136363636363,
            "end": 77.51136363636363,
            "velocity": 95,
            "duration": 0.04999999999999716
          },
          {
            "pitch": 35,
            "start": 78.01818181818182,
            "end": 78.06818181818181,
            "velocity": 79,
            "duration": 0.04999999999999716
          },
          {
            "pitch": 42,
            "start": 78.01818181818182,
            "end": 78.06818181818181,
            "velocity": 71,
            "duration": 0.04999999999999716
          },
          {
            "pitch": 51,
            "start": 78.01818181818182,
            "end": 78.06818181818181,
            "velocity": 87,
            "duration": 0.04999999999999716
          },
          {
            "pitch": 37,
            "start": 78.20454545454545,
            "end": 78.25454545454545,
            "velocity": 70,
            "duration": 0.04999999999999716
          },
          {
            "pitch": 35,
            "start": 78.57727272727273,
            "end": 78.62727272727273,
            "velocity": 65,
            "duration": 0.04999999999999716
          },
          {
            "pitch": 37,
            "start": 78.76136363636363,
            "end": 78.81136363636364,
            "velocity": 85,
            "duration": 0.05000000000001137
          },
          {
            "pitch": 35,
            "start": 78.94772727272726,
            "end": 78.99772727272727,
            "velocity": 98,
            "duration": 0.05000000000001137
          },
          {
            "pitch": 42,
            "start": 78.94772727272726,
            "end": 78.99772727272727,
            "velocity": 106,
            "duration": 0.05000000000001137
          },
          {
            "pitch": 51,
            "start": 78.94772727272726,
            "end": 78.99772727272727,
            "velocity": 79,
            "duration": 0.05000000000001137
          },
          {
            "pitch": 37,
            "start": 79.1340909090909,
            "end": 79.18409090909091,
            "velocity": 109,
            "duration": 0.05000000000001137
          },
          {
            "pitch": 35,
            "start": 79.50454545454545,
            "end": 79.55454545454545,
            "velocity": 113,
            "duration": 0.04999999999999716
          },
          {
            "pitch": 42,
            "start": 79.50454545454545,
            "end": 79.55454545454545,
            "velocity": 74,
            "duration": 0.04999999999999716
          },
          {
            "pitch": 51,
            "start": 79.50454545454545,
            "end": 79.55454545454545,
            "velocity": 93,
            "duration": 0.04999999999999716
          },
          {
            "pitch": 51,
            "start": 79.87727272727273,
            "end": 79.92727272727272,
            "velocity": 79,
            "duration": 0.04999999999999716
          },
          {
            "pitch": 35,
            "start": 80.06136363636364,
            "end": 80.11136363636363,
            "velocity": 74,
            "duration": 0.04999999999999716
          },
          {
            "pitch": 37,
            "start": 80.24772727272727,
            "end": 80.29772727272727,
            "velocity": 84,
            "duration": 0.04999999999999716
          },
          {
            "pitch": 35,
            "start": 80.99090909090908,
            "end": 81.04090909090908,
            "velocity": 79,
            "duration": 0.04999999999999716
          },
          {
            "pitch": 42,
            "start": 80.99090909090908,
            "end": 81.04090909090908,
            "velocity": 92,
            "duration": 0.04999999999999716
          },
          {
            "pitch": 51,
            "start": 80.99090909090908,
            "end": 81.04090909090908,
            "velocity": 92,
            "duration": 0.04999999999999716
          },
          {
            "pitch": 35,
            "start": 81.54772727272727,
            "end": 81.59772727272727,
            "velocity": 68,
            "duration": 0.04999999999999716
          },
          {
            "pitch": 42,
            "start": 81.54772727272727,
            "end": 81.59772727272727,
            "velocity": 79,
            "duration": 0.04999999999999716
          },
          {
            "pitch": 51,
            "start": 81.54772727272727,
            "end": 81.59772727272727,
            "velocity": 87,
            "duration": 0.04999999999999716
          },
          {
            "pitch": 41,
            "start": 81.73409090909091,
            "end": 81.7840909090909,
            "velocity": 71,
            "duration": 0.04999999999999716
          },
          {
            "pitch": 35,
            "start": 82.47727272727272,
            "end": 82.52727272727272,
            "velocity": 104,
            "duration": 0.04999999999999716
          },
          {
            "pitch": 42,
            "start": 82.47727272727272,
            "end": 82.52727272727272,
            "velocity": 90,
            "duration": 0.04999999999999716
          },
          {
            "pitch": 51,
            "start": 82.66363636363636,
            "end": 82.71363636363635,
            "velocity": 93,
            "duration": 0.04999999999999716
          },
          {
            "pitch": 35,
            "start": 83.0340909090909,
            "end": 83.0840909090909,
            "velocity": 94,
            "duration": 0.04999999999999716
          },
          {
            "pitch": 51,
            "start": 83.0340909090909,
            "end": 83.0840909090909,
            "velocity": 89,
            "duration": 0.04999999999999716
          },
          {
            "pitch": 42,
            "start": 83.22045454545454,
            "end": 83.27045454545454,
            "velocity": 65,
            "duration": 0.04999999999999716
          },
          {
            "pitch": 51,
            "start": 83.77727272727272,
            "end": 83.82727272727273,
            "velocity": 70,
            "duration": 0.05000000000001137
          },
          {
            "pitch": 35,
            "start": 83.96363636363635,
            "end": 84.01363636363637,
            "velocity": 74,
            "duration": 0.05000000000001137
          },
          {
            "pitch": 37,
            "start": 84.14999999999999,
            "end": 84.2,
            "velocity": 97,
            "duration": 0.05000000000001137
          },
          {
            "pitch": 41,
            "start": 84.14999999999999,
            "end": 84.2,
            "velocity": 78,
            "duration": 0.05000000000001137
          },
          {
            "pitch": 35,
            "start": 84.52045454545454,
            "end": 84.57045454545454,
            "velocity": 69,
            "duration": 0.04999999999999716
          },
          {
            "pitch": 37,
            "start": 84.70681818181818,
            "end": 84.75681818181818,
            "velocity": 93,
            "duration": 0.04999999999999716
          },
          {
            "pitch": 42,
            "start": 84.89318181818182,
            "end": 84.94318181818181,
            "velocity": 92,
            "duration": 0.04999999999999716
          },
          {
            "pitch": 51,
            "start": 85.26363636363637,
            "end": 85.31363636363636,
            "velocity": 68,
            "duration": 0.04999999999999716
          },
          {
            "pitch": 35,
            "start": 85.45,
            "end": 85.5,
            "velocity": 80,
            "duration": 0.04999999999999716
          },
          {
            "pitch": 42,
            "start": 85.45,
            "end": 85.5,
            "velocity": 94,
            "duration": 0.04999999999999716
          },
          {
            "pitch": 37,
            "start": 85.82045454545454,
            "end": 85.87045454545454,
            "velocity": 70,
            "duration": 0.04999999999999716
          },
          {
            "pitch": 35,
            "start": 86.00681818181818,
            "end": 86.05681818181817,
            "velocity": 112,
            "duration": 0.04999999999999716
          },
          {
            "pitch": 42,
            "start": 86.00681818181818,
            "end": 86.05681818181817,
            "velocity": 97,
            "duration": 0.04999999999999716
          },
          {
            "pitch": 51,
            "start": 86.00681818181818,
            "end": 86.05681818181817,
            "velocity": 85,
            "duration": 0.04999999999999716
          },
          {
            "pitch": 51,
            "start": 86.37727272727273,
            "end": 86.42727272727272,
            "velocity": 82,
            "duration": 0.04999999999999716
          },
          {
            "pitch": 35,
            "start": 86.56363636363636,
            "end": 86.61363636363636,
            "velocity": 65,
            "duration": 0.04999999999999716
          },
          {
            "pitch": 51,
            "start": 86.75,
            "end": 86.8,
            "velocity": 75,
            "duration": 0.04999999999999716
          },
          {
            "pitch": 35,
            "start": 86.93636363636364,
            "end": 86.98636363636363,
            "velocity": 70,
            "duration": 0.04999999999999716
          },
          {
            "pitch": 35,
            "start": 87.49318181818181,
            "end": 87.54318181818181,
            "velocity": 111,
            "duration": 0.04999999999999716
          },
          {
            "pitch": 42,
            "start": 87.49318181818181,
            "end": 87.54318181818181,
            "velocity": 99,
            "duration": 0.04999999999999716
          },
          {
            "pitch": 51,
            "start": 87.49318181818181,
            "end": 87.54318181818181,
            "velocity": 81,
            "duration": 0.04999999999999716
          },
          {
            "pitch": 37,
            "start": 87.86363636363636,
            "end": 87.91363636363636,
            "velocity": 89,
            "duration": 0.04999999999999716
          },
          {
            "pitch": 35,
            "start": 88.05,
            "end": 88.1,
            "velocity": 74,
            "duration": 0.04999999999999716
          },
          {
            "pitch": 51,
            "start": 88.05,
            "end": 88.1,
            "velocity": 80,
            "duration": 0.04999999999999716
          },
          {
            "pitch": 51,
            "start": 88.79318181818181,
            "end": 88.84318181818182,
            "velocity": 75,
            "duration": 0.05000000000001137
          },
          {
            "pitch": 35,
            "start": 88.97954545454544,
            "end": 89.02954545454546,
            "velocity": 78,
            "duration": 0.05000000000001137
          },
          {
            "pitch": 42,
            "start": 88.97954545454544,
            "end": 89.02954545454546,
            "velocity": 85,
            "duration": 0.05000000000001137
          },
          {
            "pitch": 42,
            "start": 89.53636363636363,
            "end": 89.58636363636363,
            "velocity": 68,
            "duration": 0.04999999999999716
          },
          {
            "pitch": 51,
            "start": 89.53636363636363,
            "end": 89.58636363636363,
            "velocity": 67,
            "duration": 0.04999999999999716
          },
          {
            "pitch": 51,
            "start": 90.09318181818182,
            "end": 90.14318181818182,
            "velocity": 75,
            "duration": 0.04999999999999716
          },
          {
            "pitch": 35,
            "start": 90.4659090909091,
            "end": 90.51590909090909,
            "velocity": 90,
            "duration": 0.04999999999999716
          },
          {
            "pitch": 42,
            "start": 90.4659090909091,
            "end": 90.51590909090909,
            "velocity": 65,
            "duration": 0.04999999999999716
          },
          {
            "pitch": 35,
            "start": 91.02272727272727,
            "end": 91.07272727272726,
            "velocity": 107,
            "duration": 0.04999999999999716
          },
          {
            "pitch": 37,
            "start": 91.2090909090909,
            "end": 91.2590909090909,
            "velocity": 104,
            "duration": 0.04999999999999716
          },
          {
            "pitch": 35,
            "start": 91.57954545454545,
            "end": 91.62954545454545,
            "velocity": 66,
            "duration": 0.04999999999999716
          },
          {
            "pitch": 37,
            "start": 91.76590909090909,
            "end": 91.81590909090909,
            "velocity": 78,
            "duration": 0.04999999999999716
          },
          {
            "pitch": 35,
            "start": 91.94999999999999,
            "end": 92.0,
            "velocity": 71,
            "duration": 0.05000000000001137
          },
          {
            "pitch": 42,
            "start": 91.94999999999999,
            "end": 92.0,
            "velocity": 68,
            "duration": 0.05000000000001137
          },
          {
            "pitch": 35,
            "start": 92.5090909090909,
            "end": 92.5590909090909,
            "velocity": 107,
            "duration": 0.04999999999999716
          },
          {
            "pitch": 42,
            "start": 92.5090909090909,
            "end": 92.5590909090909,
            "velocity": 89,
            "duration": 0.04999999999999716
          },
          {
            "pitch": 51,
            "start": 92.5090909090909,
            "end": 92.5590909090909,
            "velocity": 86,
            "duration": 0.04999999999999716
          },
          {
            "pitch": 51,
            "start": 93.25227272727273,
            "end": 93.30227272727272,
            "velocity": 85,
            "duration": 0.04999999999999716
          },
          {
            "pitch": 42,
            "start": 93.43636363636364,
            "end": 93.48636363636363,
            "velocity": 65,
            "duration": 0.04999999999999716
          },
          {
            "pitch": 35,
            "start": 93.99545454545454,
            "end": 94.04545454545455,
            "velocity": 117,
            "duration": 0.05000000000001137
          },
          {
            "pitch": 42,
            "start": 93.99545454545454,
            "end": 94.04545454545455,
            "velocity": 84,
            "duration": 0.05000000000001137
          },
          {
            "pitch": 51,
            "start": 93.99545454545454,
            "end": 94.04545454545455,
            "velocity": 98,
            "duration": 0.05000000000001137
          },
          {
            "pitch": 35,
            "start": 94.55227272727272,
            "end": 94.60227272727272,
            "velocity": 64,
            "duration": 0.04999999999999716
          },
          {
            "pitch": 51,
            "start": 94.73636363636363,
            "end": 94.78636363636363,
            "velocity": 86,
            "duration": 0.04999999999999716
          },
          {
            "pitch": 35,
            "start": 94.92272727272727,
            "end": 94.97272727272727,
            "velocity": 68,
            "duration": 0.04999999999999716
          },
          {
            "pitch": 35,
            "start": 95.47954545454544,
            "end": 95.52954545454546,
            "velocity": 102,
            "duration": 0.05000000000001137
          },
          {
            "pitch": 42,
            "start": 95.47954545454544,
            "end": 95.52954545454546,
            "velocity": 83,
            "duration": 0.05000000000001137
          },
          {
            "pitch": 51,
            "start": 95.47954545454544,
            "end": 95.52954545454546,
            "velocity": 76,
            "duration": 0.05000000000001137
          },
          {
            "pitch": 37,
            "start": 95.66590909090908,
            "end": 95.71590909090908,
            "velocity": 83,
            "duration": 0.04999999999999716
          },
          {
            "pitch": 35,
            "start": 96.03863636363636,
            "end": 96.08863636363635,
            "velocity": 80,
            "duration": 0.04999999999999716
          },
          {
            "pitch": 51,
            "start": 96.03863636363636,
            "end": 96.08863636363635,
            "velocity": 77,
            "duration": 0.04999999999999716
          },
          {
            "pitch": 37,
            "start": 96.4090909090909,
            "end": 96.4590909090909,
            "velocity": 70,
            "duration": 0.04999999999999716
          },
          {
            "pitch": 51,
            "start": 96.78181818181818,
            "end": 96.83181818181818,
            "velocity": 75,
            "duration": 0.04999999999999716
          },
          {
            "pitch": 35,
            "start": 96.96590909090908,
            "end": 97.01590909090909,
            "velocity": 81,
            "duration": 0.05000000000001137
          },
          {
            "pitch": 42,
            "start": 96.96590909090908,
            "end": 97.01590909090909,
            "velocity": 92,
            "duration": 0.05000000000001137
          },
          {
            "pitch": 37,
            "start": 97.15227272727272,
            "end": 97.20227272727273,
            "velocity": 82,
            "duration": 0.05000000000001137
          },
          {
            "pitch": 35,
            "start": 97.52272727272727,
            "end": 97.57272727272726,
            "velocity": 88,
            "duration": 0.04999999999999716
          },
          {
            "pitch": 37,
            "start": 97.89545454545454,
            "end": 97.94545454545454,
            "velocity": 87,
            "duration": 0.04999999999999716
          },
          {
            "pitch": 35,
            "start": 98.45227272727273,
            "end": 98.50227272727273,
            "velocity": 78,
            "duration": 0.04999999999999716
          },
          {
            "pitch": 37,
            "start": 98.82499999999999,
            "end": 98.875,
            "velocity": 77,
            "duration": 0.05000000000001137
          },
          {
            "pitch": 35,
            "start": 99.0090909090909,
            "end": 99.0590909090909,
            "velocity": 104,
            "duration": 0.04999999999999716
          },
          {
            "pitch": 37,
            "start": 99.38181818181818,
            "end": 99.43181818181817,
            "velocity": 79,
            "duration": 0.04999999999999716
          },
          {
            "pitch": 35,
            "start": 99.56818181818181,
            "end": 99.61818181818181,
            "velocity": 63,
            "duration": 0.04999999999999716
          },
          {
            "pitch": 35,
            "start": 99.93863636363636,
            "end": 99.98863636363636,
            "velocity": 67,
            "duration": 0.04999999999999716
          },
          {
            "pitch": 42,
            "start": 99.93863636363636,
            "end": 99.98863636363636,
            "velocity": 75,
            "duration": 0.04999999999999716
          },
          {
            "pitch": 42,
            "start": 100.49545454545454,
            "end": 100.54545454545455,
            "velocity": 91,
            "duration": 0.05000000000001137
          },
          {
            "pitch": 35,
            "start": 101.05227272727272,
            "end": 101.10227272727272,
            "velocity": 64,
            "duration": 0.04999999999999716
          },
          {
            "pitch": 41,
            "start": 102.35454545454544,
            "end": 102.40454545454546,
            "velocity": 68,
            "duration": 0.05000000000001137
          },
          {
            "pitch": 35,
            "start": 102.725,
            "end": 102.77499999999999,
            "velocity": 76,
            "duration": 0.04999999999999716
          },
          {
            "pitch": 35,
            "start": 103.09772727272727,
            "end": 103.14772727272727,
            "velocity": 69,
            "duration": 0.04999999999999716
          },
          {
            "pitch": 41,
            "start": 103.28181818181818,
            "end": 103.33181818181818,
            "velocity": 67,
            "duration": 0.04999999999999716
          },
          {
            "pitch": 35,
            "start": 103.46818181818182,
            "end": 103.51818181818182,
            "velocity": 69,
            "duration": 0.04999999999999716
          },
          {
            "pitch": 51,
            "start": 104.02499999999999,
            "end": 104.07499999999999,
            "velocity": 75,
            "duration": 0.04999999999999716
          },
          {
            "pitch": 51,
            "start": 104.76818181818182,
            "end": 104.81818181818181,
            "velocity": 77,
            "duration": 0.04999999999999716
          },
          {
            "pitch": 35,
            "start": 104.95454545454545,
            "end": 105.00454545454545,
            "velocity": 96,
            "duration": 0.04999999999999716
          },
          {
            "pitch": 35,
            "start": 105.51136363636363,
            "end": 105.56136363636364,
            "velocity": 114,
            "duration": 0.05000000000001137
          },
          {
            "pitch": 42,
            "start": 105.51136363636363,
            "end": 105.56136363636364,
            "velocity": 94,
            "duration": 0.05000000000001137
          },
          {
            "pitch": 51,
            "start": 105.51136363636363,
            "end": 105.56136363636364,
            "velocity": 96,
            "duration": 0.05000000000001137
          },
          {
            "pitch": 51,
            "start": 106.25454545454545,
            "end": 106.30454545454545,
            "velocity": 87,
            "duration": 0.04999999999999716
          },
          {
            "pitch": 35,
            "start": 106.44090909090909,
            "end": 106.49090909090908,
            "velocity": 63,
            "duration": 0.04999999999999716
          },
          {
            "pitch": 42,
            "start": 106.44090909090909,
            "end": 106.49090909090908,
            "velocity": 64,
            "duration": 0.04999999999999716
          },
          {
            "pitch": 37,
            "start": 106.81136363636364,
            "end": 106.86136363636363,
            "velocity": 82,
            "duration": 0.04999999999999716
          },
          {
            "pitch": 35,
            "start": 106.99772727272726,
            "end": 107.04772727272727,
            "velocity": 114,
            "duration": 0.05000000000001137
          },
          {
            "pitch": 42,
            "start": 106.99772727272726,
            "end": 107.04772727272727,
            "velocity": 101,
            "duration": 0.05000000000001137
          },
          {
            "pitch": 51,
            "start": 106.99772727272726,
            "end": 107.04772727272727,
            "velocity": 98,
            "duration": 0.05000000000001137
          },
          {
            "pitch": 35,
            "start": 107.55454545454545,
            "end": 107.60454545454544,
            "velocity": 70,
            "duration": 0.04999999999999716
          },
          {
            "pitch": 37,
            "start": 107.74090909090908,
            "end": 107.79090909090908,
            "velocity": 68,
            "duration": 0.04999999999999716
          },
          {
            "pitch": 51,
            "start": 107.74090909090908,
            "end": 107.79090909090908,
            "velocity": 67,
            "duration": 0.04999999999999716
          },
          {
            "pitch": 37,
            "start": 108.29772727272727,
            "end": 108.34772727272727,
            "velocity": 81,
            "duration": 0.04999999999999716
          },
          {
            "pitch": 35,
            "start": 108.48409090909091,
            "end": 108.5340909090909,
            "velocity": 105,
            "duration": 0.04999999999999716
          },
          {
            "pitch": 42,
            "start": 108.48409090909091,
            "end": 108.5340909090909,
            "velocity": 99,
            "duration": 0.04999999999999716
          },
          {
            "pitch": 51,
            "start": 108.48409090909091,
            "end": 108.5340909090909,
            "velocity": 75,
            "duration": 0.04999999999999716
          },
          {
            "pitch": 35,
            "start": 109.04090909090908,
            "end": 109.09090909090908,
            "velocity": 93,
            "duration": 0.04999999999999716
          },
          {
            "pitch": 51,
            "start": 109.04090909090908,
            "end": 109.09090909090908,
            "velocity": 86,
            "duration": 0.04999999999999716
          },
          {
            "pitch": 35,
            "start": 109.97045454545454,
            "end": 110.02045454545454,
            "velocity": 97,
            "duration": 0.04999999999999716
          },
          {
            "pitch": 42,
            "start": 109.97045454545454,
            "end": 110.02045454545454,
            "velocity": 90,
            "duration": 0.04999999999999716
          },
          {
            "pitch": 37,
            "start": 110.15454545454546,
            "end": 110.20454545454545,
            "velocity": 92,
            "duration": 0.04999999999999716
          },
          {
            "pitch": 35,
            "start": 110.52727272727272,
            "end": 110.57727272727273,
            "velocity": 101,
            "duration": 0.05000000000001137
          },
          {
            "pitch": 42,
            "start": 110.52727272727272,
            "end": 110.57727272727273,
            "velocity": 90,
            "duration": 0.05000000000001137
          },
          {
            "pitch": 51,
            "start": 110.52727272727272,
            "end": 110.57727272727273,
            "velocity": 80,
            "duration": 0.05000000000001137
          },
          {
            "pitch": 37,
            "start": 110.89772727272727,
            "end": 110.94772727272726,
            "velocity": 67,
            "duration": 0.04999999999999716
          },
          {
            "pitch": 51,
            "start": 111.27045454545454,
            "end": 111.32045454545454,
            "velocity": 83,
            "duration": 0.04999999999999716
          },
          {
            "pitch": 35,
            "start": 111.45681818181818,
            "end": 111.50681818181818,
            "velocity": 91,
            "duration": 0.04999999999999716
          },
          {
            "pitch": 42,
            "start": 111.45681818181818,
            "end": 111.50681818181818,
            "velocity": 80,
            "duration": 0.04999999999999716
          },
          {
            "pitch": 37,
            "start": 111.64090909090909,
            "end": 111.69090909090909,
            "velocity": 75,
            "duration": 0.04999999999999716
          },
          {
            "pitch": 35,
            "start": 112.01363636363635,
            "end": 112.06363636363636,
            "velocity": 117,
            "duration": 0.05000000000001137
          },
          {
            "pitch": 51,
            "start": 112.01363636363635,
            "end": 112.06363636363636,
            "velocity": 99,
            "duration": 0.05000000000001137
          },
          {
            "pitch": 37,
            "start": 112.3840909090909,
            "end": 112.4340909090909,
            "velocity": 86,
            "duration": 0.04999999999999716
          },
          {
            "pitch": 51,
            "start": 112.75681818181818,
            "end": 112.80681818181817,
            "velocity": 79,
            "duration": 0.04999999999999716
          },
          {
            "pitch": 35,
            "start": 112.94090909090909,
            "end": 112.99090909090908,
            "velocity": 74,
            "duration": 0.04999999999999716
          },
          {
            "pitch": 35,
            "start": 113.5,
            "end": 113.55,
            "velocity": 115,
            "duration": 0.04999999999999716
          },
          {
            "pitch": 42,
            "start": 113.5,
            "end": 113.55,
            "velocity": 107,
            "duration": 0.04999999999999716
          },
          {
            "pitch": 51,
            "start": 113.5,
            "end": 113.55,
            "velocity": 98,
            "duration": 0.04999999999999716
          },
          {
            "pitch": 35,
            "start": 114.05681818181817,
            "end": 114.10681818181817,
            "velocity": 73,
            "duration": 0.04999999999999716
          },
          {
            "pitch": 51,
            "start": 114.05681818181817,
            "end": 114.10681818181817,
            "velocity": 85,
            "duration": 0.04999999999999716
          },
          {
            "pitch": 37,
            "start": 114.8,
            "end": 114.85,
            "velocity": 92,
            "duration": 0.04999999999999716
          },
          {
            "pitch": 35,
            "start": 114.98409090909091,
            "end": 115.0340909090909,
            "velocity": 107,
            "duration": 0.04999999999999716
          },
          {
            "pitch": 42,
            "start": 114.98409090909091,
            "end": 115.0340909090909,
            "velocity": 95,
            "duration": 0.04999999999999716
          },
          {
            "pitch": 51,
            "start": 114.98409090909091,
            "end": 115.0340909090909,
            "velocity": 91,
            "duration": 0.04999999999999716
          },
          {
            "pitch": 35,
            "start": 115.54318181818181,
            "end": 115.59318181818182,
            "velocity": 85,
            "duration": 0.05000000000001137
          },
          {
            "pitch": 51,
            "start": 115.54318181818181,
            "end": 115.59318181818182,
            "velocity": 77,
            "duration": 0.05000000000001137
          },
          {
            "pitch": 37,
            "start": 116.28636363636363,
            "end": 116.33636363636363,
            "velocity": 74,
            "duration": 0.04999999999999716
          },
          {
            "pitch": 51,
            "start": 116.28636363636363,
            "end": 116.33636363636363,
            "velocity": 70,
            "duration": 0.04999999999999716
          },
          {
            "pitch": 35,
            "start": 116.47045454545454,
            "end": 116.52045454545454,
            "velocity": 77,
            "duration": 0.04999999999999716
          },
          {
            "pitch": 42,
            "start": 116.47045454545454,
            "end": 116.52045454545454,
            "velocity": 97,
            "duration": 0.04999999999999716
          },
          {
            "pitch": 35,
            "start": 117.02954545454544,
            "end": 117.07954545454545,
            "velocity": 108,
            "duration": 0.05000000000001137
          },
          {
            "pitch": 51,
            "start": 117.02954545454544,
            "end": 117.07954545454545,
            "velocity": 90,
            "duration": 0.05000000000001137
          },
          {
            "pitch": 51,
            "start": 117.77272727272727,
            "end": 117.82272727272726,
            "velocity": 78,
            "duration": 0.04999999999999716
          },
          {
            "pitch": 35,
            "start": 117.95681818181818,
            "end": 118.00681818181818,
            "velocity": 82,
            "duration": 0.04999999999999716
          },
          {
            "pitch": 37,
            "start": 118.14318181818182,
            "end": 118.19318181818181,
            "velocity": 73,
            "duration": 0.04999999999999716
          },
          {
            "pitch": 35,
            "start": 118.51363636363635,
            "end": 118.56363636363636,
            "velocity": 111,
            "duration": 0.05000000000001137
          },
          {
            "pitch": 42,
            "start": 118.51363636363635,
            "end": 118.56363636363636,
            "velocity": 101,
            "duration": 0.05000000000001137
          },
          {
            "pitch": 51,
            "start": 118.51363636363635,
            "end": 118.56363636363636,
            "velocity": 81,
            "duration": 0.05000000000001137
          },
          {
            "pitch": 37,
            "start": 118.88636363636363,
            "end": 118.93636363636364,
            "velocity": 99,
            "duration": 0.05000000000001137
          },
          {
            "pitch": 35,
            "start": 119.07272727272726,
            "end": 119.12272727272726,
            "velocity": 64,
            "duration": 0.04999999999999716
          },
          {
            "pitch": 51,
            "start": 119.25681818181818,
            "end": 119.30681818181817,
            "velocity": 88,
            "duration": 0.04999999999999716
          },
          {
            "pitch": 35,
            "start": 119.44318181818181,
            "end": 119.49318181818181,
            "velocity": 65,
            "duration": 0.04999999999999716
          },
          {
            "pitch": 37,
            "start": 119.44318181818181,
            "end": 119.49318181818181,
            "velocity": 64,
            "duration": 0.04999999999999716
          },
          {
            "pitch": 51,
            "start": 119.81590909090909,
            "end": 119.86590909090908,
            "velocity": 93,
            "duration": 0.04999999999999716
          },
          {
            "pitch": 37,
            "start": 120.37272727272726,
            "end": 120.42272727272727,
            "velocity": 101,
            "duration": 0.05000000000001137
          },
          {
            "pitch": 51,
            "start": 120.5590909090909,
            "end": 120.60909090909091,
            "velocity": 64,
            "duration": 0.05000000000001137
          },
          {
            "pitch": 37,
            "start": 120.74318181818181,
            "end": 120.79318181818181,
            "velocity": 89,
            "duration": 0.04999999999999716
          },
          {
            "pitch": 37,
            "start": 121.11590909090908,
            "end": 121.16590909090908,
            "velocity": 101,
            "duration": 0.04999999999999716
          },
          {
            "pitch": 51,
            "start": 121.3,
            "end": 121.35,
            "velocity": 71,
            "duration": 0.04999999999999716
          },
          {
            "pitch": 37,
            "start": 121.48636363636363,
            "end": 121.53636363636363,
            "velocity": 66,
            "duration": 0.04999999999999716
          },
          {
            "pitch": 42,
            "start": 121.48636363636363,
            "end": 121.53636363636363,
            "velocity": 65,
            "duration": 0.04999999999999716
          },
          {
            "pitch": 51,
            "start": 122.04318181818181,
            "end": 122.09318181818182,
            "velocity": 78,
            "duration": 0.05000000000001137
          },
          {
            "pitch": 42,
            "start": 122.22954545454544,
            "end": 122.27954545454544,
            "velocity": 67,
            "duration": 0.04999999999999716
          },
          {
            "pitch": 51,
            "start": 122.41590909090908,
            "end": 122.46590909090908,
            "velocity": 76,
            "duration": 0.04999999999999716
          },
          {
            "pitch": 51,
            "start": 122.78636363636363,
            "end": 122.83636363636363,
            "velocity": 94,
            "duration": 0.04999999999999716
          },
          {
            "pitch": 42,
            "start": 122.97272727272727,
            "end": 123.02272727272727,
            "velocity": 87,
            "duration": 0.04999999999999716
          },
          {
            "pitch": 51,
            "start": 123.34545454545454,
            "end": 123.39545454545454,
            "velocity": 71,
            "duration": 0.04999999999999716
          },
          {
            "pitch": 51,
            "start": 123.71590909090908,
            "end": 123.76590909090909,
            "velocity": 69,
            "duration": 0.05000000000001137
          },
          {
            "pitch": 37,
            "start": 123.90227272727272,
            "end": 123.95227272727273,
            "velocity": 87,
            "duration": 0.05000000000001137
          },
          {
            "pitch": 51,
            "start": 124.27272727272727,
            "end": 124.32272727272726,
            "velocity": 87,
            "duration": 0.04999999999999716
          },
          {
            "pitch": 42,
            "start": 124.4590909090909,
            "end": 124.5090909090909,
            "velocity": 77,
            "duration": 0.04999999999999716
          },
          {
            "pitch": 35,
            "start": 125.01590909090909,
            "end": 125.06590909090909,
            "velocity": 110,
            "duration": 0.04999999999999716
          },
          {
            "pitch": 51,
            "start": 125.01590909090909,
            "end": 125.06590909090909,
            "velocity": 86,
            "duration": 0.04999999999999716
          },
          {
            "pitch": 51,
            "start": 125.7590909090909,
            "end": 125.8090909090909,
            "velocity": 90,
            "duration": 0.04999999999999716
          },
          {
            "pitch": 35,
            "start": 125.94545454545454,
            "end": 125.99545454545454,
            "velocity": 69,
            "duration": 0.04999999999999716
          },
          {
            "pitch": 37,
            "start": 126.13181818181818,
            "end": 126.18181818181817,
            "velocity": 107,
            "duration": 0.04999999999999716
          },
          {
            "pitch": 51,
            "start": 126.31590909090909,
            "end": 126.36590909090908,
            "velocity": 77,
            "duration": 0.04999999999999716
          },
          {
            "pitch": 42,
            "start": 126.50227272727273,
            "end": 126.55227272727272,
            "velocity": 72,
            "duration": 0.04999999999999716
          },
          {
            "pitch": 37,
            "start": 126.87272727272726,
            "end": 126.92272727272727,
            "velocity": 88,
            "duration": 0.05000000000001137
          },
          {
            "pitch": 51,
            "start": 127.0590909090909,
            "end": 127.10909090909091,
            "velocity": 63,
            "duration": 0.05000000000001137
          },
          {
            "pitch": 37,
            "start": 127.24545454545454,
            "end": 127.29545454545453,
            "velocity": 69,
            "duration": 0.04999999999999716
          },
          {
            "pitch": 35,
            "start": 127.98863636363636,
            "end": 128.03863636363636,
            "velocity": 86,
            "duration": 0.04999999999999716
          },
          {
            "pitch": 51,
            "start": 127.98863636363636,
            "end": 128.03863636363636,
            "velocity": 86,
            "duration": 0.04999999999999716
          },
          {
            "pitch": 42,
            "start": 128.54545454545453,
            "end": 128.59545454545454,
            "velocity": 63,
            "duration": 0.05000000000001137
          },
          {
            "pitch": 51,
            "start": 128.73181818181817,
            "end": 128.78181818181818,
            "velocity": 68,
            "duration": 0.05000000000001137
          },
          {
            "pitch": 51,
            "start": 129.28863636363636,
            "end": 129.33863636363637,
            "velocity": 71,
            "duration": 0.05000000000001137
          },
          {
            "pitch": 37,
            "start": 129.475,
            "end": 129.525,
            "velocity": 68,
            "duration": 0.05000000000001137
          },
          {
            "pitch": 35,
            "start": 130.03181818181818,
            "end": 130.08181818181816,
            "velocity": 85,
            "duration": 0.04999999999998295
          },
          {
            "pitch": 51,
            "start": 130.03181818181818,
            "end": 130.08181818181816,
            "velocity": 84,
            "duration": 0.04999999999998295
          },
          {
            "pitch": 37,
            "start": 130.40227272727273,
            "end": 130.4522727272727,
            "velocity": 66,
            "duration": 0.04999999999998295
          },
          {
            "pitch": 51,
            "start": 130.775,
            "end": 130.825,
            "velocity": 84,
            "duration": 0.04999999999998295
          },
          {
            "pitch": 35,
            "start": 130.96136363636364,
            "end": 131.01136363636363,
            "velocity": 92,
            "duration": 0.04999999999998295
          },
          {
            "pitch": 42,
            "start": 130.96136363636364,
            "end": 131.01136363636363,
            "velocity": 73,
            "duration": 0.04999999999998295
          },
          {
            "pitch": 37,
            "start": 131.14545454545453,
            "end": 131.19545454545454,
            "velocity": 97,
            "duration": 0.05000000000001137
          },
          {
            "pitch": 42,
            "start": 131.5181818181818,
            "end": 131.5681818181818,
            "velocity": 69,
            "duration": 0.05000000000001137
          },
          {
            "pitch": 51,
            "start": 131.5181818181818,
            "end": 131.5681818181818,
            "velocity": 67,
            "duration": 0.05000000000001137
          },
          {
            "pitch": 37,
            "start": 131.88863636363635,
            "end": 131.93863636363636,
            "velocity": 99,
            "duration": 0.05000000000001137
          },
          {
            "pitch": 51,
            "start": 132.26136363636363,
            "end": 132.31136363636364,
            "velocity": 65,
            "duration": 0.05000000000001137
          },
          {
            "pitch": 35,
            "start": 133.00454545454545,
            "end": 133.05454545454546,
            "velocity": 109,
            "duration": 0.05000000000001137
          },
          {
            "pitch": 35,
            "start": 133.9318181818182,
            "end": 133.98181818181817,
            "velocity": 68,
            "duration": 0.04999999999998295
          },
          {
            "pitch": 37,
            "start": 134.11818181818182,
            "end": 134.1681818181818,
            "velocity": 79,
            "duration": 0.04999999999998295
          },
          {
            "pitch": 37,
            "start": 134.86136363636362,
            "end": 134.91136363636363,
            "velocity": 91,
            "duration": 0.05000000000001137
          },
          {
            "pitch": 35,
            "start": 135.04772727272726,
            "end": 135.09772727272727,
            "velocity": 65,
            "duration": 0.05000000000001137
          },
          {
            "pitch": 35,
            "start": 135.4181818181818,
            "end": 135.46818181818182,
            "velocity": 67,
            "duration": 0.05000000000001137
          },
          {
            "pitch": 37,
            "start": 135.60454545454544,
            "end": 135.65454545454546,
            "velocity": 100,
            "duration": 0.05000000000001137
          },
          {
            "pitch": 37,
            "start": 136.5340909090909,
            "end": 136.5840909090909,
            "velocity": 75,
            "duration": 0.04999999999998295
          },
          {
            "pitch": 51,
            "start": 136.90454545454546,
            "end": 136.95454545454544,
            "velocity": 67,
            "duration": 0.04999999999998295
          },
          {
            "pitch": 51,
            "start": 137.46136363636364,
            "end": 137.51136363636363,
            "velocity": 78,
            "duration": 0.04999999999998295
          },
          {
            "pitch": 37,
            "start": 137.64772727272725,
            "end": 137.69772727272726,
            "velocity": 66,
            "duration": 0.05000000000001137
          },
          {
            "pitch": 37,
            "start": 138.20454545454544,
            "end": 138.25454545454545,
            "velocity": 90,
            "duration": 0.05000000000001137
          },
          {
            "pitch": 45,
            "start": 138.39090909090908,
            "end": 138.4409090909091,
            "velocity": 89,
            "duration": 0.05000000000001137
          },
          {
            "pitch": 41,
            "start": 139.1340909090909,
            "end": 139.1840909090909,
            "velocity": 67,
            "duration": 0.05000000000001137
          },
          {
            "pitch": 51,
            "start": 139.32045454545454,
            "end": 139.37045454545455,
            "velocity": 71,
            "duration": 0.05000000000001137
          },
          {
            "pitch": 41,
            "start": 139.50454545454545,
            "end": 139.55454545454546,
            "velocity": 64,
            "duration": 0.05000000000001137
          },
          {
            "pitch": 35,
            "start": 139.6909090909091,
            "end": 139.74090909090907,
            "velocity": 70,
            "duration": 0.04999999999998295
          },
          {
            "pitch": 41,
            "start": 140.24772727272727,
            "end": 140.29772727272726,
            "velocity": 83,
            "duration": 0.04999999999998295
          },
          {
            "pitch": 35,
            "start": 140.4340909090909,
            "end": 140.4840909090909,
            "velocity": 68,
            "duration": 0.04999999999998295
          },
          {
            "pitch": 35,
            "start": 140.99090909090907,
            "end": 141.04090909090908,
            "velocity": 101,
            "duration": 0.05000000000001137
          },
          {
            "pitch": 51,
            "start": 140.99090909090907,
            "end": 141.04090909090908,
            "velocity": 86,
            "duration": 0.05000000000001137
          },
          {
            "pitch": 51,
            "start": 141.54772727272726,
            "end": 141.59772727272727,
            "velocity": 71,
            "duration": 0.05000000000001137
          },
          {
            "pitch": 51,
            "start": 142.29090909090908,
            "end": 142.3409090909091,
            "velocity": 80,
            "duration": 0.05000000000001137
          },
          {
            "pitch": 35,
            "start": 142.47727272727272,
            "end": 142.52727272727273,
            "velocity": 84,
            "duration": 0.05000000000001137
          },
          {
            "pitch": 42,
            "start": 142.47727272727272,
            "end": 142.52727272727273,
            "velocity": 77,
            "duration": 0.05000000000001137
          },
          {
            "pitch": 37,
            "start": 142.85,
            "end": 142.9,
            "velocity": 79,
            "duration": 0.05000000000001137
          },
          {
            "pitch": 35,
            "start": 143.0340909090909,
            "end": 143.0840909090909,
            "velocity": 82,
            "duration": 0.04999999999998295
          },
          {
            "pitch": 51,
            "start": 143.0340909090909,
            "end": 143.0840909090909,
            "velocity": 85,
            "duration": 0.04999999999998295
          },
          {
            "pitch": 51,
            "start": 143.77727272727273,
            "end": 143.8272727272727,
            "velocity": 77,
            "duration": 0.04999999999998295
          },
          {
            "pitch": 35,
            "start": 143.96363636363637,
            "end": 144.01363636363635,
            "velocity": 79,
            "duration": 0.04999999999998295
          },
          {
            "pitch": 42,
            "start": 143.96363636363637,
            "end": 144.01363636363635,
            "velocity": 88,
            "duration": 0.04999999999998295
          },
          {
            "pitch": 37,
            "start": 144.15,
            "end": 144.2,
            "velocity": 73,
            "duration": 0.04999999999998295
          },
          {
            "pitch": 35,
            "start": 144.52045454545453,
            "end": 144.57045454545454,
            "velocity": 92,
            "duration": 0.05000000000001137
          },
          {
            "pitch": 42,
            "start": 144.52045454545453,
            "end": 144.57045454545454,
            "velocity": 67,
            "duration": 0.05000000000001137
          },
          {
            "pitch": 51,
            "start": 144.52045454545453,
            "end": 144.57045454545454,
            "velocity": 73,
            "duration": 0.05000000000001137
          },
          {
            "pitch": 51,
            "start": 145.26363636363635,
            "end": 145.31363636363636,
            "velocity": 83,
            "duration": 0.05000000000001137
          },
          {
            "pitch": 35,
            "start": 145.45,
            "end": 145.5,
            "velocity": 89,
            "duration": 0.05000000000001137
          },
          {
            "pitch": 42,
            "start": 145.45,
            "end": 145.5,
            "velocity": 77,
            "duration": 0.05000000000001137
          },
          {
            "pitch": 35,
            "start": 146.00681818181818,
            "end": 146.0568181818182,
            "velocity": 106,
            "duration": 0.05000000000001137
          },
          {
            "pitch": 42,
            "start": 146.00681818181818,
            "end": 146.0568181818182,
            "velocity": 70,
            "duration": 0.05000000000001137
          },
          {
            "pitch": 51,
            "start": 146.00681818181818,
            "end": 146.0568181818182,
            "velocity": 79,
            "duration": 0.05000000000001137
          },
          {
            "pitch": 37,
            "start": 146.37954545454545,
            "end": 146.42954545454543,
            "velocity": 64,
            "duration": 0.04999999999998295
          },
          {
            "pitch": 51,
            "start": 146.75,
            "end": 146.79999999999998,
            "velocity": 73,
            "duration": 0.04999999999998295
          },
          {
            "pitch": 35,
            "start": 146.93636363636364,
            "end": 146.98636363636362,
            "velocity": 72,
            "duration": 0.04999999999998295
          },
          {
            "pitch": 35,
            "start": 147.49318181818182,
            "end": 147.5431818181818,
            "velocity": 105,
            "duration": 0.04999999999998295
          },
          {
            "pitch": 42,
            "start": 147.49318181818182,
            "end": 147.5431818181818,
            "velocity": 80,
            "duration": 0.04999999999998295
          },
          {
            "pitch": 51,
            "start": 147.49318181818182,
            "end": 147.5431818181818,
            "velocity": 74,
            "duration": 0.04999999999998295
          },
          {
            "pitch": 37,
            "start": 147.67954545454543,
            "end": 147.72954545454544,
            "velocity": 69,
            "duration": 0.05000000000001137
          },
          {
            "pitch": 37,
            "start": 148.23636363636362,
            "end": 148.28636363636363,
            "velocity": 64,
            "duration": 0.05000000000001137
          },
          {
            "pitch": 35,
            "start": 148.97954545454544,
            "end": 149.02954545454546,
            "velocity": 96,
            "duration": 0.05000000000001137
          },
          {
            "pitch": 42,
            "start": 148.97954545454544,
            "end": 149.02954545454546,
            "velocity": 77,
            "duration": 0.05000000000001137
          },
          {
            "pitch": 51,
            "start": 148.97954545454544,
            "end": 149.02954545454546,
            "velocity": 86,
            "duration": 0.05000000000001137
          },
          {
            "pitch": 35,
            "start": 149.53636363636363,
            "end": 149.58636363636364,
            "velocity": 82,
            "duration": 0.05000000000001137
          },
          {
            "pitch": 51,
            "start": 149.53636363636363,
            "end": 149.58636363636364,
            "velocity": 84,
            "duration": 0.05000000000001137
          },
          {
            "pitch": 51,
            "start": 150.27954545454546,
            "end": 150.32954545454544,
            "velocity": 75,
            "duration": 0.04999999999998295
          },
          {
            "pitch": 35,
            "start": 150.4659090909091,
            "end": 150.51590909090908,
            "velocity": 71,
            "duration": 0.04999999999998295
          },
          {
            "pitch": 42,
            "start": 150.4659090909091,
            "end": 150.51590909090908,
            "velocity": 65,
            "duration": 0.04999999999998295
          },
          {
            "pitch": 37,
            "start": 150.83636363636364,
            "end": 150.88636363636363,
            "velocity": 64,
            "duration": 0.04999999999998295
          },
          {
            "pitch": 35,
            "start": 151.02272727272725,
            "end": 151.07272727272726,
            "velocity": 87,
            "duration": 0.05000000000001137
          },
          {
            "pitch": 51,
            "start": 151.02272727272725,
            "end": 151.07272727272726,
            "velocity": 83,
            "duration": 0.05000000000001137
          },
          {
            "pitch": 51,
            "start": 151.76590909090908,
            "end": 151.8159090909091,
            "velocity": 77,
            "duration": 0.05000000000001137
          },
          {
            "pitch": 35,
            "start": 151.9522727272727,
            "end": 152.00227272727273,
            "velocity": 75,
            "duration": 0.05000000000001137
          },
          {
            "pitch": 42,
            "start": 151.9522727272727,
            "end": 152.00227272727273,
            "velocity": 71,
            "duration": 0.05000000000001137
          },
          {
            "pitch": 37,
            "start": 152.13636363636363,
            "end": 152.18636363636364,
            "velocity": 71,
            "duration": 0.05000000000001137
          },
          {
            "pitch": 35,
            "start": 152.5090909090909,
            "end": 152.5590909090909,
            "velocity": 103,
            "duration": 0.05000000000001137
          },
          {
            "pitch": 42,
            "start": 152.5090909090909,
            "end": 152.5590909090909,
            "velocity": 82,
            "duration": 0.05000000000001137
          },
          {
            "pitch": 51,
            "start": 152.5090909090909,
            "end": 152.5590909090909,
            "velocity": 78,
            "duration": 0.05000000000001137
          },
          {
            "pitch": 51,
            "start": 153.25227272727273,
            "end": 153.3022727272727,
            "velocity": 80,
            "duration": 0.04999999999998295
          },
          {
            "pitch": 35,
            "start": 153.43636363636364,
            "end": 153.48636363636362,
            "velocity": 66,
            "duration": 0.04999999999998295
          },
          {
            "pitch": 37,
            "start": 153.8090909090909,
            "end": 153.8590909090909,
            "velocity": 79,
            "duration": 0.04999999999998295
          },
          {
            "pitch": 35,
            "start": 153.99545454545455,
            "end": 154.04545454545453,
            "velocity": 102,
            "duration": 0.04999999999998295
          },
          {
            "pitch": 42,
            "start": 153.99545454545455,
            "end": 154.04545454545453,
            "velocity": 98,
            "duration": 0.04999999999998295
          },
          {
            "pitch": 51,
            "start": 153.99545454545455,
            "end": 154.04545454545453,
            "velocity": 86,
            "duration": 0.04999999999998295
          },
          {
            "pitch": 37,
            "start": 154.73863636363635,
            "end": 154.78863636363636,
            "velocity": 75,
            "duration": 0.05000000000001137
          },
          {
            "pitch": 51,
            "start": 155.29545454545453,
            "end": 155.34545454545454,
            "velocity": 72,
            "duration": 0.05000000000001137
          },
          {
            "pitch": 35,
            "start": 155.48181818181817,
            "end": 155.53181818181818,
            "velocity": 84,
            "duration": 0.05000000000001137
          },
          {
            "pitch": 37,
            "start": 155.66590909090908,
            "end": 155.7159090909091,
            "velocity": 88,
            "duration": 0.05000000000001137
          },
          {
            "pitch": 51,
            "start": 155.85227272727272,
            "end": 155.90227272727273,
            "velocity": 82,
            "duration": 0.05000000000001137
          },
          {
            "pitch": 51,
            "start": 156.22272727272727,
            "end": 156.27272727272725,
            "velocity": 66,
            "duration": 0.04999999999998295
          },
          {
            "pitch": 37,
            "start": 156.4090909090909,
            "end": 156.4590909090909,
            "velocity": 74,
            "duration": 0.04999999999998295
          },
          {
            "pitch": 51,
            "start": 156.78181818181818,
            "end": 156.83181818181816,
            "velocity": 63,
            "duration": 0.04999999999998295
          },
          {
            "pitch": 37,
            "start": 157.15227272727273,
            "end": 157.2022727272727,
            "velocity": 94,
            "duration": 0.04999999999998295
          },
          {
            "pitch": 51,
            "start": 158.2681818181818,
            "end": 158.3181818181818,
            "velocity": 86,
            "duration": 0.05000000000001137
          },
          {
            "pitch": 51,
            "start": 159.01136363636363,
            "end": 159.06136363636364,
            "velocity": 76,
            "duration": 0.05000000000001137
          },
          {
            "pitch": 51,
            "start": 159.38181818181818,
            "end": 159.4318181818182,
            "velocity": 71,
            "duration": 0.05000000000001137
          },
          {
            "pitch": 35,
            "start": 159.93863636363636,
            "end": 159.98863636363635,
            "velocity": 72,
            "duration": 0.04999999999998295
          },
          {
            "pitch": 37,
            "start": 160.125,
            "end": 160.17499999999998,
            "velocity": 67,
            "duration": 0.04999999999998295
          },
          {
            "pitch": 51,
            "start": 160.31136363636364,
            "end": 160.36136363636362,
            "velocity": 70,
            "duration": 0.04999999999998295
          },
          {
            "pitch": 42,
            "start": 160.49545454545455,
            "end": 160.54545454545453,
            "velocity": 66,
            "duration": 0.04999999999998295
          },
          {
            "pitch": 51,
            "start": 161.23863636363635,
            "end": 161.28863636363636,
            "velocity": 82,
            "duration": 0.05000000000001137
          },
          {
            "pitch": 35,
            "start": 161.98181818181817,
            "end": 162.03181818181818,
            "velocity": 94,
            "duration": 0.05000000000001137
          },
          {
            "pitch": 51,
            "start": 161.98181818181817,
            "end": 162.03181818181818,
            "velocity": 75,
            "duration": 0.05000000000001137
          },
          {
            "pitch": 37,
            "start": 162.1681818181818,
            "end": 162.21818181818182,
            "velocity": 95,
            "duration": 0.05000000000001137
          },
          {
            "pitch": 37,
            "start": 162.53863636363636,
            "end": 162.58863636363637,
            "velocity": 70,
            "duration": 0.05000000000001137
          },
          {
            "pitch": 37,
            "start": 163.28181818181818,
            "end": 163.33181818181816,
            "velocity": 78,
            "duration": 0.04999999999998295
          },
          {
            "pitch": 37,
            "start": 163.65454545454546,
            "end": 163.70454545454544,
            "velocity": 68,
            "duration": 0.04999999999998295
          },
          {
            "pitch": 51,
            "start": 164.025,
            "end": 164.075,
            "velocity": 70,
            "duration": 0.04999999999998295
          },
          {
            "pitch": 37,
            "start": 164.39772727272725,
            "end": 164.44772727272726,
            "velocity": 65,
            "duration": 0.05000000000001137
          },
          {
            "pitch": 35,
            "start": 164.95454545454544,
            "end": 165.00454545454545,
            "velocity": 80,
            "duration": 0.05000000000001137
          },
          {
            "pitch": 37,
            "start": 165.14090909090908,
            "end": 165.1909090909091,
            "velocity": 83,
            "duration": 0.05000000000001137
          },
          {
            "pitch": 37,
            "start": 165.8840909090909,
            "end": 165.9340909090909,
            "velocity": 70,
            "duration": 0.05000000000001137
          },
          {
            "pitch": 51,
            "start": 166.25454545454545,
            "end": 166.30454545454543,
            "velocity": 71,
            "duration": 0.04999999999998295
          },
          {
            "pitch": 37,
            "start": 166.81136363636364,
            "end": 166.86136363636362,
            "velocity": 65,
            "duration": 0.04999999999998295
          },
          {
            "pitch": 35,
            "start": 166.99772727272727,
            "end": 167.04772727272726,
            "velocity": 93,
            "duration": 0.04999999999998295
          },
          {
            "pitch": 51,
            "start": 166.99772727272727,
            "end": 167.04772727272726,
            "velocity": 76,
            "duration": 0.04999999999998295
          },
          {
            "pitch": 37,
            "start": 167.1840909090909,
            "end": 167.2340909090909,
            "velocity": 67,
            "duration": 0.04999999999998295
          },
          {
            "pitch": 35,
            "start": 167.9272727272727,
            "end": 167.97727272727272,
            "velocity": 70,
            "duration": 0.05000000000001137
          },
          {
            "pitch": 37,
            "start": 168.11136363636362,
            "end": 168.16136363636363,
            "velocity": 65,
            "duration": 0.05000000000001137
          },
          {
            "pitch": 45,
            "start": 168.67045454545453,
            "end": 168.72045454545454,
            "velocity": 63,
            "duration": 0.05000000000001137
          },
          {
            "pitch": 35,
            "start": 169.97045454545454,
            "end": 170.02045454545453,
            "velocity": 78,
            "duration": 0.04999999999998295
          },
          {
            "pitch": 37,
            "start": 170.15681818181818,
            "end": 170.20681818181816,
            "velocity": 87,
            "duration": 0.04999999999998295
          },
          {
            "pitch": 37,
            "start": 170.71363636363637,
            "end": 170.76363636363635,
            "velocity": 71,
            "duration": 0.04999999999998295
          },
          {
            "pitch": 37,
            "start": 171.64090909090908,
            "end": 171.6909090909091,
            "velocity": 75,
            "duration": 0.05000000000001137
          }
        ],
        "melodic_notes": [],
        "instruments": [
          {
            "program": "0",
            "is_drum": true,
            "name": "",
            "note_count": 694
          }
        ],
        "duration": 171.6909090909091,
        "tempo_changes": 0
      }
    ]
  },
  "/mnt/hdd/drum-tranxn": {
    "summary": {
      "total_files_found": 4211,
      "successfully_analyzed": 4211,
      "analysis_success_rate": 100.0
    },
    "drum_analysis": {
      "unique_notes": 25,
      "total_occurrences": 2092157,
      "note_range": [
        22,
        59
      ],
      "frequency_distribution": {
        "36": 387286,
        "38": 355950,
        "44": 242152,
        "42": 216792,
        "51": 197033,
        "43": 129908,
        "40": 128171,
        "22": 126024,
        "48": 116840,
        "37": 54221,
        "26": 45211,
        "54": 33144,
        "53": 14315,
        "46": 12513,
        "52": 12123,
        "55": 6714,
        "59": 6364,
        "50": 5688,
        "45": 704,
        "58": 624,
        "39": 182,
        "57": 115,
        "49": 58,
        "47": 13,
        "56": 12
      },
      "note_statistics": {
        "22": {
          "count": 126024,
          "percentage": 6.023639717286992,
          "gm_name": "Unknown (22)",
          "velocity_stats": {
            "mean": 74.59975877610614,
            "std": 24.37265466153905,
            "min": 12,
            "max": 127
          },
          "duration_stats": {
            "mean": 0.0976960395534116,
            "std": 0.017621444767931465,
            "min": 0.0009259249999900021,
            "max": 0.1037036000000171
          }
        },
        "36": {
          "count": 387286,
          "percentage": 18.511325870859597,
          "gm_name": "Bass Drum 1",
          "velocity_stats": {
            "mean": 80.59582840588092,
            "std": 31.764288595102947,
            "min": 6,
            "max": 127
          },
          "duration_stats": {
            "mean": 0.1003689861500286,
            "std": 0.005814477257001542,
            "min": 0.0006249999999994316,
            "max": 0.10299999999999443
          }
        },
        "42": {
          "count": 216792,
          "percentage": 10.362128654780687,
          "gm_name": "Closed Hi Hat",
          "velocity_stats": {
            "mean": 47.36442765415698,
            "std": 20.60170800833138,
            "min": 5,
            "max": 127
          },
          "duration_stats": {
            "mean": 0.1001823601244607,
            "std": 0.009656463815898611,
            "min": 0.0018518500000013205,
            "max": 0.10372342500000187
          }
        },
        "40": {
          "count": 128171,
          "percentage": 6.126261078876968,
          "gm_name": "Hi Floor Tom",
          "velocity_stats": {
            "mean": 114.90142856028275,
            "std": 19.815968472562993,
            "min": 8,
            "max": 127
          },
          "duration_stats": {
            "mean": 0.09837691879489452,
            "std": 0.011807595186844037,
            "min": 0.0010416666666668295,
            "max": 0.10275432291666675
          }
        },
        "38": {
          "count": 355950,
          "percentage": 17.013541526759223,
          "gm_name": "Acoustic Snare",
          "velocity_stats": {
            "mean": 55.36347239780868,
            "std": 34.800202818646,
            "min": 4,
            "max": 127
          },
          "duration_stats": {
            "mean": 0.08947864932519779,
            "std": 0.026440304237986403,
            "min": 0.0006249999999852207,
            "max": 0.1031976125000007
          }
        },
        "37": {
          "count": 54221,
          "percentage": 2.591631507578064,
          "gm_name": "Side Stick",
          "velocity_stats": {
            "mean": 62.15348296785378,
            "std": 17.41177240372406,
            "min": 8,
            "max": 127
          },
          "duration_stats": {
            "mean": 0.10045594866157344,
            "std": 0.004656994121909041,
            "min": 0.0009765625,
            "max": 0.10275432291666675
          }
        },
        "26": {
          "count": 45211,
          "percentage": 2.1609754908450944,
          "gm_name": "Unknown (26)",
          "velocity_stats": {
            "mean": 95.91267611864369,
            "std": 26.761218578109833,
            "min": 17,
            "max": 127
          },
          "duration_stats": {
            "mean": 0.10087797720000845,
            "std": 0.004920037794994491,
            "min": 0.002777774999998428,
            "max": 0.1030093416666702
          }
        },
        "44": {
          "count": 242152,
          "percentage": 11.5742747795696,
          "gm_name": "Pedal Hi-Hat",
          "velocity_stats": {
            "mean": 62.16730813703789,
            "std": 20.772441468175558,
            "min": 17,
            "max": 102
          },
          "duration_stats": {
            "mean": 0.10104447234557214,
            "std": 0.0009601654763544859,
            "min": 0.05706526874999995,
            "max": 0.10300000000000864
          }
        },
        "48": {
          "count": 116840,
          "percentage": 5.584666925092142,
          "gm_name": "Hi-Mid Tom",
          "velocity_stats": {
            "mean": 88.50319239986307,
            "std": 27.78184270449187,
            "min": 13,
            "max": 127
          },
          "duration_stats": {
            "mean": 0.09969576009639275,
            "std": 0.00977516300255151,
            "min": 0.00089285625000457,
            "max": 0.10250000000000625
          }
        },
        "43": {
          "count": 129908,
          "percentage": 6.209285440815388,
          "gm_name": "High Floor Tom",
          "velocity_stats": {
            "mean": 80.0271191920436,
            "std": 27.396881301563,
            "min": 8,
            "max": 127
          },
          "duration_stats": {
            "mean": 0.09932895522058566,
            "std": 0.010840129827949511,
            "min": 0.00089285625000457,
            "max": 0.1028645833333286
          }
        },
        "52": {
          "count": 12123,
          "percentage": 0.5794498214044166,
          "gm_name": "Chinese Cymbal",
          "velocity_stats": {
            "mean": 95.31931040171575,
            "std": 21.398989826752505,
            "min": 42,
            "max": 127
          },
          "duration_stats": {
            "mean": 0.10077932776591997,
            "std": 0.001080071390700062,
            "min": 0.0774456625,
            "max": 0.10326088333333416
          }
        },
        "55": {
          "count": 6714,
          "percentage": 0.3209128186842574,
          "gm_name": "Splash Cymbal",
          "velocity_stats": {
            "mean": 92.76705391718797,
            "std": 20.395777452938944,
            "min": 45,
            "max": 127
          },
          "duration_stats": {
            "mean": 0.10084452162303952,
            "std": 0.0005633015144889305,
            "min": 0.0989130187500109,
            "max": 0.10250000000002046
          }
        },
        "51": {
          "count": 197033,
          "percentage": 9.417696664256077,
          "gm_name": "Ride Cymbal 1",
          "velocity_stats": {
            "mean": 54.359599660970495,
            "std": 16.079892811563123,
            "min": 11,
            "max": 127
          },
          "duration_stats": {
            "mean": 0.09937118217819707,
            "std": 0.011049710684731897,
            "min": 0.0006756729166710329,
            "max": 0.10294112500000097
          }
        },
        "53": {
          "count": 14315,
          "percentage": 0.6842220732000515,
          "gm_name": "Ride Bell",
          "velocity_stats": {
            "mean": 55.95228780998952,
            "std": 23.321250254171396,
            "min": 17,
            "max": 127
          },
          "duration_stats": {
            "mean": 0.10072232990773128,
            "std": 0.0005886269160752926,
            "min": 0.09886353749999444,
            "max": 0.10227262500001189
          }
        },
        "46": {
          "count": 12513,
          "percentage": 0.5980908698534575,
          "gm_name": "Open Hi-Hat",
          "velocity_stats": {
            "mean": 46.83329337489011,
            "std": 27.300852550541638,
            "min": 7,
            "max": 127
          },
          "duration_stats": {
            "mean": 0.10100338335614358,
            "std": 0.004120268321156753,
            "min": 0.013541666666668561,
            "max": 0.10256420000000332
          }
        },
        "54": {
          "count": 33144,
          "percentage": 1.5842023328077195,
          "gm_name": "Tambourine",
          "velocity_stats": {
            "mean": 62.630461018585564,
            "std": 26.674614443570118,
            "min": 5,
            "max": 127
          },
          "duration_stats": {
            "mean": 0.09687323267672879,
            "std": 0.017544195569318806,
            "min": 0.0009259249999900021,
            "max": 0.10372342500000187
          }
        },
        "50": {
          "count": 5688,
          "percentage": 0.2718725219952422,
          "gm_name": "High Tom",
          "velocity_stats": {
            "mean": 93.30502812939521,
            "std": 27.348578696435062,
            "min": 22,
            "max": 127
          },
          "duration_stats": {
            "mean": 0.10091817811694251,
            "std": 0.0005342656446940793,
            "min": 0.09973406250000494,
            "max": 0.10217388750000111
          }
        },
        "58": {
          "count": 624,
          "percentage": 0.029825677518465394,
          "gm_name": "Vibraslap",
          "velocity_stats": {
            "mean": 68.02724358974359,
            "std": 31.160320985841334,
            "min": 13,
            "max": 127
          },
          "duration_stats": {
            "mean": 0.10068799941573095,
            "std": 0.0005933323269303503,
            "min": 0.09938518958335862,
            "max": 0.10249999999999204
          }
        },
        "39": {
          "count": 182,
          "percentage": 0.00869915594288574,
          "gm_name": "Hand Clap",
          "velocity_stats": {
            "mean": 88.6043956043956,
            "std": 30.7561765871683,
            "min": 13,
            "max": 127
          },
          "duration_stats": {
            "mean": 0.10084945710851688,
            "std": 0.0005617101338852043,
            "min": 0.09938518958335862,
            "max": 0.10217388750000111
          }
        },
        "45": {
          "count": 704,
          "percentage": 0.033649482328525056,
          "gm_name": "Low Tom",
          "velocity_stats": {
            "mean": 96.50710227272727,
            "std": 26.501767857215153,
            "min": 54,
            "max": 127
          },
          "duration_stats": {
            "mean": 0.09619441905184276,
            "std": 0.01849461074475955,
            "min": 0.003177968749994875,
            "max": 0.10190218750000213
          }
        },
        "47": {
          "count": 13,
          "percentage": 0.0006213682816346957,
          "gm_name": "Low-Mid Tom",
          "velocity_stats": {
            "mean": 125.0,
            "std": 0.0,
            "min": 125,
            "max": 125
          },
          "duration_stats": {
            "mean": 0.1004901458333336,
            "std": 0.0,
            "min": 0.1004901458333336,
            "max": 0.1004901458333336
          }
        },
        "56": {
          "count": 12,
          "percentage": 0.0005735707215089498,
          "gm_name": "Cowbell",
          "velocity_stats": {
            "mean": 82.41666666666667,
            "std": 32.34568063212699,
            "min": 27,
            "max": 127
          },
          "duration_stats": {
            "mean": 0.1004498137152788,
            "std": 0.0004820836952671145,
            "min": 0.09938518958335862,
            "max": 0.10100000000002751
          }
        },
        "57": {
          "count": 115,
          "percentage": 0.005496719414460769,
          "gm_name": "Crash Cymbal 2",
          "velocity_stats": {
            "mean": 118.18260869565218,
            "std": 24.6983831925319,
            "min": 49,
            "max": 127
          },
          "duration_stats": {
            "mean": 0.10082302605072731,
            "std": 0.0008350120353182688,
            "min": 0.09999999999999432,
            "max": 0.10187500000000682
          }
        },
        "49": {
          "count": 58,
          "percentage": 0.0027722584872932575,
          "gm_name": "Crash Cymbal 1",
          "velocity_stats": {
            "mean": 21.344827586206897,
            "std": 17.515069102345233,
            "min": 11,
            "max": 51
          },
          "duration_stats": {
            "mean": 0.10138929040948216,
            "std": 0.00029326520155384536,
            "min": 0.10089275624999772,
            "max": 0.1015625
          }
        },
        "59": {
          "count": 6364,
          "percentage": 0.3041836726402464,
          "gm_name": "Ride Cymbal 2",
          "velocity_stats": {
            "mean": 61.317567567567565,
            "std": 18.581826766364074,
            "min": 17,
            "max": 122
          },
          "duration_stats": {
            "mean": 0.10085496527308482,
            "std": 0.0005102673405434348,
            "min": 0.09932391875000235,
            "max": 0.1028645833333357
          }
        }
      }
    },
    "melodic_analysis": {},
    "mapping_analysis": {
      "current_egmd_notes": "{36, 38, 41, 42, 43, 44, 45, 46, 47, 48, 49, 50, 51, 53, 55, 57, 59}",
      "found_drum_notes": "{22, 26, 36, 37, 38, 39, 40, 42, 43, 44, 45, 46, 47, 48, 49, 50, 51, 52, 53, 54, 55, 56, 57, 58, 59}",
      "additional_notes_found": "{58, 37, 39, 40, 52, 22, 54, 56, 26}",
      "missing_egmd_notes": "{41}",
      "coverage_percentage": 94.11764705882352
    },
    "file_details": [
      {
        "file_path": "/mnt/hdd/drum-tranxn/e-gmd-v1.0.0/drummer1/eval_session/10_soul-groove10_102_beat_4-4_1.midi",
        "total_notes": 247,
        "drum_notes": [
          {
            "pitch": 22,
            "start": 0.0,
            "end": 0.08700976041666668,
            "velocity": 99,
            "duration": 0.08700976041666668
          },
          {
            "pitch": 36,
            "start": 0.0,
            "end": 0.08700976041666668,
            "velocity": 127,
            "duration": 0.08700976041666668
          },
          {
            "pitch": 42,
            "start": 0.28799005208333334,
            "end": 0.3884801979166667,
            "velocity": 21,
            "duration": 0.10049014583333338
          },
          {
            "pitch": 40,
            "start": 0.5649506979166667,
            "end": 0.66544084375,
            "velocity": 127,
            "duration": 0.10049014583333327
          },
          {
            "pitch": 42,
            "start": 0.5735291250000001,
            "end": 0.6752447604166667,
            "velocity": 75,
            "duration": 0.10171563541666662
          },
          {
            "pitch": 38,
            "start": 0.7034310208333334,
            "end": 0.8039211666666667,
            "velocity": 8,
            "duration": 0.10049014583333327
          },
          {
            "pitch": 42,
            "start": 0.8909309270833334,
            "end": 0.9926465625,
            "velocity": 75,
            "duration": 0.10171563541666662
          },
          {
            "pitch": 42,
            "start": 1.1887248958333334,
            "end": 1.29044053125,
            "velocity": 77,
            "duration": 0.10171563541666662
          },
          {
            "pitch": 36,
            "start": 1.4583326041666669,
            "end": 1.5600482395833335,
            "velocity": 127,
            "duration": 0.10171563541666662
          },
          {
            "pitch": 42,
            "start": 1.4779404375,
            "end": 1.5784305833333334,
            "velocity": 63,
            "duration": 0.10049014583333338
          },
          {
            "pitch": 40,
            "start": 1.7647050000000002,
            "end": 1.8651951458333336,
            "velocity": 127,
            "duration": 0.10049014583333338
          },
          {
            "pitch": 42,
            "start": 1.7659304895833334,
            "end": 1.867646125,
            "velocity": 85,
            "duration": 0.10171563541666662
          },
          {
            "pitch": 38,
            "start": 1.8492637812500001,
            "end": 1.9056363020833336,
            "velocity": 28,
            "duration": 0.05637252083333344
          },
          {
            "pitch": 38,
            "start": 1.9056363020833336,
            "end": 1.9497539270833335,
            "velocity": 10,
            "duration": 0.04411762499999994
          },
          {
            "pitch": 42,
            "start": 2.05514603125,
            "end": 2.1556361770833337,
            "velocity": 83,
            "duration": 0.1004901458333336
          },
          {
            "pitch": 36,
            "start": 2.237743979166667,
            "end": 2.3394596145833333,
            "velocity": 44,
            "duration": 0.1017156354166664
          },
          {
            "pitch": 36,
            "start": 2.3504890208333333,
            "end": 2.450979166666667,
            "velocity": 84,
            "duration": 0.1004901458333336
          },
          {
            "pitch": 42,
            "start": 2.3578419583333337,
            "end": 2.45955759375,
            "velocity": 82,
            "duration": 0.1017156354166664
          },
          {
            "pitch": 42,
            "start": 2.642155541666667,
            "end": 2.7438711770833337,
            "velocity": 88,
            "duration": 0.10171563541666684
          },
          {
            "pitch": 40,
            "start": 2.9227926562500004,
            "end": 3.0232828020833336,
            "velocity": 127,
            "duration": 0.10049014583333316
          },
          {
            "pitch": 42,
            "start": 2.9338220625,
            "end": 3.035537697916667,
            "velocity": 103,
            "duration": 0.10171563541666684
          },
          {
            "pitch": 42,
            "start": 3.2279395625,
            "end": 3.329655197916667,
            "velocity": 60,
            "duration": 0.10171563541666684
          },
          {
            "pitch": 42,
            "start": 3.50367471875,
            "end": 3.6041648645833337,
            "velocity": 48,
            "duration": 0.1004901458333336
          },
          {
            "pitch": 36,
            "start": 3.7769588958333338,
            "end": 3.877449041666667,
            "velocity": 127,
            "duration": 0.10049014583333316
          },
          {
            "pitch": 42,
            "start": 3.7818608541666667,
            "end": 3.8835764895833336,
            "velocity": 52,
            "duration": 0.10171563541666684
          },
          {
            "pitch": 40,
            "start": 4.080880312500001,
            "end": 4.181370458333333,
            "velocity": 127,
            "duration": 0.10049014583333271
          },
          {
            "pitch": 22,
            "start": 4.08823325,
            "end": 4.188723395833334,
            "velocity": 79,
            "duration": 0.1004901458333336
          },
          {
            "pitch": 42,
            "start": 4.395831135416667,
            "end": 4.49632128125,
            "velocity": 70,
            "duration": 0.1004901458333336
          },
          {
            "pitch": 36,
            "start": 4.564948697916667,
            "end": 4.6654388437500005,
            "velocity": 43,
            "duration": 0.1004901458333336
          },
          {
            "pitch": 42,
            "start": 4.68014471875,
            "end": 4.781860354166667,
            "velocity": 70,
            "duration": 0.1017156354166664
          },
          {
            "pitch": 36,
            "start": 4.6838211875,
            "end": 4.785536822916667,
            "velocity": 82,
            "duration": 0.1017156354166664
          },
          {
            "pitch": 42,
            "start": 4.973036729166667,
            "end": 5.0747523645833335,
            "velocity": 87,
            "duration": 0.1017156354166664
          },
          {
            "pitch": 40,
            "start": 5.28308559375,
            "end": 5.383575739583334,
            "velocity": 127,
            "duration": 0.1004901458333336
          },
          {
            "pitch": 42,
            "start": 5.2867620625,
            "end": 5.388477697916667,
            "velocity": 83,
            "duration": 0.1017156354166664
          },
          {
            "pitch": 38,
            "start": 5.414212979166667,
            "end": 5.450977666666667,
            "velocity": 10,
            "duration": 0.03676468749999984
          },
          {
            "pitch": 38,
            "start": 5.450977666666667,
            "end": 5.5147031250000005,
            "velocity": 7,
            "duration": 0.06372545833333376
          },
          {
            "pitch": 42,
            "start": 5.593134458333334,
            "end": 5.693624604166667,
            "velocity": 57,
            "duration": 0.10049014583333271
          },
          {
            "pitch": 42,
            "start": 5.863967656250001,
            "end": 5.964457802083333,
            "velocity": 61,
            "duration": 0.10049014583333271
          },
          {
            "pitch": 38,
            "start": 6.012251895833334,
            "end": 6.112742041666667,
            "velocity": 23,
            "duration": 0.1004901458333336
          },
          {
            "pitch": 42,
            "start": 6.140928302083334,
            "end": 6.2426439375000005,
            "velocity": 59,
            "duration": 0.1017156354166664
          },
          {
            "pitch": 36,
            "start": 6.149506729166667,
            "end": 6.249996875000001,
            "velocity": 127,
            "duration": 0.1004901458333336
          },
          {
            "pitch": 40,
            "start": 6.4448497187500005,
            "end": 6.545339864583334,
            "velocity": 127,
            "duration": 0.1004901458333336
          },
          {
            "pitch": 22,
            "start": 6.449751677083333,
            "end": 6.551467312500001,
            "velocity": 90,
            "duration": 0.10171563541666728
          },
          {
            "pitch": 38,
            "start": 6.573526125000001,
            "end": 6.675241760416667,
            "velocity": 14,
            "duration": 0.1017156354166664
          },
          {
            "pitch": 22,
            "start": 6.7426436875,
            "end": 6.8443593229166675,
            "velocity": 77,
            "duration": 0.10171563541666728
          },
          {
            "pitch": 36,
            "start": 6.939947510416667,
            "end": 7.040437656250001,
            "velocity": 46,
            "duration": 0.1004901458333336
          },
          {
            "pitch": 42,
            "start": 7.045339614583334,
            "end": 7.145829760416667,
            "velocity": 70,
            "duration": 0.1004901458333336
          },
          {
            "pitch": 36,
            "start": 7.053918041666667,
            "end": 7.155633677083334,
            "velocity": 55,
            "duration": 0.10171563541666728
          },
          {
            "pitch": 42,
            "start": 7.335780645833334,
            "end": 7.4374962812500005,
            "velocity": 85,
            "duration": 0.1017156354166664
          },
          {
            "pitch": 40,
            "start": 7.624996187500001,
            "end": 7.7254863333333335,
            "velocity": 127,
            "duration": 0.10049014583333271
          },
          {
            "pitch": 42,
            "start": 7.640927552083334,
            "end": 7.741417697916667,
            "velocity": 104,
            "duration": 0.10049014583333271
          },
          {
            "pitch": 42,
            "start": 7.927692114583334,
            "end": 8.02940775,
            "velocity": 76,
            "duration": 0.1017156354166664
          },
          {
            "pitch": 42,
            "start": 8.198525312500001,
            "end": 8.300240947916667,
            "velocity": 57,
            "duration": 0.1017156354166655
          },
          {
            "pitch": 38,
            "start": 8.373770322916668,
            "end": 8.475485958333334,
            "velocity": 27,
            "duration": 0.1017156354166655
          },
          {
            "pitch": 36,
            "start": 8.485289875000001,
            "end": 8.585780020833335,
            "velocity": 127,
            "duration": 0.1004901458333336
          },
          {
            "pitch": 42,
            "start": 8.490191833333334,
            "end": 8.591907468750001,
            "velocity": 76,
            "duration": 0.10171563541666728
          },
          {
            "pitch": 40,
            "start": 8.783083843750001,
            "end": 8.883573989583335,
            "velocity": 127,
            "duration": 0.1004901458333336
          },
          {
            "pitch": 22,
            "start": 8.792887760416667,
            "end": 8.894603395833334,
            "velocity": 114,
            "duration": 0.10171563541666728
          },
          {
            "pitch": 38,
            "start": 8.861515177083334,
            "end": 8.962005322916667,
            "velocity": 33,
            "duration": 0.1004901458333336
          },
          {
            "pitch": 42,
            "start": 9.09190721875,
            "end": 9.193622854166668,
            "velocity": 80,
            "duration": 0.10171563541666728
          },
          {
            "pitch": 36,
            "start": 9.243867927083334,
            "end": 9.3455835625,
            "velocity": 41,
            "duration": 0.1017156354166655
          },
          {
            "pitch": 36,
            "start": 9.372544333333334,
            "end": 9.474259968750001,
            "velocity": 78,
            "duration": 0.10171563541666728
          },
          {
            "pitch": 42,
            "start": 9.401956083333333,
            "end": 9.502446229166667,
            "velocity": 53,
            "duration": 0.1004901458333336
          },
          {
            "pitch": 42,
            "start": 9.686269666666668,
            "end": 9.787985302083333,
            "velocity": 91,
            "duration": 0.1017156354166655
          },
          {
            "pitch": 40,
            "start": 9.977936187500001,
            "end": 10.078426333333335,
            "velocity": 127,
            "duration": 0.1004901458333336
          },
          {
            "pitch": 22,
            "start": 9.999995,
            "end": 10.100485145833334,
            "velocity": 103,
            "duration": 0.1004901458333336
          },
          {
            "pitch": 42,
            "start": 10.289210541666668,
            "end": 10.389700687500001,
            "velocity": 72,
            "duration": 0.1004901458333336
          },
          {
            "pitch": 38,
            "start": 10.458328104166668,
            "end": 10.558818250000002,
            "velocity": 28,
            "duration": 0.1004901458333336
          },
          {
            "pitch": 42,
            "start": 10.567396677083334,
            "end": 10.667886822916667,
            "velocity": 61,
            "duration": 0.1004901458333336
          },
          {
            "pitch": 38,
            "start": 10.726710322916668,
            "end": 10.82720046875,
            "velocity": 31,
            "duration": 0.10049014583333182
          },
          {
            "pitch": 36,
            "start": 10.8455828125,
            "end": 10.946072958333334,
            "velocity": 113,
            "duration": 0.1004901458333336
          },
          {
            "pitch": 42,
            "start": 10.850484770833335,
            "end": 10.95220040625,
            "velocity": 66,
            "duration": 0.1017156354166655
          },
          {
            "pitch": 40,
            "start": 11.14705325,
            "end": 11.247543395833334,
            "velocity": 127,
            "duration": 0.1004901458333336
          },
          {
            "pitch": 22,
            "start": 11.151955208333334,
            "end": 11.253670843750001,
            "velocity": 90,
            "duration": 0.10171563541666728
          },
          {
            "pitch": 22,
            "start": 11.442396239583335,
            "end": 11.544111875,
            "velocity": 82,
            "duration": 0.1017156354166655
          },
          {
            "pitch": 36,
            "start": 11.621317718750001,
            "end": 11.723033354166667,
            "velocity": 44,
            "duration": 0.1017156354166655
          },
          {
            "pitch": 36,
            "start": 11.726709822916668,
            "end": 11.828425458333335,
            "velocity": 55,
            "duration": 0.10171563541666728
          },
          {
            "pitch": 42,
            "start": 11.734062760416668,
            "end": 11.835778395833334,
            "velocity": 81,
            "duration": 0.1017156354166655
          },
          {
            "pitch": 42,
            "start": 12.037984177083334,
            "end": 12.139699812500002,
            "velocity": 81,
            "duration": 0.10171563541666728
          },
          {
            "pitch": 40,
            "start": 12.332101677083335,
            "end": 12.432591822916667,
            "velocity": 127,
            "duration": 0.10049014583333182
          },
          {
            "pitch": 22,
            "start": 12.346807552083334,
            "end": 12.447297697916667,
            "velocity": 108,
            "duration": 0.1004901458333336
          },
          {
            "pitch": 42,
            "start": 12.638474072916667,
            "end": 12.740189708333334,
            "velocity": 41,
            "duration": 0.10171563541666728
          },
          {
            "pitch": 42,
            "start": 12.910532760416668,
            "end": 13.012248395833334,
            "velocity": 47,
            "duration": 0.1017156354166655
          },
          {
            "pitch": 38,
            "start": 13.058817000000001,
            "end": 13.159307145833335,
            "velocity": 13,
            "duration": 0.1004901458333336
          },
          {
            "pitch": 42,
            "start": 13.177689489583335,
            "end": 13.280630614583334,
            "velocity": 59,
            "duration": 0.10294112499999919
          },
          {
            "pitch": 36,
            "start": 13.188718895833334,
            "end": 13.290434531250002,
            "velocity": 56,
            "duration": 0.10171563541666728
          },
          {
            "pitch": 40,
            "start": 13.493865802083334,
            "end": 13.594355947916668,
            "velocity": 127,
            "duration": 0.1004901458333336
          },
          {
            "pitch": 22,
            "start": 13.496316781250002,
            "end": 13.598032416666667,
            "velocity": 127,
            "duration": 0.1017156354166655
          },
          {
            "pitch": 22,
            "start": 13.795336239583335,
            "end": 13.897051875,
            "velocity": 109,
            "duration": 0.1017156354166655
          },
          {
            "pitch": 36,
            "start": 13.95219890625,
            "end": 14.052689052083334,
            "velocity": 46,
            "duration": 0.1004901458333336
          },
          {
            "pitch": 38,
            "start": 13.974257718750001,
            "end": 14.074747864583335,
            "velocity": 10,
            "duration": 0.1004901458333336
          },
          {
            "pitch": 36,
            "start": 14.090679229166668,
            "end": 14.191169375000001,
            "velocity": 107,
            "duration": 0.1004901458333336
          },
          {
            "pitch": 42,
            "start": 14.099257656250002,
            "end": 14.200973291666667,
            "velocity": 64,
            "duration": 0.1017156354166655
          },
          {
            "pitch": 42,
            "start": 14.377443791666668,
            "end": 14.477933937500001,
            "velocity": 76,
            "duration": 0.1004901458333336
          },
          {
            "pitch": 40,
            "start": 14.672786781250002,
            "end": 14.774502416666667,
            "velocity": 127,
            "duration": 0.1017156354166655
          },
          {
            "pitch": 42,
            "start": 14.683816187500002,
            "end": 14.785531822916667,
            "velocity": 98,
            "duration": 0.1017156354166655
          },
          {
            "pitch": 42,
            "start": 14.993865052083335,
            "end": 15.095580687500002,
            "velocity": 71,
            "duration": 0.10171563541666728
          },
          {
            "pitch": 38,
            "start": 15.159306145833334,
            "end": 15.259796291666667,
            "velocity": 7,
            "duration": 0.1004901458333336
          },
          {
            "pitch": 42,
            "start": 15.279404125000001,
            "end": 15.381119760416668,
            "velocity": 46,
            "duration": 0.10171563541666728
          },
          {
            "pitch": 38,
            "start": 15.453423645833334,
            "end": 15.555139281250002,
            "velocity": 8,
            "duration": 0.10171563541666728
          },
          {
            "pitch": 36,
            "start": 15.567394177083335,
            "end": 15.667884322916668,
            "velocity": 63,
            "duration": 0.1004901458333336
          },
          {
            "pitch": 42,
            "start": 15.567394177083335,
            "end": 15.667884322916668,
            "velocity": 62,
            "duration": 0.1004901458333336
          },
          {
            "pitch": 40,
            "start": 15.863962656250001,
            "end": 15.964452802083335,
            "velocity": 127,
            "duration": 0.1004901458333336
          },
          {
            "pitch": 22,
            "start": 15.868864614583334,
            "end": 15.970580250000001,
            "velocity": 85,
            "duration": 0.10171563541666728
          },
          {
            "pitch": 42,
            "start": 16.174011520833336,
            "end": 16.27572715625,
            "velocity": 75,
            "duration": 0.10171563541666373
          },
          {
            "pitch": 36,
            "start": 16.32229576041667,
            "end": 16.424011395833336,
            "velocity": 41,
            "duration": 0.10171563541666728
          },
          {
            "pitch": 36,
            "start": 16.43626629166667,
            "end": 16.536756437500003,
            "velocity": 58,
            "duration": 0.1004901458333336
          },
          {
            "pitch": 42,
            "start": 16.46200157291667,
            "end": 16.56249171875,
            "velocity": 64,
            "duration": 0.10049014583333005
          },
          {
            "pitch": 42,
            "start": 16.747540645833336,
            "end": 16.84803079166667,
            "velocity": 84,
            "duration": 0.1004901458333336
          },
          {
            "pitch": 40,
            "start": 17.05758951041667,
            "end": 17.159305145833336,
            "velocity": 127,
            "duration": 0.10171563541666728
          },
          {
            "pitch": 42,
            "start": 17.064942447916668,
            "end": 17.16543259375,
            "velocity": 86,
            "duration": 0.1004901458333336
          },
          {
            "pitch": 42,
            "start": 17.356608968750002,
            "end": 17.458324604166666,
            "velocity": 76,
            "duration": 0.10171563541666373
          },
          {
            "pitch": 42,
            "start": 17.64705,
            "end": 17.747540145833334,
            "velocity": 55,
            "duration": 0.1004901458333336
          },
          {
            "pitch": 38,
            "start": 17.794108750000003,
            "end": 17.894598895833333,
            "velocity": 25,
            "duration": 0.10049014583333005
          },
          {
            "pitch": 36,
            "start": 17.926461625,
            "end": 18.02817726041667,
            "velocity": 74,
            "duration": 0.10171563541666728
          },
          {
            "pitch": 42,
            "start": 17.926461625,
            "end": 18.02817726041667,
            "velocity": 60,
            "duration": 0.10171563541666728
          },
          {
            "pitch": 22,
            "start": 18.218128145833333,
            "end": 18.318618291666667,
            "velocity": 74,
            "duration": 0.1004901458333336
          },
          {
            "pitch": 40,
            "start": 18.218128145833333,
            "end": 18.318618291666667,
            "velocity": 127,
            "duration": 0.1004901458333336
          },
          {
            "pitch": 22,
            "start": 18.515922114583336,
            "end": 18.61763775,
            "velocity": 91,
            "duration": 0.10171563541666373
          },
          {
            "pitch": 36,
            "start": 18.661755375000002,
            "end": 18.76347101041667,
            "velocity": 41,
            "duration": 0.10171563541666728
          },
          {
            "pitch": 36,
            "start": 18.803912166666667,
            "end": 18.9044023125,
            "velocity": 88,
            "duration": 0.1004901458333336
          },
          {
            "pitch": 42,
            "start": 18.81126510416667,
            "end": 18.912980739583336,
            "velocity": 68,
            "duration": 0.10171563541666728
          },
          {
            "pitch": 42,
            "start": 19.111510052083336,
            "end": 19.213225687500003,
            "velocity": 103,
            "duration": 0.10171563541666728
          },
          {
            "pitch": 40,
            "start": 19.39950010416667,
            "end": 19.49999025,
            "velocity": 112,
            "duration": 0.10049014583333005
          },
          {
            "pitch": 42,
            "start": 19.408078531250002,
            "end": 19.508568677083336,
            "velocity": 117,
            "duration": 0.1004901458333336
          },
          {
            "pitch": 42,
            "start": 19.709548968750003,
            "end": 19.811264604166666,
            "velocity": 76,
            "duration": 0.10171563541666373
          },
          {
            "pitch": 38,
            "start": 19.8749900625,
            "end": 19.975480208333334,
            "velocity": 8,
            "duration": 0.1004901458333336
          },
          {
            "pitch": 42,
            "start": 19.996313531250003,
            "end": 20.098029166666667,
            "velocity": 54,
            "duration": 0.10171563541666373
          },
          {
            "pitch": 38,
            "start": 20.162980114583334,
            "end": 20.263470260416668,
            "velocity": 31,
            "duration": 0.1004901458333336
          },
          {
            "pitch": 36,
            "start": 20.2867545625,
            "end": 20.38601921875,
            "velocity": 106,
            "duration": 0.09926465624999992
          },
          {
            "pitch": 42,
            "start": 20.284303583333333,
            "end": 20.38601921875,
            "velocity": 77,
            "duration": 0.10171563541666728
          },
          {
            "pitch": 40,
            "start": 20.578421083333335,
            "end": 20.67891122916667,
            "velocity": 127,
            "duration": 0.1004901458333336
          },
          {
            "pitch": 42,
            "start": 20.582097552083336,
            "end": 20.6838131875,
            "velocity": 79,
            "duration": 0.10171563541666373
          },
          {
            "pitch": 42,
            "start": 20.876215052083335,
            "end": 20.977930687500002,
            "velocity": 104,
            "duration": 0.10171563541666728
          },
          {
            "pitch": 36,
            "start": 21.029401250000003,
            "end": 21.129891395833337,
            "velocity": 45,
            "duration": 0.1004901458333336
          },
          {
            "pitch": 36,
            "start": 21.170332552083334,
            "end": 21.2720481875,
            "velocity": 115,
            "duration": 0.10171563541666728
          },
          {
            "pitch": 42,
            "start": 21.170332552083334,
            "end": 21.2720481875,
            "velocity": 76,
            "duration": 0.10171563541666728
          },
          {
            "pitch": 22,
            "start": 21.464450052083336,
            "end": 21.5661656875,
            "velocity": 89,
            "duration": 0.10171563541666373
          },
          {
            "pitch": 40,
            "start": 21.770822447916668,
            "end": 21.87131259375,
            "velocity": 127,
            "duration": 0.1004901458333336
          },
          {
            "pitch": 42,
            "start": 21.779400875,
            "end": 21.881116510416668,
            "velocity": 70,
            "duration": 0.10171563541666728
          },
          {
            "pitch": 42,
            "start": 22.078420333333334,
            "end": 22.18013596875,
            "velocity": 77,
            "duration": 0.10171563541666728
          },
          {
            "pitch": 38,
            "start": 22.247537895833336,
            "end": 22.34802804166667,
            "velocity": 11,
            "duration": 0.1004901458333336
          },
          {
            "pitch": 42,
            "start": 22.354155489583334,
            "end": 22.454645635416668,
            "velocity": 64,
            "duration": 0.1004901458333336
          },
          {
            "pitch": 38,
            "start": 22.511018156250003,
            "end": 22.612733791666667,
            "velocity": 26,
            "duration": 0.10171563541666373
          },
          {
            "pitch": 36,
            "start": 22.63111613541667,
            "end": 22.731606281250002,
            "velocity": 92,
            "duration": 0.1004901458333336
          },
          {
            "pitch": 42,
            "start": 22.638469072916667,
            "end": 22.740184708333334,
            "velocity": 66,
            "duration": 0.10171563541666728
          },
          {
            "pitch": 40,
            "start": 22.92155716666667,
            "end": 23.022047312500003,
            "velocity": 127,
            "duration": 0.1004901458333336
          },
          {
            "pitch": 42,
            "start": 22.933812062500003,
            "end": 23.034302208333337,
            "velocity": 99,
            "duration": 0.1004901458333336
          },
          {
            "pitch": 42,
            "start": 23.210772708333334,
            "end": 23.31248834375,
            "velocity": 127,
            "duration": 0.10171563541666728
          },
          {
            "pitch": 36,
            "start": 23.390919677083335,
            "end": 23.49140982291667,
            "velocity": 46,
            "duration": 0.1004901458333336
          },
          {
            "pitch": 38,
            "start": 23.4338118125,
            "end": 23.534301958333334,
            "velocity": 21,
            "duration": 0.1004901458333336
          },
          {
            "pitch": 36,
            "start": 23.503664718750002,
            "end": 23.604154864583336,
            "velocity": 77,
            "duration": 0.1004901458333336
          },
          {
            "pitch": 42,
            "start": 23.508566677083333,
            "end": 23.6102823125,
            "velocity": 82,
            "duration": 0.10171563541666728
          },
          {
            "pitch": 42,
            "start": 23.796556729166667,
            "end": 23.898272364583335,
            "velocity": 92,
            "duration": 0.10171563541666728
          },
          {
            "pitch": 40,
            "start": 24.07964482291667,
            "end": 24.181360458333334,
            "velocity": 127,
            "duration": 0.10171563541666373
          },
          {
            "pitch": 42,
            "start": 24.093125208333333,
            "end": 24.193615354166667,
            "velocity": 90,
            "duration": 0.1004901458333336
          },
          {
            "pitch": 42,
            "start": 24.394595645833334,
            "end": 24.49631128125,
            "velocity": 97,
            "duration": 0.10171563541666728
          },
          {
            "pitch": 42,
            "start": 24.67523276041667,
            "end": 24.776948395833337,
            "velocity": 64,
            "duration": 0.10171563541666728
          },
          {
            "pitch": 38,
            "start": 24.846801302083335,
            "end": 24.94729144791667,
            "velocity": 12,
            "duration": 0.1004901458333336
          },
          {
            "pitch": 42,
            "start": 24.95832085416667,
            "end": 25.060036489583336,
            "velocity": 64,
            "duration": 0.10171563541666728
          },
          {
            "pitch": 36,
            "start": 24.974252218750003,
            "end": 25.07596785416667,
            "velocity": 107,
            "duration": 0.10171563541666728
          },
          {
            "pitch": 40,
            "start": 25.272046187500003,
            "end": 25.372536333333336,
            "velocity": 127,
            "duration": 0.1004901458333336
          },
          {
            "pitch": 42,
            "start": 25.273271677083336,
            "end": 25.374987312500004,
            "velocity": 103,
            "duration": 0.10171563541666728
          },
          {
            "pitch": 38,
            "start": 25.349252031250003,
            "end": 25.401948083333334,
            "velocity": 37,
            "duration": 0.05269605208333061
          },
          {
            "pitch": 38,
            "start": 25.401948083333334,
            "end": 25.449742177083333,
            "velocity": 16,
            "duration": 0.04779409374999943
          },
          {
            "pitch": 42,
            "start": 25.575967604166667,
            "end": 25.677683239583335,
            "velocity": 117,
            "duration": 0.10171563541666728
          },
          {
            "pitch": 36,
            "start": 25.76101653125,
            "end": 25.861506677083334,
            "velocity": 49,
            "duration": 0.1004901458333336
          },
          {
            "pitch": 36,
            "start": 25.867634125000002,
            "end": 25.96934976041667,
            "velocity": 65,
            "duration": 0.10171563541666728
          },
          {
            "pitch": 42,
            "start": 25.872536083333337,
            "end": 25.97425171875,
            "velocity": 75,
            "duration": 0.10171563541666373
          },
          {
            "pitch": 42,
            "start": 26.170330052083337,
            "end": 26.2720456875,
            "velocity": 125,
            "duration": 0.10171563541666373
          },
          {
            "pitch": 40,
            "start": 26.473025979166668,
            "end": 26.573516125,
            "velocity": 113,
            "duration": 0.1004901458333336
          },
          {
            "pitch": 42,
            "start": 26.48037891666667,
            "end": 26.582094552083337,
            "velocity": 98,
            "duration": 0.10171563541666728
          },
          {
            "pitch": 42,
            "start": 26.781849354166667,
            "end": 26.8823395,
            "velocity": 77,
            "duration": 0.1004901458333336
          },
          {
            "pitch": 37,
            "start": 26.942388489583337,
            "end": 27.044104125,
            "velocity": 20,
            "duration": 0.10171563541666373
          },
          {
            "pitch": 42,
            "start": 27.062486468750002,
            "end": 27.16420210416667,
            "velocity": 61,
            "duration": 0.10171563541666728
          },
          {
            "pitch": 38,
            "start": 27.23160403125,
            "end": 27.332094177083334,
            "velocity": 19,
            "duration": 0.1004901458333336
          },
          {
            "pitch": 26,
            "start": 27.350476520833336,
            "end": 27.452192156250003,
            "velocity": 85,
            "duration": 0.10171563541666728
          },
          {
            "pitch": 36,
            "start": 27.354152989583337,
            "end": 27.455868625,
            "velocity": 127,
            "duration": 0.10171563541666373
          },
          {
            "pitch": 44,
            "start": 27.610280312500002,
            "end": 27.710770458333336,
            "velocity": 57,
            "duration": 0.1004901458333336
          },
          {
            "pitch": 40,
            "start": 27.64949597916667,
            "end": 27.751211614583337,
            "velocity": 127,
            "duration": 0.10171563541666728
          },
          {
            "pitch": 22,
            "start": 27.659299895833335,
            "end": 27.75979004166667,
            "velocity": 94,
            "duration": 0.1004901458333336
          },
          {
            "pitch": 42,
            "start": 27.955868375,
            "end": 28.05758401041667,
            "velocity": 66,
            "duration": 0.10171563541666728
          },
          {
            "pitch": 36,
            "start": 28.124985937500004,
            "end": 28.225476083333337,
            "velocity": 43,
            "duration": 0.1004901458333336
          },
          {
            "pitch": 36,
            "start": 28.23895646875,
            "end": 28.340672104166668,
            "velocity": 73,
            "duration": 0.10171563541666728
          },
          {
            "pitch": 42,
            "start": 28.241407447916668,
            "end": 28.343123083333335,
            "velocity": 77,
            "duration": 0.10171563541666728
          },
          {
            "pitch": 42,
            "start": 28.54042690625,
            "end": 28.64214254166667,
            "velocity": 86,
            "duration": 0.10171563541666728
          },
          {
            "pitch": 40,
            "start": 28.81861304166667,
            "end": 28.920328677083337,
            "velocity": 127,
            "duration": 0.10171563541666728
          },
          {
            "pitch": 42,
            "start": 28.834544406250004,
            "end": 28.936260041666667,
            "velocity": 82,
            "duration": 0.10171563541666373
          },
          {
            "pitch": 42,
            "start": 29.1249854375,
            "end": 29.22670107291667,
            "velocity": 64,
            "duration": 0.10171563541666728
          },
          {
            "pitch": 38,
            "start": 29.287975552083335,
            "end": 29.38846569791667,
            "velocity": 7,
            "duration": 0.1004901458333336
          },
          {
            "pitch": 42,
            "start": 29.40317157291667,
            "end": 29.503661718750003,
            "velocity": 54,
            "duration": 0.1004901458333336
          },
          {
            "pitch": 38,
            "start": 29.551455812500002,
            "end": 29.651945958333336,
            "velocity": 15,
            "duration": 0.1004901458333336
          },
          {
            "pitch": 36,
            "start": 29.670328302083334,
            "end": 29.770818447916668,
            "velocity": 71,
            "duration": 0.1004901458333336
          },
          {
            "pitch": 42,
            "start": 29.677681239583336,
            "end": 29.77817138541667,
            "velocity": 55,
            "duration": 0.1004901458333336
          },
          {
            "pitch": 40,
            "start": 29.975475208333336,
            "end": 30.077190843750003,
            "velocity": 127,
            "duration": 0.10171563541666728
          },
          {
            "pitch": 22,
            "start": 29.979151677083337,
            "end": 30.0808673125,
            "velocity": 87,
            "duration": 0.10171563541666373
          },
          {
            "pitch": 38,
            "start": 30.111504552083336,
            "end": 30.213220187500003,
            "velocity": 10,
            "duration": 0.10171563541666728
          },
          {
            "pitch": 42,
            "start": 30.25978879166667,
            "end": 30.361504427083336,
            "velocity": 71,
            "duration": 0.10171563541666728
          },
          {
            "pitch": 36,
            "start": 30.43625929166667,
            "end": 30.536749437500003,
            "velocity": 45,
            "duration": 0.1004901458333336
          },
          {
            "pitch": 36,
            "start": 30.56125922916667,
            "end": 30.661749375000003,
            "velocity": 73,
            "duration": 0.1004901458333336
          },
          {
            "pitch": 42,
            "start": 30.577190593750004,
            "end": 30.677680739583337,
            "velocity": 61,
            "duration": 0.1004901458333336
          },
          {
            "pitch": 42,
            "start": 30.87008260416667,
            "end": 30.971798239583336,
            "velocity": 92,
            "duration": 0.10171563541666728
          },
          {
            "pitch": 40,
            "start": 31.166651083333335,
            "end": 31.26714122916667,
            "velocity": 127,
            "duration": 0.1004901458333336
          },
          {
            "pitch": 42,
            "start": 31.187484406250004,
            "end": 31.289200041666668,
            "velocity": 77,
            "duration": 0.10171563541666373
          },
          {
            "pitch": 42,
            "start": 31.48037641666667,
            "end": 31.582092052083336,
            "velocity": 90,
            "duration": 0.10171563541666728
          },
          {
            "pitch": 38,
            "start": 31.629886145833336,
            "end": 31.73037629166667,
            "velocity": 10,
            "duration": 0.1004901458333336
          },
          {
            "pitch": 42,
            "start": 31.773268427083334,
            "end": 31.873758572916667,
            "velocity": 57,
            "duration": 0.1004901458333336
          },
          {
            "pitch": 38,
            "start": 31.916650708333336,
            "end": 32.01714085416667,
            "velocity": 15,
            "duration": 0.1004901458333336
          },
          {
            "pitch": 42,
            "start": 32.04042515625,
            "end": 32.14214079166667,
            "velocity": 65,
            "duration": 0.10171563541666728
          },
          {
            "pitch": 36,
            "start": 32.04287613541667,
            "end": 32.14336628125,
            "velocity": 115,
            "duration": 0.1004901458333336
          },
          {
            "pitch": 40,
            "start": 32.338219125,
            "end": 32.438709270833336,
            "velocity": 127,
            "duration": 0.1004901458333336
          },
          {
            "pitch": 22,
            "start": 32.34189559375,
            "end": 32.44361122916667,
            "velocity": 100,
            "duration": 0.10171563541666728
          },
          {
            "pitch": 42,
            "start": 32.632336625,
            "end": 32.73405226041667,
            "velocity": 82,
            "duration": 0.10171563541666728
          },
          {
            "pitch": 36,
            "start": 32.82106202083334,
            "end": 32.92155216666667,
            "velocity": 43,
            "duration": 0.1004901458333336
          },
          {
            "pitch": 42,
            "start": 32.93258157291667,
            "end": 33.034297208333335,
            "velocity": 82,
            "duration": 0.10171563541666728
          },
          {
            "pitch": 36,
            "start": 32.93748353125,
            "end": 33.037973677083336,
            "velocity": 61,
            "duration": 0.1004901458333336
          },
          {
            "pitch": 42,
            "start": 33.23037554166667,
            "end": 33.332091177083335,
            "velocity": 86,
            "duration": 0.10171563541666728
          },
          {
            "pitch": 40,
            "start": 33.52326755208333,
            "end": 33.623757697916666,
            "velocity": 127,
            "duration": 0.1004901458333336
          },
          {
            "pitch": 42,
            "start": 33.53307146875,
            "end": 33.63478710416667,
            "velocity": 88,
            "duration": 0.10171563541666728
          },
          {
            "pitch": 42,
            "start": 33.828414458333334,
            "end": 33.93013009375,
            "velocity": 80,
            "duration": 0.10171563541666728
          },
          {
            "pitch": 38,
            "start": 34.00243397916667,
            "end": 34.102924125,
            "velocity": 10,
            "duration": 0.1004901458333336
          },
          {
            "pitch": 42,
            "start": 34.11150255208334,
            "end": 34.213218187500004,
            "velocity": 45,
            "duration": 0.10171563541666728
          },
          {
            "pitch": 38,
            "start": 34.27816913541667,
            "end": 34.37865928125,
            "velocity": 18,
            "duration": 0.1004901458333336
          },
          {
            "pitch": 36,
            "start": 34.37865928125,
            "end": 34.479149427083335,
            "velocity": 93,
            "duration": 0.1004901458333336
          },
          {
            "pitch": 42,
            "start": 34.39459064583333,
            "end": 34.49630628125,
            "velocity": 76,
            "duration": 0.10171563541666728
          },
          {
            "pitch": 40,
            "start": 34.691159125000006,
            "end": 34.79164927083334,
            "velocity": 127,
            "duration": 0.1004901458333336
          },
          {
            "pitch": 22,
            "start": 34.69728657291667,
            "end": 34.79777671875,
            "velocity": 88,
            "duration": 0.1004901458333336
          },
          {
            "pitch": 22,
            "start": 34.997531520833334,
            "end": 35.09924715625,
            "velocity": 78,
            "duration": 0.10171563541666728
          },
          {
            "pitch": 36,
            "start": 35.1691000625,
            "end": 35.269590208333334,
            "velocity": 42,
            "duration": 0.1004901458333336
          },
          {
            "pitch": 36,
            "start": 35.2941,
            "end": 35.394590145833334,
            "velocity": 55,
            "duration": 0.1004901458333336
          },
          {
            "pitch": 42,
            "start": 35.295325489583334,
            "end": 35.394590145833334,
            "velocity": 72,
            "duration": 0.09926465624999992
          },
          {
            "pitch": 42,
            "start": 35.588217500000006,
            "end": 35.689933135416666,
            "velocity": 71,
            "duration": 0.10171563541666018
          },
          {
            "pitch": 40,
            "start": 35.87743304166667,
            "end": 35.977923187500004,
            "velocity": 127,
            "duration": 0.1004901458333336
          },
          {
            "pitch": 22,
            "start": 35.88110951041667,
            "end": 35.98282514583334,
            "velocity": 110,
            "duration": 0.10171563541666728
          },
          {
            "pitch": 22,
            "start": 36.17277603125,
            "end": 36.273266177083336,
            "velocity": 86,
            "duration": 0.1004901458333336
          },
          {
            "pitch": 38,
            "start": 36.330864187500005,
            "end": 36.43135433333334,
            "velocity": 7,
            "duration": 0.1004901458333336
          },
          {
            "pitch": 22,
            "start": 36.4632170625,
            "end": 36.563707208333334,
            "velocity": 56,
            "duration": 0.1004901458333336
          },
          {
            "pitch": 38,
            "start": 36.6102758125,
            "end": 36.71199144791667,
            "velocity": 113,
            "duration": 0.10171563541666728
          },
          {
            "pitch": 44,
            "start": 36.69483459375,
            "end": 36.795324739583336,
            "velocity": 60,
            "duration": 0.1004901458333336
          },
          {
            "pitch": 48,
            "start": 36.887236458333334,
            "end": 36.98772660416667,
            "velocity": 117,
            "duration": 0.1004901458333336
          },
          {
            "pitch": 44,
            "start": 36.98282464583333,
            "end": 37.083314791666666,
            "velocity": 62,
            "duration": 0.1004901458333336
          },
          {
            "pitch": 48,
            "start": 37.02694227083334,
            "end": 37.128657906250005,
            "velocity": 127,
            "duration": 0.10171563541666728
          },
          {
            "pitch": 43,
            "start": 37.1690990625,
            "end": 37.269589208333336,
            "velocity": 96,
            "duration": 0.1004901458333336
          },
          {
            "pitch": 44,
            "start": 37.27816763541667,
            "end": 37.378657781250006,
            "velocity": 77,
            "duration": 0.1004901458333336
          },
          {
            "pitch": 43,
            "start": 37.31125585416667,
            "end": 37.412971489583335,
            "velocity": 89,
            "duration": 0.10171563541666728
          },
          {
            "pitch": 43,
            "start": 37.45831460416667,
            "end": 37.560030239583334,
            "velocity": 112,
            "duration": 0.10171563541666728
          },
          {
            "pitch": 36,
            "start": 37.589441989583335,
            "end": 37.691157625,
            "velocity": 127,
            "duration": 0.10171563541666728
          }
        ],
        "melodic_notes": [],
        "instruments": [
          {
            "program": "0",
            "is_drum": true,
            "name": "MIDI",
            "note_count": 247
          }
        ],
        "duration": 37.691157625,
        "tempo_changes": 0
      },
      {
        "file_path": "/mnt/hdd/drum-tranxn/e-gmd-v1.0.0/drummer1/eval_session/10_soul-groove10_102_beat_4-4_10.midi",
        "total_notes": 247,
        "drum_notes": [
          {
            "pitch": 22,
            "start": 0.0,
            "end": 0.08700976041666668,
            "velocity": 99,
            "duration": 0.08700976041666668
          },
          {
            "pitch": 36,
            "start": 0.0,
            "end": 0.08700976041666668,
            "velocity": 127,
            "duration": 0.08700976041666668
          },
          {
            "pitch": 42,
            "start": 0.28799005208333334,
            "end": 0.3884801979166667,
            "velocity": 21,
            "duration": 0.10049014583333338
          },
          {
            "pitch": 40,
            "start": 0.5649506979166667,
            "end": 0.66544084375,
            "velocity": 127,
            "duration": 0.10049014583333327
          },
          {
            "pitch": 42,
            "start": 0.5735291250000001,
            "end": 0.6752447604166667,
            "velocity": 75,
            "duration": 0.10171563541666662
          },
          {
            "pitch": 38,
            "start": 0.7034310208333334,
            "end": 0.8039211666666667,
            "velocity": 8,
            "duration": 0.10049014583333327
          },
          {
            "pitch": 42,
            "start": 0.8909309270833334,
            "end": 0.9926465625,
            "velocity": 75,
            "duration": 0.10171563541666662
          },
          {
            "pitch": 42,
            "start": 1.1887248958333334,
            "end": 1.29044053125,
            "velocity": 77,
            "duration": 0.10171563541666662
          },
          {
            "pitch": 36,
            "start": 1.4583326041666669,
            "end": 1.5600482395833335,
            "velocity": 127,
            "duration": 0.10171563541666662
          },
          {
            "pitch": 42,
            "start": 1.4779404375,
            "end": 1.5784305833333334,
            "velocity": 63,
            "duration": 0.10049014583333338
          },
          {
            "pitch": 40,
            "start": 1.7647050000000002,
            "end": 1.8651951458333336,
            "velocity": 127,
            "duration": 0.10049014583333338
          },
          {
            "pitch": 42,
            "start": 1.7659304895833334,
            "end": 1.867646125,
            "velocity": 85,
            "duration": 0.10171563541666662
          },
          {
            "pitch": 38,
            "start": 1.8492637812500001,
            "end": 1.9056363020833336,
            "velocity": 28,
            "duration": 0.05637252083333344
          },
          {
            "pitch": 38,
            "start": 1.9056363020833336,
            "end": 1.9497539270833335,
            "velocity": 10,
            "duration": 0.04411762499999994
          },
          {
            "pitch": 42,
            "start": 2.05514603125,
            "end": 2.1556361770833337,
            "velocity": 83,
            "duration": 0.1004901458333336
          },
          {
            "pitch": 36,
            "start": 2.237743979166667,
            "end": 2.3394596145833333,
            "velocity": 44,
            "duration": 0.1017156354166664
          },
          {
            "pitch": 36,
            "start": 2.3504890208333333,
            "end": 2.450979166666667,
            "velocity": 84,
            "duration": 0.1004901458333336
          },
          {
            "pitch": 42,
            "start": 2.3578419583333337,
            "end": 2.45955759375,
            "velocity": 82,
            "duration": 0.1017156354166664
          },
          {
            "pitch": 42,
            "start": 2.642155541666667,
            "end": 2.7438711770833337,
            "velocity": 88,
            "duration": 0.10171563541666684
          },
          {
            "pitch": 40,
            "start": 2.9227926562500004,
            "end": 3.0232828020833336,
            "velocity": 127,
            "duration": 0.10049014583333316
          },
          {
            "pitch": 42,
            "start": 2.9338220625,
            "end": 3.035537697916667,
            "velocity": 103,
            "duration": 0.10171563541666684
          },
          {
            "pitch": 42,
            "start": 3.2279395625,
            "end": 3.329655197916667,
            "velocity": 60,
            "duration": 0.10171563541666684
          },
          {
            "pitch": 42,
            "start": 3.50367471875,
            "end": 3.6041648645833337,
            "velocity": 48,
            "duration": 0.1004901458333336
          },
          {
            "pitch": 36,
            "start": 3.7769588958333338,
            "end": 3.877449041666667,
            "velocity": 127,
            "duration": 0.10049014583333316
          },
          {
            "pitch": 42,
            "start": 3.7818608541666667,
            "end": 3.8835764895833336,
            "velocity": 52,
            "duration": 0.10171563541666684
          },
          {
            "pitch": 40,
            "start": 4.080880312500001,
            "end": 4.181370458333333,
            "velocity": 127,
            "duration": 0.10049014583333271
          },
          {
            "pitch": 22,
            "start": 4.08823325,
            "end": 4.188723395833334,
            "velocity": 79,
            "duration": 0.1004901458333336
          },
          {
            "pitch": 42,
            "start": 4.395831135416667,
            "end": 4.49632128125,
            "velocity": 70,
            "duration": 0.1004901458333336
          },
          {
            "pitch": 36,
            "start": 4.564948697916667,
            "end": 4.6654388437500005,
            "velocity": 43,
            "duration": 0.1004901458333336
          },
          {
            "pitch": 42,
            "start": 4.68014471875,
            "end": 4.781860354166667,
            "velocity": 70,
            "duration": 0.1017156354166664
          },
          {
            "pitch": 36,
            "start": 4.6838211875,
            "end": 4.785536822916667,
            "velocity": 82,
            "duration": 0.1017156354166664
          },
          {
            "pitch": 42,
            "start": 4.973036729166667,
            "end": 5.0747523645833335,
            "velocity": 87,
            "duration": 0.1017156354166664
          },
          {
            "pitch": 40,
            "start": 5.28308559375,
            "end": 5.383575739583334,
            "velocity": 127,
            "duration": 0.1004901458333336
          },
          {
            "pitch": 42,
            "start": 5.2867620625,
            "end": 5.388477697916667,
            "velocity": 83,
            "duration": 0.1017156354166664
          },
          {
            "pitch": 38,
            "start": 5.414212979166667,
            "end": 5.450977666666667,
            "velocity": 10,
            "duration": 0.03676468749999984
          },
          {
            "pitch": 38,
            "start": 5.450977666666667,
            "end": 5.5147031250000005,
            "velocity": 7,
            "duration": 0.06372545833333376
          },
          {
            "pitch": 42,
            "start": 5.593134458333334,
            "end": 5.693624604166667,
            "velocity": 57,
            "duration": 0.10049014583333271
          },
          {
            "pitch": 42,
            "start": 5.863967656250001,
            "end": 5.964457802083333,
            "velocity": 61,
            "duration": 0.10049014583333271
          },
          {
            "pitch": 38,
            "start": 6.012251895833334,
            "end": 6.112742041666667,
            "velocity": 23,
            "duration": 0.1004901458333336
          },
          {
            "pitch": 42,
            "start": 6.140928302083334,
            "end": 6.2426439375000005,
            "velocity": 59,
            "duration": 0.1017156354166664
          },
          {
            "pitch": 36,
            "start": 6.149506729166667,
            "end": 6.249996875000001,
            "velocity": 127,
            "duration": 0.1004901458333336
          },
          {
            "pitch": 40,
            "start": 6.4448497187500005,
            "end": 6.545339864583334,
            "velocity": 127,
            "duration": 0.1004901458333336
          },
          {
            "pitch": 22,
            "start": 6.449751677083333,
            "end": 6.551467312500001,
            "velocity": 90,
            "duration": 0.10171563541666728
          },
          {
            "pitch": 38,
            "start": 6.573526125000001,
            "end": 6.675241760416667,
            "velocity": 14,
            "duration": 0.1017156354166664
          },
          {
            "pitch": 22,
            "start": 6.7426436875,
            "end": 6.8443593229166675,
            "velocity": 77,
            "duration": 0.10171563541666728
          },
          {
            "pitch": 36,
            "start": 6.939947510416667,
            "end": 7.040437656250001,
            "velocity": 46,
            "duration": 0.1004901458333336
          },
          {
            "pitch": 42,
            "start": 7.045339614583334,
            "end": 7.145829760416667,
            "velocity": 70,
            "duration": 0.1004901458333336
          },
          {
            "pitch": 36,
            "start": 7.053918041666667,
            "end": 7.155633677083334,
            "velocity": 55,
            "duration": 0.10171563541666728
          },
          {
            "pitch": 42,
            "start": 7.335780645833334,
            "end": 7.4374962812500005,
            "velocity": 85,
            "duration": 0.1017156354166664
          },
          {
            "pitch": 40,
            "start": 7.624996187500001,
            "end": 7.7254863333333335,
            "velocity": 127,
            "duration": 0.10049014583333271
          },
          {
            "pitch": 42,
            "start": 7.640927552083334,
            "end": 7.741417697916667,
            "velocity": 104,
            "duration": 0.10049014583333271
          },
          {
            "pitch": 42,
            "start": 7.927692114583334,
            "end": 8.02940775,
            "velocity": 76,
            "duration": 0.1017156354166664
          },
          {
            "pitch": 42,
            "start": 8.198525312500001,
            "end": 8.300240947916667,
            "velocity": 57,
            "duration": 0.1017156354166655
          },
          {
            "pitch": 38,
            "start": 8.373770322916668,
            "end": 8.475485958333334,
            "velocity": 27,
            "duration": 0.1017156354166655
          },
          {
            "pitch": 36,
            "start": 8.485289875000001,
            "end": 8.585780020833335,
            "velocity": 127,
            "duration": 0.1004901458333336
          },
          {
            "pitch": 42,
            "start": 8.490191833333334,
            "end": 8.591907468750001,
            "velocity": 76,
            "duration": 0.10171563541666728
          },
          {
            "pitch": 40,
            "start": 8.783083843750001,
            "end": 8.883573989583335,
            "velocity": 127,
            "duration": 0.1004901458333336
          },
          {
            "pitch": 22,
            "start": 8.792887760416667,
            "end": 8.894603395833334,
            "velocity": 114,
            "duration": 0.10171563541666728
          },
          {
            "pitch": 38,
            "start": 8.861515177083334,
            "end": 8.962005322916667,
            "velocity": 33,
            "duration": 0.1004901458333336
          },
          {
            "pitch": 42,
            "start": 9.09190721875,
            "end": 9.193622854166668,
            "velocity": 80,
            "duration": 0.10171563541666728
          },
          {
            "pitch": 36,
            "start": 9.243867927083334,
            "end": 9.3455835625,
            "velocity": 41,
            "duration": 0.1017156354166655
          },
          {
            "pitch": 36,
            "start": 9.372544333333334,
            "end": 9.474259968750001,
            "velocity": 78,
            "duration": 0.10171563541666728
          },
          {
            "pitch": 42,
            "start": 9.401956083333333,
            "end": 9.502446229166667,
            "velocity": 53,
            "duration": 0.1004901458333336
          },
          {
            "pitch": 42,
            "start": 9.686269666666668,
            "end": 9.787985302083333,
            "velocity": 91,
            "duration": 0.1017156354166655
          },
          {
            "pitch": 40,
            "start": 9.977936187500001,
            "end": 10.078426333333335,
            "velocity": 127,
            "duration": 0.1004901458333336
          },
          {
            "pitch": 22,
            "start": 9.999995,
            "end": 10.100485145833334,
            "velocity": 103,
            "duration": 0.1004901458333336
          },
          {
            "pitch": 42,
            "start": 10.289210541666668,
            "end": 10.389700687500001,
            "velocity": 72,
            "duration": 0.1004901458333336
          },
          {
            "pitch": 38,
            "start": 10.458328104166668,
            "end": 10.558818250000002,
            "velocity": 28,
            "duration": 0.1004901458333336
          },
          {
            "pitch": 42,
            "start": 10.567396677083334,
            "end": 10.667886822916667,
            "velocity": 61,
            "duration": 0.1004901458333336
          },
          {
            "pitch": 38,
            "start": 10.726710322916668,
            "end": 10.82720046875,
            "velocity": 31,
            "duration": 0.10049014583333182
          },
          {
            "pitch": 36,
            "start": 10.8455828125,
            "end": 10.946072958333334,
            "velocity": 113,
            "duration": 0.1004901458333336
          },
          {
            "pitch": 42,
            "start": 10.850484770833335,
            "end": 10.95220040625,
            "velocity": 66,
            "duration": 0.1017156354166655
          },
          {
            "pitch": 40,
            "start": 11.14705325,
            "end": 11.247543395833334,
            "velocity": 127,
            "duration": 0.1004901458333336
          },
          {
            "pitch": 22,
            "start": 11.151955208333334,
            "end": 11.253670843750001,
            "velocity": 90,
            "duration": 0.10171563541666728
          },
          {
            "pitch": 22,
            "start": 11.442396239583335,
            "end": 11.544111875,
            "velocity": 82,
            "duration": 0.1017156354166655
          },
          {
            "pitch": 36,
            "start": 11.621317718750001,
            "end": 11.723033354166667,
            "velocity": 44,
            "duration": 0.1017156354166655
          },
          {
            "pitch": 36,
            "start": 11.726709822916668,
            "end": 11.828425458333335,
            "velocity": 55,
            "duration": 0.10171563541666728
          },
          {
            "pitch": 42,
            "start": 11.734062760416668,
            "end": 11.835778395833334,
            "velocity": 81,
            "duration": 0.1017156354166655
          },
          {
            "pitch": 42,
            "start": 12.037984177083334,
            "end": 12.139699812500002,
            "velocity": 81,
            "duration": 0.10171563541666728
          },
          {
            "pitch": 40,
            "start": 12.332101677083335,
            "end": 12.432591822916667,
            "velocity": 127,
            "duration": 0.10049014583333182
          },
          {
            "pitch": 22,
            "start": 12.346807552083334,
            "end": 12.447297697916667,
            "velocity": 108,
            "duration": 0.1004901458333336
          },
          {
            "pitch": 42,
            "start": 12.638474072916667,
            "end": 12.740189708333334,
            "velocity": 41,
            "duration": 0.10171563541666728
          },
          {
            "pitch": 42,
            "start": 12.910532760416668,
            "end": 13.012248395833334,
            "velocity": 47,
            "duration": 0.1017156354166655
          },
          {
            "pitch": 38,
            "start": 13.058817000000001,
            "end": 13.159307145833335,
            "velocity": 13,
            "duration": 0.1004901458333336
          },
          {
            "pitch": 42,
            "start": 13.177689489583335,
            "end": 13.280630614583334,
            "velocity": 59,
            "duration": 0.10294112499999919
          },
          {
            "pitch": 36,
            "start": 13.188718895833334,
            "end": 13.290434531250002,
            "velocity": 56,
            "duration": 0.10171563541666728
          },
          {
            "pitch": 40,
            "start": 13.493865802083334,
            "end": 13.594355947916668,
            "velocity": 127,
            "duration": 0.1004901458333336
          },
          {
            "pitch": 22,
            "start": 13.496316781250002,
            "end": 13.598032416666667,
            "velocity": 127,
            "duration": 0.1017156354166655
          },
          {
            "pitch": 22,
            "start": 13.795336239583335,
            "end": 13.897051875,
            "velocity": 109,
            "duration": 0.1017156354166655
          },
          {
            "pitch": 36,
            "start": 13.95219890625,
            "end": 14.052689052083334,
            "velocity": 46,
            "duration": 0.1004901458333336
          },
          {
            "pitch": 38,
            "start": 13.974257718750001,
            "end": 14.074747864583335,
            "velocity": 10,
            "duration": 0.1004901458333336
          },
          {
            "pitch": 36,
            "start": 14.090679229166668,
            "end": 14.191169375000001,
            "velocity": 107,
            "duration": 0.1004901458333336
          },
          {
            "pitch": 42,
            "start": 14.099257656250002,
            "end": 14.200973291666667,
            "velocity": 64,
            "duration": 0.1017156354166655
          },
          {
            "pitch": 42,
            "start": 14.377443791666668,
            "end": 14.477933937500001,
            "velocity": 76,
            "duration": 0.1004901458333336
          },
          {
            "pitch": 40,
            "start": 14.672786781250002,
            "end": 14.774502416666667,
            "velocity": 127,
            "duration": 0.1017156354166655
          },
          {
            "pitch": 42,
            "start": 14.683816187500002,
            "end": 14.785531822916667,
            "velocity": 98,
            "duration": 0.1017156354166655
          },
          {
            "pitch": 42,
            "start": 14.993865052083335,
            "end": 15.095580687500002,
            "velocity": 71,
            "duration": 0.10171563541666728
          },
          {
            "pitch": 38,
            "start": 15.159306145833334,
            "end": 15.259796291666667,
            "velocity": 7,
            "duration": 0.1004901458333336
          },
          {
            "pitch": 42,
            "start": 15.279404125000001,
            "end": 15.381119760416668,
            "velocity": 46,
            "duration": 0.10171563541666728
          },
          {
            "pitch": 38,
            "start": 15.453423645833334,
            "end": 15.555139281250002,
            "velocity": 8,
            "duration": 0.10171563541666728
          },
          {
            "pitch": 36,
            "start": 15.567394177083335,
            "end": 15.667884322916668,
            "velocity": 63,
            "duration": 0.1004901458333336
          },
          {
            "pitch": 42,
            "start": 15.567394177083335,
            "end": 15.667884322916668,
            "velocity": 62,
            "duration": 0.1004901458333336
          },
          {
            "pitch": 40,
            "start": 15.863962656250001,
            "end": 15.964452802083335,
            "velocity": 127,
            "duration": 0.1004901458333336
          },
          {
            "pitch": 22,
            "start": 15.868864614583334,
            "end": 15.970580250000001,
            "velocity": 85,
            "duration": 0.10171563541666728
          },
          {
            "pitch": 42,
            "start": 16.174011520833336,
            "end": 16.27572715625,
            "velocity": 75,
            "duration": 0.10171563541666373
          },
          {
            "pitch": 36,
            "start": 16.32229576041667,
            "end": 16.424011395833336,
            "velocity": 41,
            "duration": 0.10171563541666728
          },
          {
            "pitch": 36,
            "start": 16.43626629166667,
            "end": 16.536756437500003,
            "velocity": 58,
            "duration": 0.1004901458333336
          },
          {
            "pitch": 42,
            "start": 16.46200157291667,
            "end": 16.56249171875,
            "velocity": 64,
            "duration": 0.10049014583333005
          },
          {
            "pitch": 42,
            "start": 16.747540645833336,
            "end": 16.84803079166667,
            "velocity": 84,
            "duration": 0.1004901458333336
          },
          {
            "pitch": 40,
            "start": 17.05758951041667,
            "end": 17.159305145833336,
            "velocity": 127,
            "duration": 0.10171563541666728
          },
          {
            "pitch": 42,
            "start": 17.064942447916668,
            "end": 17.16543259375,
            "velocity": 86,
            "duration": 0.1004901458333336
          },
          {
            "pitch": 42,
            "start": 17.356608968750002,
            "end": 17.458324604166666,
            "velocity": 76,
            "duration": 0.10171563541666373
          },
          {
            "pitch": 42,
            "start": 17.64705,
            "end": 17.747540145833334,
            "velocity": 55,
            "duration": 0.1004901458333336
          },
          {
            "pitch": 38,
            "start": 17.794108750000003,
            "end": 17.894598895833333,
            "velocity": 25,
            "duration": 0.10049014583333005
          },
          {
            "pitch": 36,
            "start": 17.926461625,
            "end": 18.02817726041667,
            "velocity": 74,
            "duration": 0.10171563541666728
          },
          {
            "pitch": 42,
            "start": 17.926461625,
            "end": 18.02817726041667,
            "velocity": 60,
            "duration": 0.10171563541666728
          },
          {
            "pitch": 22,
            "start": 18.218128145833333,
            "end": 18.318618291666667,
            "velocity": 74,
            "duration": 0.1004901458333336
          },
          {
            "pitch": 40,
            "start": 18.218128145833333,
            "end": 18.318618291666667,
            "velocity": 127,
            "duration": 0.1004901458333336
          },
          {
            "pitch": 22,
            "start": 18.515922114583336,
            "end": 18.61763775,
            "velocity": 91,
            "duration": 0.10171563541666373
          },
          {
            "pitch": 36,
            "start": 18.661755375000002,
            "end": 18.76347101041667,
            "velocity": 41,
            "duration": 0.10171563541666728
          },
          {
            "pitch": 36,
            "start": 18.803912166666667,
            "end": 18.9044023125,
            "velocity": 88,
            "duration": 0.1004901458333336
          },
          {
            "pitch": 42,
            "start": 18.81126510416667,
            "end": 18.912980739583336,
            "velocity": 68,
            "duration": 0.10171563541666728
          },
          {
            "pitch": 42,
            "start": 19.111510052083336,
            "end": 19.213225687500003,
            "velocity": 103,
            "duration": 0.10171563541666728
          },
          {
            "pitch": 40,
            "start": 19.39950010416667,
            "end": 19.49999025,
            "velocity": 112,
            "duration": 0.10049014583333005
          },
          {
            "pitch": 42,
            "start": 19.408078531250002,
            "end": 19.508568677083336,
            "velocity": 117,
            "duration": 0.1004901458333336
          },
          {
            "pitch": 42,
            "start": 19.709548968750003,
            "end": 19.811264604166666,
            "velocity": 76,
            "duration": 0.10171563541666373
          },
          {
            "pitch": 38,
            "start": 19.8749900625,
            "end": 19.975480208333334,
            "velocity": 8,
            "duration": 0.1004901458333336
          },
          {
            "pitch": 42,
            "start": 19.996313531250003,
            "end": 20.098029166666667,
            "velocity": 54,
            "duration": 0.10171563541666373
          },
          {
            "pitch": 38,
            "start": 20.162980114583334,
            "end": 20.263470260416668,
            "velocity": 31,
            "duration": 0.1004901458333336
          },
          {
            "pitch": 36,
            "start": 20.2867545625,
            "end": 20.38601921875,
            "velocity": 106,
            "duration": 0.09926465624999992
          },
          {
            "pitch": 42,
            "start": 20.284303583333333,
            "end": 20.38601921875,
            "velocity": 77,
            "duration": 0.10171563541666728
          },
          {
            "pitch": 40,
            "start": 20.578421083333335,
            "end": 20.67891122916667,
            "velocity": 127,
            "duration": 0.1004901458333336
          },
          {
            "pitch": 42,
            "start": 20.582097552083336,
            "end": 20.6838131875,
            "velocity": 79,
            "duration": 0.10171563541666373
          },
          {
            "pitch": 42,
            "start": 20.876215052083335,
            "end": 20.977930687500002,
            "velocity": 104,
            "duration": 0.10171563541666728
          },
          {
            "pitch": 36,
            "start": 21.029401250000003,
            "end": 21.129891395833337,
            "velocity": 45,
            "duration": 0.1004901458333336
          },
          {
            "pitch": 36,
            "start": 21.170332552083334,
            "end": 21.2720481875,
            "velocity": 115,
            "duration": 0.10171563541666728
          },
          {
            "pitch": 42,
            "start": 21.170332552083334,
            "end": 21.2720481875,
            "velocity": 76,
            "duration": 0.10171563541666728
          },
          {
            "pitch": 22,
            "start": 21.464450052083336,
            "end": 21.5661656875,
            "velocity": 89,
            "duration": 0.10171563541666373
          },
          {
            "pitch": 40,
            "start": 21.770822447916668,
            "end": 21.87131259375,
            "velocity": 127,
            "duration": 0.1004901458333336
          },
          {
            "pitch": 42,
            "start": 21.779400875,
            "end": 21.881116510416668,
            "velocity": 70,
            "duration": 0.10171563541666728
          },
          {
            "pitch": 42,
            "start": 22.078420333333334,
            "end": 22.18013596875,
            "velocity": 77,
            "duration": 0.10171563541666728
          },
          {
            "pitch": 38,
            "start": 22.247537895833336,
            "end": 22.34802804166667,
            "velocity": 11,
            "duration": 0.1004901458333336
          },
          {
            "pitch": 42,
            "start": 22.354155489583334,
            "end": 22.454645635416668,
            "velocity": 64,
            "duration": 0.1004901458333336
          },
          {
            "pitch": 38,
            "start": 22.511018156250003,
            "end": 22.612733791666667,
            "velocity": 26,
            "duration": 0.10171563541666373
          },
          {
            "pitch": 36,
            "start": 22.63111613541667,
            "end": 22.731606281250002,
            "velocity": 92,
            "duration": 0.1004901458333336
          },
          {
            "pitch": 42,
            "start": 22.638469072916667,
            "end": 22.740184708333334,
            "velocity": 66,
            "duration": 0.10171563541666728
          },
          {
            "pitch": 40,
            "start": 22.92155716666667,
            "end": 23.022047312500003,
            "velocity": 127,
            "duration": 0.1004901458333336
          },
          {
            "pitch": 42,
            "start": 22.933812062500003,
            "end": 23.034302208333337,
            "velocity": 99,
            "duration": 0.1004901458333336
          },
          {
            "pitch": 42,
            "start": 23.210772708333334,
            "end": 23.31248834375,
            "velocity": 127,
            "duration": 0.10171563541666728
          },
          {
            "pitch": 36,
            "start": 23.390919677083335,
            "end": 23.49140982291667,
            "velocity": 46,
            "duration": 0.1004901458333336
          },
          {
            "pitch": 38,
            "start": 23.4338118125,
            "end": 23.534301958333334,
            "velocity": 21,
            "duration": 0.1004901458333336
          },
          {
            "pitch": 36,
            "start": 23.503664718750002,
            "end": 23.604154864583336,
            "velocity": 77,
            "duration": 0.1004901458333336
          },
          {
            "pitch": 42,
            "start": 23.508566677083333,
            "end": 23.6102823125,
            "velocity": 82,
            "duration": 0.10171563541666728
          },
          {
            "pitch": 42,
            "start": 23.796556729166667,
            "end": 23.898272364583335,
            "velocity": 92,
            "duration": 0.10171563541666728
          },
          {
            "pitch": 40,
            "start": 24.07964482291667,
            "end": 24.181360458333334,
            "velocity": 127,
            "duration": 0.10171563541666373
          },
          {
            "pitch": 42,
            "start": 24.093125208333333,
            "end": 24.193615354166667,
            "velocity": 90,
            "duration": 0.1004901458333336
          },
          {
            "pitch": 42,
            "start": 24.394595645833334,
            "end": 24.49631128125,
            "velocity": 97,
            "duration": 0.10171563541666728
          },
          {
            "pitch": 42,
            "start": 24.67523276041667,
            "end": 24.776948395833337,
            "velocity": 64,
            "duration": 0.10171563541666728
          },
          {
            "pitch": 38,
            "start": 24.846801302083335,
            "end": 24.94729144791667,
            "velocity": 12,
            "duration": 0.1004901458333336
          },
          {
            "pitch": 42,
            "start": 24.95832085416667,
            "end": 25.060036489583336,
            "velocity": 64,
            "duration": 0.10171563541666728
          },
          {
            "pitch": 36,
            "start": 24.974252218750003,
            "end": 25.07596785416667,
            "velocity": 107,
            "duration": 0.10171563541666728
          },
          {
            "pitch": 40,
            "start": 25.272046187500003,
            "end": 25.372536333333336,
            "velocity": 127,
            "duration": 0.1004901458333336
          },
          {
            "pitch": 42,
            "start": 25.273271677083336,
            "end": 25.374987312500004,
            "velocity": 103,
            "duration": 0.10171563541666728
          },
          {
            "pitch": 38,
            "start": 25.349252031250003,
            "end": 25.401948083333334,
            "velocity": 37,
            "duration": 0.05269605208333061
          },
          {
            "pitch": 38,
            "start": 25.401948083333334,
            "end": 25.449742177083333,
            "velocity": 16,
            "duration": 0.04779409374999943
          },
          {
            "pitch": 42,
            "start": 25.575967604166667,
            "end": 25.677683239583335,
            "velocity": 117,
            "duration": 0.10171563541666728
          },
          {
            "pitch": 36,
            "start": 25.76101653125,
            "end": 25.861506677083334,
            "velocity": 49,
            "duration": 0.1004901458333336
          },
          {
            "pitch": 36,
            "start": 25.867634125000002,
            "end": 25.96934976041667,
            "velocity": 65,
            "duration": 0.10171563541666728
          },
          {
            "pitch": 42,
            "start": 25.872536083333337,
            "end": 25.97425171875,
            "velocity": 75,
            "duration": 0.10171563541666373
          },
          {
            "pitch": 42,
            "start": 26.170330052083337,
            "end": 26.2720456875,
            "velocity": 125,
            "duration": 0.10171563541666373
          },
          {
            "pitch": 40,
            "start": 26.473025979166668,
            "end": 26.573516125,
            "velocity": 113,
            "duration": 0.1004901458333336
          },
          {
            "pitch": 42,
            "start": 26.48037891666667,
            "end": 26.582094552083337,
            "velocity": 98,
            "duration": 0.10171563541666728
          },
          {
            "pitch": 42,
            "start": 26.781849354166667,
            "end": 26.8823395,
            "velocity": 77,
            "duration": 0.1004901458333336
          },
          {
            "pitch": 37,
            "start": 26.942388489583337,
            "end": 27.044104125,
            "velocity": 20,
            "duration": 0.10171563541666373
          },
          {
            "pitch": 42,
            "start": 27.062486468750002,
            "end": 27.16420210416667,
            "velocity": 61,
            "duration": 0.10171563541666728
          },
          {
            "pitch": 38,
            "start": 27.23160403125,
            "end": 27.332094177083334,
            "velocity": 19,
            "duration": 0.1004901458333336
          },
          {
            "pitch": 26,
            "start": 27.350476520833336,
            "end": 27.452192156250003,
            "velocity": 85,
            "duration": 0.10171563541666728
          },
          {
            "pitch": 36,
            "start": 27.354152989583337,
            "end": 27.455868625,
            "velocity": 127,
            "duration": 0.10171563541666373
          },
          {
            "pitch": 44,
            "start": 27.610280312500002,
            "end": 27.710770458333336,
            "velocity": 57,
            "duration": 0.1004901458333336
          },
          {
            "pitch": 40,
            "start": 27.64949597916667,
            "end": 27.751211614583337,
            "velocity": 127,
            "duration": 0.10171563541666728
          },
          {
            "pitch": 22,
            "start": 27.659299895833335,
            "end": 27.75979004166667,
            "velocity": 94,
            "duration": 0.1004901458333336
          },
          {
            "pitch": 42,
            "start": 27.955868375,
            "end": 28.05758401041667,
            "velocity": 66,
            "duration": 0.10171563541666728
          },
          {
            "pitch": 36,
            "start": 28.124985937500004,
            "end": 28.225476083333337,
            "velocity": 43,
            "duration": 0.1004901458333336
          },
          {
            "pitch": 36,
            "start": 28.23895646875,
            "end": 28.340672104166668,
            "velocity": 73,
            "duration": 0.10171563541666728
          },
          {
            "pitch": 42,
            "start": 28.241407447916668,
            "end": 28.343123083333335,
            "velocity": 77,
            "duration": 0.10171563541666728
          },
          {
            "pitch": 42,
            "start": 28.54042690625,
            "end": 28.64214254166667,
            "velocity": 86,
            "duration": 0.10171563541666728
          },
          {
            "pitch": 40,
            "start": 28.81861304166667,
            "end": 28.920328677083337,
            "velocity": 127,
            "duration": 0.10171563541666728
          },
          {
            "pitch": 42,
            "start": 28.834544406250004,
            "end": 28.936260041666667,
            "velocity": 82,
            "duration": 0.10171563541666373
          },
          {
            "pitch": 42,
            "start": 29.1249854375,
            "end": 29.22670107291667,
            "velocity": 64,
            "duration": 0.10171563541666728
          },
          {
            "pitch": 38,
            "start": 29.287975552083335,
            "end": 29.38846569791667,
            "velocity": 7,
            "duration": 0.1004901458333336
          },
          {
            "pitch": 42,
            "start": 29.40317157291667,
            "end": 29.503661718750003,
            "velocity": 54,
            "duration": 0.1004901458333336
          },
          {
            "pitch": 38,
            "start": 29.551455812500002,
            "end": 29.651945958333336,
            "velocity": 15,
            "duration": 0.1004901458333336
          },
          {
            "pitch": 36,
            "start": 29.670328302083334,
            "end": 29.770818447916668,
            "velocity": 71,
            "duration": 0.1004901458333336
          },
          {
            "pitch": 42,
            "start": 29.677681239583336,
            "end": 29.77817138541667,
            "velocity": 55,
            "duration": 0.1004901458333336
          },
          {
            "pitch": 40,
            "start": 29.975475208333336,
            "end": 30.077190843750003,
            "velocity": 127,
            "duration": 0.10171563541666728
          },
          {
            "pitch": 22,
            "start": 29.979151677083337,
            "end": 30.0808673125,
            "velocity": 87,
            "duration": 0.10171563541666373
          },
          {
            "pitch": 38,
            "start": 30.111504552083336,
            "end": 30.213220187500003,
            "velocity": 10,
            "duration": 0.10171563541666728
          },
          {
            "pitch": 42,
            "start": 30.25978879166667,
            "end": 30.361504427083336,
            "velocity": 71,
            "duration": 0.10171563541666728
          },
          {
            "pitch": 36,
            "start": 30.43625929166667,
            "end": 30.536749437500003,
            "velocity": 45,
            "duration": 0.1004901458333336
          },
          {
            "pitch": 36,
            "start": 30.56125922916667,
            "end": 30.661749375000003,
            "velocity": 73,
            "duration": 0.1004901458333336
          },
          {
            "pitch": 42,
            "start": 30.577190593750004,
            "end": 30.677680739583337,
            "velocity": 61,
            "duration": 0.1004901458333336
          },
          {
            "pitch": 42,
            "start": 30.87008260416667,
            "end": 30.971798239583336,
            "velocity": 92,
            "duration": 0.10171563541666728
          },
          {
            "pitch": 40,
            "start": 31.166651083333335,
            "end": 31.26714122916667,
            "velocity": 127,
            "duration": 0.1004901458333336
          },
          {
            "pitch": 42,
            "start": 31.187484406250004,
            "end": 31.289200041666668,
            "velocity": 77,
            "duration": 0.10171563541666373
          },
          {
            "pitch": 42,
            "start": 31.48037641666667,
            "end": 31.582092052083336,
            "velocity": 90,
            "duration": 0.10171563541666728
          },
          {
            "pitch": 38,
            "start": 31.629886145833336,
            "end": 31.73037629166667,
            "velocity": 10,
            "duration": 0.1004901458333336
          },
          {
            "pitch": 42,
            "start": 31.773268427083334,
            "end": 31.873758572916667,
            "velocity": 57,
            "duration": 0.1004901458333336
          },
          {
            "pitch": 38,
            "start": 31.916650708333336,
            "end": 32.01714085416667,
            "velocity": 15,
            "duration": 0.1004901458333336
          },
          {
            "pitch": 42,
            "start": 32.04042515625,
            "end": 32.14214079166667,
            "velocity": 65,
            "duration": 0.10171563541666728
          },
          {
            "pitch": 36,
            "start": 32.04287613541667,
            "end": 32.14336628125,
            "velocity": 115,
            "duration": 0.1004901458333336
          },
          {
            "pitch": 40,
            "start": 32.338219125,
            "end": 32.438709270833336,
            "velocity": 127,
            "duration": 0.1004901458333336
          },
          {
            "pitch": 22,
            "start": 32.34189559375,
            "end": 32.44361122916667,
            "velocity": 100,
            "duration": 0.10171563541666728
          },
          {
            "pitch": 42,
            "start": 32.632336625,
            "end": 32.73405226041667,
            "velocity": 82,
            "duration": 0.10171563541666728
          },
          {
            "pitch": 36,
            "start": 32.82106202083334,
            "end": 32.92155216666667,
            "velocity": 43,
            "duration": 0.1004901458333336
          },
          {
            "pitch": 42,
            "start": 32.93258157291667,
            "end": 33.034297208333335,
            "velocity": 82,
            "duration": 0.10171563541666728
          },
          {
            "pitch": 36,
            "start": 32.93748353125,
            "end": 33.037973677083336,
            "velocity": 61,
            "duration": 0.1004901458333336
          },
          {
            "pitch": 42,
            "start": 33.23037554166667,
            "end": 33.332091177083335,
            "velocity": 86,
            "duration": 0.10171563541666728
          },
          {
            "pitch": 40,
            "start": 33.52326755208333,
            "end": 33.623757697916666,
            "velocity": 127,
            "duration": 0.1004901458333336
          },
          {
            "pitch": 42,
            "start": 33.53307146875,
            "end": 33.63478710416667,
            "velocity": 88,
            "duration": 0.10171563541666728
          },
          {
            "pitch": 42,
            "start": 33.828414458333334,
            "end": 33.93013009375,
            "velocity": 80,
            "duration": 0.10171563541666728
          },
          {
            "pitch": 38,
            "start": 34.00243397916667,
            "end": 34.102924125,
            "velocity": 10,
            "duration": 0.1004901458333336
          },
          {
            "pitch": 42,
            "start": 34.11150255208334,
            "end": 34.213218187500004,
            "velocity": 45,
            "duration": 0.10171563541666728
          },
          {
            "pitch": 38,
            "start": 34.27816913541667,
            "end": 34.37865928125,
            "velocity": 18,
            "duration": 0.1004901458333336
          },
          {
            "pitch": 36,
            "start": 34.37865928125,
            "end": 34.479149427083335,
            "velocity": 93,
            "duration": 0.1004901458333336
          },
          {
            "pitch": 42,
            "start": 34.39459064583333,
            "end": 34.49630628125,
            "velocity": 76,
            "duration": 0.10171563541666728
          },
          {
            "pitch": 40,
            "start": 34.691159125000006,
            "end": 34.79164927083334,
            "velocity": 127,
            "duration": 0.1004901458333336
          },
          {
            "pitch": 22,
            "start": 34.69728657291667,
            "end": 34.79777671875,
            "velocity": 88,
            "duration": 0.1004901458333336
          },
          {
            "pitch": 22,
            "start": 34.997531520833334,
            "end": 35.09924715625,
            "velocity": 78,
            "duration": 0.10171563541666728
          },
          {
            "pitch": 36,
            "start": 35.1691000625,
            "end": 35.269590208333334,
            "velocity": 42,
            "duration": 0.1004901458333336
          },
          {
            "pitch": 36,
            "start": 35.2941,
            "end": 35.394590145833334,
            "velocity": 55,
            "duration": 0.1004901458333336
          },
          {
            "pitch": 42,
            "start": 35.295325489583334,
            "end": 35.394590145833334,
            "velocity": 72,
            "duration": 0.09926465624999992
          },
          {
            "pitch": 42,
            "start": 35.588217500000006,
            "end": 35.689933135416666,
            "velocity": 71,
            "duration": 0.10171563541666018
          },
          {
            "pitch": 40,
            "start": 35.87743304166667,
            "end": 35.977923187500004,
            "velocity": 127,
            "duration": 0.1004901458333336
          },
          {
            "pitch": 22,
            "start": 35.88110951041667,
            "end": 35.98282514583334,
            "velocity": 110,
            "duration": 0.10171563541666728
          },
          {
            "pitch": 22,
            "start": 36.17277603125,
            "end": 36.273266177083336,
            "velocity": 86,
            "duration": 0.1004901458333336
          },
          {
            "pitch": 38,
            "start": 36.330864187500005,
            "end": 36.43135433333334,
            "velocity": 7,
            "duration": 0.1004901458333336
          },
          {
            "pitch": 22,
            "start": 36.4632170625,
            "end": 36.563707208333334,
            "velocity": 56,
            "duration": 0.1004901458333336
          },
          {
            "pitch": 38,
            "start": 36.6102758125,
            "end": 36.71199144791667,
            "velocity": 113,
            "duration": 0.10171563541666728
          },
          {
            "pitch": 44,
            "start": 36.69483459375,
            "end": 36.795324739583336,
            "velocity": 60,
            "duration": 0.1004901458333336
          },
          {
            "pitch": 48,
            "start": 36.887236458333334,
            "end": 36.98772660416667,
            "velocity": 117,
            "duration": 0.1004901458333336
          },
          {
            "pitch": 44,
            "start": 36.98282464583333,
            "end": 37.083314791666666,
            "velocity": 62,
            "duration": 0.1004901458333336
          },
          {
            "pitch": 48,
            "start": 37.02694227083334,
            "end": 37.128657906250005,
            "velocity": 127,
            "duration": 0.10171563541666728
          },
          {
            "pitch": 43,
            "start": 37.1690990625,
            "end": 37.269589208333336,
            "velocity": 96,
            "duration": 0.1004901458333336
          },
          {
            "pitch": 44,
            "start": 37.27816763541667,
            "end": 37.378657781250006,
            "velocity": 77,
            "duration": 0.1004901458333336
          },
          {
            "pitch": 43,
            "start": 37.31125585416667,
            "end": 37.412971489583335,
            "velocity": 89,
            "duration": 0.10171563541666728
          },
          {
            "pitch": 43,
            "start": 37.45831460416667,
            "end": 37.560030239583334,
            "velocity": 112,
            "duration": 0.10171563541666728
          },
          {
            "pitch": 36,
            "start": 37.589441989583335,
            "end": 37.691157625,
            "velocity": 127,
            "duration": 0.10171563541666728
          }
        ],
        "melodic_notes": [],
        "instruments": [
          {
            "program": "0",
            "is_drum": true,
            "name": "MIDI",
            "note_count": 247
          }
        ],
        "duration": 37.691157625,
        "tempo_changes": 0
      },
      {
        "file_path": "/mnt/hdd/drum-tranxn/e-gmd-v1.0.0/drummer1/eval_session/10_soul-groove10_102_beat_4-4_11.midi",
        "total_notes": 247,
        "drum_notes": [
          {
            "pitch": 22,
            "start": 0.0,
            "end": 0.08700976041666668,
            "velocity": 99,
            "duration": 0.08700976041666668
          },
          {
            "pitch": 36,
            "start": 0.0,
            "end": 0.08700976041666668,
            "velocity": 127,
            "duration": 0.08700976041666668
          },
          {
            "pitch": 42,
            "start": 0.28799005208333334,
            "end": 0.3884801979166667,
            "velocity": 21,
            "duration": 0.10049014583333338
          },
          {
            "pitch": 40,
            "start": 0.5649506979166667,
            "end": 0.66544084375,
            "velocity": 127,
            "duration": 0.10049014583333327
          },
          {
            "pitch": 42,
            "start": 0.5735291250000001,
            "end": 0.6752447604166667,
            "velocity": 75,
            "duration": 0.10171563541666662
          },
          {
            "pitch": 38,
            "start": 0.7034310208333334,
            "end": 0.8039211666666667,
            "velocity": 8,
            "duration": 0.10049014583333327
          },
          {
            "pitch": 42,
            "start": 0.8909309270833334,
            "end": 0.9926465625,
            "velocity": 75,
            "duration": 0.10171563541666662
          },
          {
            "pitch": 42,
            "start": 1.1887248958333334,
            "end": 1.29044053125,
            "velocity": 77,
            "duration": 0.10171563541666662
          },
          {
            "pitch": 36,
            "start": 1.4583326041666669,
            "end": 1.5600482395833335,
            "velocity": 127,
            "duration": 0.10171563541666662
          },
          {
            "pitch": 42,
            "start": 1.4779404375,
            "end": 1.5784305833333334,
            "velocity": 63,
            "duration": 0.10049014583333338
          },
          {
            "pitch": 40,
            "start": 1.7647050000000002,
            "end": 1.8651951458333336,
            "velocity": 127,
            "duration": 0.10049014583333338
          },
          {
            "pitch": 42,
            "start": 1.7659304895833334,
            "end": 1.867646125,
            "velocity": 85,
            "duration": 0.10171563541666662
          },
          {
            "pitch": 38,
            "start": 1.8492637812500001,
            "end": 1.9056363020833336,
            "velocity": 28,
            "duration": 0.05637252083333344
          },
          {
            "pitch": 38,
            "start": 1.9056363020833336,
            "end": 1.9497539270833335,
            "velocity": 10,
            "duration": 0.04411762499999994
          },
          {
            "pitch": 42,
            "start": 2.05514603125,
            "end": 2.1556361770833337,
            "velocity": 83,
            "duration": 0.1004901458333336
          },
          {
            "pitch": 36,
            "start": 2.237743979166667,
            "end": 2.3394596145833333,
            "velocity": 44,
            "duration": 0.1017156354166664
          },
          {
            "pitch": 36,
            "start": 2.3504890208333333,
            "end": 2.450979166666667,
            "velocity": 84,
            "duration": 0.1004901458333336
          },
          {
            "pitch": 42,
            "start": 2.3578419583333337,
            "end": 2.45955759375,
            "velocity": 82,
            "duration": 0.1017156354166664
          },
          {
            "pitch": 42,
            "start": 2.642155541666667,
            "end": 2.7438711770833337,
            "velocity": 88,
            "duration": 0.10171563541666684
          },
          {
            "pitch": 40,
            "start": 2.9227926562500004,
            "end": 3.0232828020833336,
            "velocity": 127,
            "duration": 0.10049014583333316
          },
          {
            "pitch": 42,
            "start": 2.9338220625,
            "end": 3.035537697916667,
            "velocity": 103,
            "duration": 0.10171563541666684
          },
          {
            "pitch": 42,
            "start": 3.2279395625,
            "end": 3.329655197916667,
            "velocity": 60,
            "duration": 0.10171563541666684
          },
          {
            "pitch": 42,
            "start": 3.50367471875,
            "end": 3.6041648645833337,
            "velocity": 48,
            "duration": 0.1004901458333336
          },
          {
            "pitch": 36,
            "start": 3.7769588958333338,
            "end": 3.877449041666667,
            "velocity": 127,
            "duration": 0.10049014583333316
          },
          {
            "pitch": 42,
            "start": 3.7818608541666667,
            "end": 3.8835764895833336,
            "velocity": 52,
            "duration": 0.10171563541666684
          },
          {
            "pitch": 40,
            "start": 4.080880312500001,
            "end": 4.181370458333333,
            "velocity": 127,
            "duration": 0.10049014583333271
          },
          {
            "pitch": 22,
            "start": 4.08823325,
            "end": 4.188723395833334,
            "velocity": 79,
            "duration": 0.1004901458333336
          },
          {
            "pitch": 42,
            "start": 4.395831135416667,
            "end": 4.49632128125,
            "velocity": 70,
            "duration": 0.1004901458333336
          },
          {
            "pitch": 36,
            "start": 4.564948697916667,
            "end": 4.6654388437500005,
            "velocity": 43,
            "duration": 0.1004901458333336
          },
          {
            "pitch": 42,
            "start": 4.68014471875,
            "end": 4.781860354166667,
            "velocity": 70,
            "duration": 0.1017156354166664
          },
          {
            "pitch": 36,
            "start": 4.6838211875,
            "end": 4.785536822916667,
            "velocity": 82,
            "duration": 0.1017156354166664
          },
          {
            "pitch": 42,
            "start": 4.973036729166667,
            "end": 5.0747523645833335,
            "velocity": 87,
            "duration": 0.1017156354166664
          },
          {
            "pitch": 40,
            "start": 5.28308559375,
            "end": 5.383575739583334,
            "velocity": 127,
            "duration": 0.1004901458333336
          },
          {
            "pitch": 42,
            "start": 5.2867620625,
            "end": 5.388477697916667,
            "velocity": 83,
            "duration": 0.1017156354166664
          },
          {
            "pitch": 38,
            "start": 5.414212979166667,
            "end": 5.450977666666667,
            "velocity": 10,
            "duration": 0.03676468749999984
          },
          {
            "pitch": 38,
            "start": 5.450977666666667,
            "end": 5.5147031250000005,
            "velocity": 7,
            "duration": 0.06372545833333376
          },
          {
            "pitch": 42,
            "start": 5.593134458333334,
            "end": 5.693624604166667,
            "velocity": 57,
            "duration": 0.10049014583333271
          },
          {
            "pitch": 42,
            "start": 5.863967656250001,
            "end": 5.964457802083333,
            "velocity": 61,
            "duration": 0.10049014583333271
          },
          {
            "pitch": 38,
            "start": 6.012251895833334,
            "end": 6.112742041666667,
            "velocity": 23,
            "duration": 0.1004901458333336
          },
          {
            "pitch": 42,
            "start": 6.140928302083334,
            "end": 6.2426439375000005,
            "velocity": 59,
            "duration": 0.1017156354166664
          },
          {
            "pitch": 36,
            "start": 6.149506729166667,
            "end": 6.249996875000001,
            "velocity": 127,
            "duration": 0.1004901458333336
          },
          {
            "pitch": 40,
            "start": 6.4448497187500005,
            "end": 6.545339864583334,
            "velocity": 127,
            "duration": 0.1004901458333336
          },
          {
            "pitch": 22,
            "start": 6.449751677083333,
            "end": 6.551467312500001,
            "velocity": 90,
            "duration": 0.10171563541666728
          },
          {
            "pitch": 38,
            "start": 6.573526125000001,
            "end": 6.675241760416667,
            "velocity": 14,
            "duration": 0.1017156354166664
          },
          {
            "pitch": 22,
            "start": 6.7426436875,
            "end": 6.8443593229166675,
            "velocity": 77,
            "duration": 0.10171563541666728
          },
          {
            "pitch": 36,
            "start": 6.939947510416667,
            "end": 7.040437656250001,
            "velocity": 46,
            "duration": 0.1004901458333336
          },
          {
            "pitch": 42,
            "start": 7.045339614583334,
            "end": 7.145829760416667,
            "velocity": 70,
            "duration": 0.1004901458333336
          },
          {
            "pitch": 36,
            "start": 7.053918041666667,
            "end": 7.155633677083334,
            "velocity": 55,
            "duration": 0.10171563541666728
          },
          {
            "pitch": 42,
            "start": 7.335780645833334,
            "end": 7.4374962812500005,
            "velocity": 85,
            "duration": 0.1017156354166664
          },
          {
            "pitch": 40,
            "start": 7.624996187500001,
            "end": 7.7254863333333335,
            "velocity": 127,
            "duration": 0.10049014583333271
          },
          {
            "pitch": 42,
            "start": 7.640927552083334,
            "end": 7.741417697916667,
            "velocity": 104,
            "duration": 0.10049014583333271
          },
          {
            "pitch": 42,
            "start": 7.927692114583334,
            "end": 8.02940775,
            "velocity": 76,
            "duration": 0.1017156354166664
          },
          {
            "pitch": 42,
            "start": 8.198525312500001,
            "end": 8.300240947916667,
            "velocity": 57,
            "duration": 0.1017156354166655
          },
          {
            "pitch": 38,
            "start": 8.373770322916668,
            "end": 8.475485958333334,
            "velocity": 27,
            "duration": 0.1017156354166655
          },
          {
            "pitch": 36,
            "start": 8.485289875000001,
            "end": 8.585780020833335,
            "velocity": 127,
            "duration": 0.1004901458333336
          },
          {
            "pitch": 42,
            "start": 8.490191833333334,
            "end": 8.591907468750001,
            "velocity": 76,
            "duration": 0.10171563541666728
          },
          {
            "pitch": 40,
            "start": 8.783083843750001,
            "end": 8.883573989583335,
            "velocity": 127,
            "duration": 0.1004901458333336
          },
          {
            "pitch": 22,
            "start": 8.792887760416667,
            "end": 8.894603395833334,
            "velocity": 114,
            "duration": 0.10171563541666728
          },
          {
            "pitch": 38,
            "start": 8.861515177083334,
            "end": 8.962005322916667,
            "velocity": 33,
            "duration": 0.1004901458333336
          },
          {
            "pitch": 42,
            "start": 9.09190721875,
            "end": 9.193622854166668,
            "velocity": 80,
            "duration": 0.10171563541666728
          },
          {
            "pitch": 36,
            "start": 9.243867927083334,
            "end": 9.3455835625,
            "velocity": 41,
            "duration": 0.1017156354166655
          },
          {
            "pitch": 36,
            "start": 9.372544333333334,
            "end": 9.474259968750001,
            "velocity": 78,
            "duration": 0.10171563541666728
          },
          {
            "pitch": 42,
            "start": 9.401956083333333,
            "end": 9.502446229166667,
            "velocity": 53,
            "duration": 0.1004901458333336
          },
          {
            "pitch": 42,
            "start": 9.686269666666668,
            "end": 9.787985302083333,
            "velocity": 91,
            "duration": 0.1017156354166655
          },
          {
            "pitch": 40,
            "start": 9.977936187500001,
            "end": 10.078426333333335,
            "velocity": 127,
            "duration": 0.1004901458333336
          },
          {
            "pitch": 22,
            "start": 9.999995,
            "end": 10.100485145833334,
            "velocity": 103,
            "duration": 0.1004901458333336
          },
          {
            "pitch": 42,
            "start": 10.289210541666668,
            "end": 10.389700687500001,
            "velocity": 72,
            "duration": 0.1004901458333336
          },
          {
            "pitch": 38,
            "start": 10.458328104166668,
            "end": 10.558818250000002,
            "velocity": 28,
            "duration": 0.1004901458333336
          },
          {
            "pitch": 42,
            "start": 10.567396677083334,
            "end": 10.667886822916667,
            "velocity": 61,
            "duration": 0.1004901458333336
          },
          {
            "pitch": 38,
            "start": 10.726710322916668,
            "end": 10.82720046875,
            "velocity": 31,
            "duration": 0.10049014583333182
          },
          {
            "pitch": 36,
            "start": 10.8455828125,
            "end": 10.946072958333334,
            "velocity": 113,
            "duration": 0.1004901458333336
          },
          {
            "pitch": 42,
            "start": 10.850484770833335,
            "end": 10.95220040625,
            "velocity": 66,
            "duration": 0.1017156354166655
          },
          {
            "pitch": 40,
            "start": 11.14705325,
            "end": 11.247543395833334,
            "velocity": 127,
            "duration": 0.1004901458333336
          },
          {
            "pitch": 22,
            "start": 11.151955208333334,
            "end": 11.253670843750001,
            "velocity": 90,
            "duration": 0.10171563541666728
          },
          {
            "pitch": 22,
            "start": 11.442396239583335,
            "end": 11.544111875,
            "velocity": 82,
            "duration": 0.1017156354166655
          },
          {
            "pitch": 36,
            "start": 11.621317718750001,
            "end": 11.723033354166667,
            "velocity": 44,
            "duration": 0.1017156354166655
          },
          {
            "pitch": 36,
            "start": 11.726709822916668,
            "end": 11.828425458333335,
            "velocity": 55,
            "duration": 0.10171563541666728
          },
          {
            "pitch": 42,
            "start": 11.734062760416668,
            "end": 11.835778395833334,
            "velocity": 81,
            "duration": 0.1017156354166655
          },
          {
            "pitch": 42,
            "start": 12.037984177083334,
            "end": 12.139699812500002,
            "velocity": 81,
            "duration": 0.10171563541666728
          },
          {
            "pitch": 40,
            "start": 12.332101677083335,
            "end": 12.432591822916667,
            "velocity": 127,
            "duration": 0.10049014583333182
          },
          {
            "pitch": 22,
            "start": 12.346807552083334,
            "end": 12.447297697916667,
            "velocity": 108,
            "duration": 0.1004901458333336
          },
          {
            "pitch": 42,
            "start": 12.638474072916667,
            "end": 12.740189708333334,
            "velocity": 41,
            "duration": 0.10171563541666728
          },
          {
            "pitch": 42,
            "start": 12.910532760416668,
            "end": 13.012248395833334,
            "velocity": 47,
            "duration": 0.1017156354166655
          },
          {
            "pitch": 38,
            "start": 13.058817000000001,
            "end": 13.159307145833335,
            "velocity": 13,
            "duration": 0.1004901458333336
          },
          {
            "pitch": 42,
            "start": 13.177689489583335,
            "end": 13.280630614583334,
            "velocity": 59,
            "duration": 0.10294112499999919
          },
          {
            "pitch": 36,
            "start": 13.188718895833334,
            "end": 13.290434531250002,
            "velocity": 56,
            "duration": 0.10171563541666728
          },
          {
            "pitch": 40,
            "start": 13.493865802083334,
            "end": 13.594355947916668,
            "velocity": 127,
            "duration": 0.1004901458333336
          },
          {
            "pitch": 22,
            "start": 13.496316781250002,
            "end": 13.598032416666667,
            "velocity": 127,
            "duration": 0.1017156354166655
          },
          {
            "pitch": 22,
            "start": 13.795336239583335,
            "end": 13.897051875,
            "velocity": 109,
            "duration": 0.1017156354166655
          },
          {
            "pitch": 36,
            "start": 13.95219890625,
            "end": 14.052689052083334,
            "velocity": 46,
            "duration": 0.1004901458333336
          },
          {
            "pitch": 38,
            "start": 13.974257718750001,
            "end": 14.074747864583335,
            "velocity": 10,
            "duration": 0.1004901458333336
          },
          {
            "pitch": 36,
            "start": 14.090679229166668,
            "end": 14.191169375000001,
            "velocity": 107,
            "duration": 0.1004901458333336
          },
          {
            "pitch": 42,
            "start": 14.099257656250002,
            "end": 14.200973291666667,
            "velocity": 64,
            "duration": 0.1017156354166655
          },
          {
            "pitch": 42,
            "start": 14.377443791666668,
            "end": 14.477933937500001,
            "velocity": 76,
            "duration": 0.1004901458333336
          },
          {
            "pitch": 40,
            "start": 14.672786781250002,
            "end": 14.774502416666667,
            "velocity": 127,
            "duration": 0.1017156354166655
          },
          {
            "pitch": 42,
            "start": 14.683816187500002,
            "end": 14.785531822916667,
            "velocity": 98,
            "duration": 0.1017156354166655
          },
          {
            "pitch": 42,
            "start": 14.993865052083335,
            "end": 15.095580687500002,
            "velocity": 71,
            "duration": 0.10171563541666728
          },
          {
            "pitch": 38,
            "start": 15.159306145833334,
            "end": 15.259796291666667,
            "velocity": 7,
            "duration": 0.1004901458333336
          },
          {
            "pitch": 42,
            "start": 15.279404125000001,
            "end": 15.381119760416668,
            "velocity": 46,
            "duration": 0.10171563541666728
          },
          {
            "pitch": 38,
            "start": 15.453423645833334,
            "end": 15.555139281250002,
            "velocity": 8,
            "duration": 0.10171563541666728
          },
          {
            "pitch": 36,
            "start": 15.567394177083335,
            "end": 15.667884322916668,
            "velocity": 63,
            "duration": 0.1004901458333336
          },
          {
            "pitch": 42,
            "start": 15.567394177083335,
            "end": 15.667884322916668,
            "velocity": 62,
            "duration": 0.1004901458333336
          },
          {
            "pitch": 40,
            "start": 15.863962656250001,
            "end": 15.964452802083335,
            "velocity": 127,
            "duration": 0.1004901458333336
          },
          {
            "pitch": 22,
            "start": 15.868864614583334,
            "end": 15.970580250000001,
            "velocity": 85,
            "duration": 0.10171563541666728
          },
          {
            "pitch": 42,
            "start": 16.174011520833336,
            "end": 16.27572715625,
            "velocity": 75,
            "duration": 0.10171563541666373
          },
          {
            "pitch": 36,
            "start": 16.32229576041667,
            "end": 16.424011395833336,
            "velocity": 41,
            "duration": 0.10171563541666728
          },
          {
            "pitch": 36,
            "start": 16.43626629166667,
            "end": 16.536756437500003,
            "velocity": 58,
            "duration": 0.1004901458333336
          },
          {
            "pitch": 42,
            "start": 16.46200157291667,
            "end": 16.56249171875,
            "velocity": 64,
            "duration": 0.10049014583333005
          },
          {
            "pitch": 42,
            "start": 16.747540645833336,
            "end": 16.84803079166667,
            "velocity": 84,
            "duration": 0.1004901458333336
          },
          {
            "pitch": 40,
            "start": 17.05758951041667,
            "end": 17.159305145833336,
            "velocity": 127,
            "duration": 0.10171563541666728
          },
          {
            "pitch": 42,
            "start": 17.064942447916668,
            "end": 17.16543259375,
            "velocity": 86,
            "duration": 0.1004901458333336
          },
          {
            "pitch": 42,
            "start": 17.356608968750002,
            "end": 17.458324604166666,
            "velocity": 76,
            "duration": 0.10171563541666373
          },
          {
            "pitch": 42,
            "start": 17.64705,
            "end": 17.747540145833334,
            "velocity": 55,
            "duration": 0.1004901458333336
          },
          {
            "pitch": 38,
            "start": 17.794108750000003,
            "end": 17.894598895833333,
            "velocity": 25,
            "duration": 0.10049014583333005
          },
          {
            "pitch": 36,
            "start": 17.926461625,
            "end": 18.02817726041667,
            "velocity": 74,
            "duration": 0.10171563541666728
          },
          {
            "pitch": 42,
            "start": 17.926461625,
            "end": 18.02817726041667,
            "velocity": 60,
            "duration": 0.10171563541666728
          },
          {
            "pitch": 22,
            "start": 18.218128145833333,
            "end": 18.318618291666667,
            "velocity": 74,
            "duration": 0.1004901458333336
          },
          {
            "pitch": 40,
            "start": 18.218128145833333,
            "end": 18.318618291666667,
            "velocity": 127,
            "duration": 0.1004901458333336
          },
          {
            "pitch": 22,
            "start": 18.515922114583336,
            "end": 18.61763775,
            "velocity": 91,
            "duration": 0.10171563541666373
          },
          {
            "pitch": 36,
            "start": 18.661755375000002,
            "end": 18.76347101041667,
            "velocity": 41,
            "duration": 0.10171563541666728
          },
          {
            "pitch": 36,
            "start": 18.803912166666667,
            "end": 18.9044023125,
            "velocity": 88,
            "duration": 0.1004901458333336
          },
          {
            "pitch": 42,
            "start": 18.81126510416667,
            "end": 18.912980739583336,
            "velocity": 68,
            "duration": 0.10171563541666728
          },
          {
            "pitch": 42,
            "start": 19.111510052083336,
            "end": 19.213225687500003,
            "velocity": 103,
            "duration": 0.10171563541666728
          },
          {
            "pitch": 40,
            "start": 19.39950010416667,
            "end": 19.49999025,
            "velocity": 112,
            "duration": 0.10049014583333005
          },
          {
            "pitch": 42,
            "start": 19.408078531250002,
            "end": 19.508568677083336,
            "velocity": 117,
            "duration": 0.1004901458333336
          },
          {
            "pitch": 42,
            "start": 19.709548968750003,
            "end": 19.811264604166666,
            "velocity": 76,
            "duration": 0.10171563541666373
          },
          {
            "pitch": 38,
            "start": 19.8749900625,
            "end": 19.975480208333334,
            "velocity": 8,
            "duration": 0.1004901458333336
          },
          {
            "pitch": 42,
            "start": 19.996313531250003,
            "end": 20.098029166666667,
            "velocity": 54,
            "duration": 0.10171563541666373
          },
          {
            "pitch": 38,
            "start": 20.162980114583334,
            "end": 20.263470260416668,
            "velocity": 31,
            "duration": 0.1004901458333336
          },
          {
            "pitch": 36,
            "start": 20.2867545625,
            "end": 20.38601921875,
            "velocity": 106,
            "duration": 0.09926465624999992
          },
          {
            "pitch": 42,
            "start": 20.284303583333333,
            "end": 20.38601921875,
            "velocity": 77,
            "duration": 0.10171563541666728
          },
          {
            "pitch": 40,
            "start": 20.578421083333335,
            "end": 20.67891122916667,
            "velocity": 127,
            "duration": 0.1004901458333336
          },
          {
            "pitch": 42,
            "start": 20.582097552083336,
            "end": 20.6838131875,
            "velocity": 79,
            "duration": 0.10171563541666373
          },
          {
            "pitch": 42,
            "start": 20.876215052083335,
            "end": 20.977930687500002,
            "velocity": 104,
            "duration": 0.10171563541666728
          },
          {
            "pitch": 36,
            "start": 21.029401250000003,
            "end": 21.129891395833337,
            "velocity": 45,
            "duration": 0.1004901458333336
          },
          {
            "pitch": 36,
            "start": 21.170332552083334,
            "end": 21.2720481875,
            "velocity": 115,
            "duration": 0.10171563541666728
          },
          {
            "pitch": 42,
            "start": 21.170332552083334,
            "end": 21.2720481875,
            "velocity": 76,
            "duration": 0.10171563541666728
          },
          {
            "pitch": 22,
            "start": 21.464450052083336,
            "end": 21.5661656875,
            "velocity": 89,
            "duration": 0.10171563541666373
          },
          {
            "pitch": 40,
            "start": 21.770822447916668,
            "end": 21.87131259375,
            "velocity": 127,
            "duration": 0.1004901458333336
          },
          {
            "pitch": 42,
            "start": 21.779400875,
            "end": 21.881116510416668,
            "velocity": 70,
            "duration": 0.10171563541666728
          },
          {
            "pitch": 42,
            "start": 22.078420333333334,
            "end": 22.18013596875,
            "velocity": 77,
            "duration": 0.10171563541666728
          },
          {
            "pitch": 38,
            "start": 22.247537895833336,
            "end": 22.34802804166667,
            "velocity": 11,
            "duration": 0.1004901458333336
          },
          {
            "pitch": 42,
            "start": 22.354155489583334,
            "end": 22.454645635416668,
            "velocity": 64,
            "duration": 0.1004901458333336
          },
          {
            "pitch": 38,
            "start": 22.511018156250003,
            "end": 22.612733791666667,
            "velocity": 26,
            "duration": 0.10171563541666373
          },
          {
            "pitch": 36,
            "start": 22.63111613541667,
            "end": 22.731606281250002,
            "velocity": 92,
            "duration": 0.1004901458333336
          },
          {
            "pitch": 42,
            "start": 22.638469072916667,
            "end": 22.740184708333334,
            "velocity": 66,
            "duration": 0.10171563541666728
          },
          {
            "pitch": 40,
            "start": 22.92155716666667,
            "end": 23.022047312500003,
            "velocity": 127,
            "duration": 0.1004901458333336
          },
          {
            "pitch": 42,
            "start": 22.933812062500003,
            "end": 23.034302208333337,
            "velocity": 99,
            "duration": 0.1004901458333336
          },
          {
            "pitch": 42,
            "start": 23.210772708333334,
            "end": 23.31248834375,
            "velocity": 127,
            "duration": 0.10171563541666728
          },
          {
            "pitch": 36,
            "start": 23.390919677083335,
            "end": 23.49140982291667,
            "velocity": 46,
            "duration": 0.1004901458333336
          },
          {
            "pitch": 38,
            "start": 23.4338118125,
            "end": 23.534301958333334,
            "velocity": 21,
            "duration": 0.1004901458333336
          },
          {
            "pitch": 36,
            "start": 23.503664718750002,
            "end": 23.604154864583336,
            "velocity": 77,
            "duration": 0.1004901458333336
          },
          {
            "pitch": 42,
            "start": 23.508566677083333,
            "end": 23.6102823125,
            "velocity": 82,
            "duration": 0.10171563541666728
          },
          {
            "pitch": 42,
            "start": 23.796556729166667,
            "end": 23.898272364583335,
            "velocity": 92,
            "duration": 0.10171563541666728
          },
          {
            "pitch": 40,
            "start": 24.07964482291667,
            "end": 24.181360458333334,
            "velocity": 127,
            "duration": 0.10171563541666373
          },
          {
            "pitch": 42,
            "start": 24.093125208333333,
            "end": 24.193615354166667,
            "velocity": 90,
            "duration": 0.1004901458333336
          },
          {
            "pitch": 42,
            "start": 24.394595645833334,
            "end": 24.49631128125,
            "velocity": 97,
            "duration": 0.10171563541666728
          },
          {
            "pitch": 42,
            "start": 24.67523276041667,
            "end": 24.776948395833337,
            "velocity": 64,
            "duration": 0.10171563541666728
          },
          {
            "pitch": 38,
            "start": 24.846801302083335,
            "end": 24.94729144791667,
            "velocity": 12,
            "duration": 0.1004901458333336
          },
          {
            "pitch": 42,
            "start": 24.95832085416667,
            "end": 25.060036489583336,
            "velocity": 64,
            "duration": 0.10171563541666728
          },
          {
            "pitch": 36,
            "start": 24.974252218750003,
            "end": 25.07596785416667,
            "velocity": 107,
            "duration": 0.10171563541666728
          },
          {
            "pitch": 40,
            "start": 25.272046187500003,
            "end": 25.372536333333336,
            "velocity": 127,
            "duration": 0.1004901458333336
          },
          {
            "pitch": 42,
            "start": 25.273271677083336,
            "end": 25.374987312500004,
            "velocity": 103,
            "duration": 0.10171563541666728
          },
          {
            "pitch": 38,
            "start": 25.349252031250003,
            "end": 25.401948083333334,
            "velocity": 37,
            "duration": 0.05269605208333061
          },
          {
            "pitch": 38,
            "start": 25.401948083333334,
            "end": 25.449742177083333,
            "velocity": 16,
            "duration": 0.04779409374999943
          },
          {
            "pitch": 42,
            "start": 25.575967604166667,
            "end": 25.677683239583335,
            "velocity": 117,
            "duration": 0.10171563541666728
          },
          {
            "pitch": 36,
            "start": 25.76101653125,
            "end": 25.861506677083334,
            "velocity": 49,
            "duration": 0.1004901458333336
          },
          {
            "pitch": 36,
            "start": 25.867634125000002,
            "end": 25.96934976041667,
            "velocity": 65,
            "duration": 0.10171563541666728
          },
          {
            "pitch": 42,
            "start": 25.872536083333337,
            "end": 25.97425171875,
            "velocity": 75,
            "duration": 0.10171563541666373
          },
          {
            "pitch": 42,
            "start": 26.170330052083337,
            "end": 26.2720456875,
            "velocity": 125,
            "duration": 0.10171563541666373
          },
          {
            "pitch": 40,
            "start": 26.473025979166668,
            "end": 26.573516125,
            "velocity": 113,
            "duration": 0.1004901458333336
          },
          {
            "pitch": 42,
            "start": 26.48037891666667,
            "end": 26.582094552083337,
            "velocity": 98,
            "duration": 0.10171563541666728
          },
          {
            "pitch": 42,
            "start": 26.781849354166667,
            "end": 26.8823395,
            "velocity": 77,
            "duration": 0.1004901458333336
          },
          {
            "pitch": 37,
            "start": 26.942388489583337,
            "end": 27.044104125,
            "velocity": 20,
            "duration": 0.10171563541666373
          },
          {
            "pitch": 42,
            "start": 27.062486468750002,
            "end": 27.16420210416667,
            "velocity": 61,
            "duration": 0.10171563541666728
          },
          {
            "pitch": 38,
            "start": 27.23160403125,
            "end": 27.332094177083334,
            "velocity": 19,
            "duration": 0.1004901458333336
          },
          {
            "pitch": 26,
            "start": 27.350476520833336,
            "end": 27.452192156250003,
            "velocity": 85,
            "duration": 0.10171563541666728
          },
          {
            "pitch": 36,
            "start": 27.354152989583337,
            "end": 27.455868625,
            "velocity": 127,
            "duration": 0.10171563541666373
          },
          {
            "pitch": 44,
            "start": 27.610280312500002,
            "end": 27.710770458333336,
            "velocity": 57,
            "duration": 0.1004901458333336
          },
          {
            "pitch": 40,
            "start": 27.64949597916667,
            "end": 27.751211614583337,
            "velocity": 127,
            "duration": 0.10171563541666728
          },
          {
            "pitch": 22,
            "start": 27.659299895833335,
            "end": 27.75979004166667,
            "velocity": 94,
            "duration": 0.1004901458333336
          },
          {
            "pitch": 42,
            "start": 27.955868375,
            "end": 28.05758401041667,
            "velocity": 66,
            "duration": 0.10171563541666728
          },
          {
            "pitch": 36,
            "start": 28.124985937500004,
            "end": 28.225476083333337,
            "velocity": 43,
            "duration": 0.1004901458333336
          },
          {
            "pitch": 36,
            "start": 28.23895646875,
            "end": 28.340672104166668,
            "velocity": 73,
            "duration": 0.10171563541666728
          },
          {
            "pitch": 42,
            "start": 28.241407447916668,
            "end": 28.343123083333335,
            "velocity": 77,
            "duration": 0.10171563541666728
          },
          {
            "pitch": 42,
            "start": 28.54042690625,
            "end": 28.64214254166667,
            "velocity": 86,
            "duration": 0.10171563541666728
          },
          {
            "pitch": 40,
            "start": 28.81861304166667,
            "end": 28.920328677083337,
            "velocity": 127,
            "duration": 0.10171563541666728
          },
          {
            "pitch": 42,
            "start": 28.834544406250004,
            "end": 28.936260041666667,
            "velocity": 82,
            "duration": 0.10171563541666373
          },
          {
            "pitch": 42,
            "start": 29.1249854375,
            "end": 29.22670107291667,
            "velocity": 64,
            "duration": 0.10171563541666728
          },
          {
            "pitch": 38,
            "start": 29.287975552083335,
            "end": 29.38846569791667,
            "velocity": 7,
            "duration": 0.1004901458333336
          },
          {
            "pitch": 42,
            "start": 29.40317157291667,
            "end": 29.503661718750003,
            "velocity": 54,
            "duration": 0.1004901458333336
          },
          {
            "pitch": 38,
            "start": 29.551455812500002,
            "end": 29.651945958333336,
            "velocity": 15,
            "duration": 0.1004901458333336
          },
          {
            "pitch": 36,
            "start": 29.670328302083334,
            "end": 29.770818447916668,
            "velocity": 71,
            "duration": 0.1004901458333336
          },
          {
            "pitch": 42,
            "start": 29.677681239583336,
            "end": 29.77817138541667,
            "velocity": 55,
            "duration": 0.1004901458333336
          },
          {
            "pitch": 40,
            "start": 29.975475208333336,
            "end": 30.077190843750003,
            "velocity": 127,
            "duration": 0.10171563541666728
          },
          {
            "pitch": 22,
            "start": 29.979151677083337,
            "end": 30.0808673125,
            "velocity": 87,
            "duration": 0.10171563541666373
          },
          {
            "pitch": 38,
            "start": 30.111504552083336,
            "end": 30.213220187500003,
            "velocity": 10,
            "duration": 0.10171563541666728
          },
          {
            "pitch": 42,
            "start": 30.25978879166667,
            "end": 30.361504427083336,
            "velocity": 71,
            "duration": 0.10171563541666728
          },
          {
            "pitch": 36,
            "start": 30.43625929166667,
            "end": 30.536749437500003,
            "velocity": 45,
            "duration": 0.1004901458333336
          },
          {
            "pitch": 36,
            "start": 30.56125922916667,
            "end": 30.661749375000003,
            "velocity": 73,
            "duration": 0.1004901458333336
          },
          {
            "pitch": 42,
            "start": 30.577190593750004,
            "end": 30.677680739583337,
            "velocity": 61,
            "duration": 0.1004901458333336
          },
          {
            "pitch": 42,
            "start": 30.87008260416667,
            "end": 30.971798239583336,
            "velocity": 92,
            "duration": 0.10171563541666728
          },
          {
            "pitch": 40,
            "start": 31.166651083333335,
            "end": 31.26714122916667,
            "velocity": 127,
            "duration": 0.1004901458333336
          },
          {
            "pitch": 42,
            "start": 31.187484406250004,
            "end": 31.289200041666668,
            "velocity": 77,
            "duration": 0.10171563541666373
          },
          {
            "pitch": 42,
            "start": 31.48037641666667,
            "end": 31.582092052083336,
            "velocity": 90,
            "duration": 0.10171563541666728
          },
          {
            "pitch": 38,
            "start": 31.629886145833336,
            "end": 31.73037629166667,
            "velocity": 10,
            "duration": 0.1004901458333336
          },
          {
            "pitch": 42,
            "start": 31.773268427083334,
            "end": 31.873758572916667,
            "velocity": 57,
            "duration": 0.1004901458333336
          },
          {
            "pitch": 38,
            "start": 31.916650708333336,
            "end": 32.01714085416667,
            "velocity": 15,
            "duration": 0.1004901458333336
          },
          {
            "pitch": 42,
            "start": 32.04042515625,
            "end": 32.14214079166667,
            "velocity": 65,
            "duration": 0.10171563541666728
          },
          {
            "pitch": 36,
            "start": 32.04287613541667,
            "end": 32.14336628125,
            "velocity": 115,
            "duration": 0.1004901458333336
          },
          {
            "pitch": 40,
            "start": 32.338219125,
            "end": 32.438709270833336,
            "velocity": 127,
            "duration": 0.1004901458333336
          },
          {
            "pitch": 22,
            "start": 32.34189559375,
            "end": 32.44361122916667,
            "velocity": 100,
            "duration": 0.10171563541666728
          },
          {
            "pitch": 42,
            "start": 32.632336625,
            "end": 32.73405226041667,
            "velocity": 82,
            "duration": 0.10171563541666728
          },
          {
            "pitch": 36,
            "start": 32.82106202083334,
            "end": 32.92155216666667,
            "velocity": 43,
            "duration": 0.1004901458333336
          },
          {
            "pitch": 42,
            "start": 32.93258157291667,
            "end": 33.034297208333335,
            "velocity": 82,
            "duration": 0.10171563541666728
          },
          {
            "pitch": 36,
            "start": 32.93748353125,
            "end": 33.037973677083336,
            "velocity": 61,
            "duration": 0.1004901458333336
          },
          {
            "pitch": 42,
            "start": 33.23037554166667,
            "end": 33.332091177083335,
            "velocity": 86,
            "duration": 0.10171563541666728
          },
          {
            "pitch": 40,
            "start": 33.52326755208333,
            "end": 33.623757697916666,
            "velocity": 127,
            "duration": 0.1004901458333336
          },
          {
            "pitch": 42,
            "start": 33.53307146875,
            "end": 33.63478710416667,
            "velocity": 88,
            "duration": 0.10171563541666728
          },
          {
            "pitch": 42,
            "start": 33.828414458333334,
            "end": 33.93013009375,
            "velocity": 80,
            "duration": 0.10171563541666728
          },
          {
            "pitch": 38,
            "start": 34.00243397916667,
            "end": 34.102924125,
            "velocity": 10,
            "duration": 0.1004901458333336
          },
          {
            "pitch": 42,
            "start": 34.11150255208334,
            "end": 34.213218187500004,
            "velocity": 45,
            "duration": 0.10171563541666728
          },
          {
            "pitch": 38,
            "start": 34.27816913541667,
            "end": 34.37865928125,
            "velocity": 18,
            "duration": 0.1004901458333336
          },
          {
            "pitch": 36,
            "start": 34.37865928125,
            "end": 34.479149427083335,
            "velocity": 93,
            "duration": 0.1004901458333336
          },
          {
            "pitch": 42,
            "start": 34.39459064583333,
            "end": 34.49630628125,
            "velocity": 76,
            "duration": 0.10171563541666728
          },
          {
            "pitch": 40,
            "start": 34.691159125000006,
            "end": 34.79164927083334,
            "velocity": 127,
            "duration": 0.1004901458333336
          },
          {
            "pitch": 22,
            "start": 34.69728657291667,
            "end": 34.79777671875,
            "velocity": 88,
            "duration": 0.1004901458333336
          },
          {
            "pitch": 22,
            "start": 34.997531520833334,
            "end": 35.09924715625,
            "velocity": 78,
            "duration": 0.10171563541666728
          },
          {
            "pitch": 36,
            "start": 35.1691000625,
            "end": 35.269590208333334,
            "velocity": 42,
            "duration": 0.1004901458333336
          },
          {
            "pitch": 36,
            "start": 35.2941,
            "end": 35.394590145833334,
            "velocity": 55,
            "duration": 0.1004901458333336
          },
          {
            "pitch": 42,
            "start": 35.295325489583334,
            "end": 35.394590145833334,
            "velocity": 72,
            "duration": 0.09926465624999992
          },
          {
            "pitch": 42,
            "start": 35.588217500000006,
            "end": 35.689933135416666,
            "velocity": 71,
            "duration": 0.10171563541666018
          },
          {
            "pitch": 40,
            "start": 35.87743304166667,
            "end": 35.977923187500004,
            "velocity": 127,
            "duration": 0.1004901458333336
          },
          {
            "pitch": 22,
            "start": 35.88110951041667,
            "end": 35.98282514583334,
            "velocity": 110,
            "duration": 0.10171563541666728
          },
          {
            "pitch": 22,
            "start": 36.17277603125,
            "end": 36.273266177083336,
            "velocity": 86,
            "duration": 0.1004901458333336
          },
          {
            "pitch": 38,
            "start": 36.330864187500005,
            "end": 36.43135433333334,
            "velocity": 7,
            "duration": 0.1004901458333336
          },
          {
            "pitch": 22,
            "start": 36.4632170625,
            "end": 36.563707208333334,
            "velocity": 56,
            "duration": 0.1004901458333336
          },
          {
            "pitch": 38,
            "start": 36.6102758125,
            "end": 36.71199144791667,
            "velocity": 113,
            "duration": 0.10171563541666728
          },
          {
            "pitch": 44,
            "start": 36.69483459375,
            "end": 36.795324739583336,
            "velocity": 60,
            "duration": 0.1004901458333336
          },
          {
            "pitch": 48,
            "start": 36.887236458333334,
            "end": 36.98772660416667,
            "velocity": 117,
            "duration": 0.1004901458333336
          },
          {
            "pitch": 44,
            "start": 36.98282464583333,
            "end": 37.083314791666666,
            "velocity": 62,
            "duration": 0.1004901458333336
          },
          {
            "pitch": 48,
            "start": 37.02694227083334,
            "end": 37.128657906250005,
            "velocity": 127,
            "duration": 0.10171563541666728
          },
          {
            "pitch": 43,
            "start": 37.1690990625,
            "end": 37.269589208333336,
            "velocity": 96,
            "duration": 0.1004901458333336
          },
          {
            "pitch": 44,
            "start": 37.27816763541667,
            "end": 37.378657781250006,
            "velocity": 77,
            "duration": 0.1004901458333336
          },
          {
            "pitch": 43,
            "start": 37.31125585416667,
            "end": 37.412971489583335,
            "velocity": 89,
            "duration": 0.10171563541666728
          },
          {
            "pitch": 43,
            "start": 37.45831460416667,
            "end": 37.560030239583334,
            "velocity": 112,
            "duration": 0.10171563541666728
          },
          {
            "pitch": 36,
            "start": 37.589441989583335,
            "end": 37.691157625,
            "velocity": 127,
            "duration": 0.10171563541666728
          }
        ],
        "melodic_notes": [],
        "instruments": [
          {
            "program": "0",
            "is_drum": true,
            "name": "MIDI",
            "note_count": 247
          }
        ],
        "duration": 37.691157625,
        "tempo_changes": 0
      },
      {
        "file_path": "/mnt/hdd/drum-tranxn/e-gmd-v1.0.0/drummer1/eval_session/10_soul-groove10_102_beat_4-4_12.midi",
        "total_notes": 247,
        "drum_notes": [
          {
            "pitch": 22,
            "start": 0.0,
            "end": 0.08700976041666668,
            "velocity": 99,
            "duration": 0.08700976041666668
          },
          {
            "pitch": 36,
            "start": 0.0,
            "end": 0.08700976041666668,
            "velocity": 127,
            "duration": 0.08700976041666668
          },
          {
            "pitch": 42,
            "start": 0.28799005208333334,
            "end": 0.3884801979166667,
            "velocity": 21,
            "duration": 0.10049014583333338
          },
          {
            "pitch": 40,
            "start": 0.5649506979166667,
            "end": 0.66544084375,
            "velocity": 127,
            "duration": 0.10049014583333327
          },
          {
            "pitch": 42,
            "start": 0.5735291250000001,
            "end": 0.6752447604166667,
            "velocity": 75,
            "duration": 0.10171563541666662
          },
          {
            "pitch": 38,
            "start": 0.7034310208333334,
            "end": 0.8039211666666667,
            "velocity": 8,
            "duration": 0.10049014583333327
          },
          {
            "pitch": 42,
            "start": 0.8909309270833334,
            "end": 0.9926465625,
            "velocity": 75,
            "duration": 0.10171563541666662
          },
          {
            "pitch": 42,
            "start": 1.1887248958333334,
            "end": 1.29044053125,
            "velocity": 77,
            "duration": 0.10171563541666662
          },
          {
            "pitch": 36,
            "start": 1.4583326041666669,
            "end": 1.5600482395833335,
            "velocity": 127,
            "duration": 0.10171563541666662
          },
          {
            "pitch": 42,
            "start": 1.4779404375,
            "end": 1.5784305833333334,
            "velocity": 63,
            "duration": 0.10049014583333338
          },
          {
            "pitch": 40,
            "start": 1.7647050000000002,
            "end": 1.8651951458333336,
            "velocity": 127,
            "duration": 0.10049014583333338
          },
          {
            "pitch": 42,
            "start": 1.7659304895833334,
            "end": 1.867646125,
            "velocity": 85,
            "duration": 0.10171563541666662
          },
          {
            "pitch": 38,
            "start": 1.8492637812500001,
            "end": 1.9056363020833336,
            "velocity": 28,
            "duration": 0.05637252083333344
          },
          {
            "pitch": 38,
            "start": 1.9056363020833336,
            "end": 1.9497539270833335,
            "velocity": 10,
            "duration": 0.04411762499999994
          },
          {
            "pitch": 42,
            "start": 2.05514603125,
            "end": 2.1556361770833337,
            "velocity": 83,
            "duration": 0.1004901458333336
          },
          {
            "pitch": 36,
            "start": 2.237743979166667,
            "end": 2.3394596145833333,
            "velocity": 44,
            "duration": 0.1017156354166664
          },
          {
            "pitch": 36,
            "start": 2.3504890208333333,
            "end": 2.450979166666667,
            "velocity": 84,
            "duration": 0.1004901458333336
          },
          {
            "pitch": 42,
            "start": 2.3578419583333337,
            "end": 2.45955759375,
            "velocity": 82,
            "duration": 0.1017156354166664
          },
          {
            "pitch": 42,
            "start": 2.642155541666667,
            "end": 2.7438711770833337,
            "velocity": 88,
            "duration": 0.10171563541666684
          },
          {
            "pitch": 40,
            "start": 2.9227926562500004,
            "end": 3.0232828020833336,
            "velocity": 127,
            "duration": 0.10049014583333316
          },
          {
            "pitch": 42,
            "start": 2.9338220625,
            "end": 3.035537697916667,
            "velocity": 103,
            "duration": 0.10171563541666684
          },
          {
            "pitch": 42,
            "start": 3.2279395625,
            "end": 3.329655197916667,
            "velocity": 60,
            "duration": 0.10171563541666684
          },
          {
            "pitch": 42,
            "start": 3.50367471875,
            "end": 3.6041648645833337,
            "velocity": 48,
            "duration": 0.1004901458333336
          },
          {
            "pitch": 36,
            "start": 3.7769588958333338,
            "end": 3.877449041666667,
            "velocity": 127,
            "duration": 0.10049014583333316
          },
          {
            "pitch": 42,
            "start": 3.7818608541666667,
            "end": 3.8835764895833336,
            "velocity": 52,
            "duration": 0.10171563541666684
          },
          {
            "pitch": 40,
            "start": 4.080880312500001,
            "end": 4.181370458333333,
            "velocity": 127,
            "duration": 0.10049014583333271
          },
          {
            "pitch": 22,
            "start": 4.08823325,
            "end": 4.188723395833334,
            "velocity": 79,
            "duration": 0.1004901458333336
          },
          {
            "pitch": 42,
            "start": 4.395831135416667,
            "end": 4.49632128125,
            "velocity": 70,
            "duration": 0.1004901458333336
          },
          {
            "pitch": 36,
            "start": 4.564948697916667,
            "end": 4.6654388437500005,
            "velocity": 43,
            "duration": 0.1004901458333336
          },
          {
            "pitch": 42,
            "start": 4.68014471875,
            "end": 4.781860354166667,
            "velocity": 70,
            "duration": 0.1017156354166664
          },
          {
            "pitch": 36,
            "start": 4.6838211875,
            "end": 4.785536822916667,
            "velocity": 82,
            "duration": 0.1017156354166664
          },
          {
            "pitch": 42,
            "start": 4.973036729166667,
            "end": 5.0747523645833335,
            "velocity": 87,
            "duration": 0.1017156354166664
          },
          {
            "pitch": 40,
            "start": 5.28308559375,
            "end": 5.383575739583334,
            "velocity": 127,
            "duration": 0.1004901458333336
          },
          {
            "pitch": 42,
            "start": 5.2867620625,
            "end": 5.388477697916667,
            "velocity": 83,
            "duration": 0.1017156354166664
          },
          {
            "pitch": 38,
            "start": 5.414212979166667,
            "end": 5.450977666666667,
            "velocity": 10,
            "duration": 0.03676468749999984
          },
          {
            "pitch": 38,
            "start": 5.450977666666667,
            "end": 5.5147031250000005,
            "velocity": 7,
            "duration": 0.06372545833333376
          },
          {
            "pitch": 42,
            "start": 5.593134458333334,
            "end": 5.693624604166667,
            "velocity": 57,
            "duration": 0.10049014583333271
          },
          {
            "pitch": 42,
            "start": 5.863967656250001,
            "end": 5.964457802083333,
            "velocity": 61,
            "duration": 0.10049014583333271
          },
          {
            "pitch": 38,
            "start": 6.012251895833334,
            "end": 6.112742041666667,
            "velocity": 23,
            "duration": 0.1004901458333336
          },
          {
            "pitch": 42,
            "start": 6.140928302083334,
            "end": 6.2426439375000005,
            "velocity": 59,
            "duration": 0.1017156354166664
          },
          {
            "pitch": 36,
            "start": 6.149506729166667,
            "end": 6.249996875000001,
            "velocity": 127,
            "duration": 0.1004901458333336
          },
          {
            "pitch": 40,
            "start": 6.4448497187500005,
            "end": 6.545339864583334,
            "velocity": 127,
            "duration": 0.1004901458333336
          },
          {
            "pitch": 22,
            "start": 6.449751677083333,
            "end": 6.551467312500001,
            "velocity": 90,
            "duration": 0.10171563541666728
          },
          {
            "pitch": 38,
            "start": 6.573526125000001,
            "end": 6.675241760416667,
            "velocity": 14,
            "duration": 0.1017156354166664
          },
          {
            "pitch": 22,
            "start": 6.7426436875,
            "end": 6.8443593229166675,
            "velocity": 77,
            "duration": 0.10171563541666728
          },
          {
            "pitch": 36,
            "start": 6.939947510416667,
            "end": 7.040437656250001,
            "velocity": 46,
            "duration": 0.1004901458333336
          },
          {
            "pitch": 42,
            "start": 7.045339614583334,
            "end": 7.145829760416667,
            "velocity": 70,
            "duration": 0.1004901458333336
          },
          {
            "pitch": 36,
            "start": 7.053918041666667,
            "end": 7.155633677083334,
            "velocity": 55,
            "duration": 0.10171563541666728
          },
          {
            "pitch": 42,
            "start": 7.335780645833334,
            "end": 7.4374962812500005,
            "velocity": 85,
            "duration": 0.1017156354166664
          },
          {
            "pitch": 40,
            "start": 7.624996187500001,
            "end": 7.7254863333333335,
            "velocity": 127,
            "duration": 0.10049014583333271
          },
          {
            "pitch": 42,
            "start": 7.640927552083334,
            "end": 7.741417697916667,
            "velocity": 104,
            "duration": 0.10049014583333271
          },
          {
            "pitch": 42,
            "start": 7.927692114583334,
            "end": 8.02940775,
            "velocity": 76,
            "duration": 0.1017156354166664
          },
          {
            "pitch": 42,
            "start": 8.198525312500001,
            "end": 8.300240947916667,
            "velocity": 57,
            "duration": 0.1017156354166655
          },
          {
            "pitch": 38,
            "start": 8.373770322916668,
            "end": 8.475485958333334,
            "velocity": 27,
            "duration": 0.1017156354166655
          },
          {
            "pitch": 36,
            "start": 8.485289875000001,
            "end": 8.585780020833335,
            "velocity": 127,
            "duration": 0.1004901458333336
          },
          {
            "pitch": 42,
            "start": 8.490191833333334,
            "end": 8.591907468750001,
            "velocity": 76,
            "duration": 0.10171563541666728
          },
          {
            "pitch": 40,
            "start": 8.783083843750001,
            "end": 8.883573989583335,
            "velocity": 127,
            "duration": 0.1004901458333336
          },
          {
            "pitch": 22,
            "start": 8.792887760416667,
            "end": 8.894603395833334,
            "velocity": 114,
            "duration": 0.10171563541666728
          },
          {
            "pitch": 38,
            "start": 8.861515177083334,
            "end": 8.962005322916667,
            "velocity": 33,
            "duration": 0.1004901458333336
          },
          {
            "pitch": 42,
            "start": 9.09190721875,
            "end": 9.193622854166668,
            "velocity": 80,
            "duration": 0.10171563541666728
          },
          {
            "pitch": 36,
            "start": 9.243867927083334,
            "end": 9.3455835625,
            "velocity": 41,
            "duration": 0.1017156354166655
          },
          {
            "pitch": 36,
            "start": 9.372544333333334,
            "end": 9.474259968750001,
            "velocity": 78,
            "duration": 0.10171563541666728
          },
          {
            "pitch": 42,
            "start": 9.401956083333333,
            "end": 9.502446229166667,
            "velocity": 53,
            "duration": 0.1004901458333336
          },
          {
            "pitch": 42,
            "start": 9.686269666666668,
            "end": 9.787985302083333,
            "velocity": 91,
            "duration": 0.1017156354166655
          },
          {
            "pitch": 40,
            "start": 9.977936187500001,
            "end": 10.078426333333335,
            "velocity": 127,
            "duration": 0.1004901458333336
          },
          {
            "pitch": 22,
            "start": 9.999995,
            "end": 10.100485145833334,
            "velocity": 103,
            "duration": 0.1004901458333336
          },
          {
            "pitch": 42,
            "start": 10.289210541666668,
            "end": 10.389700687500001,
            "velocity": 72,
            "duration": 0.1004901458333336
          },
          {
            "pitch": 38,
            "start": 10.458328104166668,
            "end": 10.558818250000002,
            "velocity": 28,
            "duration": 0.1004901458333336
          },
          {
            "pitch": 42,
            "start": 10.567396677083334,
            "end": 10.667886822916667,
            "velocity": 61,
            "duration": 0.1004901458333336
          },
          {
            "pitch": 38,
            "start": 10.726710322916668,
            "end": 10.82720046875,
            "velocity": 31,
            "duration": 0.10049014583333182
          },
          {
            "pitch": 36,
            "start": 10.8455828125,
            "end": 10.946072958333334,
            "velocity": 113,
            "duration": 0.1004901458333336
          },
          {
            "pitch": 42,
            "start": 10.850484770833335,
            "end": 10.95220040625,
            "velocity": 66,
            "duration": 0.1017156354166655
          },
          {
            "pitch": 40,
            "start": 11.14705325,
            "end": 11.247543395833334,
            "velocity": 127,
            "duration": 0.1004901458333336
          },
          {
            "pitch": 22,
            "start": 11.151955208333334,
            "end": 11.253670843750001,
            "velocity": 90,
            "duration": 0.10171563541666728
          },
          {
            "pitch": 22,
            "start": 11.442396239583335,
            "end": 11.544111875,
            "velocity": 82,
            "duration": 0.1017156354166655
          },
          {
            "pitch": 36,
            "start": 11.621317718750001,
            "end": 11.723033354166667,
            "velocity": 44,
            "duration": 0.1017156354166655
          },
          {
            "pitch": 36,
            "start": 11.726709822916668,
            "end": 11.828425458333335,
            "velocity": 55,
            "duration": 0.10171563541666728
          },
          {
            "pitch": 42,
            "start": 11.734062760416668,
            "end": 11.835778395833334,
            "velocity": 81,
            "duration": 0.1017156354166655
          },
          {
            "pitch": 42,
            "start": 12.037984177083334,
            "end": 12.139699812500002,
            "velocity": 81,
            "duration": 0.10171563541666728
          },
          {
            "pitch": 40,
            "start": 12.332101677083335,
            "end": 12.432591822916667,
            "velocity": 127,
            "duration": 0.10049014583333182
          },
          {
            "pitch": 22,
            "start": 12.346807552083334,
            "end": 12.447297697916667,
            "velocity": 108,
            "duration": 0.1004901458333336
          },
          {
            "pitch": 42,
            "start": 12.638474072916667,
            "end": 12.740189708333334,
            "velocity": 41,
            "duration": 0.10171563541666728
          },
          {
            "pitch": 42,
            "start": 12.910532760416668,
            "end": 13.012248395833334,
            "velocity": 47,
            "duration": 0.1017156354166655
          },
          {
            "pitch": 38,
            "start": 13.058817000000001,
            "end": 13.159307145833335,
            "velocity": 13,
            "duration": 0.1004901458333336
          },
          {
            "pitch": 42,
            "start": 13.177689489583335,
            "end": 13.280630614583334,
            "velocity": 59,
            "duration": 0.10294112499999919
          },
          {
            "pitch": 36,
            "start": 13.188718895833334,
            "end": 13.290434531250002,
            "velocity": 56,
            "duration": 0.10171563541666728
          },
          {
            "pitch": 40,
            "start": 13.493865802083334,
            "end": 13.594355947916668,
            "velocity": 127,
            "duration": 0.1004901458333336
          },
          {
            "pitch": 22,
            "start": 13.496316781250002,
            "end": 13.598032416666667,
            "velocity": 127,
            "duration": 0.1017156354166655
          },
          {
            "pitch": 22,
            "start": 13.795336239583335,
            "end": 13.897051875,
            "velocity": 109,
            "duration": 0.1017156354166655
          },
          {
            "pitch": 36,
            "start": 13.95219890625,
            "end": 14.052689052083334,
            "velocity": 46,
            "duration": 0.1004901458333336
          },
          {
            "pitch": 38,
            "start": 13.974257718750001,
            "end": 14.074747864583335,
            "velocity": 10,
            "duration": 0.1004901458333336
          },
          {
            "pitch": 36,
            "start": 14.090679229166668,
            "end": 14.191169375000001,
            "velocity": 107,
            "duration": 0.1004901458333336
          },
          {
            "pitch": 42,
            "start": 14.099257656250002,
            "end": 14.200973291666667,
            "velocity": 64,
            "duration": 0.1017156354166655
          },
          {
            "pitch": 42,
            "start": 14.377443791666668,
            "end": 14.477933937500001,
            "velocity": 76,
            "duration": 0.1004901458333336
          },
          {
            "pitch": 40,
            "start": 14.672786781250002,
            "end": 14.774502416666667,
            "velocity": 127,
            "duration": 0.1017156354166655
          },
          {
            "pitch": 42,
            "start": 14.683816187500002,
            "end": 14.785531822916667,
            "velocity": 98,
            "duration": 0.1017156354166655
          },
          {
            "pitch": 42,
            "start": 14.993865052083335,
            "end": 15.095580687500002,
            "velocity": 71,
            "duration": 0.10171563541666728
          },
          {
            "pitch": 38,
            "start": 15.159306145833334,
            "end": 15.259796291666667,
            "velocity": 7,
            "duration": 0.1004901458333336
          },
          {
            "pitch": 42,
            "start": 15.279404125000001,
            "end": 15.381119760416668,
            "velocity": 46,
            "duration": 0.10171563541666728
          },
          {
            "pitch": 38,
            "start": 15.453423645833334,
            "end": 15.555139281250002,
            "velocity": 8,
            "duration": 0.10171563541666728
          },
          {
            "pitch": 36,
            "start": 15.567394177083335,
            "end": 15.667884322916668,
            "velocity": 63,
            "duration": 0.1004901458333336
          },
          {
            "pitch": 42,
            "start": 15.567394177083335,
            "end": 15.667884322916668,
            "velocity": 62,
            "duration": 0.1004901458333336
          },
          {
            "pitch": 40,
            "start": 15.863962656250001,
            "end": 15.964452802083335,
            "velocity": 127,
            "duration": 0.1004901458333336
          },
          {
            "pitch": 22,
            "start": 15.868864614583334,
            "end": 15.970580250000001,
            "velocity": 85,
            "duration": 0.10171563541666728
          },
          {
            "pitch": 42,
            "start": 16.174011520833336,
            "end": 16.27572715625,
            "velocity": 75,
            "duration": 0.10171563541666373
          },
          {
            "pitch": 36,
            "start": 16.32229576041667,
            "end": 16.424011395833336,
            "velocity": 41,
            "duration": 0.10171563541666728
          },
          {
            "pitch": 36,
            "start": 16.43626629166667,
            "end": 16.536756437500003,
            "velocity": 58,
            "duration": 0.1004901458333336
          },
          {
            "pitch": 42,
            "start": 16.46200157291667,
            "end": 16.56249171875,
            "velocity": 64,
            "duration": 0.10049014583333005
          },
          {
            "pitch": 42,
            "start": 16.747540645833336,
            "end": 16.84803079166667,
            "velocity": 84,
            "duration": 0.1004901458333336
          },
          {
            "pitch": 40,
            "start": 17.05758951041667,
            "end": 17.159305145833336,
            "velocity": 127,
            "duration": 0.10171563541666728
          },
          {
            "pitch": 42,
            "start": 17.064942447916668,
            "end": 17.16543259375,
            "velocity": 86,
            "duration": 0.1004901458333336
          },
          {
            "pitch": 42,
            "start": 17.356608968750002,
            "end": 17.458324604166666,
            "velocity": 76,
            "duration": 0.10171563541666373
          },
          {
            "pitch": 42,
            "start": 17.64705,
            "end": 17.747540145833334,
            "velocity": 55,
            "duration": 0.1004901458333336
          },
          {
            "pitch": 38,
            "start": 17.794108750000003,
            "end": 17.894598895833333,
            "velocity": 25,
            "duration": 0.10049014583333005
          },
          {
            "pitch": 36,
            "start": 17.926461625,
            "end": 18.02817726041667,
            "velocity": 74,
            "duration": 0.10171563541666728
          },
          {
            "pitch": 42,
            "start": 17.926461625,
            "end": 18.02817726041667,
            "velocity": 60,
            "duration": 0.10171563541666728
          },
          {
            "pitch": 22,
            "start": 18.218128145833333,
            "end": 18.318618291666667,
            "velocity": 74,
            "duration": 0.1004901458333336
          },
          {
            "pitch": 40,
            "start": 18.218128145833333,
            "end": 18.318618291666667,
            "velocity": 127,
            "duration": 0.1004901458333336
          },
          {
            "pitch": 22,
            "start": 18.515922114583336,
            "end": 18.61763775,
            "velocity": 91,
            "duration": 0.10171563541666373
          },
          {
            "pitch": 36,
            "start": 18.661755375000002,
            "end": 18.76347101041667,
            "velocity": 41,
            "duration": 0.10171563541666728
          },
          {
            "pitch": 36,
            "start": 18.803912166666667,
            "end": 18.9044023125,
            "velocity": 88,
            "duration": 0.1004901458333336
          },
          {
            "pitch": 42,
            "start": 18.81126510416667,
            "end": 18.912980739583336,
            "velocity": 68,
            "duration": 0.10171563541666728
          },
          {
            "pitch": 42,
            "start": 19.111510052083336,
            "end": 19.213225687500003,
            "velocity": 103,
            "duration": 0.10171563541666728
          },
          {
            "pitch": 40,
            "start": 19.39950010416667,
            "end": 19.49999025,
            "velocity": 112,
            "duration": 0.10049014583333005
          },
          {
            "pitch": 42,
            "start": 19.408078531250002,
            "end": 19.508568677083336,
            "velocity": 117,
            "duration": 0.1004901458333336
          },
          {
            "pitch": 42,
            "start": 19.709548968750003,
            "end": 19.811264604166666,
            "velocity": 76,
            "duration": 0.10171563541666373
          },
          {
            "pitch": 38,
            "start": 19.8749900625,
            "end": 19.975480208333334,
            "velocity": 8,
            "duration": 0.1004901458333336
          },
          {
            "pitch": 42,
            "start": 19.996313531250003,
            "end": 20.098029166666667,
            "velocity": 54,
            "duration": 0.10171563541666373
          },
          {
            "pitch": 38,
            "start": 20.162980114583334,
            "end": 20.263470260416668,
            "velocity": 31,
            "duration": 0.1004901458333336
          },
          {
            "pitch": 36,
            "start": 20.2867545625,
            "end": 20.38601921875,
            "velocity": 106,
            "duration": 0.09926465624999992
          },
          {
            "pitch": 42,
            "start": 20.284303583333333,
            "end": 20.38601921875,
            "velocity": 77,
            "duration": 0.10171563541666728
          },
          {
            "pitch": 40,
            "start": 20.578421083333335,
            "end": 20.67891122916667,
            "velocity": 127,
            "duration": 0.1004901458333336
          },
          {
            "pitch": 42,
            "start": 20.582097552083336,
            "end": 20.6838131875,
            "velocity": 79,
            "duration": 0.10171563541666373
          },
          {
            "pitch": 42,
            "start": 20.876215052083335,
            "end": 20.977930687500002,
            "velocity": 104,
            "duration": 0.10171563541666728
          },
          {
            "pitch": 36,
            "start": 21.029401250000003,
            "end": 21.129891395833337,
            "velocity": 45,
            "duration": 0.1004901458333336
          },
          {
            "pitch": 36,
            "start": 21.170332552083334,
            "end": 21.2720481875,
            "velocity": 115,
            "duration": 0.10171563541666728
          },
          {
            "pitch": 42,
            "start": 21.170332552083334,
            "end": 21.2720481875,
            "velocity": 76,
            "duration": 0.10171563541666728
          },
          {
            "pitch": 22,
            "start": 21.464450052083336,
            "end": 21.5661656875,
            "velocity": 89,
            "duration": 0.10171563541666373
          },
          {
            "pitch": 40,
            "start": 21.770822447916668,
            "end": 21.87131259375,
            "velocity": 127,
            "duration": 0.1004901458333336
          },
          {
            "pitch": 42,
            "start": 21.779400875,
            "end": 21.881116510416668,
            "velocity": 70,
            "duration": 0.10171563541666728
          },
          {
            "pitch": 42,
            "start": 22.078420333333334,
            "end": 22.18013596875,
            "velocity": 77,
            "duration": 0.10171563541666728
          },
          {
            "pitch": 38,
            "start": 22.247537895833336,
            "end": 22.34802804166667,
            "velocity": 11,
            "duration": 0.1004901458333336
          },
          {
            "pitch": 42,
            "start": 22.354155489583334,
            "end": 22.454645635416668,
            "velocity": 64,
            "duration": 0.1004901458333336
          },
          {
            "pitch": 38,
            "start": 22.511018156250003,
            "end": 22.612733791666667,
            "velocity": 26,
            "duration": 0.10171563541666373
          },
          {
            "pitch": 36,
            "start": 22.63111613541667,
            "end": 22.731606281250002,
            "velocity": 92,
            "duration": 0.1004901458333336
          },
          {
            "pitch": 42,
            "start": 22.638469072916667,
            "end": 22.740184708333334,
            "velocity": 66,
            "duration": 0.10171563541666728
          },
          {
            "pitch": 40,
            "start": 22.92155716666667,
            "end": 23.022047312500003,
            "velocity": 127,
            "duration": 0.1004901458333336
          },
          {
            "pitch": 42,
            "start": 22.933812062500003,
            "end": 23.034302208333337,
            "velocity": 99,
            "duration": 0.1004901458333336
          },
          {
            "pitch": 42,
            "start": 23.210772708333334,
            "end": 23.31248834375,
            "velocity": 127,
            "duration": 0.10171563541666728
          },
          {
            "pitch": 36,
            "start": 23.390919677083335,
            "end": 23.49140982291667,
            "velocity": 46,
            "duration": 0.1004901458333336
          },
          {
            "pitch": 38,
            "start": 23.4338118125,
            "end": 23.534301958333334,
            "velocity": 21,
            "duration": 0.1004901458333336
          },
          {
            "pitch": 36,
            "start": 23.503664718750002,
            "end": 23.604154864583336,
            "velocity": 77,
            "duration": 0.1004901458333336
          },
          {
            "pitch": 42,
            "start": 23.508566677083333,
            "end": 23.6102823125,
            "velocity": 82,
            "duration": 0.10171563541666728
          },
          {
            "pitch": 42,
            "start": 23.796556729166667,
            "end": 23.898272364583335,
            "velocity": 92,
            "duration": 0.10171563541666728
          },
          {
            "pitch": 40,
            "start": 24.07964482291667,
            "end": 24.181360458333334,
            "velocity": 127,
            "duration": 0.10171563541666373
          },
          {
            "pitch": 42,
            "start": 24.093125208333333,
            "end": 24.193615354166667,
            "velocity": 90,
            "duration": 0.1004901458333336
          },
          {
            "pitch": 42,
            "start": 24.394595645833334,
            "end": 24.49631128125,
            "velocity": 97,
            "duration": 0.10171563541666728
          },
          {
            "pitch": 42,
            "start": 24.67523276041667,
            "end": 24.776948395833337,
            "velocity": 64,
            "duration": 0.10171563541666728
          },
          {
            "pitch": 38,
            "start": 24.846801302083335,
            "end": 24.94729144791667,
            "velocity": 12,
            "duration": 0.1004901458333336
          },
          {
            "pitch": 42,
            "start": 24.95832085416667,
            "end": 25.060036489583336,
            "velocity": 64,
            "duration": 0.10171563541666728
          },
          {
            "pitch": 36,
            "start": 24.974252218750003,
            "end": 25.07596785416667,
            "velocity": 107,
            "duration": 0.10171563541666728
          },
          {
            "pitch": 40,
            "start": 25.272046187500003,
            "end": 25.372536333333336,
            "velocity": 127,
            "duration": 0.1004901458333336
          },
          {
            "pitch": 42,
            "start": 25.273271677083336,
            "end": 25.374987312500004,
            "velocity": 103,
            "duration": 0.10171563541666728
          },
          {
            "pitch": 38,
            "start": 25.349252031250003,
            "end": 25.401948083333334,
            "velocity": 37,
            "duration": 0.05269605208333061
          },
          {
            "pitch": 38,
            "start": 25.401948083333334,
            "end": 25.449742177083333,
            "velocity": 16,
            "duration": 0.04779409374999943
          },
          {
            "pitch": 42,
            "start": 25.575967604166667,
            "end": 25.677683239583335,
            "velocity": 117,
            "duration": 0.10171563541666728
          },
          {
            "pitch": 36,
            "start": 25.76101653125,
            "end": 25.861506677083334,
            "velocity": 49,
            "duration": 0.1004901458333336
          },
          {
            "pitch": 36,
            "start": 25.867634125000002,
            "end": 25.96934976041667,
            "velocity": 65,
            "duration": 0.10171563541666728
          },
          {
            "pitch": 42,
            "start": 25.872536083333337,
            "end": 25.97425171875,
            "velocity": 75,
            "duration": 0.10171563541666373
          },
          {
            "pitch": 42,
            "start": 26.170330052083337,
            "end": 26.2720456875,
            "velocity": 125,
            "duration": 0.10171563541666373
          },
          {
            "pitch": 40,
            "start": 26.473025979166668,
            "end": 26.573516125,
            "velocity": 113,
            "duration": 0.1004901458333336
          },
          {
            "pitch": 42,
            "start": 26.48037891666667,
            "end": 26.582094552083337,
            "velocity": 98,
            "duration": 0.10171563541666728
          },
          {
            "pitch": 42,
            "start": 26.781849354166667,
            "end": 26.8823395,
            "velocity": 77,
            "duration": 0.1004901458333336
          },
          {
            "pitch": 37,
            "start": 26.942388489583337,
            "end": 27.044104125,
            "velocity": 20,
            "duration": 0.10171563541666373
          },
          {
            "pitch": 42,
            "start": 27.062486468750002,
            "end": 27.16420210416667,
            "velocity": 61,
            "duration": 0.10171563541666728
          },
          {
            "pitch": 38,
            "start": 27.23160403125,
            "end": 27.332094177083334,
            "velocity": 19,
            "duration": 0.1004901458333336
          },
          {
            "pitch": 26,
            "start": 27.350476520833336,
            "end": 27.452192156250003,
            "velocity": 85,
            "duration": 0.10171563541666728
          },
          {
            "pitch": 36,
            "start": 27.354152989583337,
            "end": 27.455868625,
            "velocity": 127,
            "duration": 0.10171563541666373
          },
          {
            "pitch": 44,
            "start": 27.610280312500002,
            "end": 27.710770458333336,
            "velocity": 57,
            "duration": 0.1004901458333336
          },
          {
            "pitch": 40,
            "start": 27.64949597916667,
            "end": 27.751211614583337,
            "velocity": 127,
            "duration": 0.10171563541666728
          },
          {
            "pitch": 22,
            "start": 27.659299895833335,
            "end": 27.75979004166667,
            "velocity": 94,
            "duration": 0.1004901458333336
          },
          {
            "pitch": 42,
            "start": 27.955868375,
            "end": 28.05758401041667,
            "velocity": 66,
            "duration": 0.10171563541666728
          },
          {
            "pitch": 36,
            "start": 28.124985937500004,
            "end": 28.225476083333337,
            "velocity": 43,
            "duration": 0.1004901458333336
          },
          {
            "pitch": 36,
            "start": 28.23895646875,
            "end": 28.340672104166668,
            "velocity": 73,
            "duration": 0.10171563541666728
          },
          {
            "pitch": 42,
            "start": 28.241407447916668,
            "end": 28.343123083333335,
            "velocity": 77,
            "duration": 0.10171563541666728
          },
          {
            "pitch": 42,
            "start": 28.54042690625,
            "end": 28.64214254166667,
            "velocity": 86,
            "duration": 0.10171563541666728
          },
          {
            "pitch": 40,
            "start": 28.81861304166667,
            "end": 28.920328677083337,
            "velocity": 127,
            "duration": 0.10171563541666728
          },
          {
            "pitch": 42,
            "start": 28.834544406250004,
            "end": 28.936260041666667,
            "velocity": 82,
            "duration": 0.10171563541666373
          },
          {
            "pitch": 42,
            "start": 29.1249854375,
            "end": 29.22670107291667,
            "velocity": 64,
            "duration": 0.10171563541666728
          },
          {
            "pitch": 38,
            "start": 29.287975552083335,
            "end": 29.38846569791667,
            "velocity": 7,
            "duration": 0.1004901458333336
          },
          {
            "pitch": 42,
            "start": 29.40317157291667,
            "end": 29.503661718750003,
            "velocity": 54,
            "duration": 0.1004901458333336
          },
          {
            "pitch": 38,
            "start": 29.551455812500002,
            "end": 29.651945958333336,
            "velocity": 15,
            "duration": 0.1004901458333336
          },
          {
            "pitch": 36,
            "start": 29.670328302083334,
            "end": 29.770818447916668,
            "velocity": 71,
            "duration": 0.1004901458333336
          },
          {
            "pitch": 42,
            "start": 29.677681239583336,
            "end": 29.77817138541667,
            "velocity": 55,
            "duration": 0.1004901458333336
          },
          {
            "pitch": 40,
            "start": 29.975475208333336,
            "end": 30.077190843750003,
            "velocity": 127,
            "duration": 0.10171563541666728
          },
          {
            "pitch": 22,
            "start": 29.979151677083337,
            "end": 30.0808673125,
            "velocity": 87,
            "duration": 0.10171563541666373
          },
          {
            "pitch": 38,
            "start": 30.111504552083336,
            "end": 30.213220187500003,
            "velocity": 10,
            "duration": 0.10171563541666728
          },
          {
            "pitch": 42,
            "start": 30.25978879166667,
            "end": 30.361504427083336,
            "velocity": 71,
            "duration": 0.10171563541666728
          },
          {
            "pitch": 36,
            "start": 30.43625929166667,
            "end": 30.536749437500003,
            "velocity": 45,
            "duration": 0.1004901458333336
          },
          {
            "pitch": 36,
            "start": 30.56125922916667,
            "end": 30.661749375000003,
            "velocity": 73,
            "duration": 0.1004901458333336
          },
          {
            "pitch": 42,
            "start": 30.577190593750004,
            "end": 30.677680739583337,
            "velocity": 61,
            "duration": 0.1004901458333336
          },
          {
            "pitch": 42,
            "start": 30.87008260416667,
            "end": 30.971798239583336,
            "velocity": 92,
            "duration": 0.10171563541666728
          },
          {
            "pitch": 40,
            "start": 31.166651083333335,
            "end": 31.26714122916667,
            "velocity": 127,
            "duration": 0.1004901458333336
          },
          {
            "pitch": 42,
            "start": 31.187484406250004,
            "end": 31.289200041666668,
            "velocity": 77,
            "duration": 0.10171563541666373
          },
          {
            "pitch": 42,
            "start": 31.48037641666667,
            "end": 31.582092052083336,
            "velocity": 90,
            "duration": 0.10171563541666728
          },
          {
            "pitch": 38,
            "start": 31.629886145833336,
            "end": 31.73037629166667,
            "velocity": 10,
            "duration": 0.1004901458333336
          },
          {
            "pitch": 42,
            "start": 31.773268427083334,
            "end": 31.873758572916667,
            "velocity": 57,
            "duration": 0.1004901458333336
          },
          {
            "pitch": 38,
            "start": 31.916650708333336,
            "end": 32.01714085416667,
            "velocity": 15,
            "duration": 0.1004901458333336
          },
          {
            "pitch": 42,
            "start": 32.04042515625,
            "end": 32.14214079166667,
            "velocity": 65,
            "duration": 0.10171563541666728
          },
          {
            "pitch": 36,
            "start": 32.04287613541667,
            "end": 32.14336628125,
            "velocity": 115,
            "duration": 0.1004901458333336
          },
          {
            "pitch": 40,
            "start": 32.338219125,
            "end": 32.438709270833336,
            "velocity": 127,
            "duration": 0.1004901458333336
          },
          {
            "pitch": 22,
            "start": 32.34189559375,
            "end": 32.44361122916667,
            "velocity": 100,
            "duration": 0.10171563541666728
          },
          {
            "pitch": 42,
            "start": 32.632336625,
            "end": 32.73405226041667,
            "velocity": 82,
            "duration": 0.10171563541666728
          },
          {
            "pitch": 36,
            "start": 32.82106202083334,
            "end": 32.92155216666667,
            "velocity": 43,
            "duration": 0.1004901458333336
          },
          {
            "pitch": 42,
            "start": 32.93258157291667,
            "end": 33.034297208333335,
            "velocity": 82,
            "duration": 0.10171563541666728
          },
          {
            "pitch": 36,
            "start": 32.93748353125,
            "end": 33.037973677083336,
            "velocity": 61,
            "duration": 0.1004901458333336
          },
          {
            "pitch": 42,
            "start": 33.23037554166667,
            "end": 33.332091177083335,
            "velocity": 86,
            "duration": 0.10171563541666728
          },
          {
            "pitch": 40,
            "start": 33.52326755208333,
            "end": 33.623757697916666,
            "velocity": 127,
            "duration": 0.1004901458333336
          },
          {
            "pitch": 42,
            "start": 33.53307146875,
            "end": 33.63478710416667,
            "velocity": 88,
            "duration": 0.10171563541666728
          },
          {
            "pitch": 42,
            "start": 33.828414458333334,
            "end": 33.93013009375,
            "velocity": 80,
            "duration": 0.10171563541666728
          },
          {
            "pitch": 38,
            "start": 34.00243397916667,
            "end": 34.102924125,
            "velocity": 10,
            "duration": 0.1004901458333336
          },
          {
            "pitch": 42,
            "start": 34.11150255208334,
            "end": 34.213218187500004,
            "velocity": 45,
            "duration": 0.10171563541666728
          },
          {
            "pitch": 38,
            "start": 34.27816913541667,
            "end": 34.37865928125,
            "velocity": 18,
            "duration": 0.1004901458333336
          },
          {
            "pitch": 36,
            "start": 34.37865928125,
            "end": 34.479149427083335,
            "velocity": 93,
            "duration": 0.1004901458333336
          },
          {
            "pitch": 42,
            "start": 34.39459064583333,
            "end": 34.49630628125,
            "velocity": 76,
            "duration": 0.10171563541666728
          },
          {
            "pitch": 40,
            "start": 34.691159125000006,
            "end": 34.79164927083334,
            "velocity": 127,
            "duration": 0.1004901458333336
          },
          {
            "pitch": 22,
            "start": 34.69728657291667,
            "end": 34.79777671875,
            "velocity": 88,
            "duration": 0.1004901458333336
          },
          {
            "pitch": 22,
            "start": 34.997531520833334,
            "end": 35.09924715625,
            "velocity": 78,
            "duration": 0.10171563541666728
          },
          {
            "pitch": 36,
            "start": 35.1691000625,
            "end": 35.269590208333334,
            "velocity": 42,
            "duration": 0.1004901458333336
          },
          {
            "pitch": 36,
            "start": 35.2941,
            "end": 35.394590145833334,
            "velocity": 55,
            "duration": 0.1004901458333336
          },
          {
            "pitch": 42,
            "start": 35.295325489583334,
            "end": 35.394590145833334,
            "velocity": 72,
            "duration": 0.09926465624999992
          },
          {
            "pitch": 42,
            "start": 35.588217500000006,
            "end": 35.689933135416666,
            "velocity": 71,
            "duration": 0.10171563541666018
          },
          {
            "pitch": 40,
            "start": 35.87743304166667,
            "end": 35.977923187500004,
            "velocity": 127,
            "duration": 0.1004901458333336
          },
          {
            "pitch": 22,
            "start": 35.88110951041667,
            "end": 35.98282514583334,
            "velocity": 110,
            "duration": 0.10171563541666728
          },
          {
            "pitch": 22,
            "start": 36.17277603125,
            "end": 36.273266177083336,
            "velocity": 86,
            "duration": 0.1004901458333336
          },
          {
            "pitch": 38,
            "start": 36.330864187500005,
            "end": 36.43135433333334,
            "velocity": 7,
            "duration": 0.1004901458333336
          },
          {
            "pitch": 22,
            "start": 36.4632170625,
            "end": 36.563707208333334,
            "velocity": 56,
            "duration": 0.1004901458333336
          },
          {
            "pitch": 38,
            "start": 36.6102758125,
            "end": 36.71199144791667,
            "velocity": 113,
            "duration": 0.10171563541666728
          },
          {
            "pitch": 44,
            "start": 36.69483459375,
            "end": 36.795324739583336,
            "velocity": 60,
            "duration": 0.1004901458333336
          },
          {
            "pitch": 48,
            "start": 36.887236458333334,
            "end": 36.98772660416667,
            "velocity": 117,
            "duration": 0.1004901458333336
          },
          {
            "pitch": 44,
            "start": 36.98282464583333,
            "end": 37.083314791666666,
            "velocity": 62,
            "duration": 0.1004901458333336
          },
          {
            "pitch": 48,
            "start": 37.02694227083334,
            "end": 37.128657906250005,
            "velocity": 127,
            "duration": 0.10171563541666728
          },
          {
            "pitch": 43,
            "start": 37.1690990625,
            "end": 37.269589208333336,
            "velocity": 96,
            "duration": 0.1004901458333336
          },
          {
            "pitch": 44,
            "start": 37.27816763541667,
            "end": 37.378657781250006,
            "velocity": 77,
            "duration": 0.1004901458333336
          },
          {
            "pitch": 43,
            "start": 37.31125585416667,
            "end": 37.412971489583335,
            "velocity": 89,
            "duration": 0.10171563541666728
          },
          {
            "pitch": 43,
            "start": 37.45831460416667,
            "end": 37.560030239583334,
            "velocity": 112,
            "duration": 0.10171563541666728
          },
          {
            "pitch": 36,
            "start": 37.589441989583335,
            "end": 37.691157625,
            "velocity": 127,
            "duration": 0.10171563541666728
          }
        ],
        "melodic_notes": [],
        "instruments": [
          {
            "program": "0",
            "is_drum": true,
            "name": "MIDI",
            "note_count": 247
          }
        ],
        "duration": 37.691157625,
        "tempo_changes": 0
      },
      {
        "file_path": "/mnt/hdd/drum-tranxn/e-gmd-v1.0.0/drummer1/eval_session/10_soul-groove10_102_beat_4-4_13.midi",
        "total_notes": 247,
        "drum_notes": [
          {
            "pitch": 22,
            "start": 0.0,
            "end": 0.08700976041666668,
            "velocity": 99,
            "duration": 0.08700976041666668
          },
          {
            "pitch": 36,
            "start": 0.0,
            "end": 0.08700976041666668,
            "velocity": 127,
            "duration": 0.08700976041666668
          },
          {
            "pitch": 42,
            "start": 0.28799005208333334,
            "end": 0.3884801979166667,
            "velocity": 21,
            "duration": 0.10049014583333338
          },
          {
            "pitch": 40,
            "start": 0.5649506979166667,
            "end": 0.66544084375,
            "velocity": 127,
            "duration": 0.10049014583333327
          },
          {
            "pitch": 42,
            "start": 0.5735291250000001,
            "end": 0.6752447604166667,
            "velocity": 75,
            "duration": 0.10171563541666662
          },
          {
            "pitch": 38,
            "start": 0.7034310208333334,
            "end": 0.8039211666666667,
            "velocity": 8,
            "duration": 0.10049014583333327
          },
          {
            "pitch": 42,
            "start": 0.8909309270833334,
            "end": 0.9926465625,
            "velocity": 75,
            "duration": 0.10171563541666662
          },
          {
            "pitch": 42,
            "start": 1.1887248958333334,
            "end": 1.29044053125,
            "velocity": 77,
            "duration": 0.10171563541666662
          },
          {
            "pitch": 36,
            "start": 1.4583326041666669,
            "end": 1.5600482395833335,
            "velocity": 127,
            "duration": 0.10171563541666662
          },
          {
            "pitch": 42,
            "start": 1.4779404375,
            "end": 1.5784305833333334,
            "velocity": 63,
            "duration": 0.10049014583333338
          },
          {
            "pitch": 40,
            "start": 1.7647050000000002,
            "end": 1.8651951458333336,
            "velocity": 127,
            "duration": 0.10049014583333338
          },
          {
            "pitch": 42,
            "start": 1.7659304895833334,
            "end": 1.867646125,
            "velocity": 85,
            "duration": 0.10171563541666662
          },
          {
            "pitch": 38,
            "start": 1.8492637812500001,
            "end": 1.9056363020833336,
            "velocity": 28,
            "duration": 0.05637252083333344
          },
          {
            "pitch": 38,
            "start": 1.9056363020833336,
            "end": 1.9497539270833335,
            "velocity": 10,
            "duration": 0.04411762499999994
          },
          {
            "pitch": 42,
            "start": 2.05514603125,
            "end": 2.1556361770833337,
            "velocity": 83,
            "duration": 0.1004901458333336
          },
          {
            "pitch": 36,
            "start": 2.237743979166667,
            "end": 2.3394596145833333,
            "velocity": 44,
            "duration": 0.1017156354166664
          },
          {
            "pitch": 36,
            "start": 2.3504890208333333,
            "end": 2.450979166666667,
            "velocity": 84,
            "duration": 0.1004901458333336
          },
          {
            "pitch": 42,
            "start": 2.3578419583333337,
            "end": 2.45955759375,
            "velocity": 82,
            "duration": 0.1017156354166664
          },
          {
            "pitch": 42,
            "start": 2.642155541666667,
            "end": 2.7438711770833337,
            "velocity": 88,
            "duration": 0.10171563541666684
          },
          {
            "pitch": 40,
            "start": 2.9227926562500004,
            "end": 3.0232828020833336,
            "velocity": 127,
            "duration": 0.10049014583333316
          },
          {
            "pitch": 42,
            "start": 2.9338220625,
            "end": 3.035537697916667,
            "velocity": 103,
            "duration": 0.10171563541666684
          },
          {
            "pitch": 42,
            "start": 3.2279395625,
            "end": 3.329655197916667,
            "velocity": 60,
            "duration": 0.10171563541666684
          },
          {
            "pitch": 42,
            "start": 3.50367471875,
            "end": 3.6041648645833337,
            "velocity": 48,
            "duration": 0.1004901458333336
          },
          {
            "pitch": 36,
            "start": 3.7769588958333338,
            "end": 3.877449041666667,
            "velocity": 127,
            "duration": 0.10049014583333316
          },
          {
            "pitch": 42,
            "start": 3.7818608541666667,
            "end": 3.8835764895833336,
            "velocity": 52,
            "duration": 0.10171563541666684
          },
          {
            "pitch": 40,
            "start": 4.080880312500001,
            "end": 4.181370458333333,
            "velocity": 127,
            "duration": 0.10049014583333271
          },
          {
            "pitch": 22,
            "start": 4.08823325,
            "end": 4.188723395833334,
            "velocity": 79,
            "duration": 0.1004901458333336
          },
          {
            "pitch": 42,
            "start": 4.395831135416667,
            "end": 4.49632128125,
            "velocity": 70,
            "duration": 0.1004901458333336
          },
          {
            "pitch": 36,
            "start": 4.564948697916667,
            "end": 4.6654388437500005,
            "velocity": 43,
            "duration": 0.1004901458333336
          },
          {
            "pitch": 42,
            "start": 4.68014471875,
            "end": 4.781860354166667,
            "velocity": 70,
            "duration": 0.1017156354166664
          },
          {
            "pitch": 36,
            "start": 4.6838211875,
            "end": 4.785536822916667,
            "velocity": 82,
            "duration": 0.1017156354166664
          },
          {
            "pitch": 42,
            "start": 4.973036729166667,
            "end": 5.0747523645833335,
            "velocity": 87,
            "duration": 0.1017156354166664
          },
          {
            "pitch": 40,
            "start": 5.28308559375,
            "end": 5.383575739583334,
            "velocity": 127,
            "duration": 0.1004901458333336
          },
          {
            "pitch": 42,
            "start": 5.2867620625,
            "end": 5.388477697916667,
            "velocity": 83,
            "duration": 0.1017156354166664
          },
          {
            "pitch": 38,
            "start": 5.414212979166667,
            "end": 5.450977666666667,
            "velocity": 10,
            "duration": 0.03676468749999984
          },
          {
            "pitch": 38,
            "start": 5.450977666666667,
            "end": 5.5147031250000005,
            "velocity": 7,
            "duration": 0.06372545833333376
          },
          {
            "pitch": 42,
            "start": 5.593134458333334,
            "end": 5.693624604166667,
            "velocity": 57,
            "duration": 0.10049014583333271
          },
          {
            "pitch": 42,
            "start": 5.863967656250001,
            "end": 5.964457802083333,
            "velocity": 61,
            "duration": 0.10049014583333271
          },
          {
            "pitch": 38,
            "start": 6.012251895833334,
            "end": 6.112742041666667,
            "velocity": 23,
            "duration": 0.1004901458333336
          },
          {
            "pitch": 42,
            "start": 6.140928302083334,
            "end": 6.2426439375000005,
            "velocity": 59,
            "duration": 0.1017156354166664
          },
          {
            "pitch": 36,
            "start": 6.149506729166667,
            "end": 6.249996875000001,
            "velocity": 127,
            "duration": 0.1004901458333336
          },
          {
            "pitch": 40,
            "start": 6.4448497187500005,
            "end": 6.545339864583334,
            "velocity": 127,
            "duration": 0.1004901458333336
          },
          {
            "pitch": 22,
            "start": 6.449751677083333,
            "end": 6.551467312500001,
            "velocity": 90,
            "duration": 0.10171563541666728
          },
          {
            "pitch": 38,
            "start": 6.573526125000001,
            "end": 6.675241760416667,
            "velocity": 14,
            "duration": 0.1017156354166664
          },
          {
            "pitch": 22,
            "start": 6.7426436875,
            "end": 6.8443593229166675,
            "velocity": 77,
            "duration": 0.10171563541666728
          },
          {
            "pitch": 36,
            "start": 6.939947510416667,
            "end": 7.040437656250001,
            "velocity": 46,
            "duration": 0.1004901458333336
          },
          {
            "pitch": 42,
            "start": 7.045339614583334,
            "end": 7.145829760416667,
            "velocity": 70,
            "duration": 0.1004901458333336
          },
          {
            "pitch": 36,
            "start": 7.053918041666667,
            "end": 7.155633677083334,
            "velocity": 55,
            "duration": 0.10171563541666728
          },
          {
            "pitch": 42,
            "start": 7.335780645833334,
            "end": 7.4374962812500005,
            "velocity": 85,
            "duration": 0.1017156354166664
          },
          {
            "pitch": 40,
            "start": 7.624996187500001,
            "end": 7.7254863333333335,
            "velocity": 127,
            "duration": 0.10049014583333271
          },
          {
            "pitch": 42,
            "start": 7.640927552083334,
            "end": 7.741417697916667,
            "velocity": 104,
            "duration": 0.10049014583333271
          },
          {
            "pitch": 42,
            "start": 7.927692114583334,
            "end": 8.02940775,
            "velocity": 76,
            "duration": 0.1017156354166664
          },
          {
            "pitch": 42,
            "start": 8.198525312500001,
            "end": 8.300240947916667,
            "velocity": 57,
            "duration": 0.1017156354166655
          },
          {
            "pitch": 38,
            "start": 8.373770322916668,
            "end": 8.475485958333334,
            "velocity": 27,
            "duration": 0.1017156354166655
          },
          {
            "pitch": 36,
            "start": 8.485289875000001,
            "end": 8.585780020833335,
            "velocity": 127,
            "duration": 0.1004901458333336
          },
          {
            "pitch": 42,
            "start": 8.490191833333334,
            "end": 8.591907468750001,
            "velocity": 76,
            "duration": 0.10171563541666728
          },
          {
            "pitch": 40,
            "start": 8.783083843750001,
            "end": 8.883573989583335,
            "velocity": 127,
            "duration": 0.1004901458333336
          },
          {
            "pitch": 22,
            "start": 8.792887760416667,
            "end": 8.894603395833334,
            "velocity": 114,
            "duration": 0.10171563541666728
          },
          {
            "pitch": 38,
            "start": 8.861515177083334,
            "end": 8.962005322916667,
            "velocity": 33,
            "duration": 0.1004901458333336
          },
          {
            "pitch": 42,
            "start": 9.09190721875,
            "end": 9.193622854166668,
            "velocity": 80,
            "duration": 0.10171563541666728
          },
          {
            "pitch": 36,
            "start": 9.243867927083334,
            "end": 9.3455835625,
            "velocity": 41,
            "duration": 0.1017156354166655
          },
          {
            "pitch": 36,
            "start": 9.372544333333334,
            "end": 9.474259968750001,
            "velocity": 78,
            "duration": 0.10171563541666728
          },
          {
            "pitch": 42,
            "start": 9.401956083333333,
            "end": 9.502446229166667,
            "velocity": 53,
            "duration": 0.1004901458333336
          },
          {
            "pitch": 42,
            "start": 9.686269666666668,
            "end": 9.787985302083333,
            "velocity": 91,
            "duration": 0.1017156354166655
          },
          {
            "pitch": 40,
            "start": 9.977936187500001,
            "end": 10.078426333333335,
            "velocity": 127,
            "duration": 0.1004901458333336
          },
          {
            "pitch": 22,
            "start": 9.999995,
            "end": 10.100485145833334,
            "velocity": 103,
            "duration": 0.1004901458333336
          },
          {
            "pitch": 42,
            "start": 10.289210541666668,
            "end": 10.389700687500001,
            "velocity": 72,
            "duration": 0.1004901458333336
          },
          {
            "pitch": 38,
            "start": 10.458328104166668,
            "end": 10.558818250000002,
            "velocity": 28,
            "duration": 0.1004901458333336
          },
          {
            "pitch": 42,
            "start": 10.567396677083334,
            "end": 10.667886822916667,
            "velocity": 61,
            "duration": 0.1004901458333336
          },
          {
            "pitch": 38,
            "start": 10.726710322916668,
            "end": 10.82720046875,
            "velocity": 31,
            "duration": 0.10049014583333182
          },
          {
            "pitch": 36,
            "start": 10.8455828125,
            "end": 10.946072958333334,
            "velocity": 113,
            "duration": 0.1004901458333336
          },
          {
            "pitch": 42,
            "start": 10.850484770833335,
            "end": 10.95220040625,
            "velocity": 66,
            "duration": 0.1017156354166655
          },
          {
            "pitch": 40,
            "start": 11.14705325,
            "end": 11.247543395833334,
            "velocity": 127,
            "duration": 0.1004901458333336
          },
          {
            "pitch": 22,
            "start": 11.151955208333334,
            "end": 11.253670843750001,
            "velocity": 90,
            "duration": 0.10171563541666728
          },
          {
            "pitch": 22,
            "start": 11.442396239583335,
            "end": 11.544111875,
            "velocity": 82,
            "duration": 0.1017156354166655
          },
          {
            "pitch": 36,
            "start": 11.621317718750001,
            "end": 11.723033354166667,
            "velocity": 44,
            "duration": 0.1017156354166655
          },
          {
            "pitch": 36,
            "start": 11.726709822916668,
            "end": 11.828425458333335,
            "velocity": 55,
            "duration": 0.10171563541666728
          },
          {
            "pitch": 42,
            "start": 11.734062760416668,
            "end": 11.835778395833334,
            "velocity": 81,
            "duration": 0.1017156354166655
          },
          {
            "pitch": 42,
            "start": 12.037984177083334,
            "end": 12.139699812500002,
            "velocity": 81,
            "duration": 0.10171563541666728
          },
          {
            "pitch": 40,
            "start": 12.332101677083335,
            "end": 12.432591822916667,
            "velocity": 127,
            "duration": 0.10049014583333182
          },
          {
            "pitch": 22,
            "start": 12.346807552083334,
            "end": 12.447297697916667,
            "velocity": 108,
            "duration": 0.1004901458333336
          },
          {
            "pitch": 42,
            "start": 12.638474072916667,
            "end": 12.740189708333334,
            "velocity": 41,
            "duration": 0.10171563541666728
          },
          {
            "pitch": 42,
            "start": 12.910532760416668,
            "end": 13.012248395833334,
            "velocity": 47,
            "duration": 0.1017156354166655
          },
          {
            "pitch": 38,
            "start": 13.058817000000001,
            "end": 13.159307145833335,
            "velocity": 13,
            "duration": 0.1004901458333336
          },
          {
            "pitch": 42,
            "start": 13.177689489583335,
            "end": 13.280630614583334,
            "velocity": 59,
            "duration": 0.10294112499999919
          },
          {
            "pitch": 36,
            "start": 13.188718895833334,
            "end": 13.290434531250002,
            "velocity": 56,
            "duration": 0.10171563541666728
          },
          {
            "pitch": 40,
            "start": 13.493865802083334,
            "end": 13.594355947916668,
            "velocity": 127,
            "duration": 0.1004901458333336
          },
          {
            "pitch": 22,
            "start": 13.496316781250002,
            "end": 13.598032416666667,
            "velocity": 127,
            "duration": 0.1017156354166655
          },
          {
            "pitch": 22,
            "start": 13.795336239583335,
            "end": 13.897051875,
            "velocity": 109,
            "duration": 0.1017156354166655
          },
          {
            "pitch": 36,
            "start": 13.95219890625,
            "end": 14.052689052083334,
            "velocity": 46,
            "duration": 0.1004901458333336
          },
          {
            "pitch": 38,
            "start": 13.974257718750001,
            "end": 14.074747864583335,
            "velocity": 10,
            "duration": 0.1004901458333336
          },
          {
            "pitch": 36,
            "start": 14.090679229166668,
            "end": 14.191169375000001,
            "velocity": 107,
            "duration": 0.1004901458333336
          },
          {
            "pitch": 42,
            "start": 14.099257656250002,
            "end": 14.200973291666667,
            "velocity": 64,
            "duration": 0.1017156354166655
          },
          {
            "pitch": 42,
            "start": 14.377443791666668,
            "end": 14.477933937500001,
            "velocity": 76,
            "duration": 0.1004901458333336
          },
          {
            "pitch": 40,
            "start": 14.672786781250002,
            "end": 14.774502416666667,
            "velocity": 127,
            "duration": 0.1017156354166655
          },
          {
            "pitch": 42,
            "start": 14.683816187500002,
            "end": 14.785531822916667,
            "velocity": 98,
            "duration": 0.1017156354166655
          },
          {
            "pitch": 42,
            "start": 14.993865052083335,
            "end": 15.095580687500002,
            "velocity": 71,
            "duration": 0.10171563541666728
          },
          {
            "pitch": 38,
            "start": 15.159306145833334,
            "end": 15.259796291666667,
            "velocity": 7,
            "duration": 0.1004901458333336
          },
          {
            "pitch": 42,
            "start": 15.279404125000001,
            "end": 15.381119760416668,
            "velocity": 46,
            "duration": 0.10171563541666728
          },
          {
            "pitch": 38,
            "start": 15.453423645833334,
            "end": 15.555139281250002,
            "velocity": 8,
            "duration": 0.10171563541666728
          },
          {
            "pitch": 36,
            "start": 15.567394177083335,
            "end": 15.667884322916668,
            "velocity": 63,
            "duration": 0.1004901458333336
          },
          {
            "pitch": 42,
            "start": 15.567394177083335,
            "end": 15.667884322916668,
            "velocity": 62,
            "duration": 0.1004901458333336
          },
          {
            "pitch": 40,
            "start": 15.863962656250001,
            "end": 15.964452802083335,
            "velocity": 127,
            "duration": 0.1004901458333336
          },
          {
            "pitch": 22,
            "start": 15.868864614583334,
            "end": 15.970580250000001,
            "velocity": 85,
            "duration": 0.10171563541666728
          },
          {
            "pitch": 42,
            "start": 16.174011520833336,
            "end": 16.27572715625,
            "velocity": 75,
            "duration": 0.10171563541666373
          },
          {
            "pitch": 36,
            "start": 16.32229576041667,
            "end": 16.424011395833336,
            "velocity": 41,
            "duration": 0.10171563541666728
          },
          {
            "pitch": 36,
            "start": 16.43626629166667,
            "end": 16.536756437500003,
            "velocity": 58,
            "duration": 0.1004901458333336
          },
          {
            "pitch": 42,
            "start": 16.46200157291667,
            "end": 16.56249171875,
            "velocity": 64,
            "duration": 0.10049014583333005
          },
          {
            "pitch": 42,
            "start": 16.747540645833336,
            "end": 16.84803079166667,
            "velocity": 84,
            "duration": 0.1004901458333336
          },
          {
            "pitch": 40,
            "start": 17.05758951041667,
            "end": 17.159305145833336,
            "velocity": 127,
            "duration": 0.10171563541666728
          },
          {
            "pitch": 42,
            "start": 17.064942447916668,
            "end": 17.16543259375,
            "velocity": 86,
            "duration": 0.1004901458333336
          },
          {
            "pitch": 42,
            "start": 17.356608968750002,
            "end": 17.458324604166666,
            "velocity": 76,
            "duration": 0.10171563541666373
          },
          {
            "pitch": 42,
            "start": 17.64705,
            "end": 17.747540145833334,
            "velocity": 55,
            "duration": 0.1004901458333336
          },
          {
            "pitch": 38,
            "start": 17.794108750000003,
            "end": 17.894598895833333,
            "velocity": 25,
            "duration": 0.10049014583333005
          },
          {
            "pitch": 36,
            "start": 17.926461625,
            "end": 18.02817726041667,
            "velocity": 74,
            "duration": 0.10171563541666728
          },
          {
            "pitch": 42,
            "start": 17.926461625,
            "end": 18.02817726041667,
            "velocity": 60,
            "duration": 0.10171563541666728
          },
          {
            "pitch": 22,
            "start": 18.218128145833333,
            "end": 18.318618291666667,
            "velocity": 74,
            "duration": 0.1004901458333336
          },
          {
            "pitch": 40,
            "start": 18.218128145833333,
            "end": 18.318618291666667,
            "velocity": 127,
            "duration": 0.1004901458333336
          },
          {
            "pitch": 22,
            "start": 18.515922114583336,
            "end": 18.61763775,
            "velocity": 91,
            "duration": 0.10171563541666373
          },
          {
            "pitch": 36,
            "start": 18.661755375000002,
            "end": 18.76347101041667,
            "velocity": 41,
            "duration": 0.10171563541666728
          },
          {
            "pitch": 36,
            "start": 18.803912166666667,
            "end": 18.9044023125,
            "velocity": 88,
            "duration": 0.1004901458333336
          },
          {
            "pitch": 42,
            "start": 18.81126510416667,
            "end": 18.912980739583336,
            "velocity": 68,
            "duration": 0.10171563541666728
          },
          {
            "pitch": 42,
            "start": 19.111510052083336,
            "end": 19.213225687500003,
            "velocity": 103,
            "duration": 0.10171563541666728
          },
          {
            "pitch": 40,
            "start": 19.39950010416667,
            "end": 19.49999025,
            "velocity": 112,
            "duration": 0.10049014583333005
          },
          {
            "pitch": 42,
            "start": 19.408078531250002,
            "end": 19.508568677083336,
            "velocity": 117,
            "duration": 0.1004901458333336
          },
          {
            "pitch": 42,
            "start": 19.709548968750003,
            "end": 19.811264604166666,
            "velocity": 76,
            "duration": 0.10171563541666373
          },
          {
            "pitch": 38,
            "start": 19.8749900625,
            "end": 19.975480208333334,
            "velocity": 8,
            "duration": 0.1004901458333336
          },
          {
            "pitch": 42,
            "start": 19.996313531250003,
            "end": 20.098029166666667,
            "velocity": 54,
            "duration": 0.10171563541666373
          },
          {
            "pitch": 38,
            "start": 20.162980114583334,
            "end": 20.263470260416668,
            "velocity": 31,
            "duration": 0.1004901458333336
          },
          {
            "pitch": 36,
            "start": 20.2867545625,
            "end": 20.38601921875,
            "velocity": 106,
            "duration": 0.09926465624999992
          },
          {
            "pitch": 42,
            "start": 20.284303583333333,
            "end": 20.38601921875,
            "velocity": 77,
            "duration": 0.10171563541666728
          },
          {
            "pitch": 40,
            "start": 20.578421083333335,
            "end": 20.67891122916667,
            "velocity": 127,
            "duration": 0.1004901458333336
          },
          {
            "pitch": 42,
            "start": 20.582097552083336,
            "end": 20.6838131875,
            "velocity": 79,
            "duration": 0.10171563541666373
          },
          {
            "pitch": 42,
            "start": 20.876215052083335,
            "end": 20.977930687500002,
            "velocity": 104,
            "duration": 0.10171563541666728
          },
          {
            "pitch": 36,
            "start": 21.029401250000003,
            "end": 21.129891395833337,
            "velocity": 45,
            "duration": 0.1004901458333336
          },
          {
            "pitch": 36,
            "start": 21.170332552083334,
            "end": 21.2720481875,
            "velocity": 115,
            "duration": 0.10171563541666728
          },
          {
            "pitch": 42,
            "start": 21.170332552083334,
            "end": 21.2720481875,
            "velocity": 76,
            "duration": 0.10171563541666728
          },
          {
            "pitch": 22,
            "start": 21.464450052083336,
            "end": 21.5661656875,
            "velocity": 89,
            "duration": 0.10171563541666373
          },
          {
            "pitch": 40,
            "start": 21.770822447916668,
            "end": 21.87131259375,
            "velocity": 127,
            "duration": 0.1004901458333336
          },
          {
            "pitch": 42,
            "start": 21.779400875,
            "end": 21.881116510416668,
            "velocity": 70,
            "duration": 0.10171563541666728
          },
          {
            "pitch": 42,
            "start": 22.078420333333334,
            "end": 22.18013596875,
            "velocity": 77,
            "duration": 0.10171563541666728
          },
          {
            "pitch": 38,
            "start": 22.247537895833336,
            "end": 22.34802804166667,
            "velocity": 11,
            "duration": 0.1004901458333336
          },
          {
            "pitch": 42,
            "start": 22.354155489583334,
            "end": 22.454645635416668,
            "velocity": 64,
            "duration": 0.1004901458333336
          },
          {
            "pitch": 38,
            "start": 22.511018156250003,
            "end": 22.612733791666667,
            "velocity": 26,
            "duration": 0.10171563541666373
          },
          {
            "pitch": 36,
            "start": 22.63111613541667,
            "end": 22.731606281250002,
            "velocity": 92,
            "duration": 0.1004901458333336
          },
          {
            "pitch": 42,
            "start": 22.638469072916667,
            "end": 22.740184708333334,
            "velocity": 66,
            "duration": 0.10171563541666728
          },
          {
            "pitch": 40,
            "start": 22.92155716666667,
            "end": 23.022047312500003,
            "velocity": 127,
            "duration": 0.1004901458333336
          },
          {
            "pitch": 42,
            "start": 22.933812062500003,
            "end": 23.034302208333337,
            "velocity": 99,
            "duration": 0.1004901458333336
          },
          {
            "pitch": 42,
            "start": 23.210772708333334,
            "end": 23.31248834375,
            "velocity": 127,
            "duration": 0.10171563541666728
          },
          {
            "pitch": 36,
            "start": 23.390919677083335,
            "end": 23.49140982291667,
            "velocity": 46,
            "duration": 0.1004901458333336
          },
          {
            "pitch": 38,
            "start": 23.4338118125,
            "end": 23.534301958333334,
            "velocity": 21,
            "duration": 0.1004901458333336
          },
          {
            "pitch": 36,
            "start": 23.503664718750002,
            "end": 23.604154864583336,
            "velocity": 77,
            "duration": 0.1004901458333336
          },
          {
            "pitch": 42,
            "start": 23.508566677083333,
            "end": 23.6102823125,
            "velocity": 82,
            "duration": 0.10171563541666728
          },
          {
            "pitch": 42,
            "start": 23.796556729166667,
            "end": 23.898272364583335,
            "velocity": 92,
            "duration": 0.10171563541666728
          },
          {
            "pitch": 40,
            "start": 24.07964482291667,
            "end": 24.181360458333334,
            "velocity": 127,
            "duration": 0.10171563541666373
          },
          {
            "pitch": 42,
            "start": 24.093125208333333,
            "end": 24.193615354166667,
            "velocity": 90,
            "duration": 0.1004901458333336
          },
          {
            "pitch": 42,
            "start": 24.394595645833334,
            "end": 24.49631128125,
            "velocity": 97,
            "duration": 0.10171563541666728
          },
          {
            "pitch": 42,
            "start": 24.67523276041667,
            "end": 24.776948395833337,
            "velocity": 64,
            "duration": 0.10171563541666728
          },
          {
            "pitch": 38,
            "start": 24.846801302083335,
            "end": 24.94729144791667,
            "velocity": 12,
            "duration": 0.1004901458333336
          },
          {
            "pitch": 42,
            "start": 24.95832085416667,
            "end": 25.060036489583336,
            "velocity": 64,
            "duration": 0.10171563541666728
          },
          {
            "pitch": 36,
            "start": 24.974252218750003,
            "end": 25.07596785416667,
            "velocity": 107,
            "duration": 0.10171563541666728
          },
          {
            "pitch": 40,
            "start": 25.272046187500003,
            "end": 25.372536333333336,
            "velocity": 127,
            "duration": 0.1004901458333336
          },
          {
            "pitch": 42,
            "start": 25.273271677083336,
            "end": 25.374987312500004,
            "velocity": 103,
            "duration": 0.10171563541666728
          },
          {
            "pitch": 38,
            "start": 25.349252031250003,
            "end": 25.401948083333334,
            "velocity": 37,
            "duration": 0.05269605208333061
          },
          {
            "pitch": 38,
            "start": 25.401948083333334,
            "end": 25.449742177083333,
            "velocity": 16,
            "duration": 0.04779409374999943
          },
          {
            "pitch": 42,
            "start": 25.575967604166667,
            "end": 25.677683239583335,
            "velocity": 117,
            "duration": 0.10171563541666728
          },
          {
            "pitch": 36,
            "start": 25.76101653125,
            "end": 25.861506677083334,
            "velocity": 49,
            "duration": 0.1004901458333336
          },
          {
            "pitch": 36,
            "start": 25.867634125000002,
            "end": 25.96934976041667,
            "velocity": 65,
            "duration": 0.10171563541666728
          },
          {
            "pitch": 42,
            "start": 25.872536083333337,
            "end": 25.97425171875,
            "velocity": 75,
            "duration": 0.10171563541666373
          },
          {
            "pitch": 42,
            "start": 26.170330052083337,
            "end": 26.2720456875,
            "velocity": 125,
            "duration": 0.10171563541666373
          },
          {
            "pitch": 40,
            "start": 26.473025979166668,
            "end": 26.573516125,
            "velocity": 113,
            "duration": 0.1004901458333336
          },
          {
            "pitch": 42,
            "start": 26.48037891666667,
            "end": 26.582094552083337,
            "velocity": 98,
            "duration": 0.10171563541666728
          },
          {
            "pitch": 42,
            "start": 26.781849354166667,
            "end": 26.8823395,
            "velocity": 77,
            "duration": 0.1004901458333336
          },
          {
            "pitch": 37,
            "start": 26.942388489583337,
            "end": 27.044104125,
            "velocity": 20,
            "duration": 0.10171563541666373
          },
          {
            "pitch": 42,
            "start": 27.062486468750002,
            "end": 27.16420210416667,
            "velocity": 61,
            "duration": 0.10171563541666728
          },
          {
            "pitch": 38,
            "start": 27.23160403125,
            "end": 27.332094177083334,
            "velocity": 19,
            "duration": 0.1004901458333336
          },
          {
            "pitch": 26,
            "start": 27.350476520833336,
            "end": 27.452192156250003,
            "velocity": 85,
            "duration": 0.10171563541666728
          },
          {
            "pitch": 36,
            "start": 27.354152989583337,
            "end": 27.455868625,
            "velocity": 127,
            "duration": 0.10171563541666373
          },
          {
            "pitch": 44,
            "start": 27.610280312500002,
            "end": 27.710770458333336,
            "velocity": 57,
            "duration": 0.1004901458333336
          },
          {
            "pitch": 40,
            "start": 27.64949597916667,
            "end": 27.751211614583337,
            "velocity": 127,
            "duration": 0.10171563541666728
          },
          {
            "pitch": 22,
            "start": 27.659299895833335,
            "end": 27.75979004166667,
            "velocity": 94,
            "duration": 0.1004901458333336
          },
          {
            "pitch": 42,
            "start": 27.955868375,
            "end": 28.05758401041667,
            "velocity": 66,
            "duration": 0.10171563541666728
          },
          {
            "pitch": 36,
            "start": 28.124985937500004,
            "end": 28.225476083333337,
            "velocity": 43,
            "duration": 0.1004901458333336
          },
          {
            "pitch": 36,
            "start": 28.23895646875,
            "end": 28.340672104166668,
            "velocity": 73,
            "duration": 0.10171563541666728
          },
          {
            "pitch": 42,
            "start": 28.241407447916668,
            "end": 28.343123083333335,
            "velocity": 77,
            "duration": 0.10171563541666728
          },
          {
            "pitch": 42,
            "start": 28.54042690625,
            "end": 28.64214254166667,
            "velocity": 86,
            "duration": 0.10171563541666728
          },
          {
            "pitch": 40,
            "start": 28.81861304166667,
            "end": 28.920328677083337,
            "velocity": 127,
            "duration": 0.10171563541666728
          },
          {
            "pitch": 42,
            "start": 28.834544406250004,
            "end": 28.936260041666667,
            "velocity": 82,
            "duration": 0.10171563541666373
          },
          {
            "pitch": 42,
            "start": 29.1249854375,
            "end": 29.22670107291667,
            "velocity": 64,
            "duration": 0.10171563541666728
          },
          {
            "pitch": 38,
            "start": 29.287975552083335,
            "end": 29.38846569791667,
            "velocity": 7,
            "duration": 0.1004901458333336
          },
          {
            "pitch": 42,
            "start": 29.40317157291667,
            "end": 29.503661718750003,
            "velocity": 54,
            "duration": 0.1004901458333336
          },
          {
            "pitch": 38,
            "start": 29.551455812500002,
            "end": 29.651945958333336,
            "velocity": 15,
            "duration": 0.1004901458333336
          },
          {
            "pitch": 36,
            "start": 29.670328302083334,
            "end": 29.770818447916668,
            "velocity": 71,
            "duration": 0.1004901458333336
          },
          {
            "pitch": 42,
            "start": 29.677681239583336,
            "end": 29.77817138541667,
            "velocity": 55,
            "duration": 0.1004901458333336
          },
          {
            "pitch": 40,
            "start": 29.975475208333336,
            "end": 30.077190843750003,
            "velocity": 127,
            "duration": 0.10171563541666728
          },
          {
            "pitch": 22,
            "start": 29.979151677083337,
            "end": 30.0808673125,
            "velocity": 87,
            "duration": 0.10171563541666373
          },
          {
            "pitch": 38,
            "start": 30.111504552083336,
            "end": 30.213220187500003,
            "velocity": 10,
            "duration": 0.10171563541666728
          },
          {
            "pitch": 42,
            "start": 30.25978879166667,
            "end": 30.361504427083336,
            "velocity": 71,
            "duration": 0.10171563541666728
          },
          {
            "pitch": 36,
            "start": 30.43625929166667,
            "end": 30.536749437500003,
            "velocity": 45,
            "duration": 0.1004901458333336
          },
          {
            "pitch": 36,
            "start": 30.56125922916667,
            "end": 30.661749375000003,
            "velocity": 73,
            "duration": 0.1004901458333336
          },
          {
            "pitch": 42,
            "start": 30.577190593750004,
            "end": 30.677680739583337,
            "velocity": 61,
            "duration": 0.1004901458333336
          },
          {
            "pitch": 42,
            "start": 30.87008260416667,
            "end": 30.971798239583336,
            "velocity": 92,
            "duration": 0.10171563541666728
          },
          {
            "pitch": 40,
            "start": 31.166651083333335,
            "end": 31.26714122916667,
            "velocity": 127,
            "duration": 0.1004901458333336
          },
          {
            "pitch": 42,
            "start": 31.187484406250004,
            "end": 31.289200041666668,
            "velocity": 77,
            "duration": 0.10171563541666373
          },
          {
            "pitch": 42,
            "start": 31.48037641666667,
            "end": 31.582092052083336,
            "velocity": 90,
            "duration": 0.10171563541666728
          },
          {
            "pitch": 38,
            "start": 31.629886145833336,
            "end": 31.73037629166667,
            "velocity": 10,
            "duration": 0.1004901458333336
          },
          {
            "pitch": 42,
            "start": 31.773268427083334,
            "end": 31.873758572916667,
            "velocity": 57,
            "duration": 0.1004901458333336
          },
          {
            "pitch": 38,
            "start": 31.916650708333336,
            "end": 32.01714085416667,
            "velocity": 15,
            "duration": 0.1004901458333336
          },
          {
            "pitch": 42,
            "start": 32.04042515625,
            "end": 32.14214079166667,
            "velocity": 65,
            "duration": 0.10171563541666728
          },
          {
            "pitch": 36,
            "start": 32.04287613541667,
            "end": 32.14336628125,
            "velocity": 115,
            "duration": 0.1004901458333336
          },
          {
            "pitch": 40,
            "start": 32.338219125,
            "end": 32.438709270833336,
            "velocity": 127,
            "duration": 0.1004901458333336
          },
          {
            "pitch": 22,
            "start": 32.34189559375,
            "end": 32.44361122916667,
            "velocity": 100,
            "duration": 0.10171563541666728
          },
          {
            "pitch": 42,
            "start": 32.632336625,
            "end": 32.73405226041667,
            "velocity": 82,
            "duration": 0.10171563541666728
          },
          {
            "pitch": 36,
            "start": 32.82106202083334,
            "end": 32.92155216666667,
            "velocity": 43,
            "duration": 0.1004901458333336
          },
          {
            "pitch": 42,
            "start": 32.93258157291667,
            "end": 33.034297208333335,
            "velocity": 82,
            "duration": 0.10171563541666728
          },
          {
            "pitch": 36,
            "start": 32.93748353125,
            "end": 33.037973677083336,
            "velocity": 61,
            "duration": 0.1004901458333336
          },
          {
            "pitch": 42,
            "start": 33.23037554166667,
            "end": 33.332091177083335,
            "velocity": 86,
            "duration": 0.10171563541666728
          },
          {
            "pitch": 40,
            "start": 33.52326755208333,
            "end": 33.623757697916666,
            "velocity": 127,
            "duration": 0.1004901458333336
          },
          {
            "pitch": 42,
            "start": 33.53307146875,
            "end": 33.63478710416667,
            "velocity": 88,
            "duration": 0.10171563541666728
          },
          {
            "pitch": 42,
            "start": 33.828414458333334,
            "end": 33.93013009375,
            "velocity": 80,
            "duration": 0.10171563541666728
          },
          {
            "pitch": 38,
            "start": 34.00243397916667,
            "end": 34.102924125,
            "velocity": 10,
            "duration": 0.1004901458333336
          },
          {
            "pitch": 42,
            "start": 34.11150255208334,
            "end": 34.213218187500004,
            "velocity": 45,
            "duration": 0.10171563541666728
          },
          {
            "pitch": 38,
            "start": 34.27816913541667,
            "end": 34.37865928125,
            "velocity": 18,
            "duration": 0.1004901458333336
          },
          {
            "pitch": 36,
            "start": 34.37865928125,
            "end": 34.479149427083335,
            "velocity": 93,
            "duration": 0.1004901458333336
          },
          {
            "pitch": 42,
            "start": 34.39459064583333,
            "end": 34.49630628125,
            "velocity": 76,
            "duration": 0.10171563541666728
          },
          {
            "pitch": 40,
            "start": 34.691159125000006,
            "end": 34.79164927083334,
            "velocity": 127,
            "duration": 0.1004901458333336
          },
          {
            "pitch": 22,
            "start": 34.69728657291667,
            "end": 34.79777671875,
            "velocity": 88,
            "duration": 0.1004901458333336
          },
          {
            "pitch": 22,
            "start": 34.997531520833334,
            "end": 35.09924715625,
            "velocity": 78,
            "duration": 0.10171563541666728
          },
          {
            "pitch": 36,
            "start": 35.1691000625,
            "end": 35.269590208333334,
            "velocity": 42,
            "duration": 0.1004901458333336
          },
          {
            "pitch": 36,
            "start": 35.2941,
            "end": 35.394590145833334,
            "velocity": 55,
            "duration": 0.1004901458333336
          },
          {
            "pitch": 42,
            "start": 35.295325489583334,
            "end": 35.394590145833334,
            "velocity": 72,
            "duration": 0.09926465624999992
          },
          {
            "pitch": 42,
            "start": 35.588217500000006,
            "end": 35.689933135416666,
            "velocity": 71,
            "duration": 0.10171563541666018
          },
          {
            "pitch": 40,
            "start": 35.87743304166667,
            "end": 35.977923187500004,
            "velocity": 127,
            "duration": 0.1004901458333336
          },
          {
            "pitch": 22,
            "start": 35.88110951041667,
            "end": 35.98282514583334,
            "velocity": 110,
            "duration": 0.10171563541666728
          },
          {
            "pitch": 22,
            "start": 36.17277603125,
            "end": 36.273266177083336,
            "velocity": 86,
            "duration": 0.1004901458333336
          },
          {
            "pitch": 38,
            "start": 36.330864187500005,
            "end": 36.43135433333334,
            "velocity": 7,
            "duration": 0.1004901458333336
          },
          {
            "pitch": 22,
            "start": 36.4632170625,
            "end": 36.563707208333334,
            "velocity": 56,
            "duration": 0.1004901458333336
          },
          {
            "pitch": 38,
            "start": 36.6102758125,
            "end": 36.71199144791667,
            "velocity": 113,
            "duration": 0.10171563541666728
          },
          {
            "pitch": 44,
            "start": 36.69483459375,
            "end": 36.795324739583336,
            "velocity": 60,
            "duration": 0.1004901458333336
          },
          {
            "pitch": 48,
            "start": 36.887236458333334,
            "end": 36.98772660416667,
            "velocity": 117,
            "duration": 0.1004901458333336
          },
          {
            "pitch": 44,
            "start": 36.98282464583333,
            "end": 37.083314791666666,
            "velocity": 62,
            "duration": 0.1004901458333336
          },
          {
            "pitch": 48,
            "start": 37.02694227083334,
            "end": 37.128657906250005,
            "velocity": 127,
            "duration": 0.10171563541666728
          },
          {
            "pitch": 43,
            "start": 37.1690990625,
            "end": 37.269589208333336,
            "velocity": 96,
            "duration": 0.1004901458333336
          },
          {
            "pitch": 44,
            "start": 37.27816763541667,
            "end": 37.378657781250006,
            "velocity": 77,
            "duration": 0.1004901458333336
          },
          {
            "pitch": 43,
            "start": 37.31125585416667,
            "end": 37.412971489583335,
            "velocity": 89,
            "duration": 0.10171563541666728
          },
          {
            "pitch": 43,
            "start": 37.45831460416667,
            "end": 37.560030239583334,
            "velocity": 112,
            "duration": 0.10171563541666728
          },
          {
            "pitch": 36,
            "start": 37.589441989583335,
            "end": 37.691157625,
            "velocity": 127,
            "duration": 0.10171563541666728
          }
        ],
        "melodic_notes": [],
        "instruments": [
          {
            "program": "0",
            "is_drum": true,
            "name": "MIDI",
            "note_count": 247
          }
        ],
        "duration": 37.691157625,
        "tempo_changes": 0
      }
    ]
  },
  "/home/matt/Documents": {
    "summary": {
      "total_files_found": 16,
      "successfully_analyzed": 14,
      "analysis_success_rate": 87.5
    },
    "drum_analysis": {
      "unique_notes": 12,
      "total_occurrences": 3478,
      "note_range": [
        35,
        75
      ],
      "frequency_distribution": {
        "51": 1026,
        "35": 970,
        "42": 676,
        "37": 585,
        "41": 160,
        "45": 55,
        "36": 1,
        "38": 1,
        "48": 1,
        "53": 1,
        "49": 1,
        "75": 1
      },
      "note_statistics": {
        "35": {
          "count": 970,
          "percentage": 27.889591719378952,
          "gm_name": "Acoustic Bass Drum",
          "velocity_stats": {
            "mean": 92.79381443298969,
            "std": 18.52885080770593,
            "min": 63,
            "max": 126
          },
          "duration_stats": {
            "mean": 0.05380974695407671,
            "std": 0.02368105889686926,
            "min": 0.002272727272726982,
            "max": 0.10000000000000142
          }
        },
        "51": {
          "count": 1026,
          "percentage": 29.49971247843588,
          "gm_name": "Ride Cymbal 1",
          "velocity_stats": {
            "mean": 84.50292397660819,
            "std": 12.076207466419174,
            "min": 50,
            "max": 114
          },
          "duration_stats": {
            "mean": 0.04123250044302696,
            "std": 0.024374063628079357,
            "min": 0.002272727272726982,
            "max": 0.10000000000000142
          }
        },
        "42": {
          "count": 676,
          "percentage": 19.436457734330077,
          "gm_name": "Closed Hi Hat",
          "velocity_stats": {
            "mean": 87.13165680473372,
            "std": 13.966850152133725,
            "min": 51,
            "max": 118
          },
          "duration_stats": {
            "mean": 0.05423614846691777,
            "std": 0.026286271582294397,
            "min": 0.006818181818180946,
            "max": 0.10000000000000142
          }
        },
        "45": {
          "count": 55,
          "percentage": 1.5813686026451983,
          "gm_name": "Low Tom",
          "velocity_stats": {
            "mean": 76.18181818181819,
            "std": 12.415665923766575,
            "min": 63,
            "max": 97
          },
          "duration_stats": {
            "mean": 0.06413223140495977,
            "std": 0.026918117863733246,
            "min": 0.004545454545454852,
            "max": 0.10000000000000142
          }
        },
        "41": {
          "count": 160,
          "percentage": 4.600345025876941,
          "gm_name": "Low Floor Tom",
          "velocity_stats": {
            "mean": 76.84375,
            "std": 9.51350807733404,
            "min": 64,
            "max": 103
          },
          "duration_stats": {
            "mean": 0.059218750000000465,
            "std": 0.02677727870108978,
            "min": 0.0022727272727287584,
            "max": 0.10000000000000142
          }
        },
        "37": {
          "count": 585,
          "percentage": 16.820011500862563,
          "gm_name": "Side Stick",
          "velocity_stats": {
            "mean": 82.75213675213675,
            "std": 13.834742580615554,
            "min": 63,
            "max": 120
          },
          "duration_stats": {
            "mean": 0.05333333333333329,
            "std": 0.02773494614036691,
            "min": 0.002272727272726982,
            "max": 0.10000000000000142
          }
        },
        "36": {
          "count": 1,
          "percentage": 0.02875215641173088,
          "gm_name": "Bass Drum 1",
          "velocity_stats": {
            "mean": 93.0,
            "std": 0.0,
            "min": 93,
            "max": 93
          },
          "duration_stats": {
            "mean": 0.09999999999999999,
            "std": 0.0,
            "min": 0.09999999999999999,
            "max": 0.09999999999999999
          }
        },
        "38": {
          "count": 1,
          "percentage": 0.02875215641173088,
          "gm_name": "Acoustic Snare",
          "velocity_stats": {
            "mean": 100.0,
            "std": 0.0,
            "min": 100,
            "max": 100
          },
          "duration_stats": {
            "mean": 0.09999999999999998,
            "std": 0.0,
            "min": 0.09999999999999998,
            "max": 0.09999999999999998
          }
        },
        "48": {
          "count": 1,
          "percentage": 0.02875215641173088,
          "gm_name": "Hi-Mid Tom",
          "velocity_stats": {
            "mean": 58.0,
            "std": 0.0,
            "min": 58,
            "max": 58
          },
          "duration_stats": {
            "mean": 0.09999999999999987,
            "std": 0.0,
            "min": 0.09999999999999987,
            "max": 0.09999999999999987
          }
        },
        "53": {
          "count": 1,
          "percentage": 0.02875215641173088,
          "gm_name": "Ride Bell",
          "velocity_stats": {
            "mean": 90.0,
            "std": 0.0,
            "min": 90,
            "max": 90
          },
          "duration_stats": {
            "mean": 0.10000000000000009,
            "std": 0.0,
            "min": 0.10000000000000009,
            "max": 0.10000000000000009
          }
        },
        "49": {
          "count": 1,
          "percentage": 0.02875215641173088,
          "gm_name": "Crash Cymbal 1",
          "velocity_stats": {
            "mean": 104.0,
            "std": 0.0,
            "min": 104,
            "max": 104
          },
          "duration_stats": {
            "mean": 0.09999999999999964,
            "std": 0.0,
            "min": 0.09999999999999964,
            "max": 0.09999999999999964
          }
        },
        "75": {
          "count": 1,
          "percentage": 0.02875215641173088,
          "gm_name": "Claves",
          "velocity_stats": {
            "mean": 18.0,
            "std": 0.0,
            "min": 18,
            "max": 18
          },
          "duration_stats": {
            "mean": 0.09999999999999964,
            "std": 0.0,
            "min": 0.09999999999999964,
            "max": 0.09999999999999964
          }
        }
      }
    },
    "melodic_analysis": {
      "unique_notes": 16,
      "total_occurrences": 976,
      "note_range": [
        33,
        79
      ],
      "frequency_distribution": {
        "33": 609,
        "52": 68,
        "50": 60,
        "34": 51,
        "38": 47,
        "41": 33,
        "53": 32,
        "40": 25,
        "79": 12,
        "59": 9,
        "49": 8,
        "39": 6,
        "55": 4,
        "57": 4,
        "51": 4,
        "43": 4
      }
    },
    "mapping_analysis": {
      "current_egmd_notes": "{36, 38, 41, 42, 43, 44, 45, 46, 47, 48, 49, 50, 51, 53, 55, 57, 59}",
      "found_drum_notes": "{35, 36, 37, 38, 41, 42, 75, 45, 48, 49, 51, 53}",
      "additional_notes_found": "{75, 35, 37}",
      "missing_egmd_notes": "{43, 44, 46, 47, 50, 55, 57, 59}",
      "coverage_percentage": 52.94117647058824
    },
    "file_details": [
      {
        "file_path": "/home/matt/Documents/drum-tranxn/drum-transcription-api/test_audio/32 Soft Pink Glow_transcribed_alt.mid",
        "total_notes": 694,
        "drum_notes": [
          {
            "pitch": 35,
            "start": 0.07045454545454545,
            "end": 0.17045454545454544,
            "velocity": 126,
            "duration": 0.09999999999999999
          },
          {
            "pitch": 35,
            "start": 0.16363636363636364,
            "end": 0.17045454545454544,
            "velocity": 100,
            "duration": 0.006818181818181807
          },
          {
            "pitch": 51,
            "start": 0.07045454545454545,
            "end": 0.17045454545454544,
            "velocity": 109,
            "duration": 0.09999999999999999
          },
          {
            "pitch": 51,
            "start": 0.16363636363636364,
            "end": 0.17045454545454544,
            "velocity": 112,
            "duration": 0.006818181818181807
          },
          {
            "pitch": 42,
            "start": 0.09318181818181817,
            "end": 0.19318181818181818,
            "velocity": 104,
            "duration": 0.1
          },
          {
            "pitch": 42,
            "start": 0.18636363636363634,
            "end": 0.19318181818181818,
            "velocity": 70,
            "duration": 0.006818181818181834
          },
          {
            "pitch": 45,
            "start": 0.09318181818181817,
            "end": 0.19318181818181818,
            "velocity": 64,
            "duration": 0.1
          },
          {
            "pitch": 35,
            "start": 0.2545454545454545,
            "end": 0.2636363636363636,
            "velocity": 120,
            "duration": 0.009090909090909094
          },
          {
            "pitch": 51,
            "start": 0.2545454545454545,
            "end": 0.2636363636363636,
            "velocity": 113,
            "duration": 0.009090909090909094
          },
          {
            "pitch": 41,
            "start": 0.18636363636363634,
            "end": 0.2863636363636364,
            "velocity": 75,
            "duration": 0.10000000000000003
          },
          {
            "pitch": 41,
            "start": 0.2545454545454545,
            "end": 0.2863636363636364,
            "velocity": 79,
            "duration": 0.03181818181818186
          },
          {
            "pitch": 42,
            "start": 0.2545454545454545,
            "end": 0.2863636363636364,
            "velocity": 106,
            "duration": 0.03181818181818186
          },
          {
            "pitch": 51,
            "start": 0.3477272727272727,
            "end": 0.35454545454545455,
            "velocity": 114,
            "duration": 0.006818181818181834
          },
          {
            "pitch": 51,
            "start": 0.44090909090909086,
            "end": 0.4477272727272727,
            "velocity": 88,
            "duration": 0.006818181818181834
          },
          {
            "pitch": 35,
            "start": 0.3704545454545454,
            "end": 0.47045454545454546,
            "velocity": 102,
            "duration": 0.10000000000000003
          },
          {
            "pitch": 35,
            "start": 0.44090909090909086,
            "end": 0.47045454545454546,
            "velocity": 106,
            "duration": 0.029545454545454597
          },
          {
            "pitch": 41,
            "start": 0.3704545454545454,
            "end": 0.47045454545454546,
            "velocity": 81,
            "duration": 0.10000000000000003
          },
          {
            "pitch": 41,
            "start": 0.44090909090909086,
            "end": 0.47045454545454546,
            "velocity": 75,
            "duration": 0.029545454545454597
          },
          {
            "pitch": 42,
            "start": 0.3704545454545454,
            "end": 0.47045454545454546,
            "velocity": 78,
            "duration": 0.10000000000000003
          },
          {
            "pitch": 45,
            "start": 0.3704545454545454,
            "end": 0.47045454545454546,
            "velocity": 63,
            "duration": 0.10000000000000003
          },
          {
            "pitch": 35,
            "start": 0.5113636363636364,
            "end": 0.5409090909090909,
            "velocity": 123,
            "duration": 0.02954545454545454
          },
          {
            "pitch": 41,
            "start": 0.5340909090909091,
            "end": 0.5409090909090909,
            "velocity": 67,
            "duration": 0.006818181818181834
          },
          {
            "pitch": 51,
            "start": 0.5340909090909091,
            "end": 0.5409090909090909,
            "velocity": 111,
            "duration": 0.006818181818181834
          },
          {
            "pitch": 37,
            "start": 0.4636363636363636,
            "end": 0.5636363636363636,
            "velocity": 78,
            "duration": 0.09999999999999998
          },
          {
            "pitch": 51,
            "start": 0.6272727272727272,
            "end": 0.634090909090909,
            "velocity": 103,
            "duration": 0.006818181818181834
          },
          {
            "pitch": 42,
            "start": 0.5568181818181818,
            "end": 0.6568181818181817,
            "velocity": 80,
            "duration": 0.09999999999999998
          },
          {
            "pitch": 42,
            "start": 0.6272727272727272,
            "end": 0.6568181818181817,
            "velocity": 118,
            "duration": 0.02954545454545454
          },
          {
            "pitch": 35,
            "start": 0.6272727272727272,
            "end": 0.7272727272727273,
            "velocity": 112,
            "duration": 0.10000000000000009
          },
          {
            "pitch": 35,
            "start": 0.6977272727272726,
            "end": 0.7272727272727273,
            "velocity": 88,
            "duration": 0.029545454545454652
          },
          {
            "pitch": 45,
            "start": 0.6272727272727272,
            "end": 0.7272727272727273,
            "velocity": 71,
            "duration": 0.10000000000000009
          },
          {
            "pitch": 51,
            "start": 0.7204545454545455,
            "end": 0.7272727272727273,
            "velocity": 113,
            "duration": 0.006818181818181834
          },
          {
            "pitch": 41,
            "start": 0.65,
            "end": 0.75,
            "velocity": 103,
            "duration": 0.09999999999999998
          },
          {
            "pitch": 41,
            "start": 0.7204545454545455,
            "end": 0.75,
            "velocity": 75,
            "duration": 0.02954545454545454
          },
          {
            "pitch": 51,
            "start": 0.7886363636363636,
            "end": 0.8204545454545454,
            "velocity": 110,
            "duration": 0.03181818181818186
          },
          {
            "pitch": 35,
            "start": 0.8136363636363636,
            "end": 0.9136363636363636,
            "velocity": 121,
            "duration": 0.09999999999999998
          },
          {
            "pitch": 35,
            "start": 0.8818181818181817,
            "end": 0.9136363636363636,
            "velocity": 121,
            "duration": 0.03181818181818186
          },
          {
            "pitch": 42,
            "start": 0.8136363636363636,
            "end": 0.9136363636363636,
            "velocity": 113,
            "duration": 0.09999999999999998
          },
          {
            "pitch": 35,
            "start": 0.9522727272727273,
            "end": 0.9818181818181818,
            "velocity": 89,
            "duration": 0.02954545454545454
          },
          {
            "pitch": 51,
            "start": 0.9045454545454545,
            "end": 1.0045454545454544,
            "velocity": 84,
            "duration": 0.09999999999999987
          },
          {
            "pitch": 51,
            "start": 0.975,
            "end": 1.0045454545454544,
            "velocity": 101,
            "duration": 0.02954545454545443
          },
          {
            "pitch": 42,
            "start": 0.975,
            "end": 1.075,
            "velocity": 85,
            "duration": 0.09999999999999998
          },
          {
            "pitch": 42,
            "start": 1.0681818181818181,
            "end": 1.075,
            "velocity": 91,
            "duration": 0.006818181818181834
          },
          {
            "pitch": 51,
            "start": 1.0681818181818181,
            "end": 1.075,
            "velocity": 72,
            "duration": 0.006818181818181834
          },
          {
            "pitch": 41,
            "start": 0.9977272727272727,
            "end": 1.0977272727272727,
            "velocity": 81,
            "duration": 0.09999999999999998
          },
          {
            "pitch": 41,
            "start": 1.0681818181818181,
            "end": 1.0977272727272727,
            "velocity": 74,
            "duration": 0.02954545454545454
          },
          {
            "pitch": 35,
            "start": 1.0681818181818181,
            "end": 1.1681818181818182,
            "velocity": 89,
            "duration": 0.10000000000000009
          },
          {
            "pitch": 51,
            "start": 1.1613636363636364,
            "end": 1.1681818181818182,
            "velocity": 94,
            "duration": 0.006818181818181834
          },
          {
            "pitch": 51,
            "start": 1.2545454545454544,
            "end": 1.2613636363636362,
            "velocity": 105,
            "duration": 0.006818181818181834
          },
          {
            "pitch": 42,
            "start": 1.184090909090909,
            "end": 1.284090909090909,
            "velocity": 73,
            "duration": 0.09999999999999987
          },
          {
            "pitch": 42,
            "start": 1.2545454545454544,
            "end": 1.284090909090909,
            "velocity": 70,
            "duration": 0.02954545454545454
          },
          {
            "pitch": 35,
            "start": 1.2545454545454544,
            "end": 1.3545454545454545,
            "velocity": 122,
            "duration": 0.10000000000000009
          },
          {
            "pitch": 51,
            "start": 1.3477272727272727,
            "end": 1.3545454545454545,
            "velocity": 89,
            "duration": 0.006818181818181834
          },
          {
            "pitch": 51,
            "start": 1.4386363636363635,
            "end": 1.4477272727272728,
            "velocity": 85,
            "duration": 0.00909090909090926
          },
          {
            "pitch": 37,
            "start": 1.393181818181818,
            "end": 1.4931818181818182,
            "velocity": 113,
            "duration": 0.10000000000000009
          },
          {
            "pitch": 37,
            "start": 1.4863636363636363,
            "end": 1.4931818181818182,
            "velocity": 70,
            "duration": 0.006818181818181834
          },
          {
            "pitch": 41,
            "start": 1.4159090909090908,
            "end": 1.5159090909090909,
            "velocity": 77,
            "duration": 0.10000000000000009
          },
          {
            "pitch": 35,
            "start": 1.4386363636363635,
            "end": 1.5386363636363636,
            "velocity": 122,
            "duration": 0.10000000000000009
          },
          {
            "pitch": 35,
            "start": 1.509090909090909,
            "end": 1.5386363636363636,
            "velocity": 115,
            "duration": 0.02954545454545454
          },
          {
            "pitch": 42,
            "start": 1.4386363636363635,
            "end": 1.5386363636363636,
            "velocity": 89,
            "duration": 0.10000000000000009
          },
          {
            "pitch": 51,
            "start": 1.5318181818181817,
            "end": 1.5386363636363636,
            "velocity": 91,
            "duration": 0.006818181818181834
          },
          {
            "pitch": 51,
            "start": 1.625,
            "end": 1.6318181818181818,
            "velocity": 108,
            "duration": 0.006818181818181834
          },
          {
            "pitch": 42,
            "start": 1.5568181818181817,
            "end": 1.6568181818181817,
            "velocity": 92,
            "duration": 0.10000000000000009
          },
          {
            "pitch": 42,
            "start": 1.625,
            "end": 1.6568181818181817,
            "velocity": 96,
            "duration": 0.031818181818181746
          },
          {
            "pitch": 45,
            "start": 1.5795454545454544,
            "end": 1.6795454545454545,
            "velocity": 97,
            "duration": 0.10000000000000009
          },
          {
            "pitch": 35,
            "start": 1.625,
            "end": 1.7249999999999999,
            "velocity": 121,
            "duration": 0.09999999999999987
          },
          {
            "pitch": 35,
            "start": 1.6954545454545453,
            "end": 1.7249999999999999,
            "velocity": 72,
            "duration": 0.02954545454545454
          },
          {
            "pitch": 41,
            "start": 1.625,
            "end": 1.7249999999999999,
            "velocity": 71,
            "duration": 0.09999999999999987
          },
          {
            "pitch": 41,
            "start": 1.718181818181818,
            "end": 1.7249999999999999,
            "velocity": 95,
            "duration": 0.006818181818181834
          },
          {
            "pitch": 42,
            "start": 1.6954545454545453,
            "end": 1.7249999999999999,
            "velocity": 81,
            "duration": 0.02954545454545454
          },
          {
            "pitch": 51,
            "start": 1.6954545454545453,
            "end": 1.7249999999999999,
            "velocity": 70,
            "duration": 0.02954545454545454
          },
          {
            "pitch": 51,
            "start": 1.7886363636363636,
            "end": 1.7954545454545454,
            "velocity": 105,
            "duration": 0.006818181818181834
          },
          {
            "pitch": 51,
            "start": 1.8818181818181818,
            "end": 1.8886363636363634,
            "velocity": 104,
            "duration": 0.006818181818181612
          },
          {
            "pitch": 35,
            "start": 1.8113636363636363,
            "end": 1.9113636363636364,
            "velocity": 119,
            "duration": 0.10000000000000009
          },
          {
            "pitch": 35,
            "start": 1.8818181818181818,
            "end": 1.9113636363636364,
            "velocity": 121,
            "duration": 0.02954545454545454
          },
          {
            "pitch": 42,
            "start": 1.8113636363636363,
            "end": 1.9113636363636364,
            "velocity": 102,
            "duration": 0.10000000000000009
          },
          {
            "pitch": 42,
            "start": 1.9045454545454545,
            "end": 1.9113636363636364,
            "velocity": 95,
            "duration": 0.006818181818181834
          },
          {
            "pitch": 37,
            "start": 1.834090909090909,
            "end": 1.934090909090909,
            "velocity": 89,
            "duration": 0.10000000000000009
          },
          {
            "pitch": 35,
            "start": 1.9727272727272727,
            "end": 1.9818181818181817,
            "velocity": 96,
            "duration": 0.009090909090909038
          },
          {
            "pitch": 51,
            "start": 1.9727272727272727,
            "end": 1.9818181818181817,
            "velocity": 83,
            "duration": 0.009090909090909038
          },
          {
            "pitch": 42,
            "start": 1.9977272727272726,
            "end": 2.0045454545454544,
            "velocity": 78,
            "duration": 0.006818181818181834
          },
          {
            "pitch": 35,
            "start": 2.065909090909091,
            "end": 2.0727272727272728,
            "velocity": 85,
            "duration": 0.006818181818181834
          },
          {
            "pitch": 51,
            "start": 2.065909090909091,
            "end": 2.0727272727272728,
            "velocity": 75,
            "duration": 0.006818181818181834
          },
          {
            "pitch": 37,
            "start": 2.0204545454545455,
            "end": 2.120454545454545,
            "velocity": 80,
            "duration": 0.09999999999999964
          },
          {
            "pitch": 35,
            "start": 2.1363636363636362,
            "end": 2.165909090909091,
            "velocity": 89,
            "duration": 0.029545454545454763
          },
          {
            "pitch": 51,
            "start": 2.159090909090909,
            "end": 2.165909090909091,
            "velocity": 88,
            "duration": 0.006818181818181834
          },
          {
            "pitch": 41,
            "start": 2.159090909090909,
            "end": 2.259090909090909,
            "velocity": 90,
            "duration": 0.09999999999999964
          },
          {
            "pitch": 41,
            "start": 2.252272727272727,
            "end": 2.259090909090909,
            "velocity": 87,
            "duration": 0.006818181818181834
          },
          {
            "pitch": 51,
            "start": 2.252272727272727,
            "end": 2.259090909090909,
            "velocity": 93,
            "duration": 0.006818181818181834
          },
          {
            "pitch": 42,
            "start": 2.1818181818181817,
            "end": 2.2818181818181817,
            "velocity": 80,
            "duration": 0.10000000000000009
          },
          {
            "pitch": 42,
            "start": 2.252272727272727,
            "end": 2.2818181818181817,
            "velocity": 79,
            "duration": 0.029545454545454763
          },
          {
            "pitch": 35,
            "start": 2.252272727272727,
            "end": 2.352272727272727,
            "velocity": 111,
            "duration": 0.10000000000000009
          },
          {
            "pitch": 51,
            "start": 2.3454545454545452,
            "end": 2.352272727272727,
            "velocity": 94,
            "duration": 0.006818181818181834
          },
          {
            "pitch": 37,
            "start": 2.275,
            "end": 2.375,
            "velocity": 80,
            "duration": 0.10000000000000009
          },
          {
            "pitch": 37,
            "start": 2.3454545454545452,
            "end": 2.375,
            "velocity": 73,
            "duration": 0.029545454545454763
          },
          {
            "pitch": 37,
            "start": 2.3909090909090907,
            "end": 2.4454545454545453,
            "velocity": 99,
            "duration": 0.054545454545454675
          },
          {
            "pitch": 51,
            "start": 2.4386363636363635,
            "end": 2.4454545454545453,
            "velocity": 96,
            "duration": 0.006818181818181834
          },
          {
            "pitch": 35,
            "start": 2.368181818181818,
            "end": 2.4681818181818183,
            "velocity": 82,
            "duration": 0.10000000000000009
          },
          {
            "pitch": 35,
            "start": 2.4386363636363635,
            "end": 2.4681818181818183,
            "velocity": 118,
            "duration": 0.029545454545454763
          },
          {
            "pitch": 42,
            "start": 2.368181818181818,
            "end": 2.4681818181818183,
            "velocity": 116,
            "duration": 0.10000000000000009
          },
          {
            "pitch": 42,
            "start": 2.4386363636363635,
            "end": 2.4681818181818183,
            "velocity": 83,
            "duration": 0.029545454545454763
          },
          {
            "pitch": 37,
            "start": 2.484090909090909,
            "end": 2.4909090909090907,
            "velocity": 74,
            "duration": 0.006818181818181834
          },
          {
            "pitch": 35,
            "start": 2.506818181818182,
            "end": 2.5386363636363636,
            "velocity": 109,
            "duration": 0.031818181818181746
          },
          {
            "pitch": 51,
            "start": 2.506818181818182,
            "end": 2.5386363636363636,
            "velocity": 88,
            "duration": 0.031818181818181746
          },
          {
            "pitch": 35,
            "start": 2.6227272727272726,
            "end": 2.7227272727272727,
            "velocity": 100,
            "duration": 0.10000000000000009
          },
          {
            "pitch": 35,
            "start": 2.693181818181818,
            "end": 2.7227272727272727,
            "velocity": 73,
            "duration": 0.029545454545454763
          },
          {
            "pitch": 42,
            "start": 2.6227272727272726,
            "end": 2.7227272727272727,
            "velocity": 107,
            "duration": 0.10000000000000009
          },
          {
            "pitch": 42,
            "start": 2.693181818181818,
            "end": 2.7227272727272727,
            "velocity": 100,
            "duration": 0.029545454545454763
          },
          {
            "pitch": 51,
            "start": 2.6227272727272726,
            "end": 2.7227272727272727,
            "velocity": 96,
            "duration": 0.10000000000000009
          },
          {
            "pitch": 51,
            "start": 2.693181818181818,
            "end": 2.7227272727272727,
            "velocity": 81,
            "duration": 0.029545454545454763
          },
          {
            "pitch": 41,
            "start": 2.6477272727272725,
            "end": 2.7477272727272726,
            "velocity": 89,
            "duration": 0.10000000000000009
          },
          {
            "pitch": 35,
            "start": 2.786363636363636,
            "end": 2.793181818181818,
            "velocity": 121,
            "duration": 0.006818181818181834
          },
          {
            "pitch": 51,
            "start": 2.786363636363636,
            "end": 2.793181818181818,
            "velocity": 111,
            "duration": 0.006818181818181834
          },
          {
            "pitch": 35,
            "start": 2.8795454545454544,
            "end": 2.8863636363636362,
            "velocity": 115,
            "duration": 0.006818181818181834
          },
          {
            "pitch": 51,
            "start": 2.8795454545454544,
            "end": 2.8863636363636362,
            "velocity": 70,
            "duration": 0.006818181818181834
          },
          {
            "pitch": 42,
            "start": 2.809090909090909,
            "end": 2.909090909090909,
            "velocity": 104,
            "duration": 0.10000000000000009
          },
          {
            "pitch": 42,
            "start": 2.8795454545454544,
            "end": 2.909090909090909,
            "velocity": 89,
            "duration": 0.029545454545454763
          },
          {
            "pitch": 35,
            "start": 2.9499999999999997,
            "end": 2.9795454545454545,
            "velocity": 74,
            "duration": 0.029545454545454763
          },
          {
            "pitch": 51,
            "start": 2.9727272727272727,
            "end": 2.9795454545454545,
            "velocity": 70,
            "duration": 0.006818181818181834
          },
          {
            "pitch": 37,
            "start": 2.925,
            "end": 3.025,
            "velocity": 101,
            "duration": 0.10000000000000009
          },
          {
            "pitch": 37,
            "start": 2.9727272727272727,
            "end": 3.025,
            "velocity": 94,
            "duration": 0.05227272727272725
          },
          {
            "pitch": 51,
            "start": 3.065909090909091,
            "end": 3.0727272727272728,
            "velocity": 70,
            "duration": 0.006818181818181834
          },
          {
            "pitch": 42,
            "start": 2.995454545454545,
            "end": 3.0954545454545452,
            "velocity": 69,
            "duration": 0.10000000000000009
          },
          {
            "pitch": 42,
            "start": 3.065909090909091,
            "end": 3.0954545454545452,
            "velocity": 84,
            "duration": 0.02954545454545432
          },
          {
            "pitch": 41,
            "start": 3.0409090909090906,
            "end": 3.1409090909090907,
            "velocity": 87,
            "duration": 0.10000000000000009
          },
          {
            "pitch": 41,
            "start": 3.1113636363636363,
            "end": 3.1409090909090907,
            "velocity": 91,
            "duration": 0.02954545454545432
          },
          {
            "pitch": 35,
            "start": 3.065909090909091,
            "end": 3.1659090909090906,
            "velocity": 95,
            "duration": 0.09999999999999964
          },
          {
            "pitch": 42,
            "start": 3.1818181818181817,
            "end": 3.2818181818181817,
            "velocity": 80,
            "duration": 0.10000000000000009
          },
          {
            "pitch": 42,
            "start": 3.25,
            "end": 3.2818181818181817,
            "velocity": 105,
            "duration": 0.031818181818181746
          },
          {
            "pitch": 51,
            "start": 3.1818181818181817,
            "end": 3.2818181818181817,
            "velocity": 63,
            "duration": 0.10000000000000009
          },
          {
            "pitch": 51,
            "start": 3.25,
            "end": 3.2818181818181817,
            "velocity": 91,
            "duration": 0.031818181818181746
          },
          {
            "pitch": 37,
            "start": 3.227272727272727,
            "end": 3.327272727272727,
            "velocity": 64,
            "duration": 0.10000000000000009
          },
          {
            "pitch": 37,
            "start": 3.275,
            "end": 3.327272727272727,
            "velocity": 63,
            "duration": 0.05227272727272725
          },
          {
            "pitch": 35,
            "start": 3.25,
            "end": 3.3499999999999996,
            "velocity": 119,
            "duration": 0.09999999999999964
          },
          {
            "pitch": 35,
            "start": 3.3204545454545453,
            "end": 3.3499999999999996,
            "velocity": 81,
            "duration": 0.02954545454545432
          },
          {
            "pitch": 51,
            "start": 3.3204545454545453,
            "end": 3.3499999999999996,
            "velocity": 72,
            "duration": 0.02954545454545432
          },
          {
            "pitch": 35,
            "start": 3.436363636363636,
            "end": 3.536363636363636,
            "velocity": 121,
            "duration": 0.10000000000000009
          },
          {
            "pitch": 35,
            "start": 3.506818181818182,
            "end": 3.536363636363636,
            "velocity": 107,
            "duration": 0.02954545454545432
          },
          {
            "pitch": 42,
            "start": 3.436363636363636,
            "end": 3.536363636363636,
            "velocity": 105,
            "duration": 0.10000000000000009
          },
          {
            "pitch": 51,
            "start": 3.436363636363636,
            "end": 3.536363636363636,
            "velocity": 92,
            "duration": 0.10000000000000009
          },
          {
            "pitch": 51,
            "start": 3.506818181818182,
            "end": 3.536363636363636,
            "velocity": 93,
            "duration": 0.02954545454545432
          },
          {
            "pitch": 37,
            "start": 3.459090909090909,
            "end": 3.559090909090909,
            "velocity": 71,
            "duration": 0.10000000000000009
          },
          {
            "pitch": 37,
            "start": 3.5522727272727272,
            "end": 3.559090909090909,
            "velocity": 92,
            "duration": 0.006818181818181834
          },
          {
            "pitch": 51,
            "start": 3.5999999999999996,
            "end": 3.6068181818181815,
            "velocity": 98,
            "duration": 0.006818181818181834
          },
          {
            "pitch": 51,
            "start": 3.690909090909091,
            "end": 3.6999999999999997,
            "velocity": 85,
            "duration": 0.009090909090908816
          },
          {
            "pitch": 35,
            "start": 3.6227272727272726,
            "end": 3.7227272727272727,
            "velocity": 96,
            "duration": 0.10000000000000009
          },
          {
            "pitch": 35,
            "start": 3.690909090909091,
            "end": 3.7227272727272727,
            "velocity": 78,
            "duration": 0.031818181818181746
          },
          {
            "pitch": 42,
            "start": 3.6227272727272726,
            "end": 3.7227272727272727,
            "velocity": 100,
            "duration": 0.10000000000000009
          },
          {
            "pitch": 42,
            "start": 3.690909090909091,
            "end": 3.7227272727272727,
            "velocity": 97,
            "duration": 0.031818181818181746
          },
          {
            "pitch": 35,
            "start": 3.7613636363636362,
            "end": 3.7909090909090906,
            "velocity": 82,
            "duration": 0.02954545454545432
          },
          {
            "pitch": 51,
            "start": 3.7840909090909087,
            "end": 3.7909090909090906,
            "velocity": 91,
            "duration": 0.006818181818181834
          },
          {
            "pitch": 41,
            "start": 3.715909090909091,
            "end": 3.815909090909091,
            "velocity": 68,
            "duration": 0.10000000000000009
          },
          {
            "pitch": 51,
            "start": 3.877272727272727,
            "end": 3.884090909090909,
            "velocity": 101,
            "duration": 0.006818181818181834
          },
          {
            "pitch": 42,
            "start": 3.809090909090909,
            "end": 3.9090909090909087,
            "velocity": 91,
            "duration": 0.09999999999999964
          },
          {
            "pitch": 42,
            "start": 3.877272727272727,
            "end": 3.9090909090909087,
            "velocity": 85,
            "duration": 0.031818181818181746
          },
          {
            "pitch": 35,
            "start": 3.877272727272727,
            "end": 3.977272727272727,
            "velocity": 122,
            "duration": 0.10000000000000009
          },
          {
            "pitch": 35,
            "start": 3.9477272727272728,
            "end": 3.977272727272727,
            "velocity": 88,
            "duration": 0.02954545454545432
          },
          {
            "pitch": 37,
            "start": 3.877272727272727,
            "end": 3.977272727272727,
            "velocity": 87,
            "duration": 0.10000000000000009
          },
          {
            "pitch": 37,
            "start": 3.925,
            "end": 3.977272727272727,
            "velocity": 110,
            "duration": 0.05227272727272725
          },
          {
            "pitch": 37,
            "start": 3.9704545454545452,
            "end": 3.977272727272727,
            "velocity": 85,
            "duration": 0.006818181818181834
          },
          {
            "pitch": 37,
            "start": 4.018181818181818,
            "end": 4.0249999999999995,
            "velocity": 68,
            "duration": 0.006818181818181834
          },
          {
            "pitch": 42,
            "start": 3.993181818181818,
            "end": 4.093181818181818,
            "velocity": 65,
            "duration": 0.09999999999999964
          },
          {
            "pitch": 42,
            "start": 4.0636363636363635,
            "end": 4.093181818181818,
            "velocity": 105,
            "duration": 0.02954545454545432
          },
          {
            "pitch": 37,
            "start": 4.1090909090909085,
            "end": 4.118181818181818,
            "velocity": 93,
            "duration": 0.009090909090909705
          },
          {
            "pitch": 35,
            "start": 4.0636363636363635,
            "end": 4.163636363636363,
            "velocity": 117,
            "duration": 0.09999999999999964
          },
          {
            "pitch": 35,
            "start": 4.134090909090909,
            "end": 4.163636363636363,
            "velocity": 92,
            "duration": 0.02954545454545432
          },
          {
            "pitch": 51,
            "start": 4.0636363636363635,
            "end": 4.163636363636363,
            "velocity": 92,
            "duration": 0.09999999999999964
          },
          {
            "pitch": 51,
            "start": 4.156818181818181,
            "end": 4.163636363636363,
            "velocity": 94,
            "duration": 0.006818181818181834
          },
          {
            "pitch": 51,
            "start": 4.25,
            "end": 4.256818181818182,
            "velocity": 108,
            "duration": 0.006818181818181834
          },
          {
            "pitch": 35,
            "start": 4.25,
            "end": 4.35,
            "velocity": 124,
            "duration": 0.09999999999999964
          },
          {
            "pitch": 35,
            "start": 4.318181818181818,
            "end": 4.35,
            "velocity": 89,
            "duration": 0.0318181818181813
          },
          {
            "pitch": 42,
            "start": 4.25,
            "end": 4.35,
            "velocity": 98,
            "duration": 0.09999999999999964
          },
          {
            "pitch": 42,
            "start": 4.318181818181818,
            "end": 4.35,
            "velocity": 67,
            "duration": 0.0318181818181813
          },
          {
            "pitch": 51,
            "start": 4.343181818181818,
            "end": 4.35,
            "velocity": 90,
            "duration": 0.006818181818181834
          },
          {
            "pitch": 51,
            "start": 4.411363636363636,
            "end": 4.443181818181818,
            "velocity": 78,
            "duration": 0.03181818181818219
          },
          {
            "pitch": 51,
            "start": 4.504545454545454,
            "end": 4.511363636363636,
            "velocity": 102,
            "duration": 0.006818181818181834
          },
          {
            "pitch": 35,
            "start": 4.434090909090909,
            "end": 4.534090909090909,
            "velocity": 106,
            "duration": 0.10000000000000053
          },
          {
            "pitch": 35,
            "start": 4.504545454545454,
            "end": 4.534090909090909,
            "velocity": 117,
            "duration": 0.029545454545455208
          },
          {
            "pitch": 35,
            "start": 4.575,
            "end": 4.6045454545454545,
            "velocity": 65,
            "duration": 0.02954545454545432
          },
          {
            "pitch": 51,
            "start": 4.597727272727273,
            "end": 4.6045454545454545,
            "velocity": 76,
            "duration": 0.006818181818181834
          },
          {
            "pitch": 35,
            "start": 4.620454545454545,
            "end": 4.675,
            "velocity": 78,
            "duration": 0.054545454545454675
          },
          {
            "pitch": 51,
            "start": 4.6909090909090905,
            "end": 4.697727272727272,
            "velocity": 69,
            "duration": 0.006818181818181834
          },
          {
            "pitch": 35,
            "start": 4.6909090909090905,
            "end": 4.720454545454545,
            "velocity": 111,
            "duration": 0.02954545454545432
          },
          {
            "pitch": 42,
            "start": 4.620454545454545,
            "end": 4.720454545454545,
            "velocity": 100,
            "duration": 0.09999999999999964
          },
          {
            "pitch": 42,
            "start": 4.6909090909090905,
            "end": 4.720454545454545,
            "velocity": 89,
            "duration": 0.02954545454545432
          },
          {
            "pitch": 37,
            "start": 4.643181818181818,
            "end": 4.743181818181818,
            "velocity": 95,
            "duration": 0.10000000000000053
          },
          {
            "pitch": 37,
            "start": 4.736363636363636,
            "end": 4.743181818181818,
            "velocity": 103,
            "duration": 0.006818181818181834
          },
          {
            "pitch": 35,
            "start": 4.759090909090909,
            "end": 4.790909090909091,
            "velocity": 81,
            "duration": 0.03181818181818219
          },
          {
            "pitch": 37,
            "start": 4.852272727272727,
            "end": 4.952272727272727,
            "velocity": 101,
            "duration": 0.10000000000000053
          },
          {
            "pitch": 37,
            "start": 4.922727272727273,
            "end": 4.952272727272727,
            "velocity": 90,
            "duration": 0.02954545454545432
          },
          {
            "pitch": 35,
            "start": 4.877272727272727,
            "end": 4.977272727272727,
            "velocity": 117,
            "duration": 0.09999999999999964
          },
          {
            "pitch": 35,
            "start": 4.945454545454545,
            "end": 4.977272727272727,
            "velocity": 90,
            "duration": 0.0318181818181813
          },
          {
            "pitch": 37,
            "start": 5.015909090909091,
            "end": 5.0227272727272725,
            "velocity": 89,
            "duration": 0.006818181818181834
          },
          {
            "pitch": 42,
            "start": 4.993181818181818,
            "end": 5.093181818181818,
            "velocity": 68,
            "duration": 0.09999999999999964
          },
          {
            "pitch": 42,
            "start": 5.0613636363636365,
            "end": 5.093181818181818,
            "velocity": 111,
            "duration": 0.0318181818181813
          },
          {
            "pitch": 37,
            "start": 5.1090909090909085,
            "end": 5.11590909090909,
            "velocity": 115,
            "duration": 0.006818181818181834
          },
          {
            "pitch": 35,
            "start": 5.0613636363636365,
            "end": 5.161363636363636,
            "velocity": 118,
            "duration": 0.09999999999999964
          },
          {
            "pitch": 35,
            "start": 5.131818181818182,
            "end": 5.161363636363636,
            "velocity": 91,
            "duration": 0.02954545454545432
          },
          {
            "pitch": 51,
            "start": 5.0613636363636365,
            "end": 5.161363636363636,
            "velocity": 81,
            "duration": 0.09999999999999964
          },
          {
            "pitch": 51,
            "start": 5.131818181818182,
            "end": 5.161363636363636,
            "velocity": 79,
            "duration": 0.02954545454545432
          },
          {
            "pitch": 37,
            "start": 5.177272727272727,
            "end": 5.209090909090909,
            "velocity": 67,
            "duration": 0.03181818181818219
          },
          {
            "pitch": 51,
            "start": 5.225,
            "end": 5.2318181818181815,
            "velocity": 99,
            "duration": 0.006818181818181834
          },
          {
            "pitch": 45,
            "start": 5.154545454545454,
            "end": 5.254545454545454,
            "velocity": 70,
            "duration": 0.09999999999999964
          },
          {
            "pitch": 45,
            "start": 5.247727272727272,
            "end": 5.254545454545454,
            "velocity": 75,
            "duration": 0.006818181818181834
          },
          {
            "pitch": 35,
            "start": 5.247727272727272,
            "end": 5.347727272727273,
            "velocity": 102,
            "duration": 0.10000000000000053
          },
          {
            "pitch": 45,
            "start": 5.293181818181818,
            "end": 5.347727272727273,
            "velocity": 85,
            "duration": 0.054545454545454675
          },
          {
            "pitch": 51,
            "start": 5.386363636363636,
            "end": 5.486363636363636,
            "velocity": 70,
            "duration": 0.10000000000000053
          },
          {
            "pitch": 41,
            "start": 5.411363636363636,
            "end": 5.511363636363636,
            "velocity": 71,
            "duration": 0.09999999999999964
          },
          {
            "pitch": 35,
            "start": 5.502272727272727,
            "end": 5.602272727272727,
            "velocity": 91,
            "duration": 0.09999999999999964
          },
          {
            "pitch": 35,
            "start": 5.595454545454545,
            "end": 5.602272727272727,
            "velocity": 111,
            "duration": 0.006818181818181834
          },
          {
            "pitch": 42,
            "start": 5.502272727272727,
            "end": 5.602272727272727,
            "velocity": 83,
            "duration": 0.09999999999999964
          },
          {
            "pitch": 51,
            "start": 5.502272727272727,
            "end": 5.602272727272727,
            "velocity": 86,
            "duration": 0.09999999999999964
          },
          {
            "pitch": 51,
            "start": 5.595454545454545,
            "end": 5.602272727272727,
            "velocity": 88,
            "duration": 0.006818181818181834
          },
          {
            "pitch": 35,
            "start": 5.6886363636363635,
            "end": 5.695454545454545,
            "velocity": 123,
            "duration": 0.006818181818181834
          },
          {
            "pitch": 51,
            "start": 5.6886363636363635,
            "end": 5.695454545454545,
            "velocity": 101,
            "duration": 0.006818181818181834
          },
          {
            "pitch": 35,
            "start": 5.759090909090909,
            "end": 5.788636363636363,
            "velocity": 89,
            "duration": 0.02954545454545432
          },
          {
            "pitch": 42,
            "start": 5.6886363636363635,
            "end": 5.788636363636363,
            "velocity": 101,
            "duration": 0.09999999999999964
          },
          {
            "pitch": 51,
            "start": 5.759090909090909,
            "end": 5.788636363636363,
            "velocity": 94,
            "duration": 0.02954545454545432
          },
          {
            "pitch": 37,
            "start": 5.736363636363636,
            "end": 5.836363636363636,
            "velocity": 90,
            "duration": 0.09999999999999964
          },
          {
            "pitch": 37,
            "start": 5.852272727272727,
            "end": 5.952272727272727,
            "velocity": 109,
            "duration": 0.10000000000000053
          },
          {
            "pitch": 35,
            "start": 5.875,
            "end": 5.975,
            "velocity": 124,
            "duration": 0.09999999999999964
          },
          {
            "pitch": 35,
            "start": 5.9431818181818175,
            "end": 5.975,
            "velocity": 97,
            "duration": 0.03181818181818219
          },
          {
            "pitch": 42,
            "start": 5.875,
            "end": 5.975,
            "velocity": 108,
            "duration": 0.09999999999999964
          },
          {
            "pitch": 42,
            "start": 5.968181818181818,
            "end": 5.975,
            "velocity": 90,
            "duration": 0.006818181818181834
          },
          {
            "pitch": 51,
            "start": 5.875,
            "end": 5.975,
            "velocity": 107,
            "duration": 0.09999999999999964
          },
          {
            "pitch": 51,
            "start": 5.9431818181818175,
            "end": 5.975,
            "velocity": 75,
            "duration": 0.03181818181818219
          },
          {
            "pitch": 51,
            "start": 5.99090909090909,
            "end": 6.043181818181818,
            "velocity": 65,
            "duration": 0.05227272727272769
          },
          {
            "pitch": 51,
            "start": 6.036363636363636,
            "end": 6.043181818181818,
            "velocity": 77,
            "duration": 0.006818181818181834
          },
          {
            "pitch": 37,
            "start": 5.968181818181818,
            "end": 6.0681818181818175,
            "velocity": 71,
            "duration": 0.09999999999999964
          },
          {
            "pitch": 42,
            "start": 6.0613636363636365,
            "end": 6.0681818181818175,
            "velocity": 107,
            "duration": 0.006818181818180946
          },
          {
            "pitch": 51,
            "start": 6.129545454545454,
            "end": 6.136363636363636,
            "velocity": 100,
            "duration": 0.006818181818181834
          },
          {
            "pitch": 35,
            "start": 6.0613636363636365,
            "end": 6.161363636363636,
            "velocity": 103,
            "duration": 0.09999999999999964
          },
          {
            "pitch": 35,
            "start": 6.129545454545454,
            "end": 6.161363636363636,
            "velocity": 113,
            "duration": 0.03181818181818219
          },
          {
            "pitch": 37,
            "start": 6.084090909090909,
            "end": 6.184090909090909,
            "velocity": 70,
            "duration": 0.09999999999999964
          },
          {
            "pitch": 51,
            "start": 6.222727272727273,
            "end": 6.2295454545454545,
            "velocity": 71,
            "duration": 0.006818181818181834
          },
          {
            "pitch": 51,
            "start": 6.2704545454545455,
            "end": 6.322727272727272,
            "velocity": 77,
            "duration": 0.052272727272726804
          },
          {
            "pitch": 51,
            "start": 6.3159090909090905,
            "end": 6.322727272727272,
            "velocity": 84,
            "duration": 0.006818181818181834
          },
          {
            "pitch": 35,
            "start": 6.245454545454545,
            "end": 6.345454545454545,
            "velocity": 92,
            "duration": 0.09999999999999964
          },
          {
            "pitch": 35,
            "start": 6.3159090909090905,
            "end": 6.345454545454545,
            "velocity": 115,
            "duration": 0.02954545454545432
          },
          {
            "pitch": 42,
            "start": 6.245454545454545,
            "end": 6.345454545454545,
            "velocity": 98,
            "duration": 0.09999999999999964
          },
          {
            "pitch": 42,
            "start": 6.3159090909090905,
            "end": 6.345454545454545,
            "velocity": 101,
            "duration": 0.02954545454545432
          },
          {
            "pitch": 37,
            "start": 6.293181818181818,
            "end": 6.393181818181818,
            "velocity": 70,
            "duration": 0.09999999999999964
          },
          {
            "pitch": 37,
            "start": 6.361363636363636,
            "end": 6.393181818181818,
            "velocity": 94,
            "duration": 0.0318181818181813
          },
          {
            "pitch": 35,
            "start": 6.386363636363636,
            "end": 6.415909090909091,
            "velocity": 70,
            "duration": 0.029545454545455208
          },
          {
            "pitch": 42,
            "start": 6.409090909090909,
            "end": 6.415909090909091,
            "velocity": 86,
            "duration": 0.006818181818181834
          },
          {
            "pitch": 51,
            "start": 6.409090909090909,
            "end": 6.415909090909091,
            "velocity": 95,
            "duration": 0.006818181818181834
          },
          {
            "pitch": 37,
            "start": 6.454545454545454,
            "end": 6.461363636363636,
            "velocity": 81,
            "duration": 0.006818181818181834
          },
          {
            "pitch": 35,
            "start": 6.431818181818182,
            "end": 6.486363636363636,
            "velocity": 76,
            "duration": 0.054545454545454675
          },
          {
            "pitch": 42,
            "start": 6.502272727272727,
            "end": 6.509090909090909,
            "velocity": 98,
            "duration": 0.006818181818181834
          },
          {
            "pitch": 51,
            "start": 6.502272727272727,
            "end": 6.509090909090909,
            "velocity": 107,
            "duration": 0.006818181818181834
          },
          {
            "pitch": 35,
            "start": 6.502272727272727,
            "end": 6.531818181818181,
            "velocity": 124,
            "duration": 0.02954545454545432
          },
          {
            "pitch": 37,
            "start": 6.5249999999999995,
            "end": 6.554545454545454,
            "velocity": 92,
            "duration": 0.02954545454545432
          },
          {
            "pitch": 35,
            "start": 6.570454545454545,
            "end": 6.602272727272727,
            "velocity": 94,
            "duration": 0.0318181818181813
          },
          {
            "pitch": 51,
            "start": 6.595454545454545,
            "end": 6.602272727272727,
            "velocity": 83,
            "duration": 0.006818181818181834
          },
          {
            "pitch": 51,
            "start": 6.686363636363636,
            "end": 6.695454545454545,
            "velocity": 98,
            "duration": 0.009090909090909705
          },
          {
            "pitch": 35,
            "start": 6.686363636363636,
            "end": 6.786363636363636,
            "velocity": 120,
            "duration": 0.10000000000000053
          },
          {
            "pitch": 35,
            "start": 6.756818181818182,
            "end": 6.786363636363636,
            "velocity": 101,
            "duration": 0.02954545454545432
          },
          {
            "pitch": 42,
            "start": 6.686363636363636,
            "end": 6.786363636363636,
            "velocity": 114,
            "duration": 0.10000000000000053
          },
          {
            "pitch": 42,
            "start": 6.756818181818182,
            "end": 6.786363636363636,
            "velocity": 64,
            "duration": 0.02954545454545432
          },
          {
            "pitch": 51,
            "start": 6.756818181818182,
            "end": 6.786363636363636,
            "velocity": 94,
            "duration": 0.02954545454545432
          },
          {
            "pitch": 37,
            "start": 6.85,
            "end": 6.949999999999999,
            "velocity": 96,
            "duration": 0.09999999999999964
          },
          {
            "pitch": 35,
            "start": 6.872727272727272,
            "end": 6.972727272727273,
            "velocity": 114,
            "duration": 0.10000000000000053
          },
          {
            "pitch": 35,
            "start": 6.9431818181818175,
            "end": 6.972727272727273,
            "velocity": 114,
            "duration": 0.029545454545455208
          },
          {
            "pitch": 42,
            "start": 6.872727272727272,
            "end": 6.972727272727273,
            "velocity": 90,
            "duration": 0.10000000000000053
          },
          {
            "pitch": 42,
            "start": 6.9431818181818175,
            "end": 6.972727272727273,
            "velocity": 88,
            "duration": 0.029545454545455208
          },
          {
            "pitch": 51,
            "start": 6.872727272727272,
            "end": 6.972727272727273,
            "velocity": 99,
            "duration": 0.10000000000000053
          },
          {
            "pitch": 51,
            "start": 6.9431818181818175,
            "end": 6.972727272727273,
            "velocity": 98,
            "duration": 0.029545454545455208
          },
          {
            "pitch": 51,
            "start": 6.988636363636363,
            "end": 7.043181818181818,
            "velocity": 74,
            "duration": 0.054545454545454675
          },
          {
            "pitch": 51,
            "start": 7.036363636363636,
            "end": 7.043181818181818,
            "velocity": 87,
            "duration": 0.006818181818181834
          },
          {
            "pitch": 51,
            "start": 7.129545454545454,
            "end": 7.136363636363636,
            "velocity": 107,
            "duration": 0.006818181818181834
          },
          {
            "pitch": 35,
            "start": 7.059090909090909,
            "end": 7.159090909090909,
            "velocity": 72,
            "duration": 0.10000000000000053
          },
          {
            "pitch": 35,
            "start": 7.129545454545454,
            "end": 7.159090909090909,
            "velocity": 122,
            "duration": 0.029545454545455208
          },
          {
            "pitch": 42,
            "start": 7.059090909090909,
            "end": 7.159090909090909,
            "velocity": 99,
            "duration": 0.10000000000000053
          },
          {
            "pitch": 42,
            "start": 7.129545454545454,
            "end": 7.159090909090909,
            "velocity": 80,
            "duration": 0.029545454545455208
          },
          {
            "pitch": 37,
            "start": 7.081818181818181,
            "end": 7.181818181818182,
            "velocity": 95,
            "duration": 0.10000000000000053
          },
          {
            "pitch": 51,
            "start": 7.220454545454545,
            "end": 7.2295454545454545,
            "velocity": 82,
            "duration": 0.009090909090909705
          },
          {
            "pitch": 37,
            "start": 7.220454545454545,
            "end": 7.320454545454545,
            "velocity": 67,
            "duration": 0.10000000000000053
          },
          {
            "pitch": 37,
            "start": 7.268181818181818,
            "end": 7.320454545454545,
            "velocity": 83,
            "duration": 0.05227272727272769
          },
          {
            "pitch": 51,
            "start": 7.3136363636363635,
            "end": 7.320454545454545,
            "velocity": 94,
            "duration": 0.006818181818181834
          },
          {
            "pitch": 35,
            "start": 7.245454545454545,
            "end": 7.345454545454545,
            "velocity": 76,
            "duration": 0.09999999999999964
          },
          {
            "pitch": 35,
            "start": 7.3136363636363635,
            "end": 7.345454545454545,
            "velocity": 121,
            "duration": 0.0318181818181813
          },
          {
            "pitch": 42,
            "start": 7.245454545454545,
            "end": 7.345454545454545,
            "velocity": 101,
            "duration": 0.09999999999999964
          },
          {
            "pitch": 42,
            "start": 7.3136363636363635,
            "end": 7.345454545454545,
            "velocity": 112,
            "duration": 0.0318181818181813
          },
          {
            "pitch": 37,
            "start": 7.338636363636363,
            "end": 7.368181818181818,
            "velocity": 93,
            "duration": 0.029545454545455208
          },
          {
            "pitch": 35,
            "start": 7.384090909090909,
            "end": 7.413636363636363,
            "velocity": 79,
            "duration": 0.02954545454545432
          },
          {
            "pitch": 42,
            "start": 7.406818181818181,
            "end": 7.413636363636363,
            "velocity": 101,
            "duration": 0.006818181818181834
          },
          {
            "pitch": 51,
            "start": 7.406818181818181,
            "end": 7.413636363636363,
            "velocity": 97,
            "duration": 0.006818181818181834
          },
          {
            "pitch": 42,
            "start": 7.5,
            "end": 7.506818181818182,
            "velocity": 114,
            "duration": 0.006818181818181834
          },
          {
            "pitch": 51,
            "start": 7.5,
            "end": 7.506818181818182,
            "velocity": 103,
            "duration": 0.006818181818181834
          },
          {
            "pitch": 37,
            "start": 7.454545454545454,
            "end": 7.554545454545454,
            "velocity": 68,
            "duration": 0.09999999999999964
          },
          {
            "pitch": 37,
            "start": 7.545454545454545,
            "end": 7.554545454545454,
            "velocity": 66,
            "duration": 0.009090909090908816
          },
          {
            "pitch": 35,
            "start": 7.5,
            "end": 7.6,
            "velocity": 125,
            "duration": 0.09999999999999964
          },
          {
            "pitch": 35,
            "start": 7.570454545454545,
            "end": 7.6,
            "velocity": 101,
            "duration": 0.02954545454545432
          },
          {
            "pitch": 42,
            "start": 7.593181818181818,
            "end": 7.6,
            "velocity": 88,
            "duration": 0.006818181818181834
          },
          {
            "pitch": 51,
            "start": 7.570454545454545,
            "end": 7.6,
            "velocity": 86,
            "duration": 0.02954545454545432
          },
          {
            "pitch": 45,
            "start": 7.5227272727272725,
            "end": 7.622727272727272,
            "velocity": 66,
            "duration": 0.09999999999999964
          },
          {
            "pitch": 51,
            "start": 7.663636363636363,
            "end": 7.670454545454545,
            "velocity": 99,
            "duration": 0.006818181818181834
          },
          {
            "pitch": 42,
            "start": 7.686363636363636,
            "end": 7.6931818181818175,
            "velocity": 90,
            "duration": 0.006818181818181834
          },
          {
            "pitch": 51,
            "start": 7.754545454545454,
            "end": 7.763636363636364,
            "velocity": 95,
            "duration": 0.009090909090909705
          },
          {
            "pitch": 35,
            "start": 7.709090909090909,
            "end": 7.809090909090909,
            "velocity": 77,
            "duration": 0.09999999999999964
          },
          {
            "pitch": 35,
            "start": 7.754545454545454,
            "end": 7.809090909090909,
            "velocity": 65,
            "duration": 0.054545454545454675
          },
          {
            "pitch": 51,
            "start": 7.847727272727273,
            "end": 7.8545454545454545,
            "velocity": 100,
            "duration": 0.006818181818181834
          },
          {
            "pitch": 51,
            "start": 7.9409090909090905,
            "end": 7.947727272727272,
            "velocity": 73,
            "duration": 0.006818181818181834
          },
          {
            "pitch": 35,
            "start": 7.870454545454545,
            "end": 7.970454545454545,
            "velocity": 97,
            "duration": 0.09999999999999964
          },
          {
            "pitch": 42,
            "start": 7.870454545454545,
            "end": 7.970454545454545,
            "velocity": 91,
            "duration": 0.09999999999999964
          },
          {
            "pitch": 42,
            "start": 7.963636363636363,
            "end": 7.970454545454545,
            "velocity": 79,
            "duration": 0.006818181818181834
          },
          {
            "pitch": 51,
            "start": 7.988636363636363,
            "end": 8.040909090909091,
            "velocity": 79,
            "duration": 0.05227272727272769
          },
          {
            "pitch": 51,
            "start": 8.034090909090908,
            "end": 8.040909090909091,
            "velocity": 94,
            "duration": 0.0068181818181827225
          },
          {
            "pitch": 42,
            "start": 8.056818181818182,
            "end": 8.063636363636363,
            "velocity": 97,
            "duration": 0.006818181818180946
          },
          {
            "pitch": 51,
            "start": 8.104545454545454,
            "end": 8.134090909090908,
            "velocity": 76,
            "duration": 0.02954545454545432
          },
          {
            "pitch": 42,
            "start": 8.127272727272727,
            "end": 8.156818181818181,
            "velocity": 93,
            "duration": 0.02954545454545432
          },
          {
            "pitch": 41,
            "start": 8.15,
            "end": 8.25,
            "velocity": 79,
            "duration": 0.09999999999999964
          },
          {
            "pitch": 51,
            "start": 8.220454545454546,
            "end": 8.320454545454545,
            "velocity": 100,
            "duration": 0.09999999999999964
          },
          {
            "pitch": 51,
            "start": 8.288636363636364,
            "end": 8.320454545454545,
            "velocity": 92,
            "duration": 0.0318181818181813
          },
          {
            "pitch": 35,
            "start": 8.243181818181817,
            "end": 8.343181818181817,
            "velocity": 74,
            "duration": 0.09999999999999964
          },
          {
            "pitch": 35,
            "start": 8.313636363636363,
            "end": 8.343181818181817,
            "velocity": 82,
            "duration": 0.02954545454545432
          },
          {
            "pitch": 42,
            "start": 8.313636363636363,
            "end": 8.413636363636364,
            "velocity": 107,
            "duration": 0.10000000000000142
          },
          {
            "pitch": 42,
            "start": 8.404545454545454,
            "end": 8.413636363636364,
            "velocity": 69,
            "duration": 0.009090909090909705
          },
          {
            "pitch": 42,
            "start": 8.497727272727273,
            "end": 8.504545454545454,
            "velocity": 77,
            "duration": 0.006818181818180946
          },
          {
            "pitch": 51,
            "start": 8.404545454545454,
            "end": 8.504545454545454,
            "velocity": 73,
            "duration": 0.09999999999999964
          },
          {
            "pitch": 51,
            "start": 8.475,
            "end": 8.504545454545454,
            "velocity": 82,
            "duration": 0.02954545454545432
          },
          {
            "pitch": 35,
            "start": 8.497727272727273,
            "end": 8.597727272727273,
            "velocity": 90,
            "duration": 0.09999999999999964
          },
          {
            "pitch": 42,
            "start": 8.59090909090909,
            "end": 8.597727272727273,
            "velocity": 79,
            "duration": 0.0068181818181827225
          },
          {
            "pitch": 41,
            "start": 8.522727272727272,
            "end": 8.622727272727273,
            "velocity": 68,
            "duration": 0.10000000000000142
          },
          {
            "pitch": 42,
            "start": 8.684090909090909,
            "end": 8.690909090909091,
            "velocity": 91,
            "duration": 0.0068181818181827225
          },
          {
            "pitch": 51,
            "start": 8.661363636363635,
            "end": 8.761363636363637,
            "velocity": 79,
            "duration": 0.10000000000000142
          },
          {
            "pitch": 51,
            "start": 8.754545454545454,
            "end": 8.761363636363637,
            "velocity": 94,
            "duration": 0.0068181818181827225
          },
          {
            "pitch": 35,
            "start": 8.684090909090909,
            "end": 8.784090909090908,
            "velocity": 86,
            "duration": 0.09999999999999964
          },
          {
            "pitch": 35,
            "start": 8.754545454545454,
            "end": 8.784090909090908,
            "velocity": 106,
            "duration": 0.02954545454545432
          },
          {
            "pitch": 42,
            "start": 8.777272727272727,
            "end": 8.784090909090908,
            "velocity": 70,
            "duration": 0.006818181818180946
          },
          {
            "pitch": 41,
            "start": 8.73181818181818,
            "end": 8.831818181818182,
            "velocity": 75,
            "duration": 0.10000000000000142
          },
          {
            "pitch": 41,
            "start": 8.777272727272727,
            "end": 8.831818181818182,
            "velocity": 66,
            "duration": 0.054545454545454675
          },
          {
            "pitch": 51,
            "start": 8.847727272727273,
            "end": 8.854545454545454,
            "velocity": 78,
            "duration": 0.006818181818180946
          },
          {
            "pitch": 42,
            "start": 8.870454545454544,
            "end": 8.877272727272727,
            "velocity": 87,
            "duration": 0.0068181818181827225
          },
          {
            "pitch": 35,
            "start": 8.870454545454544,
            "end": 8.970454545454546,
            "velocity": 81,
            "duration": 0.10000000000000142
          },
          {
            "pitch": 35,
            "start": 8.938636363636363,
            "end": 8.970454545454546,
            "velocity": 100,
            "duration": 0.03181818181818308
          },
          {
            "pitch": 42,
            "start": 8.963636363636363,
            "end": 8.970454545454546,
            "velocity": 66,
            "duration": 0.0068181818181827225
          },
          {
            "pitch": 37,
            "start": 8.893181818181818,
            "end": 8.993181818181817,
            "velocity": 120,
            "duration": 0.09999999999999964
          },
          {
            "pitch": 37,
            "start": 8.986363636363636,
            "end": 8.993181818181817,
            "velocity": 100,
            "duration": 0.006818181818180946
          },
          {
            "pitch": 35,
            "start": 9.009090909090908,
            "end": 9.038636363636364,
            "velocity": 75,
            "duration": 0.029545454545456096
          },
          {
            "pitch": 42,
            "start": 9.056818181818182,
            "end": 9.063636363636363,
            "velocity": 81,
            "duration": 0.006818181818180946
          },
          {
            "pitch": 35,
            "start": 9.056818181818182,
            "end": 9.10909090909091,
            "velocity": 77,
            "duration": 0.05227272727272769
          },
          {
            "pitch": 51,
            "start": 9.031818181818181,
            "end": 9.131818181818181,
            "velocity": 75,
            "duration": 0.09999999999999964
          },
          {
            "pitch": 51,
            "start": 9.102272727272727,
            "end": 9.131818181818181,
            "velocity": 85,
            "duration": 0.02954545454545432
          },
          {
            "pitch": 35,
            "start": 9.125,
            "end": 9.156818181818181,
            "velocity": 109,
            "duration": 0.0318181818181813
          },
          {
            "pitch": 45,
            "start": 9.079545454545453,
            "end": 9.179545454545455,
            "velocity": 95,
            "duration": 0.10000000000000142
          },
          {
            "pitch": 51,
            "start": 9.172727272727272,
            "end": 9.202272727272726,
            "velocity": 76,
            "duration": 0.02954545454545432
          },
          {
            "pitch": 51,
            "start": 9.218181818181817,
            "end": 9.272727272727272,
            "velocity": 78,
            "duration": 0.054545454545454675
          },
          {
            "pitch": 41,
            "start": 9.218181818181817,
            "end": 9.318181818181818,
            "velocity": 69,
            "duration": 0.10000000000000142
          },
          {
            "pitch": 51,
            "start": 9.311363636363636,
            "end": 9.318181818181818,
            "velocity": 93,
            "duration": 0.0068181818181827225
          },
          {
            "pitch": 35,
            "start": 9.311363636363636,
            "end": 9.411363636363635,
            "velocity": 114,
            "duration": 0.09999999999999964
          },
          {
            "pitch": 35,
            "start": 9.381818181818181,
            "end": 9.411363636363635,
            "velocity": 72,
            "duration": 0.02954545454545432
          },
          {
            "pitch": 42,
            "start": 9.311363636363636,
            "end": 9.411363636363635,
            "velocity": 94,
            "duration": 0.09999999999999964
          },
          {
            "pitch": 42,
            "start": 9.404545454545454,
            "end": 9.411363636363635,
            "velocity": 81,
            "duration": 0.006818181818180946
          },
          {
            "pitch": 51,
            "start": 9.35681818181818,
            "end": 9.411363636363635,
            "velocity": 81,
            "duration": 0.054545454545454675
          },
          {
            "pitch": 51,
            "start": 9.404545454545454,
            "end": 9.411363636363635,
            "velocity": 80,
            "duration": 0.006818181818180946
          },
          {
            "pitch": 42,
            "start": 9.497727272727273,
            "end": 9.504545454545454,
            "velocity": 88,
            "duration": 0.006818181818180946
          },
          {
            "pitch": 35,
            "start": 9.497727272727273,
            "end": 9.597727272727273,
            "velocity": 90,
            "duration": 0.09999999999999964
          },
          {
            "pitch": 35,
            "start": 9.56590909090909,
            "end": 9.597727272727273,
            "velocity": 101,
            "duration": 0.03181818181818308
          },
          {
            "pitch": 42,
            "start": 9.59090909090909,
            "end": 9.597727272727273,
            "velocity": 81,
            "duration": 0.0068181818181827225
          },
          {
            "pitch": 37,
            "start": 9.520454545454545,
            "end": 9.620454545454544,
            "velocity": 104,
            "duration": 0.09999999999999964
          },
          {
            "pitch": 51,
            "start": 9.56590909090909,
            "end": 9.665909090909091,
            "velocity": 64,
            "duration": 0.10000000000000142
          },
          {
            "pitch": 51,
            "start": 9.659090909090908,
            "end": 9.665909090909091,
            "velocity": 85,
            "duration": 0.0068181818181827225
          },
          {
            "pitch": 42,
            "start": 9.681818181818182,
            "end": 9.69090909090909,
            "velocity": 95,
            "duration": 0.009090909090907928
          },
          {
            "pitch": 41,
            "start": 9.659090909090908,
            "end": 9.759090909090908,
            "velocity": 68,
            "duration": 0.09999999999999964
          },
          {
            "pitch": 51,
            "start": 9.752272727272727,
            "end": 9.759090909090908,
            "velocity": 87,
            "duration": 0.006818181818180946
          },
          {
            "pitch": 35,
            "start": 9.681818181818182,
            "end": 9.781818181818181,
            "velocity": 78,
            "duration": 0.09999999999999964
          },
          {
            "pitch": 35,
            "start": 9.752272727272727,
            "end": 9.781818181818181,
            "velocity": 79,
            "duration": 0.02954545454545432
          },
          {
            "pitch": 42,
            "start": 9.752272727272727,
            "end": 9.781818181818181,
            "velocity": 71,
            "duration": 0.02954545454545432
          },
          {
            "pitch": 35,
            "start": 9.822727272727272,
            "end": 9.852272727272727,
            "velocity": 65,
            "duration": 0.02954545454545432
          },
          {
            "pitch": 37,
            "start": 9.775,
            "end": 9.875,
            "velocity": 70,
            "duration": 0.09999999999999964
          },
          {
            "pitch": 37,
            "start": 9.845454545454546,
            "end": 9.875,
            "velocity": 85,
            "duration": 0.02954545454545432
          },
          {
            "pitch": 35,
            "start": 9.868181818181817,
            "end": 9.922727272727272,
            "velocity": 98,
            "duration": 0.054545454545454675
          },
          {
            "pitch": 37,
            "start": 9.89090909090909,
            "end": 9.945454545454545,
            "velocity": 109,
            "duration": 0.054545454545454675
          },
          {
            "pitch": 35,
            "start": 9.938636363636363,
            "end": 9.968181818181817,
            "velocity": 113,
            "duration": 0.02954545454545432
          },
          {
            "pitch": 42,
            "start": 9.868181818181817,
            "end": 9.968181818181817,
            "velocity": 106,
            "duration": 0.09999999999999964
          },
          {
            "pitch": 42,
            "start": 9.938636363636363,
            "end": 9.968181818181817,
            "velocity": 74,
            "duration": 0.02954545454545432
          },
          {
            "pitch": 51,
            "start": 9.868181818181817,
            "end": 9.968181818181817,
            "velocity": 79,
            "duration": 0.09999999999999964
          },
          {
            "pitch": 51,
            "start": 9.938636363636363,
            "end": 9.968181818181817,
            "velocity": 93,
            "duration": 0.02954545454545432
          },
          {
            "pitch": 35,
            "start": 10.006818181818181,
            "end": 10.038636363636364,
            "velocity": 74,
            "duration": 0.03181818181818308
          },
          {
            "pitch": 51,
            "start": 9.98409090909091,
            "end": 10.038636363636364,
            "velocity": 79,
            "duration": 0.054545454545454675
          },
          {
            "pitch": 37,
            "start": 10.031818181818181,
            "end": 10.131818181818181,
            "velocity": 84,
            "duration": 0.09999999999999964
          },
          {
            "pitch": 35,
            "start": 10.125,
            "end": 10.225,
            "velocity": 79,
            "duration": 0.09999999999999964
          },
          {
            "pitch": 35,
            "start": 10.193181818181818,
            "end": 10.225,
            "velocity": 68,
            "duration": 0.0318181818181813
          },
          {
            "pitch": 42,
            "start": 10.125,
            "end": 10.225,
            "velocity": 92,
            "duration": 0.09999999999999964
          },
          {
            "pitch": 42,
            "start": 10.193181818181818,
            "end": 10.225,
            "velocity": 79,
            "duration": 0.0318181818181813
          },
          {
            "pitch": 51,
            "start": 10.125,
            "end": 10.225,
            "velocity": 92,
            "duration": 0.09999999999999964
          },
          {
            "pitch": 51,
            "start": 10.193181818181818,
            "end": 10.225,
            "velocity": 87,
            "duration": 0.0318181818181813
          },
          {
            "pitch": 41,
            "start": 10.21590909090909,
            "end": 10.31590909090909,
            "velocity": 71,
            "duration": 0.09999999999999964
          },
          {
            "pitch": 35,
            "start": 10.309090909090909,
            "end": 10.409090909090908,
            "velocity": 104,
            "duration": 0.09999999999999964
          },
          {
            "pitch": 35,
            "start": 10.379545454545454,
            "end": 10.409090909090908,
            "velocity": 94,
            "duration": 0.02954545454545432
          },
          {
            "pitch": 42,
            "start": 10.309090909090909,
            "end": 10.409090909090908,
            "velocity": 90,
            "duration": 0.09999999999999964
          },
          {
            "pitch": 42,
            "start": 10.402272727272727,
            "end": 10.409090909090908,
            "velocity": 65,
            "duration": 0.006818181818180946
          },
          {
            "pitch": 51,
            "start": 10.331818181818182,
            "end": 10.431818181818182,
            "velocity": 93,
            "duration": 0.09999999999999964
          },
          {
            "pitch": 51,
            "start": 10.379545454545454,
            "end": 10.431818181818182,
            "velocity": 89,
            "duration": 0.05227272727272769
          },
          {
            "pitch": 51,
            "start": 10.472727272727273,
            "end": 10.479545454545454,
            "velocity": 70,
            "duration": 0.006818181818180946
          },
          {
            "pitch": 35,
            "start": 10.495454545454544,
            "end": 10.595454545454546,
            "velocity": 74,
            "duration": 0.10000000000000142
          },
          {
            "pitch": 35,
            "start": 10.56590909090909,
            "end": 10.595454545454546,
            "velocity": 69,
            "duration": 0.029545454545456096
          },
          {
            "pitch": 37,
            "start": 10.518181818181818,
            "end": 10.618181818181817,
            "velocity": 97,
            "duration": 0.09999999999999964
          },
          {
            "pitch": 37,
            "start": 10.588636363636363,
            "end": 10.618181818181817,
            "velocity": 93,
            "duration": 0.02954545454545432
          },
          {
            "pitch": 41,
            "start": 10.518181818181818,
            "end": 10.618181818181817,
            "velocity": 78,
            "duration": 0.09999999999999964
          },
          {
            "pitch": 42,
            "start": 10.611363636363636,
            "end": 10.711363636363636,
            "velocity": 92,
            "duration": 0.09999999999999964
          },
          {
            "pitch": 42,
            "start": 10.681818181818182,
            "end": 10.711363636363636,
            "velocity": 94,
            "duration": 0.02954545454545432
          },
          {
            "pitch": 51,
            "start": 10.659090909090908,
            "end": 10.759090909090908,
            "velocity": 68,
            "duration": 0.09999999999999964
          },
          {
            "pitch": 51,
            "start": 10.75,
            "end": 10.759090909090908,
            "velocity": 85,
            "duration": 0.009090909090907928
          },
          {
            "pitch": 35,
            "start": 10.681818181818182,
            "end": 10.781818181818181,
            "velocity": 80,
            "duration": 0.09999999999999964
          },
          {
            "pitch": 35,
            "start": 10.75,
            "end": 10.781818181818181,
            "velocity": 112,
            "duration": 0.0318181818181813
          },
          {
            "pitch": 42,
            "start": 10.75,
            "end": 10.781818181818181,
            "velocity": 97,
            "duration": 0.0318181818181813
          },
          {
            "pitch": 37,
            "start": 10.727272727272727,
            "end": 10.827272727272726,
            "velocity": 70,
            "duration": 0.09999999999999964
          },
          {
            "pitch": 35,
            "start": 10.820454545454545,
            "end": 10.85,
            "velocity": 65,
            "duration": 0.02954545454545432
          },
          {
            "pitch": 51,
            "start": 10.797727272727272,
            "end": 10.85,
            "velocity": 82,
            "duration": 0.05227272727272769
          },
          {
            "pitch": 51,
            "start": 10.843181818181817,
            "end": 10.85,
            "velocity": 75,
            "duration": 0.0068181818181827225
          },
          {
            "pitch": 35,
            "start": 10.86590909090909,
            "end": 10.920454545454545,
            "velocity": 70,
            "duration": 0.054545454545454675
          },
          {
            "pitch": 51,
            "start": 10.936363636363636,
            "end": 10.943181818181818,
            "velocity": 81,
            "duration": 0.0068181818181827225
          },
          {
            "pitch": 35,
            "start": 10.936363636363636,
            "end": 10.96590909090909,
            "velocity": 111,
            "duration": 0.02954545454545432
          },
          {
            "pitch": 35,
            "start": 11.006818181818181,
            "end": 11.036363636363635,
            "velocity": 74,
            "duration": 0.02954545454545432
          },
          {
            "pitch": 42,
            "start": 10.936363636363636,
            "end": 11.036363636363635,
            "velocity": 99,
            "duration": 0.09999999999999964
          },
          {
            "pitch": 51,
            "start": 11.006818181818181,
            "end": 11.036363636363635,
            "velocity": 80,
            "duration": 0.02954545454545432
          },
          {
            "pitch": 37,
            "start": 10.98409090909091,
            "end": 11.084090909090909,
            "velocity": 89,
            "duration": 0.09999999999999964
          },
          {
            "pitch": 51,
            "start": 11.1,
            "end": 11.10681818181818,
            "velocity": 75,
            "duration": 0.006818181818180946
          },
          {
            "pitch": 51,
            "start": 11.19090909090909,
            "end": 11.2,
            "velocity": 67,
            "duration": 0.009090909090909705
          },
          {
            "pitch": 35,
            "start": 11.122727272727273,
            "end": 11.222727272727273,
            "velocity": 78,
            "duration": 0.09999999999999964
          },
          {
            "pitch": 42,
            "start": 11.122727272727273,
            "end": 11.222727272727273,
            "velocity": 85,
            "duration": 0.09999999999999964
          },
          {
            "pitch": 42,
            "start": 11.19090909090909,
            "end": 11.222727272727273,
            "velocity": 68,
            "duration": 0.03181818181818308
          },
          {
            "pitch": 51,
            "start": 11.261363636363637,
            "end": 11.290909090909091,
            "velocity": 75,
            "duration": 0.02954545454545432
          },
          {
            "pitch": 35,
            "start": 11.309090909090909,
            "end": 11.409090909090908,
            "velocity": 90,
            "duration": 0.09999999999999964
          },
          {
            "pitch": 35,
            "start": 11.377272727272727,
            "end": 11.409090909090908,
            "velocity": 107,
            "duration": 0.0318181818181813
          },
          {
            "pitch": 42,
            "start": 11.309090909090909,
            "end": 11.409090909090908,
            "velocity": 65,
            "duration": 0.09999999999999964
          },
          {
            "pitch": 35,
            "start": 11.447727272727272,
            "end": 11.477272727272727,
            "velocity": 66,
            "duration": 0.02954545454545432
          },
          {
            "pitch": 37,
            "start": 11.399999999999999,
            "end": 11.5,
            "velocity": 104,
            "duration": 0.10000000000000142
          },
          {
            "pitch": 37,
            "start": 11.470454545454546,
            "end": 11.5,
            "velocity": 78,
            "duration": 0.02954545454545432
          },
          {
            "pitch": 35,
            "start": 11.493181818181817,
            "end": 11.547727272727272,
            "velocity": 71,
            "duration": 0.054545454545454675
          },
          {
            "pitch": 35,
            "start": 11.563636363636363,
            "end": 11.593181818181817,
            "velocity": 107,
            "duration": 0.02954545454545432
          },
          {
            "pitch": 42,
            "start": 11.493181818181817,
            "end": 11.593181818181817,
            "velocity": 68,
            "duration": 0.09999999999999964
          },
          {
            "pitch": 42,
            "start": 11.563636363636363,
            "end": 11.593181818181817,
            "velocity": 89,
            "duration": 0.02954545454545432
          },
          {
            "pitch": 51,
            "start": 11.563636363636363,
            "end": 11.663636363636362,
            "velocity": 86,
            "duration": 0.09999999999999964
          },
          {
            "pitch": 51,
            "start": 11.656818181818181,
            "end": 11.663636363636362,
            "velocity": 85,
            "duration": 0.006818181818180946
          },
          {
            "pitch": 51,
            "start": 11.75,
            "end": 11.756818181818181,
            "velocity": 98,
            "duration": 0.006818181818180946
          },
          {
            "pitch": 42,
            "start": 11.679545454545455,
            "end": 11.779545454545454,
            "velocity": 65,
            "duration": 0.09999999999999964
          },
          {
            "pitch": 42,
            "start": 11.75,
            "end": 11.779545454545454,
            "velocity": 84,
            "duration": 0.02954545454545432
          },
          {
            "pitch": 35,
            "start": 11.75,
            "end": 11.85,
            "velocity": 117,
            "duration": 0.09999999999999964
          },
          {
            "pitch": 35,
            "start": 11.818181818181818,
            "end": 11.85,
            "velocity": 64,
            "duration": 0.0318181818181813
          },
          {
            "pitch": 51,
            "start": 11.843181818181817,
            "end": 11.85,
            "velocity": 86,
            "duration": 0.0068181818181827225
          },
          {
            "pitch": 35,
            "start": 11.86590909090909,
            "end": 11.918181818181818,
            "velocity": 68,
            "duration": 0.05227272727272769
          },
          {
            "pitch": 51,
            "start": 11.934090909090909,
            "end": 11.943181818181818,
            "velocity": 76,
            "duration": 0.009090909090909705
          },
          {
            "pitch": 35,
            "start": 11.934090909090909,
            "end": 11.96590909090909,
            "velocity": 102,
            "duration": 0.0318181818181813
          },
          {
            "pitch": 35,
            "start": 12.004545454545454,
            "end": 12.034090909090908,
            "velocity": 80,
            "duration": 0.02954545454545432
          },
          {
            "pitch": 42,
            "start": 11.934090909090909,
            "end": 12.034090909090908,
            "velocity": 83,
            "duration": 0.09999999999999964
          },
          {
            "pitch": 51,
            "start": 12.004545454545454,
            "end": 12.034090909090908,
            "velocity": 77,
            "duration": 0.02954545454545432
          },
          {
            "pitch": 37,
            "start": 11.959090909090909,
            "end": 12.059090909090909,
            "velocity": 83,
            "duration": 0.09999999999999964
          },
          {
            "pitch": 37,
            "start": 12.052272727272726,
            "end": 12.059090909090909,
            "velocity": 70,
            "duration": 0.0068181818181827225
          },
          {
            "pitch": 51,
            "start": 12.097727272727273,
            "end": 12.104545454545454,
            "velocity": 75,
            "duration": 0.006818181818180946
          },
          {
            "pitch": 37,
            "start": 12.143181818181818,
            "end": 12.152272727272727,
            "velocity": 82,
            "duration": 0.009090909090909705
          },
          {
            "pitch": 35,
            "start": 12.120454545454544,
            "end": 12.220454545454546,
            "velocity": 81,
            "duration": 0.10000000000000142
          },
          {
            "pitch": 35,
            "start": 12.19090909090909,
            "end": 12.220454545454546,
            "velocity": 88,
            "duration": 0.029545454545456096
          },
          {
            "pitch": 42,
            "start": 12.120454545454544,
            "end": 12.220454545454546,
            "velocity": 92,
            "duration": 0.10000000000000142
          },
          {
            "pitch": 37,
            "start": 12.236363636363636,
            "end": 12.243181818181817,
            "velocity": 87,
            "duration": 0.006818181818180946
          },
          {
            "pitch": 35,
            "start": 12.306818181818182,
            "end": 12.406818181818181,
            "velocity": 78,
            "duration": 0.09999999999999964
          },
          {
            "pitch": 35,
            "start": 12.377272727272727,
            "end": 12.406818181818181,
            "velocity": 104,
            "duration": 0.02954545454545432
          },
          {
            "pitch": 37,
            "start": 12.352272727272727,
            "end": 12.452272727272726,
            "velocity": 77,
            "duration": 0.09999999999999964
          },
          {
            "pitch": 37,
            "start": 12.422727272727272,
            "end": 12.452272727272726,
            "velocity": 79,
            "duration": 0.02954545454545432
          },
          {
            "pitch": 35,
            "start": 12.445454545454545,
            "end": 12.477272727272727,
            "velocity": 63,
            "duration": 0.0318181818181813
          },
          {
            "pitch": 35,
            "start": 12.493181818181817,
            "end": 12.545454545454545,
            "velocity": 67,
            "duration": 0.05227272727272769
          },
          {
            "pitch": 42,
            "start": 12.493181818181817,
            "end": 12.593181818181817,
            "velocity": 75,
            "duration": 0.09999999999999964
          },
          {
            "pitch": 42,
            "start": 12.561363636363636,
            "end": 12.593181818181817,
            "velocity": 91,
            "duration": 0.0318181818181813
          },
          {
            "pitch": 35,
            "start": 12.631818181818181,
            "end": 12.73181818181818,
            "velocity": 64,
            "duration": 0.09999999999999964
          },
          {
            "pitch": 41,
            "start": 12.793181818181818,
            "end": 12.893181818181818,
            "velocity": 68,
            "duration": 0.09999999999999964
          },
          {
            "pitch": 35,
            "start": 12.84090909090909,
            "end": 12.94090909090909,
            "velocity": 76,
            "duration": 0.09999999999999964
          },
          {
            "pitch": 35,
            "start": 12.886363636363635,
            "end": 12.94090909090909,
            "velocity": 69,
            "duration": 0.054545454545454675
          },
          {
            "pitch": 35,
            "start": 12.934090909090909,
            "end": 12.94090909090909,
            "velocity": 69,
            "duration": 0.006818181818180946
          },
          {
            "pitch": 41,
            "start": 12.911363636363635,
            "end": 13.011363636363635,
            "velocity": 67,
            "duration": 0.09999999999999964
          },
          {
            "pitch": 51,
            "start": 13.002272727272727,
            "end": 13.102272727272727,
            "velocity": 75,
            "duration": 0.09999999999999964
          },
          {
            "pitch": 51,
            "start": 13.095454545454546,
            "end": 13.102272727272727,
            "velocity": 77,
            "duration": 0.006818181818180946
          },
          {
            "pitch": 51,
            "start": 13.188636363636363,
            "end": 13.195454545454545,
            "velocity": 96,
            "duration": 0.0068181818181827225
          },
          {
            "pitch": 35,
            "start": 13.118181818181817,
            "end": 13.218181818181817,
            "velocity": 96,
            "duration": 0.09999999999999964
          },
          {
            "pitch": 35,
            "start": 13.188636363636363,
            "end": 13.218181818181817,
            "velocity": 114,
            "duration": 0.02954545454545432
          },
          {
            "pitch": 42,
            "start": 13.188636363636363,
            "end": 13.288636363636362,
            "velocity": 94,
            "duration": 0.09999999999999964
          },
          {
            "pitch": 51,
            "start": 13.281818181818181,
            "end": 13.288636363636362,
            "velocity": 87,
            "duration": 0.006818181818180946
          },
          {
            "pitch": 51,
            "start": 13.375,
            "end": 13.381818181818181,
            "velocity": 98,
            "duration": 0.006818181818180946
          },
          {
            "pitch": 35,
            "start": 13.304545454545455,
            "end": 13.404545454545454,
            "velocity": 63,
            "duration": 0.09999999999999964
          },
          {
            "pitch": 35,
            "start": 13.375,
            "end": 13.404545454545454,
            "velocity": 114,
            "duration": 0.02954545454545432
          },
          {
            "pitch": 42,
            "start": 13.304545454545455,
            "end": 13.404545454545454,
            "velocity": 64,
            "duration": 0.09999999999999964
          },
          {
            "pitch": 42,
            "start": 13.375,
            "end": 13.404545454545454,
            "velocity": 101,
            "duration": 0.02954545454545432
          },
          {
            "pitch": 37,
            "start": 13.352272727272727,
            "end": 13.452272727272726,
            "velocity": 82,
            "duration": 0.09999999999999964
          },
          {
            "pitch": 35,
            "start": 13.445454545454545,
            "end": 13.475,
            "velocity": 70,
            "duration": 0.02954545454545432
          },
          {
            "pitch": 51,
            "start": 13.468181818181817,
            "end": 13.475,
            "velocity": 67,
            "duration": 0.0068181818181827225
          },
          {
            "pitch": 37,
            "start": 13.468181818181817,
            "end": 13.568181818181818,
            "velocity": 68,
            "duration": 0.10000000000000142
          },
          {
            "pitch": 37,
            "start": 13.536363636363635,
            "end": 13.568181818181818,
            "velocity": 81,
            "duration": 0.03181818181818308
          },
          {
            "pitch": 51,
            "start": 13.561363636363636,
            "end": 13.568181818181818,
            "velocity": 75,
            "duration": 0.0068181818181827225
          },
          {
            "pitch": 35,
            "start": 13.561363636363636,
            "end": 13.661363636363635,
            "velocity": 105,
            "duration": 0.09999999999999964
          },
          {
            "pitch": 35,
            "start": 13.629545454545454,
            "end": 13.661363636363635,
            "velocity": 93,
            "duration": 0.0318181818181813
          },
          {
            "pitch": 42,
            "start": 13.561363636363636,
            "end": 13.661363636363635,
            "velocity": 99,
            "duration": 0.09999999999999964
          },
          {
            "pitch": 51,
            "start": 13.629545454545454,
            "end": 13.661363636363635,
            "velocity": 86,
            "duration": 0.0318181818181813
          },
          {
            "pitch": 35,
            "start": 13.745454545454544,
            "end": 13.845454545454544,
            "velocity": 97,
            "duration": 0.09999999999999964
          },
          {
            "pitch": 35,
            "start": 13.81590909090909,
            "end": 13.845454545454544,
            "velocity": 101,
            "duration": 0.02954545454545432
          },
          {
            "pitch": 42,
            "start": 13.745454545454544,
            "end": 13.845454545454544,
            "velocity": 90,
            "duration": 0.09999999999999964
          },
          {
            "pitch": 42,
            "start": 13.81590909090909,
            "end": 13.845454545454544,
            "velocity": 90,
            "duration": 0.02954545454545432
          },
          {
            "pitch": 37,
            "start": 13.770454545454545,
            "end": 13.870454545454544,
            "velocity": 92,
            "duration": 0.09999999999999964
          },
          {
            "pitch": 37,
            "start": 13.861363636363636,
            "end": 13.870454545454544,
            "velocity": 67,
            "duration": 0.009090909090907928
          },
          {
            "pitch": 51,
            "start": 13.81590909090909,
            "end": 13.915909090909091,
            "velocity": 80,
            "duration": 0.10000000000000142
          },
          {
            "pitch": 51,
            "start": 13.909090909090908,
            "end": 13.915909090909091,
            "velocity": 83,
            "duration": 0.0068181818181827225
          },
          {
            "pitch": 37,
            "start": 13.954545454545453,
            "end": 13.961363636363636,
            "velocity": 75,
            "duration": 0.0068181818181827225
          },
          {
            "pitch": 51,
            "start": 14.002272727272727,
            "end": 14.009090909090908,
            "velocity": 99,
            "duration": 0.006818181818180946
          },
          {
            "pitch": 35,
            "start": 13.931818181818182,
            "end": 14.031818181818181,
            "velocity": 91,
            "duration": 0.09999999999999964
          },
          {
            "pitch": 35,
            "start": 14.002272727272727,
            "end": 14.031818181818181,
            "velocity": 117,
            "duration": 0.02954545454545432
          },
          {
            "pitch": 42,
            "start": 13.931818181818182,
            "end": 14.031818181818181,
            "velocity": 80,
            "duration": 0.09999999999999964
          },
          {
            "pitch": 37,
            "start": 14.047727272727272,
            "end": 14.054545454545455,
            "velocity": 86,
            "duration": 0.0068181818181827225
          },
          {
            "pitch": 51,
            "start": 14.095454545454544,
            "end": 14.102272727272727,
            "velocity": 79,
            "duration": 0.0068181818181827225
          },
          {
            "pitch": 51,
            "start": 14.186363636363636,
            "end": 14.195454545454545,
            "velocity": 98,
            "duration": 0.009090909090909705
          },
          {
            "pitch": 35,
            "start": 14.118181818181817,
            "end": 14.218181818181817,
            "velocity": 74,
            "duration": 0.09999999999999964
          },
          {
            "pitch": 35,
            "start": 14.186363636363636,
            "end": 14.218181818181817,
            "velocity": 115,
            "duration": 0.0318181818181813
          },
          {
            "pitch": 35,
            "start": 14.256818181818181,
            "end": 14.286363636363635,
            "velocity": 73,
            "duration": 0.02954545454545432
          },
          {
            "pitch": 42,
            "start": 14.186363636363636,
            "end": 14.286363636363635,
            "velocity": 107,
            "duration": 0.09999999999999964
          },
          {
            "pitch": 51,
            "start": 14.256818181818181,
            "end": 14.286363636363635,
            "velocity": 85,
            "duration": 0.02954545454545432
          },
          {
            "pitch": 37,
            "start": 14.35,
            "end": 14.45,
            "velocity": 92,
            "duration": 0.09999999999999964
          },
          {
            "pitch": 35,
            "start": 14.372727272727271,
            "end": 14.472727272727273,
            "velocity": 107,
            "duration": 0.10000000000000142
          },
          {
            "pitch": 35,
            "start": 14.443181818181818,
            "end": 14.472727272727273,
            "velocity": 85,
            "duration": 0.02954545454545432
          },
          {
            "pitch": 42,
            "start": 14.372727272727271,
            "end": 14.472727272727273,
            "velocity": 95,
            "duration": 0.10000000000000142
          },
          {
            "pitch": 51,
            "start": 14.372727272727271,
            "end": 14.472727272727273,
            "velocity": 91,
            "duration": 0.10000000000000142
          },
          {
            "pitch": 51,
            "start": 14.443181818181818,
            "end": 14.472727272727273,
            "velocity": 77,
            "duration": 0.02954545454545432
          },
          {
            "pitch": 51,
            "start": 14.536363636363635,
            "end": 14.543181818181818,
            "velocity": 70,
            "duration": 0.0068181818181827225
          },
          {
            "pitch": 37,
            "start": 14.536363636363635,
            "end": 14.636363636363635,
            "velocity": 74,
            "duration": 0.09999999999999964
          },
          {
            "pitch": 51,
            "start": 14.629545454545454,
            "end": 14.636363636363635,
            "velocity": 90,
            "duration": 0.006818181818180946
          },
          {
            "pitch": 35,
            "start": 14.559090909090909,
            "end": 14.659090909090908,
            "velocity": 77,
            "duration": 0.09999999999999964
          },
          {
            "pitch": 35,
            "start": 14.629545454545454,
            "end": 14.659090909090908,
            "velocity": 108,
            "duration": 0.02954545454545432
          },
          {
            "pitch": 42,
            "start": 14.559090909090909,
            "end": 14.659090909090908,
            "velocity": 97,
            "duration": 0.09999999999999964
          },
          {
            "pitch": 51,
            "start": 14.720454545454544,
            "end": 14.729545454545454,
            "velocity": 78,
            "duration": 0.009090909090909705
          },
          {
            "pitch": 51,
            "start": 14.813636363636363,
            "end": 14.820454545454545,
            "velocity": 81,
            "duration": 0.0068181818181827225
          },
          {
            "pitch": 35,
            "start": 14.745454545454544,
            "end": 14.845454545454544,
            "velocity": 82,
            "duration": 0.09999999999999964
          },
          {
            "pitch": 35,
            "start": 14.813636363636363,
            "end": 14.845454545454544,
            "velocity": 111,
            "duration": 0.0318181818181813
          },
          {
            "pitch": 37,
            "start": 14.768181818181818,
            "end": 14.868181818181817,
            "velocity": 73,
            "duration": 0.09999999999999964
          },
          {
            "pitch": 37,
            "start": 14.861363636363636,
            "end": 14.868181818181817,
            "velocity": 99,
            "duration": 0.006818181818180946
          },
          {
            "pitch": 35,
            "start": 14.884090909090908,
            "end": 14.913636363636362,
            "velocity": 64,
            "duration": 0.02954545454545432
          },
          {
            "pitch": 42,
            "start": 14.813636363636363,
            "end": 14.913636363636362,
            "velocity": 101,
            "duration": 0.09999999999999964
          },
          {
            "pitch": 51,
            "start": 14.906818181818181,
            "end": 14.913636363636362,
            "velocity": 88,
            "duration": 0.006818181818180946
          },
          {
            "pitch": 37,
            "start": 14.929545454545455,
            "end": 14.961363636363636,
            "velocity": 64,
            "duration": 0.0318181818181813
          },
          {
            "pitch": 35,
            "start": 14.929545454545455,
            "end": 14.984090909090908,
            "velocity": 65,
            "duration": 0.0545454545454529
          },
          {
            "pitch": 51,
            "start": 14.977272727272727,
            "end": 15.006818181818181,
            "velocity": 93,
            "duration": 0.02954545454545432
          },
          {
            "pitch": 51,
            "start": 15.070454545454545,
            "end": 15.077272727272726,
            "velocity": 64,
            "duration": 0.006818181818180946
          },
          {
            "pitch": 37,
            "start": 15.045454545454545,
            "end": 15.145454545454545,
            "velocity": 101,
            "duration": 0.09999999999999964
          },
          {
            "pitch": 37,
            "start": 15.093181818181817,
            "end": 15.145454545454545,
            "velocity": 89,
            "duration": 0.05227272727272769
          },
          {
            "pitch": 37,
            "start": 15.138636363636364,
            "end": 15.145454545454545,
            "velocity": 101,
            "duration": 0.006818181818180946
          },
          {
            "pitch": 51,
            "start": 15.163636363636362,
            "end": 15.170454545454545,
            "velocity": 71,
            "duration": 0.0068181818181827225
          },
          {
            "pitch": 37,
            "start": 15.186363636363636,
            "end": 15.193181818181817,
            "velocity": 66,
            "duration": 0.006818181818180946
          },
          {
            "pitch": 51,
            "start": 15.254545454545454,
            "end": 15.263636363636364,
            "velocity": 78,
            "duration": 0.009090909090909705
          },
          {
            "pitch": 42,
            "start": 15.186363636363636,
            "end": 15.286363636363635,
            "velocity": 65,
            "duration": 0.09999999999999964
          },
          {
            "pitch": 42,
            "start": 15.279545454545454,
            "end": 15.286363636363635,
            "velocity": 67,
            "duration": 0.006818181818180946
          },
          {
            "pitch": 51,
            "start": 15.302272727272726,
            "end": 15.354545454545454,
            "velocity": 76,
            "duration": 0.05227272727272769
          },
          {
            "pitch": 51,
            "start": 15.347727272727273,
            "end": 15.354545454545454,
            "velocity": 94,
            "duration": 0.006818181818180946
          },
          {
            "pitch": 42,
            "start": 15.372727272727271,
            "end": 15.379545454545454,
            "velocity": 87,
            "duration": 0.0068181818181827225
          },
          {
            "pitch": 51,
            "start": 15.418181818181818,
            "end": 15.447727272727272,
            "velocity": 71,
            "duration": 0.02954545454545432
          },
          {
            "pitch": 51,
            "start": 15.463636363636363,
            "end": 15.518181818181818,
            "velocity": 69,
            "duration": 0.054545454545454675
          },
          {
            "pitch": 51,
            "start": 15.534090909090908,
            "end": 15.563636363636363,
            "velocity": 87,
            "duration": 0.02954545454545432
          },
          {
            "pitch": 37,
            "start": 15.488636363636363,
            "end": 15.588636363636363,
            "velocity": 87,
            "duration": 0.09999999999999964
          },
          {
            "pitch": 51,
            "start": 15.627272727272727,
            "end": 15.634090909090908,
            "velocity": 86,
            "duration": 0.006818181818180946
          },
          {
            "pitch": 42,
            "start": 15.556818181818182,
            "end": 15.656818181818181,
            "velocity": 77,
            "duration": 0.09999999999999964
          },
          {
            "pitch": 35,
            "start": 15.627272727272727,
            "end": 15.727272727272727,
            "velocity": 110,
            "duration": 0.09999999999999964
          },
          {
            "pitch": 51,
            "start": 15.720454545454544,
            "end": 15.727272727272727,
            "velocity": 90,
            "duration": 0.0068181818181827225
          },
          {
            "pitch": 51,
            "start": 15.788636363636362,
            "end": 15.820454545454545,
            "velocity": 77,
            "duration": 0.03181818181818308
          },
          {
            "pitch": 35,
            "start": 15.743181818181817,
            "end": 15.843181818181817,
            "velocity": 69,
            "duration": 0.09999999999999964
          },
          {
            "pitch": 37,
            "start": 15.76590909090909,
            "end": 15.86590909090909,
            "velocity": 107,
            "duration": 0.09999999999999964
          },
          {
            "pitch": 37,
            "start": 15.859090909090908,
            "end": 15.86590909090909,
            "velocity": 88,
            "duration": 0.0068181818181827225
          },
          {
            "pitch": 51,
            "start": 15.881818181818181,
            "end": 15.888636363636364,
            "velocity": 63,
            "duration": 0.0068181818181827225
          },
          {
            "pitch": 42,
            "start": 15.813636363636363,
            "end": 15.913636363636362,
            "velocity": 72,
            "duration": 0.09999999999999964
          },
          {
            "pitch": 37,
            "start": 15.904545454545454,
            "end": 15.959090909090909,
            "velocity": 69,
            "duration": 0.054545454545454675
          },
          {
            "pitch": 35,
            "start": 15.997727272727271,
            "end": 16.097727272727273,
            "velocity": 86,
            "duration": 0.10000000000000142
          },
          {
            "pitch": 51,
            "start": 15.997727272727271,
            "end": 16.097727272727273,
            "velocity": 86,
            "duration": 0.10000000000000142
          },
          {
            "pitch": 51,
            "start": 16.09090909090909,
            "end": 16.097727272727273,
            "velocity": 68,
            "duration": 0.0068181818181827225
          },
          {
            "pitch": 42,
            "start": 16.068181818181817,
            "end": 16.168181818181818,
            "velocity": 63,
            "duration": 0.10000000000000142
          },
          {
            "pitch": 51,
            "start": 16.161363636363635,
            "end": 16.19090909090909,
            "velocity": 71,
            "duration": 0.029545454545456096
          },
          {
            "pitch": 51,
            "start": 16.254545454545454,
            "end": 16.261363636363637,
            "velocity": 84,
            "duration": 0.0068181818181827225
          },
          {
            "pitch": 37,
            "start": 16.18409090909091,
            "end": 16.28409090909091,
            "velocity": 68,
            "duration": 0.10000000000000142
          },
          {
            "pitch": 35,
            "start": 16.254545454545454,
            "end": 16.354545454545455,
            "velocity": 85,
            "duration": 0.10000000000000142
          },
          {
            "pitch": 51,
            "start": 16.347727272727273,
            "end": 16.354545454545455,
            "velocity": 84,
            "duration": 0.0068181818181827225
          },
          {
            "pitch": 37,
            "start": 16.3,
            "end": 16.4,
            "velocity": 66,
            "duration": 0.09999999999999787
          },
          {
            "pitch": 37,
            "start": 16.393181818181816,
            "end": 16.4,
            "velocity": 97,
            "duration": 0.0068181818181827225
          },
          {
            "pitch": 51,
            "start": 16.438636363636363,
            "end": 16.44772727272727,
            "velocity": 67,
            "duration": 0.009090909090907928
          },
          {
            "pitch": 35,
            "start": 16.370454545454546,
            "end": 16.470454545454544,
            "velocity": 92,
            "duration": 0.09999999999999787
          },
          {
            "pitch": 42,
            "start": 16.370454545454546,
            "end": 16.470454545454544,
            "velocity": 73,
            "duration": 0.09999999999999787
          },
          {
            "pitch": 42,
            "start": 16.438636363636363,
            "end": 16.470454545454544,
            "velocity": 69,
            "duration": 0.0318181818181813
          },
          {
            "pitch": 37,
            "start": 16.486363636363635,
            "end": 16.493181818181817,
            "velocity": 99,
            "duration": 0.0068181818181827225
          },
          {
            "pitch": 51,
            "start": 16.53181818181818,
            "end": 16.538636363636364,
            "velocity": 65,
            "duration": 0.0068181818181827225
          },
          {
            "pitch": 35,
            "start": 16.625,
            "end": 16.724999999999998,
            "velocity": 109,
            "duration": 0.09999999999999787
          },
          {
            "pitch": 35,
            "start": 16.74090909090909,
            "end": 16.84090909090909,
            "velocity": 68,
            "duration": 0.10000000000000142
          },
          {
            "pitch": 37,
            "start": 16.76590909090909,
            "end": 16.86590909090909,
            "velocity": 79,
            "duration": 0.09999999999999787
          },
          {
            "pitch": 37,
            "start": 16.85681818181818,
            "end": 16.86590909090909,
            "velocity": 91,
            "duration": 0.009090909090907928
          },
          {
            "pitch": 37,
            "start": 16.95,
            "end": 16.956818181818182,
            "velocity": 100,
            "duration": 0.0068181818181827225
          },
          {
            "pitch": 35,
            "start": 16.881818181818183,
            "end": 16.98181818181818,
            "velocity": 65,
            "duration": 0.09999999999999787
          },
          {
            "pitch": 35,
            "start": 16.927272727272726,
            "end": 16.98181818181818,
            "velocity": 67,
            "duration": 0.054545454545454675
          },
          {
            "pitch": 37,
            "start": 17.06590909090909,
            "end": 17.16590909090909,
            "velocity": 75,
            "duration": 0.09999999999999787
          },
          {
            "pitch": 51,
            "start": 17.113636363636363,
            "end": 17.21363636363636,
            "velocity": 67,
            "duration": 0.09999999999999787
          },
          {
            "pitch": 51,
            "start": 17.18181818181818,
            "end": 17.21363636363636,
            "velocity": 78,
            "duration": 0.0318181818181813
          },
          {
            "pitch": 37,
            "start": 17.206818181818182,
            "end": 17.30681818181818,
            "velocity": 66,
            "duration": 0.09999999999999787
          },
          {
            "pitch": 37,
            "start": 17.275,
            "end": 17.30681818181818,
            "velocity": 90,
            "duration": 0.0318181818181813
          },
          {
            "pitch": 45,
            "start": 17.3,
            "end": 17.4,
            "velocity": 89,
            "duration": 0.09999999999999787
          },
          {
            "pitch": 41,
            "start": 17.39090909090909,
            "end": 17.49090909090909,
            "velocity": 67,
            "duration": 0.09999999999999787
          },
          {
            "pitch": 41,
            "start": 17.438636363636363,
            "end": 17.49090909090909,
            "velocity": 64,
            "duration": 0.052272727272725916
          },
          {
            "pitch": 51,
            "start": 17.41590909090909,
            "end": 17.51590909090909,
            "velocity": 71,
            "duration": 0.10000000000000142
          },
          {
            "pitch": 41,
            "start": 17.53181818181818,
            "end": 17.538636363636364,
            "velocity": 83,
            "duration": 0.0068181818181827225
          },
          {
            "pitch": 35,
            "start": 17.461363636363636,
            "end": 17.561363636363634,
            "velocity": 70,
            "duration": 0.09999999999999787
          },
          {
            "pitch": 35,
            "start": 17.554545454545455,
            "end": 17.561363636363634,
            "velocity": 68,
            "duration": 0.00681818181817917
          },
          {
            "pitch": 35,
            "start": 17.625,
            "end": 17.654545454545453,
            "velocity": 101,
            "duration": 0.029545454545452543
          },
          {
            "pitch": 51,
            "start": 17.625,
            "end": 17.724999999999998,
            "velocity": 86,
            "duration": 0.09999999999999787
          },
          {
            "pitch": 51,
            "start": 17.693181818181817,
            "end": 17.724999999999998,
            "velocity": 71,
            "duration": 0.0318181818181813
          },
          {
            "pitch": 51,
            "start": 17.786363636363635,
            "end": 17.793181818181818,
            "velocity": 80,
            "duration": 0.0068181818181827225
          },
          {
            "pitch": 51,
            "start": 17.879545454545454,
            "end": 17.886363636363637,
            "velocity": 85,
            "duration": 0.0068181818181827225
          },
          {
            "pitch": 35,
            "start": 17.80909090909091,
            "end": 17.909090909090907,
            "velocity": 84,
            "duration": 0.09999999999999787
          },
          {
            "pitch": 35,
            "start": 17.879545454545454,
            "end": 17.909090909090907,
            "velocity": 82,
            "duration": 0.029545454545452543
          },
          {
            "pitch": 42,
            "start": 17.80909090909091,
            "end": 17.909090909090907,
            "velocity": 77,
            "duration": 0.09999999999999787
          },
          {
            "pitch": 37,
            "start": 17.85681818181818,
            "end": 17.956818181818182,
            "velocity": 79,
            "duration": 0.10000000000000142
          },
          {
            "pitch": 51,
            "start": 17.972727272727273,
            "end": 17.979545454545455,
            "velocity": 77,
            "duration": 0.0068181818181827225
          },
          {
            "pitch": 51,
            "start": 18.06590909090909,
            "end": 18.07272727272727,
            "velocity": 73,
            "duration": 0.00681818181817917
          },
          {
            "pitch": 35,
            "start": 17.995454545454546,
            "end": 18.095454545454544,
            "velocity": 79,
            "duration": 0.09999999999999787
          },
          {
            "pitch": 35,
            "start": 18.06590909090909,
            "end": 18.095454545454544,
            "velocity": 92,
            "duration": 0.029545454545452543
          },
          {
            "pitch": 42,
            "start": 17.995454545454546,
            "end": 18.095454545454544,
            "velocity": 88,
            "duration": 0.09999999999999787
          },
          {
            "pitch": 42,
            "start": 18.06590909090909,
            "end": 18.095454545454544,
            "velocity": 67,
            "duration": 0.029545454545452543
          },
          {
            "pitch": 37,
            "start": 18.018181818181816,
            "end": 18.118181818181817,
            "velocity": 73,
            "duration": 0.10000000000000142
          },
          {
            "pitch": 51,
            "start": 18.159090909090907,
            "end": 18.16590909090909,
            "velocity": 83,
            "duration": 0.0068181818181827225
          },
          {
            "pitch": 51,
            "start": 18.25,
            "end": 18.259090909090908,
            "velocity": 79,
            "duration": 0.009090909090907928
          },
          {
            "pitch": 35,
            "start": 18.18181818181818,
            "end": 18.28181818181818,
            "velocity": 89,
            "duration": 0.10000000000000142
          },
          {
            "pitch": 35,
            "start": 18.25,
            "end": 18.28181818181818,
            "velocity": 106,
            "duration": 0.0318181818181813
          },
          {
            "pitch": 42,
            "start": 18.18181818181818,
            "end": 18.28181818181818,
            "velocity": 77,
            "duration": 0.10000000000000142
          },
          {
            "pitch": 42,
            "start": 18.25,
            "end": 18.28181818181818,
            "velocity": 70,
            "duration": 0.0318181818181813
          },
          {
            "pitch": 51,
            "start": 18.34318181818182,
            "end": 18.349999999999998,
            "velocity": 73,
            "duration": 0.00681818181817917
          },
          {
            "pitch": 37,
            "start": 18.297727272727272,
            "end": 18.397727272727273,
            "velocity": 64,
            "duration": 0.10000000000000142
          },
          {
            "pitch": 51,
            "start": 18.436363636363634,
            "end": 18.443181818181817,
            "velocity": 74,
            "duration": 0.0068181818181827225
          },
          {
            "pitch": 35,
            "start": 18.36590909090909,
            "end": 18.46590909090909,
            "velocity": 72,
            "duration": 0.10000000000000142
          },
          {
            "pitch": 35,
            "start": 18.436363636363634,
            "end": 18.46590909090909,
            "velocity": 105,
            "duration": 0.029545454545456096
          },
          {
            "pitch": 42,
            "start": 18.436363636363634,
            "end": 18.536363636363635,
            "velocity": 80,
            "duration": 0.10000000000000142
          },
          {
            "pitch": 37,
            "start": 18.459090909090907,
            "end": 18.55909090909091,
            "velocity": 69,
            "duration": 0.10000000000000142
          },
          {
            "pitch": 37,
            "start": 18.529545454545453,
            "end": 18.55909090909091,
            "velocity": 64,
            "duration": 0.029545454545456096
          },
          {
            "pitch": 35,
            "start": 18.62272727272727,
            "end": 18.722727272727273,
            "velocity": 96,
            "duration": 0.10000000000000142
          },
          {
            "pitch": 35,
            "start": 18.693181818181817,
            "end": 18.722727272727273,
            "velocity": 82,
            "duration": 0.029545454545456096
          },
          {
            "pitch": 42,
            "start": 18.62272727272727,
            "end": 18.722727272727273,
            "velocity": 77,
            "duration": 0.10000000000000142
          },
          {
            "pitch": 51,
            "start": 18.62272727272727,
            "end": 18.722727272727273,
            "velocity": 86,
            "duration": 0.10000000000000142
          },
          {
            "pitch": 51,
            "start": 18.693181818181817,
            "end": 18.722727272727273,
            "velocity": 84,
            "duration": 0.029545454545456096
          },
          {
            "pitch": 51,
            "start": 18.784090909090907,
            "end": 18.793181818181818,
            "velocity": 75,
            "duration": 0.009090909090911481
          },
          {
            "pitch": 51,
            "start": 18.877272727272725,
            "end": 18.884090909090908,
            "velocity": 83,
            "duration": 0.0068181818181827225
          },
          {
            "pitch": 35,
            "start": 18.80909090909091,
            "end": 18.909090909090907,
            "velocity": 71,
            "duration": 0.09999999999999787
          },
          {
            "pitch": 35,
            "start": 18.877272727272725,
            "end": 18.909090909090907,
            "velocity": 87,
            "duration": 0.0318181818181813
          },
          {
            "pitch": 42,
            "start": 18.80909090909091,
            "end": 18.909090909090907,
            "velocity": 65,
            "duration": 0.09999999999999787
          },
          {
            "pitch": 37,
            "start": 18.854545454545455,
            "end": 18.954545454545453,
            "velocity": 64,
            "duration": 0.09999999999999787
          },
          {
            "pitch": 51,
            "start": 18.970454545454544,
            "end": 18.977272727272727,
            "velocity": 77,
            "duration": 0.0068181818181827225
          },
          {
            "pitch": 51,
            "start": 19.063636363636363,
            "end": 19.070454545454545,
            "velocity": 78,
            "duration": 0.0068181818181827225
          },
          {
            "pitch": 35,
            "start": 18.993181818181817,
            "end": 19.09318181818182,
            "velocity": 75,
            "duration": 0.10000000000000142
          },
          {
            "pitch": 35,
            "start": 19.063636363636363,
            "end": 19.09318181818182,
            "velocity": 103,
            "duration": 0.029545454545456096
          },
          {
            "pitch": 42,
            "start": 18.993181818181817,
            "end": 19.09318181818182,
            "velocity": 71,
            "duration": 0.10000000000000142
          },
          {
            "pitch": 42,
            "start": 19.063636363636363,
            "end": 19.09318181818182,
            "velocity": 82,
            "duration": 0.029545454545456096
          },
          {
            "pitch": 37,
            "start": 19.018181818181816,
            "end": 19.118181818181817,
            "velocity": 71,
            "duration": 0.10000000000000142
          },
          {
            "pitch": 51,
            "start": 19.15681818181818,
            "end": 19.163636363636364,
            "velocity": 80,
            "duration": 0.0068181818181827225
          },
          {
            "pitch": 51,
            "start": 19.25,
            "end": 19.25681818181818,
            "velocity": 86,
            "duration": 0.00681818181817917
          },
          {
            "pitch": 35,
            "start": 19.179545454545455,
            "end": 19.279545454545453,
            "velocity": 66,
            "duration": 0.09999999999999787
          },
          {
            "pitch": 35,
            "start": 19.25,
            "end": 19.279545454545453,
            "velocity": 102,
            "duration": 0.029545454545452543
          },
          {
            "pitch": 37,
            "start": 19.224999999999998,
            "end": 19.325,
            "velocity": 79,
            "duration": 0.10000000000000142
          },
          {
            "pitch": 42,
            "start": 19.25,
            "end": 19.349999999999998,
            "velocity": 98,
            "duration": 0.09999999999999787
          },
          {
            "pitch": 37,
            "start": 19.34318181818182,
            "end": 19.443181818181817,
            "velocity": 75,
            "duration": 0.09999999999999787
          },
          {
            "pitch": 51,
            "start": 19.411363636363635,
            "end": 19.511363636363637,
            "velocity": 72,
            "duration": 0.10000000000000142
          },
          {
            "pitch": 51,
            "start": 19.48181818181818,
            "end": 19.511363636363637,
            "velocity": 82,
            "duration": 0.029545454545456096
          },
          {
            "pitch": 35,
            "start": 19.43409090909091,
            "end": 19.534090909090907,
            "velocity": 84,
            "duration": 0.09999999999999787
          },
          {
            "pitch": 37,
            "start": 19.459090909090907,
            "end": 19.55909090909091,
            "velocity": 88,
            "duration": 0.10000000000000142
          },
          {
            "pitch": 37,
            "start": 19.552272727272726,
            "end": 19.55909090909091,
            "velocity": 74,
            "duration": 0.0068181818181827225
          },
          {
            "pitch": 51,
            "start": 19.527272727272727,
            "end": 19.581818181818182,
            "velocity": 66,
            "duration": 0.054545454545454675
          },
          {
            "pitch": 51,
            "start": 19.597727272727273,
            "end": 19.627272727272725,
            "velocity": 63,
            "duration": 0.029545454545452543
          },
          {
            "pitch": 37,
            "start": 19.643181818181816,
            "end": 19.652272727272727,
            "velocity": 94,
            "duration": 0.009090909090911481
          },
          {
            "pitch": 51,
            "start": 19.784090909090907,
            "end": 19.884090909090908,
            "velocity": 86,
            "duration": 0.10000000000000142
          },
          {
            "pitch": 51,
            "start": 19.877272727272725,
            "end": 19.884090909090908,
            "velocity": 76,
            "duration": 0.0068181818181827225
          },
          {
            "pitch": 51,
            "start": 19.922727272727272,
            "end": 19.977272727272727,
            "velocity": 71,
            "duration": 0.054545454545454675
          },
          {
            "pitch": 35,
            "start": 19.993181818181817,
            "end": 20.09318181818182,
            "velocity": 72,
            "duration": 0.10000000000000142
          },
          {
            "pitch": 37,
            "start": 20.01590909090909,
            "end": 20.11590909090909,
            "velocity": 67,
            "duration": 0.09999999999999787
          },
          {
            "pitch": 51,
            "start": 20.038636363636364,
            "end": 20.138636363636362,
            "velocity": 70,
            "duration": 0.09999999999999787
          },
          {
            "pitch": 42,
            "start": 20.061363636363634,
            "end": 20.161363636363635,
            "velocity": 66,
            "duration": 0.10000000000000142
          },
          {
            "pitch": 51,
            "start": 20.154545454545453,
            "end": 20.254545454545454,
            "velocity": 82,
            "duration": 0.10000000000000142
          },
          {
            "pitch": 51,
            "start": 20.24772727272727,
            "end": 20.254545454545454,
            "velocity": 75,
            "duration": 0.0068181818181827225
          },
          {
            "pitch": 35,
            "start": 20.24772727272727,
            "end": 20.347727272727273,
            "velocity": 94,
            "duration": 0.10000000000000142
          },
          {
            "pitch": 37,
            "start": 20.270454545454545,
            "end": 20.370454545454546,
            "velocity": 95,
            "duration": 0.10000000000000142
          },
          {
            "pitch": 37,
            "start": 20.318181818181817,
            "end": 20.370454545454546,
            "velocity": 70,
            "duration": 0.05227272727272947
          },
          {
            "pitch": 37,
            "start": 20.411363636363635,
            "end": 20.418181818181818,
            "velocity": 78,
            "duration": 0.0068181818181827225
          },
          {
            "pitch": 37,
            "start": 20.456818181818182,
            "end": 20.511363636363637,
            "velocity": 68,
            "duration": 0.054545454545454675
          },
          {
            "pitch": 37,
            "start": 20.55,
            "end": 20.55681818181818,
            "velocity": 65,
            "duration": 0.00681818181817917
          },
          {
            "pitch": 51,
            "start": 20.502272727272725,
            "end": 20.602272727272727,
            "velocity": 70,
            "duration": 0.10000000000000142
          },
          {
            "pitch": 37,
            "start": 20.643181818181816,
            "end": 20.65,
            "velocity": 83,
            "duration": 0.0068181818181827225
          },
          {
            "pitch": 35,
            "start": 20.620454545454546,
            "end": 20.720454545454544,
            "velocity": 80,
            "duration": 0.09999999999999787
          },
          {
            "pitch": 37,
            "start": 20.736363636363635,
            "end": 20.743181818181817,
            "velocity": 70,
            "duration": 0.0068181818181827225
          },
          {
            "pitch": 51,
            "start": 20.78181818181818,
            "end": 20.88181818181818,
            "velocity": 71,
            "duration": 0.09999999999999787
          },
          {
            "pitch": 51,
            "start": 20.875,
            "end": 20.88181818181818,
            "velocity": 76,
            "duration": 0.00681818181817917
          },
          {
            "pitch": 37,
            "start": 20.852272727272727,
            "end": 20.952272727272724,
            "velocity": 65,
            "duration": 0.09999999999999787
          },
          {
            "pitch": 37,
            "start": 20.897727272727273,
            "end": 20.952272727272724,
            "velocity": 67,
            "duration": 0.05454545454545112
          },
          {
            "pitch": 35,
            "start": 20.875,
            "end": 20.974999999999998,
            "velocity": 93,
            "duration": 0.09999999999999787
          },
          {
            "pitch": 35,
            "start": 20.99090909090909,
            "end": 21.09090909090909,
            "velocity": 70,
            "duration": 0.10000000000000142
          },
          {
            "pitch": 37,
            "start": 21.013636363636362,
            "end": 21.113636363636363,
            "velocity": 65,
            "duration": 0.10000000000000142
          },
          {
            "pitch": 45,
            "start": 21.084090909090907,
            "end": 21.18409090909091,
            "velocity": 63,
            "duration": 0.10000000000000142
          },
          {
            "pitch": 35,
            "start": 21.245454545454546,
            "end": 21.345454545454544,
            "velocity": 78,
            "duration": 0.09999999999999787
          },
          {
            "pitch": 37,
            "start": 21.270454545454545,
            "end": 21.370454545454546,
            "velocity": 87,
            "duration": 0.10000000000000142
          },
          {
            "pitch": 37,
            "start": 21.33863636363636,
            "end": 21.370454545454546,
            "velocity": 71,
            "duration": 0.031818181818184854
          },
          {
            "pitch": 37,
            "start": 21.454545454545453,
            "end": 21.554545454545455,
            "velocity": 75,
            "duration": 0.10000000000000142
          }
        ],
        "melodic_notes": [],
        "instruments": [
          {
            "program": "0",
            "is_drum": true,
            "name": "",
            "note_count": 694
          }
        ],
        "duration": 21.554545454545455,
        "tempo_changes": 0
      },
      {
        "file_path": "/home/matt/Documents/drum-tranxn/drum-transcription-api/test_audio/fixed_output.mid",
        "total_notes": 694,
        "drum_notes": [
          {
            "pitch": 35,
            "start": 0.5568181818181818,
            "end": 0.6068181818181818,
            "velocity": 126,
            "duration": 0.050000000000000044
          },
          {
            "pitch": 51,
            "start": 0.5568181818181818,
            "end": 0.6068181818181818,
            "velocity": 109,
            "duration": 0.050000000000000044
          },
          {
            "pitch": 42,
            "start": 0.7431818181818182,
            "end": 0.7931818181818181,
            "velocity": 104,
            "duration": 0.04999999999999993
          },
          {
            "pitch": 45,
            "start": 0.7431818181818182,
            "end": 0.7931818181818181,
            "velocity": 64,
            "duration": 0.04999999999999993
          },
          {
            "pitch": 35,
            "start": 1.3,
            "end": 1.3499999999999999,
            "velocity": 100,
            "duration": 0.04999999999999982
          },
          {
            "pitch": 51,
            "start": 1.3,
            "end": 1.3499999999999999,
            "velocity": 112,
            "duration": 0.04999999999999982
          },
          {
            "pitch": 41,
            "start": 1.4863636363636363,
            "end": 1.5363636363636364,
            "velocity": 75,
            "duration": 0.050000000000000044
          },
          {
            "pitch": 42,
            "start": 1.4863636363636363,
            "end": 1.5363636363636364,
            "velocity": 70,
            "duration": 0.050000000000000044
          },
          {
            "pitch": 35,
            "start": 2.043181818181818,
            "end": 2.0931818181818183,
            "velocity": 120,
            "duration": 0.050000000000000266
          },
          {
            "pitch": 41,
            "start": 2.043181818181818,
            "end": 2.0931818181818183,
            "velocity": 79,
            "duration": 0.050000000000000266
          },
          {
            "pitch": 42,
            "start": 2.043181818181818,
            "end": 2.0931818181818183,
            "velocity": 106,
            "duration": 0.050000000000000266
          },
          {
            "pitch": 51,
            "start": 2.043181818181818,
            "end": 2.0931818181818183,
            "velocity": 113,
            "duration": 0.050000000000000266
          },
          {
            "pitch": 51,
            "start": 2.786363636363636,
            "end": 2.8363636363636364,
            "velocity": 114,
            "duration": 0.050000000000000266
          },
          {
            "pitch": 35,
            "start": 2.9727272727272727,
            "end": 3.0227272727272725,
            "velocity": 102,
            "duration": 0.04999999999999982
          },
          {
            "pitch": 41,
            "start": 2.9727272727272727,
            "end": 3.0227272727272725,
            "velocity": 81,
            "duration": 0.04999999999999982
          },
          {
            "pitch": 42,
            "start": 2.9727272727272727,
            "end": 3.0227272727272725,
            "velocity": 78,
            "duration": 0.04999999999999982
          },
          {
            "pitch": 45,
            "start": 2.9727272727272727,
            "end": 3.0227272727272725,
            "velocity": 63,
            "duration": 0.04999999999999982
          },
          {
            "pitch": 35,
            "start": 3.5295454545454543,
            "end": 3.5795454545454546,
            "velocity": 106,
            "duration": 0.050000000000000266
          },
          {
            "pitch": 41,
            "start": 3.5295454545454543,
            "end": 3.5795454545454546,
            "velocity": 75,
            "duration": 0.050000000000000266
          },
          {
            "pitch": 51,
            "start": 3.5295454545454543,
            "end": 3.5795454545454546,
            "velocity": 88,
            "duration": 0.050000000000000266
          },
          {
            "pitch": 37,
            "start": 3.715909090909091,
            "end": 3.7659090909090907,
            "velocity": 78,
            "duration": 0.04999999999999982
          },
          {
            "pitch": 35,
            "start": 4.086363636363636,
            "end": 4.136363636363636,
            "velocity": 123,
            "duration": 0.04999999999999982
          },
          {
            "pitch": 41,
            "start": 4.2727272727272725,
            "end": 4.322727272727272,
            "velocity": 67,
            "duration": 0.04999999999999982
          },
          {
            "pitch": 51,
            "start": 4.2727272727272725,
            "end": 4.322727272727272,
            "velocity": 111,
            "duration": 0.04999999999999982
          },
          {
            "pitch": 42,
            "start": 4.459090909090909,
            "end": 4.509090909090909,
            "velocity": 80,
            "duration": 0.04999999999999982
          },
          {
            "pitch": 35,
            "start": 5.015909090909091,
            "end": 5.0659090909090905,
            "velocity": 112,
            "duration": 0.04999999999999982
          },
          {
            "pitch": 42,
            "start": 5.015909090909091,
            "end": 5.0659090909090905,
            "velocity": 118,
            "duration": 0.04999999999999982
          },
          {
            "pitch": 45,
            "start": 5.015909090909091,
            "end": 5.0659090909090905,
            "velocity": 71,
            "duration": 0.04999999999999982
          },
          {
            "pitch": 51,
            "start": 5.015909090909091,
            "end": 5.0659090909090905,
            "velocity": 103,
            "duration": 0.04999999999999982
          },
          {
            "pitch": 41,
            "start": 5.202272727272727,
            "end": 5.252272727272727,
            "velocity": 103,
            "duration": 0.04999999999999982
          },
          {
            "pitch": 35,
            "start": 5.572727272727272,
            "end": 5.622727272727272,
            "velocity": 88,
            "duration": 0.04999999999999982
          },
          {
            "pitch": 41,
            "start": 5.759090909090909,
            "end": 5.809090909090909,
            "velocity": 75,
            "duration": 0.04999999999999982
          },
          {
            "pitch": 51,
            "start": 5.759090909090909,
            "end": 5.809090909090909,
            "velocity": 113,
            "duration": 0.04999999999999982
          },
          {
            "pitch": 51,
            "start": 6.3159090909090905,
            "end": 6.36590909090909,
            "velocity": 110,
            "duration": 0.04999999999999982
          },
          {
            "pitch": 35,
            "start": 6.502272727272727,
            "end": 6.552272727272727,
            "velocity": 121,
            "duration": 0.04999999999999982
          },
          {
            "pitch": 42,
            "start": 6.502272727272727,
            "end": 6.552272727272727,
            "velocity": 113,
            "duration": 0.04999999999999982
          },
          {
            "pitch": 35,
            "start": 7.059090909090909,
            "end": 7.1090909090909085,
            "velocity": 121,
            "duration": 0.04999999999999982
          },
          {
            "pitch": 51,
            "start": 7.245454545454545,
            "end": 7.295454545454545,
            "velocity": 84,
            "duration": 0.04999999999999982
          },
          {
            "pitch": 35,
            "start": 7.61590909090909,
            "end": 7.66590909090909,
            "velocity": 89,
            "duration": 0.04999999999999982
          },
          {
            "pitch": 42,
            "start": 7.802272727272727,
            "end": 7.852272727272727,
            "velocity": 85,
            "duration": 0.04999999999999982
          },
          {
            "pitch": 51,
            "start": 7.802272727272727,
            "end": 7.852272727272727,
            "velocity": 101,
            "duration": 0.04999999999999982
          },
          {
            "pitch": 41,
            "start": 7.988636363636363,
            "end": 8.038636363636364,
            "velocity": 81,
            "duration": 0.05000000000000071
          },
          {
            "pitch": 35,
            "start": 8.545454545454545,
            "end": 8.595454545454546,
            "velocity": 89,
            "duration": 0.05000000000000071
          },
          {
            "pitch": 41,
            "start": 8.545454545454545,
            "end": 8.595454545454546,
            "velocity": 74,
            "duration": 0.05000000000000071
          },
          {
            "pitch": 42,
            "start": 8.545454545454545,
            "end": 8.595454545454546,
            "velocity": 91,
            "duration": 0.05000000000000071
          },
          {
            "pitch": 51,
            "start": 8.545454545454545,
            "end": 8.595454545454546,
            "velocity": 72,
            "duration": 0.05000000000000071
          },
          {
            "pitch": 51,
            "start": 9.288636363636364,
            "end": 9.338636363636363,
            "velocity": 94,
            "duration": 0.049999999999998934
          },
          {
            "pitch": 42,
            "start": 9.472727272727273,
            "end": 9.522727272727272,
            "velocity": 73,
            "duration": 0.049999999999998934
          },
          {
            "pitch": 35,
            "start": 10.031818181818181,
            "end": 10.081818181818182,
            "velocity": 122,
            "duration": 0.05000000000000071
          },
          {
            "pitch": 42,
            "start": 10.031818181818181,
            "end": 10.081818181818182,
            "velocity": 70,
            "duration": 0.05000000000000071
          },
          {
            "pitch": 51,
            "start": 10.031818181818181,
            "end": 10.081818181818182,
            "velocity": 105,
            "duration": 0.05000000000000071
          },
          {
            "pitch": 51,
            "start": 10.775,
            "end": 10.825,
            "velocity": 89,
            "duration": 0.049999999999998934
          },
          {
            "pitch": 37,
            "start": 11.145454545454545,
            "end": 11.195454545454545,
            "velocity": 113,
            "duration": 0.05000000000000071
          },
          {
            "pitch": 41,
            "start": 11.331818181818182,
            "end": 11.381818181818181,
            "velocity": 77,
            "duration": 0.049999999999998934
          },
          {
            "pitch": 35,
            "start": 11.518181818181818,
            "end": 11.568181818181818,
            "velocity": 122,
            "duration": 0.05000000000000071
          },
          {
            "pitch": 42,
            "start": 11.518181818181818,
            "end": 11.568181818181818,
            "velocity": 89,
            "duration": 0.05000000000000071
          },
          {
            "pitch": 51,
            "start": 11.518181818181818,
            "end": 11.568181818181818,
            "velocity": 85,
            "duration": 0.05000000000000071
          },
          {
            "pitch": 37,
            "start": 11.888636363636364,
            "end": 11.938636363636363,
            "velocity": 70,
            "duration": 0.049999999999998934
          },
          {
            "pitch": 35,
            "start": 12.075,
            "end": 12.125,
            "velocity": 115,
            "duration": 0.05000000000000071
          },
          {
            "pitch": 51,
            "start": 12.259090909090908,
            "end": 12.309090909090909,
            "velocity": 91,
            "duration": 0.05000000000000071
          },
          {
            "pitch": 42,
            "start": 12.445454545454545,
            "end": 12.495454545454544,
            "velocity": 92,
            "duration": 0.049999999999998934
          },
          {
            "pitch": 45,
            "start": 12.631818181818181,
            "end": 12.681818181818182,
            "velocity": 97,
            "duration": 0.05000000000000071
          },
          {
            "pitch": 35,
            "start": 13.002272727272727,
            "end": 13.052272727272726,
            "velocity": 121,
            "duration": 0.049999999999998934
          },
          {
            "pitch": 41,
            "start": 13.002272727272727,
            "end": 13.052272727272726,
            "velocity": 71,
            "duration": 0.049999999999998934
          },
          {
            "pitch": 42,
            "start": 13.002272727272727,
            "end": 13.052272727272726,
            "velocity": 96,
            "duration": 0.049999999999998934
          },
          {
            "pitch": 51,
            "start": 13.002272727272727,
            "end": 13.052272727272726,
            "velocity": 108,
            "duration": 0.049999999999998934
          },
          {
            "pitch": 35,
            "start": 13.561363636363636,
            "end": 13.611363636363636,
            "velocity": 72,
            "duration": 0.05000000000000071
          },
          {
            "pitch": 42,
            "start": 13.561363636363636,
            "end": 13.611363636363636,
            "velocity": 81,
            "duration": 0.05000000000000071
          },
          {
            "pitch": 51,
            "start": 13.561363636363636,
            "end": 13.611363636363636,
            "velocity": 70,
            "duration": 0.05000000000000071
          },
          {
            "pitch": 41,
            "start": 13.745454545454544,
            "end": 13.795454545454545,
            "velocity": 95,
            "duration": 0.05000000000000071
          },
          {
            "pitch": 51,
            "start": 14.304545454545455,
            "end": 14.354545454545454,
            "velocity": 105,
            "duration": 0.049999999999998934
          },
          {
            "pitch": 35,
            "start": 14.488636363636363,
            "end": 14.538636363636362,
            "velocity": 119,
            "duration": 0.049999999999998934
          },
          {
            "pitch": 42,
            "start": 14.488636363636363,
            "end": 14.538636363636362,
            "velocity": 102,
            "duration": 0.049999999999998934
          },
          {
            "pitch": 37,
            "start": 14.674999999999999,
            "end": 14.725,
            "velocity": 89,
            "duration": 0.05000000000000071
          },
          {
            "pitch": 35,
            "start": 15.045454545454545,
            "end": 15.095454545454544,
            "velocity": 121,
            "duration": 0.049999999999998934
          },
          {
            "pitch": 51,
            "start": 15.045454545454545,
            "end": 15.095454545454544,
            "velocity": 104,
            "duration": 0.049999999999998934
          },
          {
            "pitch": 42,
            "start": 15.23181818181818,
            "end": 15.281818181818181,
            "velocity": 95,
            "duration": 0.05000000000000071
          },
          {
            "pitch": 35,
            "start": 15.788636363636362,
            "end": 15.838636363636363,
            "velocity": 96,
            "duration": 0.05000000000000071
          },
          {
            "pitch": 51,
            "start": 15.788636363636362,
            "end": 15.838636363636363,
            "velocity": 83,
            "duration": 0.05000000000000071
          },
          {
            "pitch": 42,
            "start": 15.975,
            "end": 16.025,
            "velocity": 78,
            "duration": 0.049999999999998934
          },
          {
            "pitch": 37,
            "start": 16.161363636363635,
            "end": 16.211363636363636,
            "velocity": 80,
            "duration": 0.05000000000000071
          },
          {
            "pitch": 35,
            "start": 16.53181818181818,
            "end": 16.581818181818182,
            "velocity": 85,
            "duration": 0.05000000000000071
          },
          {
            "pitch": 51,
            "start": 16.53181818181818,
            "end": 16.581818181818182,
            "velocity": 75,
            "duration": 0.05000000000000071
          },
          {
            "pitch": 35,
            "start": 17.09090909090909,
            "end": 17.14090909090909,
            "velocity": 89,
            "duration": 0.05000000000000071
          },
          {
            "pitch": 41,
            "start": 17.275,
            "end": 17.325,
            "velocity": 90,
            "duration": 0.05000000000000071
          },
          {
            "pitch": 51,
            "start": 17.275,
            "end": 17.325,
            "velocity": 88,
            "duration": 0.05000000000000071
          },
          {
            "pitch": 42,
            "start": 17.461363636363636,
            "end": 17.511363636363637,
            "velocity": 80,
            "duration": 0.05000000000000071
          },
          {
            "pitch": 35,
            "start": 18.018181818181816,
            "end": 18.068181818181817,
            "velocity": 111,
            "duration": 0.05000000000000071
          },
          {
            "pitch": 41,
            "start": 18.018181818181816,
            "end": 18.068181818181817,
            "velocity": 87,
            "duration": 0.05000000000000071
          },
          {
            "pitch": 42,
            "start": 18.018181818181816,
            "end": 18.068181818181817,
            "velocity": 79,
            "duration": 0.05000000000000071
          },
          {
            "pitch": 51,
            "start": 18.018181818181816,
            "end": 18.068181818181817,
            "velocity": 93,
            "duration": 0.05000000000000071
          },
          {
            "pitch": 37,
            "start": 18.204545454545453,
            "end": 18.254545454545454,
            "velocity": 80,
            "duration": 0.05000000000000071
          },
          {
            "pitch": 37,
            "start": 18.761363636363637,
            "end": 18.811363636363634,
            "velocity": 73,
            "duration": 0.04999999999999716
          },
          {
            "pitch": 51,
            "start": 18.761363636363637,
            "end": 18.811363636363634,
            "velocity": 94,
            "duration": 0.04999999999999716
          },
          {
            "pitch": 35,
            "start": 18.94772727272727,
            "end": 18.99772727272727,
            "velocity": 82,
            "duration": 0.05000000000000071
          },
          {
            "pitch": 42,
            "start": 18.94772727272727,
            "end": 18.99772727272727,
            "velocity": 116,
            "duration": 0.05000000000000071
          },
          {
            "pitch": 37,
            "start": 19.134090909090908,
            "end": 19.18409090909091,
            "velocity": 99,
            "duration": 0.05000000000000071
          },
          {
            "pitch": 35,
            "start": 19.504545454545454,
            "end": 19.554545454545455,
            "velocity": 118,
            "duration": 0.05000000000000071
          },
          {
            "pitch": 42,
            "start": 19.504545454545454,
            "end": 19.554545454545455,
            "velocity": 83,
            "duration": 0.05000000000000071
          },
          {
            "pitch": 51,
            "start": 19.504545454545454,
            "end": 19.554545454545455,
            "velocity": 96,
            "duration": 0.05000000000000071
          },
          {
            "pitch": 37,
            "start": 19.877272727272725,
            "end": 19.927272727272726,
            "velocity": 74,
            "duration": 0.05000000000000071
          },
          {
            "pitch": 35,
            "start": 20.061363636363634,
            "end": 20.111363636363635,
            "velocity": 109,
            "duration": 0.05000000000000071
          },
          {
            "pitch": 51,
            "start": 20.061363636363634,
            "end": 20.111363636363635,
            "velocity": 88,
            "duration": 0.05000000000000071
          },
          {
            "pitch": 35,
            "start": 20.99090909090909,
            "end": 21.04090909090909,
            "velocity": 100,
            "duration": 0.05000000000000071
          },
          {
            "pitch": 42,
            "start": 20.99090909090909,
            "end": 21.04090909090909,
            "velocity": 107,
            "duration": 0.05000000000000071
          },
          {
            "pitch": 51,
            "start": 20.99090909090909,
            "end": 21.04090909090909,
            "velocity": 96,
            "duration": 0.05000000000000071
          },
          {
            "pitch": 41,
            "start": 21.177272727272726,
            "end": 21.227272727272727,
            "velocity": 89,
            "duration": 0.05000000000000071
          },
          {
            "pitch": 35,
            "start": 21.547727272727272,
            "end": 21.597727272727273,
            "velocity": 73,
            "duration": 0.05000000000000071
          },
          {
            "pitch": 42,
            "start": 21.547727272727272,
            "end": 21.597727272727273,
            "velocity": 100,
            "duration": 0.05000000000000071
          },
          {
            "pitch": 51,
            "start": 21.547727272727272,
            "end": 21.597727272727273,
            "velocity": 81,
            "duration": 0.05000000000000071
          },
          {
            "pitch": 35,
            "start": 22.29090909090909,
            "end": 22.34090909090909,
            "velocity": 121,
            "duration": 0.05000000000000071
          },
          {
            "pitch": 51,
            "start": 22.29090909090909,
            "end": 22.34090909090909,
            "velocity": 111,
            "duration": 0.05000000000000071
          },
          {
            "pitch": 42,
            "start": 22.477272727272727,
            "end": 22.527272727272727,
            "velocity": 104,
            "duration": 0.05000000000000071
          },
          {
            "pitch": 35,
            "start": 23.034090909090907,
            "end": 23.084090909090907,
            "velocity": 115,
            "duration": 0.05000000000000071
          },
          {
            "pitch": 42,
            "start": 23.034090909090907,
            "end": 23.084090909090907,
            "velocity": 89,
            "duration": 0.05000000000000071
          },
          {
            "pitch": 51,
            "start": 23.034090909090907,
            "end": 23.084090909090907,
            "velocity": 70,
            "duration": 0.05000000000000071
          },
          {
            "pitch": 37,
            "start": 23.40681818181818,
            "end": 23.456818181818182,
            "velocity": 101,
            "duration": 0.05000000000000071
          },
          {
            "pitch": 35,
            "start": 23.59090909090909,
            "end": 23.64090909090909,
            "velocity": 74,
            "duration": 0.05000000000000071
          },
          {
            "pitch": 37,
            "start": 23.777272727272727,
            "end": 23.827272727272724,
            "velocity": 94,
            "duration": 0.04999999999999716
          },
          {
            "pitch": 51,
            "start": 23.777272727272727,
            "end": 23.827272727272724,
            "velocity": 70,
            "duration": 0.04999999999999716
          },
          {
            "pitch": 42,
            "start": 23.96363636363636,
            "end": 24.013636363636362,
            "velocity": 69,
            "duration": 0.05000000000000071
          },
          {
            "pitch": 41,
            "start": 24.334090909090907,
            "end": 24.384090909090908,
            "velocity": 87,
            "duration": 0.05000000000000071
          },
          {
            "pitch": 35,
            "start": 24.520454545454545,
            "end": 24.570454545454545,
            "velocity": 95,
            "duration": 0.05000000000000071
          },
          {
            "pitch": 42,
            "start": 24.520454545454545,
            "end": 24.570454545454545,
            "velocity": 84,
            "duration": 0.05000000000000071
          },
          {
            "pitch": 51,
            "start": 24.520454545454545,
            "end": 24.570454545454545,
            "velocity": 70,
            "duration": 0.05000000000000071
          },
          {
            "pitch": 41,
            "start": 24.89090909090909,
            "end": 24.94090909090909,
            "velocity": 91,
            "duration": 0.05000000000000071
          },
          {
            "pitch": 42,
            "start": 25.45,
            "end": 25.5,
            "velocity": 80,
            "duration": 0.05000000000000071
          },
          {
            "pitch": 51,
            "start": 25.45,
            "end": 25.5,
            "velocity": 63,
            "duration": 0.05000000000000071
          },
          {
            "pitch": 37,
            "start": 25.820454545454545,
            "end": 25.870454545454542,
            "velocity": 64,
            "duration": 0.04999999999999716
          },
          {
            "pitch": 35,
            "start": 26.00681818181818,
            "end": 26.05681818181818,
            "velocity": 119,
            "duration": 0.05000000000000071
          },
          {
            "pitch": 42,
            "start": 26.00681818181818,
            "end": 26.05681818181818,
            "velocity": 105,
            "duration": 0.05000000000000071
          },
          {
            "pitch": 51,
            "start": 26.00681818181818,
            "end": 26.05681818181818,
            "velocity": 91,
            "duration": 0.05000000000000071
          },
          {
            "pitch": 37,
            "start": 26.193181818181817,
            "end": 26.243181818181817,
            "velocity": 63,
            "duration": 0.05000000000000071
          },
          {
            "pitch": 35,
            "start": 26.563636363636363,
            "end": 26.613636363636363,
            "velocity": 81,
            "duration": 0.05000000000000071
          },
          {
            "pitch": 51,
            "start": 26.563636363636363,
            "end": 26.613636363636363,
            "velocity": 72,
            "duration": 0.05000000000000071
          },
          {
            "pitch": 35,
            "start": 27.493181818181817,
            "end": 27.543181818181818,
            "velocity": 121,
            "duration": 0.05000000000000071
          },
          {
            "pitch": 42,
            "start": 27.493181818181817,
            "end": 27.543181818181818,
            "velocity": 105,
            "duration": 0.05000000000000071
          },
          {
            "pitch": 51,
            "start": 27.493181818181817,
            "end": 27.543181818181818,
            "velocity": 92,
            "duration": 0.05000000000000071
          },
          {
            "pitch": 37,
            "start": 27.677272727272726,
            "end": 27.727272727272727,
            "velocity": 71,
            "duration": 0.05000000000000071
          },
          {
            "pitch": 35,
            "start": 28.049999999999997,
            "end": 28.099999999999998,
            "velocity": 107,
            "duration": 0.05000000000000071
          },
          {
            "pitch": 51,
            "start": 28.049999999999997,
            "end": 28.099999999999998,
            "velocity": 93,
            "duration": 0.05000000000000071
          },
          {
            "pitch": 37,
            "start": 28.420454545454543,
            "end": 28.470454545454544,
            "velocity": 92,
            "duration": 0.05000000000000071
          },
          {
            "pitch": 51,
            "start": 28.793181818181818,
            "end": 28.843181818181815,
            "velocity": 98,
            "duration": 0.04999999999999716
          },
          {
            "pitch": 35,
            "start": 28.979545454545452,
            "end": 29.029545454545453,
            "velocity": 96,
            "duration": 0.05000000000000071
          },
          {
            "pitch": 42,
            "start": 28.979545454545452,
            "end": 29.029545454545453,
            "velocity": 100,
            "duration": 0.05000000000000071
          },
          {
            "pitch": 35,
            "start": 29.536363636363635,
            "end": 29.586363636363636,
            "velocity": 78,
            "duration": 0.05000000000000071
          },
          {
            "pitch": 42,
            "start": 29.536363636363635,
            "end": 29.586363636363636,
            "velocity": 97,
            "duration": 0.05000000000000071
          },
          {
            "pitch": 51,
            "start": 29.536363636363635,
            "end": 29.586363636363636,
            "velocity": 85,
            "duration": 0.05000000000000071
          },
          {
            "pitch": 41,
            "start": 29.720454545454544,
            "end": 29.770454545454545,
            "velocity": 68,
            "duration": 0.05000000000000071
          },
          {
            "pitch": 35,
            "start": 30.093181818181815,
            "end": 30.143181818181816,
            "velocity": 82,
            "duration": 0.05000000000000071
          },
          {
            "pitch": 51,
            "start": 30.279545454545453,
            "end": 30.329545454545453,
            "velocity": 91,
            "duration": 0.05000000000000071
          },
          {
            "pitch": 42,
            "start": 30.46363636363636,
            "end": 30.513636363636362,
            "velocity": 91,
            "duration": 0.05000000000000071
          },
          {
            "pitch": 35,
            "start": 31.02272727272727,
            "end": 31.07272727272727,
            "velocity": 122,
            "duration": 0.05000000000000071
          },
          {
            "pitch": 37,
            "start": 31.02272727272727,
            "end": 31.07272727272727,
            "velocity": 87,
            "duration": 0.05000000000000071
          },
          {
            "pitch": 42,
            "start": 31.02272727272727,
            "end": 31.07272727272727,
            "velocity": 85,
            "duration": 0.05000000000000071
          },
          {
            "pitch": 51,
            "start": 31.02272727272727,
            "end": 31.07272727272727,
            "velocity": 101,
            "duration": 0.05000000000000071
          },
          {
            "pitch": 37,
            "start": 31.393181818181816,
            "end": 31.443181818181817,
            "velocity": 110,
            "duration": 0.05000000000000071
          },
          {
            "pitch": 35,
            "start": 31.579545454545453,
            "end": 31.629545454545454,
            "velocity": 88,
            "duration": 0.05000000000000071
          },
          {
            "pitch": 37,
            "start": 31.76590909090909,
            "end": 31.815909090909088,
            "velocity": 85,
            "duration": 0.04999999999999716
          },
          {
            "pitch": 42,
            "start": 31.95,
            "end": 32.0,
            "velocity": 65,
            "duration": 0.05000000000000071
          },
          {
            "pitch": 37,
            "start": 32.13636363636363,
            "end": 32.18636363636364,
            "velocity": 68,
            "duration": 0.05000000000000426
          },
          {
            "pitch": 35,
            "start": 32.50681818181818,
            "end": 32.55681818181818,
            "velocity": 117,
            "duration": 0.04999999999999716
          },
          {
            "pitch": 42,
            "start": 32.50681818181818,
            "end": 32.55681818181818,
            "velocity": 105,
            "duration": 0.04999999999999716
          },
          {
            "pitch": 51,
            "start": 32.50681818181818,
            "end": 32.55681818181818,
            "velocity": 92,
            "duration": 0.04999999999999716
          },
          {
            "pitch": 37,
            "start": 32.87954545454545,
            "end": 32.929545454545455,
            "velocity": 93,
            "duration": 0.05000000000000426
          },
          {
            "pitch": 35,
            "start": 33.06590909090909,
            "end": 33.11590909090909,
            "velocity": 92,
            "duration": 0.05000000000000426
          },
          {
            "pitch": 51,
            "start": 33.25,
            "end": 33.3,
            "velocity": 94,
            "duration": 0.04999999999999716
          },
          {
            "pitch": 35,
            "start": 33.99318181818182,
            "end": 34.043181818181814,
            "velocity": 124,
            "duration": 0.04999999999999716
          },
          {
            "pitch": 42,
            "start": 33.99318181818182,
            "end": 34.043181818181814,
            "velocity": 98,
            "duration": 0.04999999999999716
          },
          {
            "pitch": 51,
            "start": 33.99318181818182,
            "end": 34.043181818181814,
            "velocity": 108,
            "duration": 0.04999999999999716
          },
          {
            "pitch": 35,
            "start": 34.55227272727272,
            "end": 34.60227272727273,
            "velocity": 89,
            "duration": 0.05000000000000426
          },
          {
            "pitch": 42,
            "start": 34.55227272727272,
            "end": 34.60227272727273,
            "velocity": 67,
            "duration": 0.05000000000000426
          },
          {
            "pitch": 51,
            "start": 34.736363636363635,
            "end": 34.78636363636363,
            "velocity": 90,
            "duration": 0.04999999999999716
          },
          {
            "pitch": 51,
            "start": 35.29545454545455,
            "end": 35.345454545454544,
            "velocity": 78,
            "duration": 0.04999999999999716
          },
          {
            "pitch": 35,
            "start": 35.47954545454545,
            "end": 35.529545454545456,
            "velocity": 106,
            "duration": 0.05000000000000426
          },
          {
            "pitch": 35,
            "start": 36.03636363636363,
            "end": 36.086363636363636,
            "velocity": 117,
            "duration": 0.05000000000000426
          },
          {
            "pitch": 51,
            "start": 36.03636363636363,
            "end": 36.086363636363636,
            "velocity": 102,
            "duration": 0.05000000000000426
          },
          {
            "pitch": 35,
            "start": 36.595454545454544,
            "end": 36.64545454545454,
            "velocity": 65,
            "duration": 0.04999999999999716
          },
          {
            "pitch": 51,
            "start": 36.779545454545456,
            "end": 36.82954545454545,
            "velocity": 76,
            "duration": 0.04999999999999716
          },
          {
            "pitch": 35,
            "start": 36.965909090909086,
            "end": 37.01590909090909,
            "velocity": 78,
            "duration": 0.05000000000000426
          },
          {
            "pitch": 42,
            "start": 36.965909090909086,
            "end": 37.01590909090909,
            "velocity": 100,
            "duration": 0.05000000000000426
          },
          {
            "pitch": 37,
            "start": 37.152272727272724,
            "end": 37.20227272727273,
            "velocity": 95,
            "duration": 0.05000000000000426
          },
          {
            "pitch": 35,
            "start": 37.52272727272727,
            "end": 37.57272727272727,
            "velocity": 111,
            "duration": 0.04999999999999716
          },
          {
            "pitch": 42,
            "start": 37.52272727272727,
            "end": 37.57272727272727,
            "velocity": 89,
            "duration": 0.04999999999999716
          },
          {
            "pitch": 51,
            "start": 37.52272727272727,
            "end": 37.57272727272727,
            "velocity": 69,
            "duration": 0.04999999999999716
          },
          {
            "pitch": 37,
            "start": 37.89545454545454,
            "end": 37.945454545454545,
            "velocity": 103,
            "duration": 0.05000000000000426
          },
          {
            "pitch": 35,
            "start": 38.08181818181818,
            "end": 38.13181818181818,
            "velocity": 81,
            "duration": 0.05000000000000426
          },
          {
            "pitch": 37,
            "start": 38.82272727272727,
            "end": 38.87272727272727,
            "velocity": 101,
            "duration": 0.04999999999999716
          },
          {
            "pitch": 35,
            "start": 39.00909090909091,
            "end": 39.059090909090905,
            "velocity": 117,
            "duration": 0.04999999999999716
          },
          {
            "pitch": 37,
            "start": 39.38181818181818,
            "end": 39.43181818181818,
            "velocity": 90,
            "duration": 0.04999999999999716
          },
          {
            "pitch": 35,
            "start": 39.56590909090909,
            "end": 39.61590909090909,
            "velocity": 90,
            "duration": 0.05000000000000426
          },
          {
            "pitch": 42,
            "start": 39.93863636363636,
            "end": 39.98863636363636,
            "velocity": 68,
            "duration": 0.04999999999999716
          },
          {
            "pitch": 37,
            "start": 40.125,
            "end": 40.175,
            "velocity": 89,
            "duration": 0.04999999999999716
          },
          {
            "pitch": 35,
            "start": 40.49545454545454,
            "end": 40.54545454545455,
            "velocity": 118,
            "duration": 0.05000000000000426
          },
          {
            "pitch": 42,
            "start": 40.49545454545454,
            "end": 40.54545454545455,
            "velocity": 111,
            "duration": 0.05000000000000426
          },
          {
            "pitch": 51,
            "start": 40.49545454545454,
            "end": 40.54545454545455,
            "velocity": 81,
            "duration": 0.05000000000000426
          },
          {
            "pitch": 37,
            "start": 40.86818181818182,
            "end": 40.918181818181814,
            "velocity": 115,
            "duration": 0.04999999999999716
          },
          {
            "pitch": 35,
            "start": 41.05227272727272,
            "end": 41.10227272727273,
            "velocity": 91,
            "duration": 0.05000000000000426
          },
          {
            "pitch": 51,
            "start": 41.05227272727272,
            "end": 41.10227272727273,
            "velocity": 79,
            "duration": 0.05000000000000426
          },
          {
            "pitch": 45,
            "start": 41.23863636363636,
            "end": 41.288636363636364,
            "velocity": 70,
            "duration": 0.05000000000000426
          },
          {
            "pitch": 37,
            "start": 41.425,
            "end": 41.475,
            "velocity": 67,
            "duration": 0.05000000000000426
          },
          {
            "pitch": 51,
            "start": 41.79545454545455,
            "end": 41.845454545454544,
            "velocity": 99,
            "duration": 0.04999999999999716
          },
          {
            "pitch": 35,
            "start": 41.98181818181818,
            "end": 42.03181818181818,
            "velocity": 102,
            "duration": 0.05000000000000426
          },
          {
            "pitch": 45,
            "start": 41.98181818181818,
            "end": 42.03181818181818,
            "velocity": 75,
            "duration": 0.05000000000000426
          },
          {
            "pitch": 45,
            "start": 42.35227272727273,
            "end": 42.402272727272724,
            "velocity": 85,
            "duration": 0.04999999999999716
          },
          {
            "pitch": 51,
            "start": 43.095454545454544,
            "end": 43.14545454545454,
            "velocity": 70,
            "duration": 0.04999999999999716
          },
          {
            "pitch": 41,
            "start": 43.28181818181818,
            "end": 43.33181818181818,
            "velocity": 71,
            "duration": 0.04999999999999716
          },
          {
            "pitch": 35,
            "start": 44.025,
            "end": 44.074999999999996,
            "velocity": 91,
            "duration": 0.04999999999999716
          },
          {
            "pitch": 42,
            "start": 44.025,
            "end": 44.074999999999996,
            "velocity": 83,
            "duration": 0.04999999999999716
          },
          {
            "pitch": 51,
            "start": 44.025,
            "end": 44.074999999999996,
            "velocity": 86,
            "duration": 0.04999999999999716
          },
          {
            "pitch": 35,
            "start": 44.768181818181816,
            "end": 44.81818181818181,
            "velocity": 111,
            "duration": 0.04999999999999716
          },
          {
            "pitch": 51,
            "start": 44.768181818181816,
            "end": 44.81818181818181,
            "velocity": 88,
            "duration": 0.04999999999999716
          },
          {
            "pitch": 35,
            "start": 45.51136363636363,
            "end": 45.56136363636364,
            "velocity": 123,
            "duration": 0.05000000000000426
          },
          {
            "pitch": 42,
            "start": 45.51136363636363,
            "end": 45.56136363636364,
            "velocity": 101,
            "duration": 0.05000000000000426
          },
          {
            "pitch": 51,
            "start": 45.51136363636363,
            "end": 45.56136363636364,
            "velocity": 101,
            "duration": 0.05000000000000426
          },
          {
            "pitch": 37,
            "start": 45.88181818181818,
            "end": 45.93181818181818,
            "velocity": 90,
            "duration": 0.04999999999999716
          },
          {
            "pitch": 35,
            "start": 46.06818181818181,
            "end": 46.11818181818182,
            "velocity": 89,
            "duration": 0.05000000000000426
          },
          {
            "pitch": 51,
            "start": 46.06818181818181,
            "end": 46.11818181818182,
            "velocity": 94,
            "duration": 0.05000000000000426
          },
          {
            "pitch": 37,
            "start": 46.81136363636364,
            "end": 46.861363636363635,
            "velocity": 109,
            "duration": 0.04999999999999716
          },
          {
            "pitch": 35,
            "start": 46.99772727272727,
            "end": 47.04772727272727,
            "velocity": 124,
            "duration": 0.05000000000000426
          },
          {
            "pitch": 42,
            "start": 46.99772727272727,
            "end": 47.04772727272727,
            "velocity": 108,
            "duration": 0.05000000000000426
          },
          {
            "pitch": 51,
            "start": 46.99772727272727,
            "end": 47.04772727272727,
            "velocity": 107,
            "duration": 0.05000000000000426
          },
          {
            "pitch": 35,
            "start": 47.554545454545455,
            "end": 47.60454545454545,
            "velocity": 97,
            "duration": 0.04999999999999716
          },
          {
            "pitch": 51,
            "start": 47.554545454545455,
            "end": 47.60454545454545,
            "velocity": 75,
            "duration": 0.04999999999999716
          },
          {
            "pitch": 37,
            "start": 47.74090909090909,
            "end": 47.79090909090909,
            "velocity": 71,
            "duration": 0.04999999999999716
          },
          {
            "pitch": 42,
            "start": 47.74090909090909,
            "end": 47.79090909090909,
            "velocity": 90,
            "duration": 0.04999999999999716
          },
          {
            "pitch": 51,
            "start": 47.925,
            "end": 47.974999999999994,
            "velocity": 65,
            "duration": 0.04999999999999716
          },
          {
            "pitch": 51,
            "start": 48.29772727272727,
            "end": 48.34772727272727,
            "velocity": 77,
            "duration": 0.04999999999999716
          },
          {
            "pitch": 35,
            "start": 48.48409090909091,
            "end": 48.53409090909091,
            "velocity": 103,
            "duration": 0.04999999999999716
          },
          {
            "pitch": 42,
            "start": 48.48409090909091,
            "end": 48.53409090909091,
            "velocity": 107,
            "duration": 0.04999999999999716
          },
          {
            "pitch": 37,
            "start": 48.668181818181814,
            "end": 48.71818181818182,
            "velocity": 70,
            "duration": 0.05000000000000426
          },
          {
            "pitch": 35,
            "start": 49.04090909090909,
            "end": 49.090909090909086,
            "velocity": 113,
            "duration": 0.04999999999999716
          },
          {
            "pitch": 51,
            "start": 49.04090909090909,
            "end": 49.090909090909086,
            "velocity": 100,
            "duration": 0.04999999999999716
          },
          {
            "pitch": 51,
            "start": 49.78409090909091,
            "end": 49.834090909090904,
            "velocity": 71,
            "duration": 0.04999999999999716
          },
          {
            "pitch": 35,
            "start": 49.970454545454544,
            "end": 50.02045454545454,
            "velocity": 92,
            "duration": 0.04999999999999716
          },
          {
            "pitch": 42,
            "start": 49.970454545454544,
            "end": 50.02045454545454,
            "velocity": 98,
            "duration": 0.04999999999999716
          },
          {
            "pitch": 51,
            "start": 50.15454545454545,
            "end": 50.20454545454545,
            "velocity": 77,
            "duration": 0.05000000000000426
          },
          {
            "pitch": 37,
            "start": 50.340909090909086,
            "end": 50.39090909090909,
            "velocity": 70,
            "duration": 0.05000000000000426
          },
          {
            "pitch": 35,
            "start": 50.527272727272724,
            "end": 50.57727272727273,
            "velocity": 115,
            "duration": 0.05000000000000426
          },
          {
            "pitch": 42,
            "start": 50.527272727272724,
            "end": 50.57727272727273,
            "velocity": 101,
            "duration": 0.05000000000000426
          },
          {
            "pitch": 51,
            "start": 50.527272727272724,
            "end": 50.57727272727273,
            "velocity": 84,
            "duration": 0.05000000000000426
          },
          {
            "pitch": 37,
            "start": 50.89772727272727,
            "end": 50.94772727272727,
            "velocity": 94,
            "duration": 0.04999999999999716
          },
          {
            "pitch": 35,
            "start": 51.084090909090904,
            "end": 51.13409090909091,
            "velocity": 70,
            "duration": 0.05000000000000426
          },
          {
            "pitch": 42,
            "start": 51.27045454545454,
            "end": 51.320454545454545,
            "velocity": 86,
            "duration": 0.05000000000000426
          },
          {
            "pitch": 51,
            "start": 51.27045454545454,
            "end": 51.320454545454545,
            "velocity": 95,
            "duration": 0.05000000000000426
          },
          {
            "pitch": 35,
            "start": 51.45454545454545,
            "end": 51.50454545454545,
            "velocity": 76,
            "duration": 0.04999999999999716
          },
          {
            "pitch": 37,
            "start": 51.64090909090909,
            "end": 51.69090909090909,
            "velocity": 81,
            "duration": 0.04999999999999716
          },
          {
            "pitch": 35,
            "start": 52.01363636363636,
            "end": 52.06363636363636,
            "velocity": 124,
            "duration": 0.05000000000000426
          },
          {
            "pitch": 42,
            "start": 52.01363636363636,
            "end": 52.06363636363636,
            "velocity": 98,
            "duration": 0.05000000000000426
          },
          {
            "pitch": 51,
            "start": 52.01363636363636,
            "end": 52.06363636363636,
            "velocity": 107,
            "duration": 0.05000000000000426
          },
          {
            "pitch": 37,
            "start": 52.19772727272727,
            "end": 52.24772727272727,
            "velocity": 92,
            "duration": 0.04999999999999716
          },
          {
            "pitch": 35,
            "start": 52.570454545454545,
            "end": 52.62045454545454,
            "velocity": 94,
            "duration": 0.04999999999999716
          },
          {
            "pitch": 51,
            "start": 52.75681818181818,
            "end": 52.80681818181818,
            "velocity": 83,
            "duration": 0.04999999999999716
          },
          {
            "pitch": 35,
            "start": 53.49772727272727,
            "end": 53.54772727272727,
            "velocity": 120,
            "duration": 0.05000000000000426
          },
          {
            "pitch": 42,
            "start": 53.49772727272727,
            "end": 53.54772727272727,
            "velocity": 114,
            "duration": 0.05000000000000426
          },
          {
            "pitch": 51,
            "start": 53.49772727272727,
            "end": 53.54772727272727,
            "velocity": 98,
            "duration": 0.05000000000000426
          },
          {
            "pitch": 35,
            "start": 54.05681818181818,
            "end": 54.10681818181818,
            "velocity": 101,
            "duration": 0.04999999999999716
          },
          {
            "pitch": 42,
            "start": 54.05681818181818,
            "end": 54.10681818181818,
            "velocity": 64,
            "duration": 0.04999999999999716
          },
          {
            "pitch": 51,
            "start": 54.05681818181818,
            "end": 54.10681818181818,
            "velocity": 94,
            "duration": 0.04999999999999716
          },
          {
            "pitch": 37,
            "start": 54.8,
            "end": 54.849999999999994,
            "velocity": 96,
            "duration": 0.04999999999999716
          },
          {
            "pitch": 35,
            "start": 54.98409090909091,
            "end": 55.03409090909091,
            "velocity": 114,
            "duration": 0.04999999999999716
          },
          {
            "pitch": 42,
            "start": 54.98409090909091,
            "end": 55.03409090909091,
            "velocity": 90,
            "duration": 0.04999999999999716
          },
          {
            "pitch": 51,
            "start": 54.98409090909091,
            "end": 55.03409090909091,
            "velocity": 99,
            "duration": 0.04999999999999716
          },
          {
            "pitch": 35,
            "start": 55.543181818181814,
            "end": 55.59318181818182,
            "velocity": 114,
            "duration": 0.05000000000000426
          },
          {
            "pitch": 42,
            "start": 55.543181818181814,
            "end": 55.59318181818182,
            "velocity": 88,
            "duration": 0.05000000000000426
          },
          {
            "pitch": 51,
            "start": 55.543181818181814,
            "end": 55.59318181818182,
            "velocity": 98,
            "duration": 0.05000000000000426
          },
          {
            "pitch": 51,
            "start": 55.913636363636364,
            "end": 55.96363636363636,
            "velocity": 74,
            "duration": 0.04999999999999716
          },
          {
            "pitch": 51,
            "start": 56.28409090909091,
            "end": 56.334090909090904,
            "velocity": 87,
            "duration": 0.04999999999999716
          },
          {
            "pitch": 35,
            "start": 56.470454545454544,
            "end": 56.52045454545454,
            "velocity": 72,
            "duration": 0.04999999999999716
          },
          {
            "pitch": 42,
            "start": 56.470454545454544,
            "end": 56.52045454545454,
            "velocity": 99,
            "duration": 0.04999999999999716
          },
          {
            "pitch": 37,
            "start": 56.65681818181818,
            "end": 56.70681818181818,
            "velocity": 95,
            "duration": 0.04999999999999716
          },
          {
            "pitch": 35,
            "start": 57.027272727272724,
            "end": 57.07727272727273,
            "velocity": 122,
            "duration": 0.05000000000000426
          },
          {
            "pitch": 42,
            "start": 57.027272727272724,
            "end": 57.07727272727273,
            "velocity": 80,
            "duration": 0.05000000000000426
          },
          {
            "pitch": 51,
            "start": 57.027272727272724,
            "end": 57.07727272727273,
            "velocity": 107,
            "duration": 0.05000000000000426
          },
          {
            "pitch": 37,
            "start": 57.77045454545454,
            "end": 57.820454545454545,
            "velocity": 67,
            "duration": 0.05000000000000426
          },
          {
            "pitch": 51,
            "start": 57.77045454545454,
            "end": 57.820454545454545,
            "velocity": 82,
            "duration": 0.05000000000000426
          },
          {
            "pitch": 35,
            "start": 57.95681818181818,
            "end": 58.006818181818176,
            "velocity": 76,
            "duration": 0.04999999999999716
          },
          {
            "pitch": 42,
            "start": 57.95681818181818,
            "end": 58.006818181818176,
            "velocity": 101,
            "duration": 0.04999999999999716
          },
          {
            "pitch": 37,
            "start": 58.143181818181816,
            "end": 58.19318181818181,
            "velocity": 83,
            "duration": 0.04999999999999716
          },
          {
            "pitch": 35,
            "start": 58.51363636363636,
            "end": 58.56363636363636,
            "velocity": 121,
            "duration": 0.05000000000000426
          },
          {
            "pitch": 42,
            "start": 58.51363636363636,
            "end": 58.56363636363636,
            "velocity": 112,
            "duration": 0.05000000000000426
          },
          {
            "pitch": 51,
            "start": 58.51363636363636,
            "end": 58.56363636363636,
            "velocity": 94,
            "duration": 0.05000000000000426
          },
          {
            "pitch": 37,
            "start": 58.699999999999996,
            "end": 58.75,
            "velocity": 93,
            "duration": 0.05000000000000426
          },
          {
            "pitch": 35,
            "start": 59.070454545454545,
            "end": 59.12045454545454,
            "velocity": 79,
            "duration": 0.04999999999999716
          },
          {
            "pitch": 42,
            "start": 59.256818181818176,
            "end": 59.30681818181818,
            "velocity": 101,
            "duration": 0.05000000000000426
          },
          {
            "pitch": 51,
            "start": 59.256818181818176,
            "end": 59.30681818181818,
            "velocity": 97,
            "duration": 0.05000000000000426
          },
          {
            "pitch": 37,
            "start": 59.62954545454545,
            "end": 59.679545454545455,
            "velocity": 68,
            "duration": 0.05000000000000426
          },
          {
            "pitch": 35,
            "start": 60.0,
            "end": 60.05,
            "velocity": 125,
            "duration": 0.04999999999999716
          },
          {
            "pitch": 42,
            "start": 60.0,
            "end": 60.05,
            "velocity": 114,
            "duration": 0.04999999999999716
          },
          {
            "pitch": 51,
            "start": 60.0,
            "end": 60.05,
            "velocity": 103,
            "duration": 0.04999999999999716
          },
          {
            "pitch": 45,
            "start": 60.18636363636363,
            "end": 60.236363636363635,
            "velocity": 66,
            "duration": 0.05000000000000426
          },
          {
            "pitch": 37,
            "start": 60.37272727272727,
            "end": 60.42272727272727,
            "velocity": 66,
            "duration": 0.05000000000000426
          },
          {
            "pitch": 35,
            "start": 60.55681818181818,
            "end": 60.60681818181818,
            "velocity": 101,
            "duration": 0.04999999999999716
          },
          {
            "pitch": 51,
            "start": 60.55681818181818,
            "end": 60.60681818181818,
            "velocity": 86,
            "duration": 0.04999999999999716
          },
          {
            "pitch": 42,
            "start": 60.74318181818182,
            "end": 60.793181818181814,
            "velocity": 88,
            "duration": 0.04999999999999716
          },
          {
            "pitch": 51,
            "start": 61.3,
            "end": 61.349999999999994,
            "velocity": 99,
            "duration": 0.04999999999999716
          },
          {
            "pitch": 42,
            "start": 61.486363636363635,
            "end": 61.53636363636363,
            "velocity": 90,
            "duration": 0.04999999999999716
          },
          {
            "pitch": 35,
            "start": 61.67272727272727,
            "end": 61.72272727272727,
            "velocity": 77,
            "duration": 0.04999999999999716
          },
          {
            "pitch": 35,
            "start": 62.043181818181814,
            "end": 62.09318181818182,
            "velocity": 65,
            "duration": 0.05000000000000426
          },
          {
            "pitch": 51,
            "start": 62.043181818181814,
            "end": 62.09318181818182,
            "velocity": 95,
            "duration": 0.05000000000000426
          },
          {
            "pitch": 51,
            "start": 62.78636363636363,
            "end": 62.836363636363636,
            "velocity": 100,
            "duration": 0.05000000000000426
          },
          {
            "pitch": 35,
            "start": 62.97272727272727,
            "end": 63.022727272727266,
            "velocity": 97,
            "duration": 0.04999999999999716
          },
          {
            "pitch": 42,
            "start": 62.97272727272727,
            "end": 63.022727272727266,
            "velocity": 91,
            "duration": 0.04999999999999716
          },
          {
            "pitch": 51,
            "start": 63.52954545454545,
            "end": 63.57954545454545,
            "velocity": 73,
            "duration": 0.05000000000000426
          },
          {
            "pitch": 42,
            "start": 63.715909090909086,
            "end": 63.76590909090909,
            "velocity": 79,
            "duration": 0.05000000000000426
          },
          {
            "pitch": 51,
            "start": 63.902272727272724,
            "end": 63.95227272727272,
            "velocity": 79,
            "duration": 0.04999999999999716
          },
          {
            "pitch": 51,
            "start": 64.27272727272727,
            "end": 64.32272727272726,
            "velocity": 94,
            "duration": 0.04999999999999716
          },
          {
            "pitch": 42,
            "start": 64.4590909090909,
            "end": 64.5090909090909,
            "velocity": 97,
            "duration": 0.04999999999999716
          },
          {
            "pitch": 51,
            "start": 64.82954545454545,
            "end": 64.87954545454545,
            "velocity": 76,
            "duration": 0.04999999999999716
          },
          {
            "pitch": 42,
            "start": 65.01590909090909,
            "end": 65.06590909090909,
            "velocity": 93,
            "duration": 0.04999999999999716
          },
          {
            "pitch": 41,
            "start": 65.20227272727273,
            "end": 65.25227272727273,
            "velocity": 79,
            "duration": 0.04999999999999716
          },
          {
            "pitch": 51,
            "start": 65.7590909090909,
            "end": 65.80909090909091,
            "velocity": 100,
            "duration": 0.05000000000001137
          },
          {
            "pitch": 35,
            "start": 65.94545454545454,
            "end": 65.99545454545454,
            "velocity": 74,
            "duration": 0.04999999999999716
          },
          {
            "pitch": 51,
            "start": 66.31590909090909,
            "end": 66.36590909090908,
            "velocity": 92,
            "duration": 0.04999999999999716
          },
          {
            "pitch": 35,
            "start": 66.50227272727273,
            "end": 66.55227272727272,
            "velocity": 82,
            "duration": 0.04999999999999716
          },
          {
            "pitch": 42,
            "start": 66.50227272727273,
            "end": 66.55227272727272,
            "velocity": 107,
            "duration": 0.04999999999999716
          },
          {
            "pitch": 42,
            "start": 67.24545454545454,
            "end": 67.29545454545455,
            "velocity": 69,
            "duration": 0.05000000000001137
          },
          {
            "pitch": 51,
            "start": 67.24545454545454,
            "end": 67.29545454545455,
            "velocity": 73,
            "duration": 0.05000000000001137
          },
          {
            "pitch": 51,
            "start": 67.80227272727272,
            "end": 67.85227272727272,
            "velocity": 82,
            "duration": 0.04999999999999716
          },
          {
            "pitch": 35,
            "start": 67.98863636363636,
            "end": 68.03863636363636,
            "velocity": 90,
            "duration": 0.04999999999999716
          },
          {
            "pitch": 42,
            "start": 67.98863636363636,
            "end": 68.03863636363636,
            "velocity": 77,
            "duration": 0.04999999999999716
          },
          {
            "pitch": 41,
            "start": 68.17272727272727,
            "end": 68.22272727272727,
            "velocity": 68,
            "duration": 0.04999999999999716
          },
          {
            "pitch": 42,
            "start": 68.73181818181818,
            "end": 68.78181818181818,
            "velocity": 79,
            "duration": 0.04999999999999716
          },
          {
            "pitch": 51,
            "start": 69.28863636363636,
            "end": 69.33863636363635,
            "velocity": 79,
            "duration": 0.04999999999999716
          },
          {
            "pitch": 35,
            "start": 69.475,
            "end": 69.52499999999999,
            "velocity": 86,
            "duration": 0.04999999999999716
          },
          {
            "pitch": 42,
            "start": 69.475,
            "end": 69.52499999999999,
            "velocity": 91,
            "duration": 0.04999999999999716
          },
          {
            "pitch": 41,
            "start": 69.84545454545454,
            "end": 69.89545454545454,
            "velocity": 75,
            "duration": 0.04999999999999716
          },
          {
            "pitch": 35,
            "start": 70.03181818181818,
            "end": 70.08181818181818,
            "velocity": 106,
            "duration": 0.04999999999999716
          },
          {
            "pitch": 51,
            "start": 70.03181818181818,
            "end": 70.08181818181818,
            "velocity": 94,
            "duration": 0.04999999999999716
          },
          {
            "pitch": 41,
            "start": 70.21818181818182,
            "end": 70.26818181818182,
            "velocity": 66,
            "duration": 0.04999999999999716
          },
          {
            "pitch": 42,
            "start": 70.21818181818182,
            "end": 70.26818181818182,
            "velocity": 70,
            "duration": 0.04999999999999716
          },
          {
            "pitch": 51,
            "start": 70.77499999999999,
            "end": 70.825,
            "velocity": 78,
            "duration": 0.05000000000001137
          },
          {
            "pitch": 35,
            "start": 70.9590909090909,
            "end": 71.0090909090909,
            "velocity": 81,
            "duration": 0.04999999999999716
          },
          {
            "pitch": 42,
            "start": 70.9590909090909,
            "end": 71.0090909090909,
            "velocity": 87,
            "duration": 0.04999999999999716
          },
          {
            "pitch": 37,
            "start": 71.14545454545454,
            "end": 71.19545454545454,
            "velocity": 120,
            "duration": 0.04999999999999716
          },
          {
            "pitch": 35,
            "start": 71.51818181818182,
            "end": 71.56818181818181,
            "velocity": 100,
            "duration": 0.04999999999999716
          },
          {
            "pitch": 42,
            "start": 71.70227272727273,
            "end": 71.75227272727273,
            "velocity": 66,
            "duration": 0.04999999999999716
          },
          {
            "pitch": 37,
            "start": 71.88863636363637,
            "end": 71.93863636363636,
            "velocity": 100,
            "duration": 0.04999999999999716
          },
          {
            "pitch": 35,
            "start": 72.075,
            "end": 72.125,
            "velocity": 75,
            "duration": 0.04999999999999716
          },
          {
            "pitch": 51,
            "start": 72.26136363636363,
            "end": 72.31136363636364,
            "velocity": 75,
            "duration": 0.05000000000001137
          },
          {
            "pitch": 35,
            "start": 72.44545454545454,
            "end": 72.49545454545454,
            "velocity": 77,
            "duration": 0.04999999999999716
          },
          {
            "pitch": 42,
            "start": 72.44545454545454,
            "end": 72.49545454545454,
            "velocity": 81,
            "duration": 0.04999999999999716
          },
          {
            "pitch": 45,
            "start": 72.63181818181818,
            "end": 72.68181818181817,
            "velocity": 95,
            "duration": 0.04999999999999716
          },
          {
            "pitch": 51,
            "start": 72.81818181818181,
            "end": 72.86818181818181,
            "velocity": 85,
            "duration": 0.04999999999999716
          },
          {
            "pitch": 35,
            "start": 73.00454545454545,
            "end": 73.05454545454545,
            "velocity": 109,
            "duration": 0.04999999999999716
          },
          {
            "pitch": 51,
            "start": 73.375,
            "end": 73.425,
            "velocity": 76,
            "duration": 0.04999999999999716
          },
          {
            "pitch": 41,
            "start": 73.74545454545454,
            "end": 73.79545454545455,
            "velocity": 69,
            "duration": 0.05000000000001137
          },
          {
            "pitch": 51,
            "start": 73.74545454545454,
            "end": 73.79545454545455,
            "velocity": 78,
            "duration": 0.05000000000001137
          },
          {
            "pitch": 35,
            "start": 74.48863636363636,
            "end": 74.53863636363636,
            "velocity": 114,
            "duration": 0.04999999999999716
          },
          {
            "pitch": 42,
            "start": 74.48863636363636,
            "end": 74.53863636363636,
            "velocity": 94,
            "duration": 0.04999999999999716
          },
          {
            "pitch": 51,
            "start": 74.48863636363636,
            "end": 74.53863636363636,
            "velocity": 93,
            "duration": 0.04999999999999716
          },
          {
            "pitch": 51,
            "start": 74.86136363636363,
            "end": 74.91136363636363,
            "velocity": 81,
            "duration": 0.04999999999999716
          },
          {
            "pitch": 35,
            "start": 75.04772727272727,
            "end": 75.09772727272727,
            "velocity": 72,
            "duration": 0.04999999999999716
          },
          {
            "pitch": 42,
            "start": 75.23181818181818,
            "end": 75.28181818181818,
            "velocity": 81,
            "duration": 0.04999999999999716
          },
          {
            "pitch": 51,
            "start": 75.23181818181818,
            "end": 75.28181818181818,
            "velocity": 80,
            "duration": 0.04999999999999716
          },
          {
            "pitch": 35,
            "start": 75.975,
            "end": 76.02499999999999,
            "velocity": 90,
            "duration": 0.04999999999999716
          },
          {
            "pitch": 42,
            "start": 75.975,
            "end": 76.02499999999999,
            "velocity": 88,
            "duration": 0.04999999999999716
          },
          {
            "pitch": 37,
            "start": 76.16136363636363,
            "end": 76.21136363636363,
            "velocity": 104,
            "duration": 0.04999999999999716
          },
          {
            "pitch": 35,
            "start": 76.5340909090909,
            "end": 76.5840909090909,
            "velocity": 101,
            "duration": 0.04999999999999716
          },
          {
            "pitch": 51,
            "start": 76.5340909090909,
            "end": 76.5840909090909,
            "velocity": 64,
            "duration": 0.04999999999999716
          },
          {
            "pitch": 42,
            "start": 76.71818181818182,
            "end": 76.76818181818182,
            "velocity": 81,
            "duration": 0.04999999999999716
          },
          {
            "pitch": 41,
            "start": 77.27499999999999,
            "end": 77.325,
            "velocity": 68,
            "duration": 0.05000000000001137
          },
          {
            "pitch": 51,
            "start": 77.27499999999999,
            "end": 77.325,
            "velocity": 85,
            "duration": 0.05000000000001137
          },
          {
            "pitch": 35,
            "start": 77.46136363636363,
            "end": 77.51136363636363,
            "velocity": 78,
            "duration": 0.04999999999999716
          },
          {
            "pitch": 42,
            "start": 77.46136363636363,
            "end": 77.51136363636363,
            "velocity": 95,
            "duration": 0.04999999999999716
          },
          {
            "pitch": 35,
            "start": 78.01818181818182,
            "end": 78.06818181818181,
            "velocity": 79,
            "duration": 0.04999999999999716
          },
          {
            "pitch": 42,
            "start": 78.01818181818182,
            "end": 78.06818181818181,
            "velocity": 71,
            "duration": 0.04999999999999716
          },
          {
            "pitch": 51,
            "start": 78.01818181818182,
            "end": 78.06818181818181,
            "velocity": 87,
            "duration": 0.04999999999999716
          },
          {
            "pitch": 37,
            "start": 78.20454545454545,
            "end": 78.25454545454545,
            "velocity": 70,
            "duration": 0.04999999999999716
          },
          {
            "pitch": 35,
            "start": 78.57727272727273,
            "end": 78.62727272727273,
            "velocity": 65,
            "duration": 0.04999999999999716
          },
          {
            "pitch": 37,
            "start": 78.76136363636363,
            "end": 78.81136363636364,
            "velocity": 85,
            "duration": 0.05000000000001137
          },
          {
            "pitch": 35,
            "start": 78.94772727272726,
            "end": 78.99772727272727,
            "velocity": 98,
            "duration": 0.05000000000001137
          },
          {
            "pitch": 42,
            "start": 78.94772727272726,
            "end": 78.99772727272727,
            "velocity": 106,
            "duration": 0.05000000000001137
          },
          {
            "pitch": 51,
            "start": 78.94772727272726,
            "end": 78.99772727272727,
            "velocity": 79,
            "duration": 0.05000000000001137
          },
          {
            "pitch": 37,
            "start": 79.1340909090909,
            "end": 79.18409090909091,
            "velocity": 109,
            "duration": 0.05000000000001137
          },
          {
            "pitch": 35,
            "start": 79.50454545454545,
            "end": 79.55454545454545,
            "velocity": 113,
            "duration": 0.04999999999999716
          },
          {
            "pitch": 42,
            "start": 79.50454545454545,
            "end": 79.55454545454545,
            "velocity": 74,
            "duration": 0.04999999999999716
          },
          {
            "pitch": 51,
            "start": 79.50454545454545,
            "end": 79.55454545454545,
            "velocity": 93,
            "duration": 0.04999999999999716
          },
          {
            "pitch": 51,
            "start": 79.87727272727273,
            "end": 79.92727272727272,
            "velocity": 79,
            "duration": 0.04999999999999716
          },
          {
            "pitch": 35,
            "start": 80.06136363636364,
            "end": 80.11136363636363,
            "velocity": 74,
            "duration": 0.04999999999999716
          },
          {
            "pitch": 37,
            "start": 80.24772727272727,
            "end": 80.29772727272727,
            "velocity": 84,
            "duration": 0.04999999999999716
          },
          {
            "pitch": 35,
            "start": 80.99090909090908,
            "end": 81.04090909090908,
            "velocity": 79,
            "duration": 0.04999999999999716
          },
          {
            "pitch": 42,
            "start": 80.99090909090908,
            "end": 81.04090909090908,
            "velocity": 92,
            "duration": 0.04999999999999716
          },
          {
            "pitch": 51,
            "start": 80.99090909090908,
            "end": 81.04090909090908,
            "velocity": 92,
            "duration": 0.04999999999999716
          },
          {
            "pitch": 35,
            "start": 81.54772727272727,
            "end": 81.59772727272727,
            "velocity": 68,
            "duration": 0.04999999999999716
          },
          {
            "pitch": 42,
            "start": 81.54772727272727,
            "end": 81.59772727272727,
            "velocity": 79,
            "duration": 0.04999999999999716
          },
          {
            "pitch": 51,
            "start": 81.54772727272727,
            "end": 81.59772727272727,
            "velocity": 87,
            "duration": 0.04999999999999716
          },
          {
            "pitch": 41,
            "start": 81.73409090909091,
            "end": 81.7840909090909,
            "velocity": 71,
            "duration": 0.04999999999999716
          },
          {
            "pitch": 35,
            "start": 82.47727272727272,
            "end": 82.52727272727272,
            "velocity": 104,
            "duration": 0.04999999999999716
          },
          {
            "pitch": 42,
            "start": 82.47727272727272,
            "end": 82.52727272727272,
            "velocity": 90,
            "duration": 0.04999999999999716
          },
          {
            "pitch": 51,
            "start": 82.66363636363636,
            "end": 82.71363636363635,
            "velocity": 93,
            "duration": 0.04999999999999716
          },
          {
            "pitch": 35,
            "start": 83.0340909090909,
            "end": 83.0840909090909,
            "velocity": 94,
            "duration": 0.04999999999999716
          },
          {
            "pitch": 51,
            "start": 83.0340909090909,
            "end": 83.0840909090909,
            "velocity": 89,
            "duration": 0.04999999999999716
          },
          {
            "pitch": 42,
            "start": 83.22045454545454,
            "end": 83.27045454545454,
            "velocity": 65,
            "duration": 0.04999999999999716
          },
          {
            "pitch": 51,
            "start": 83.77727272727272,
            "end": 83.82727272727273,
            "velocity": 70,
            "duration": 0.05000000000001137
          },
          {
            "pitch": 35,
            "start": 83.96363636363635,
            "end": 84.01363636363637,
            "velocity": 74,
            "duration": 0.05000000000001137
          },
          {
            "pitch": 37,
            "start": 84.14999999999999,
            "end": 84.2,
            "velocity": 97,
            "duration": 0.05000000000001137
          },
          {
            "pitch": 41,
            "start": 84.14999999999999,
            "end": 84.2,
            "velocity": 78,
            "duration": 0.05000000000001137
          },
          {
            "pitch": 35,
            "start": 84.52045454545454,
            "end": 84.57045454545454,
            "velocity": 69,
            "duration": 0.04999999999999716
          },
          {
            "pitch": 37,
            "start": 84.70681818181818,
            "end": 84.75681818181818,
            "velocity": 93,
            "duration": 0.04999999999999716
          },
          {
            "pitch": 42,
            "start": 84.89318181818182,
            "end": 84.94318181818181,
            "velocity": 92,
            "duration": 0.04999999999999716
          },
          {
            "pitch": 51,
            "start": 85.26363636363637,
            "end": 85.31363636363636,
            "velocity": 68,
            "duration": 0.04999999999999716
          },
          {
            "pitch": 35,
            "start": 85.45,
            "end": 85.5,
            "velocity": 80,
            "duration": 0.04999999999999716
          },
          {
            "pitch": 42,
            "start": 85.45,
            "end": 85.5,
            "velocity": 94,
            "duration": 0.04999999999999716
          },
          {
            "pitch": 37,
            "start": 85.82045454545454,
            "end": 85.87045454545454,
            "velocity": 70,
            "duration": 0.04999999999999716
          },
          {
            "pitch": 35,
            "start": 86.00681818181818,
            "end": 86.05681818181817,
            "velocity": 112,
            "duration": 0.04999999999999716
          },
          {
            "pitch": 42,
            "start": 86.00681818181818,
            "end": 86.05681818181817,
            "velocity": 97,
            "duration": 0.04999999999999716
          },
          {
            "pitch": 51,
            "start": 86.00681818181818,
            "end": 86.05681818181817,
            "velocity": 85,
            "duration": 0.04999999999999716
          },
          {
            "pitch": 51,
            "start": 86.37727272727273,
            "end": 86.42727272727272,
            "velocity": 82,
            "duration": 0.04999999999999716
          },
          {
            "pitch": 35,
            "start": 86.56363636363636,
            "end": 86.61363636363636,
            "velocity": 65,
            "duration": 0.04999999999999716
          },
          {
            "pitch": 51,
            "start": 86.75,
            "end": 86.8,
            "velocity": 75,
            "duration": 0.04999999999999716
          },
          {
            "pitch": 35,
            "start": 86.93636363636364,
            "end": 86.98636363636363,
            "velocity": 70,
            "duration": 0.04999999999999716
          },
          {
            "pitch": 35,
            "start": 87.49318181818181,
            "end": 87.54318181818181,
            "velocity": 111,
            "duration": 0.04999999999999716
          },
          {
            "pitch": 42,
            "start": 87.49318181818181,
            "end": 87.54318181818181,
            "velocity": 99,
            "duration": 0.04999999999999716
          },
          {
            "pitch": 51,
            "start": 87.49318181818181,
            "end": 87.54318181818181,
            "velocity": 81,
            "duration": 0.04999999999999716
          },
          {
            "pitch": 37,
            "start": 87.86363636363636,
            "end": 87.91363636363636,
            "velocity": 89,
            "duration": 0.04999999999999716
          },
          {
            "pitch": 35,
            "start": 88.05,
            "end": 88.1,
            "velocity": 74,
            "duration": 0.04999999999999716
          },
          {
            "pitch": 51,
            "start": 88.05,
            "end": 88.1,
            "velocity": 80,
            "duration": 0.04999999999999716
          },
          {
            "pitch": 51,
            "start": 88.79318181818181,
            "end": 88.84318181818182,
            "velocity": 75,
            "duration": 0.05000000000001137
          },
          {
            "pitch": 35,
            "start": 88.97954545454544,
            "end": 89.02954545454546,
            "velocity": 78,
            "duration": 0.05000000000001137
          },
          {
            "pitch": 42,
            "start": 88.97954545454544,
            "end": 89.02954545454546,
            "velocity": 85,
            "duration": 0.05000000000001137
          },
          {
            "pitch": 42,
            "start": 89.53636363636363,
            "end": 89.58636363636363,
            "velocity": 68,
            "duration": 0.04999999999999716
          },
          {
            "pitch": 51,
            "start": 89.53636363636363,
            "end": 89.58636363636363,
            "velocity": 67,
            "duration": 0.04999999999999716
          },
          {
            "pitch": 51,
            "start": 90.09318181818182,
            "end": 90.14318181818182,
            "velocity": 75,
            "duration": 0.04999999999999716
          },
          {
            "pitch": 35,
            "start": 90.4659090909091,
            "end": 90.51590909090909,
            "velocity": 90,
            "duration": 0.04999999999999716
          },
          {
            "pitch": 42,
            "start": 90.4659090909091,
            "end": 90.51590909090909,
            "velocity": 65,
            "duration": 0.04999999999999716
          },
          {
            "pitch": 35,
            "start": 91.02272727272727,
            "end": 91.07272727272726,
            "velocity": 107,
            "duration": 0.04999999999999716
          },
          {
            "pitch": 37,
            "start": 91.2090909090909,
            "end": 91.2590909090909,
            "velocity": 104,
            "duration": 0.04999999999999716
          },
          {
            "pitch": 35,
            "start": 91.57954545454545,
            "end": 91.62954545454545,
            "velocity": 66,
            "duration": 0.04999999999999716
          },
          {
            "pitch": 37,
            "start": 91.76590909090909,
            "end": 91.81590909090909,
            "velocity": 78,
            "duration": 0.04999999999999716
          },
          {
            "pitch": 35,
            "start": 91.94999999999999,
            "end": 92.0,
            "velocity": 71,
            "duration": 0.05000000000001137
          },
          {
            "pitch": 42,
            "start": 91.94999999999999,
            "end": 92.0,
            "velocity": 68,
            "duration": 0.05000000000001137
          },
          {
            "pitch": 35,
            "start": 92.5090909090909,
            "end": 92.5590909090909,
            "velocity": 107,
            "duration": 0.04999999999999716
          },
          {
            "pitch": 42,
            "start": 92.5090909090909,
            "end": 92.5590909090909,
            "velocity": 89,
            "duration": 0.04999999999999716
          },
          {
            "pitch": 51,
            "start": 92.5090909090909,
            "end": 92.5590909090909,
            "velocity": 86,
            "duration": 0.04999999999999716
          },
          {
            "pitch": 51,
            "start": 93.25227272727273,
            "end": 93.30227272727272,
            "velocity": 85,
            "duration": 0.04999999999999716
          },
          {
            "pitch": 42,
            "start": 93.43636363636364,
            "end": 93.48636363636363,
            "velocity": 65,
            "duration": 0.04999999999999716
          },
          {
            "pitch": 35,
            "start": 93.99545454545454,
            "end": 94.04545454545455,
            "velocity": 117,
            "duration": 0.05000000000001137
          },
          {
            "pitch": 42,
            "start": 93.99545454545454,
            "end": 94.04545454545455,
            "velocity": 84,
            "duration": 0.05000000000001137
          },
          {
            "pitch": 51,
            "start": 93.99545454545454,
            "end": 94.04545454545455,
            "velocity": 98,
            "duration": 0.05000000000001137
          },
          {
            "pitch": 35,
            "start": 94.55227272727272,
            "end": 94.60227272727272,
            "velocity": 64,
            "duration": 0.04999999999999716
          },
          {
            "pitch": 51,
            "start": 94.73636363636363,
            "end": 94.78636363636363,
            "velocity": 86,
            "duration": 0.04999999999999716
          },
          {
            "pitch": 35,
            "start": 94.92272727272727,
            "end": 94.97272727272727,
            "velocity": 68,
            "duration": 0.04999999999999716
          },
          {
            "pitch": 35,
            "start": 95.47954545454544,
            "end": 95.52954545454546,
            "velocity": 102,
            "duration": 0.05000000000001137
          },
          {
            "pitch": 42,
            "start": 95.47954545454544,
            "end": 95.52954545454546,
            "velocity": 83,
            "duration": 0.05000000000001137
          },
          {
            "pitch": 51,
            "start": 95.47954545454544,
            "end": 95.52954545454546,
            "velocity": 76,
            "duration": 0.05000000000001137
          },
          {
            "pitch": 37,
            "start": 95.66590909090908,
            "end": 95.71590909090908,
            "velocity": 83,
            "duration": 0.04999999999999716
          },
          {
            "pitch": 35,
            "start": 96.03863636363636,
            "end": 96.08863636363635,
            "velocity": 80,
            "duration": 0.04999999999999716
          },
          {
            "pitch": 51,
            "start": 96.03863636363636,
            "end": 96.08863636363635,
            "velocity": 77,
            "duration": 0.04999999999999716
          },
          {
            "pitch": 37,
            "start": 96.4090909090909,
            "end": 96.4590909090909,
            "velocity": 70,
            "duration": 0.04999999999999716
          },
          {
            "pitch": 51,
            "start": 96.78181818181818,
            "end": 96.83181818181818,
            "velocity": 75,
            "duration": 0.04999999999999716
          },
          {
            "pitch": 35,
            "start": 96.96590909090908,
            "end": 97.01590909090909,
            "velocity": 81,
            "duration": 0.05000000000001137
          },
          {
            "pitch": 42,
            "start": 96.96590909090908,
            "end": 97.01590909090909,
            "velocity": 92,
            "duration": 0.05000000000001137
          },
          {
            "pitch": 37,
            "start": 97.15227272727272,
            "end": 97.20227272727273,
            "velocity": 82,
            "duration": 0.05000000000001137
          },
          {
            "pitch": 35,
            "start": 97.52272727272727,
            "end": 97.57272727272726,
            "velocity": 88,
            "duration": 0.04999999999999716
          },
          {
            "pitch": 37,
            "start": 97.89545454545454,
            "end": 97.94545454545454,
            "velocity": 87,
            "duration": 0.04999999999999716
          },
          {
            "pitch": 35,
            "start": 98.45227272727273,
            "end": 98.50227272727273,
            "velocity": 78,
            "duration": 0.04999999999999716
          },
          {
            "pitch": 37,
            "start": 98.82499999999999,
            "end": 98.875,
            "velocity": 77,
            "duration": 0.05000000000001137
          },
          {
            "pitch": 35,
            "start": 99.0090909090909,
            "end": 99.0590909090909,
            "velocity": 104,
            "duration": 0.04999999999999716
          },
          {
            "pitch": 37,
            "start": 99.38181818181818,
            "end": 99.43181818181817,
            "velocity": 79,
            "duration": 0.04999999999999716
          },
          {
            "pitch": 35,
            "start": 99.56818181818181,
            "end": 99.61818181818181,
            "velocity": 63,
            "duration": 0.04999999999999716
          },
          {
            "pitch": 35,
            "start": 99.93863636363636,
            "end": 99.98863636363636,
            "velocity": 67,
            "duration": 0.04999999999999716
          },
          {
            "pitch": 42,
            "start": 99.93863636363636,
            "end": 99.98863636363636,
            "velocity": 75,
            "duration": 0.04999999999999716
          },
          {
            "pitch": 42,
            "start": 100.49545454545454,
            "end": 100.54545454545455,
            "velocity": 91,
            "duration": 0.05000000000001137
          },
          {
            "pitch": 35,
            "start": 101.05227272727272,
            "end": 101.10227272727272,
            "velocity": 64,
            "duration": 0.04999999999999716
          },
          {
            "pitch": 41,
            "start": 102.35454545454544,
            "end": 102.40454545454546,
            "velocity": 68,
            "duration": 0.05000000000001137
          },
          {
            "pitch": 35,
            "start": 102.725,
            "end": 102.77499999999999,
            "velocity": 76,
            "duration": 0.04999999999999716
          },
          {
            "pitch": 35,
            "start": 103.09772727272727,
            "end": 103.14772727272727,
            "velocity": 69,
            "duration": 0.04999999999999716
          },
          {
            "pitch": 41,
            "start": 103.28181818181818,
            "end": 103.33181818181818,
            "velocity": 67,
            "duration": 0.04999999999999716
          },
          {
            "pitch": 35,
            "start": 103.46818181818182,
            "end": 103.51818181818182,
            "velocity": 69,
            "duration": 0.04999999999999716
          },
          {
            "pitch": 51,
            "start": 104.02499999999999,
            "end": 104.07499999999999,
            "velocity": 75,
            "duration": 0.04999999999999716
          },
          {
            "pitch": 51,
            "start": 104.76818181818182,
            "end": 104.81818181818181,
            "velocity": 77,
            "duration": 0.04999999999999716
          },
          {
            "pitch": 35,
            "start": 104.95454545454545,
            "end": 105.00454545454545,
            "velocity": 96,
            "duration": 0.04999999999999716
          },
          {
            "pitch": 35,
            "start": 105.51136363636363,
            "end": 105.56136363636364,
            "velocity": 114,
            "duration": 0.05000000000001137
          },
          {
            "pitch": 42,
            "start": 105.51136363636363,
            "end": 105.56136363636364,
            "velocity": 94,
            "duration": 0.05000000000001137
          },
          {
            "pitch": 51,
            "start": 105.51136363636363,
            "end": 105.56136363636364,
            "velocity": 96,
            "duration": 0.05000000000001137
          },
          {
            "pitch": 51,
            "start": 106.25454545454545,
            "end": 106.30454545454545,
            "velocity": 87,
            "duration": 0.04999999999999716
          },
          {
            "pitch": 35,
            "start": 106.44090909090909,
            "end": 106.49090909090908,
            "velocity": 63,
            "duration": 0.04999999999999716
          },
          {
            "pitch": 42,
            "start": 106.44090909090909,
            "end": 106.49090909090908,
            "velocity": 64,
            "duration": 0.04999999999999716
          },
          {
            "pitch": 37,
            "start": 106.81136363636364,
            "end": 106.86136363636363,
            "velocity": 82,
            "duration": 0.04999999999999716
          },
          {
            "pitch": 35,
            "start": 106.99772727272726,
            "end": 107.04772727272727,
            "velocity": 114,
            "duration": 0.05000000000001137
          },
          {
            "pitch": 42,
            "start": 106.99772727272726,
            "end": 107.04772727272727,
            "velocity": 101,
            "duration": 0.05000000000001137
          },
          {
            "pitch": 51,
            "start": 106.99772727272726,
            "end": 107.04772727272727,
            "velocity": 98,
            "duration": 0.05000000000001137
          },
          {
            "pitch": 35,
            "start": 107.55454545454545,
            "end": 107.60454545454544,
            "velocity": 70,
            "duration": 0.04999999999999716
          },
          {
            "pitch": 37,
            "start": 107.74090909090908,
            "end": 107.79090909090908,
            "velocity": 68,
            "duration": 0.04999999999999716
          },
          {
            "pitch": 51,
            "start": 107.74090909090908,
            "end": 107.79090909090908,
            "velocity": 67,
            "duration": 0.04999999999999716
          },
          {
            "pitch": 37,
            "start": 108.29772727272727,
            "end": 108.34772727272727,
            "velocity": 81,
            "duration": 0.04999999999999716
          },
          {
            "pitch": 35,
            "start": 108.48409090909091,
            "end": 108.5340909090909,
            "velocity": 105,
            "duration": 0.04999999999999716
          },
          {
            "pitch": 42,
            "start": 108.48409090909091,
            "end": 108.5340909090909,
            "velocity": 99,
            "duration": 0.04999999999999716
          },
          {
            "pitch": 51,
            "start": 108.48409090909091,
            "end": 108.5340909090909,
            "velocity": 75,
            "duration": 0.04999999999999716
          },
          {
            "pitch": 35,
            "start": 109.04090909090908,
            "end": 109.09090909090908,
            "velocity": 93,
            "duration": 0.04999999999999716
          },
          {
            "pitch": 51,
            "start": 109.04090909090908,
            "end": 109.09090909090908,
            "velocity": 86,
            "duration": 0.04999999999999716
          },
          {
            "pitch": 35,
            "start": 109.97045454545454,
            "end": 110.02045454545454,
            "velocity": 97,
            "duration": 0.04999999999999716
          },
          {
            "pitch": 42,
            "start": 109.97045454545454,
            "end": 110.02045454545454,
            "velocity": 90,
            "duration": 0.04999999999999716
          },
          {
            "pitch": 37,
            "start": 110.15454545454546,
            "end": 110.20454545454545,
            "velocity": 92,
            "duration": 0.04999999999999716
          },
          {
            "pitch": 35,
            "start": 110.52727272727272,
            "end": 110.57727272727273,
            "velocity": 101,
            "duration": 0.05000000000001137
          },
          {
            "pitch": 42,
            "start": 110.52727272727272,
            "end": 110.57727272727273,
            "velocity": 90,
            "duration": 0.05000000000001137
          },
          {
            "pitch": 51,
            "start": 110.52727272727272,
            "end": 110.57727272727273,
            "velocity": 80,
            "duration": 0.05000000000001137
          },
          {
            "pitch": 37,
            "start": 110.89772727272727,
            "end": 110.94772727272726,
            "velocity": 67,
            "duration": 0.04999999999999716
          },
          {
            "pitch": 51,
            "start": 111.27045454545454,
            "end": 111.32045454545454,
            "velocity": 83,
            "duration": 0.04999999999999716
          },
          {
            "pitch": 35,
            "start": 111.45681818181818,
            "end": 111.50681818181818,
            "velocity": 91,
            "duration": 0.04999999999999716
          },
          {
            "pitch": 42,
            "start": 111.45681818181818,
            "end": 111.50681818181818,
            "velocity": 80,
            "duration": 0.04999999999999716
          },
          {
            "pitch": 37,
            "start": 111.64090909090909,
            "end": 111.69090909090909,
            "velocity": 75,
            "duration": 0.04999999999999716
          },
          {
            "pitch": 35,
            "start": 112.01363636363635,
            "end": 112.06363636363636,
            "velocity": 117,
            "duration": 0.05000000000001137
          },
          {
            "pitch": 51,
            "start": 112.01363636363635,
            "end": 112.06363636363636,
            "velocity": 99,
            "duration": 0.05000000000001137
          },
          {
            "pitch": 37,
            "start": 112.3840909090909,
            "end": 112.4340909090909,
            "velocity": 86,
            "duration": 0.04999999999999716
          },
          {
            "pitch": 51,
            "start": 112.75681818181818,
            "end": 112.80681818181817,
            "velocity": 79,
            "duration": 0.04999999999999716
          },
          {
            "pitch": 35,
            "start": 112.94090909090909,
            "end": 112.99090909090908,
            "velocity": 74,
            "duration": 0.04999999999999716
          },
          {
            "pitch": 35,
            "start": 113.5,
            "end": 113.55,
            "velocity": 115,
            "duration": 0.04999999999999716
          },
          {
            "pitch": 42,
            "start": 113.5,
            "end": 113.55,
            "velocity": 107,
            "duration": 0.04999999999999716
          },
          {
            "pitch": 51,
            "start": 113.5,
            "end": 113.55,
            "velocity": 98,
            "duration": 0.04999999999999716
          },
          {
            "pitch": 35,
            "start": 114.05681818181817,
            "end": 114.10681818181817,
            "velocity": 73,
            "duration": 0.04999999999999716
          },
          {
            "pitch": 51,
            "start": 114.05681818181817,
            "end": 114.10681818181817,
            "velocity": 85,
            "duration": 0.04999999999999716
          },
          {
            "pitch": 37,
            "start": 114.8,
            "end": 114.85,
            "velocity": 92,
            "duration": 0.04999999999999716
          },
          {
            "pitch": 35,
            "start": 114.98409090909091,
            "end": 115.0340909090909,
            "velocity": 107,
            "duration": 0.04999999999999716
          },
          {
            "pitch": 42,
            "start": 114.98409090909091,
            "end": 115.0340909090909,
            "velocity": 95,
            "duration": 0.04999999999999716
          },
          {
            "pitch": 51,
            "start": 114.98409090909091,
            "end": 115.0340909090909,
            "velocity": 91,
            "duration": 0.04999999999999716
          },
          {
            "pitch": 35,
            "start": 115.54318181818181,
            "end": 115.59318181818182,
            "velocity": 85,
            "duration": 0.05000000000001137
          },
          {
            "pitch": 51,
            "start": 115.54318181818181,
            "end": 115.59318181818182,
            "velocity": 77,
            "duration": 0.05000000000001137
          },
          {
            "pitch": 37,
            "start": 116.28636363636363,
            "end": 116.33636363636363,
            "velocity": 74,
            "duration": 0.04999999999999716
          },
          {
            "pitch": 51,
            "start": 116.28636363636363,
            "end": 116.33636363636363,
            "velocity": 70,
            "duration": 0.04999999999999716
          },
          {
            "pitch": 35,
            "start": 116.47045454545454,
            "end": 116.52045454545454,
            "velocity": 77,
            "duration": 0.04999999999999716
          },
          {
            "pitch": 42,
            "start": 116.47045454545454,
            "end": 116.52045454545454,
            "velocity": 97,
            "duration": 0.04999999999999716
          },
          {
            "pitch": 35,
            "start": 117.02954545454544,
            "end": 117.07954545454545,
            "velocity": 108,
            "duration": 0.05000000000001137
          },
          {
            "pitch": 51,
            "start": 117.02954545454544,
            "end": 117.07954545454545,
            "velocity": 90,
            "duration": 0.05000000000001137
          },
          {
            "pitch": 51,
            "start": 117.77272727272727,
            "end": 117.82272727272726,
            "velocity": 78,
            "duration": 0.04999999999999716
          },
          {
            "pitch": 35,
            "start": 117.95681818181818,
            "end": 118.00681818181818,
            "velocity": 82,
            "duration": 0.04999999999999716
          },
          {
            "pitch": 37,
            "start": 118.14318181818182,
            "end": 118.19318181818181,
            "velocity": 73,
            "duration": 0.04999999999999716
          },
          {
            "pitch": 35,
            "start": 118.51363636363635,
            "end": 118.56363636363636,
            "velocity": 111,
            "duration": 0.05000000000001137
          },
          {
            "pitch": 42,
            "start": 118.51363636363635,
            "end": 118.56363636363636,
            "velocity": 101,
            "duration": 0.05000000000001137
          },
          {
            "pitch": 51,
            "start": 118.51363636363635,
            "end": 118.56363636363636,
            "velocity": 81,
            "duration": 0.05000000000001137
          },
          {
            "pitch": 37,
            "start": 118.88636363636363,
            "end": 118.93636363636364,
            "velocity": 99,
            "duration": 0.05000000000001137
          },
          {
            "pitch": 35,
            "start": 119.07272727272726,
            "end": 119.12272727272726,
            "velocity": 64,
            "duration": 0.04999999999999716
          },
          {
            "pitch": 51,
            "start": 119.25681818181818,
            "end": 119.30681818181817,
            "velocity": 88,
            "duration": 0.04999999999999716
          },
          {
            "pitch": 35,
            "start": 119.44318181818181,
            "end": 119.49318181818181,
            "velocity": 65,
            "duration": 0.04999999999999716
          },
          {
            "pitch": 37,
            "start": 119.44318181818181,
            "end": 119.49318181818181,
            "velocity": 64,
            "duration": 0.04999999999999716
          },
          {
            "pitch": 51,
            "start": 119.81590909090909,
            "end": 119.86590909090908,
            "velocity": 93,
            "duration": 0.04999999999999716
          },
          {
            "pitch": 37,
            "start": 120.37272727272726,
            "end": 120.42272727272727,
            "velocity": 101,
            "duration": 0.05000000000001137
          },
          {
            "pitch": 51,
            "start": 120.5590909090909,
            "end": 120.60909090909091,
            "velocity": 64,
            "duration": 0.05000000000001137
          },
          {
            "pitch": 37,
            "start": 120.74318181818181,
            "end": 120.79318181818181,
            "velocity": 89,
            "duration": 0.04999999999999716
          },
          {
            "pitch": 37,
            "start": 121.11590909090908,
            "end": 121.16590909090908,
            "velocity": 101,
            "duration": 0.04999999999999716
          },
          {
            "pitch": 51,
            "start": 121.3,
            "end": 121.35,
            "velocity": 71,
            "duration": 0.04999999999999716
          },
          {
            "pitch": 37,
            "start": 121.48636363636363,
            "end": 121.53636363636363,
            "velocity": 66,
            "duration": 0.04999999999999716
          },
          {
            "pitch": 42,
            "start": 121.48636363636363,
            "end": 121.53636363636363,
            "velocity": 65,
            "duration": 0.04999999999999716
          },
          {
            "pitch": 51,
            "start": 122.04318181818181,
            "end": 122.09318181818182,
            "velocity": 78,
            "duration": 0.05000000000001137
          },
          {
            "pitch": 42,
            "start": 122.22954545454544,
            "end": 122.27954545454544,
            "velocity": 67,
            "duration": 0.04999999999999716
          },
          {
            "pitch": 51,
            "start": 122.41590909090908,
            "end": 122.46590909090908,
            "velocity": 76,
            "duration": 0.04999999999999716
          },
          {
            "pitch": 51,
            "start": 122.78636363636363,
            "end": 122.83636363636363,
            "velocity": 94,
            "duration": 0.04999999999999716
          },
          {
            "pitch": 42,
            "start": 122.97272727272727,
            "end": 123.02272727272727,
            "velocity": 87,
            "duration": 0.04999999999999716
          },
          {
            "pitch": 51,
            "start": 123.34545454545454,
            "end": 123.39545454545454,
            "velocity": 71,
            "duration": 0.04999999999999716
          },
          {
            "pitch": 51,
            "start": 123.71590909090908,
            "end": 123.76590909090909,
            "velocity": 69,
            "duration": 0.05000000000001137
          },
          {
            "pitch": 37,
            "start": 123.90227272727272,
            "end": 123.95227272727273,
            "velocity": 87,
            "duration": 0.05000000000001137
          },
          {
            "pitch": 51,
            "start": 124.27272727272727,
            "end": 124.32272727272726,
            "velocity": 87,
            "duration": 0.04999999999999716
          },
          {
            "pitch": 42,
            "start": 124.4590909090909,
            "end": 124.5090909090909,
            "velocity": 77,
            "duration": 0.04999999999999716
          },
          {
            "pitch": 35,
            "start": 125.01590909090909,
            "end": 125.06590909090909,
            "velocity": 110,
            "duration": 0.04999999999999716
          },
          {
            "pitch": 51,
            "start": 125.01590909090909,
            "end": 125.06590909090909,
            "velocity": 86,
            "duration": 0.04999999999999716
          },
          {
            "pitch": 51,
            "start": 125.7590909090909,
            "end": 125.8090909090909,
            "velocity": 90,
            "duration": 0.04999999999999716
          },
          {
            "pitch": 35,
            "start": 125.94545454545454,
            "end": 125.99545454545454,
            "velocity": 69,
            "duration": 0.04999999999999716
          },
          {
            "pitch": 37,
            "start": 126.13181818181818,
            "end": 126.18181818181817,
            "velocity": 107,
            "duration": 0.04999999999999716
          },
          {
            "pitch": 51,
            "start": 126.31590909090909,
            "end": 126.36590909090908,
            "velocity": 77,
            "duration": 0.04999999999999716
          },
          {
            "pitch": 42,
            "start": 126.50227272727273,
            "end": 126.55227272727272,
            "velocity": 72,
            "duration": 0.04999999999999716
          },
          {
            "pitch": 37,
            "start": 126.87272727272726,
            "end": 126.92272727272727,
            "velocity": 88,
            "duration": 0.05000000000001137
          },
          {
            "pitch": 51,
            "start": 127.0590909090909,
            "end": 127.10909090909091,
            "velocity": 63,
            "duration": 0.05000000000001137
          },
          {
            "pitch": 37,
            "start": 127.24545454545454,
            "end": 127.29545454545453,
            "velocity": 69,
            "duration": 0.04999999999999716
          },
          {
            "pitch": 35,
            "start": 127.98863636363636,
            "end": 128.03863636363636,
            "velocity": 86,
            "duration": 0.04999999999999716
          },
          {
            "pitch": 51,
            "start": 127.98863636363636,
            "end": 128.03863636363636,
            "velocity": 86,
            "duration": 0.04999999999999716
          },
          {
            "pitch": 42,
            "start": 128.54545454545453,
            "end": 128.59545454545454,
            "velocity": 63,
            "duration": 0.05000000000001137
          },
          {
            "pitch": 51,
            "start": 128.73181818181817,
            "end": 128.78181818181818,
            "velocity": 68,
            "duration": 0.05000000000001137
          },
          {
            "pitch": 51,
            "start": 129.28863636363636,
            "end": 129.33863636363637,
            "velocity": 71,
            "duration": 0.05000000000001137
          },
          {
            "pitch": 37,
            "start": 129.475,
            "end": 129.525,
            "velocity": 68,
            "duration": 0.05000000000001137
          },
          {
            "pitch": 35,
            "start": 130.03181818181818,
            "end": 130.08181818181816,
            "velocity": 85,
            "duration": 0.04999999999998295
          },
          {
            "pitch": 51,
            "start": 130.03181818181818,
            "end": 130.08181818181816,
            "velocity": 84,
            "duration": 0.04999999999998295
          },
          {
            "pitch": 37,
            "start": 130.40227272727273,
            "end": 130.4522727272727,
            "velocity": 66,
            "duration": 0.04999999999998295
          },
          {
            "pitch": 51,
            "start": 130.775,
            "end": 130.825,
            "velocity": 84,
            "duration": 0.04999999999998295
          },
          {
            "pitch": 35,
            "start": 130.96136363636364,
            "end": 131.01136363636363,
            "velocity": 92,
            "duration": 0.04999999999998295
          },
          {
            "pitch": 42,
            "start": 130.96136363636364,
            "end": 131.01136363636363,
            "velocity": 73,
            "duration": 0.04999999999998295
          },
          {
            "pitch": 37,
            "start": 131.14545454545453,
            "end": 131.19545454545454,
            "velocity": 97,
            "duration": 0.05000000000001137
          },
          {
            "pitch": 42,
            "start": 131.5181818181818,
            "end": 131.5681818181818,
            "velocity": 69,
            "duration": 0.05000000000001137
          },
          {
            "pitch": 51,
            "start": 131.5181818181818,
            "end": 131.5681818181818,
            "velocity": 67,
            "duration": 0.05000000000001137
          },
          {
            "pitch": 37,
            "start": 131.88863636363635,
            "end": 131.93863636363636,
            "velocity": 99,
            "duration": 0.05000000000001137
          },
          {
            "pitch": 51,
            "start": 132.26136363636363,
            "end": 132.31136363636364,
            "velocity": 65,
            "duration": 0.05000000000001137
          },
          {
            "pitch": 35,
            "start": 133.00454545454545,
            "end": 133.05454545454546,
            "velocity": 109,
            "duration": 0.05000000000001137
          },
          {
            "pitch": 35,
            "start": 133.9318181818182,
            "end": 133.98181818181817,
            "velocity": 68,
            "duration": 0.04999999999998295
          },
          {
            "pitch": 37,
            "start": 134.11818181818182,
            "end": 134.1681818181818,
            "velocity": 79,
            "duration": 0.04999999999998295
          },
          {
            "pitch": 37,
            "start": 134.86136363636362,
            "end": 134.91136363636363,
            "velocity": 91,
            "duration": 0.05000000000001137
          },
          {
            "pitch": 35,
            "start": 135.04772727272726,
            "end": 135.09772727272727,
            "velocity": 65,
            "duration": 0.05000000000001137
          },
          {
            "pitch": 35,
            "start": 135.4181818181818,
            "end": 135.46818181818182,
            "velocity": 67,
            "duration": 0.05000000000001137
          },
          {
            "pitch": 37,
            "start": 135.60454545454544,
            "end": 135.65454545454546,
            "velocity": 100,
            "duration": 0.05000000000001137
          },
          {
            "pitch": 37,
            "start": 136.5340909090909,
            "end": 136.5840909090909,
            "velocity": 75,
            "duration": 0.04999999999998295
          },
          {
            "pitch": 51,
            "start": 136.90454545454546,
            "end": 136.95454545454544,
            "velocity": 67,
            "duration": 0.04999999999998295
          },
          {
            "pitch": 51,
            "start": 137.46136363636364,
            "end": 137.51136363636363,
            "velocity": 78,
            "duration": 0.04999999999998295
          },
          {
            "pitch": 37,
            "start": 137.64772727272725,
            "end": 137.69772727272726,
            "velocity": 66,
            "duration": 0.05000000000001137
          },
          {
            "pitch": 37,
            "start": 138.20454545454544,
            "end": 138.25454545454545,
            "velocity": 90,
            "duration": 0.05000000000001137
          },
          {
            "pitch": 45,
            "start": 138.39090909090908,
            "end": 138.4409090909091,
            "velocity": 89,
            "duration": 0.05000000000001137
          },
          {
            "pitch": 41,
            "start": 139.1340909090909,
            "end": 139.1840909090909,
            "velocity": 67,
            "duration": 0.05000000000001137
          },
          {
            "pitch": 51,
            "start": 139.32045454545454,
            "end": 139.37045454545455,
            "velocity": 71,
            "duration": 0.05000000000001137
          },
          {
            "pitch": 41,
            "start": 139.50454545454545,
            "end": 139.55454545454546,
            "velocity": 64,
            "duration": 0.05000000000001137
          },
          {
            "pitch": 35,
            "start": 139.6909090909091,
            "end": 139.74090909090907,
            "velocity": 70,
            "duration": 0.04999999999998295
          },
          {
            "pitch": 41,
            "start": 140.24772727272727,
            "end": 140.29772727272726,
            "velocity": 83,
            "duration": 0.04999999999998295
          },
          {
            "pitch": 35,
            "start": 140.4340909090909,
            "end": 140.4840909090909,
            "velocity": 68,
            "duration": 0.04999999999998295
          },
          {
            "pitch": 35,
            "start": 140.99090909090907,
            "end": 141.04090909090908,
            "velocity": 101,
            "duration": 0.05000000000001137
          },
          {
            "pitch": 51,
            "start": 140.99090909090907,
            "end": 141.04090909090908,
            "velocity": 86,
            "duration": 0.05000000000001137
          },
          {
            "pitch": 51,
            "start": 141.54772727272726,
            "end": 141.59772727272727,
            "velocity": 71,
            "duration": 0.05000000000001137
          },
          {
            "pitch": 51,
            "start": 142.29090909090908,
            "end": 142.3409090909091,
            "velocity": 80,
            "duration": 0.05000000000001137
          },
          {
            "pitch": 35,
            "start": 142.47727272727272,
            "end": 142.52727272727273,
            "velocity": 84,
            "duration": 0.05000000000001137
          },
          {
            "pitch": 42,
            "start": 142.47727272727272,
            "end": 142.52727272727273,
            "velocity": 77,
            "duration": 0.05000000000001137
          },
          {
            "pitch": 37,
            "start": 142.85,
            "end": 142.9,
            "velocity": 79,
            "duration": 0.05000000000001137
          },
          {
            "pitch": 35,
            "start": 143.0340909090909,
            "end": 143.0840909090909,
            "velocity": 82,
            "duration": 0.04999999999998295
          },
          {
            "pitch": 51,
            "start": 143.0340909090909,
            "end": 143.0840909090909,
            "velocity": 85,
            "duration": 0.04999999999998295
          },
          {
            "pitch": 51,
            "start": 143.77727272727273,
            "end": 143.8272727272727,
            "velocity": 77,
            "duration": 0.04999999999998295
          },
          {
            "pitch": 35,
            "start": 143.96363636363637,
            "end": 144.01363636363635,
            "velocity": 79,
            "duration": 0.04999999999998295
          },
          {
            "pitch": 42,
            "start": 143.96363636363637,
            "end": 144.01363636363635,
            "velocity": 88,
            "duration": 0.04999999999998295
          },
          {
            "pitch": 37,
            "start": 144.15,
            "end": 144.2,
            "velocity": 73,
            "duration": 0.04999999999998295
          },
          {
            "pitch": 35,
            "start": 144.52045454545453,
            "end": 144.57045454545454,
            "velocity": 92,
            "duration": 0.05000000000001137
          },
          {
            "pitch": 42,
            "start": 144.52045454545453,
            "end": 144.57045454545454,
            "velocity": 67,
            "duration": 0.05000000000001137
          },
          {
            "pitch": 51,
            "start": 144.52045454545453,
            "end": 144.57045454545454,
            "velocity": 73,
            "duration": 0.05000000000001137
          },
          {
            "pitch": 51,
            "start": 145.26363636363635,
            "end": 145.31363636363636,
            "velocity": 83,
            "duration": 0.05000000000001137
          },
          {
            "pitch": 35,
            "start": 145.45,
            "end": 145.5,
            "velocity": 89,
            "duration": 0.05000000000001137
          },
          {
            "pitch": 42,
            "start": 145.45,
            "end": 145.5,
            "velocity": 77,
            "duration": 0.05000000000001137
          },
          {
            "pitch": 35,
            "start": 146.00681818181818,
            "end": 146.0568181818182,
            "velocity": 106,
            "duration": 0.05000000000001137
          },
          {
            "pitch": 42,
            "start": 146.00681818181818,
            "end": 146.0568181818182,
            "velocity": 70,
            "duration": 0.05000000000001137
          },
          {
            "pitch": 51,
            "start": 146.00681818181818,
            "end": 146.0568181818182,
            "velocity": 79,
            "duration": 0.05000000000001137
          },
          {
            "pitch": 37,
            "start": 146.37954545454545,
            "end": 146.42954545454543,
            "velocity": 64,
            "duration": 0.04999999999998295
          },
          {
            "pitch": 51,
            "start": 146.75,
            "end": 146.79999999999998,
            "velocity": 73,
            "duration": 0.04999999999998295
          },
          {
            "pitch": 35,
            "start": 146.93636363636364,
            "end": 146.98636363636362,
            "velocity": 72,
            "duration": 0.04999999999998295
          },
          {
            "pitch": 35,
            "start": 147.49318181818182,
            "end": 147.5431818181818,
            "velocity": 105,
            "duration": 0.04999999999998295
          },
          {
            "pitch": 42,
            "start": 147.49318181818182,
            "end": 147.5431818181818,
            "velocity": 80,
            "duration": 0.04999999999998295
          },
          {
            "pitch": 51,
            "start": 147.49318181818182,
            "end": 147.5431818181818,
            "velocity": 74,
            "duration": 0.04999999999998295
          },
          {
            "pitch": 37,
            "start": 147.67954545454543,
            "end": 147.72954545454544,
            "velocity": 69,
            "duration": 0.05000000000001137
          },
          {
            "pitch": 37,
            "start": 148.23636363636362,
            "end": 148.28636363636363,
            "velocity": 64,
            "duration": 0.05000000000001137
          },
          {
            "pitch": 35,
            "start": 148.97954545454544,
            "end": 149.02954545454546,
            "velocity": 96,
            "duration": 0.05000000000001137
          },
          {
            "pitch": 42,
            "start": 148.97954545454544,
            "end": 149.02954545454546,
            "velocity": 77,
            "duration": 0.05000000000001137
          },
          {
            "pitch": 51,
            "start": 148.97954545454544,
            "end": 149.02954545454546,
            "velocity": 86,
            "duration": 0.05000000000001137
          },
          {
            "pitch": 35,
            "start": 149.53636363636363,
            "end": 149.58636363636364,
            "velocity": 82,
            "duration": 0.05000000000001137
          },
          {
            "pitch": 51,
            "start": 149.53636363636363,
            "end": 149.58636363636364,
            "velocity": 84,
            "duration": 0.05000000000001137
          },
          {
            "pitch": 51,
            "start": 150.27954545454546,
            "end": 150.32954545454544,
            "velocity": 75,
            "duration": 0.04999999999998295
          },
          {
            "pitch": 35,
            "start": 150.4659090909091,
            "end": 150.51590909090908,
            "velocity": 71,
            "duration": 0.04999999999998295
          },
          {
            "pitch": 42,
            "start": 150.4659090909091,
            "end": 150.51590909090908,
            "velocity": 65,
            "duration": 0.04999999999998295
          },
          {
            "pitch": 37,
            "start": 150.83636363636364,
            "end": 150.88636363636363,
            "velocity": 64,
            "duration": 0.04999999999998295
          },
          {
            "pitch": 35,
            "start": 151.02272727272725,
            "end": 151.07272727272726,
            "velocity": 87,
            "duration": 0.05000000000001137
          },
          {
            "pitch": 51,
            "start": 151.02272727272725,
            "end": 151.07272727272726,
            "velocity": 83,
            "duration": 0.05000000000001137
          },
          {
            "pitch": 51,
            "start": 151.76590909090908,
            "end": 151.8159090909091,
            "velocity": 77,
            "duration": 0.05000000000001137
          },
          {
            "pitch": 35,
            "start": 151.9522727272727,
            "end": 152.00227272727273,
            "velocity": 75,
            "duration": 0.05000000000001137
          },
          {
            "pitch": 42,
            "start": 151.9522727272727,
            "end": 152.00227272727273,
            "velocity": 71,
            "duration": 0.05000000000001137
          },
          {
            "pitch": 37,
            "start": 152.13636363636363,
            "end": 152.18636363636364,
            "velocity": 71,
            "duration": 0.05000000000001137
          },
          {
            "pitch": 35,
            "start": 152.5090909090909,
            "end": 152.5590909090909,
            "velocity": 103,
            "duration": 0.05000000000001137
          },
          {
            "pitch": 42,
            "start": 152.5090909090909,
            "end": 152.5590909090909,
            "velocity": 82,
            "duration": 0.05000000000001137
          },
          {
            "pitch": 51,
            "start": 152.5090909090909,
            "end": 152.5590909090909,
            "velocity": 78,
            "duration": 0.05000000000001137
          },
          {
            "pitch": 51,
            "start": 153.25227272727273,
            "end": 153.3022727272727,
            "velocity": 80,
            "duration": 0.04999999999998295
          },
          {
            "pitch": 35,
            "start": 153.43636363636364,
            "end": 153.48636363636362,
            "velocity": 66,
            "duration": 0.04999999999998295
          },
          {
            "pitch": 37,
            "start": 153.8090909090909,
            "end": 153.8590909090909,
            "velocity": 79,
            "duration": 0.04999999999998295
          },
          {
            "pitch": 35,
            "start": 153.99545454545455,
            "end": 154.04545454545453,
            "velocity": 102,
            "duration": 0.04999999999998295
          },
          {
            "pitch": 42,
            "start": 153.99545454545455,
            "end": 154.04545454545453,
            "velocity": 98,
            "duration": 0.04999999999998295
          },
          {
            "pitch": 51,
            "start": 153.99545454545455,
            "end": 154.04545454545453,
            "velocity": 86,
            "duration": 0.04999999999998295
          },
          {
            "pitch": 37,
            "start": 154.73863636363635,
            "end": 154.78863636363636,
            "velocity": 75,
            "duration": 0.05000000000001137
          },
          {
            "pitch": 51,
            "start": 155.29545454545453,
            "end": 155.34545454545454,
            "velocity": 72,
            "duration": 0.05000000000001137
          },
          {
            "pitch": 35,
            "start": 155.48181818181817,
            "end": 155.53181818181818,
            "velocity": 84,
            "duration": 0.05000000000001137
          },
          {
            "pitch": 37,
            "start": 155.66590909090908,
            "end": 155.7159090909091,
            "velocity": 88,
            "duration": 0.05000000000001137
          },
          {
            "pitch": 51,
            "start": 155.85227272727272,
            "end": 155.90227272727273,
            "velocity": 82,
            "duration": 0.05000000000001137
          },
          {
            "pitch": 51,
            "start": 156.22272727272727,
            "end": 156.27272727272725,
            "velocity": 66,
            "duration": 0.04999999999998295
          },
          {
            "pitch": 37,
            "start": 156.4090909090909,
            "end": 156.4590909090909,
            "velocity": 74,
            "duration": 0.04999999999998295
          },
          {
            "pitch": 51,
            "start": 156.78181818181818,
            "end": 156.83181818181816,
            "velocity": 63,
            "duration": 0.04999999999998295
          },
          {
            "pitch": 37,
            "start": 157.15227272727273,
            "end": 157.2022727272727,
            "velocity": 94,
            "duration": 0.04999999999998295
          },
          {
            "pitch": 51,
            "start": 158.2681818181818,
            "end": 158.3181818181818,
            "velocity": 86,
            "duration": 0.05000000000001137
          },
          {
            "pitch": 51,
            "start": 159.01136363636363,
            "end": 159.06136363636364,
            "velocity": 76,
            "duration": 0.05000000000001137
          },
          {
            "pitch": 51,
            "start": 159.38181818181818,
            "end": 159.4318181818182,
            "velocity": 71,
            "duration": 0.05000000000001137
          },
          {
            "pitch": 35,
            "start": 159.93863636363636,
            "end": 159.98863636363635,
            "velocity": 72,
            "duration": 0.04999999999998295
          },
          {
            "pitch": 37,
            "start": 160.125,
            "end": 160.17499999999998,
            "velocity": 67,
            "duration": 0.04999999999998295
          },
          {
            "pitch": 51,
            "start": 160.31136363636364,
            "end": 160.36136363636362,
            "velocity": 70,
            "duration": 0.04999999999998295
          },
          {
            "pitch": 42,
            "start": 160.49545454545455,
            "end": 160.54545454545453,
            "velocity": 66,
            "duration": 0.04999999999998295
          },
          {
            "pitch": 51,
            "start": 161.23863636363635,
            "end": 161.28863636363636,
            "velocity": 82,
            "duration": 0.05000000000001137
          },
          {
            "pitch": 35,
            "start": 161.98181818181817,
            "end": 162.03181818181818,
            "velocity": 94,
            "duration": 0.05000000000001137
          },
          {
            "pitch": 51,
            "start": 161.98181818181817,
            "end": 162.03181818181818,
            "velocity": 75,
            "duration": 0.05000000000001137
          },
          {
            "pitch": 37,
            "start": 162.1681818181818,
            "end": 162.21818181818182,
            "velocity": 95,
            "duration": 0.05000000000001137
          },
          {
            "pitch": 37,
            "start": 162.53863636363636,
            "end": 162.58863636363637,
            "velocity": 70,
            "duration": 0.05000000000001137
          },
          {
            "pitch": 37,
            "start": 163.28181818181818,
            "end": 163.33181818181816,
            "velocity": 78,
            "duration": 0.04999999999998295
          },
          {
            "pitch": 37,
            "start": 163.65454545454546,
            "end": 163.70454545454544,
            "velocity": 68,
            "duration": 0.04999999999998295
          },
          {
            "pitch": 51,
            "start": 164.025,
            "end": 164.075,
            "velocity": 70,
            "duration": 0.04999999999998295
          },
          {
            "pitch": 37,
            "start": 164.39772727272725,
            "end": 164.44772727272726,
            "velocity": 65,
            "duration": 0.05000000000001137
          },
          {
            "pitch": 35,
            "start": 164.95454545454544,
            "end": 165.00454545454545,
            "velocity": 80,
            "duration": 0.05000000000001137
          },
          {
            "pitch": 37,
            "start": 165.14090909090908,
            "end": 165.1909090909091,
            "velocity": 83,
            "duration": 0.05000000000001137
          },
          {
            "pitch": 37,
            "start": 165.8840909090909,
            "end": 165.9340909090909,
            "velocity": 70,
            "duration": 0.05000000000001137
          },
          {
            "pitch": 51,
            "start": 166.25454545454545,
            "end": 166.30454545454543,
            "velocity": 71,
            "duration": 0.04999999999998295
          },
          {
            "pitch": 37,
            "start": 166.81136363636364,
            "end": 166.86136363636362,
            "velocity": 65,
            "duration": 0.04999999999998295
          },
          {
            "pitch": 35,
            "start": 166.99772727272727,
            "end": 167.04772727272726,
            "velocity": 93,
            "duration": 0.04999999999998295
          },
          {
            "pitch": 51,
            "start": 166.99772727272727,
            "end": 167.04772727272726,
            "velocity": 76,
            "duration": 0.04999999999998295
          },
          {
            "pitch": 37,
            "start": 167.1840909090909,
            "end": 167.2340909090909,
            "velocity": 67,
            "duration": 0.04999999999998295
          },
          {
            "pitch": 35,
            "start": 167.9272727272727,
            "end": 167.97727272727272,
            "velocity": 70,
            "duration": 0.05000000000001137
          },
          {
            "pitch": 37,
            "start": 168.11136363636362,
            "end": 168.16136363636363,
            "velocity": 65,
            "duration": 0.05000000000001137
          },
          {
            "pitch": 45,
            "start": 168.67045454545453,
            "end": 168.72045454545454,
            "velocity": 63,
            "duration": 0.05000000000001137
          },
          {
            "pitch": 35,
            "start": 169.97045454545454,
            "end": 170.02045454545453,
            "velocity": 78,
            "duration": 0.04999999999998295
          },
          {
            "pitch": 37,
            "start": 170.15681818181818,
            "end": 170.20681818181816,
            "velocity": 87,
            "duration": 0.04999999999998295
          },
          {
            "pitch": 37,
            "start": 170.71363636363637,
            "end": 170.76363636363635,
            "velocity": 71,
            "duration": 0.04999999999998295
          },
          {
            "pitch": 37,
            "start": 171.64090909090908,
            "end": 171.6909090909091,
            "velocity": 75,
            "duration": 0.05000000000001137
          }
        ],
        "melodic_notes": [],
        "instruments": [
          {
            "program": "0",
            "is_drum": true,
            "name": "",
            "note_count": 694
          }
        ],
        "duration": 171.6909090909091,
        "tempo_changes": 0
      },
      {
        "file_path": "/home/matt/Documents/drum-tranxn/drum-transcription-api/test_audio/32 Soft Pink Glow_transcribed.mid",
        "total_notes": 694,
        "drum_notes": [
          {
            "pitch": 35,
            "start": 0.07045454545454545,
            "end": 0.17045454545454544,
            "velocity": 126,
            "duration": 0.09999999999999999
          },
          {
            "pitch": 35,
            "start": 0.16363636363636364,
            "end": 0.17045454545454544,
            "velocity": 100,
            "duration": 0.006818181818181807
          },
          {
            "pitch": 51,
            "start": 0.07045454545454545,
            "end": 0.17045454545454544,
            "velocity": 109,
            "duration": 0.09999999999999999
          },
          {
            "pitch": 51,
            "start": 0.16363636363636364,
            "end": 0.17045454545454544,
            "velocity": 112,
            "duration": 0.006818181818181807
          },
          {
            "pitch": 42,
            "start": 0.09318181818181817,
            "end": 0.19318181818181818,
            "velocity": 104,
            "duration": 0.1
          },
          {
            "pitch": 42,
            "start": 0.18636363636363634,
            "end": 0.19318181818181818,
            "velocity": 70,
            "duration": 0.006818181818181834
          },
          {
            "pitch": 45,
            "start": 0.09318181818181817,
            "end": 0.19318181818181818,
            "velocity": 64,
            "duration": 0.1
          },
          {
            "pitch": 35,
            "start": 0.2545454545454545,
            "end": 0.2636363636363636,
            "velocity": 120,
            "duration": 0.009090909090909094
          },
          {
            "pitch": 51,
            "start": 0.2545454545454545,
            "end": 0.2636363636363636,
            "velocity": 113,
            "duration": 0.009090909090909094
          },
          {
            "pitch": 41,
            "start": 0.18636363636363634,
            "end": 0.2863636363636364,
            "velocity": 75,
            "duration": 0.10000000000000003
          },
          {
            "pitch": 41,
            "start": 0.2545454545454545,
            "end": 0.2863636363636364,
            "velocity": 79,
            "duration": 0.03181818181818186
          },
          {
            "pitch": 42,
            "start": 0.2545454545454545,
            "end": 0.2863636363636364,
            "velocity": 106,
            "duration": 0.03181818181818186
          },
          {
            "pitch": 51,
            "start": 0.3477272727272727,
            "end": 0.35454545454545455,
            "velocity": 114,
            "duration": 0.006818181818181834
          },
          {
            "pitch": 51,
            "start": 0.44090909090909086,
            "end": 0.4477272727272727,
            "velocity": 88,
            "duration": 0.006818181818181834
          },
          {
            "pitch": 35,
            "start": 0.3704545454545454,
            "end": 0.47045454545454546,
            "velocity": 102,
            "duration": 0.10000000000000003
          },
          {
            "pitch": 35,
            "start": 0.44090909090909086,
            "end": 0.47045454545454546,
            "velocity": 106,
            "duration": 0.029545454545454597
          },
          {
            "pitch": 41,
            "start": 0.3704545454545454,
            "end": 0.47045454545454546,
            "velocity": 81,
            "duration": 0.10000000000000003
          },
          {
            "pitch": 41,
            "start": 0.44090909090909086,
            "end": 0.47045454545454546,
            "velocity": 75,
            "duration": 0.029545454545454597
          },
          {
            "pitch": 42,
            "start": 0.3704545454545454,
            "end": 0.47045454545454546,
            "velocity": 78,
            "duration": 0.10000000000000003
          },
          {
            "pitch": 45,
            "start": 0.3704545454545454,
            "end": 0.47045454545454546,
            "velocity": 63,
            "duration": 0.10000000000000003
          },
          {
            "pitch": 35,
            "start": 0.5113636363636364,
            "end": 0.5409090909090909,
            "velocity": 123,
            "duration": 0.02954545454545454
          },
          {
            "pitch": 41,
            "start": 0.5340909090909091,
            "end": 0.5409090909090909,
            "velocity": 67,
            "duration": 0.006818181818181834
          },
          {
            "pitch": 51,
            "start": 0.5340909090909091,
            "end": 0.5409090909090909,
            "velocity": 111,
            "duration": 0.006818181818181834
          },
          {
            "pitch": 37,
            "start": 0.4636363636363636,
            "end": 0.5636363636363636,
            "velocity": 78,
            "duration": 0.09999999999999998
          },
          {
            "pitch": 51,
            "start": 0.6272727272727272,
            "end": 0.634090909090909,
            "velocity": 103,
            "duration": 0.006818181818181834
          },
          {
            "pitch": 42,
            "start": 0.5568181818181818,
            "end": 0.6568181818181817,
            "velocity": 80,
            "duration": 0.09999999999999998
          },
          {
            "pitch": 42,
            "start": 0.6272727272727272,
            "end": 0.6568181818181817,
            "velocity": 118,
            "duration": 0.02954545454545454
          },
          {
            "pitch": 35,
            "start": 0.6272727272727272,
            "end": 0.7272727272727273,
            "velocity": 112,
            "duration": 0.10000000000000009
          },
          {
            "pitch": 35,
            "start": 0.6977272727272726,
            "end": 0.7272727272727273,
            "velocity": 88,
            "duration": 0.029545454545454652
          },
          {
            "pitch": 45,
            "start": 0.6272727272727272,
            "end": 0.7272727272727273,
            "velocity": 71,
            "duration": 0.10000000000000009
          },
          {
            "pitch": 51,
            "start": 0.7204545454545455,
            "end": 0.7272727272727273,
            "velocity": 113,
            "duration": 0.006818181818181834
          },
          {
            "pitch": 41,
            "start": 0.65,
            "end": 0.75,
            "velocity": 103,
            "duration": 0.09999999999999998
          },
          {
            "pitch": 41,
            "start": 0.7204545454545455,
            "end": 0.75,
            "velocity": 75,
            "duration": 0.02954545454545454
          },
          {
            "pitch": 51,
            "start": 0.7886363636363636,
            "end": 0.8204545454545454,
            "velocity": 110,
            "duration": 0.03181818181818186
          },
          {
            "pitch": 35,
            "start": 0.8136363636363636,
            "end": 0.9136363636363636,
            "velocity": 121,
            "duration": 0.09999999999999998
          },
          {
            "pitch": 35,
            "start": 0.8818181818181817,
            "end": 0.9136363636363636,
            "velocity": 121,
            "duration": 0.03181818181818186
          },
          {
            "pitch": 42,
            "start": 0.8136363636363636,
            "end": 0.9136363636363636,
            "velocity": 113,
            "duration": 0.09999999999999998
          },
          {
            "pitch": 35,
            "start": 0.9522727272727273,
            "end": 0.9818181818181818,
            "velocity": 89,
            "duration": 0.02954545454545454
          },
          {
            "pitch": 51,
            "start": 0.9045454545454545,
            "end": 1.0045454545454544,
            "velocity": 84,
            "duration": 0.09999999999999987
          },
          {
            "pitch": 51,
            "start": 0.975,
            "end": 1.0045454545454544,
            "velocity": 101,
            "duration": 0.02954545454545443
          },
          {
            "pitch": 42,
            "start": 0.975,
            "end": 1.075,
            "velocity": 85,
            "duration": 0.09999999999999998
          },
          {
            "pitch": 42,
            "start": 1.0681818181818181,
            "end": 1.075,
            "velocity": 91,
            "duration": 0.006818181818181834
          },
          {
            "pitch": 51,
            "start": 1.0681818181818181,
            "end": 1.075,
            "velocity": 72,
            "duration": 0.006818181818181834
          },
          {
            "pitch": 41,
            "start": 0.9977272727272727,
            "end": 1.0977272727272727,
            "velocity": 81,
            "duration": 0.09999999999999998
          },
          {
            "pitch": 41,
            "start": 1.0681818181818181,
            "end": 1.0977272727272727,
            "velocity": 74,
            "duration": 0.02954545454545454
          },
          {
            "pitch": 35,
            "start": 1.0681818181818181,
            "end": 1.1681818181818182,
            "velocity": 89,
            "duration": 0.10000000000000009
          },
          {
            "pitch": 51,
            "start": 1.1613636363636364,
            "end": 1.1681818181818182,
            "velocity": 94,
            "duration": 0.006818181818181834
          },
          {
            "pitch": 51,
            "start": 1.2545454545454544,
            "end": 1.2613636363636362,
            "velocity": 105,
            "duration": 0.006818181818181834
          },
          {
            "pitch": 42,
            "start": 1.184090909090909,
            "end": 1.284090909090909,
            "velocity": 73,
            "duration": 0.09999999999999987
          },
          {
            "pitch": 42,
            "start": 1.2545454545454544,
            "end": 1.284090909090909,
            "velocity": 70,
            "duration": 0.02954545454545454
          },
          {
            "pitch": 35,
            "start": 1.2545454545454544,
            "end": 1.3545454545454545,
            "velocity": 122,
            "duration": 0.10000000000000009
          },
          {
            "pitch": 51,
            "start": 1.3477272727272727,
            "end": 1.3545454545454545,
            "velocity": 89,
            "duration": 0.006818181818181834
          },
          {
            "pitch": 51,
            "start": 1.4386363636363635,
            "end": 1.4477272727272728,
            "velocity": 85,
            "duration": 0.00909090909090926
          },
          {
            "pitch": 37,
            "start": 1.393181818181818,
            "end": 1.4931818181818182,
            "velocity": 113,
            "duration": 0.10000000000000009
          },
          {
            "pitch": 37,
            "start": 1.4863636363636363,
            "end": 1.4931818181818182,
            "velocity": 70,
            "duration": 0.006818181818181834
          },
          {
            "pitch": 41,
            "start": 1.4159090909090908,
            "end": 1.5159090909090909,
            "velocity": 77,
            "duration": 0.10000000000000009
          },
          {
            "pitch": 35,
            "start": 1.4386363636363635,
            "end": 1.5386363636363636,
            "velocity": 122,
            "duration": 0.10000000000000009
          },
          {
            "pitch": 35,
            "start": 1.509090909090909,
            "end": 1.5386363636363636,
            "velocity": 115,
            "duration": 0.02954545454545454
          },
          {
            "pitch": 42,
            "start": 1.4386363636363635,
            "end": 1.5386363636363636,
            "velocity": 89,
            "duration": 0.10000000000000009
          },
          {
            "pitch": 51,
            "start": 1.5318181818181817,
            "end": 1.5386363636363636,
            "velocity": 91,
            "duration": 0.006818181818181834
          },
          {
            "pitch": 51,
            "start": 1.625,
            "end": 1.6318181818181818,
            "velocity": 108,
            "duration": 0.006818181818181834
          },
          {
            "pitch": 42,
            "start": 1.5568181818181817,
            "end": 1.6568181818181817,
            "velocity": 92,
            "duration": 0.10000000000000009
          },
          {
            "pitch": 42,
            "start": 1.625,
            "end": 1.6568181818181817,
            "velocity": 96,
            "duration": 0.031818181818181746
          },
          {
            "pitch": 45,
            "start": 1.5795454545454544,
            "end": 1.6795454545454545,
            "velocity": 97,
            "duration": 0.10000000000000009
          },
          {
            "pitch": 35,
            "start": 1.625,
            "end": 1.7249999999999999,
            "velocity": 121,
            "duration": 0.09999999999999987
          },
          {
            "pitch": 35,
            "start": 1.6954545454545453,
            "end": 1.7249999999999999,
            "velocity": 72,
            "duration": 0.02954545454545454
          },
          {
            "pitch": 41,
            "start": 1.625,
            "end": 1.7249999999999999,
            "velocity": 71,
            "duration": 0.09999999999999987
          },
          {
            "pitch": 41,
            "start": 1.718181818181818,
            "end": 1.7249999999999999,
            "velocity": 95,
            "duration": 0.006818181818181834
          },
          {
            "pitch": 42,
            "start": 1.6954545454545453,
            "end": 1.7249999999999999,
            "velocity": 81,
            "duration": 0.02954545454545454
          },
          {
            "pitch": 51,
            "start": 1.6954545454545453,
            "end": 1.7249999999999999,
            "velocity": 70,
            "duration": 0.02954545454545454
          },
          {
            "pitch": 51,
            "start": 1.7886363636363636,
            "end": 1.7954545454545454,
            "velocity": 105,
            "duration": 0.006818181818181834
          },
          {
            "pitch": 51,
            "start": 1.8818181818181818,
            "end": 1.8886363636363634,
            "velocity": 104,
            "duration": 0.006818181818181612
          },
          {
            "pitch": 35,
            "start": 1.8113636363636363,
            "end": 1.9113636363636364,
            "velocity": 119,
            "duration": 0.10000000000000009
          },
          {
            "pitch": 35,
            "start": 1.8818181818181818,
            "end": 1.9113636363636364,
            "velocity": 121,
            "duration": 0.02954545454545454
          },
          {
            "pitch": 42,
            "start": 1.8113636363636363,
            "end": 1.9113636363636364,
            "velocity": 102,
            "duration": 0.10000000000000009
          },
          {
            "pitch": 42,
            "start": 1.9045454545454545,
            "end": 1.9113636363636364,
            "velocity": 95,
            "duration": 0.006818181818181834
          },
          {
            "pitch": 37,
            "start": 1.834090909090909,
            "end": 1.934090909090909,
            "velocity": 89,
            "duration": 0.10000000000000009
          },
          {
            "pitch": 35,
            "start": 1.9727272727272727,
            "end": 1.9818181818181817,
            "velocity": 96,
            "duration": 0.009090909090909038
          },
          {
            "pitch": 51,
            "start": 1.9727272727272727,
            "end": 1.9818181818181817,
            "velocity": 83,
            "duration": 0.009090909090909038
          },
          {
            "pitch": 42,
            "start": 1.9977272727272726,
            "end": 2.0045454545454544,
            "velocity": 78,
            "duration": 0.006818181818181834
          },
          {
            "pitch": 35,
            "start": 2.065909090909091,
            "end": 2.0727272727272728,
            "velocity": 85,
            "duration": 0.006818181818181834
          },
          {
            "pitch": 51,
            "start": 2.065909090909091,
            "end": 2.0727272727272728,
            "velocity": 75,
            "duration": 0.006818181818181834
          },
          {
            "pitch": 37,
            "start": 2.0204545454545455,
            "end": 2.120454545454545,
            "velocity": 80,
            "duration": 0.09999999999999964
          },
          {
            "pitch": 35,
            "start": 2.1363636363636362,
            "end": 2.165909090909091,
            "velocity": 89,
            "duration": 0.029545454545454763
          },
          {
            "pitch": 51,
            "start": 2.159090909090909,
            "end": 2.165909090909091,
            "velocity": 88,
            "duration": 0.006818181818181834
          },
          {
            "pitch": 41,
            "start": 2.159090909090909,
            "end": 2.259090909090909,
            "velocity": 90,
            "duration": 0.09999999999999964
          },
          {
            "pitch": 41,
            "start": 2.252272727272727,
            "end": 2.259090909090909,
            "velocity": 87,
            "duration": 0.006818181818181834
          },
          {
            "pitch": 51,
            "start": 2.252272727272727,
            "end": 2.259090909090909,
            "velocity": 93,
            "duration": 0.006818181818181834
          },
          {
            "pitch": 42,
            "start": 2.1818181818181817,
            "end": 2.2818181818181817,
            "velocity": 80,
            "duration": 0.10000000000000009
          },
          {
            "pitch": 42,
            "start": 2.252272727272727,
            "end": 2.2818181818181817,
            "velocity": 79,
            "duration": 0.029545454545454763
          },
          {
            "pitch": 35,
            "start": 2.252272727272727,
            "end": 2.352272727272727,
            "velocity": 111,
            "duration": 0.10000000000000009
          },
          {
            "pitch": 51,
            "start": 2.3454545454545452,
            "end": 2.352272727272727,
            "velocity": 94,
            "duration": 0.006818181818181834
          },
          {
            "pitch": 37,
            "start": 2.275,
            "end": 2.375,
            "velocity": 80,
            "duration": 0.10000000000000009
          },
          {
            "pitch": 37,
            "start": 2.3454545454545452,
            "end": 2.375,
            "velocity": 73,
            "duration": 0.029545454545454763
          },
          {
            "pitch": 37,
            "start": 2.3909090909090907,
            "end": 2.4454545454545453,
            "velocity": 99,
            "duration": 0.054545454545454675
          },
          {
            "pitch": 51,
            "start": 2.4386363636363635,
            "end": 2.4454545454545453,
            "velocity": 96,
            "duration": 0.006818181818181834
          },
          {
            "pitch": 35,
            "start": 2.368181818181818,
            "end": 2.4681818181818183,
            "velocity": 82,
            "duration": 0.10000000000000009
          },
          {
            "pitch": 35,
            "start": 2.4386363636363635,
            "end": 2.4681818181818183,
            "velocity": 118,
            "duration": 0.029545454545454763
          },
          {
            "pitch": 42,
            "start": 2.368181818181818,
            "end": 2.4681818181818183,
            "velocity": 116,
            "duration": 0.10000000000000009
          },
          {
            "pitch": 42,
            "start": 2.4386363636363635,
            "end": 2.4681818181818183,
            "velocity": 83,
            "duration": 0.029545454545454763
          },
          {
            "pitch": 37,
            "start": 2.484090909090909,
            "end": 2.4909090909090907,
            "velocity": 74,
            "duration": 0.006818181818181834
          },
          {
            "pitch": 35,
            "start": 2.506818181818182,
            "end": 2.5386363636363636,
            "velocity": 109,
            "duration": 0.031818181818181746
          },
          {
            "pitch": 51,
            "start": 2.506818181818182,
            "end": 2.5386363636363636,
            "velocity": 88,
            "duration": 0.031818181818181746
          },
          {
            "pitch": 35,
            "start": 2.6227272727272726,
            "end": 2.7227272727272727,
            "velocity": 100,
            "duration": 0.10000000000000009
          },
          {
            "pitch": 35,
            "start": 2.693181818181818,
            "end": 2.7227272727272727,
            "velocity": 73,
            "duration": 0.029545454545454763
          },
          {
            "pitch": 42,
            "start": 2.6227272727272726,
            "end": 2.7227272727272727,
            "velocity": 107,
            "duration": 0.10000000000000009
          },
          {
            "pitch": 42,
            "start": 2.693181818181818,
            "end": 2.7227272727272727,
            "velocity": 100,
            "duration": 0.029545454545454763
          },
          {
            "pitch": 51,
            "start": 2.6227272727272726,
            "end": 2.7227272727272727,
            "velocity": 96,
            "duration": 0.10000000000000009
          },
          {
            "pitch": 51,
            "start": 2.693181818181818,
            "end": 2.7227272727272727,
            "velocity": 81,
            "duration": 0.029545454545454763
          },
          {
            "pitch": 41,
            "start": 2.6477272727272725,
            "end": 2.7477272727272726,
            "velocity": 89,
            "duration": 0.10000000000000009
          },
          {
            "pitch": 35,
            "start": 2.786363636363636,
            "end": 2.793181818181818,
            "velocity": 121,
            "duration": 0.006818181818181834
          },
          {
            "pitch": 51,
            "start": 2.786363636363636,
            "end": 2.793181818181818,
            "velocity": 111,
            "duration": 0.006818181818181834
          },
          {
            "pitch": 35,
            "start": 2.8795454545454544,
            "end": 2.8863636363636362,
            "velocity": 115,
            "duration": 0.006818181818181834
          },
          {
            "pitch": 51,
            "start": 2.8795454545454544,
            "end": 2.8863636363636362,
            "velocity": 70,
            "duration": 0.006818181818181834
          },
          {
            "pitch": 42,
            "start": 2.809090909090909,
            "end": 2.909090909090909,
            "velocity": 104,
            "duration": 0.10000000000000009
          },
          {
            "pitch": 42,
            "start": 2.8795454545454544,
            "end": 2.909090909090909,
            "velocity": 89,
            "duration": 0.029545454545454763
          },
          {
            "pitch": 35,
            "start": 2.9499999999999997,
            "end": 2.9795454545454545,
            "velocity": 74,
            "duration": 0.029545454545454763
          },
          {
            "pitch": 51,
            "start": 2.9727272727272727,
            "end": 2.9795454545454545,
            "velocity": 70,
            "duration": 0.006818181818181834
          },
          {
            "pitch": 37,
            "start": 2.925,
            "end": 3.025,
            "velocity": 101,
            "duration": 0.10000000000000009
          },
          {
            "pitch": 37,
            "start": 2.9727272727272727,
            "end": 3.025,
            "velocity": 94,
            "duration": 0.05227272727272725
          },
          {
            "pitch": 51,
            "start": 3.065909090909091,
            "end": 3.0727272727272728,
            "velocity": 70,
            "duration": 0.006818181818181834
          },
          {
            "pitch": 42,
            "start": 2.995454545454545,
            "end": 3.0954545454545452,
            "velocity": 69,
            "duration": 0.10000000000000009
          },
          {
            "pitch": 42,
            "start": 3.065909090909091,
            "end": 3.0954545454545452,
            "velocity": 84,
            "duration": 0.02954545454545432
          },
          {
            "pitch": 41,
            "start": 3.0409090909090906,
            "end": 3.1409090909090907,
            "velocity": 87,
            "duration": 0.10000000000000009
          },
          {
            "pitch": 41,
            "start": 3.1113636363636363,
            "end": 3.1409090909090907,
            "velocity": 91,
            "duration": 0.02954545454545432
          },
          {
            "pitch": 35,
            "start": 3.065909090909091,
            "end": 3.1659090909090906,
            "velocity": 95,
            "duration": 0.09999999999999964
          },
          {
            "pitch": 42,
            "start": 3.1818181818181817,
            "end": 3.2818181818181817,
            "velocity": 80,
            "duration": 0.10000000000000009
          },
          {
            "pitch": 42,
            "start": 3.25,
            "end": 3.2818181818181817,
            "velocity": 105,
            "duration": 0.031818181818181746
          },
          {
            "pitch": 51,
            "start": 3.1818181818181817,
            "end": 3.2818181818181817,
            "velocity": 63,
            "duration": 0.10000000000000009
          },
          {
            "pitch": 51,
            "start": 3.25,
            "end": 3.2818181818181817,
            "velocity": 91,
            "duration": 0.031818181818181746
          },
          {
            "pitch": 37,
            "start": 3.227272727272727,
            "end": 3.327272727272727,
            "velocity": 64,
            "duration": 0.10000000000000009
          },
          {
            "pitch": 37,
            "start": 3.275,
            "end": 3.327272727272727,
            "velocity": 63,
            "duration": 0.05227272727272725
          },
          {
            "pitch": 35,
            "start": 3.25,
            "end": 3.3499999999999996,
            "velocity": 119,
            "duration": 0.09999999999999964
          },
          {
            "pitch": 35,
            "start": 3.3204545454545453,
            "end": 3.3499999999999996,
            "velocity": 81,
            "duration": 0.02954545454545432
          },
          {
            "pitch": 51,
            "start": 3.3204545454545453,
            "end": 3.3499999999999996,
            "velocity": 72,
            "duration": 0.02954545454545432
          },
          {
            "pitch": 35,
            "start": 3.436363636363636,
            "end": 3.536363636363636,
            "velocity": 121,
            "duration": 0.10000000000000009
          },
          {
            "pitch": 35,
            "start": 3.506818181818182,
            "end": 3.536363636363636,
            "velocity": 107,
            "duration": 0.02954545454545432
          },
          {
            "pitch": 42,
            "start": 3.436363636363636,
            "end": 3.536363636363636,
            "velocity": 105,
            "duration": 0.10000000000000009
          },
          {
            "pitch": 51,
            "start": 3.436363636363636,
            "end": 3.536363636363636,
            "velocity": 92,
            "duration": 0.10000000000000009
          },
          {
            "pitch": 51,
            "start": 3.506818181818182,
            "end": 3.536363636363636,
            "velocity": 93,
            "duration": 0.02954545454545432
          },
          {
            "pitch": 37,
            "start": 3.459090909090909,
            "end": 3.559090909090909,
            "velocity": 71,
            "duration": 0.10000000000000009
          },
          {
            "pitch": 37,
            "start": 3.5522727272727272,
            "end": 3.559090909090909,
            "velocity": 92,
            "duration": 0.006818181818181834
          },
          {
            "pitch": 51,
            "start": 3.5999999999999996,
            "end": 3.6068181818181815,
            "velocity": 98,
            "duration": 0.006818181818181834
          },
          {
            "pitch": 51,
            "start": 3.690909090909091,
            "end": 3.6999999999999997,
            "velocity": 85,
            "duration": 0.009090909090908816
          },
          {
            "pitch": 35,
            "start": 3.6227272727272726,
            "end": 3.7227272727272727,
            "velocity": 96,
            "duration": 0.10000000000000009
          },
          {
            "pitch": 35,
            "start": 3.690909090909091,
            "end": 3.7227272727272727,
            "velocity": 78,
            "duration": 0.031818181818181746
          },
          {
            "pitch": 42,
            "start": 3.6227272727272726,
            "end": 3.7227272727272727,
            "velocity": 100,
            "duration": 0.10000000000000009
          },
          {
            "pitch": 42,
            "start": 3.690909090909091,
            "end": 3.7227272727272727,
            "velocity": 97,
            "duration": 0.031818181818181746
          },
          {
            "pitch": 35,
            "start": 3.7613636363636362,
            "end": 3.7909090909090906,
            "velocity": 82,
            "duration": 0.02954545454545432
          },
          {
            "pitch": 51,
            "start": 3.7840909090909087,
            "end": 3.7909090909090906,
            "velocity": 91,
            "duration": 0.006818181818181834
          },
          {
            "pitch": 41,
            "start": 3.715909090909091,
            "end": 3.815909090909091,
            "velocity": 68,
            "duration": 0.10000000000000009
          },
          {
            "pitch": 51,
            "start": 3.877272727272727,
            "end": 3.884090909090909,
            "velocity": 101,
            "duration": 0.006818181818181834
          },
          {
            "pitch": 42,
            "start": 3.809090909090909,
            "end": 3.9090909090909087,
            "velocity": 91,
            "duration": 0.09999999999999964
          },
          {
            "pitch": 42,
            "start": 3.877272727272727,
            "end": 3.9090909090909087,
            "velocity": 85,
            "duration": 0.031818181818181746
          },
          {
            "pitch": 35,
            "start": 3.877272727272727,
            "end": 3.977272727272727,
            "velocity": 122,
            "duration": 0.10000000000000009
          },
          {
            "pitch": 35,
            "start": 3.9477272727272728,
            "end": 3.977272727272727,
            "velocity": 88,
            "duration": 0.02954545454545432
          },
          {
            "pitch": 37,
            "start": 3.877272727272727,
            "end": 3.977272727272727,
            "velocity": 87,
            "duration": 0.10000000000000009
          },
          {
            "pitch": 37,
            "start": 3.925,
            "end": 3.977272727272727,
            "velocity": 110,
            "duration": 0.05227272727272725
          },
          {
            "pitch": 37,
            "start": 3.9704545454545452,
            "end": 3.977272727272727,
            "velocity": 85,
            "duration": 0.006818181818181834
          },
          {
            "pitch": 37,
            "start": 4.018181818181818,
            "end": 4.0249999999999995,
            "velocity": 68,
            "duration": 0.006818181818181834
          },
          {
            "pitch": 42,
            "start": 3.993181818181818,
            "end": 4.093181818181818,
            "velocity": 65,
            "duration": 0.09999999999999964
          },
          {
            "pitch": 42,
            "start": 4.0636363636363635,
            "end": 4.093181818181818,
            "velocity": 105,
            "duration": 0.02954545454545432
          },
          {
            "pitch": 37,
            "start": 4.1090909090909085,
            "end": 4.118181818181818,
            "velocity": 93,
            "duration": 0.009090909090909705
          },
          {
            "pitch": 35,
            "start": 4.0636363636363635,
            "end": 4.163636363636363,
            "velocity": 117,
            "duration": 0.09999999999999964
          },
          {
            "pitch": 35,
            "start": 4.134090909090909,
            "end": 4.163636363636363,
            "velocity": 92,
            "duration": 0.02954545454545432
          },
          {
            "pitch": 51,
            "start": 4.0636363636363635,
            "end": 4.163636363636363,
            "velocity": 92,
            "duration": 0.09999999999999964
          },
          {
            "pitch": 51,
            "start": 4.156818181818181,
            "end": 4.163636363636363,
            "velocity": 94,
            "duration": 0.006818181818181834
          },
          {
            "pitch": 51,
            "start": 4.25,
            "end": 4.256818181818182,
            "velocity": 108,
            "duration": 0.006818181818181834
          },
          {
            "pitch": 35,
            "start": 4.25,
            "end": 4.35,
            "velocity": 124,
            "duration": 0.09999999999999964
          },
          {
            "pitch": 35,
            "start": 4.318181818181818,
            "end": 4.35,
            "velocity": 89,
            "duration": 0.0318181818181813
          },
          {
            "pitch": 42,
            "start": 4.25,
            "end": 4.35,
            "velocity": 98,
            "duration": 0.09999999999999964
          },
          {
            "pitch": 42,
            "start": 4.318181818181818,
            "end": 4.35,
            "velocity": 67,
            "duration": 0.0318181818181813
          },
          {
            "pitch": 51,
            "start": 4.343181818181818,
            "end": 4.35,
            "velocity": 90,
            "duration": 0.006818181818181834
          },
          {
            "pitch": 51,
            "start": 4.411363636363636,
            "end": 4.443181818181818,
            "velocity": 78,
            "duration": 0.03181818181818219
          },
          {
            "pitch": 51,
            "start": 4.504545454545454,
            "end": 4.511363636363636,
            "velocity": 102,
            "duration": 0.006818181818181834
          },
          {
            "pitch": 35,
            "start": 4.434090909090909,
            "end": 4.534090909090909,
            "velocity": 106,
            "duration": 0.10000000000000053
          },
          {
            "pitch": 35,
            "start": 4.504545454545454,
            "end": 4.534090909090909,
            "velocity": 117,
            "duration": 0.029545454545455208
          },
          {
            "pitch": 35,
            "start": 4.575,
            "end": 4.6045454545454545,
            "velocity": 65,
            "duration": 0.02954545454545432
          },
          {
            "pitch": 51,
            "start": 4.597727272727273,
            "end": 4.6045454545454545,
            "velocity": 76,
            "duration": 0.006818181818181834
          },
          {
            "pitch": 35,
            "start": 4.620454545454545,
            "end": 4.675,
            "velocity": 78,
            "duration": 0.054545454545454675
          },
          {
            "pitch": 51,
            "start": 4.6909090909090905,
            "end": 4.697727272727272,
            "velocity": 69,
            "duration": 0.006818181818181834
          },
          {
            "pitch": 35,
            "start": 4.6909090909090905,
            "end": 4.720454545454545,
            "velocity": 111,
            "duration": 0.02954545454545432
          },
          {
            "pitch": 42,
            "start": 4.620454545454545,
            "end": 4.720454545454545,
            "velocity": 100,
            "duration": 0.09999999999999964
          },
          {
            "pitch": 42,
            "start": 4.6909090909090905,
            "end": 4.720454545454545,
            "velocity": 89,
            "duration": 0.02954545454545432
          },
          {
            "pitch": 37,
            "start": 4.643181818181818,
            "end": 4.743181818181818,
            "velocity": 95,
            "duration": 0.10000000000000053
          },
          {
            "pitch": 37,
            "start": 4.736363636363636,
            "end": 4.743181818181818,
            "velocity": 103,
            "duration": 0.006818181818181834
          },
          {
            "pitch": 35,
            "start": 4.759090909090909,
            "end": 4.790909090909091,
            "velocity": 81,
            "duration": 0.03181818181818219
          },
          {
            "pitch": 37,
            "start": 4.852272727272727,
            "end": 4.952272727272727,
            "velocity": 101,
            "duration": 0.10000000000000053
          },
          {
            "pitch": 37,
            "start": 4.922727272727273,
            "end": 4.952272727272727,
            "velocity": 90,
            "duration": 0.02954545454545432
          },
          {
            "pitch": 35,
            "start": 4.877272727272727,
            "end": 4.977272727272727,
            "velocity": 117,
            "duration": 0.09999999999999964
          },
          {
            "pitch": 35,
            "start": 4.945454545454545,
            "end": 4.977272727272727,
            "velocity": 90,
            "duration": 0.0318181818181813
          },
          {
            "pitch": 37,
            "start": 5.015909090909091,
            "end": 5.0227272727272725,
            "velocity": 89,
            "duration": 0.006818181818181834
          },
          {
            "pitch": 42,
            "start": 4.993181818181818,
            "end": 5.093181818181818,
            "velocity": 68,
            "duration": 0.09999999999999964
          },
          {
            "pitch": 42,
            "start": 5.0613636363636365,
            "end": 5.093181818181818,
            "velocity": 111,
            "duration": 0.0318181818181813
          },
          {
            "pitch": 37,
            "start": 5.1090909090909085,
            "end": 5.11590909090909,
            "velocity": 115,
            "duration": 0.006818181818181834
          },
          {
            "pitch": 35,
            "start": 5.0613636363636365,
            "end": 5.161363636363636,
            "velocity": 118,
            "duration": 0.09999999999999964
          },
          {
            "pitch": 35,
            "start": 5.131818181818182,
            "end": 5.161363636363636,
            "velocity": 91,
            "duration": 0.02954545454545432
          },
          {
            "pitch": 51,
            "start": 5.0613636363636365,
            "end": 5.161363636363636,
            "velocity": 81,
            "duration": 0.09999999999999964
          },
          {
            "pitch": 51,
            "start": 5.131818181818182,
            "end": 5.161363636363636,
            "velocity": 79,
            "duration": 0.02954545454545432
          },
          {
            "pitch": 37,
            "start": 5.177272727272727,
            "end": 5.209090909090909,
            "velocity": 67,
            "duration": 0.03181818181818219
          },
          {
            "pitch": 51,
            "start": 5.225,
            "end": 5.2318181818181815,
            "velocity": 99,
            "duration": 0.006818181818181834
          },
          {
            "pitch": 45,
            "start": 5.154545454545454,
            "end": 5.254545454545454,
            "velocity": 70,
            "duration": 0.09999999999999964
          },
          {
            "pitch": 45,
            "start": 5.247727272727272,
            "end": 5.254545454545454,
            "velocity": 75,
            "duration": 0.006818181818181834
          },
          {
            "pitch": 35,
            "start": 5.247727272727272,
            "end": 5.347727272727273,
            "velocity": 102,
            "duration": 0.10000000000000053
          },
          {
            "pitch": 45,
            "start": 5.293181818181818,
            "end": 5.347727272727273,
            "velocity": 85,
            "duration": 0.054545454545454675
          },
          {
            "pitch": 51,
            "start": 5.386363636363636,
            "end": 5.486363636363636,
            "velocity": 70,
            "duration": 0.10000000000000053
          },
          {
            "pitch": 41,
            "start": 5.411363636363636,
            "end": 5.511363636363636,
            "velocity": 71,
            "duration": 0.09999999999999964
          },
          {
            "pitch": 35,
            "start": 5.502272727272727,
            "end": 5.602272727272727,
            "velocity": 91,
            "duration": 0.09999999999999964
          },
          {
            "pitch": 35,
            "start": 5.595454545454545,
            "end": 5.602272727272727,
            "velocity": 111,
            "duration": 0.006818181818181834
          },
          {
            "pitch": 42,
            "start": 5.502272727272727,
            "end": 5.602272727272727,
            "velocity": 83,
            "duration": 0.09999999999999964
          },
          {
            "pitch": 51,
            "start": 5.502272727272727,
            "end": 5.602272727272727,
            "velocity": 86,
            "duration": 0.09999999999999964
          },
          {
            "pitch": 51,
            "start": 5.595454545454545,
            "end": 5.602272727272727,
            "velocity": 88,
            "duration": 0.006818181818181834
          },
          {
            "pitch": 35,
            "start": 5.6886363636363635,
            "end": 5.695454545454545,
            "velocity": 123,
            "duration": 0.006818181818181834
          },
          {
            "pitch": 51,
            "start": 5.6886363636363635,
            "end": 5.695454545454545,
            "velocity": 101,
            "duration": 0.006818181818181834
          },
          {
            "pitch": 35,
            "start": 5.759090909090909,
            "end": 5.788636363636363,
            "velocity": 89,
            "duration": 0.02954545454545432
          },
          {
            "pitch": 42,
            "start": 5.6886363636363635,
            "end": 5.788636363636363,
            "velocity": 101,
            "duration": 0.09999999999999964
          },
          {
            "pitch": 51,
            "start": 5.759090909090909,
            "end": 5.788636363636363,
            "velocity": 94,
            "duration": 0.02954545454545432
          },
          {
            "pitch": 37,
            "start": 5.736363636363636,
            "end": 5.836363636363636,
            "velocity": 90,
            "duration": 0.09999999999999964
          },
          {
            "pitch": 37,
            "start": 5.852272727272727,
            "end": 5.952272727272727,
            "velocity": 109,
            "duration": 0.10000000000000053
          },
          {
            "pitch": 35,
            "start": 5.875,
            "end": 5.975,
            "velocity": 124,
            "duration": 0.09999999999999964
          },
          {
            "pitch": 35,
            "start": 5.9431818181818175,
            "end": 5.975,
            "velocity": 97,
            "duration": 0.03181818181818219
          },
          {
            "pitch": 42,
            "start": 5.875,
            "end": 5.975,
            "velocity": 108,
            "duration": 0.09999999999999964
          },
          {
            "pitch": 42,
            "start": 5.968181818181818,
            "end": 5.975,
            "velocity": 90,
            "duration": 0.006818181818181834
          },
          {
            "pitch": 51,
            "start": 5.875,
            "end": 5.975,
            "velocity": 107,
            "duration": 0.09999999999999964
          },
          {
            "pitch": 51,
            "start": 5.9431818181818175,
            "end": 5.975,
            "velocity": 75,
            "duration": 0.03181818181818219
          },
          {
            "pitch": 51,
            "start": 5.99090909090909,
            "end": 6.043181818181818,
            "velocity": 65,
            "duration": 0.05227272727272769
          },
          {
            "pitch": 51,
            "start": 6.036363636363636,
            "end": 6.043181818181818,
            "velocity": 77,
            "duration": 0.006818181818181834
          },
          {
            "pitch": 37,
            "start": 5.968181818181818,
            "end": 6.0681818181818175,
            "velocity": 71,
            "duration": 0.09999999999999964
          },
          {
            "pitch": 42,
            "start": 6.0613636363636365,
            "end": 6.0681818181818175,
            "velocity": 107,
            "duration": 0.006818181818180946
          },
          {
            "pitch": 51,
            "start": 6.129545454545454,
            "end": 6.136363636363636,
            "velocity": 100,
            "duration": 0.006818181818181834
          },
          {
            "pitch": 35,
            "start": 6.0613636363636365,
            "end": 6.161363636363636,
            "velocity": 103,
            "duration": 0.09999999999999964
          },
          {
            "pitch": 35,
            "start": 6.129545454545454,
            "end": 6.161363636363636,
            "velocity": 113,
            "duration": 0.03181818181818219
          },
          {
            "pitch": 37,
            "start": 6.084090909090909,
            "end": 6.184090909090909,
            "velocity": 70,
            "duration": 0.09999999999999964
          },
          {
            "pitch": 51,
            "start": 6.222727272727273,
            "end": 6.2295454545454545,
            "velocity": 71,
            "duration": 0.006818181818181834
          },
          {
            "pitch": 51,
            "start": 6.2704545454545455,
            "end": 6.322727272727272,
            "velocity": 77,
            "duration": 0.052272727272726804
          },
          {
            "pitch": 51,
            "start": 6.3159090909090905,
            "end": 6.322727272727272,
            "velocity": 84,
            "duration": 0.006818181818181834
          },
          {
            "pitch": 35,
            "start": 6.245454545454545,
            "end": 6.345454545454545,
            "velocity": 92,
            "duration": 0.09999999999999964
          },
          {
            "pitch": 35,
            "start": 6.3159090909090905,
            "end": 6.345454545454545,
            "velocity": 115,
            "duration": 0.02954545454545432
          },
          {
            "pitch": 42,
            "start": 6.245454545454545,
            "end": 6.345454545454545,
            "velocity": 98,
            "duration": 0.09999999999999964
          },
          {
            "pitch": 42,
            "start": 6.3159090909090905,
            "end": 6.345454545454545,
            "velocity": 101,
            "duration": 0.02954545454545432
          },
          {
            "pitch": 37,
            "start": 6.293181818181818,
            "end": 6.393181818181818,
            "velocity": 70,
            "duration": 0.09999999999999964
          },
          {
            "pitch": 37,
            "start": 6.361363636363636,
            "end": 6.393181818181818,
            "velocity": 94,
            "duration": 0.0318181818181813
          },
          {
            "pitch": 35,
            "start": 6.386363636363636,
            "end": 6.415909090909091,
            "velocity": 70,
            "duration": 0.029545454545455208
          },
          {
            "pitch": 42,
            "start": 6.409090909090909,
            "end": 6.415909090909091,
            "velocity": 86,
            "duration": 0.006818181818181834
          },
          {
            "pitch": 51,
            "start": 6.409090909090909,
            "end": 6.415909090909091,
            "velocity": 95,
            "duration": 0.006818181818181834
          },
          {
            "pitch": 37,
            "start": 6.454545454545454,
            "end": 6.461363636363636,
            "velocity": 81,
            "duration": 0.006818181818181834
          },
          {
            "pitch": 35,
            "start": 6.431818181818182,
            "end": 6.486363636363636,
            "velocity": 76,
            "duration": 0.054545454545454675
          },
          {
            "pitch": 42,
            "start": 6.502272727272727,
            "end": 6.509090909090909,
            "velocity": 98,
            "duration": 0.006818181818181834
          },
          {
            "pitch": 51,
            "start": 6.502272727272727,
            "end": 6.509090909090909,
            "velocity": 107,
            "duration": 0.006818181818181834
          },
          {
            "pitch": 35,
            "start": 6.502272727272727,
            "end": 6.531818181818181,
            "velocity": 124,
            "duration": 0.02954545454545432
          },
          {
            "pitch": 37,
            "start": 6.5249999999999995,
            "end": 6.554545454545454,
            "velocity": 92,
            "duration": 0.02954545454545432
          },
          {
            "pitch": 35,
            "start": 6.570454545454545,
            "end": 6.602272727272727,
            "velocity": 94,
            "duration": 0.0318181818181813
          },
          {
            "pitch": 51,
            "start": 6.595454545454545,
            "end": 6.602272727272727,
            "velocity": 83,
            "duration": 0.006818181818181834
          },
          {
            "pitch": 51,
            "start": 6.686363636363636,
            "end": 6.695454545454545,
            "velocity": 98,
            "duration": 0.009090909090909705
          },
          {
            "pitch": 35,
            "start": 6.686363636363636,
            "end": 6.786363636363636,
            "velocity": 120,
            "duration": 0.10000000000000053
          },
          {
            "pitch": 35,
            "start": 6.756818181818182,
            "end": 6.786363636363636,
            "velocity": 101,
            "duration": 0.02954545454545432
          },
          {
            "pitch": 42,
            "start": 6.686363636363636,
            "end": 6.786363636363636,
            "velocity": 114,
            "duration": 0.10000000000000053
          },
          {
            "pitch": 42,
            "start": 6.756818181818182,
            "end": 6.786363636363636,
            "velocity": 64,
            "duration": 0.02954545454545432
          },
          {
            "pitch": 51,
            "start": 6.756818181818182,
            "end": 6.786363636363636,
            "velocity": 94,
            "duration": 0.02954545454545432
          },
          {
            "pitch": 37,
            "start": 6.85,
            "end": 6.949999999999999,
            "velocity": 96,
            "duration": 0.09999999999999964
          },
          {
            "pitch": 35,
            "start": 6.872727272727272,
            "end": 6.972727272727273,
            "velocity": 114,
            "duration": 0.10000000000000053
          },
          {
            "pitch": 35,
            "start": 6.9431818181818175,
            "end": 6.972727272727273,
            "velocity": 114,
            "duration": 0.029545454545455208
          },
          {
            "pitch": 42,
            "start": 6.872727272727272,
            "end": 6.972727272727273,
            "velocity": 90,
            "duration": 0.10000000000000053
          },
          {
            "pitch": 42,
            "start": 6.9431818181818175,
            "end": 6.972727272727273,
            "velocity": 88,
            "duration": 0.029545454545455208
          },
          {
            "pitch": 51,
            "start": 6.872727272727272,
            "end": 6.972727272727273,
            "velocity": 99,
            "duration": 0.10000000000000053
          },
          {
            "pitch": 51,
            "start": 6.9431818181818175,
            "end": 6.972727272727273,
            "velocity": 98,
            "duration": 0.029545454545455208
          },
          {
            "pitch": 51,
            "start": 6.988636363636363,
            "end": 7.043181818181818,
            "velocity": 74,
            "duration": 0.054545454545454675
          },
          {
            "pitch": 51,
            "start": 7.036363636363636,
            "end": 7.043181818181818,
            "velocity": 87,
            "duration": 0.006818181818181834
          },
          {
            "pitch": 51,
            "start": 7.129545454545454,
            "end": 7.136363636363636,
            "velocity": 107,
            "duration": 0.006818181818181834
          },
          {
            "pitch": 35,
            "start": 7.059090909090909,
            "end": 7.159090909090909,
            "velocity": 72,
            "duration": 0.10000000000000053
          },
          {
            "pitch": 35,
            "start": 7.129545454545454,
            "end": 7.159090909090909,
            "velocity": 122,
            "duration": 0.029545454545455208
          },
          {
            "pitch": 42,
            "start": 7.059090909090909,
            "end": 7.159090909090909,
            "velocity": 99,
            "duration": 0.10000000000000053
          },
          {
            "pitch": 42,
            "start": 7.129545454545454,
            "end": 7.159090909090909,
            "velocity": 80,
            "duration": 0.029545454545455208
          },
          {
            "pitch": 37,
            "start": 7.081818181818181,
            "end": 7.181818181818182,
            "velocity": 95,
            "duration": 0.10000000000000053
          },
          {
            "pitch": 51,
            "start": 7.220454545454545,
            "end": 7.2295454545454545,
            "velocity": 82,
            "duration": 0.009090909090909705
          },
          {
            "pitch": 37,
            "start": 7.220454545454545,
            "end": 7.320454545454545,
            "velocity": 67,
            "duration": 0.10000000000000053
          },
          {
            "pitch": 37,
            "start": 7.268181818181818,
            "end": 7.320454545454545,
            "velocity": 83,
            "duration": 0.05227272727272769
          },
          {
            "pitch": 51,
            "start": 7.3136363636363635,
            "end": 7.320454545454545,
            "velocity": 94,
            "duration": 0.006818181818181834
          },
          {
            "pitch": 35,
            "start": 7.245454545454545,
            "end": 7.345454545454545,
            "velocity": 76,
            "duration": 0.09999999999999964
          },
          {
            "pitch": 35,
            "start": 7.3136363636363635,
            "end": 7.345454545454545,
            "velocity": 121,
            "duration": 0.0318181818181813
          },
          {
            "pitch": 42,
            "start": 7.245454545454545,
            "end": 7.345454545454545,
            "velocity": 101,
            "duration": 0.09999999999999964
          },
          {
            "pitch": 42,
            "start": 7.3136363636363635,
            "end": 7.345454545454545,
            "velocity": 112,
            "duration": 0.0318181818181813
          },
          {
            "pitch": 37,
            "start": 7.338636363636363,
            "end": 7.368181818181818,
            "velocity": 93,
            "duration": 0.029545454545455208
          },
          {
            "pitch": 35,
            "start": 7.384090909090909,
            "end": 7.413636363636363,
            "velocity": 79,
            "duration": 0.02954545454545432
          },
          {
            "pitch": 42,
            "start": 7.406818181818181,
            "end": 7.413636363636363,
            "velocity": 101,
            "duration": 0.006818181818181834
          },
          {
            "pitch": 51,
            "start": 7.406818181818181,
            "end": 7.413636363636363,
            "velocity": 97,
            "duration": 0.006818181818181834
          },
          {
            "pitch": 42,
            "start": 7.5,
            "end": 7.506818181818182,
            "velocity": 114,
            "duration": 0.006818181818181834
          },
          {
            "pitch": 51,
            "start": 7.5,
            "end": 7.506818181818182,
            "velocity": 103,
            "duration": 0.006818181818181834
          },
          {
            "pitch": 37,
            "start": 7.454545454545454,
            "end": 7.554545454545454,
            "velocity": 68,
            "duration": 0.09999999999999964
          },
          {
            "pitch": 37,
            "start": 7.545454545454545,
            "end": 7.554545454545454,
            "velocity": 66,
            "duration": 0.009090909090908816
          },
          {
            "pitch": 35,
            "start": 7.5,
            "end": 7.6,
            "velocity": 125,
            "duration": 0.09999999999999964
          },
          {
            "pitch": 35,
            "start": 7.570454545454545,
            "end": 7.6,
            "velocity": 101,
            "duration": 0.02954545454545432
          },
          {
            "pitch": 42,
            "start": 7.593181818181818,
            "end": 7.6,
            "velocity": 88,
            "duration": 0.006818181818181834
          },
          {
            "pitch": 51,
            "start": 7.570454545454545,
            "end": 7.6,
            "velocity": 86,
            "duration": 0.02954545454545432
          },
          {
            "pitch": 45,
            "start": 7.5227272727272725,
            "end": 7.622727272727272,
            "velocity": 66,
            "duration": 0.09999999999999964
          },
          {
            "pitch": 51,
            "start": 7.663636363636363,
            "end": 7.670454545454545,
            "velocity": 99,
            "duration": 0.006818181818181834
          },
          {
            "pitch": 42,
            "start": 7.686363636363636,
            "end": 7.6931818181818175,
            "velocity": 90,
            "duration": 0.006818181818181834
          },
          {
            "pitch": 51,
            "start": 7.754545454545454,
            "end": 7.763636363636364,
            "velocity": 95,
            "duration": 0.009090909090909705
          },
          {
            "pitch": 35,
            "start": 7.709090909090909,
            "end": 7.809090909090909,
            "velocity": 77,
            "duration": 0.09999999999999964
          },
          {
            "pitch": 35,
            "start": 7.754545454545454,
            "end": 7.809090909090909,
            "velocity": 65,
            "duration": 0.054545454545454675
          },
          {
            "pitch": 51,
            "start": 7.847727272727273,
            "end": 7.8545454545454545,
            "velocity": 100,
            "duration": 0.006818181818181834
          },
          {
            "pitch": 51,
            "start": 7.9409090909090905,
            "end": 7.947727272727272,
            "velocity": 73,
            "duration": 0.006818181818181834
          },
          {
            "pitch": 35,
            "start": 7.870454545454545,
            "end": 7.970454545454545,
            "velocity": 97,
            "duration": 0.09999999999999964
          },
          {
            "pitch": 42,
            "start": 7.870454545454545,
            "end": 7.970454545454545,
            "velocity": 91,
            "duration": 0.09999999999999964
          },
          {
            "pitch": 42,
            "start": 7.963636363636363,
            "end": 7.970454545454545,
            "velocity": 79,
            "duration": 0.006818181818181834
          },
          {
            "pitch": 51,
            "start": 7.988636363636363,
            "end": 8.040909090909091,
            "velocity": 79,
            "duration": 0.05227272727272769
          },
          {
            "pitch": 51,
            "start": 8.034090909090908,
            "end": 8.040909090909091,
            "velocity": 94,
            "duration": 0.0068181818181827225
          },
          {
            "pitch": 42,
            "start": 8.056818181818182,
            "end": 8.063636363636363,
            "velocity": 97,
            "duration": 0.006818181818180946
          },
          {
            "pitch": 51,
            "start": 8.104545454545454,
            "end": 8.134090909090908,
            "velocity": 76,
            "duration": 0.02954545454545432
          },
          {
            "pitch": 42,
            "start": 8.127272727272727,
            "end": 8.156818181818181,
            "velocity": 93,
            "duration": 0.02954545454545432
          },
          {
            "pitch": 41,
            "start": 8.15,
            "end": 8.25,
            "velocity": 79,
            "duration": 0.09999999999999964
          },
          {
            "pitch": 51,
            "start": 8.220454545454546,
            "end": 8.320454545454545,
            "velocity": 100,
            "duration": 0.09999999999999964
          },
          {
            "pitch": 51,
            "start": 8.288636363636364,
            "end": 8.320454545454545,
            "velocity": 92,
            "duration": 0.0318181818181813
          },
          {
            "pitch": 35,
            "start": 8.243181818181817,
            "end": 8.343181818181817,
            "velocity": 74,
            "duration": 0.09999999999999964
          },
          {
            "pitch": 35,
            "start": 8.313636363636363,
            "end": 8.343181818181817,
            "velocity": 82,
            "duration": 0.02954545454545432
          },
          {
            "pitch": 42,
            "start": 8.313636363636363,
            "end": 8.413636363636364,
            "velocity": 107,
            "duration": 0.10000000000000142
          },
          {
            "pitch": 42,
            "start": 8.404545454545454,
            "end": 8.413636363636364,
            "velocity": 69,
            "duration": 0.009090909090909705
          },
          {
            "pitch": 42,
            "start": 8.497727272727273,
            "end": 8.504545454545454,
            "velocity": 77,
            "duration": 0.006818181818180946
          },
          {
            "pitch": 51,
            "start": 8.404545454545454,
            "end": 8.504545454545454,
            "velocity": 73,
            "duration": 0.09999999999999964
          },
          {
            "pitch": 51,
            "start": 8.475,
            "end": 8.504545454545454,
            "velocity": 82,
            "duration": 0.02954545454545432
          },
          {
            "pitch": 35,
            "start": 8.497727272727273,
            "end": 8.597727272727273,
            "velocity": 90,
            "duration": 0.09999999999999964
          },
          {
            "pitch": 42,
            "start": 8.59090909090909,
            "end": 8.597727272727273,
            "velocity": 79,
            "duration": 0.0068181818181827225
          },
          {
            "pitch": 41,
            "start": 8.522727272727272,
            "end": 8.622727272727273,
            "velocity": 68,
            "duration": 0.10000000000000142
          },
          {
            "pitch": 42,
            "start": 8.684090909090909,
            "end": 8.690909090909091,
            "velocity": 91,
            "duration": 0.0068181818181827225
          },
          {
            "pitch": 51,
            "start": 8.661363636363635,
            "end": 8.761363636363637,
            "velocity": 79,
            "duration": 0.10000000000000142
          },
          {
            "pitch": 51,
            "start": 8.754545454545454,
            "end": 8.761363636363637,
            "velocity": 94,
            "duration": 0.0068181818181827225
          },
          {
            "pitch": 35,
            "start": 8.684090909090909,
            "end": 8.784090909090908,
            "velocity": 86,
            "duration": 0.09999999999999964
          },
          {
            "pitch": 35,
            "start": 8.754545454545454,
            "end": 8.784090909090908,
            "velocity": 106,
            "duration": 0.02954545454545432
          },
          {
            "pitch": 42,
            "start": 8.777272727272727,
            "end": 8.784090909090908,
            "velocity": 70,
            "duration": 0.006818181818180946
          },
          {
            "pitch": 41,
            "start": 8.73181818181818,
            "end": 8.831818181818182,
            "velocity": 75,
            "duration": 0.10000000000000142
          },
          {
            "pitch": 41,
            "start": 8.777272727272727,
            "end": 8.831818181818182,
            "velocity": 66,
            "duration": 0.054545454545454675
          },
          {
            "pitch": 51,
            "start": 8.847727272727273,
            "end": 8.854545454545454,
            "velocity": 78,
            "duration": 0.006818181818180946
          },
          {
            "pitch": 42,
            "start": 8.870454545454544,
            "end": 8.877272727272727,
            "velocity": 87,
            "duration": 0.0068181818181827225
          },
          {
            "pitch": 35,
            "start": 8.870454545454544,
            "end": 8.970454545454546,
            "velocity": 81,
            "duration": 0.10000000000000142
          },
          {
            "pitch": 35,
            "start": 8.938636363636363,
            "end": 8.970454545454546,
            "velocity": 100,
            "duration": 0.03181818181818308
          },
          {
            "pitch": 42,
            "start": 8.963636363636363,
            "end": 8.970454545454546,
            "velocity": 66,
            "duration": 0.0068181818181827225
          },
          {
            "pitch": 37,
            "start": 8.893181818181818,
            "end": 8.993181818181817,
            "velocity": 120,
            "duration": 0.09999999999999964
          },
          {
            "pitch": 37,
            "start": 8.986363636363636,
            "end": 8.993181818181817,
            "velocity": 100,
            "duration": 0.006818181818180946
          },
          {
            "pitch": 35,
            "start": 9.009090909090908,
            "end": 9.038636363636364,
            "velocity": 75,
            "duration": 0.029545454545456096
          },
          {
            "pitch": 42,
            "start": 9.056818181818182,
            "end": 9.063636363636363,
            "velocity": 81,
            "duration": 0.006818181818180946
          },
          {
            "pitch": 35,
            "start": 9.056818181818182,
            "end": 9.10909090909091,
            "velocity": 77,
            "duration": 0.05227272727272769
          },
          {
            "pitch": 51,
            "start": 9.031818181818181,
            "end": 9.131818181818181,
            "velocity": 75,
            "duration": 0.09999999999999964
          },
          {
            "pitch": 51,
            "start": 9.102272727272727,
            "end": 9.131818181818181,
            "velocity": 85,
            "duration": 0.02954545454545432
          },
          {
            "pitch": 35,
            "start": 9.125,
            "end": 9.156818181818181,
            "velocity": 109,
            "duration": 0.0318181818181813
          },
          {
            "pitch": 45,
            "start": 9.079545454545453,
            "end": 9.179545454545455,
            "velocity": 95,
            "duration": 0.10000000000000142
          },
          {
            "pitch": 51,
            "start": 9.172727272727272,
            "end": 9.202272727272726,
            "velocity": 76,
            "duration": 0.02954545454545432
          },
          {
            "pitch": 51,
            "start": 9.218181818181817,
            "end": 9.272727272727272,
            "velocity": 78,
            "duration": 0.054545454545454675
          },
          {
            "pitch": 41,
            "start": 9.218181818181817,
            "end": 9.318181818181818,
            "velocity": 69,
            "duration": 0.10000000000000142
          },
          {
            "pitch": 51,
            "start": 9.311363636363636,
            "end": 9.318181818181818,
            "velocity": 93,
            "duration": 0.0068181818181827225
          },
          {
            "pitch": 35,
            "start": 9.311363636363636,
            "end": 9.411363636363635,
            "velocity": 114,
            "duration": 0.09999999999999964
          },
          {
            "pitch": 35,
            "start": 9.381818181818181,
            "end": 9.411363636363635,
            "velocity": 72,
            "duration": 0.02954545454545432
          },
          {
            "pitch": 42,
            "start": 9.311363636363636,
            "end": 9.411363636363635,
            "velocity": 94,
            "duration": 0.09999999999999964
          },
          {
            "pitch": 42,
            "start": 9.404545454545454,
            "end": 9.411363636363635,
            "velocity": 81,
            "duration": 0.006818181818180946
          },
          {
            "pitch": 51,
            "start": 9.35681818181818,
            "end": 9.411363636363635,
            "velocity": 81,
            "duration": 0.054545454545454675
          },
          {
            "pitch": 51,
            "start": 9.404545454545454,
            "end": 9.411363636363635,
            "velocity": 80,
            "duration": 0.006818181818180946
          },
          {
            "pitch": 42,
            "start": 9.497727272727273,
            "end": 9.504545454545454,
            "velocity": 88,
            "duration": 0.006818181818180946
          },
          {
            "pitch": 35,
            "start": 9.497727272727273,
            "end": 9.597727272727273,
            "velocity": 90,
            "duration": 0.09999999999999964
          },
          {
            "pitch": 35,
            "start": 9.56590909090909,
            "end": 9.597727272727273,
            "velocity": 101,
            "duration": 0.03181818181818308
          },
          {
            "pitch": 42,
            "start": 9.59090909090909,
            "end": 9.597727272727273,
            "velocity": 81,
            "duration": 0.0068181818181827225
          },
          {
            "pitch": 37,
            "start": 9.520454545454545,
            "end": 9.620454545454544,
            "velocity": 104,
            "duration": 0.09999999999999964
          },
          {
            "pitch": 51,
            "start": 9.56590909090909,
            "end": 9.665909090909091,
            "velocity": 64,
            "duration": 0.10000000000000142
          },
          {
            "pitch": 51,
            "start": 9.659090909090908,
            "end": 9.665909090909091,
            "velocity": 85,
            "duration": 0.0068181818181827225
          },
          {
            "pitch": 42,
            "start": 9.681818181818182,
            "end": 9.69090909090909,
            "velocity": 95,
            "duration": 0.009090909090907928
          },
          {
            "pitch": 41,
            "start": 9.659090909090908,
            "end": 9.759090909090908,
            "velocity": 68,
            "duration": 0.09999999999999964
          },
          {
            "pitch": 51,
            "start": 9.752272727272727,
            "end": 9.759090909090908,
            "velocity": 87,
            "duration": 0.006818181818180946
          },
          {
            "pitch": 35,
            "start": 9.681818181818182,
            "end": 9.781818181818181,
            "velocity": 78,
            "duration": 0.09999999999999964
          },
          {
            "pitch": 35,
            "start": 9.752272727272727,
            "end": 9.781818181818181,
            "velocity": 79,
            "duration": 0.02954545454545432
          },
          {
            "pitch": 42,
            "start": 9.752272727272727,
            "end": 9.781818181818181,
            "velocity": 71,
            "duration": 0.02954545454545432
          },
          {
            "pitch": 35,
            "start": 9.822727272727272,
            "end": 9.852272727272727,
            "velocity": 65,
            "duration": 0.02954545454545432
          },
          {
            "pitch": 37,
            "start": 9.775,
            "end": 9.875,
            "velocity": 70,
            "duration": 0.09999999999999964
          },
          {
            "pitch": 37,
            "start": 9.845454545454546,
            "end": 9.875,
            "velocity": 85,
            "duration": 0.02954545454545432
          },
          {
            "pitch": 35,
            "start": 9.868181818181817,
            "end": 9.922727272727272,
            "velocity": 98,
            "duration": 0.054545454545454675
          },
          {
            "pitch": 37,
            "start": 9.89090909090909,
            "end": 9.945454545454545,
            "velocity": 109,
            "duration": 0.054545454545454675
          },
          {
            "pitch": 35,
            "start": 9.938636363636363,
            "end": 9.968181818181817,
            "velocity": 113,
            "duration": 0.02954545454545432
          },
          {
            "pitch": 42,
            "start": 9.868181818181817,
            "end": 9.968181818181817,
            "velocity": 106,
            "duration": 0.09999999999999964
          },
          {
            "pitch": 42,
            "start": 9.938636363636363,
            "end": 9.968181818181817,
            "velocity": 74,
            "duration": 0.02954545454545432
          },
          {
            "pitch": 51,
            "start": 9.868181818181817,
            "end": 9.968181818181817,
            "velocity": 79,
            "duration": 0.09999999999999964
          },
          {
            "pitch": 51,
            "start": 9.938636363636363,
            "end": 9.968181818181817,
            "velocity": 93,
            "duration": 0.02954545454545432
          },
          {
            "pitch": 35,
            "start": 10.006818181818181,
            "end": 10.038636363636364,
            "velocity": 74,
            "duration": 0.03181818181818308
          },
          {
            "pitch": 51,
            "start": 9.98409090909091,
            "end": 10.038636363636364,
            "velocity": 79,
            "duration": 0.054545454545454675
          },
          {
            "pitch": 37,
            "start": 10.031818181818181,
            "end": 10.131818181818181,
            "velocity": 84,
            "duration": 0.09999999999999964
          },
          {
            "pitch": 35,
            "start": 10.125,
            "end": 10.225,
            "velocity": 79,
            "duration": 0.09999999999999964
          },
          {
            "pitch": 35,
            "start": 10.193181818181818,
            "end": 10.225,
            "velocity": 68,
            "duration": 0.0318181818181813
          },
          {
            "pitch": 42,
            "start": 10.125,
            "end": 10.225,
            "velocity": 92,
            "duration": 0.09999999999999964
          },
          {
            "pitch": 42,
            "start": 10.193181818181818,
            "end": 10.225,
            "velocity": 79,
            "duration": 0.0318181818181813
          },
          {
            "pitch": 51,
            "start": 10.125,
            "end": 10.225,
            "velocity": 92,
            "duration": 0.09999999999999964
          },
          {
            "pitch": 51,
            "start": 10.193181818181818,
            "end": 10.225,
            "velocity": 87,
            "duration": 0.0318181818181813
          },
          {
            "pitch": 41,
            "start": 10.21590909090909,
            "end": 10.31590909090909,
            "velocity": 71,
            "duration": 0.09999999999999964
          },
          {
            "pitch": 35,
            "start": 10.309090909090909,
            "end": 10.409090909090908,
            "velocity": 104,
            "duration": 0.09999999999999964
          },
          {
            "pitch": 35,
            "start": 10.379545454545454,
            "end": 10.409090909090908,
            "velocity": 94,
            "duration": 0.02954545454545432
          },
          {
            "pitch": 42,
            "start": 10.309090909090909,
            "end": 10.409090909090908,
            "velocity": 90,
            "duration": 0.09999999999999964
          },
          {
            "pitch": 42,
            "start": 10.402272727272727,
            "end": 10.409090909090908,
            "velocity": 65,
            "duration": 0.006818181818180946
          },
          {
            "pitch": 51,
            "start": 10.331818181818182,
            "end": 10.431818181818182,
            "velocity": 93,
            "duration": 0.09999999999999964
          },
          {
            "pitch": 51,
            "start": 10.379545454545454,
            "end": 10.431818181818182,
            "velocity": 89,
            "duration": 0.05227272727272769
          },
          {
            "pitch": 51,
            "start": 10.472727272727273,
            "end": 10.479545454545454,
            "velocity": 70,
            "duration": 0.006818181818180946
          },
          {
            "pitch": 35,
            "start": 10.495454545454544,
            "end": 10.595454545454546,
            "velocity": 74,
            "duration": 0.10000000000000142
          },
          {
            "pitch": 35,
            "start": 10.56590909090909,
            "end": 10.595454545454546,
            "velocity": 69,
            "duration": 0.029545454545456096
          },
          {
            "pitch": 37,
            "start": 10.518181818181818,
            "end": 10.618181818181817,
            "velocity": 97,
            "duration": 0.09999999999999964
          },
          {
            "pitch": 37,
            "start": 10.588636363636363,
            "end": 10.618181818181817,
            "velocity": 93,
            "duration": 0.02954545454545432
          },
          {
            "pitch": 41,
            "start": 10.518181818181818,
            "end": 10.618181818181817,
            "velocity": 78,
            "duration": 0.09999999999999964
          },
          {
            "pitch": 42,
            "start": 10.611363636363636,
            "end": 10.711363636363636,
            "velocity": 92,
            "duration": 0.09999999999999964
          },
          {
            "pitch": 42,
            "start": 10.681818181818182,
            "end": 10.711363636363636,
            "velocity": 94,
            "duration": 0.02954545454545432
          },
          {
            "pitch": 51,
            "start": 10.659090909090908,
            "end": 10.759090909090908,
            "velocity": 68,
            "duration": 0.09999999999999964
          },
          {
            "pitch": 51,
            "start": 10.75,
            "end": 10.759090909090908,
            "velocity": 85,
            "duration": 0.009090909090907928
          },
          {
            "pitch": 35,
            "start": 10.681818181818182,
            "end": 10.781818181818181,
            "velocity": 80,
            "duration": 0.09999999999999964
          },
          {
            "pitch": 35,
            "start": 10.75,
            "end": 10.781818181818181,
            "velocity": 112,
            "duration": 0.0318181818181813
          },
          {
            "pitch": 42,
            "start": 10.75,
            "end": 10.781818181818181,
            "velocity": 97,
            "duration": 0.0318181818181813
          },
          {
            "pitch": 37,
            "start": 10.727272727272727,
            "end": 10.827272727272726,
            "velocity": 70,
            "duration": 0.09999999999999964
          },
          {
            "pitch": 35,
            "start": 10.820454545454545,
            "end": 10.85,
            "velocity": 65,
            "duration": 0.02954545454545432
          },
          {
            "pitch": 51,
            "start": 10.797727272727272,
            "end": 10.85,
            "velocity": 82,
            "duration": 0.05227272727272769
          },
          {
            "pitch": 51,
            "start": 10.843181818181817,
            "end": 10.85,
            "velocity": 75,
            "duration": 0.0068181818181827225
          },
          {
            "pitch": 35,
            "start": 10.86590909090909,
            "end": 10.920454545454545,
            "velocity": 70,
            "duration": 0.054545454545454675
          },
          {
            "pitch": 51,
            "start": 10.936363636363636,
            "end": 10.943181818181818,
            "velocity": 81,
            "duration": 0.0068181818181827225
          },
          {
            "pitch": 35,
            "start": 10.936363636363636,
            "end": 10.96590909090909,
            "velocity": 111,
            "duration": 0.02954545454545432
          },
          {
            "pitch": 35,
            "start": 11.006818181818181,
            "end": 11.036363636363635,
            "velocity": 74,
            "duration": 0.02954545454545432
          },
          {
            "pitch": 42,
            "start": 10.936363636363636,
            "end": 11.036363636363635,
            "velocity": 99,
            "duration": 0.09999999999999964
          },
          {
            "pitch": 51,
            "start": 11.006818181818181,
            "end": 11.036363636363635,
            "velocity": 80,
            "duration": 0.02954545454545432
          },
          {
            "pitch": 37,
            "start": 10.98409090909091,
            "end": 11.084090909090909,
            "velocity": 89,
            "duration": 0.09999999999999964
          },
          {
            "pitch": 51,
            "start": 11.1,
            "end": 11.10681818181818,
            "velocity": 75,
            "duration": 0.006818181818180946
          },
          {
            "pitch": 51,
            "start": 11.19090909090909,
            "end": 11.2,
            "velocity": 67,
            "duration": 0.009090909090909705
          },
          {
            "pitch": 35,
            "start": 11.122727272727273,
            "end": 11.222727272727273,
            "velocity": 78,
            "duration": 0.09999999999999964
          },
          {
            "pitch": 42,
            "start": 11.122727272727273,
            "end": 11.222727272727273,
            "velocity": 85,
            "duration": 0.09999999999999964
          },
          {
            "pitch": 42,
            "start": 11.19090909090909,
            "end": 11.222727272727273,
            "velocity": 68,
            "duration": 0.03181818181818308
          },
          {
            "pitch": 51,
            "start": 11.261363636363637,
            "end": 11.290909090909091,
            "velocity": 75,
            "duration": 0.02954545454545432
          },
          {
            "pitch": 35,
            "start": 11.309090909090909,
            "end": 11.409090909090908,
            "velocity": 90,
            "duration": 0.09999999999999964
          },
          {
            "pitch": 35,
            "start": 11.377272727272727,
            "end": 11.409090909090908,
            "velocity": 107,
            "duration": 0.0318181818181813
          },
          {
            "pitch": 42,
            "start": 11.309090909090909,
            "end": 11.409090909090908,
            "velocity": 65,
            "duration": 0.09999999999999964
          },
          {
            "pitch": 35,
            "start": 11.447727272727272,
            "end": 11.477272727272727,
            "velocity": 66,
            "duration": 0.02954545454545432
          },
          {
            "pitch": 37,
            "start": 11.399999999999999,
            "end": 11.5,
            "velocity": 104,
            "duration": 0.10000000000000142
          },
          {
            "pitch": 37,
            "start": 11.470454545454546,
            "end": 11.5,
            "velocity": 78,
            "duration": 0.02954545454545432
          },
          {
            "pitch": 35,
            "start": 11.493181818181817,
            "end": 11.547727272727272,
            "velocity": 71,
            "duration": 0.054545454545454675
          },
          {
            "pitch": 35,
            "start": 11.563636363636363,
            "end": 11.593181818181817,
            "velocity": 107,
            "duration": 0.02954545454545432
          },
          {
            "pitch": 42,
            "start": 11.493181818181817,
            "end": 11.593181818181817,
            "velocity": 68,
            "duration": 0.09999999999999964
          },
          {
            "pitch": 42,
            "start": 11.563636363636363,
            "end": 11.593181818181817,
            "velocity": 89,
            "duration": 0.02954545454545432
          },
          {
            "pitch": 51,
            "start": 11.563636363636363,
            "end": 11.663636363636362,
            "velocity": 86,
            "duration": 0.09999999999999964
          },
          {
            "pitch": 51,
            "start": 11.656818181818181,
            "end": 11.663636363636362,
            "velocity": 85,
            "duration": 0.006818181818180946
          },
          {
            "pitch": 51,
            "start": 11.75,
            "end": 11.756818181818181,
            "velocity": 98,
            "duration": 0.006818181818180946
          },
          {
            "pitch": 42,
            "start": 11.679545454545455,
            "end": 11.779545454545454,
            "velocity": 65,
            "duration": 0.09999999999999964
          },
          {
            "pitch": 42,
            "start": 11.75,
            "end": 11.779545454545454,
            "velocity": 84,
            "duration": 0.02954545454545432
          },
          {
            "pitch": 35,
            "start": 11.75,
            "end": 11.85,
            "velocity": 117,
            "duration": 0.09999999999999964
          },
          {
            "pitch": 35,
            "start": 11.818181818181818,
            "end": 11.85,
            "velocity": 64,
            "duration": 0.0318181818181813
          },
          {
            "pitch": 51,
            "start": 11.843181818181817,
            "end": 11.85,
            "velocity": 86,
            "duration": 0.0068181818181827225
          },
          {
            "pitch": 35,
            "start": 11.86590909090909,
            "end": 11.918181818181818,
            "velocity": 68,
            "duration": 0.05227272727272769
          },
          {
            "pitch": 51,
            "start": 11.934090909090909,
            "end": 11.943181818181818,
            "velocity": 76,
            "duration": 0.009090909090909705
          },
          {
            "pitch": 35,
            "start": 11.934090909090909,
            "end": 11.96590909090909,
            "velocity": 102,
            "duration": 0.0318181818181813
          },
          {
            "pitch": 35,
            "start": 12.004545454545454,
            "end": 12.034090909090908,
            "velocity": 80,
            "duration": 0.02954545454545432
          },
          {
            "pitch": 42,
            "start": 11.934090909090909,
            "end": 12.034090909090908,
            "velocity": 83,
            "duration": 0.09999999999999964
          },
          {
            "pitch": 51,
            "start": 12.004545454545454,
            "end": 12.034090909090908,
            "velocity": 77,
            "duration": 0.02954545454545432
          },
          {
            "pitch": 37,
            "start": 11.959090909090909,
            "end": 12.059090909090909,
            "velocity": 83,
            "duration": 0.09999999999999964
          },
          {
            "pitch": 37,
            "start": 12.052272727272726,
            "end": 12.059090909090909,
            "velocity": 70,
            "duration": 0.0068181818181827225
          },
          {
            "pitch": 51,
            "start": 12.097727272727273,
            "end": 12.104545454545454,
            "velocity": 75,
            "duration": 0.006818181818180946
          },
          {
            "pitch": 37,
            "start": 12.143181818181818,
            "end": 12.152272727272727,
            "velocity": 82,
            "duration": 0.009090909090909705
          },
          {
            "pitch": 35,
            "start": 12.120454545454544,
            "end": 12.220454545454546,
            "velocity": 81,
            "duration": 0.10000000000000142
          },
          {
            "pitch": 35,
            "start": 12.19090909090909,
            "end": 12.220454545454546,
            "velocity": 88,
            "duration": 0.029545454545456096
          },
          {
            "pitch": 42,
            "start": 12.120454545454544,
            "end": 12.220454545454546,
            "velocity": 92,
            "duration": 0.10000000000000142
          },
          {
            "pitch": 37,
            "start": 12.236363636363636,
            "end": 12.243181818181817,
            "velocity": 87,
            "duration": 0.006818181818180946
          },
          {
            "pitch": 35,
            "start": 12.306818181818182,
            "end": 12.406818181818181,
            "velocity": 78,
            "duration": 0.09999999999999964
          },
          {
            "pitch": 35,
            "start": 12.377272727272727,
            "end": 12.406818181818181,
            "velocity": 104,
            "duration": 0.02954545454545432
          },
          {
            "pitch": 37,
            "start": 12.352272727272727,
            "end": 12.452272727272726,
            "velocity": 77,
            "duration": 0.09999999999999964
          },
          {
            "pitch": 37,
            "start": 12.422727272727272,
            "end": 12.452272727272726,
            "velocity": 79,
            "duration": 0.02954545454545432
          },
          {
            "pitch": 35,
            "start": 12.445454545454545,
            "end": 12.477272727272727,
            "velocity": 63,
            "duration": 0.0318181818181813
          },
          {
            "pitch": 35,
            "start": 12.493181818181817,
            "end": 12.545454545454545,
            "velocity": 67,
            "duration": 0.05227272727272769
          },
          {
            "pitch": 42,
            "start": 12.493181818181817,
            "end": 12.593181818181817,
            "velocity": 75,
            "duration": 0.09999999999999964
          },
          {
            "pitch": 42,
            "start": 12.561363636363636,
            "end": 12.593181818181817,
            "velocity": 91,
            "duration": 0.0318181818181813
          },
          {
            "pitch": 35,
            "start": 12.631818181818181,
            "end": 12.73181818181818,
            "velocity": 64,
            "duration": 0.09999999999999964
          },
          {
            "pitch": 41,
            "start": 12.793181818181818,
            "end": 12.893181818181818,
            "velocity": 68,
            "duration": 0.09999999999999964
          },
          {
            "pitch": 35,
            "start": 12.84090909090909,
            "end": 12.94090909090909,
            "velocity": 76,
            "duration": 0.09999999999999964
          },
          {
            "pitch": 35,
            "start": 12.886363636363635,
            "end": 12.94090909090909,
            "velocity": 69,
            "duration": 0.054545454545454675
          },
          {
            "pitch": 35,
            "start": 12.934090909090909,
            "end": 12.94090909090909,
            "velocity": 69,
            "duration": 0.006818181818180946
          },
          {
            "pitch": 41,
            "start": 12.911363636363635,
            "end": 13.011363636363635,
            "velocity": 67,
            "duration": 0.09999999999999964
          },
          {
            "pitch": 51,
            "start": 13.002272727272727,
            "end": 13.102272727272727,
            "velocity": 75,
            "duration": 0.09999999999999964
          },
          {
            "pitch": 51,
            "start": 13.095454545454546,
            "end": 13.102272727272727,
            "velocity": 77,
            "duration": 0.006818181818180946
          },
          {
            "pitch": 51,
            "start": 13.188636363636363,
            "end": 13.195454545454545,
            "velocity": 96,
            "duration": 0.0068181818181827225
          },
          {
            "pitch": 35,
            "start": 13.118181818181817,
            "end": 13.218181818181817,
            "velocity": 96,
            "duration": 0.09999999999999964
          },
          {
            "pitch": 35,
            "start": 13.188636363636363,
            "end": 13.218181818181817,
            "velocity": 114,
            "duration": 0.02954545454545432
          },
          {
            "pitch": 42,
            "start": 13.188636363636363,
            "end": 13.288636363636362,
            "velocity": 94,
            "duration": 0.09999999999999964
          },
          {
            "pitch": 51,
            "start": 13.281818181818181,
            "end": 13.288636363636362,
            "velocity": 87,
            "duration": 0.006818181818180946
          },
          {
            "pitch": 51,
            "start": 13.375,
            "end": 13.381818181818181,
            "velocity": 98,
            "duration": 0.006818181818180946
          },
          {
            "pitch": 35,
            "start": 13.304545454545455,
            "end": 13.404545454545454,
            "velocity": 63,
            "duration": 0.09999999999999964
          },
          {
            "pitch": 35,
            "start": 13.375,
            "end": 13.404545454545454,
            "velocity": 114,
            "duration": 0.02954545454545432
          },
          {
            "pitch": 42,
            "start": 13.304545454545455,
            "end": 13.404545454545454,
            "velocity": 64,
            "duration": 0.09999999999999964
          },
          {
            "pitch": 42,
            "start": 13.375,
            "end": 13.404545454545454,
            "velocity": 101,
            "duration": 0.02954545454545432
          },
          {
            "pitch": 37,
            "start": 13.352272727272727,
            "end": 13.452272727272726,
            "velocity": 82,
            "duration": 0.09999999999999964
          },
          {
            "pitch": 35,
            "start": 13.445454545454545,
            "end": 13.475,
            "velocity": 70,
            "duration": 0.02954545454545432
          },
          {
            "pitch": 51,
            "start": 13.468181818181817,
            "end": 13.475,
            "velocity": 67,
            "duration": 0.0068181818181827225
          },
          {
            "pitch": 37,
            "start": 13.468181818181817,
            "end": 13.568181818181818,
            "velocity": 68,
            "duration": 0.10000000000000142
          },
          {
            "pitch": 37,
            "start": 13.536363636363635,
            "end": 13.568181818181818,
            "velocity": 81,
            "duration": 0.03181818181818308
          },
          {
            "pitch": 51,
            "start": 13.561363636363636,
            "end": 13.568181818181818,
            "velocity": 75,
            "duration": 0.0068181818181827225
          },
          {
            "pitch": 35,
            "start": 13.561363636363636,
            "end": 13.661363636363635,
            "velocity": 105,
            "duration": 0.09999999999999964
          },
          {
            "pitch": 35,
            "start": 13.629545454545454,
            "end": 13.661363636363635,
            "velocity": 93,
            "duration": 0.0318181818181813
          },
          {
            "pitch": 42,
            "start": 13.561363636363636,
            "end": 13.661363636363635,
            "velocity": 99,
            "duration": 0.09999999999999964
          },
          {
            "pitch": 51,
            "start": 13.629545454545454,
            "end": 13.661363636363635,
            "velocity": 86,
            "duration": 0.0318181818181813
          },
          {
            "pitch": 35,
            "start": 13.745454545454544,
            "end": 13.845454545454544,
            "velocity": 97,
            "duration": 0.09999999999999964
          },
          {
            "pitch": 35,
            "start": 13.81590909090909,
            "end": 13.845454545454544,
            "velocity": 101,
            "duration": 0.02954545454545432
          },
          {
            "pitch": 42,
            "start": 13.745454545454544,
            "end": 13.845454545454544,
            "velocity": 90,
            "duration": 0.09999999999999964
          },
          {
            "pitch": 42,
            "start": 13.81590909090909,
            "end": 13.845454545454544,
            "velocity": 90,
            "duration": 0.02954545454545432
          },
          {
            "pitch": 37,
            "start": 13.770454545454545,
            "end": 13.870454545454544,
            "velocity": 92,
            "duration": 0.09999999999999964
          },
          {
            "pitch": 37,
            "start": 13.861363636363636,
            "end": 13.870454545454544,
            "velocity": 67,
            "duration": 0.009090909090907928
          },
          {
            "pitch": 51,
            "start": 13.81590909090909,
            "end": 13.915909090909091,
            "velocity": 80,
            "duration": 0.10000000000000142
          },
          {
            "pitch": 51,
            "start": 13.909090909090908,
            "end": 13.915909090909091,
            "velocity": 83,
            "duration": 0.0068181818181827225
          },
          {
            "pitch": 37,
            "start": 13.954545454545453,
            "end": 13.961363636363636,
            "velocity": 75,
            "duration": 0.0068181818181827225
          },
          {
            "pitch": 51,
            "start": 14.002272727272727,
            "end": 14.009090909090908,
            "velocity": 99,
            "duration": 0.006818181818180946
          },
          {
            "pitch": 35,
            "start": 13.931818181818182,
            "end": 14.031818181818181,
            "velocity": 91,
            "duration": 0.09999999999999964
          },
          {
            "pitch": 35,
            "start": 14.002272727272727,
            "end": 14.031818181818181,
            "velocity": 117,
            "duration": 0.02954545454545432
          },
          {
            "pitch": 42,
            "start": 13.931818181818182,
            "end": 14.031818181818181,
            "velocity": 80,
            "duration": 0.09999999999999964
          },
          {
            "pitch": 37,
            "start": 14.047727272727272,
            "end": 14.054545454545455,
            "velocity": 86,
            "duration": 0.0068181818181827225
          },
          {
            "pitch": 51,
            "start": 14.095454545454544,
            "end": 14.102272727272727,
            "velocity": 79,
            "duration": 0.0068181818181827225
          },
          {
            "pitch": 51,
            "start": 14.186363636363636,
            "end": 14.195454545454545,
            "velocity": 98,
            "duration": 0.009090909090909705
          },
          {
            "pitch": 35,
            "start": 14.118181818181817,
            "end": 14.218181818181817,
            "velocity": 74,
            "duration": 0.09999999999999964
          },
          {
            "pitch": 35,
            "start": 14.186363636363636,
            "end": 14.218181818181817,
            "velocity": 115,
            "duration": 0.0318181818181813
          },
          {
            "pitch": 35,
            "start": 14.256818181818181,
            "end": 14.286363636363635,
            "velocity": 73,
            "duration": 0.02954545454545432
          },
          {
            "pitch": 42,
            "start": 14.186363636363636,
            "end": 14.286363636363635,
            "velocity": 107,
            "duration": 0.09999999999999964
          },
          {
            "pitch": 51,
            "start": 14.256818181818181,
            "end": 14.286363636363635,
            "velocity": 85,
            "duration": 0.02954545454545432
          },
          {
            "pitch": 37,
            "start": 14.35,
            "end": 14.45,
            "velocity": 92,
            "duration": 0.09999999999999964
          },
          {
            "pitch": 35,
            "start": 14.372727272727271,
            "end": 14.472727272727273,
            "velocity": 107,
            "duration": 0.10000000000000142
          },
          {
            "pitch": 35,
            "start": 14.443181818181818,
            "end": 14.472727272727273,
            "velocity": 85,
            "duration": 0.02954545454545432
          },
          {
            "pitch": 42,
            "start": 14.372727272727271,
            "end": 14.472727272727273,
            "velocity": 95,
            "duration": 0.10000000000000142
          },
          {
            "pitch": 51,
            "start": 14.372727272727271,
            "end": 14.472727272727273,
            "velocity": 91,
            "duration": 0.10000000000000142
          },
          {
            "pitch": 51,
            "start": 14.443181818181818,
            "end": 14.472727272727273,
            "velocity": 77,
            "duration": 0.02954545454545432
          },
          {
            "pitch": 51,
            "start": 14.536363636363635,
            "end": 14.543181818181818,
            "velocity": 70,
            "duration": 0.0068181818181827225
          },
          {
            "pitch": 37,
            "start": 14.536363636363635,
            "end": 14.636363636363635,
            "velocity": 74,
            "duration": 0.09999999999999964
          },
          {
            "pitch": 51,
            "start": 14.629545454545454,
            "end": 14.636363636363635,
            "velocity": 90,
            "duration": 0.006818181818180946
          },
          {
            "pitch": 35,
            "start": 14.559090909090909,
            "end": 14.659090909090908,
            "velocity": 77,
            "duration": 0.09999999999999964
          },
          {
            "pitch": 35,
            "start": 14.629545454545454,
            "end": 14.659090909090908,
            "velocity": 108,
            "duration": 0.02954545454545432
          },
          {
            "pitch": 42,
            "start": 14.559090909090909,
            "end": 14.659090909090908,
            "velocity": 97,
            "duration": 0.09999999999999964
          },
          {
            "pitch": 51,
            "start": 14.720454545454544,
            "end": 14.729545454545454,
            "velocity": 78,
            "duration": 0.009090909090909705
          },
          {
            "pitch": 51,
            "start": 14.813636363636363,
            "end": 14.820454545454545,
            "velocity": 81,
            "duration": 0.0068181818181827225
          },
          {
            "pitch": 35,
            "start": 14.745454545454544,
            "end": 14.845454545454544,
            "velocity": 82,
            "duration": 0.09999999999999964
          },
          {
            "pitch": 35,
            "start": 14.813636363636363,
            "end": 14.845454545454544,
            "velocity": 111,
            "duration": 0.0318181818181813
          },
          {
            "pitch": 37,
            "start": 14.768181818181818,
            "end": 14.868181818181817,
            "velocity": 73,
            "duration": 0.09999999999999964
          },
          {
            "pitch": 37,
            "start": 14.861363636363636,
            "end": 14.868181818181817,
            "velocity": 99,
            "duration": 0.006818181818180946
          },
          {
            "pitch": 35,
            "start": 14.884090909090908,
            "end": 14.913636363636362,
            "velocity": 64,
            "duration": 0.02954545454545432
          },
          {
            "pitch": 42,
            "start": 14.813636363636363,
            "end": 14.913636363636362,
            "velocity": 101,
            "duration": 0.09999999999999964
          },
          {
            "pitch": 51,
            "start": 14.906818181818181,
            "end": 14.913636363636362,
            "velocity": 88,
            "duration": 0.006818181818180946
          },
          {
            "pitch": 37,
            "start": 14.929545454545455,
            "end": 14.961363636363636,
            "velocity": 64,
            "duration": 0.0318181818181813
          },
          {
            "pitch": 35,
            "start": 14.929545454545455,
            "end": 14.984090909090908,
            "velocity": 65,
            "duration": 0.0545454545454529
          },
          {
            "pitch": 51,
            "start": 14.977272727272727,
            "end": 15.006818181818181,
            "velocity": 93,
            "duration": 0.02954545454545432
          },
          {
            "pitch": 51,
            "start": 15.070454545454545,
            "end": 15.077272727272726,
            "velocity": 64,
            "duration": 0.006818181818180946
          },
          {
            "pitch": 37,
            "start": 15.045454545454545,
            "end": 15.145454545454545,
            "velocity": 101,
            "duration": 0.09999999999999964
          },
          {
            "pitch": 37,
            "start": 15.093181818181817,
            "end": 15.145454545454545,
            "velocity": 89,
            "duration": 0.05227272727272769
          },
          {
            "pitch": 37,
            "start": 15.138636363636364,
            "end": 15.145454545454545,
            "velocity": 101,
            "duration": 0.006818181818180946
          },
          {
            "pitch": 51,
            "start": 15.163636363636362,
            "end": 15.170454545454545,
            "velocity": 71,
            "duration": 0.0068181818181827225
          },
          {
            "pitch": 37,
            "start": 15.186363636363636,
            "end": 15.193181818181817,
            "velocity": 66,
            "duration": 0.006818181818180946
          },
          {
            "pitch": 51,
            "start": 15.254545454545454,
            "end": 15.263636363636364,
            "velocity": 78,
            "duration": 0.009090909090909705
          },
          {
            "pitch": 42,
            "start": 15.186363636363636,
            "end": 15.286363636363635,
            "velocity": 65,
            "duration": 0.09999999999999964
          },
          {
            "pitch": 42,
            "start": 15.279545454545454,
            "end": 15.286363636363635,
            "velocity": 67,
            "duration": 0.006818181818180946
          },
          {
            "pitch": 51,
            "start": 15.302272727272726,
            "end": 15.354545454545454,
            "velocity": 76,
            "duration": 0.05227272727272769
          },
          {
            "pitch": 51,
            "start": 15.347727272727273,
            "end": 15.354545454545454,
            "velocity": 94,
            "duration": 0.006818181818180946
          },
          {
            "pitch": 42,
            "start": 15.372727272727271,
            "end": 15.379545454545454,
            "velocity": 87,
            "duration": 0.0068181818181827225
          },
          {
            "pitch": 51,
            "start": 15.418181818181818,
            "end": 15.447727272727272,
            "velocity": 71,
            "duration": 0.02954545454545432
          },
          {
            "pitch": 51,
            "start": 15.463636363636363,
            "end": 15.518181818181818,
            "velocity": 69,
            "duration": 0.054545454545454675
          },
          {
            "pitch": 51,
            "start": 15.534090909090908,
            "end": 15.563636363636363,
            "velocity": 87,
            "duration": 0.02954545454545432
          },
          {
            "pitch": 37,
            "start": 15.488636363636363,
            "end": 15.588636363636363,
            "velocity": 87,
            "duration": 0.09999999999999964
          },
          {
            "pitch": 51,
            "start": 15.627272727272727,
            "end": 15.634090909090908,
            "velocity": 86,
            "duration": 0.006818181818180946
          },
          {
            "pitch": 42,
            "start": 15.556818181818182,
            "end": 15.656818181818181,
            "velocity": 77,
            "duration": 0.09999999999999964
          },
          {
            "pitch": 35,
            "start": 15.627272727272727,
            "end": 15.727272727272727,
            "velocity": 110,
            "duration": 0.09999999999999964
          },
          {
            "pitch": 51,
            "start": 15.720454545454544,
            "end": 15.727272727272727,
            "velocity": 90,
            "duration": 0.0068181818181827225
          },
          {
            "pitch": 51,
            "start": 15.788636363636362,
            "end": 15.820454545454545,
            "velocity": 77,
            "duration": 0.03181818181818308
          },
          {
            "pitch": 35,
            "start": 15.743181818181817,
            "end": 15.843181818181817,
            "velocity": 69,
            "duration": 0.09999999999999964
          },
          {
            "pitch": 37,
            "start": 15.76590909090909,
            "end": 15.86590909090909,
            "velocity": 107,
            "duration": 0.09999999999999964
          },
          {
            "pitch": 37,
            "start": 15.859090909090908,
            "end": 15.86590909090909,
            "velocity": 88,
            "duration": 0.0068181818181827225
          },
          {
            "pitch": 51,
            "start": 15.881818181818181,
            "end": 15.888636363636364,
            "velocity": 63,
            "duration": 0.0068181818181827225
          },
          {
            "pitch": 42,
            "start": 15.813636363636363,
            "end": 15.913636363636362,
            "velocity": 72,
            "duration": 0.09999999999999964
          },
          {
            "pitch": 37,
            "start": 15.904545454545454,
            "end": 15.959090909090909,
            "velocity": 69,
            "duration": 0.054545454545454675
          },
          {
            "pitch": 35,
            "start": 15.997727272727271,
            "end": 16.097727272727273,
            "velocity": 86,
            "duration": 0.10000000000000142
          },
          {
            "pitch": 51,
            "start": 15.997727272727271,
            "end": 16.097727272727273,
            "velocity": 86,
            "duration": 0.10000000000000142
          },
          {
            "pitch": 51,
            "start": 16.09090909090909,
            "end": 16.097727272727273,
            "velocity": 68,
            "duration": 0.0068181818181827225
          },
          {
            "pitch": 42,
            "start": 16.068181818181817,
            "end": 16.168181818181818,
            "velocity": 63,
            "duration": 0.10000000000000142
          },
          {
            "pitch": 51,
            "start": 16.161363636363635,
            "end": 16.19090909090909,
            "velocity": 71,
            "duration": 0.029545454545456096
          },
          {
            "pitch": 51,
            "start": 16.254545454545454,
            "end": 16.261363636363637,
            "velocity": 84,
            "duration": 0.0068181818181827225
          },
          {
            "pitch": 37,
            "start": 16.18409090909091,
            "end": 16.28409090909091,
            "velocity": 68,
            "duration": 0.10000000000000142
          },
          {
            "pitch": 35,
            "start": 16.254545454545454,
            "end": 16.354545454545455,
            "velocity": 85,
            "duration": 0.10000000000000142
          },
          {
            "pitch": 51,
            "start": 16.347727272727273,
            "end": 16.354545454545455,
            "velocity": 84,
            "duration": 0.0068181818181827225
          },
          {
            "pitch": 37,
            "start": 16.3,
            "end": 16.4,
            "velocity": 66,
            "duration": 0.09999999999999787
          },
          {
            "pitch": 37,
            "start": 16.393181818181816,
            "end": 16.4,
            "velocity": 97,
            "duration": 0.0068181818181827225
          },
          {
            "pitch": 51,
            "start": 16.438636363636363,
            "end": 16.44772727272727,
            "velocity": 67,
            "duration": 0.009090909090907928
          },
          {
            "pitch": 35,
            "start": 16.370454545454546,
            "end": 16.470454545454544,
            "velocity": 92,
            "duration": 0.09999999999999787
          },
          {
            "pitch": 42,
            "start": 16.370454545454546,
            "end": 16.470454545454544,
            "velocity": 73,
            "duration": 0.09999999999999787
          },
          {
            "pitch": 42,
            "start": 16.438636363636363,
            "end": 16.470454545454544,
            "velocity": 69,
            "duration": 0.0318181818181813
          },
          {
            "pitch": 37,
            "start": 16.486363636363635,
            "end": 16.493181818181817,
            "velocity": 99,
            "duration": 0.0068181818181827225
          },
          {
            "pitch": 51,
            "start": 16.53181818181818,
            "end": 16.538636363636364,
            "velocity": 65,
            "duration": 0.0068181818181827225
          },
          {
            "pitch": 35,
            "start": 16.625,
            "end": 16.724999999999998,
            "velocity": 109,
            "duration": 0.09999999999999787
          },
          {
            "pitch": 35,
            "start": 16.74090909090909,
            "end": 16.84090909090909,
            "velocity": 68,
            "duration": 0.10000000000000142
          },
          {
            "pitch": 37,
            "start": 16.76590909090909,
            "end": 16.86590909090909,
            "velocity": 79,
            "duration": 0.09999999999999787
          },
          {
            "pitch": 37,
            "start": 16.85681818181818,
            "end": 16.86590909090909,
            "velocity": 91,
            "duration": 0.009090909090907928
          },
          {
            "pitch": 37,
            "start": 16.95,
            "end": 16.956818181818182,
            "velocity": 100,
            "duration": 0.0068181818181827225
          },
          {
            "pitch": 35,
            "start": 16.881818181818183,
            "end": 16.98181818181818,
            "velocity": 65,
            "duration": 0.09999999999999787
          },
          {
            "pitch": 35,
            "start": 16.927272727272726,
            "end": 16.98181818181818,
            "velocity": 67,
            "duration": 0.054545454545454675
          },
          {
            "pitch": 37,
            "start": 17.06590909090909,
            "end": 17.16590909090909,
            "velocity": 75,
            "duration": 0.09999999999999787
          },
          {
            "pitch": 51,
            "start": 17.113636363636363,
            "end": 17.21363636363636,
            "velocity": 67,
            "duration": 0.09999999999999787
          },
          {
            "pitch": 51,
            "start": 17.18181818181818,
            "end": 17.21363636363636,
            "velocity": 78,
            "duration": 0.0318181818181813
          },
          {
            "pitch": 37,
            "start": 17.206818181818182,
            "end": 17.30681818181818,
            "velocity": 66,
            "duration": 0.09999999999999787
          },
          {
            "pitch": 37,
            "start": 17.275,
            "end": 17.30681818181818,
            "velocity": 90,
            "duration": 0.0318181818181813
          },
          {
            "pitch": 45,
            "start": 17.3,
            "end": 17.4,
            "velocity": 89,
            "duration": 0.09999999999999787
          },
          {
            "pitch": 41,
            "start": 17.39090909090909,
            "end": 17.49090909090909,
            "velocity": 67,
            "duration": 0.09999999999999787
          },
          {
            "pitch": 41,
            "start": 17.438636363636363,
            "end": 17.49090909090909,
            "velocity": 64,
            "duration": 0.052272727272725916
          },
          {
            "pitch": 51,
            "start": 17.41590909090909,
            "end": 17.51590909090909,
            "velocity": 71,
            "duration": 0.10000000000000142
          },
          {
            "pitch": 41,
            "start": 17.53181818181818,
            "end": 17.538636363636364,
            "velocity": 83,
            "duration": 0.0068181818181827225
          },
          {
            "pitch": 35,
            "start": 17.461363636363636,
            "end": 17.561363636363634,
            "velocity": 70,
            "duration": 0.09999999999999787
          },
          {
            "pitch": 35,
            "start": 17.554545454545455,
            "end": 17.561363636363634,
            "velocity": 68,
            "duration": 0.00681818181817917
          },
          {
            "pitch": 35,
            "start": 17.625,
            "end": 17.654545454545453,
            "velocity": 101,
            "duration": 0.029545454545452543
          },
          {
            "pitch": 51,
            "start": 17.625,
            "end": 17.724999999999998,
            "velocity": 86,
            "duration": 0.09999999999999787
          },
          {
            "pitch": 51,
            "start": 17.693181818181817,
            "end": 17.724999999999998,
            "velocity": 71,
            "duration": 0.0318181818181813
          },
          {
            "pitch": 51,
            "start": 17.786363636363635,
            "end": 17.793181818181818,
            "velocity": 80,
            "duration": 0.0068181818181827225
          },
          {
            "pitch": 51,
            "start": 17.879545454545454,
            "end": 17.886363636363637,
            "velocity": 85,
            "duration": 0.0068181818181827225
          },
          {
            "pitch": 35,
            "start": 17.80909090909091,
            "end": 17.909090909090907,
            "velocity": 84,
            "duration": 0.09999999999999787
          },
          {
            "pitch": 35,
            "start": 17.879545454545454,
            "end": 17.909090909090907,
            "velocity": 82,
            "duration": 0.029545454545452543
          },
          {
            "pitch": 42,
            "start": 17.80909090909091,
            "end": 17.909090909090907,
            "velocity": 77,
            "duration": 0.09999999999999787
          },
          {
            "pitch": 37,
            "start": 17.85681818181818,
            "end": 17.956818181818182,
            "velocity": 79,
            "duration": 0.10000000000000142
          },
          {
            "pitch": 51,
            "start": 17.972727272727273,
            "end": 17.979545454545455,
            "velocity": 77,
            "duration": 0.0068181818181827225
          },
          {
            "pitch": 51,
            "start": 18.06590909090909,
            "end": 18.07272727272727,
            "velocity": 73,
            "duration": 0.00681818181817917
          },
          {
            "pitch": 35,
            "start": 17.995454545454546,
            "end": 18.095454545454544,
            "velocity": 79,
            "duration": 0.09999999999999787
          },
          {
            "pitch": 35,
            "start": 18.06590909090909,
            "end": 18.095454545454544,
            "velocity": 92,
            "duration": 0.029545454545452543
          },
          {
            "pitch": 42,
            "start": 17.995454545454546,
            "end": 18.095454545454544,
            "velocity": 88,
            "duration": 0.09999999999999787
          },
          {
            "pitch": 42,
            "start": 18.06590909090909,
            "end": 18.095454545454544,
            "velocity": 67,
            "duration": 0.029545454545452543
          },
          {
            "pitch": 37,
            "start": 18.018181818181816,
            "end": 18.118181818181817,
            "velocity": 73,
            "duration": 0.10000000000000142
          },
          {
            "pitch": 51,
            "start": 18.159090909090907,
            "end": 18.16590909090909,
            "velocity": 83,
            "duration": 0.0068181818181827225
          },
          {
            "pitch": 51,
            "start": 18.25,
            "end": 18.259090909090908,
            "velocity": 79,
            "duration": 0.009090909090907928
          },
          {
            "pitch": 35,
            "start": 18.18181818181818,
            "end": 18.28181818181818,
            "velocity": 89,
            "duration": 0.10000000000000142
          },
          {
            "pitch": 35,
            "start": 18.25,
            "end": 18.28181818181818,
            "velocity": 106,
            "duration": 0.0318181818181813
          },
          {
            "pitch": 42,
            "start": 18.18181818181818,
            "end": 18.28181818181818,
            "velocity": 77,
            "duration": 0.10000000000000142
          },
          {
            "pitch": 42,
            "start": 18.25,
            "end": 18.28181818181818,
            "velocity": 70,
            "duration": 0.0318181818181813
          },
          {
            "pitch": 51,
            "start": 18.34318181818182,
            "end": 18.349999999999998,
            "velocity": 73,
            "duration": 0.00681818181817917
          },
          {
            "pitch": 37,
            "start": 18.297727272727272,
            "end": 18.397727272727273,
            "velocity": 64,
            "duration": 0.10000000000000142
          },
          {
            "pitch": 51,
            "start": 18.436363636363634,
            "end": 18.443181818181817,
            "velocity": 74,
            "duration": 0.0068181818181827225
          },
          {
            "pitch": 35,
            "start": 18.36590909090909,
            "end": 18.46590909090909,
            "velocity": 72,
            "duration": 0.10000000000000142
          },
          {
            "pitch": 35,
            "start": 18.436363636363634,
            "end": 18.46590909090909,
            "velocity": 105,
            "duration": 0.029545454545456096
          },
          {
            "pitch": 42,
            "start": 18.436363636363634,
            "end": 18.536363636363635,
            "velocity": 80,
            "duration": 0.10000000000000142
          },
          {
            "pitch": 37,
            "start": 18.459090909090907,
            "end": 18.55909090909091,
            "velocity": 69,
            "duration": 0.10000000000000142
          },
          {
            "pitch": 37,
            "start": 18.529545454545453,
            "end": 18.55909090909091,
            "velocity": 64,
            "duration": 0.029545454545456096
          },
          {
            "pitch": 35,
            "start": 18.62272727272727,
            "end": 18.722727272727273,
            "velocity": 96,
            "duration": 0.10000000000000142
          },
          {
            "pitch": 35,
            "start": 18.693181818181817,
            "end": 18.722727272727273,
            "velocity": 82,
            "duration": 0.029545454545456096
          },
          {
            "pitch": 42,
            "start": 18.62272727272727,
            "end": 18.722727272727273,
            "velocity": 77,
            "duration": 0.10000000000000142
          },
          {
            "pitch": 51,
            "start": 18.62272727272727,
            "end": 18.722727272727273,
            "velocity": 86,
            "duration": 0.10000000000000142
          },
          {
            "pitch": 51,
            "start": 18.693181818181817,
            "end": 18.722727272727273,
            "velocity": 84,
            "duration": 0.029545454545456096
          },
          {
            "pitch": 51,
            "start": 18.784090909090907,
            "end": 18.793181818181818,
            "velocity": 75,
            "duration": 0.009090909090911481
          },
          {
            "pitch": 51,
            "start": 18.877272727272725,
            "end": 18.884090909090908,
            "velocity": 83,
            "duration": 0.0068181818181827225
          },
          {
            "pitch": 35,
            "start": 18.80909090909091,
            "end": 18.909090909090907,
            "velocity": 71,
            "duration": 0.09999999999999787
          },
          {
            "pitch": 35,
            "start": 18.877272727272725,
            "end": 18.909090909090907,
            "velocity": 87,
            "duration": 0.0318181818181813
          },
          {
            "pitch": 42,
            "start": 18.80909090909091,
            "end": 18.909090909090907,
            "velocity": 65,
            "duration": 0.09999999999999787
          },
          {
            "pitch": 37,
            "start": 18.854545454545455,
            "end": 18.954545454545453,
            "velocity": 64,
            "duration": 0.09999999999999787
          },
          {
            "pitch": 51,
            "start": 18.970454545454544,
            "end": 18.977272727272727,
            "velocity": 77,
            "duration": 0.0068181818181827225
          },
          {
            "pitch": 51,
            "start": 19.063636363636363,
            "end": 19.070454545454545,
            "velocity": 78,
            "duration": 0.0068181818181827225
          },
          {
            "pitch": 35,
            "start": 18.993181818181817,
            "end": 19.09318181818182,
            "velocity": 75,
            "duration": 0.10000000000000142
          },
          {
            "pitch": 35,
            "start": 19.063636363636363,
            "end": 19.09318181818182,
            "velocity": 103,
            "duration": 0.029545454545456096
          },
          {
            "pitch": 42,
            "start": 18.993181818181817,
            "end": 19.09318181818182,
            "velocity": 71,
            "duration": 0.10000000000000142
          },
          {
            "pitch": 42,
            "start": 19.063636363636363,
            "end": 19.09318181818182,
            "velocity": 82,
            "duration": 0.029545454545456096
          },
          {
            "pitch": 37,
            "start": 19.018181818181816,
            "end": 19.118181818181817,
            "velocity": 71,
            "duration": 0.10000000000000142
          },
          {
            "pitch": 51,
            "start": 19.15681818181818,
            "end": 19.163636363636364,
            "velocity": 80,
            "duration": 0.0068181818181827225
          },
          {
            "pitch": 51,
            "start": 19.25,
            "end": 19.25681818181818,
            "velocity": 86,
            "duration": 0.00681818181817917
          },
          {
            "pitch": 35,
            "start": 19.179545454545455,
            "end": 19.279545454545453,
            "velocity": 66,
            "duration": 0.09999999999999787
          },
          {
            "pitch": 35,
            "start": 19.25,
            "end": 19.279545454545453,
            "velocity": 102,
            "duration": 0.029545454545452543
          },
          {
            "pitch": 37,
            "start": 19.224999999999998,
            "end": 19.325,
            "velocity": 79,
            "duration": 0.10000000000000142
          },
          {
            "pitch": 42,
            "start": 19.25,
            "end": 19.349999999999998,
            "velocity": 98,
            "duration": 0.09999999999999787
          },
          {
            "pitch": 37,
            "start": 19.34318181818182,
            "end": 19.443181818181817,
            "velocity": 75,
            "duration": 0.09999999999999787
          },
          {
            "pitch": 51,
            "start": 19.411363636363635,
            "end": 19.511363636363637,
            "velocity": 72,
            "duration": 0.10000000000000142
          },
          {
            "pitch": 51,
            "start": 19.48181818181818,
            "end": 19.511363636363637,
            "velocity": 82,
            "duration": 0.029545454545456096
          },
          {
            "pitch": 35,
            "start": 19.43409090909091,
            "end": 19.534090909090907,
            "velocity": 84,
            "duration": 0.09999999999999787
          },
          {
            "pitch": 37,
            "start": 19.459090909090907,
            "end": 19.55909090909091,
            "velocity": 88,
            "duration": 0.10000000000000142
          },
          {
            "pitch": 37,
            "start": 19.552272727272726,
            "end": 19.55909090909091,
            "velocity": 74,
            "duration": 0.0068181818181827225
          },
          {
            "pitch": 51,
            "start": 19.527272727272727,
            "end": 19.581818181818182,
            "velocity": 66,
            "duration": 0.054545454545454675
          },
          {
            "pitch": 51,
            "start": 19.597727272727273,
            "end": 19.627272727272725,
            "velocity": 63,
            "duration": 0.029545454545452543
          },
          {
            "pitch": 37,
            "start": 19.643181818181816,
            "end": 19.652272727272727,
            "velocity": 94,
            "duration": 0.009090909090911481
          },
          {
            "pitch": 51,
            "start": 19.784090909090907,
            "end": 19.884090909090908,
            "velocity": 86,
            "duration": 0.10000000000000142
          },
          {
            "pitch": 51,
            "start": 19.877272727272725,
            "end": 19.884090909090908,
            "velocity": 76,
            "duration": 0.0068181818181827225
          },
          {
            "pitch": 51,
            "start": 19.922727272727272,
            "end": 19.977272727272727,
            "velocity": 71,
            "duration": 0.054545454545454675
          },
          {
            "pitch": 35,
            "start": 19.993181818181817,
            "end": 20.09318181818182,
            "velocity": 72,
            "duration": 0.10000000000000142
          },
          {
            "pitch": 37,
            "start": 20.01590909090909,
            "end": 20.11590909090909,
            "velocity": 67,
            "duration": 0.09999999999999787
          },
          {
            "pitch": 51,
            "start": 20.038636363636364,
            "end": 20.138636363636362,
            "velocity": 70,
            "duration": 0.09999999999999787
          },
          {
            "pitch": 42,
            "start": 20.061363636363634,
            "end": 20.161363636363635,
            "velocity": 66,
            "duration": 0.10000000000000142
          },
          {
            "pitch": 51,
            "start": 20.154545454545453,
            "end": 20.254545454545454,
            "velocity": 82,
            "duration": 0.10000000000000142
          },
          {
            "pitch": 51,
            "start": 20.24772727272727,
            "end": 20.254545454545454,
            "velocity": 75,
            "duration": 0.0068181818181827225
          },
          {
            "pitch": 35,
            "start": 20.24772727272727,
            "end": 20.347727272727273,
            "velocity": 94,
            "duration": 0.10000000000000142
          },
          {
            "pitch": 37,
            "start": 20.270454545454545,
            "end": 20.370454545454546,
            "velocity": 95,
            "duration": 0.10000000000000142
          },
          {
            "pitch": 37,
            "start": 20.318181818181817,
            "end": 20.370454545454546,
            "velocity": 70,
            "duration": 0.05227272727272947
          },
          {
            "pitch": 37,
            "start": 20.411363636363635,
            "end": 20.418181818181818,
            "velocity": 78,
            "duration": 0.0068181818181827225
          },
          {
            "pitch": 37,
            "start": 20.456818181818182,
            "end": 20.511363636363637,
            "velocity": 68,
            "duration": 0.054545454545454675
          },
          {
            "pitch": 37,
            "start": 20.55,
            "end": 20.55681818181818,
            "velocity": 65,
            "duration": 0.00681818181817917
          },
          {
            "pitch": 51,
            "start": 20.502272727272725,
            "end": 20.602272727272727,
            "velocity": 70,
            "duration": 0.10000000000000142
          },
          {
            "pitch": 37,
            "start": 20.643181818181816,
            "end": 20.65,
            "velocity": 83,
            "duration": 0.0068181818181827225
          },
          {
            "pitch": 35,
            "start": 20.620454545454546,
            "end": 20.720454545454544,
            "velocity": 80,
            "duration": 0.09999999999999787
          },
          {
            "pitch": 37,
            "start": 20.736363636363635,
            "end": 20.743181818181817,
            "velocity": 70,
            "duration": 0.0068181818181827225
          },
          {
            "pitch": 51,
            "start": 20.78181818181818,
            "end": 20.88181818181818,
            "velocity": 71,
            "duration": 0.09999999999999787
          },
          {
            "pitch": 51,
            "start": 20.875,
            "end": 20.88181818181818,
            "velocity": 76,
            "duration": 0.00681818181817917
          },
          {
            "pitch": 37,
            "start": 20.852272727272727,
            "end": 20.952272727272724,
            "velocity": 65,
            "duration": 0.09999999999999787
          },
          {
            "pitch": 37,
            "start": 20.897727272727273,
            "end": 20.952272727272724,
            "velocity": 67,
            "duration": 0.05454545454545112
          },
          {
            "pitch": 35,
            "start": 20.875,
            "end": 20.974999999999998,
            "velocity": 93,
            "duration": 0.09999999999999787
          },
          {
            "pitch": 35,
            "start": 20.99090909090909,
            "end": 21.09090909090909,
            "velocity": 70,
            "duration": 0.10000000000000142
          },
          {
            "pitch": 37,
            "start": 21.013636363636362,
            "end": 21.113636363636363,
            "velocity": 65,
            "duration": 0.10000000000000142
          },
          {
            "pitch": 45,
            "start": 21.084090909090907,
            "end": 21.18409090909091,
            "velocity": 63,
            "duration": 0.10000000000000142
          },
          {
            "pitch": 35,
            "start": 21.245454545454546,
            "end": 21.345454545454544,
            "velocity": 78,
            "duration": 0.09999999999999787
          },
          {
            "pitch": 37,
            "start": 21.270454545454545,
            "end": 21.370454545454546,
            "velocity": 87,
            "duration": 0.10000000000000142
          },
          {
            "pitch": 37,
            "start": 21.33863636363636,
            "end": 21.370454545454546,
            "velocity": 71,
            "duration": 0.031818181818184854
          },
          {
            "pitch": 37,
            "start": 21.454545454545453,
            "end": 21.554545454545455,
            "velocity": 75,
            "duration": 0.10000000000000142
          }
        ],
        "melodic_notes": [],
        "instruments": [
          {
            "program": "0",
            "is_drum": true,
            "name": "",
            "note_count": 694
          }
        ],
        "duration": 21.554545454545455,
        "tempo_changes": 0
      },
      {
        "file_path": "/home/matt/Documents/drum-tranxn/drum-transcription-api/test_audio/debug_output.mid",
        "total_notes": 694,
        "drum_notes": [
          {
            "pitch": 35,
            "start": 0.07045454545454545,
            "end": 0.12045454545454545,
            "velocity": 126,
            "duration": 0.05
          },
          {
            "pitch": 51,
            "start": 0.07045454545454545,
            "end": 0.12045454545454545,
            "velocity": 109,
            "duration": 0.05
          },
          {
            "pitch": 42,
            "start": 0.09318181818181817,
            "end": 0.1431818181818182,
            "velocity": 104,
            "duration": 0.05000000000000002
          },
          {
            "pitch": 45,
            "start": 0.09318181818181817,
            "end": 0.1431818181818182,
            "velocity": 64,
            "duration": 0.05000000000000002
          },
          {
            "pitch": 35,
            "start": 0.16363636363636364,
            "end": 0.21363636363636362,
            "velocity": 100,
            "duration": 0.04999999999999999
          },
          {
            "pitch": 51,
            "start": 0.16363636363636364,
            "end": 0.21363636363636362,
            "velocity": 112,
            "duration": 0.04999999999999999
          },
          {
            "pitch": 41,
            "start": 0.18636363636363634,
            "end": 0.23636363636363636,
            "velocity": 75,
            "duration": 0.05000000000000002
          },
          {
            "pitch": 42,
            "start": 0.18636363636363634,
            "end": 0.23636363636363636,
            "velocity": 70,
            "duration": 0.05000000000000002
          },
          {
            "pitch": 35,
            "start": 0.2545454545454545,
            "end": 0.3045454545454545,
            "velocity": 120,
            "duration": 0.04999999999999999
          },
          {
            "pitch": 41,
            "start": 0.2545454545454545,
            "end": 0.3045454545454545,
            "velocity": 79,
            "duration": 0.04999999999999999
          },
          {
            "pitch": 42,
            "start": 0.2545454545454545,
            "end": 0.3045454545454545,
            "velocity": 106,
            "duration": 0.04999999999999999
          },
          {
            "pitch": 51,
            "start": 0.2545454545454545,
            "end": 0.3045454545454545,
            "velocity": 113,
            "duration": 0.04999999999999999
          },
          {
            "pitch": 51,
            "start": 0.3477272727272727,
            "end": 0.3977272727272727,
            "velocity": 114,
            "duration": 0.04999999999999999
          },
          {
            "pitch": 35,
            "start": 0.3704545454545454,
            "end": 0.4204545454545454,
            "velocity": 102,
            "duration": 0.04999999999999999
          },
          {
            "pitch": 41,
            "start": 0.3704545454545454,
            "end": 0.4204545454545454,
            "velocity": 81,
            "duration": 0.04999999999999999
          },
          {
            "pitch": 42,
            "start": 0.3704545454545454,
            "end": 0.4204545454545454,
            "velocity": 78,
            "duration": 0.04999999999999999
          },
          {
            "pitch": 45,
            "start": 0.3704545454545454,
            "end": 0.4204545454545454,
            "velocity": 63,
            "duration": 0.04999999999999999
          },
          {
            "pitch": 35,
            "start": 0.44090909090909086,
            "end": 0.4909090909090909,
            "velocity": 106,
            "duration": 0.050000000000000044
          },
          {
            "pitch": 41,
            "start": 0.44090909090909086,
            "end": 0.4909090909090909,
            "velocity": 75,
            "duration": 0.050000000000000044
          },
          {
            "pitch": 51,
            "start": 0.44090909090909086,
            "end": 0.4909090909090909,
            "velocity": 88,
            "duration": 0.050000000000000044
          },
          {
            "pitch": 37,
            "start": 0.4636363636363636,
            "end": 0.5136363636363636,
            "velocity": 78,
            "duration": 0.04999999999999993
          },
          {
            "pitch": 35,
            "start": 0.5113636363636364,
            "end": 0.5613636363636363,
            "velocity": 123,
            "duration": 0.04999999999999993
          },
          {
            "pitch": 41,
            "start": 0.5340909090909091,
            "end": 0.5840909090909091,
            "velocity": 67,
            "duration": 0.050000000000000044
          },
          {
            "pitch": 51,
            "start": 0.5340909090909091,
            "end": 0.5840909090909091,
            "velocity": 111,
            "duration": 0.050000000000000044
          },
          {
            "pitch": 42,
            "start": 0.5568181818181818,
            "end": 0.6068181818181818,
            "velocity": 80,
            "duration": 0.050000000000000044
          },
          {
            "pitch": 35,
            "start": 0.6272727272727272,
            "end": 0.6772727272727272,
            "velocity": 112,
            "duration": 0.050000000000000044
          },
          {
            "pitch": 42,
            "start": 0.6272727272727272,
            "end": 0.6772727272727272,
            "velocity": 118,
            "duration": 0.050000000000000044
          },
          {
            "pitch": 45,
            "start": 0.6272727272727272,
            "end": 0.6772727272727272,
            "velocity": 71,
            "duration": 0.050000000000000044
          },
          {
            "pitch": 51,
            "start": 0.6272727272727272,
            "end": 0.6772727272727272,
            "velocity": 103,
            "duration": 0.050000000000000044
          },
          {
            "pitch": 41,
            "start": 0.65,
            "end": 0.7,
            "velocity": 103,
            "duration": 0.04999999999999993
          },
          {
            "pitch": 35,
            "start": 0.6977272727272726,
            "end": 0.7477272727272727,
            "velocity": 88,
            "duration": 0.050000000000000044
          },
          {
            "pitch": 41,
            "start": 0.7204545454545455,
            "end": 0.7704545454545454,
            "velocity": 75,
            "duration": 0.04999999999999993
          },
          {
            "pitch": 51,
            "start": 0.7204545454545455,
            "end": 0.7704545454545454,
            "velocity": 113,
            "duration": 0.04999999999999993
          },
          {
            "pitch": 51,
            "start": 0.7886363636363636,
            "end": 0.8386363636363636,
            "velocity": 110,
            "duration": 0.050000000000000044
          },
          {
            "pitch": 35,
            "start": 0.8136363636363636,
            "end": 0.8636363636363636,
            "velocity": 121,
            "duration": 0.050000000000000044
          },
          {
            "pitch": 42,
            "start": 0.8136363636363636,
            "end": 0.8636363636363636,
            "velocity": 113,
            "duration": 0.050000000000000044
          },
          {
            "pitch": 35,
            "start": 0.8818181818181817,
            "end": 0.9318181818181818,
            "velocity": 121,
            "duration": 0.050000000000000044
          },
          {
            "pitch": 51,
            "start": 0.9045454545454545,
            "end": 0.9545454545454545,
            "velocity": 84,
            "duration": 0.04999999999999993
          },
          {
            "pitch": 35,
            "start": 0.9522727272727273,
            "end": 1.0022727272727272,
            "velocity": 89,
            "duration": 0.04999999999999993
          },
          {
            "pitch": 42,
            "start": 0.975,
            "end": 1.025,
            "velocity": 85,
            "duration": 0.04999999999999993
          },
          {
            "pitch": 51,
            "start": 0.975,
            "end": 1.025,
            "velocity": 101,
            "duration": 0.04999999999999993
          },
          {
            "pitch": 41,
            "start": 0.9977272727272727,
            "end": 1.0477272727272726,
            "velocity": 81,
            "duration": 0.04999999999999993
          },
          {
            "pitch": 35,
            "start": 1.0681818181818181,
            "end": 1.1181818181818182,
            "velocity": 89,
            "duration": 0.050000000000000044
          },
          {
            "pitch": 41,
            "start": 1.0681818181818181,
            "end": 1.1181818181818182,
            "velocity": 74,
            "duration": 0.050000000000000044
          },
          {
            "pitch": 42,
            "start": 1.0681818181818181,
            "end": 1.1181818181818182,
            "velocity": 91,
            "duration": 0.050000000000000044
          },
          {
            "pitch": 51,
            "start": 1.0681818181818181,
            "end": 1.1181818181818182,
            "velocity": 72,
            "duration": 0.050000000000000044
          },
          {
            "pitch": 51,
            "start": 1.1613636363636364,
            "end": 1.2113636363636362,
            "velocity": 94,
            "duration": 0.04999999999999982
          },
          {
            "pitch": 42,
            "start": 1.184090909090909,
            "end": 1.2340909090909091,
            "velocity": 73,
            "duration": 0.050000000000000044
          },
          {
            "pitch": 35,
            "start": 1.2545454545454544,
            "end": 1.3045454545454545,
            "velocity": 122,
            "duration": 0.050000000000000044
          },
          {
            "pitch": 42,
            "start": 1.2545454545454544,
            "end": 1.3045454545454545,
            "velocity": 70,
            "duration": 0.050000000000000044
          },
          {
            "pitch": 51,
            "start": 1.2545454545454544,
            "end": 1.3045454545454545,
            "velocity": 105,
            "duration": 0.050000000000000044
          },
          {
            "pitch": 51,
            "start": 1.3477272727272727,
            "end": 1.3977272727272727,
            "velocity": 89,
            "duration": 0.050000000000000044
          },
          {
            "pitch": 37,
            "start": 1.393181818181818,
            "end": 1.4431818181818181,
            "velocity": 113,
            "duration": 0.050000000000000044
          },
          {
            "pitch": 41,
            "start": 1.4159090909090908,
            "end": 1.4659090909090908,
            "velocity": 77,
            "duration": 0.050000000000000044
          },
          {
            "pitch": 35,
            "start": 1.4386363636363635,
            "end": 1.4886363636363635,
            "velocity": 122,
            "duration": 0.050000000000000044
          },
          {
            "pitch": 42,
            "start": 1.4386363636363635,
            "end": 1.4886363636363635,
            "velocity": 89,
            "duration": 0.050000000000000044
          },
          {
            "pitch": 51,
            "start": 1.4386363636363635,
            "end": 1.4886363636363635,
            "velocity": 85,
            "duration": 0.050000000000000044
          },
          {
            "pitch": 37,
            "start": 1.4863636363636363,
            "end": 1.5363636363636364,
            "velocity": 70,
            "duration": 0.050000000000000044
          },
          {
            "pitch": 35,
            "start": 1.509090909090909,
            "end": 1.559090909090909,
            "velocity": 115,
            "duration": 0.050000000000000044
          },
          {
            "pitch": 51,
            "start": 1.5318181818181817,
            "end": 1.5818181818181818,
            "velocity": 91,
            "duration": 0.050000000000000044
          },
          {
            "pitch": 42,
            "start": 1.5568181818181817,
            "end": 1.6068181818181817,
            "velocity": 92,
            "duration": 0.050000000000000044
          },
          {
            "pitch": 45,
            "start": 1.5795454545454544,
            "end": 1.6295454545454544,
            "velocity": 97,
            "duration": 0.050000000000000044
          },
          {
            "pitch": 35,
            "start": 1.625,
            "end": 1.6749999999999998,
            "velocity": 121,
            "duration": 0.04999999999999982
          },
          {
            "pitch": 41,
            "start": 1.625,
            "end": 1.6749999999999998,
            "velocity": 71,
            "duration": 0.04999999999999982
          },
          {
            "pitch": 42,
            "start": 1.625,
            "end": 1.6749999999999998,
            "velocity": 96,
            "duration": 0.04999999999999982
          },
          {
            "pitch": 51,
            "start": 1.625,
            "end": 1.6749999999999998,
            "velocity": 108,
            "duration": 0.04999999999999982
          },
          {
            "pitch": 35,
            "start": 1.6954545454545453,
            "end": 1.7454545454545454,
            "velocity": 72,
            "duration": 0.050000000000000044
          },
          {
            "pitch": 42,
            "start": 1.6954545454545453,
            "end": 1.7454545454545454,
            "velocity": 81,
            "duration": 0.050000000000000044
          },
          {
            "pitch": 51,
            "start": 1.6954545454545453,
            "end": 1.7454545454545454,
            "velocity": 70,
            "duration": 0.050000000000000044
          },
          {
            "pitch": 41,
            "start": 1.718181818181818,
            "end": 1.768181818181818,
            "velocity": 95,
            "duration": 0.050000000000000044
          },
          {
            "pitch": 51,
            "start": 1.7886363636363636,
            "end": 1.8386363636363636,
            "velocity": 105,
            "duration": 0.050000000000000044
          },
          {
            "pitch": 35,
            "start": 1.8113636363636363,
            "end": 1.8613636363636363,
            "velocity": 119,
            "duration": 0.050000000000000044
          },
          {
            "pitch": 42,
            "start": 1.8113636363636363,
            "end": 1.8613636363636363,
            "velocity": 102,
            "duration": 0.050000000000000044
          },
          {
            "pitch": 37,
            "start": 1.834090909090909,
            "end": 1.884090909090909,
            "velocity": 89,
            "duration": 0.050000000000000044
          },
          {
            "pitch": 35,
            "start": 1.8818181818181818,
            "end": 1.9318181818181817,
            "velocity": 121,
            "duration": 0.04999999999999982
          },
          {
            "pitch": 51,
            "start": 1.8818181818181818,
            "end": 1.9318181818181817,
            "velocity": 104,
            "duration": 0.04999999999999982
          },
          {
            "pitch": 42,
            "start": 1.9045454545454545,
            "end": 1.9545454545454544,
            "velocity": 95,
            "duration": 0.04999999999999982
          },
          {
            "pitch": 35,
            "start": 1.9727272727272727,
            "end": 2.0227272727272725,
            "velocity": 96,
            "duration": 0.04999999999999982
          },
          {
            "pitch": 51,
            "start": 1.9727272727272727,
            "end": 2.0227272727272725,
            "velocity": 83,
            "duration": 0.04999999999999982
          },
          {
            "pitch": 42,
            "start": 1.9977272727272726,
            "end": 2.047727272727273,
            "velocity": 78,
            "duration": 0.050000000000000266
          },
          {
            "pitch": 37,
            "start": 2.0204545454545455,
            "end": 2.0704545454545453,
            "velocity": 80,
            "duration": 0.04999999999999982
          },
          {
            "pitch": 35,
            "start": 2.065909090909091,
            "end": 2.1159090909090907,
            "velocity": 85,
            "duration": 0.04999999999999982
          },
          {
            "pitch": 51,
            "start": 2.065909090909091,
            "end": 2.1159090909090907,
            "velocity": 75,
            "duration": 0.04999999999999982
          },
          {
            "pitch": 35,
            "start": 2.1363636363636362,
            "end": 2.186363636363636,
            "velocity": 89,
            "duration": 0.04999999999999982
          },
          {
            "pitch": 41,
            "start": 2.159090909090909,
            "end": 2.209090909090909,
            "velocity": 90,
            "duration": 0.04999999999999982
          },
          {
            "pitch": 51,
            "start": 2.159090909090909,
            "end": 2.209090909090909,
            "velocity": 88,
            "duration": 0.04999999999999982
          },
          {
            "pitch": 42,
            "start": 2.1818181818181817,
            "end": 2.231818181818182,
            "velocity": 80,
            "duration": 0.050000000000000266
          },
          {
            "pitch": 35,
            "start": 2.252272727272727,
            "end": 2.3022727272727272,
            "velocity": 111,
            "duration": 0.050000000000000266
          },
          {
            "pitch": 41,
            "start": 2.252272727272727,
            "end": 2.3022727272727272,
            "velocity": 87,
            "duration": 0.050000000000000266
          },
          {
            "pitch": 42,
            "start": 2.252272727272727,
            "end": 2.3022727272727272,
            "velocity": 79,
            "duration": 0.050000000000000266
          },
          {
            "pitch": 51,
            "start": 2.252272727272727,
            "end": 2.3022727272727272,
            "velocity": 93,
            "duration": 0.050000000000000266
          },
          {
            "pitch": 37,
            "start": 2.275,
            "end": 2.3249999999999997,
            "velocity": 80,
            "duration": 0.04999999999999982
          },
          {
            "pitch": 37,
            "start": 2.3454545454545452,
            "end": 2.3954545454545455,
            "velocity": 73,
            "duration": 0.050000000000000266
          },
          {
            "pitch": 37,
            "start": 2.3909090909090907,
            "end": 2.3954545454545455,
            "velocity": 99,
            "duration": 0.004545454545454852
          },
          {
            "pitch": 51,
            "start": 2.3454545454545452,
            "end": 2.3954545454545455,
            "velocity": 94,
            "duration": 0.050000000000000266
          },
          {
            "pitch": 35,
            "start": 2.368181818181818,
            "end": 2.418181818181818,
            "velocity": 82,
            "duration": 0.04999999999999982
          },
          {
            "pitch": 42,
            "start": 2.368181818181818,
            "end": 2.418181818181818,
            "velocity": 116,
            "duration": 0.04999999999999982
          },
          {
            "pitch": 35,
            "start": 2.4386363636363635,
            "end": 2.4886363636363633,
            "velocity": 118,
            "duration": 0.04999999999999982
          },
          {
            "pitch": 42,
            "start": 2.4386363636363635,
            "end": 2.4886363636363633,
            "velocity": 83,
            "duration": 0.04999999999999982
          },
          {
            "pitch": 51,
            "start": 2.4386363636363635,
            "end": 2.4886363636363633,
            "velocity": 96,
            "duration": 0.04999999999999982
          },
          {
            "pitch": 37,
            "start": 2.484090909090909,
            "end": 2.534090909090909,
            "velocity": 74,
            "duration": 0.050000000000000266
          },
          {
            "pitch": 35,
            "start": 2.506818181818182,
            "end": 2.5568181818181817,
            "velocity": 109,
            "duration": 0.04999999999999982
          },
          {
            "pitch": 51,
            "start": 2.506818181818182,
            "end": 2.5568181818181817,
            "velocity": 88,
            "duration": 0.04999999999999982
          },
          {
            "pitch": 35,
            "start": 2.6227272727272726,
            "end": 2.6727272727272724,
            "velocity": 100,
            "duration": 0.04999999999999982
          },
          {
            "pitch": 42,
            "start": 2.6227272727272726,
            "end": 2.6727272727272724,
            "velocity": 107,
            "duration": 0.04999999999999982
          },
          {
            "pitch": 51,
            "start": 2.6227272727272726,
            "end": 2.6727272727272724,
            "velocity": 96,
            "duration": 0.04999999999999982
          },
          {
            "pitch": 41,
            "start": 2.6477272727272725,
            "end": 2.6977272727272728,
            "velocity": 89,
            "duration": 0.050000000000000266
          },
          {
            "pitch": 35,
            "start": 2.693181818181818,
            "end": 2.743181818181818,
            "velocity": 73,
            "duration": 0.050000000000000266
          },
          {
            "pitch": 42,
            "start": 2.693181818181818,
            "end": 2.743181818181818,
            "velocity": 100,
            "duration": 0.050000000000000266
          },
          {
            "pitch": 51,
            "start": 2.693181818181818,
            "end": 2.743181818181818,
            "velocity": 81,
            "duration": 0.050000000000000266
          },
          {
            "pitch": 35,
            "start": 2.786363636363636,
            "end": 2.8363636363636364,
            "velocity": 121,
            "duration": 0.050000000000000266
          },
          {
            "pitch": 51,
            "start": 2.786363636363636,
            "end": 2.8363636363636364,
            "velocity": 111,
            "duration": 0.050000000000000266
          },
          {
            "pitch": 42,
            "start": 2.809090909090909,
            "end": 2.859090909090909,
            "velocity": 104,
            "duration": 0.04999999999999982
          },
          {
            "pitch": 35,
            "start": 2.8795454545454544,
            "end": 2.9295454545454542,
            "velocity": 115,
            "duration": 0.04999999999999982
          },
          {
            "pitch": 42,
            "start": 2.8795454545454544,
            "end": 2.9295454545454542,
            "velocity": 89,
            "duration": 0.04999999999999982
          },
          {
            "pitch": 51,
            "start": 2.8795454545454544,
            "end": 2.9295454545454542,
            "velocity": 70,
            "duration": 0.04999999999999982
          },
          {
            "pitch": 37,
            "start": 2.925,
            "end": 2.9749999999999996,
            "velocity": 101,
            "duration": 0.04999999999999982
          },
          {
            "pitch": 37,
            "start": 2.9727272727272727,
            "end": 2.9749999999999996,
            "velocity": 94,
            "duration": 0.002272727272726982
          },
          {
            "pitch": 35,
            "start": 2.9499999999999997,
            "end": 3.0,
            "velocity": 74,
            "duration": 0.050000000000000266
          },
          {
            "pitch": 51,
            "start": 2.9727272727272727,
            "end": 3.0227272727272725,
            "velocity": 70,
            "duration": 0.04999999999999982
          },
          {
            "pitch": 42,
            "start": 2.995454545454545,
            "end": 3.0454545454545454,
            "velocity": 69,
            "duration": 0.050000000000000266
          },
          {
            "pitch": 41,
            "start": 3.0409090909090906,
            "end": 3.090909090909091,
            "velocity": 87,
            "duration": 0.050000000000000266
          },
          {
            "pitch": 35,
            "start": 3.065909090909091,
            "end": 3.1159090909090907,
            "velocity": 95,
            "duration": 0.04999999999999982
          },
          {
            "pitch": 42,
            "start": 3.065909090909091,
            "end": 3.1159090909090907,
            "velocity": 84,
            "duration": 0.04999999999999982
          },
          {
            "pitch": 51,
            "start": 3.065909090909091,
            "end": 3.1159090909090907,
            "velocity": 70,
            "duration": 0.04999999999999982
          },
          {
            "pitch": 41,
            "start": 3.1113636363636363,
            "end": 3.161363636363636,
            "velocity": 91,
            "duration": 0.04999999999999982
          },
          {
            "pitch": 42,
            "start": 3.1818181818181817,
            "end": 3.2318181818181815,
            "velocity": 80,
            "duration": 0.04999999999999982
          },
          {
            "pitch": 51,
            "start": 3.1818181818181817,
            "end": 3.2318181818181815,
            "velocity": 63,
            "duration": 0.04999999999999982
          },
          {
            "pitch": 37,
            "start": 3.227272727272727,
            "end": 3.277272727272727,
            "velocity": 64,
            "duration": 0.04999999999999982
          },
          {
            "pitch": 37,
            "start": 3.275,
            "end": 3.277272727272727,
            "velocity": 63,
            "duration": 0.002272727272726982
          },
          {
            "pitch": 35,
            "start": 3.25,
            "end": 3.3,
            "velocity": 119,
            "duration": 0.04999999999999982
          },
          {
            "pitch": 42,
            "start": 3.25,
            "end": 3.3,
            "velocity": 105,
            "duration": 0.04999999999999982
          },
          {
            "pitch": 51,
            "start": 3.25,
            "end": 3.3,
            "velocity": 91,
            "duration": 0.04999999999999982
          },
          {
            "pitch": 35,
            "start": 3.3204545454545453,
            "end": 3.370454545454545,
            "velocity": 81,
            "duration": 0.04999999999999982
          },
          {
            "pitch": 51,
            "start": 3.3204545454545453,
            "end": 3.370454545454545,
            "velocity": 72,
            "duration": 0.04999999999999982
          },
          {
            "pitch": 35,
            "start": 3.436363636363636,
            "end": 3.4863636363636363,
            "velocity": 121,
            "duration": 0.050000000000000266
          },
          {
            "pitch": 42,
            "start": 3.436363636363636,
            "end": 3.4863636363636363,
            "velocity": 105,
            "duration": 0.050000000000000266
          },
          {
            "pitch": 51,
            "start": 3.436363636363636,
            "end": 3.4863636363636363,
            "velocity": 92,
            "duration": 0.050000000000000266
          },
          {
            "pitch": 37,
            "start": 3.459090909090909,
            "end": 3.509090909090909,
            "velocity": 71,
            "duration": 0.04999999999999982
          },
          {
            "pitch": 35,
            "start": 3.506818181818182,
            "end": 3.5568181818181817,
            "velocity": 107,
            "duration": 0.04999999999999982
          },
          {
            "pitch": 51,
            "start": 3.506818181818182,
            "end": 3.5568181818181817,
            "velocity": 93,
            "duration": 0.04999999999999982
          },
          {
            "pitch": 37,
            "start": 3.5522727272727272,
            "end": 3.602272727272727,
            "velocity": 92,
            "duration": 0.04999999999999982
          },
          {
            "pitch": 51,
            "start": 3.5999999999999996,
            "end": 3.65,
            "velocity": 98,
            "duration": 0.050000000000000266
          },
          {
            "pitch": 35,
            "start": 3.6227272727272726,
            "end": 3.6727272727272724,
            "velocity": 96,
            "duration": 0.04999999999999982
          },
          {
            "pitch": 42,
            "start": 3.6227272727272726,
            "end": 3.6727272727272724,
            "velocity": 100,
            "duration": 0.04999999999999982
          },
          {
            "pitch": 35,
            "start": 3.690909090909091,
            "end": 3.7409090909090907,
            "velocity": 78,
            "duration": 0.04999999999999982
          },
          {
            "pitch": 42,
            "start": 3.690909090909091,
            "end": 3.7409090909090907,
            "velocity": 97,
            "duration": 0.04999999999999982
          },
          {
            "pitch": 51,
            "start": 3.690909090909091,
            "end": 3.7409090909090907,
            "velocity": 85,
            "duration": 0.04999999999999982
          },
          {
            "pitch": 41,
            "start": 3.715909090909091,
            "end": 3.7659090909090907,
            "velocity": 68,
            "duration": 0.04999999999999982
          },
          {
            "pitch": 35,
            "start": 3.7613636363636362,
            "end": 3.811363636363636,
            "velocity": 82,
            "duration": 0.04999999999999982
          },
          {
            "pitch": 51,
            "start": 3.7840909090909087,
            "end": 3.834090909090909,
            "velocity": 91,
            "duration": 0.050000000000000266
          },
          {
            "pitch": 42,
            "start": 3.809090909090909,
            "end": 3.859090909090909,
            "velocity": 91,
            "duration": 0.04999999999999982
          },
          {
            "pitch": 35,
            "start": 3.877272727272727,
            "end": 3.9272727272727272,
            "velocity": 122,
            "duration": 0.050000000000000266
          },
          {
            "pitch": 37,
            "start": 3.877272727272727,
            "end": 3.9272727272727272,
            "velocity": 87,
            "duration": 0.050000000000000266
          },
          {
            "pitch": 37,
            "start": 3.925,
            "end": 3.9272727272727272,
            "velocity": 110,
            "duration": 0.002272727272727426
          },
          {
            "pitch": 42,
            "start": 3.877272727272727,
            "end": 3.9272727272727272,
            "velocity": 85,
            "duration": 0.050000000000000266
          },
          {
            "pitch": 51,
            "start": 3.877272727272727,
            "end": 3.9272727272727272,
            "velocity": 101,
            "duration": 0.050000000000000266
          },
          {
            "pitch": 37,
            "start": 3.9704545454545452,
            "end": 3.9749999999999996,
            "velocity": 85,
            "duration": 0.004545454545454408
          },
          {
            "pitch": 35,
            "start": 3.9477272727272728,
            "end": 3.9977272727272726,
            "velocity": 88,
            "duration": 0.04999999999999982
          },
          {
            "pitch": 37,
            "start": 4.018181818181818,
            "end": 4.0204545454545455,
            "velocity": 68,
            "duration": 0.0022727272727278702
          },
          {
            "pitch": 42,
            "start": 3.993181818181818,
            "end": 4.043181818181818,
            "velocity": 65,
            "duration": 0.04999999999999982
          },
          {
            "pitch": 35,
            "start": 4.0636363636363635,
            "end": 4.113636363636363,
            "velocity": 117,
            "duration": 0.04999999999999982
          },
          {
            "pitch": 42,
            "start": 4.0636363636363635,
            "end": 4.113636363636363,
            "velocity": 105,
            "duration": 0.04999999999999982
          },
          {
            "pitch": 51,
            "start": 4.0636363636363635,
            "end": 4.113636363636363,
            "velocity": 92,
            "duration": 0.04999999999999982
          },
          {
            "pitch": 37,
            "start": 4.1090909090909085,
            "end": 4.159090909090909,
            "velocity": 93,
            "duration": 0.05000000000000071
          },
          {
            "pitch": 35,
            "start": 4.134090909090909,
            "end": 4.184090909090909,
            "velocity": 92,
            "duration": 0.04999999999999982
          },
          {
            "pitch": 51,
            "start": 4.156818181818181,
            "end": 4.206818181818182,
            "velocity": 94,
            "duration": 0.05000000000000071
          },
          {
            "pitch": 35,
            "start": 4.25,
            "end": 4.3,
            "velocity": 124,
            "duration": 0.04999999999999982
          },
          {
            "pitch": 42,
            "start": 4.25,
            "end": 4.3,
            "velocity": 98,
            "duration": 0.04999999999999982
          },
          {
            "pitch": 51,
            "start": 4.25,
            "end": 4.3,
            "velocity": 108,
            "duration": 0.04999999999999982
          },
          {
            "pitch": 35,
            "start": 4.318181818181818,
            "end": 4.368181818181818,
            "velocity": 89,
            "duration": 0.04999999999999982
          },
          {
            "pitch": 42,
            "start": 4.318181818181818,
            "end": 4.368181818181818,
            "velocity": 67,
            "duration": 0.04999999999999982
          },
          {
            "pitch": 51,
            "start": 4.343181818181818,
            "end": 4.393181818181818,
            "velocity": 90,
            "duration": 0.04999999999999982
          },
          {
            "pitch": 51,
            "start": 4.411363636363636,
            "end": 4.461363636363636,
            "velocity": 78,
            "duration": 0.04999999999999982
          },
          {
            "pitch": 35,
            "start": 4.434090909090909,
            "end": 4.4840909090909085,
            "velocity": 106,
            "duration": 0.04999999999999982
          },
          {
            "pitch": 35,
            "start": 4.504545454545454,
            "end": 4.554545454545455,
            "velocity": 117,
            "duration": 0.05000000000000071
          },
          {
            "pitch": 51,
            "start": 4.504545454545454,
            "end": 4.554545454545455,
            "velocity": 102,
            "duration": 0.05000000000000071
          },
          {
            "pitch": 35,
            "start": 4.575,
            "end": 4.625,
            "velocity": 65,
            "duration": 0.04999999999999982
          },
          {
            "pitch": 35,
            "start": 4.620454545454545,
            "end": 4.625,
            "velocity": 78,
            "duration": 0.004545454545454852
          },
          {
            "pitch": 51,
            "start": 4.597727272727273,
            "end": 4.6477272727272725,
            "velocity": 76,
            "duration": 0.04999999999999982
          },
          {
            "pitch": 42,
            "start": 4.620454545454545,
            "end": 4.670454545454545,
            "velocity": 100,
            "duration": 0.04999999999999982
          },
          {
            "pitch": 37,
            "start": 4.643181818181818,
            "end": 4.693181818181818,
            "velocity": 95,
            "duration": 0.05000000000000071
          },
          {
            "pitch": 35,
            "start": 4.6909090909090905,
            "end": 4.74090909090909,
            "velocity": 111,
            "duration": 0.04999999999999982
          },
          {
            "pitch": 42,
            "start": 4.6909090909090905,
            "end": 4.74090909090909,
            "velocity": 89,
            "duration": 0.04999999999999982
          },
          {
            "pitch": 51,
            "start": 4.6909090909090905,
            "end": 4.74090909090909,
            "velocity": 69,
            "duration": 0.04999999999999982
          },
          {
            "pitch": 37,
            "start": 4.736363636363636,
            "end": 4.786363636363636,
            "velocity": 103,
            "duration": 0.04999999999999982
          },
          {
            "pitch": 35,
            "start": 4.759090909090909,
            "end": 4.809090909090909,
            "velocity": 81,
            "duration": 0.04999999999999982
          },
          {
            "pitch": 37,
            "start": 4.852272727272727,
            "end": 4.902272727272727,
            "velocity": 101,
            "duration": 0.05000000000000071
          },
          {
            "pitch": 35,
            "start": 4.877272727272727,
            "end": 4.927272727272727,
            "velocity": 117,
            "duration": 0.04999999999999982
          },
          {
            "pitch": 37,
            "start": 4.922727272727273,
            "end": 4.972727272727273,
            "velocity": 90,
            "duration": 0.04999999999999982
          },
          {
            "pitch": 35,
            "start": 4.945454545454545,
            "end": 4.995454545454545,
            "velocity": 90,
            "duration": 0.04999999999999982
          },
          {
            "pitch": 42,
            "start": 4.993181818181818,
            "end": 5.043181818181818,
            "velocity": 68,
            "duration": 0.04999999999999982
          },
          {
            "pitch": 37,
            "start": 5.015909090909091,
            "end": 5.0659090909090905,
            "velocity": 89,
            "duration": 0.04999999999999982
          },
          {
            "pitch": 35,
            "start": 5.0613636363636365,
            "end": 5.111363636363636,
            "velocity": 118,
            "duration": 0.04999999999999982
          },
          {
            "pitch": 42,
            "start": 5.0613636363636365,
            "end": 5.111363636363636,
            "velocity": 111,
            "duration": 0.04999999999999982
          },
          {
            "pitch": 51,
            "start": 5.0613636363636365,
            "end": 5.111363636363636,
            "velocity": 81,
            "duration": 0.04999999999999982
          },
          {
            "pitch": 37,
            "start": 5.1090909090909085,
            "end": 5.159090909090909,
            "velocity": 115,
            "duration": 0.05000000000000071
          },
          {
            "pitch": 35,
            "start": 5.131818181818182,
            "end": 5.181818181818182,
            "velocity": 91,
            "duration": 0.04999999999999982
          },
          {
            "pitch": 51,
            "start": 5.131818181818182,
            "end": 5.181818181818182,
            "velocity": 79,
            "duration": 0.04999999999999982
          },
          {
            "pitch": 45,
            "start": 5.154545454545454,
            "end": 5.204545454545454,
            "velocity": 70,
            "duration": 0.04999999999999982
          },
          {
            "pitch": 37,
            "start": 5.177272727272727,
            "end": 5.227272727272727,
            "velocity": 67,
            "duration": 0.04999999999999982
          },
          {
            "pitch": 51,
            "start": 5.225,
            "end": 5.2749999999999995,
            "velocity": 99,
            "duration": 0.04999999999999982
          },
          {
            "pitch": 35,
            "start": 5.247727272727272,
            "end": 5.297727272727273,
            "velocity": 102,
            "duration": 0.05000000000000071
          },
          {
            "pitch": 45,
            "start": 5.247727272727272,
            "end": 5.297727272727273,
            "velocity": 75,
            "duration": 0.05000000000000071
          },
          {
            "pitch": 45,
            "start": 5.293181818181818,
            "end": 5.297727272727273,
            "velocity": 85,
            "duration": 0.004545454545454852
          },
          {
            "pitch": 51,
            "start": 5.386363636363636,
            "end": 5.4363636363636365,
            "velocity": 70,
            "duration": 0.05000000000000071
          },
          {
            "pitch": 41,
            "start": 5.411363636363636,
            "end": 5.461363636363636,
            "velocity": 71,
            "duration": 0.04999999999999982
          },
          {
            "pitch": 35,
            "start": 5.502272727272727,
            "end": 5.552272727272727,
            "velocity": 91,
            "duration": 0.04999999999999982
          },
          {
            "pitch": 42,
            "start": 5.502272727272727,
            "end": 5.552272727272727,
            "velocity": 83,
            "duration": 0.04999999999999982
          },
          {
            "pitch": 51,
            "start": 5.502272727272727,
            "end": 5.552272727272727,
            "velocity": 86,
            "duration": 0.04999999999999982
          },
          {
            "pitch": 35,
            "start": 5.595454545454545,
            "end": 5.6454545454545455,
            "velocity": 111,
            "duration": 0.05000000000000071
          },
          {
            "pitch": 51,
            "start": 5.595454545454545,
            "end": 5.6454545454545455,
            "velocity": 88,
            "duration": 0.05000000000000071
          },
          {
            "pitch": 35,
            "start": 5.6886363636363635,
            "end": 5.738636363636363,
            "velocity": 123,
            "duration": 0.04999999999999982
          },
          {
            "pitch": 42,
            "start": 5.6886363636363635,
            "end": 5.738636363636363,
            "velocity": 101,
            "duration": 0.04999999999999982
          },
          {
            "pitch": 51,
            "start": 5.6886363636363635,
            "end": 5.738636363636363,
            "velocity": 101,
            "duration": 0.04999999999999982
          },
          {
            "pitch": 37,
            "start": 5.736363636363636,
            "end": 5.786363636363636,
            "velocity": 90,
            "duration": 0.04999999999999982
          },
          {
            "pitch": 35,
            "start": 5.759090909090909,
            "end": 5.809090909090909,
            "velocity": 89,
            "duration": 0.04999999999999982
          },
          {
            "pitch": 51,
            "start": 5.759090909090909,
            "end": 5.809090909090909,
            "velocity": 94,
            "duration": 0.04999999999999982
          },
          {
            "pitch": 37,
            "start": 5.852272727272727,
            "end": 5.902272727272727,
            "velocity": 109,
            "duration": 0.05000000000000071
          },
          {
            "pitch": 35,
            "start": 5.875,
            "end": 5.925,
            "velocity": 124,
            "duration": 0.04999999999999982
          },
          {
            "pitch": 42,
            "start": 5.875,
            "end": 5.925,
            "velocity": 108,
            "duration": 0.04999999999999982
          },
          {
            "pitch": 51,
            "start": 5.875,
            "end": 5.925,
            "velocity": 107,
            "duration": 0.04999999999999982
          },
          {
            "pitch": 35,
            "start": 5.9431818181818175,
            "end": 5.993181818181818,
            "velocity": 97,
            "duration": 0.05000000000000071
          },
          {
            "pitch": 51,
            "start": 5.9431818181818175,
            "end": 5.993181818181818,
            "velocity": 75,
            "duration": 0.05000000000000071
          },
          {
            "pitch": 51,
            "start": 5.99090909090909,
            "end": 5.993181818181818,
            "velocity": 65,
            "duration": 0.0022727272727278702
          },
          {
            "pitch": 37,
            "start": 5.968181818181818,
            "end": 6.018181818181818,
            "velocity": 71,
            "duration": 0.04999999999999982
          },
          {
            "pitch": 42,
            "start": 5.968181818181818,
            "end": 6.018181818181818,
            "velocity": 90,
            "duration": 0.04999999999999982
          },
          {
            "pitch": 51,
            "start": 6.036363636363636,
            "end": 6.040909090909091,
            "velocity": 77,
            "duration": 0.004545454545454852
          },
          {
            "pitch": 35,
            "start": 6.0613636363636365,
            "end": 6.111363636363636,
            "velocity": 103,
            "duration": 0.04999999999999982
          },
          {
            "pitch": 42,
            "start": 6.0613636363636365,
            "end": 6.111363636363636,
            "velocity": 107,
            "duration": 0.04999999999999982
          },
          {
            "pitch": 37,
            "start": 6.084090909090909,
            "end": 6.134090909090909,
            "velocity": 70,
            "duration": 0.04999999999999982
          },
          {
            "pitch": 35,
            "start": 6.129545454545454,
            "end": 6.179545454545455,
            "velocity": 113,
            "duration": 0.05000000000000071
          },
          {
            "pitch": 51,
            "start": 6.129545454545454,
            "end": 6.179545454545455,
            "velocity": 100,
            "duration": 0.05000000000000071
          },
          {
            "pitch": 51,
            "start": 6.222727272727273,
            "end": 6.2727272727272725,
            "velocity": 71,
            "duration": 0.04999999999999982
          },
          {
            "pitch": 51,
            "start": 6.2704545454545455,
            "end": 6.2727272727272725,
            "velocity": 77,
            "duration": 0.002272727272726982
          },
          {
            "pitch": 35,
            "start": 6.245454545454545,
            "end": 6.295454545454545,
            "velocity": 92,
            "duration": 0.04999999999999982
          },
          {
            "pitch": 42,
            "start": 6.245454545454545,
            "end": 6.295454545454545,
            "velocity": 98,
            "duration": 0.04999999999999982
          },
          {
            "pitch": 51,
            "start": 6.3159090909090905,
            "end": 6.320454545454545,
            "velocity": 84,
            "duration": 0.004545454545454852
          },
          {
            "pitch": 37,
            "start": 6.293181818181818,
            "end": 6.343181818181818,
            "velocity": 70,
            "duration": 0.04999999999999982
          },
          {
            "pitch": 35,
            "start": 6.3159090909090905,
            "end": 6.36590909090909,
            "velocity": 115,
            "duration": 0.04999999999999982
          },
          {
            "pitch": 42,
            "start": 6.3159090909090905,
            "end": 6.36590909090909,
            "velocity": 101,
            "duration": 0.04999999999999982
          },
          {
            "pitch": 37,
            "start": 6.361363636363636,
            "end": 6.411363636363636,
            "velocity": 94,
            "duration": 0.04999999999999982
          },
          {
            "pitch": 35,
            "start": 6.386363636363636,
            "end": 6.436363636363636,
            "velocity": 70,
            "duration": 0.04999999999999982
          },
          {
            "pitch": 35,
            "start": 6.431818181818182,
            "end": 6.436363636363636,
            "velocity": 76,
            "duration": 0.004545454545453964
          },
          {
            "pitch": 42,
            "start": 6.409090909090909,
            "end": 6.459090909090909,
            "velocity": 86,
            "duration": 0.04999999999999982
          },
          {
            "pitch": 51,
            "start": 6.409090909090909,
            "end": 6.459090909090909,
            "velocity": 95,
            "duration": 0.04999999999999982
          },
          {
            "pitch": 37,
            "start": 6.454545454545454,
            "end": 6.504545454545454,
            "velocity": 81,
            "duration": 0.04999999999999982
          },
          {
            "pitch": 35,
            "start": 6.502272727272727,
            "end": 6.552272727272727,
            "velocity": 124,
            "duration": 0.04999999999999982
          },
          {
            "pitch": 42,
            "start": 6.502272727272727,
            "end": 6.552272727272727,
            "velocity": 98,
            "duration": 0.04999999999999982
          },
          {
            "pitch": 51,
            "start": 6.502272727272727,
            "end": 6.552272727272727,
            "velocity": 107,
            "duration": 0.04999999999999982
          },
          {
            "pitch": 37,
            "start": 6.5249999999999995,
            "end": 6.574999999999999,
            "velocity": 92,
            "duration": 0.04999999999999982
          },
          {
            "pitch": 35,
            "start": 6.570454545454545,
            "end": 6.620454545454545,
            "velocity": 94,
            "duration": 0.04999999999999982
          },
          {
            "pitch": 51,
            "start": 6.595454545454545,
            "end": 6.6454545454545455,
            "velocity": 83,
            "duration": 0.05000000000000071
          },
          {
            "pitch": 35,
            "start": 6.686363636363636,
            "end": 6.736363636363636,
            "velocity": 120,
            "duration": 0.05000000000000071
          },
          {
            "pitch": 42,
            "start": 6.686363636363636,
            "end": 6.736363636363636,
            "velocity": 114,
            "duration": 0.05000000000000071
          },
          {
            "pitch": 51,
            "start": 6.686363636363636,
            "end": 6.736363636363636,
            "velocity": 98,
            "duration": 0.05000000000000071
          },
          {
            "pitch": 35,
            "start": 6.756818181818182,
            "end": 6.806818181818182,
            "velocity": 101,
            "duration": 0.04999999999999982
          },
          {
            "pitch": 42,
            "start": 6.756818181818182,
            "end": 6.806818181818182,
            "velocity": 64,
            "duration": 0.04999999999999982
          },
          {
            "pitch": 51,
            "start": 6.756818181818182,
            "end": 6.806818181818182,
            "velocity": 94,
            "duration": 0.04999999999999982
          },
          {
            "pitch": 37,
            "start": 6.85,
            "end": 6.8999999999999995,
            "velocity": 96,
            "duration": 0.04999999999999982
          },
          {
            "pitch": 35,
            "start": 6.872727272727272,
            "end": 6.922727272727272,
            "velocity": 114,
            "duration": 0.04999999999999982
          },
          {
            "pitch": 42,
            "start": 6.872727272727272,
            "end": 6.922727272727272,
            "velocity": 90,
            "duration": 0.04999999999999982
          },
          {
            "pitch": 51,
            "start": 6.872727272727272,
            "end": 6.922727272727272,
            "velocity": 99,
            "duration": 0.04999999999999982
          },
          {
            "pitch": 35,
            "start": 6.9431818181818175,
            "end": 6.993181818181818,
            "velocity": 114,
            "duration": 0.05000000000000071
          },
          {
            "pitch": 42,
            "start": 6.9431818181818175,
            "end": 6.993181818181818,
            "velocity": 88,
            "duration": 0.05000000000000071
          },
          {
            "pitch": 51,
            "start": 6.9431818181818175,
            "end": 6.993181818181818,
            "velocity": 98,
            "duration": 0.05000000000000071
          },
          {
            "pitch": 51,
            "start": 6.988636363636363,
            "end": 6.993181818181818,
            "velocity": 74,
            "duration": 0.004545454545454852
          },
          {
            "pitch": 51,
            "start": 7.036363636363636,
            "end": 7.038636363636363,
            "velocity": 87,
            "duration": 0.002272727272726982
          },
          {
            "pitch": 35,
            "start": 7.059090909090909,
            "end": 7.1090909090909085,
            "velocity": 72,
            "duration": 0.04999999999999982
          },
          {
            "pitch": 42,
            "start": 7.059090909090909,
            "end": 7.1090909090909085,
            "velocity": 99,
            "duration": 0.04999999999999982
          },
          {
            "pitch": 37,
            "start": 7.081818181818181,
            "end": 7.131818181818182,
            "velocity": 95,
            "duration": 0.05000000000000071
          },
          {
            "pitch": 35,
            "start": 7.129545454545454,
            "end": 7.179545454545454,
            "velocity": 122,
            "duration": 0.04999999999999982
          },
          {
            "pitch": 42,
            "start": 7.129545454545454,
            "end": 7.179545454545454,
            "velocity": 80,
            "duration": 0.04999999999999982
          },
          {
            "pitch": 51,
            "start": 7.129545454545454,
            "end": 7.179545454545454,
            "velocity": 107,
            "duration": 0.04999999999999982
          },
          {
            "pitch": 37,
            "start": 7.220454545454545,
            "end": 7.2704545454545455,
            "velocity": 67,
            "duration": 0.05000000000000071
          },
          {
            "pitch": 37,
            "start": 7.268181818181818,
            "end": 7.2704545454545455,
            "velocity": 83,
            "duration": 0.0022727272727278702
          },
          {
            "pitch": 51,
            "start": 7.220454545454545,
            "end": 7.2704545454545455,
            "velocity": 82,
            "duration": 0.05000000000000071
          },
          {
            "pitch": 35,
            "start": 7.245454545454545,
            "end": 7.295454545454545,
            "velocity": 76,
            "duration": 0.04999999999999982
          },
          {
            "pitch": 42,
            "start": 7.245454545454545,
            "end": 7.295454545454545,
            "velocity": 101,
            "duration": 0.04999999999999982
          },
          {
            "pitch": 35,
            "start": 7.3136363636363635,
            "end": 7.363636363636363,
            "velocity": 121,
            "duration": 0.04999999999999982
          },
          {
            "pitch": 42,
            "start": 7.3136363636363635,
            "end": 7.363636363636363,
            "velocity": 112,
            "duration": 0.04999999999999982
          },
          {
            "pitch": 51,
            "start": 7.3136363636363635,
            "end": 7.363636363636363,
            "velocity": 94,
            "duration": 0.04999999999999982
          },
          {
            "pitch": 37,
            "start": 7.338636363636363,
            "end": 7.388636363636364,
            "velocity": 93,
            "duration": 0.05000000000000071
          },
          {
            "pitch": 35,
            "start": 7.384090909090909,
            "end": 7.434090909090909,
            "velocity": 79,
            "duration": 0.04999999999999982
          },
          {
            "pitch": 42,
            "start": 7.406818181818181,
            "end": 7.456818181818181,
            "velocity": 101,
            "duration": 0.04999999999999982
          },
          {
            "pitch": 51,
            "start": 7.406818181818181,
            "end": 7.456818181818181,
            "velocity": 97,
            "duration": 0.04999999999999982
          },
          {
            "pitch": 37,
            "start": 7.454545454545454,
            "end": 7.504545454545454,
            "velocity": 68,
            "duration": 0.04999999999999982
          },
          {
            "pitch": 35,
            "start": 7.5,
            "end": 7.55,
            "velocity": 125,
            "duration": 0.04999999999999982
          },
          {
            "pitch": 42,
            "start": 7.5,
            "end": 7.55,
            "velocity": 114,
            "duration": 0.04999999999999982
          },
          {
            "pitch": 51,
            "start": 7.5,
            "end": 7.55,
            "velocity": 103,
            "duration": 0.04999999999999982
          },
          {
            "pitch": 45,
            "start": 7.5227272727272725,
            "end": 7.572727272727272,
            "velocity": 66,
            "duration": 0.04999999999999982
          },
          {
            "pitch": 37,
            "start": 7.545454545454545,
            "end": 7.595454545454545,
            "velocity": 66,
            "duration": 0.04999999999999982
          },
          {
            "pitch": 35,
            "start": 7.570454545454545,
            "end": 7.620454545454545,
            "velocity": 101,
            "duration": 0.04999999999999982
          },
          {
            "pitch": 51,
            "start": 7.570454545454545,
            "end": 7.620454545454545,
            "velocity": 86,
            "duration": 0.04999999999999982
          },
          {
            "pitch": 42,
            "start": 7.593181818181818,
            "end": 7.643181818181818,
            "velocity": 88,
            "duration": 0.04999999999999982
          },
          {
            "pitch": 51,
            "start": 7.663636363636363,
            "end": 7.713636363636363,
            "velocity": 99,
            "duration": 0.04999999999999982
          },
          {
            "pitch": 42,
            "start": 7.686363636363636,
            "end": 7.736363636363636,
            "velocity": 90,
            "duration": 0.05000000000000071
          },
          {
            "pitch": 35,
            "start": 7.709090909090909,
            "end": 7.759090909090909,
            "velocity": 77,
            "duration": 0.04999999999999982
          },
          {
            "pitch": 35,
            "start": 7.754545454545454,
            "end": 7.759090909090909,
            "velocity": 65,
            "duration": 0.004545454545454852
          },
          {
            "pitch": 51,
            "start": 7.754545454545454,
            "end": 7.804545454545454,
            "velocity": 95,
            "duration": 0.04999999999999982
          },
          {
            "pitch": 51,
            "start": 7.847727272727273,
            "end": 7.8977272727272725,
            "velocity": 100,
            "duration": 0.04999999999999982
          },
          {
            "pitch": 35,
            "start": 7.870454545454545,
            "end": 7.920454545454545,
            "velocity": 97,
            "duration": 0.04999999999999982
          },
          {
            "pitch": 42,
            "start": 7.870454545454545,
            "end": 7.920454545454545,
            "velocity": 91,
            "duration": 0.04999999999999982
          },
          {
            "pitch": 51,
            "start": 7.9409090909090905,
            "end": 7.99090909090909,
            "velocity": 73,
            "duration": 0.04999999999999982
          },
          {
            "pitch": 51,
            "start": 7.988636363636363,
            "end": 7.99090909090909,
            "velocity": 79,
            "duration": 0.002272727272726982
          },
          {
            "pitch": 42,
            "start": 7.963636363636363,
            "end": 8.013636363636364,
            "velocity": 79,
            "duration": 0.05000000000000071
          },
          {
            "pitch": 51,
            "start": 8.034090909090908,
            "end": 8.038636363636364,
            "velocity": 94,
            "duration": 0.0045454545454557405
          },
          {
            "pitch": 42,
            "start": 8.056818181818182,
            "end": 8.10681818181818,
            "velocity": 97,
            "duration": 0.049999999999998934
          },
          {
            "pitch": 51,
            "start": 8.104545454545454,
            "end": 8.154545454545454,
            "velocity": 76,
            "duration": 0.05000000000000071
          },
          {
            "pitch": 42,
            "start": 8.127272727272727,
            "end": 8.177272727272728,
            "velocity": 93,
            "duration": 0.05000000000000071
          },
          {
            "pitch": 41,
            "start": 8.15,
            "end": 8.2,
            "velocity": 79,
            "duration": 0.049999999999998934
          },
          {
            "pitch": 51,
            "start": 8.220454545454546,
            "end": 8.270454545454545,
            "velocity": 100,
            "duration": 0.049999999999998934
          },
          {
            "pitch": 35,
            "start": 8.243181818181817,
            "end": 8.293181818181818,
            "velocity": 74,
            "duration": 0.05000000000000071
          },
          {
            "pitch": 51,
            "start": 8.288636363636364,
            "end": 8.338636363636363,
            "velocity": 92,
            "duration": 0.049999999999998934
          },
          {
            "pitch": 35,
            "start": 8.313636363636363,
            "end": 8.363636363636363,
            "velocity": 82,
            "duration": 0.05000000000000071
          },
          {
            "pitch": 42,
            "start": 8.313636363636363,
            "end": 8.363636363636363,
            "velocity": 107,
            "duration": 0.05000000000000071
          },
          {
            "pitch": 42,
            "start": 8.404545454545454,
            "end": 8.454545454545453,
            "velocity": 69,
            "duration": 0.049999999999998934
          },
          {
            "pitch": 51,
            "start": 8.404545454545454,
            "end": 8.454545454545453,
            "velocity": 73,
            "duration": 0.049999999999998934
          },
          {
            "pitch": 51,
            "start": 8.475,
            "end": 8.525,
            "velocity": 82,
            "duration": 0.05000000000000071
          },
          {
            "pitch": 35,
            "start": 8.497727272727273,
            "end": 8.547727272727272,
            "velocity": 90,
            "duration": 0.049999999999998934
          },
          {
            "pitch": 42,
            "start": 8.497727272727273,
            "end": 8.547727272727272,
            "velocity": 77,
            "duration": 0.049999999999998934
          },
          {
            "pitch": 41,
            "start": 8.522727272727272,
            "end": 8.572727272727272,
            "velocity": 68,
            "duration": 0.05000000000000071
          },
          {
            "pitch": 42,
            "start": 8.59090909090909,
            "end": 8.64090909090909,
            "velocity": 79,
            "duration": 0.05000000000000071
          },
          {
            "pitch": 51,
            "start": 8.661363636363635,
            "end": 8.711363636363636,
            "velocity": 79,
            "duration": 0.05000000000000071
          },
          {
            "pitch": 35,
            "start": 8.684090909090909,
            "end": 8.73409090909091,
            "velocity": 86,
            "duration": 0.05000000000000071
          },
          {
            "pitch": 42,
            "start": 8.684090909090909,
            "end": 8.73409090909091,
            "velocity": 91,
            "duration": 0.05000000000000071
          },
          {
            "pitch": 41,
            "start": 8.73181818181818,
            "end": 8.781818181818181,
            "velocity": 75,
            "duration": 0.05000000000000071
          },
          {
            "pitch": 41,
            "start": 8.777272727272727,
            "end": 8.781818181818181,
            "velocity": 66,
            "duration": 0.004545454545453964
          },
          {
            "pitch": 35,
            "start": 8.754545454545454,
            "end": 8.804545454545455,
            "velocity": 106,
            "duration": 0.05000000000000071
          },
          {
            "pitch": 51,
            "start": 8.754545454545454,
            "end": 8.804545454545455,
            "velocity": 94,
            "duration": 0.05000000000000071
          },
          {
            "pitch": 42,
            "start": 8.777272727272727,
            "end": 8.827272727272726,
            "velocity": 70,
            "duration": 0.049999999999998934
          },
          {
            "pitch": 51,
            "start": 8.847727272727273,
            "end": 8.897727272727272,
            "velocity": 78,
            "duration": 0.049999999999998934
          },
          {
            "pitch": 35,
            "start": 8.870454545454544,
            "end": 8.920454545454545,
            "velocity": 81,
            "duration": 0.05000000000000071
          },
          {
            "pitch": 42,
            "start": 8.870454545454544,
            "end": 8.920454545454545,
            "velocity": 87,
            "duration": 0.05000000000000071
          },
          {
            "pitch": 37,
            "start": 8.893181818181818,
            "end": 8.943181818181818,
            "velocity": 120,
            "duration": 0.05000000000000071
          },
          {
            "pitch": 35,
            "start": 8.938636363636363,
            "end": 8.988636363636363,
            "velocity": 100,
            "duration": 0.05000000000000071
          },
          {
            "pitch": 42,
            "start": 8.963636363636363,
            "end": 9.013636363636364,
            "velocity": 66,
            "duration": 0.05000000000000071
          },
          {
            "pitch": 37,
            "start": 8.986363636363636,
            "end": 9.036363636363635,
            "velocity": 100,
            "duration": 0.049999999999998934
          },
          {
            "pitch": 35,
            "start": 9.009090909090908,
            "end": 9.059090909090909,
            "velocity": 75,
            "duration": 0.05000000000000071
          },
          {
            "pitch": 35,
            "start": 9.056818181818182,
            "end": 9.059090909090909,
            "velocity": 77,
            "duration": 0.002272727272726982
          },
          {
            "pitch": 51,
            "start": 9.031818181818181,
            "end": 9.081818181818182,
            "velocity": 75,
            "duration": 0.05000000000000071
          },
          {
            "pitch": 42,
            "start": 9.056818181818182,
            "end": 9.10681818181818,
            "velocity": 81,
            "duration": 0.049999999999998934
          },
          {
            "pitch": 45,
            "start": 9.079545454545453,
            "end": 9.129545454545454,
            "velocity": 95,
            "duration": 0.05000000000000071
          },
          {
            "pitch": 51,
            "start": 9.102272727272727,
            "end": 9.152272727272727,
            "velocity": 85,
            "duration": 0.05000000000000071
          },
          {
            "pitch": 35,
            "start": 9.125,
            "end": 9.174999999999999,
            "velocity": 109,
            "duration": 0.049999999999998934
          },
          {
            "pitch": 51,
            "start": 9.172727272727272,
            "end": 9.222727272727273,
            "velocity": 76,
            "duration": 0.05000000000000071
          },
          {
            "pitch": 51,
            "start": 9.218181818181817,
            "end": 9.222727272727273,
            "velocity": 78,
            "duration": 0.0045454545454557405
          },
          {
            "pitch": 41,
            "start": 9.218181818181817,
            "end": 9.268181818181818,
            "velocity": 69,
            "duration": 0.05000000000000071
          },
          {
            "pitch": 35,
            "start": 9.311363636363636,
            "end": 9.361363636363636,
            "velocity": 114,
            "duration": 0.05000000000000071
          },
          {
            "pitch": 42,
            "start": 9.311363636363636,
            "end": 9.361363636363636,
            "velocity": 94,
            "duration": 0.05000000000000071
          },
          {
            "pitch": 51,
            "start": 9.311363636363636,
            "end": 9.361363636363636,
            "velocity": 93,
            "duration": 0.05000000000000071
          },
          {
            "pitch": 51,
            "start": 9.35681818181818,
            "end": 9.361363636363636,
            "velocity": 81,
            "duration": 0.0045454545454557405
          },
          {
            "pitch": 51,
            "start": 9.404545454545454,
            "end": 9.406818181818181,
            "velocity": 80,
            "duration": 0.002272727272726982
          },
          {
            "pitch": 35,
            "start": 9.381818181818181,
            "end": 9.431818181818182,
            "velocity": 72,
            "duration": 0.05000000000000071
          },
          {
            "pitch": 42,
            "start": 9.404545454545454,
            "end": 9.454545454545453,
            "velocity": 81,
            "duration": 0.049999999999998934
          },
          {
            "pitch": 35,
            "start": 9.497727272727273,
            "end": 9.547727272727272,
            "velocity": 90,
            "duration": 0.049999999999998934
          },
          {
            "pitch": 42,
            "start": 9.497727272727273,
            "end": 9.547727272727272,
            "velocity": 88,
            "duration": 0.049999999999998934
          },
          {
            "pitch": 37,
            "start": 9.520454545454545,
            "end": 9.570454545454545,
            "velocity": 104,
            "duration": 0.05000000000000071
          },
          {
            "pitch": 35,
            "start": 9.56590909090909,
            "end": 9.61590909090909,
            "velocity": 101,
            "duration": 0.05000000000000071
          },
          {
            "pitch": 51,
            "start": 9.56590909090909,
            "end": 9.61590909090909,
            "velocity": 64,
            "duration": 0.05000000000000071
          },
          {
            "pitch": 42,
            "start": 9.59090909090909,
            "end": 9.64090909090909,
            "velocity": 81,
            "duration": 0.05000000000000071
          },
          {
            "pitch": 41,
            "start": 9.659090909090908,
            "end": 9.709090909090909,
            "velocity": 68,
            "duration": 0.05000000000000071
          },
          {
            "pitch": 51,
            "start": 9.659090909090908,
            "end": 9.709090909090909,
            "velocity": 85,
            "duration": 0.05000000000000071
          },
          {
            "pitch": 35,
            "start": 9.681818181818182,
            "end": 9.73181818181818,
            "velocity": 78,
            "duration": 0.049999999999998934
          },
          {
            "pitch": 42,
            "start": 9.681818181818182,
            "end": 9.73181818181818,
            "velocity": 95,
            "duration": 0.049999999999998934
          },
          {
            "pitch": 35,
            "start": 9.752272727272727,
            "end": 9.802272727272726,
            "velocity": 79,
            "duration": 0.049999999999998934
          },
          {
            "pitch": 42,
            "start": 9.752272727272727,
            "end": 9.802272727272726,
            "velocity": 71,
            "duration": 0.049999999999998934
          },
          {
            "pitch": 51,
            "start": 9.752272727272727,
            "end": 9.802272727272726,
            "velocity": 87,
            "duration": 0.049999999999998934
          },
          {
            "pitch": 37,
            "start": 9.775,
            "end": 9.825,
            "velocity": 70,
            "duration": 0.049999999999998934
          },
          {
            "pitch": 35,
            "start": 9.822727272727272,
            "end": 9.872727272727273,
            "velocity": 65,
            "duration": 0.05000000000000071
          },
          {
            "pitch": 35,
            "start": 9.868181818181817,
            "end": 9.872727272727273,
            "velocity": 98,
            "duration": 0.0045454545454557405
          },
          {
            "pitch": 37,
            "start": 9.845454545454546,
            "end": 9.895454545454545,
            "velocity": 85,
            "duration": 0.049999999999998934
          },
          {
            "pitch": 37,
            "start": 9.89090909090909,
            "end": 9.895454545454545,
            "velocity": 109,
            "duration": 0.004545454545453964
          },
          {
            "pitch": 42,
            "start": 9.868181818181817,
            "end": 9.918181818181818,
            "velocity": 106,
            "duration": 0.05000000000000071
          },
          {
            "pitch": 51,
            "start": 9.868181818181817,
            "end": 9.918181818181818,
            "velocity": 79,
            "duration": 0.05000000000000071
          },
          {
            "pitch": 35,
            "start": 9.938636363636363,
            "end": 9.988636363636363,
            "velocity": 113,
            "duration": 0.05000000000000071
          },
          {
            "pitch": 42,
            "start": 9.938636363636363,
            "end": 9.988636363636363,
            "velocity": 74,
            "duration": 0.05000000000000071
          },
          {
            "pitch": 51,
            "start": 9.938636363636363,
            "end": 9.988636363636363,
            "velocity": 93,
            "duration": 0.05000000000000071
          },
          {
            "pitch": 51,
            "start": 9.98409090909091,
            "end": 9.988636363636363,
            "velocity": 79,
            "duration": 0.004545454545453964
          },
          {
            "pitch": 35,
            "start": 10.006818181818181,
            "end": 10.056818181818182,
            "velocity": 74,
            "duration": 0.05000000000000071
          },
          {
            "pitch": 37,
            "start": 10.031818181818181,
            "end": 10.081818181818182,
            "velocity": 84,
            "duration": 0.05000000000000071
          },
          {
            "pitch": 35,
            "start": 10.125,
            "end": 10.174999999999999,
            "velocity": 79,
            "duration": 0.049999999999998934
          },
          {
            "pitch": 42,
            "start": 10.125,
            "end": 10.174999999999999,
            "velocity": 92,
            "duration": 0.049999999999998934
          },
          {
            "pitch": 51,
            "start": 10.125,
            "end": 10.174999999999999,
            "velocity": 92,
            "duration": 0.049999999999998934
          },
          {
            "pitch": 35,
            "start": 10.193181818181818,
            "end": 10.243181818181817,
            "velocity": 68,
            "duration": 0.049999999999998934
          },
          {
            "pitch": 42,
            "start": 10.193181818181818,
            "end": 10.243181818181817,
            "velocity": 79,
            "duration": 0.049999999999998934
          },
          {
            "pitch": 51,
            "start": 10.193181818181818,
            "end": 10.243181818181817,
            "velocity": 87,
            "duration": 0.049999999999998934
          },
          {
            "pitch": 41,
            "start": 10.21590909090909,
            "end": 10.26590909090909,
            "velocity": 71,
            "duration": 0.05000000000000071
          },
          {
            "pitch": 35,
            "start": 10.309090909090909,
            "end": 10.35909090909091,
            "velocity": 104,
            "duration": 0.05000000000000071
          },
          {
            "pitch": 42,
            "start": 10.309090909090909,
            "end": 10.35909090909091,
            "velocity": 90,
            "duration": 0.05000000000000071
          },
          {
            "pitch": 51,
            "start": 10.331818181818182,
            "end": 10.381818181818181,
            "velocity": 93,
            "duration": 0.049999999999998934
          },
          {
            "pitch": 51,
            "start": 10.379545454545454,
            "end": 10.381818181818181,
            "velocity": 89,
            "duration": 0.002272727272726982
          },
          {
            "pitch": 35,
            "start": 10.379545454545454,
            "end": 10.429545454545455,
            "velocity": 94,
            "duration": 0.05000000000000071
          },
          {
            "pitch": 42,
            "start": 10.402272727272727,
            "end": 10.452272727272726,
            "velocity": 65,
            "duration": 0.049999999999998934
          },
          {
            "pitch": 51,
            "start": 10.472727272727273,
            "end": 10.522727272727272,
            "velocity": 70,
            "duration": 0.049999999999998934
          },
          {
            "pitch": 35,
            "start": 10.495454545454544,
            "end": 10.545454545454545,
            "velocity": 74,
            "duration": 0.05000000000000071
          },
          {
            "pitch": 37,
            "start": 10.518181818181818,
            "end": 10.568181818181818,
            "velocity": 97,
            "duration": 0.05000000000000071
          },
          {
            "pitch": 41,
            "start": 10.518181818181818,
            "end": 10.568181818181818,
            "velocity": 78,
            "duration": 0.05000000000000071
          },
          {
            "pitch": 35,
            "start": 10.56590909090909,
            "end": 10.61590909090909,
            "velocity": 69,
            "duration": 0.05000000000000071
          },
          {
            "pitch": 37,
            "start": 10.588636363636363,
            "end": 10.638636363636364,
            "velocity": 93,
            "duration": 0.05000000000000071
          },
          {
            "pitch": 42,
            "start": 10.611363636363636,
            "end": 10.661363636363635,
            "velocity": 92,
            "duration": 0.049999999999998934
          },
          {
            "pitch": 51,
            "start": 10.659090909090908,
            "end": 10.709090909090909,
            "velocity": 68,
            "duration": 0.05000000000000071
          },
          {
            "pitch": 35,
            "start": 10.681818181818182,
            "end": 10.73181818181818,
            "velocity": 80,
            "duration": 0.049999999999998934
          },
          {
            "pitch": 42,
            "start": 10.681818181818182,
            "end": 10.73181818181818,
            "velocity": 94,
            "duration": 0.049999999999998934
          },
          {
            "pitch": 37,
            "start": 10.727272727272727,
            "end": 10.777272727272727,
            "velocity": 70,
            "duration": 0.05000000000000071
          },
          {
            "pitch": 35,
            "start": 10.75,
            "end": 10.799999999999999,
            "velocity": 112,
            "duration": 0.049999999999998934
          },
          {
            "pitch": 42,
            "start": 10.75,
            "end": 10.799999999999999,
            "velocity": 97,
            "duration": 0.049999999999998934
          },
          {
            "pitch": 51,
            "start": 10.75,
            "end": 10.799999999999999,
            "velocity": 85,
            "duration": 0.049999999999998934
          },
          {
            "pitch": 51,
            "start": 10.797727272727272,
            "end": 10.799999999999999,
            "velocity": 82,
            "duration": 0.002272727272726982
          },
          {
            "pitch": 51,
            "start": 10.843181818181817,
            "end": 10.847727272727273,
            "velocity": 75,
            "duration": 0.0045454545454557405
          },
          {
            "pitch": 35,
            "start": 10.820454545454545,
            "end": 10.870454545454544,
            "velocity": 65,
            "duration": 0.049999999999998934
          },
          {
            "pitch": 35,
            "start": 10.86590909090909,
            "end": 10.870454545454544,
            "velocity": 70,
            "duration": 0.004545454545453964
          },
          {
            "pitch": 35,
            "start": 10.936363636363636,
            "end": 10.986363636363636,
            "velocity": 111,
            "duration": 0.05000000000000071
          },
          {
            "pitch": 42,
            "start": 10.936363636363636,
            "end": 10.986363636363636,
            "velocity": 99,
            "duration": 0.05000000000000071
          },
          {
            "pitch": 51,
            "start": 10.936363636363636,
            "end": 10.986363636363636,
            "velocity": 81,
            "duration": 0.05000000000000071
          },
          {
            "pitch": 37,
            "start": 10.98409090909091,
            "end": 11.034090909090908,
            "velocity": 89,
            "duration": 0.049999999999998934
          },
          {
            "pitch": 35,
            "start": 11.006818181818181,
            "end": 11.056818181818182,
            "velocity": 74,
            "duration": 0.05000000000000071
          },
          {
            "pitch": 51,
            "start": 11.006818181818181,
            "end": 11.056818181818182,
            "velocity": 80,
            "duration": 0.05000000000000071
          },
          {
            "pitch": 51,
            "start": 11.1,
            "end": 11.149999999999999,
            "velocity": 75,
            "duration": 0.049999999999998934
          },
          {
            "pitch": 35,
            "start": 11.122727272727273,
            "end": 11.172727272727272,
            "velocity": 78,
            "duration": 0.049999999999998934
          },
          {
            "pitch": 42,
            "start": 11.122727272727273,
            "end": 11.172727272727272,
            "velocity": 85,
            "duration": 0.049999999999998934
          },
          {
            "pitch": 42,
            "start": 11.19090909090909,
            "end": 11.24090909090909,
            "velocity": 68,
            "duration": 0.05000000000000071
          },
          {
            "pitch": 51,
            "start": 11.19090909090909,
            "end": 11.24090909090909,
            "velocity": 67,
            "duration": 0.05000000000000071
          },
          {
            "pitch": 51,
            "start": 11.261363636363637,
            "end": 11.311363636363636,
            "velocity": 75,
            "duration": 0.049999999999998934
          },
          {
            "pitch": 35,
            "start": 11.309090909090909,
            "end": 11.35909090909091,
            "velocity": 90,
            "duration": 0.05000000000000071
          },
          {
            "pitch": 42,
            "start": 11.309090909090909,
            "end": 11.35909090909091,
            "velocity": 65,
            "duration": 0.05000000000000071
          },
          {
            "pitch": 35,
            "start": 11.377272727272727,
            "end": 11.427272727272726,
            "velocity": 107,
            "duration": 0.049999999999998934
          },
          {
            "pitch": 37,
            "start": 11.399999999999999,
            "end": 11.45,
            "velocity": 104,
            "duration": 0.05000000000000071
          },
          {
            "pitch": 35,
            "start": 11.447727272727272,
            "end": 11.497727272727273,
            "velocity": 66,
            "duration": 0.05000000000000071
          },
          {
            "pitch": 35,
            "start": 11.493181818181817,
            "end": 11.497727272727273,
            "velocity": 71,
            "duration": 0.0045454545454557405
          },
          {
            "pitch": 37,
            "start": 11.470454545454546,
            "end": 11.520454545454545,
            "velocity": 78,
            "duration": 0.049999999999998934
          },
          {
            "pitch": 42,
            "start": 11.493181818181817,
            "end": 11.543181818181818,
            "velocity": 68,
            "duration": 0.05000000000000071
          },
          {
            "pitch": 35,
            "start": 11.563636363636363,
            "end": 11.613636363636363,
            "velocity": 107,
            "duration": 0.05000000000000071
          },
          {
            "pitch": 42,
            "start": 11.563636363636363,
            "end": 11.613636363636363,
            "velocity": 89,
            "duration": 0.05000000000000071
          },
          {
            "pitch": 51,
            "start": 11.563636363636363,
            "end": 11.613636363636363,
            "velocity": 86,
            "duration": 0.05000000000000071
          },
          {
            "pitch": 51,
            "start": 11.656818181818181,
            "end": 11.706818181818182,
            "velocity": 85,
            "duration": 0.05000000000000071
          },
          {
            "pitch": 42,
            "start": 11.679545454545455,
            "end": 11.729545454545454,
            "velocity": 65,
            "duration": 0.049999999999998934
          },
          {
            "pitch": 35,
            "start": 11.75,
            "end": 11.799999999999999,
            "velocity": 117,
            "duration": 0.049999999999998934
          },
          {
            "pitch": 42,
            "start": 11.75,
            "end": 11.799999999999999,
            "velocity": 84,
            "duration": 0.049999999999998934
          },
          {
            "pitch": 51,
            "start": 11.75,
            "end": 11.799999999999999,
            "velocity": 98,
            "duration": 0.049999999999998934
          },
          {
            "pitch": 35,
            "start": 11.818181818181818,
            "end": 11.868181818181817,
            "velocity": 64,
            "duration": 0.049999999999998934
          },
          {
            "pitch": 35,
            "start": 11.86590909090909,
            "end": 11.868181818181817,
            "velocity": 68,
            "duration": 0.002272727272726982
          },
          {
            "pitch": 51,
            "start": 11.843181818181817,
            "end": 11.893181818181818,
            "velocity": 86,
            "duration": 0.05000000000000071
          },
          {
            "pitch": 35,
            "start": 11.934090909090909,
            "end": 11.98409090909091,
            "velocity": 102,
            "duration": 0.05000000000000071
          },
          {
            "pitch": 42,
            "start": 11.934090909090909,
            "end": 11.98409090909091,
            "velocity": 83,
            "duration": 0.05000000000000071
          },
          {
            "pitch": 51,
            "start": 11.934090909090909,
            "end": 11.98409090909091,
            "velocity": 76,
            "duration": 0.05000000000000071
          },
          {
            "pitch": 37,
            "start": 11.959090909090909,
            "end": 12.009090909090908,
            "velocity": 83,
            "duration": 0.049999999999998934
          },
          {
            "pitch": 35,
            "start": 12.004545454545454,
            "end": 12.054545454545455,
            "velocity": 80,
            "duration": 0.05000000000000071
          },
          {
            "pitch": 51,
            "start": 12.004545454545454,
            "end": 12.054545454545455,
            "velocity": 77,
            "duration": 0.05000000000000071
          },
          {
            "pitch": 37,
            "start": 12.052272727272726,
            "end": 12.102272727272727,
            "velocity": 70,
            "duration": 0.05000000000000071
          },
          {
            "pitch": 51,
            "start": 12.097727272727273,
            "end": 12.147727272727272,
            "velocity": 75,
            "duration": 0.049999999999998934
          },
          {
            "pitch": 35,
            "start": 12.120454545454544,
            "end": 12.170454545454545,
            "velocity": 81,
            "duration": 0.05000000000000071
          },
          {
            "pitch": 42,
            "start": 12.120454545454544,
            "end": 12.170454545454545,
            "velocity": 92,
            "duration": 0.05000000000000071
          },
          {
            "pitch": 37,
            "start": 12.143181818181818,
            "end": 12.193181818181818,
            "velocity": 82,
            "duration": 0.05000000000000071
          },
          {
            "pitch": 35,
            "start": 12.19090909090909,
            "end": 12.24090909090909,
            "velocity": 88,
            "duration": 0.05000000000000071
          },
          {
            "pitch": 37,
            "start": 12.236363636363636,
            "end": 12.286363636363635,
            "velocity": 87,
            "duration": 0.049999999999998934
          },
          {
            "pitch": 35,
            "start": 12.306818181818182,
            "end": 12.35681818181818,
            "velocity": 78,
            "duration": 0.049999999999998934
          },
          {
            "pitch": 37,
            "start": 12.352272727272727,
            "end": 12.402272727272727,
            "velocity": 77,
            "duration": 0.05000000000000071
          },
          {
            "pitch": 35,
            "start": 12.377272727272727,
            "end": 12.427272727272726,
            "velocity": 104,
            "duration": 0.049999999999998934
          },
          {
            "pitch": 37,
            "start": 12.422727272727272,
            "end": 12.472727272727273,
            "velocity": 79,
            "duration": 0.05000000000000071
          },
          {
            "pitch": 35,
            "start": 12.445454545454545,
            "end": 12.495454545454544,
            "velocity": 63,
            "duration": 0.049999999999998934
          },
          {
            "pitch": 35,
            "start": 12.493181818181817,
            "end": 12.495454545454544,
            "velocity": 67,
            "duration": 0.002272727272726982
          },
          {
            "pitch": 42,
            "start": 12.493181818181817,
            "end": 12.543181818181818,
            "velocity": 75,
            "duration": 0.05000000000000071
          },
          {
            "pitch": 42,
            "start": 12.561363636363636,
            "end": 12.611363636363636,
            "velocity": 91,
            "duration": 0.05000000000000071
          },
          {
            "pitch": 35,
            "start": 12.631818181818181,
            "end": 12.681818181818182,
            "velocity": 64,
            "duration": 0.05000000000000071
          },
          {
            "pitch": 41,
            "start": 12.793181818181818,
            "end": 12.843181818181817,
            "velocity": 68,
            "duration": 0.049999999999998934
          },
          {
            "pitch": 35,
            "start": 12.84090909090909,
            "end": 12.89090909090909,
            "velocity": 76,
            "duration": 0.05000000000000071
          },
          {
            "pitch": 35,
            "start": 12.886363636363635,
            "end": 12.89090909090909,
            "velocity": 69,
            "duration": 0.0045454545454557405
          },
          {
            "pitch": 35,
            "start": 12.934090909090909,
            "end": 12.936363636363636,
            "velocity": 69,
            "duration": 0.002272727272726982
          },
          {
            "pitch": 41,
            "start": 12.911363636363635,
            "end": 12.961363636363636,
            "velocity": 67,
            "duration": 0.05000000000000071
          },
          {
            "pitch": 51,
            "start": 13.002272727272727,
            "end": 13.052272727272726,
            "velocity": 75,
            "duration": 0.049999999999998934
          },
          {
            "pitch": 51,
            "start": 13.095454545454546,
            "end": 13.145454545454545,
            "velocity": 77,
            "duration": 0.049999999999998934
          },
          {
            "pitch": 35,
            "start": 13.118181818181817,
            "end": 13.168181818181818,
            "velocity": 96,
            "duration": 0.05000000000000071
          },
          {
            "pitch": 35,
            "start": 13.188636363636363,
            "end": 13.238636363636363,
            "velocity": 114,
            "duration": 0.05000000000000071
          },
          {
            "pitch": 42,
            "start": 13.188636363636363,
            "end": 13.238636363636363,
            "velocity": 94,
            "duration": 0.05000000000000071
          },
          {
            "pitch": 51,
            "start": 13.188636363636363,
            "end": 13.238636363636363,
            "velocity": 96,
            "duration": 0.05000000000000071
          },
          {
            "pitch": 51,
            "start": 13.281818181818181,
            "end": 13.331818181818182,
            "velocity": 87,
            "duration": 0.05000000000000071
          },
          {
            "pitch": 35,
            "start": 13.304545454545455,
            "end": 13.354545454545454,
            "velocity": 63,
            "duration": 0.049999999999998934
          },
          {
            "pitch": 42,
            "start": 13.304545454545455,
            "end": 13.354545454545454,
            "velocity": 64,
            "duration": 0.049999999999998934
          },
          {
            "pitch": 37,
            "start": 13.352272727272727,
            "end": 13.402272727272727,
            "velocity": 82,
            "duration": 0.05000000000000071
          },
          {
            "pitch": 35,
            "start": 13.375,
            "end": 13.424999999999999,
            "velocity": 114,
            "duration": 0.049999999999998934
          },
          {
            "pitch": 42,
            "start": 13.375,
            "end": 13.424999999999999,
            "velocity": 101,
            "duration": 0.049999999999998934
          },
          {
            "pitch": 51,
            "start": 13.375,
            "end": 13.424999999999999,
            "velocity": 98,
            "duration": 0.049999999999998934
          },
          {
            "pitch": 35,
            "start": 13.445454545454545,
            "end": 13.495454545454544,
            "velocity": 70,
            "duration": 0.049999999999998934
          },
          {
            "pitch": 37,
            "start": 13.468181818181817,
            "end": 13.518181818181818,
            "velocity": 68,
            "duration": 0.05000000000000071
          },
          {
            "pitch": 51,
            "start": 13.468181818181817,
            "end": 13.518181818181818,
            "velocity": 67,
            "duration": 0.05000000000000071
          },
          {
            "pitch": 37,
            "start": 13.536363636363635,
            "end": 13.586363636363636,
            "velocity": 81,
            "duration": 0.05000000000000071
          },
          {
            "pitch": 35,
            "start": 13.561363636363636,
            "end": 13.611363636363636,
            "velocity": 105,
            "duration": 0.05000000000000071
          },
          {
            "pitch": 42,
            "start": 13.561363636363636,
            "end": 13.611363636363636,
            "velocity": 99,
            "duration": 0.05000000000000071
          },
          {
            "pitch": 51,
            "start": 13.561363636363636,
            "end": 13.611363636363636,
            "velocity": 75,
            "duration": 0.05000000000000071
          },
          {
            "pitch": 35,
            "start": 13.629545454545454,
            "end": 13.679545454545455,
            "velocity": 93,
            "duration": 0.05000000000000071
          },
          {
            "pitch": 51,
            "start": 13.629545454545454,
            "end": 13.679545454545455,
            "velocity": 86,
            "duration": 0.05000000000000071
          },
          {
            "pitch": 35,
            "start": 13.745454545454544,
            "end": 13.795454545454545,
            "velocity": 97,
            "duration": 0.05000000000000071
          },
          {
            "pitch": 42,
            "start": 13.745454545454544,
            "end": 13.795454545454545,
            "velocity": 90,
            "duration": 0.05000000000000071
          },
          {
            "pitch": 37,
            "start": 13.770454545454545,
            "end": 13.820454545454545,
            "velocity": 92,
            "duration": 0.05000000000000071
          },
          {
            "pitch": 35,
            "start": 13.81590909090909,
            "end": 13.86590909090909,
            "velocity": 101,
            "duration": 0.05000000000000071
          },
          {
            "pitch": 42,
            "start": 13.81590909090909,
            "end": 13.86590909090909,
            "velocity": 90,
            "duration": 0.05000000000000071
          },
          {
            "pitch": 51,
            "start": 13.81590909090909,
            "end": 13.86590909090909,
            "velocity": 80,
            "duration": 0.05000000000000071
          },
          {
            "pitch": 37,
            "start": 13.861363636363636,
            "end": 13.911363636363635,
            "velocity": 67,
            "duration": 0.049999999999998934
          },
          {
            "pitch": 51,
            "start": 13.909090909090908,
            "end": 13.959090909090909,
            "velocity": 83,
            "duration": 0.05000000000000071
          },
          {
            "pitch": 35,
            "start": 13.931818181818182,
            "end": 13.98181818181818,
            "velocity": 91,
            "duration": 0.049999999999998934
          },
          {
            "pitch": 42,
            "start": 13.931818181818182,
            "end": 13.98181818181818,
            "velocity": 80,
            "duration": 0.049999999999998934
          },
          {
            "pitch": 37,
            "start": 13.954545454545453,
            "end": 14.004545454545454,
            "velocity": 75,
            "duration": 0.05000000000000071
          },
          {
            "pitch": 35,
            "start": 14.002272727272727,
            "end": 14.052272727272726,
            "velocity": 117,
            "duration": 0.049999999999998934
          },
          {
            "pitch": 51,
            "start": 14.002272727272727,
            "end": 14.052272727272726,
            "velocity": 99,
            "duration": 0.049999999999998934
          },
          {
            "pitch": 37,
            "start": 14.047727272727272,
            "end": 14.097727272727273,
            "velocity": 86,
            "duration": 0.05000000000000071
          },
          {
            "pitch": 51,
            "start": 14.095454545454544,
            "end": 14.145454545454545,
            "velocity": 79,
            "duration": 0.05000000000000071
          },
          {
            "pitch": 35,
            "start": 14.118181818181817,
            "end": 14.168181818181818,
            "velocity": 74,
            "duration": 0.05000000000000071
          },
          {
            "pitch": 35,
            "start": 14.186363636363636,
            "end": 14.236363636363636,
            "velocity": 115,
            "duration": 0.05000000000000071
          },
          {
            "pitch": 42,
            "start": 14.186363636363636,
            "end": 14.236363636363636,
            "velocity": 107,
            "duration": 0.05000000000000071
          },
          {
            "pitch": 51,
            "start": 14.186363636363636,
            "end": 14.236363636363636,
            "velocity": 98,
            "duration": 0.05000000000000071
          },
          {
            "pitch": 35,
            "start": 14.256818181818181,
            "end": 14.306818181818182,
            "velocity": 73,
            "duration": 0.05000000000000071
          },
          {
            "pitch": 51,
            "start": 14.256818181818181,
            "end": 14.306818181818182,
            "velocity": 85,
            "duration": 0.05000000000000071
          },
          {
            "pitch": 37,
            "start": 14.35,
            "end": 14.399999999999999,
            "velocity": 92,
            "duration": 0.049999999999998934
          },
          {
            "pitch": 35,
            "start": 14.372727272727271,
            "end": 14.422727272727272,
            "velocity": 107,
            "duration": 0.05000000000000071
          },
          {
            "pitch": 42,
            "start": 14.372727272727271,
            "end": 14.422727272727272,
            "velocity": 95,
            "duration": 0.05000000000000071
          },
          {
            "pitch": 51,
            "start": 14.372727272727271,
            "end": 14.422727272727272,
            "velocity": 91,
            "duration": 0.05000000000000071
          },
          {
            "pitch": 35,
            "start": 14.443181818181818,
            "end": 14.493181818181817,
            "velocity": 85,
            "duration": 0.049999999999998934
          },
          {
            "pitch": 51,
            "start": 14.443181818181818,
            "end": 14.493181818181817,
            "velocity": 77,
            "duration": 0.049999999999998934
          },
          {
            "pitch": 37,
            "start": 14.536363636363635,
            "end": 14.586363636363636,
            "velocity": 74,
            "duration": 0.05000000000000071
          },
          {
            "pitch": 51,
            "start": 14.536363636363635,
            "end": 14.586363636363636,
            "velocity": 70,
            "duration": 0.05000000000000071
          },
          {
            "pitch": 35,
            "start": 14.559090909090909,
            "end": 14.609090909090908,
            "velocity": 77,
            "duration": 0.049999999999998934
          },
          {
            "pitch": 42,
            "start": 14.559090909090909,
            "end": 14.609090909090908,
            "velocity": 97,
            "duration": 0.049999999999998934
          },
          {
            "pitch": 35,
            "start": 14.629545454545454,
            "end": 14.679545454545455,
            "velocity": 108,
            "duration": 0.05000000000000071
          },
          {
            "pitch": 51,
            "start": 14.629545454545454,
            "end": 14.679545454545455,
            "velocity": 90,
            "duration": 0.05000000000000071
          },
          {
            "pitch": 51,
            "start": 14.720454545454544,
            "end": 14.770454545454545,
            "velocity": 78,
            "duration": 0.05000000000000071
          },
          {
            "pitch": 35,
            "start": 14.745454545454544,
            "end": 14.795454545454545,
            "velocity": 82,
            "duration": 0.05000000000000071
          },
          {
            "pitch": 37,
            "start": 14.768181818181818,
            "end": 14.818181818181818,
            "velocity": 73,
            "duration": 0.05000000000000071
          },
          {
            "pitch": 35,
            "start": 14.813636363636363,
            "end": 14.863636363636363,
            "velocity": 111,
            "duration": 0.05000000000000071
          },
          {
            "pitch": 42,
            "start": 14.813636363636363,
            "end": 14.863636363636363,
            "velocity": 101,
            "duration": 0.05000000000000071
          },
          {
            "pitch": 51,
            "start": 14.813636363636363,
            "end": 14.863636363636363,
            "velocity": 81,
            "duration": 0.05000000000000071
          },
          {
            "pitch": 37,
            "start": 14.861363636363636,
            "end": 14.911363636363635,
            "velocity": 99,
            "duration": 0.049999999999998934
          },
          {
            "pitch": 35,
            "start": 14.884090909090908,
            "end": 14.934090909090909,
            "velocity": 64,
            "duration": 0.05000000000000071
          },
          {
            "pitch": 35,
            "start": 14.929545454545455,
            "end": 14.934090909090909,
            "velocity": 65,
            "duration": 0.004545454545453964
          },
          {
            "pitch": 51,
            "start": 14.906818181818181,
            "end": 14.95681818181818,
            "velocity": 88,
            "duration": 0.049999999999998934
          },
          {
            "pitch": 37,
            "start": 14.929545454545455,
            "end": 14.979545454545454,
            "velocity": 64,
            "duration": 0.049999999999998934
          },
          {
            "pitch": 51,
            "start": 14.977272727272727,
            "end": 15.027272727272727,
            "velocity": 93,
            "duration": 0.05000000000000071
          },
          {
            "pitch": 37,
            "start": 15.045454545454545,
            "end": 15.095454545454544,
            "velocity": 101,
            "duration": 0.049999999999998934
          },
          {
            "pitch": 37,
            "start": 15.093181818181817,
            "end": 15.095454545454544,
            "velocity": 89,
            "duration": 0.002272727272726982
          },
          {
            "pitch": 51,
            "start": 15.070454545454545,
            "end": 15.120454545454544,
            "velocity": 64,
            "duration": 0.049999999999998934
          },
          {
            "pitch": 37,
            "start": 15.138636363636364,
            "end": 15.143181818181818,
            "velocity": 101,
            "duration": 0.004545454545453964
          },
          {
            "pitch": 37,
            "start": 15.186363636363636,
            "end": 15.188636363636363,
            "velocity": 66,
            "duration": 0.002272727272726982
          },
          {
            "pitch": 51,
            "start": 15.163636363636362,
            "end": 15.213636363636363,
            "velocity": 71,
            "duration": 0.05000000000000071
          },
          {
            "pitch": 42,
            "start": 15.186363636363636,
            "end": 15.236363636363636,
            "velocity": 65,
            "duration": 0.05000000000000071
          },
          {
            "pitch": 51,
            "start": 15.254545454545454,
            "end": 15.304545454545455,
            "velocity": 78,
            "duration": 0.05000000000000071
          },
          {
            "pitch": 51,
            "start": 15.302272727272726,
            "end": 15.304545454545455,
            "velocity": 76,
            "duration": 0.0022727272727287584
          },
          {
            "pitch": 42,
            "start": 15.279545454545454,
            "end": 15.329545454545453,
            "velocity": 67,
            "duration": 0.049999999999998934
          },
          {
            "pitch": 51,
            "start": 15.347727272727273,
            "end": 15.352272727272727,
            "velocity": 94,
            "duration": 0.004545454545453964
          },
          {
            "pitch": 42,
            "start": 15.372727272727271,
            "end": 15.422727272727272,
            "velocity": 87,
            "duration": 0.05000000000000071
          },
          {
            "pitch": 51,
            "start": 15.418181818181818,
            "end": 15.468181818181817,
            "velocity": 71,
            "duration": 0.049999999999998934
          },
          {
            "pitch": 51,
            "start": 15.463636363636363,
            "end": 15.468181818181817,
            "velocity": 69,
            "duration": 0.004545454545453964
          },
          {
            "pitch": 37,
            "start": 15.488636363636363,
            "end": 15.538636363636362,
            "velocity": 87,
            "duration": 0.049999999999998934
          },
          {
            "pitch": 51,
            "start": 15.534090909090908,
            "end": 15.584090909090909,
            "velocity": 87,
            "duration": 0.05000000000000071
          },
          {
            "pitch": 42,
            "start": 15.556818181818182,
            "end": 15.60681818181818,
            "velocity": 77,
            "duration": 0.049999999999998934
          },
          {
            "pitch": 35,
            "start": 15.627272727272727,
            "end": 15.677272727272726,
            "velocity": 110,
            "duration": 0.049999999999998934
          },
          {
            "pitch": 51,
            "start": 15.627272727272727,
            "end": 15.677272727272726,
            "velocity": 86,
            "duration": 0.049999999999998934
          },
          {
            "pitch": 51,
            "start": 15.720454545454544,
            "end": 15.770454545454545,
            "velocity": 90,
            "duration": 0.05000000000000071
          },
          {
            "pitch": 35,
            "start": 15.743181818181817,
            "end": 15.793181818181818,
            "velocity": 69,
            "duration": 0.05000000000000071
          },
          {
            "pitch": 37,
            "start": 15.76590909090909,
            "end": 15.81590909090909,
            "velocity": 107,
            "duration": 0.049999999999998934
          },
          {
            "pitch": 51,
            "start": 15.788636363636362,
            "end": 15.838636363636363,
            "velocity": 77,
            "duration": 0.05000000000000071
          },
          {
            "pitch": 42,
            "start": 15.813636363636363,
            "end": 15.863636363636363,
            "velocity": 72,
            "duration": 0.05000000000000071
          },
          {
            "pitch": 37,
            "start": 15.859090909090908,
            "end": 15.909090909090908,
            "velocity": 88,
            "duration": 0.05000000000000071
          },
          {
            "pitch": 37,
            "start": 15.904545454545454,
            "end": 15.909090909090908,
            "velocity": 69,
            "duration": 0.004545454545453964
          },
          {
            "pitch": 51,
            "start": 15.881818181818181,
            "end": 15.931818181818182,
            "velocity": 63,
            "duration": 0.05000000000000071
          },
          {
            "pitch": 35,
            "start": 15.997727272727271,
            "end": 16.047727272727272,
            "velocity": 86,
            "duration": 0.05000000000000071
          },
          {
            "pitch": 51,
            "start": 15.997727272727271,
            "end": 16.047727272727272,
            "velocity": 86,
            "duration": 0.05000000000000071
          },
          {
            "pitch": 42,
            "start": 16.068181818181817,
            "end": 16.118181818181817,
            "velocity": 63,
            "duration": 0.05000000000000071
          },
          {
            "pitch": 51,
            "start": 16.09090909090909,
            "end": 16.14090909090909,
            "velocity": 68,
            "duration": 0.05000000000000071
          },
          {
            "pitch": 51,
            "start": 16.161363636363635,
            "end": 16.211363636363636,
            "velocity": 71,
            "duration": 0.05000000000000071
          },
          {
            "pitch": 37,
            "start": 16.18409090909091,
            "end": 16.23409090909091,
            "velocity": 68,
            "duration": 0.05000000000000071
          },
          {
            "pitch": 35,
            "start": 16.254545454545454,
            "end": 16.304545454545455,
            "velocity": 85,
            "duration": 0.05000000000000071
          },
          {
            "pitch": 51,
            "start": 16.254545454545454,
            "end": 16.304545454545455,
            "velocity": 84,
            "duration": 0.05000000000000071
          },
          {
            "pitch": 37,
            "start": 16.3,
            "end": 16.349999999999998,
            "velocity": 66,
            "duration": 0.04999999999999716
          },
          {
            "pitch": 51,
            "start": 16.347727272727273,
            "end": 16.397727272727273,
            "velocity": 84,
            "duration": 0.05000000000000071
          },
          {
            "pitch": 35,
            "start": 16.370454545454546,
            "end": 16.420454545454543,
            "velocity": 92,
            "duration": 0.04999999999999716
          },
          {
            "pitch": 42,
            "start": 16.370454545454546,
            "end": 16.420454545454543,
            "velocity": 73,
            "duration": 0.04999999999999716
          },
          {
            "pitch": 37,
            "start": 16.393181818181816,
            "end": 16.443181818181817,
            "velocity": 97,
            "duration": 0.05000000000000071
          },
          {
            "pitch": 42,
            "start": 16.438636363636363,
            "end": 16.488636363636363,
            "velocity": 69,
            "duration": 0.05000000000000071
          },
          {
            "pitch": 51,
            "start": 16.438636363636363,
            "end": 16.488636363636363,
            "velocity": 67,
            "duration": 0.05000000000000071
          },
          {
            "pitch": 37,
            "start": 16.486363636363635,
            "end": 16.536363636363635,
            "velocity": 99,
            "duration": 0.05000000000000071
          },
          {
            "pitch": 51,
            "start": 16.53181818181818,
            "end": 16.581818181818182,
            "velocity": 65,
            "duration": 0.05000000000000071
          },
          {
            "pitch": 35,
            "start": 16.625,
            "end": 16.675,
            "velocity": 109,
            "duration": 0.05000000000000071
          },
          {
            "pitch": 35,
            "start": 16.74090909090909,
            "end": 16.79090909090909,
            "velocity": 68,
            "duration": 0.05000000000000071
          },
          {
            "pitch": 37,
            "start": 16.76590909090909,
            "end": 16.81590909090909,
            "velocity": 79,
            "duration": 0.05000000000000071
          },
          {
            "pitch": 37,
            "start": 16.85681818181818,
            "end": 16.90681818181818,
            "velocity": 91,
            "duration": 0.05000000000000071
          },
          {
            "pitch": 35,
            "start": 16.881818181818183,
            "end": 16.93181818181818,
            "velocity": 65,
            "duration": 0.04999999999999716
          },
          {
            "pitch": 35,
            "start": 16.927272727272726,
            "end": 16.93181818181818,
            "velocity": 67,
            "duration": 0.004545454545453964
          },
          {
            "pitch": 37,
            "start": 16.95,
            "end": 17.0,
            "velocity": 100,
            "duration": 0.05000000000000071
          },
          {
            "pitch": 37,
            "start": 17.06590909090909,
            "end": 17.11590909090909,
            "velocity": 75,
            "duration": 0.04999999999999716
          },
          {
            "pitch": 51,
            "start": 17.113636363636363,
            "end": 17.163636363636364,
            "velocity": 67,
            "duration": 0.05000000000000071
          },
          {
            "pitch": 51,
            "start": 17.18181818181818,
            "end": 17.23181818181818,
            "velocity": 78,
            "duration": 0.05000000000000071
          },
          {
            "pitch": 37,
            "start": 17.206818181818182,
            "end": 17.256818181818183,
            "velocity": 66,
            "duration": 0.05000000000000071
          },
          {
            "pitch": 37,
            "start": 17.275,
            "end": 17.325,
            "velocity": 90,
            "duration": 0.05000000000000071
          },
          {
            "pitch": 45,
            "start": 17.3,
            "end": 17.349999999999998,
            "velocity": 89,
            "duration": 0.04999999999999716
          },
          {
            "pitch": 41,
            "start": 17.39090909090909,
            "end": 17.44090909090909,
            "velocity": 67,
            "duration": 0.05000000000000071
          },
          {
            "pitch": 41,
            "start": 17.438636363636363,
            "end": 17.44090909090909,
            "velocity": 64,
            "duration": 0.0022727272727287584
          },
          {
            "pitch": 51,
            "start": 17.41590909090909,
            "end": 17.46590909090909,
            "velocity": 71,
            "duration": 0.05000000000000071
          },
          {
            "pitch": 35,
            "start": 17.461363636363636,
            "end": 17.511363636363637,
            "velocity": 70,
            "duration": 0.05000000000000071
          },
          {
            "pitch": 41,
            "start": 17.53181818181818,
            "end": 17.581818181818182,
            "velocity": 83,
            "duration": 0.05000000000000071
          },
          {
            "pitch": 35,
            "start": 17.554545454545455,
            "end": 17.604545454545455,
            "velocity": 68,
            "duration": 0.05000000000000071
          },
          {
            "pitch": 35,
            "start": 17.625,
            "end": 17.675,
            "velocity": 101,
            "duration": 0.05000000000000071
          },
          {
            "pitch": 51,
            "start": 17.625,
            "end": 17.675,
            "velocity": 86,
            "duration": 0.05000000000000071
          },
          {
            "pitch": 51,
            "start": 17.693181818181817,
            "end": 17.743181818181817,
            "velocity": 71,
            "duration": 0.05000000000000071
          },
          {
            "pitch": 51,
            "start": 17.786363636363635,
            "end": 17.836363636363636,
            "velocity": 80,
            "duration": 0.05000000000000071
          },
          {
            "pitch": 35,
            "start": 17.80909090909091,
            "end": 17.85909090909091,
            "velocity": 84,
            "duration": 0.05000000000000071
          },
          {
            "pitch": 42,
            "start": 17.80909090909091,
            "end": 17.85909090909091,
            "velocity": 77,
            "duration": 0.05000000000000071
          },
          {
            "pitch": 37,
            "start": 17.85681818181818,
            "end": 17.90681818181818,
            "velocity": 79,
            "duration": 0.05000000000000071
          },
          {
            "pitch": 35,
            "start": 17.879545454545454,
            "end": 17.929545454545455,
            "velocity": 82,
            "duration": 0.05000000000000071
          },
          {
            "pitch": 51,
            "start": 17.879545454545454,
            "end": 17.929545454545455,
            "velocity": 85,
            "duration": 0.05000000000000071
          },
          {
            "pitch": 51,
            "start": 17.972727272727273,
            "end": 18.022727272727273,
            "velocity": 77,
            "duration": 0.05000000000000071
          },
          {
            "pitch": 35,
            "start": 17.995454545454546,
            "end": 18.045454545454543,
            "velocity": 79,
            "duration": 0.04999999999999716
          },
          {
            "pitch": 42,
            "start": 17.995454545454546,
            "end": 18.045454545454543,
            "velocity": 88,
            "duration": 0.04999999999999716
          },
          {
            "pitch": 37,
            "start": 18.018181818181816,
            "end": 18.068181818181817,
            "velocity": 73,
            "duration": 0.05000000000000071
          },
          {
            "pitch": 35,
            "start": 18.06590909090909,
            "end": 18.11590909090909,
            "velocity": 92,
            "duration": 0.04999999999999716
          },
          {
            "pitch": 42,
            "start": 18.06590909090909,
            "end": 18.11590909090909,
            "velocity": 67,
            "duration": 0.04999999999999716
          },
          {
            "pitch": 51,
            "start": 18.06590909090909,
            "end": 18.11590909090909,
            "velocity": 73,
            "duration": 0.04999999999999716
          },
          {
            "pitch": 51,
            "start": 18.159090909090907,
            "end": 18.209090909090907,
            "velocity": 83,
            "duration": 0.05000000000000071
          },
          {
            "pitch": 35,
            "start": 18.18181818181818,
            "end": 18.23181818181818,
            "velocity": 89,
            "duration": 0.05000000000000071
          },
          {
            "pitch": 42,
            "start": 18.18181818181818,
            "end": 18.23181818181818,
            "velocity": 77,
            "duration": 0.05000000000000071
          },
          {
            "pitch": 35,
            "start": 18.25,
            "end": 18.3,
            "velocity": 106,
            "duration": 0.05000000000000071
          },
          {
            "pitch": 42,
            "start": 18.25,
            "end": 18.3,
            "velocity": 70,
            "duration": 0.05000000000000071
          },
          {
            "pitch": 51,
            "start": 18.25,
            "end": 18.3,
            "velocity": 79,
            "duration": 0.05000000000000071
          },
          {
            "pitch": 37,
            "start": 18.297727272727272,
            "end": 18.347727272727273,
            "velocity": 64,
            "duration": 0.05000000000000071
          },
          {
            "pitch": 51,
            "start": 18.34318181818182,
            "end": 18.393181818181816,
            "velocity": 73,
            "duration": 0.04999999999999716
          },
          {
            "pitch": 35,
            "start": 18.36590909090909,
            "end": 18.41590909090909,
            "velocity": 72,
            "duration": 0.05000000000000071
          },
          {
            "pitch": 35,
            "start": 18.436363636363634,
            "end": 18.486363636363635,
            "velocity": 105,
            "duration": 0.05000000000000071
          },
          {
            "pitch": 42,
            "start": 18.436363636363634,
            "end": 18.486363636363635,
            "velocity": 80,
            "duration": 0.05000000000000071
          },
          {
            "pitch": 51,
            "start": 18.436363636363634,
            "end": 18.486363636363635,
            "velocity": 74,
            "duration": 0.05000000000000071
          },
          {
            "pitch": 37,
            "start": 18.459090909090907,
            "end": 18.509090909090908,
            "velocity": 69,
            "duration": 0.05000000000000071
          },
          {
            "pitch": 37,
            "start": 18.529545454545453,
            "end": 18.579545454545453,
            "velocity": 64,
            "duration": 0.05000000000000071
          },
          {
            "pitch": 35,
            "start": 18.62272727272727,
            "end": 18.672727272727272,
            "velocity": 96,
            "duration": 0.05000000000000071
          },
          {
            "pitch": 42,
            "start": 18.62272727272727,
            "end": 18.672727272727272,
            "velocity": 77,
            "duration": 0.05000000000000071
          },
          {
            "pitch": 51,
            "start": 18.62272727272727,
            "end": 18.672727272727272,
            "velocity": 86,
            "duration": 0.05000000000000071
          },
          {
            "pitch": 35,
            "start": 18.693181818181817,
            "end": 18.743181818181817,
            "velocity": 82,
            "duration": 0.05000000000000071
          },
          {
            "pitch": 51,
            "start": 18.693181818181817,
            "end": 18.743181818181817,
            "velocity": 84,
            "duration": 0.05000000000000071
          },
          {
            "pitch": 51,
            "start": 18.784090909090907,
            "end": 18.834090909090907,
            "velocity": 75,
            "duration": 0.05000000000000071
          },
          {
            "pitch": 35,
            "start": 18.80909090909091,
            "end": 18.85909090909091,
            "velocity": 71,
            "duration": 0.05000000000000071
          },
          {
            "pitch": 42,
            "start": 18.80909090909091,
            "end": 18.85909090909091,
            "velocity": 65,
            "duration": 0.05000000000000071
          },
          {
            "pitch": 37,
            "start": 18.854545454545455,
            "end": 18.904545454545453,
            "velocity": 64,
            "duration": 0.04999999999999716
          },
          {
            "pitch": 35,
            "start": 18.877272727272725,
            "end": 18.927272727272726,
            "velocity": 87,
            "duration": 0.05000000000000071
          },
          {
            "pitch": 51,
            "start": 18.877272727272725,
            "end": 18.927272727272726,
            "velocity": 83,
            "duration": 0.05000000000000071
          },
          {
            "pitch": 51,
            "start": 18.970454545454544,
            "end": 19.020454545454545,
            "velocity": 77,
            "duration": 0.05000000000000071
          },
          {
            "pitch": 35,
            "start": 18.993181818181817,
            "end": 19.043181818181818,
            "velocity": 75,
            "duration": 0.05000000000000071
          },
          {
            "pitch": 42,
            "start": 18.993181818181817,
            "end": 19.043181818181818,
            "velocity": 71,
            "duration": 0.05000000000000071
          },
          {
            "pitch": 37,
            "start": 19.018181818181816,
            "end": 19.068181818181817,
            "velocity": 71,
            "duration": 0.05000000000000071
          },
          {
            "pitch": 35,
            "start": 19.063636363636363,
            "end": 19.113636363636363,
            "velocity": 103,
            "duration": 0.05000000000000071
          },
          {
            "pitch": 42,
            "start": 19.063636363636363,
            "end": 19.113636363636363,
            "velocity": 82,
            "duration": 0.05000000000000071
          },
          {
            "pitch": 51,
            "start": 19.063636363636363,
            "end": 19.113636363636363,
            "velocity": 78,
            "duration": 0.05000000000000071
          },
          {
            "pitch": 51,
            "start": 19.15681818181818,
            "end": 19.206818181818182,
            "velocity": 80,
            "duration": 0.05000000000000071
          },
          {
            "pitch": 35,
            "start": 19.179545454545455,
            "end": 19.229545454545455,
            "velocity": 66,
            "duration": 0.05000000000000071
          },
          {
            "pitch": 37,
            "start": 19.224999999999998,
            "end": 19.275,
            "velocity": 79,
            "duration": 0.05000000000000071
          },
          {
            "pitch": 35,
            "start": 19.25,
            "end": 19.3,
            "velocity": 102,
            "duration": 0.05000000000000071
          },
          {
            "pitch": 42,
            "start": 19.25,
            "end": 19.3,
            "velocity": 98,
            "duration": 0.05000000000000071
          },
          {
            "pitch": 51,
            "start": 19.25,
            "end": 19.3,
            "velocity": 86,
            "duration": 0.05000000000000071
          },
          {
            "pitch": 37,
            "start": 19.34318181818182,
            "end": 19.393181818181816,
            "velocity": 75,
            "duration": 0.04999999999999716
          },
          {
            "pitch": 51,
            "start": 19.411363636363635,
            "end": 19.461363636363636,
            "velocity": 72,
            "duration": 0.05000000000000071
          },
          {
            "pitch": 35,
            "start": 19.43409090909091,
            "end": 19.48409090909091,
            "velocity": 84,
            "duration": 0.05000000000000071
          },
          {
            "pitch": 37,
            "start": 19.459090909090907,
            "end": 19.509090909090908,
            "velocity": 88,
            "duration": 0.05000000000000071
          },
          {
            "pitch": 51,
            "start": 19.48181818181818,
            "end": 19.53181818181818,
            "velocity": 82,
            "duration": 0.05000000000000071
          },
          {
            "pitch": 51,
            "start": 19.527272727272727,
            "end": 19.53181818181818,
            "velocity": 66,
            "duration": 0.004545454545453964
          },
          {
            "pitch": 37,
            "start": 19.552272727272726,
            "end": 19.602272727272727,
            "velocity": 74,
            "duration": 0.05000000000000071
          },
          {
            "pitch": 51,
            "start": 19.597727272727273,
            "end": 19.647727272727273,
            "velocity": 63,
            "duration": 0.05000000000000071
          },
          {
            "pitch": 37,
            "start": 19.643181818181816,
            "end": 19.693181818181817,
            "velocity": 94,
            "duration": 0.05000000000000071
          },
          {
            "pitch": 51,
            "start": 19.784090909090907,
            "end": 19.834090909090907,
            "velocity": 86,
            "duration": 0.05000000000000071
          },
          {
            "pitch": 51,
            "start": 19.877272727272725,
            "end": 19.927272727272726,
            "velocity": 76,
            "duration": 0.05000000000000071
          },
          {
            "pitch": 51,
            "start": 19.922727272727272,
            "end": 19.927272727272726,
            "velocity": 71,
            "duration": 0.004545454545453964
          },
          {
            "pitch": 35,
            "start": 19.993181818181817,
            "end": 20.043181818181818,
            "velocity": 72,
            "duration": 0.05000000000000071
          },
          {
            "pitch": 37,
            "start": 20.01590909090909,
            "end": 20.06590909090909,
            "velocity": 67,
            "duration": 0.05000000000000071
          },
          {
            "pitch": 51,
            "start": 20.038636363636364,
            "end": 20.08863636363636,
            "velocity": 70,
            "duration": 0.04999999999999716
          },
          {
            "pitch": 42,
            "start": 20.061363636363634,
            "end": 20.111363636363635,
            "velocity": 66,
            "duration": 0.05000000000000071
          },
          {
            "pitch": 51,
            "start": 20.154545454545453,
            "end": 20.204545454545453,
            "velocity": 82,
            "duration": 0.05000000000000071
          },
          {
            "pitch": 35,
            "start": 20.24772727272727,
            "end": 20.297727272727272,
            "velocity": 94,
            "duration": 0.05000000000000071
          },
          {
            "pitch": 51,
            "start": 20.24772727272727,
            "end": 20.297727272727272,
            "velocity": 75,
            "duration": 0.05000000000000071
          },
          {
            "pitch": 37,
            "start": 20.270454545454545,
            "end": 20.320454545454545,
            "velocity": 95,
            "duration": 0.05000000000000071
          },
          {
            "pitch": 37,
            "start": 20.318181818181817,
            "end": 20.320454545454545,
            "velocity": 70,
            "duration": 0.0022727272727287584
          },
          {
            "pitch": 37,
            "start": 20.411363636363635,
            "end": 20.461363636363636,
            "velocity": 78,
            "duration": 0.05000000000000071
          },
          {
            "pitch": 37,
            "start": 20.456818181818182,
            "end": 20.461363636363636,
            "velocity": 68,
            "duration": 0.004545454545453964
          },
          {
            "pitch": 51,
            "start": 20.502272727272725,
            "end": 20.552272727272726,
            "velocity": 70,
            "duration": 0.05000000000000071
          },
          {
            "pitch": 37,
            "start": 20.55,
            "end": 20.599999999999998,
            "velocity": 65,
            "duration": 0.04999999999999716
          },
          {
            "pitch": 35,
            "start": 20.620454545454546,
            "end": 20.670454545454543,
            "velocity": 80,
            "duration": 0.04999999999999716
          },
          {
            "pitch": 37,
            "start": 20.643181818181816,
            "end": 20.693181818181817,
            "velocity": 83,
            "duration": 0.05000000000000071
          },
          {
            "pitch": 37,
            "start": 20.736363636363635,
            "end": 20.786363636363635,
            "velocity": 70,
            "duration": 0.05000000000000071
          },
          {
            "pitch": 51,
            "start": 20.78181818181818,
            "end": 20.831818181818182,
            "velocity": 71,
            "duration": 0.05000000000000071
          },
          {
            "pitch": 37,
            "start": 20.852272727272727,
            "end": 20.902272727272727,
            "velocity": 65,
            "duration": 0.05000000000000071
          },
          {
            "pitch": 37,
            "start": 20.897727272727273,
            "end": 20.902272727272727,
            "velocity": 67,
            "duration": 0.004545454545453964
          },
          {
            "pitch": 35,
            "start": 20.875,
            "end": 20.925,
            "velocity": 93,
            "duration": 0.05000000000000071
          },
          {
            "pitch": 51,
            "start": 20.875,
            "end": 20.925,
            "velocity": 76,
            "duration": 0.05000000000000071
          },
          {
            "pitch": 35,
            "start": 20.99090909090909,
            "end": 21.04090909090909,
            "velocity": 70,
            "duration": 0.05000000000000071
          },
          {
            "pitch": 37,
            "start": 21.013636363636362,
            "end": 21.063636363636363,
            "velocity": 65,
            "duration": 0.05000000000000071
          },
          {
            "pitch": 45,
            "start": 21.084090909090907,
            "end": 21.134090909090908,
            "velocity": 63,
            "duration": 0.05000000000000071
          },
          {
            "pitch": 35,
            "start": 21.245454545454546,
            "end": 21.295454545454543,
            "velocity": 78,
            "duration": 0.04999999999999716
          },
          {
            "pitch": 37,
            "start": 21.270454545454545,
            "end": 21.320454545454545,
            "velocity": 87,
            "duration": 0.05000000000000071
          },
          {
            "pitch": 37,
            "start": 21.33863636363636,
            "end": 21.388636363636362,
            "velocity": 71,
            "duration": 0.05000000000000071
          },
          {
            "pitch": 37,
            "start": 21.454545454545453,
            "end": 21.504545454545454,
            "velocity": 75,
            "duration": 0.05000000000000071
          }
        ],
        "melodic_notes": [],
        "instruments": [
          {
            "program": "0",
            "is_drum": true,
            "name": "",
            "note_count": 694
          }
        ],
        "duration": 21.504545454545454,
        "tempo_changes": 0
      },
      {
        "file_path": "/home/matt/Documents/drum-tranxn/drum-transcription-api/test_audio/final_output.mid",
        "total_notes": 694,
        "drum_notes": [
          {
            "pitch": 35,
            "start": 0.5568181818181818,
            "end": 0.6068181818181818,
            "velocity": 126,
            "duration": 0.050000000000000044
          },
          {
            "pitch": 51,
            "start": 0.5568181818181818,
            "end": 0.6068181818181818,
            "velocity": 109,
            "duration": 0.050000000000000044
          },
          {
            "pitch": 42,
            "start": 0.7431818181818182,
            "end": 0.7931818181818181,
            "velocity": 104,
            "duration": 0.04999999999999993
          },
          {
            "pitch": 45,
            "start": 0.7431818181818182,
            "end": 0.7931818181818181,
            "velocity": 64,
            "duration": 0.04999999999999993
          },
          {
            "pitch": 35,
            "start": 1.3,
            "end": 1.3499999999999999,
            "velocity": 100,
            "duration": 0.04999999999999982
          },
          {
            "pitch": 51,
            "start": 1.3,
            "end": 1.3499999999999999,
            "velocity": 112,
            "duration": 0.04999999999999982
          },
          {
            "pitch": 41,
            "start": 1.4863636363636363,
            "end": 1.5363636363636364,
            "velocity": 75,
            "duration": 0.050000000000000044
          },
          {
            "pitch": 42,
            "start": 1.4863636363636363,
            "end": 1.5363636363636364,
            "velocity": 70,
            "duration": 0.050000000000000044
          },
          {
            "pitch": 35,
            "start": 2.043181818181818,
            "end": 2.0931818181818183,
            "velocity": 120,
            "duration": 0.050000000000000266
          },
          {
            "pitch": 41,
            "start": 2.043181818181818,
            "end": 2.0931818181818183,
            "velocity": 79,
            "duration": 0.050000000000000266
          },
          {
            "pitch": 42,
            "start": 2.043181818181818,
            "end": 2.0931818181818183,
            "velocity": 106,
            "duration": 0.050000000000000266
          },
          {
            "pitch": 51,
            "start": 2.043181818181818,
            "end": 2.0931818181818183,
            "velocity": 113,
            "duration": 0.050000000000000266
          },
          {
            "pitch": 51,
            "start": 2.786363636363636,
            "end": 2.8363636363636364,
            "velocity": 114,
            "duration": 0.050000000000000266
          },
          {
            "pitch": 35,
            "start": 2.9727272727272727,
            "end": 3.0227272727272725,
            "velocity": 102,
            "duration": 0.04999999999999982
          },
          {
            "pitch": 41,
            "start": 2.9727272727272727,
            "end": 3.0227272727272725,
            "velocity": 81,
            "duration": 0.04999999999999982
          },
          {
            "pitch": 42,
            "start": 2.9727272727272727,
            "end": 3.0227272727272725,
            "velocity": 78,
            "duration": 0.04999999999999982
          },
          {
            "pitch": 45,
            "start": 2.9727272727272727,
            "end": 3.0227272727272725,
            "velocity": 63,
            "duration": 0.04999999999999982
          },
          {
            "pitch": 35,
            "start": 3.5295454545454543,
            "end": 3.5795454545454546,
            "velocity": 106,
            "duration": 0.050000000000000266
          },
          {
            "pitch": 41,
            "start": 3.5295454545454543,
            "end": 3.5795454545454546,
            "velocity": 75,
            "duration": 0.050000000000000266
          },
          {
            "pitch": 51,
            "start": 3.5295454545454543,
            "end": 3.5795454545454546,
            "velocity": 88,
            "duration": 0.050000000000000266
          },
          {
            "pitch": 37,
            "start": 3.715909090909091,
            "end": 3.7659090909090907,
            "velocity": 78,
            "duration": 0.04999999999999982
          },
          {
            "pitch": 35,
            "start": 4.086363636363636,
            "end": 4.136363636363636,
            "velocity": 123,
            "duration": 0.04999999999999982
          },
          {
            "pitch": 41,
            "start": 4.2727272727272725,
            "end": 4.322727272727272,
            "velocity": 67,
            "duration": 0.04999999999999982
          },
          {
            "pitch": 51,
            "start": 4.2727272727272725,
            "end": 4.322727272727272,
            "velocity": 111,
            "duration": 0.04999999999999982
          },
          {
            "pitch": 42,
            "start": 4.459090909090909,
            "end": 4.509090909090909,
            "velocity": 80,
            "duration": 0.04999999999999982
          },
          {
            "pitch": 35,
            "start": 5.015909090909091,
            "end": 5.0659090909090905,
            "velocity": 112,
            "duration": 0.04999999999999982
          },
          {
            "pitch": 42,
            "start": 5.015909090909091,
            "end": 5.0659090909090905,
            "velocity": 118,
            "duration": 0.04999999999999982
          },
          {
            "pitch": 45,
            "start": 5.015909090909091,
            "end": 5.0659090909090905,
            "velocity": 71,
            "duration": 0.04999999999999982
          },
          {
            "pitch": 51,
            "start": 5.015909090909091,
            "end": 5.0659090909090905,
            "velocity": 103,
            "duration": 0.04999999999999982
          },
          {
            "pitch": 41,
            "start": 5.202272727272727,
            "end": 5.252272727272727,
            "velocity": 103,
            "duration": 0.04999999999999982
          },
          {
            "pitch": 35,
            "start": 5.572727272727272,
            "end": 5.622727272727272,
            "velocity": 88,
            "duration": 0.04999999999999982
          },
          {
            "pitch": 41,
            "start": 5.759090909090909,
            "end": 5.809090909090909,
            "velocity": 75,
            "duration": 0.04999999999999982
          },
          {
            "pitch": 51,
            "start": 5.759090909090909,
            "end": 5.809090909090909,
            "velocity": 113,
            "duration": 0.04999999999999982
          },
          {
            "pitch": 51,
            "start": 6.3159090909090905,
            "end": 6.36590909090909,
            "velocity": 110,
            "duration": 0.04999999999999982
          },
          {
            "pitch": 35,
            "start": 6.502272727272727,
            "end": 6.552272727272727,
            "velocity": 121,
            "duration": 0.04999999999999982
          },
          {
            "pitch": 42,
            "start": 6.502272727272727,
            "end": 6.552272727272727,
            "velocity": 113,
            "duration": 0.04999999999999982
          },
          {
            "pitch": 35,
            "start": 7.059090909090909,
            "end": 7.1090909090909085,
            "velocity": 121,
            "duration": 0.04999999999999982
          },
          {
            "pitch": 51,
            "start": 7.245454545454545,
            "end": 7.295454545454545,
            "velocity": 84,
            "duration": 0.04999999999999982
          },
          {
            "pitch": 35,
            "start": 7.61590909090909,
            "end": 7.66590909090909,
            "velocity": 89,
            "duration": 0.04999999999999982
          },
          {
            "pitch": 42,
            "start": 7.802272727272727,
            "end": 7.852272727272727,
            "velocity": 85,
            "duration": 0.04999999999999982
          },
          {
            "pitch": 51,
            "start": 7.802272727272727,
            "end": 7.852272727272727,
            "velocity": 101,
            "duration": 0.04999999999999982
          },
          {
            "pitch": 41,
            "start": 7.988636363636363,
            "end": 8.038636363636364,
            "velocity": 81,
            "duration": 0.05000000000000071
          },
          {
            "pitch": 35,
            "start": 8.545454545454545,
            "end": 8.595454545454546,
            "velocity": 89,
            "duration": 0.05000000000000071
          },
          {
            "pitch": 41,
            "start": 8.545454545454545,
            "end": 8.595454545454546,
            "velocity": 74,
            "duration": 0.05000000000000071
          },
          {
            "pitch": 42,
            "start": 8.545454545454545,
            "end": 8.595454545454546,
            "velocity": 91,
            "duration": 0.05000000000000071
          },
          {
            "pitch": 51,
            "start": 8.545454545454545,
            "end": 8.595454545454546,
            "velocity": 72,
            "duration": 0.05000000000000071
          },
          {
            "pitch": 51,
            "start": 9.288636363636364,
            "end": 9.338636363636363,
            "velocity": 94,
            "duration": 0.049999999999998934
          },
          {
            "pitch": 42,
            "start": 9.472727272727273,
            "end": 9.522727272727272,
            "velocity": 73,
            "duration": 0.049999999999998934
          },
          {
            "pitch": 35,
            "start": 10.031818181818181,
            "end": 10.081818181818182,
            "velocity": 122,
            "duration": 0.05000000000000071
          },
          {
            "pitch": 42,
            "start": 10.031818181818181,
            "end": 10.081818181818182,
            "velocity": 70,
            "duration": 0.05000000000000071
          },
          {
            "pitch": 51,
            "start": 10.031818181818181,
            "end": 10.081818181818182,
            "velocity": 105,
            "duration": 0.05000000000000071
          },
          {
            "pitch": 51,
            "start": 10.775,
            "end": 10.825,
            "velocity": 89,
            "duration": 0.049999999999998934
          },
          {
            "pitch": 37,
            "start": 11.145454545454545,
            "end": 11.195454545454545,
            "velocity": 113,
            "duration": 0.05000000000000071
          },
          {
            "pitch": 41,
            "start": 11.331818181818182,
            "end": 11.381818181818181,
            "velocity": 77,
            "duration": 0.049999999999998934
          },
          {
            "pitch": 35,
            "start": 11.518181818181818,
            "end": 11.568181818181818,
            "velocity": 122,
            "duration": 0.05000000000000071
          },
          {
            "pitch": 42,
            "start": 11.518181818181818,
            "end": 11.568181818181818,
            "velocity": 89,
            "duration": 0.05000000000000071
          },
          {
            "pitch": 51,
            "start": 11.518181818181818,
            "end": 11.568181818181818,
            "velocity": 85,
            "duration": 0.05000000000000071
          },
          {
            "pitch": 37,
            "start": 11.888636363636364,
            "end": 11.938636363636363,
            "velocity": 70,
            "duration": 0.049999999999998934
          },
          {
            "pitch": 35,
            "start": 12.075,
            "end": 12.125,
            "velocity": 115,
            "duration": 0.05000000000000071
          },
          {
            "pitch": 51,
            "start": 12.259090909090908,
            "end": 12.309090909090909,
            "velocity": 91,
            "duration": 0.05000000000000071
          },
          {
            "pitch": 42,
            "start": 12.445454545454545,
            "end": 12.495454545454544,
            "velocity": 92,
            "duration": 0.049999999999998934
          },
          {
            "pitch": 45,
            "start": 12.631818181818181,
            "end": 12.681818181818182,
            "velocity": 97,
            "duration": 0.05000000000000071
          },
          {
            "pitch": 35,
            "start": 13.002272727272727,
            "end": 13.052272727272726,
            "velocity": 121,
            "duration": 0.049999999999998934
          },
          {
            "pitch": 41,
            "start": 13.002272727272727,
            "end": 13.052272727272726,
            "velocity": 71,
            "duration": 0.049999999999998934
          },
          {
            "pitch": 42,
            "start": 13.002272727272727,
            "end": 13.052272727272726,
            "velocity": 96,
            "duration": 0.049999999999998934
          },
          {
            "pitch": 51,
            "start": 13.002272727272727,
            "end": 13.052272727272726,
            "velocity": 108,
            "duration": 0.049999999999998934
          },
          {
            "pitch": 35,
            "start": 13.561363636363636,
            "end": 13.611363636363636,
            "velocity": 72,
            "duration": 0.05000000000000071
          },
          {
            "pitch": 42,
            "start": 13.561363636363636,
            "end": 13.611363636363636,
            "velocity": 81,
            "duration": 0.05000000000000071
          },
          {
            "pitch": 51,
            "start": 13.561363636363636,
            "end": 13.611363636363636,
            "velocity": 70,
            "duration": 0.05000000000000071
          },
          {
            "pitch": 41,
            "start": 13.745454545454544,
            "end": 13.795454545454545,
            "velocity": 95,
            "duration": 0.05000000000000071
          },
          {
            "pitch": 51,
            "start": 14.304545454545455,
            "end": 14.354545454545454,
            "velocity": 105,
            "duration": 0.049999999999998934
          },
          {
            "pitch": 35,
            "start": 14.488636363636363,
            "end": 14.538636363636362,
            "velocity": 119,
            "duration": 0.049999999999998934
          },
          {
            "pitch": 42,
            "start": 14.488636363636363,
            "end": 14.538636363636362,
            "velocity": 102,
            "duration": 0.049999999999998934
          },
          {
            "pitch": 37,
            "start": 14.674999999999999,
            "end": 14.725,
            "velocity": 89,
            "duration": 0.05000000000000071
          },
          {
            "pitch": 35,
            "start": 15.045454545454545,
            "end": 15.095454545454544,
            "velocity": 121,
            "duration": 0.049999999999998934
          },
          {
            "pitch": 51,
            "start": 15.045454545454545,
            "end": 15.095454545454544,
            "velocity": 104,
            "duration": 0.049999999999998934
          },
          {
            "pitch": 42,
            "start": 15.23181818181818,
            "end": 15.281818181818181,
            "velocity": 95,
            "duration": 0.05000000000000071
          },
          {
            "pitch": 35,
            "start": 15.788636363636362,
            "end": 15.838636363636363,
            "velocity": 96,
            "duration": 0.05000000000000071
          },
          {
            "pitch": 51,
            "start": 15.788636363636362,
            "end": 15.838636363636363,
            "velocity": 83,
            "duration": 0.05000000000000071
          },
          {
            "pitch": 42,
            "start": 15.975,
            "end": 16.025,
            "velocity": 78,
            "duration": 0.049999999999998934
          },
          {
            "pitch": 37,
            "start": 16.161363636363635,
            "end": 16.211363636363636,
            "velocity": 80,
            "duration": 0.05000000000000071
          },
          {
            "pitch": 35,
            "start": 16.53181818181818,
            "end": 16.581818181818182,
            "velocity": 85,
            "duration": 0.05000000000000071
          },
          {
            "pitch": 51,
            "start": 16.53181818181818,
            "end": 16.581818181818182,
            "velocity": 75,
            "duration": 0.05000000000000071
          },
          {
            "pitch": 35,
            "start": 17.09090909090909,
            "end": 17.14090909090909,
            "velocity": 89,
            "duration": 0.05000000000000071
          },
          {
            "pitch": 41,
            "start": 17.275,
            "end": 17.325,
            "velocity": 90,
            "duration": 0.05000000000000071
          },
          {
            "pitch": 51,
            "start": 17.275,
            "end": 17.325,
            "velocity": 88,
            "duration": 0.05000000000000071
          },
          {
            "pitch": 42,
            "start": 17.461363636363636,
            "end": 17.511363636363637,
            "velocity": 80,
            "duration": 0.05000000000000071
          },
          {
            "pitch": 35,
            "start": 18.018181818181816,
            "end": 18.068181818181817,
            "velocity": 111,
            "duration": 0.05000000000000071
          },
          {
            "pitch": 41,
            "start": 18.018181818181816,
            "end": 18.068181818181817,
            "velocity": 87,
            "duration": 0.05000000000000071
          },
          {
            "pitch": 42,
            "start": 18.018181818181816,
            "end": 18.068181818181817,
            "velocity": 79,
            "duration": 0.05000000000000071
          },
          {
            "pitch": 51,
            "start": 18.018181818181816,
            "end": 18.068181818181817,
            "velocity": 93,
            "duration": 0.05000000000000071
          },
          {
            "pitch": 37,
            "start": 18.204545454545453,
            "end": 18.254545454545454,
            "velocity": 80,
            "duration": 0.05000000000000071
          },
          {
            "pitch": 37,
            "start": 18.761363636363637,
            "end": 18.811363636363634,
            "velocity": 73,
            "duration": 0.04999999999999716
          },
          {
            "pitch": 51,
            "start": 18.761363636363637,
            "end": 18.811363636363634,
            "velocity": 94,
            "duration": 0.04999999999999716
          },
          {
            "pitch": 35,
            "start": 18.94772727272727,
            "end": 18.99772727272727,
            "velocity": 82,
            "duration": 0.05000000000000071
          },
          {
            "pitch": 42,
            "start": 18.94772727272727,
            "end": 18.99772727272727,
            "velocity": 116,
            "duration": 0.05000000000000071
          },
          {
            "pitch": 37,
            "start": 19.134090909090908,
            "end": 19.18409090909091,
            "velocity": 99,
            "duration": 0.05000000000000071
          },
          {
            "pitch": 35,
            "start": 19.504545454545454,
            "end": 19.554545454545455,
            "velocity": 118,
            "duration": 0.05000000000000071
          },
          {
            "pitch": 42,
            "start": 19.504545454545454,
            "end": 19.554545454545455,
            "velocity": 83,
            "duration": 0.05000000000000071
          },
          {
            "pitch": 51,
            "start": 19.504545454545454,
            "end": 19.554545454545455,
            "velocity": 96,
            "duration": 0.05000000000000071
          },
          {
            "pitch": 37,
            "start": 19.877272727272725,
            "end": 19.927272727272726,
            "velocity": 74,
            "duration": 0.05000000000000071
          },
          {
            "pitch": 35,
            "start": 20.061363636363634,
            "end": 20.111363636363635,
            "velocity": 109,
            "duration": 0.05000000000000071
          },
          {
            "pitch": 51,
            "start": 20.061363636363634,
            "end": 20.111363636363635,
            "velocity": 88,
            "duration": 0.05000000000000071
          },
          {
            "pitch": 35,
            "start": 20.99090909090909,
            "end": 21.04090909090909,
            "velocity": 100,
            "duration": 0.05000000000000071
          },
          {
            "pitch": 42,
            "start": 20.99090909090909,
            "end": 21.04090909090909,
            "velocity": 107,
            "duration": 0.05000000000000071
          },
          {
            "pitch": 51,
            "start": 20.99090909090909,
            "end": 21.04090909090909,
            "velocity": 96,
            "duration": 0.05000000000000071
          },
          {
            "pitch": 41,
            "start": 21.177272727272726,
            "end": 21.227272727272727,
            "velocity": 89,
            "duration": 0.05000000000000071
          },
          {
            "pitch": 35,
            "start": 21.547727272727272,
            "end": 21.597727272727273,
            "velocity": 73,
            "duration": 0.05000000000000071
          },
          {
            "pitch": 42,
            "start": 21.547727272727272,
            "end": 21.597727272727273,
            "velocity": 100,
            "duration": 0.05000000000000071
          },
          {
            "pitch": 51,
            "start": 21.547727272727272,
            "end": 21.597727272727273,
            "velocity": 81,
            "duration": 0.05000000000000071
          },
          {
            "pitch": 35,
            "start": 22.29090909090909,
            "end": 22.34090909090909,
            "velocity": 121,
            "duration": 0.05000000000000071
          },
          {
            "pitch": 51,
            "start": 22.29090909090909,
            "end": 22.34090909090909,
            "velocity": 111,
            "duration": 0.05000000000000071
          },
          {
            "pitch": 42,
            "start": 22.477272727272727,
            "end": 22.527272727272727,
            "velocity": 104,
            "duration": 0.05000000000000071
          },
          {
            "pitch": 35,
            "start": 23.034090909090907,
            "end": 23.084090909090907,
            "velocity": 115,
            "duration": 0.05000000000000071
          },
          {
            "pitch": 42,
            "start": 23.034090909090907,
            "end": 23.084090909090907,
            "velocity": 89,
            "duration": 0.05000000000000071
          },
          {
            "pitch": 51,
            "start": 23.034090909090907,
            "end": 23.084090909090907,
            "velocity": 70,
            "duration": 0.05000000000000071
          },
          {
            "pitch": 37,
            "start": 23.40681818181818,
            "end": 23.456818181818182,
            "velocity": 101,
            "duration": 0.05000000000000071
          },
          {
            "pitch": 35,
            "start": 23.59090909090909,
            "end": 23.64090909090909,
            "velocity": 74,
            "duration": 0.05000000000000071
          },
          {
            "pitch": 37,
            "start": 23.777272727272727,
            "end": 23.827272727272724,
            "velocity": 94,
            "duration": 0.04999999999999716
          },
          {
            "pitch": 51,
            "start": 23.777272727272727,
            "end": 23.827272727272724,
            "velocity": 70,
            "duration": 0.04999999999999716
          },
          {
            "pitch": 42,
            "start": 23.96363636363636,
            "end": 24.013636363636362,
            "velocity": 69,
            "duration": 0.05000000000000071
          },
          {
            "pitch": 41,
            "start": 24.334090909090907,
            "end": 24.384090909090908,
            "velocity": 87,
            "duration": 0.05000000000000071
          },
          {
            "pitch": 35,
            "start": 24.520454545454545,
            "end": 24.570454545454545,
            "velocity": 95,
            "duration": 0.05000000000000071
          },
          {
            "pitch": 42,
            "start": 24.520454545454545,
            "end": 24.570454545454545,
            "velocity": 84,
            "duration": 0.05000000000000071
          },
          {
            "pitch": 51,
            "start": 24.520454545454545,
            "end": 24.570454545454545,
            "velocity": 70,
            "duration": 0.05000000000000071
          },
          {
            "pitch": 41,
            "start": 24.89090909090909,
            "end": 24.94090909090909,
            "velocity": 91,
            "duration": 0.05000000000000071
          },
          {
            "pitch": 42,
            "start": 25.45,
            "end": 25.5,
            "velocity": 80,
            "duration": 0.05000000000000071
          },
          {
            "pitch": 51,
            "start": 25.45,
            "end": 25.5,
            "velocity": 63,
            "duration": 0.05000000000000071
          },
          {
            "pitch": 37,
            "start": 25.820454545454545,
            "end": 25.870454545454542,
            "velocity": 64,
            "duration": 0.04999999999999716
          },
          {
            "pitch": 35,
            "start": 26.00681818181818,
            "end": 26.05681818181818,
            "velocity": 119,
            "duration": 0.05000000000000071
          },
          {
            "pitch": 42,
            "start": 26.00681818181818,
            "end": 26.05681818181818,
            "velocity": 105,
            "duration": 0.05000000000000071
          },
          {
            "pitch": 51,
            "start": 26.00681818181818,
            "end": 26.05681818181818,
            "velocity": 91,
            "duration": 0.05000000000000071
          },
          {
            "pitch": 37,
            "start": 26.193181818181817,
            "end": 26.243181818181817,
            "velocity": 63,
            "duration": 0.05000000000000071
          },
          {
            "pitch": 35,
            "start": 26.563636363636363,
            "end": 26.613636363636363,
            "velocity": 81,
            "duration": 0.05000000000000071
          },
          {
            "pitch": 51,
            "start": 26.563636363636363,
            "end": 26.613636363636363,
            "velocity": 72,
            "duration": 0.05000000000000071
          },
          {
            "pitch": 35,
            "start": 27.493181818181817,
            "end": 27.543181818181818,
            "velocity": 121,
            "duration": 0.05000000000000071
          },
          {
            "pitch": 42,
            "start": 27.493181818181817,
            "end": 27.543181818181818,
            "velocity": 105,
            "duration": 0.05000000000000071
          },
          {
            "pitch": 51,
            "start": 27.493181818181817,
            "end": 27.543181818181818,
            "velocity": 92,
            "duration": 0.05000000000000071
          },
          {
            "pitch": 37,
            "start": 27.677272727272726,
            "end": 27.727272727272727,
            "velocity": 71,
            "duration": 0.05000000000000071
          },
          {
            "pitch": 35,
            "start": 28.049999999999997,
            "end": 28.099999999999998,
            "velocity": 107,
            "duration": 0.05000000000000071
          },
          {
            "pitch": 51,
            "start": 28.049999999999997,
            "end": 28.099999999999998,
            "velocity": 93,
            "duration": 0.05000000000000071
          },
          {
            "pitch": 37,
            "start": 28.420454545454543,
            "end": 28.470454545454544,
            "velocity": 92,
            "duration": 0.05000000000000071
          },
          {
            "pitch": 51,
            "start": 28.793181818181818,
            "end": 28.843181818181815,
            "velocity": 98,
            "duration": 0.04999999999999716
          },
          {
            "pitch": 35,
            "start": 28.979545454545452,
            "end": 29.029545454545453,
            "velocity": 96,
            "duration": 0.05000000000000071
          },
          {
            "pitch": 42,
            "start": 28.979545454545452,
            "end": 29.029545454545453,
            "velocity": 100,
            "duration": 0.05000000000000071
          },
          {
            "pitch": 35,
            "start": 29.536363636363635,
            "end": 29.586363636363636,
            "velocity": 78,
            "duration": 0.05000000000000071
          },
          {
            "pitch": 42,
            "start": 29.536363636363635,
            "end": 29.586363636363636,
            "velocity": 97,
            "duration": 0.05000000000000071
          },
          {
            "pitch": 51,
            "start": 29.536363636363635,
            "end": 29.586363636363636,
            "velocity": 85,
            "duration": 0.05000000000000071
          },
          {
            "pitch": 41,
            "start": 29.720454545454544,
            "end": 29.770454545454545,
            "velocity": 68,
            "duration": 0.05000000000000071
          },
          {
            "pitch": 35,
            "start": 30.093181818181815,
            "end": 30.143181818181816,
            "velocity": 82,
            "duration": 0.05000000000000071
          },
          {
            "pitch": 51,
            "start": 30.279545454545453,
            "end": 30.329545454545453,
            "velocity": 91,
            "duration": 0.05000000000000071
          },
          {
            "pitch": 42,
            "start": 30.46363636363636,
            "end": 30.513636363636362,
            "velocity": 91,
            "duration": 0.05000000000000071
          },
          {
            "pitch": 35,
            "start": 31.02272727272727,
            "end": 31.07272727272727,
            "velocity": 122,
            "duration": 0.05000000000000071
          },
          {
            "pitch": 37,
            "start": 31.02272727272727,
            "end": 31.07272727272727,
            "velocity": 87,
            "duration": 0.05000000000000071
          },
          {
            "pitch": 42,
            "start": 31.02272727272727,
            "end": 31.07272727272727,
            "velocity": 85,
            "duration": 0.05000000000000071
          },
          {
            "pitch": 51,
            "start": 31.02272727272727,
            "end": 31.07272727272727,
            "velocity": 101,
            "duration": 0.05000000000000071
          },
          {
            "pitch": 37,
            "start": 31.393181818181816,
            "end": 31.443181818181817,
            "velocity": 110,
            "duration": 0.05000000000000071
          },
          {
            "pitch": 35,
            "start": 31.579545454545453,
            "end": 31.629545454545454,
            "velocity": 88,
            "duration": 0.05000000000000071
          },
          {
            "pitch": 37,
            "start": 31.76590909090909,
            "end": 31.815909090909088,
            "velocity": 85,
            "duration": 0.04999999999999716
          },
          {
            "pitch": 42,
            "start": 31.95,
            "end": 32.0,
            "velocity": 65,
            "duration": 0.05000000000000071
          },
          {
            "pitch": 37,
            "start": 32.13636363636363,
            "end": 32.18636363636364,
            "velocity": 68,
            "duration": 0.05000000000000426
          },
          {
            "pitch": 35,
            "start": 32.50681818181818,
            "end": 32.55681818181818,
            "velocity": 117,
            "duration": 0.04999999999999716
          },
          {
            "pitch": 42,
            "start": 32.50681818181818,
            "end": 32.55681818181818,
            "velocity": 105,
            "duration": 0.04999999999999716
          },
          {
            "pitch": 51,
            "start": 32.50681818181818,
            "end": 32.55681818181818,
            "velocity": 92,
            "duration": 0.04999999999999716
          },
          {
            "pitch": 37,
            "start": 32.87954545454545,
            "end": 32.929545454545455,
            "velocity": 93,
            "duration": 0.05000000000000426
          },
          {
            "pitch": 35,
            "start": 33.06590909090909,
            "end": 33.11590909090909,
            "velocity": 92,
            "duration": 0.05000000000000426
          },
          {
            "pitch": 51,
            "start": 33.25,
            "end": 33.3,
            "velocity": 94,
            "duration": 0.04999999999999716
          },
          {
            "pitch": 35,
            "start": 33.99318181818182,
            "end": 34.043181818181814,
            "velocity": 124,
            "duration": 0.04999999999999716
          },
          {
            "pitch": 42,
            "start": 33.99318181818182,
            "end": 34.043181818181814,
            "velocity": 98,
            "duration": 0.04999999999999716
          },
          {
            "pitch": 51,
            "start": 33.99318181818182,
            "end": 34.043181818181814,
            "velocity": 108,
            "duration": 0.04999999999999716
          },
          {
            "pitch": 35,
            "start": 34.55227272727272,
            "end": 34.60227272727273,
            "velocity": 89,
            "duration": 0.05000000000000426
          },
          {
            "pitch": 42,
            "start": 34.55227272727272,
            "end": 34.60227272727273,
            "velocity": 67,
            "duration": 0.05000000000000426
          },
          {
            "pitch": 51,
            "start": 34.736363636363635,
            "end": 34.78636363636363,
            "velocity": 90,
            "duration": 0.04999999999999716
          },
          {
            "pitch": 51,
            "start": 35.29545454545455,
            "end": 35.345454545454544,
            "velocity": 78,
            "duration": 0.04999999999999716
          },
          {
            "pitch": 35,
            "start": 35.47954545454545,
            "end": 35.529545454545456,
            "velocity": 106,
            "duration": 0.05000000000000426
          },
          {
            "pitch": 35,
            "start": 36.03636363636363,
            "end": 36.086363636363636,
            "velocity": 117,
            "duration": 0.05000000000000426
          },
          {
            "pitch": 51,
            "start": 36.03636363636363,
            "end": 36.086363636363636,
            "velocity": 102,
            "duration": 0.05000000000000426
          },
          {
            "pitch": 35,
            "start": 36.595454545454544,
            "end": 36.64545454545454,
            "velocity": 65,
            "duration": 0.04999999999999716
          },
          {
            "pitch": 51,
            "start": 36.779545454545456,
            "end": 36.82954545454545,
            "velocity": 76,
            "duration": 0.04999999999999716
          },
          {
            "pitch": 35,
            "start": 36.965909090909086,
            "end": 37.01590909090909,
            "velocity": 78,
            "duration": 0.05000000000000426
          },
          {
            "pitch": 42,
            "start": 36.965909090909086,
            "end": 37.01590909090909,
            "velocity": 100,
            "duration": 0.05000000000000426
          },
          {
            "pitch": 37,
            "start": 37.152272727272724,
            "end": 37.20227272727273,
            "velocity": 95,
            "duration": 0.05000000000000426
          },
          {
            "pitch": 35,
            "start": 37.52272727272727,
            "end": 37.57272727272727,
            "velocity": 111,
            "duration": 0.04999999999999716
          },
          {
            "pitch": 42,
            "start": 37.52272727272727,
            "end": 37.57272727272727,
            "velocity": 89,
            "duration": 0.04999999999999716
          },
          {
            "pitch": 51,
            "start": 37.52272727272727,
            "end": 37.57272727272727,
            "velocity": 69,
            "duration": 0.04999999999999716
          },
          {
            "pitch": 37,
            "start": 37.89545454545454,
            "end": 37.945454545454545,
            "velocity": 103,
            "duration": 0.05000000000000426
          },
          {
            "pitch": 35,
            "start": 38.08181818181818,
            "end": 38.13181818181818,
            "velocity": 81,
            "duration": 0.05000000000000426
          },
          {
            "pitch": 37,
            "start": 38.82272727272727,
            "end": 38.87272727272727,
            "velocity": 101,
            "duration": 0.04999999999999716
          },
          {
            "pitch": 35,
            "start": 39.00909090909091,
            "end": 39.059090909090905,
            "velocity": 117,
            "duration": 0.04999999999999716
          },
          {
            "pitch": 37,
            "start": 39.38181818181818,
            "end": 39.43181818181818,
            "velocity": 90,
            "duration": 0.04999999999999716
          },
          {
            "pitch": 35,
            "start": 39.56590909090909,
            "end": 39.61590909090909,
            "velocity": 90,
            "duration": 0.05000000000000426
          },
          {
            "pitch": 42,
            "start": 39.93863636363636,
            "end": 39.98863636363636,
            "velocity": 68,
            "duration": 0.04999999999999716
          },
          {
            "pitch": 37,
            "start": 40.125,
            "end": 40.175,
            "velocity": 89,
            "duration": 0.04999999999999716
          },
          {
            "pitch": 35,
            "start": 40.49545454545454,
            "end": 40.54545454545455,
            "velocity": 118,
            "duration": 0.05000000000000426
          },
          {
            "pitch": 42,
            "start": 40.49545454545454,
            "end": 40.54545454545455,
            "velocity": 111,
            "duration": 0.05000000000000426
          },
          {
            "pitch": 51,
            "start": 40.49545454545454,
            "end": 40.54545454545455,
            "velocity": 81,
            "duration": 0.05000000000000426
          },
          {
            "pitch": 37,
            "start": 40.86818181818182,
            "end": 40.918181818181814,
            "velocity": 115,
            "duration": 0.04999999999999716
          },
          {
            "pitch": 35,
            "start": 41.05227272727272,
            "end": 41.10227272727273,
            "velocity": 91,
            "duration": 0.05000000000000426
          },
          {
            "pitch": 51,
            "start": 41.05227272727272,
            "end": 41.10227272727273,
            "velocity": 79,
            "duration": 0.05000000000000426
          },
          {
            "pitch": 45,
            "start": 41.23863636363636,
            "end": 41.288636363636364,
            "velocity": 70,
            "duration": 0.05000000000000426
          },
          {
            "pitch": 37,
            "start": 41.425,
            "end": 41.475,
            "velocity": 67,
            "duration": 0.05000000000000426
          },
          {
            "pitch": 51,
            "start": 41.79545454545455,
            "end": 41.845454545454544,
            "velocity": 99,
            "duration": 0.04999999999999716
          },
          {
            "pitch": 35,
            "start": 41.98181818181818,
            "end": 42.03181818181818,
            "velocity": 102,
            "duration": 0.05000000000000426
          },
          {
            "pitch": 45,
            "start": 41.98181818181818,
            "end": 42.03181818181818,
            "velocity": 75,
            "duration": 0.05000000000000426
          },
          {
            "pitch": 45,
            "start": 42.35227272727273,
            "end": 42.402272727272724,
            "velocity": 85,
            "duration": 0.04999999999999716
          },
          {
            "pitch": 51,
            "start": 43.095454545454544,
            "end": 43.14545454545454,
            "velocity": 70,
            "duration": 0.04999999999999716
          },
          {
            "pitch": 41,
            "start": 43.28181818181818,
            "end": 43.33181818181818,
            "velocity": 71,
            "duration": 0.04999999999999716
          },
          {
            "pitch": 35,
            "start": 44.025,
            "end": 44.074999999999996,
            "velocity": 91,
            "duration": 0.04999999999999716
          },
          {
            "pitch": 42,
            "start": 44.025,
            "end": 44.074999999999996,
            "velocity": 83,
            "duration": 0.04999999999999716
          },
          {
            "pitch": 51,
            "start": 44.025,
            "end": 44.074999999999996,
            "velocity": 86,
            "duration": 0.04999999999999716
          },
          {
            "pitch": 35,
            "start": 44.768181818181816,
            "end": 44.81818181818181,
            "velocity": 111,
            "duration": 0.04999999999999716
          },
          {
            "pitch": 51,
            "start": 44.768181818181816,
            "end": 44.81818181818181,
            "velocity": 88,
            "duration": 0.04999999999999716
          },
          {
            "pitch": 35,
            "start": 45.51136363636363,
            "end": 45.56136363636364,
            "velocity": 123,
            "duration": 0.05000000000000426
          },
          {
            "pitch": 42,
            "start": 45.51136363636363,
            "end": 45.56136363636364,
            "velocity": 101,
            "duration": 0.05000000000000426
          },
          {
            "pitch": 51,
            "start": 45.51136363636363,
            "end": 45.56136363636364,
            "velocity": 101,
            "duration": 0.05000000000000426
          },
          {
            "pitch": 37,
            "start": 45.88181818181818,
            "end": 45.93181818181818,
            "velocity": 90,
            "duration": 0.04999999999999716
          },
          {
            "pitch": 35,
            "start": 46.06818181818181,
            "end": 46.11818181818182,
            "velocity": 89,
            "duration": 0.05000000000000426
          },
          {
            "pitch": 51,
            "start": 46.06818181818181,
            "end": 46.11818181818182,
            "velocity": 94,
            "duration": 0.05000000000000426
          },
          {
            "pitch": 37,
            "start": 46.81136363636364,
            "end": 46.861363636363635,
            "velocity": 109,
            "duration": 0.04999999999999716
          },
          {
            "pitch": 35,
            "start": 46.99772727272727,
            "end": 47.04772727272727,
            "velocity": 124,
            "duration": 0.05000000000000426
          },
          {
            "pitch": 42,
            "start": 46.99772727272727,
            "end": 47.04772727272727,
            "velocity": 108,
            "duration": 0.05000000000000426
          },
          {
            "pitch": 51,
            "start": 46.99772727272727,
            "end": 47.04772727272727,
            "velocity": 107,
            "duration": 0.05000000000000426
          },
          {
            "pitch": 35,
            "start": 47.554545454545455,
            "end": 47.60454545454545,
            "velocity": 97,
            "duration": 0.04999999999999716
          },
          {
            "pitch": 51,
            "start": 47.554545454545455,
            "end": 47.60454545454545,
            "velocity": 75,
            "duration": 0.04999999999999716
          },
          {
            "pitch": 37,
            "start": 47.74090909090909,
            "end": 47.79090909090909,
            "velocity": 71,
            "duration": 0.04999999999999716
          },
          {
            "pitch": 42,
            "start": 47.74090909090909,
            "end": 47.79090909090909,
            "velocity": 90,
            "duration": 0.04999999999999716
          },
          {
            "pitch": 51,
            "start": 47.925,
            "end": 47.974999999999994,
            "velocity": 65,
            "duration": 0.04999999999999716
          },
          {
            "pitch": 51,
            "start": 48.29772727272727,
            "end": 48.34772727272727,
            "velocity": 77,
            "duration": 0.04999999999999716
          },
          {
            "pitch": 35,
            "start": 48.48409090909091,
            "end": 48.53409090909091,
            "velocity": 103,
            "duration": 0.04999999999999716
          },
          {
            "pitch": 42,
            "start": 48.48409090909091,
            "end": 48.53409090909091,
            "velocity": 107,
            "duration": 0.04999999999999716
          },
          {
            "pitch": 37,
            "start": 48.668181818181814,
            "end": 48.71818181818182,
            "velocity": 70,
            "duration": 0.05000000000000426
          },
          {
            "pitch": 35,
            "start": 49.04090909090909,
            "end": 49.090909090909086,
            "velocity": 113,
            "duration": 0.04999999999999716
          },
          {
            "pitch": 51,
            "start": 49.04090909090909,
            "end": 49.090909090909086,
            "velocity": 100,
            "duration": 0.04999999999999716
          },
          {
            "pitch": 51,
            "start": 49.78409090909091,
            "end": 49.834090909090904,
            "velocity": 71,
            "duration": 0.04999999999999716
          },
          {
            "pitch": 35,
            "start": 49.970454545454544,
            "end": 50.02045454545454,
            "velocity": 92,
            "duration": 0.04999999999999716
          },
          {
            "pitch": 42,
            "start": 49.970454545454544,
            "end": 50.02045454545454,
            "velocity": 98,
            "duration": 0.04999999999999716
          },
          {
            "pitch": 51,
            "start": 50.15454545454545,
            "end": 50.20454545454545,
            "velocity": 77,
            "duration": 0.05000000000000426
          },
          {
            "pitch": 37,
            "start": 50.340909090909086,
            "end": 50.39090909090909,
            "velocity": 70,
            "duration": 0.05000000000000426
          },
          {
            "pitch": 35,
            "start": 50.527272727272724,
            "end": 50.57727272727273,
            "velocity": 115,
            "duration": 0.05000000000000426
          },
          {
            "pitch": 42,
            "start": 50.527272727272724,
            "end": 50.57727272727273,
            "velocity": 101,
            "duration": 0.05000000000000426
          },
          {
            "pitch": 51,
            "start": 50.527272727272724,
            "end": 50.57727272727273,
            "velocity": 84,
            "duration": 0.05000000000000426
          },
          {
            "pitch": 37,
            "start": 50.89772727272727,
            "end": 50.94772727272727,
            "velocity": 94,
            "duration": 0.04999999999999716
          },
          {
            "pitch": 35,
            "start": 51.084090909090904,
            "end": 51.13409090909091,
            "velocity": 70,
            "duration": 0.05000000000000426
          },
          {
            "pitch": 42,
            "start": 51.27045454545454,
            "end": 51.320454545454545,
            "velocity": 86,
            "duration": 0.05000000000000426
          },
          {
            "pitch": 51,
            "start": 51.27045454545454,
            "end": 51.320454545454545,
            "velocity": 95,
            "duration": 0.05000000000000426
          },
          {
            "pitch": 35,
            "start": 51.45454545454545,
            "end": 51.50454545454545,
            "velocity": 76,
            "duration": 0.04999999999999716
          },
          {
            "pitch": 37,
            "start": 51.64090909090909,
            "end": 51.69090909090909,
            "velocity": 81,
            "duration": 0.04999999999999716
          },
          {
            "pitch": 35,
            "start": 52.01363636363636,
            "end": 52.06363636363636,
            "velocity": 124,
            "duration": 0.05000000000000426
          },
          {
            "pitch": 42,
            "start": 52.01363636363636,
            "end": 52.06363636363636,
            "velocity": 98,
            "duration": 0.05000000000000426
          },
          {
            "pitch": 51,
            "start": 52.01363636363636,
            "end": 52.06363636363636,
            "velocity": 107,
            "duration": 0.05000000000000426
          },
          {
            "pitch": 37,
            "start": 52.19772727272727,
            "end": 52.24772727272727,
            "velocity": 92,
            "duration": 0.04999999999999716
          },
          {
            "pitch": 35,
            "start": 52.570454545454545,
            "end": 52.62045454545454,
            "velocity": 94,
            "duration": 0.04999999999999716
          },
          {
            "pitch": 51,
            "start": 52.75681818181818,
            "end": 52.80681818181818,
            "velocity": 83,
            "duration": 0.04999999999999716
          },
          {
            "pitch": 35,
            "start": 53.49772727272727,
            "end": 53.54772727272727,
            "velocity": 120,
            "duration": 0.05000000000000426
          },
          {
            "pitch": 42,
            "start": 53.49772727272727,
            "end": 53.54772727272727,
            "velocity": 114,
            "duration": 0.05000000000000426
          },
          {
            "pitch": 51,
            "start": 53.49772727272727,
            "end": 53.54772727272727,
            "velocity": 98,
            "duration": 0.05000000000000426
          },
          {
            "pitch": 35,
            "start": 54.05681818181818,
            "end": 54.10681818181818,
            "velocity": 101,
            "duration": 0.04999999999999716
          },
          {
            "pitch": 42,
            "start": 54.05681818181818,
            "end": 54.10681818181818,
            "velocity": 64,
            "duration": 0.04999999999999716
          },
          {
            "pitch": 51,
            "start": 54.05681818181818,
            "end": 54.10681818181818,
            "velocity": 94,
            "duration": 0.04999999999999716
          },
          {
            "pitch": 37,
            "start": 54.8,
            "end": 54.849999999999994,
            "velocity": 96,
            "duration": 0.04999999999999716
          },
          {
            "pitch": 35,
            "start": 54.98409090909091,
            "end": 55.03409090909091,
            "velocity": 114,
            "duration": 0.04999999999999716
          },
          {
            "pitch": 42,
            "start": 54.98409090909091,
            "end": 55.03409090909091,
            "velocity": 90,
            "duration": 0.04999999999999716
          },
          {
            "pitch": 51,
            "start": 54.98409090909091,
            "end": 55.03409090909091,
            "velocity": 99,
            "duration": 0.04999999999999716
          },
          {
            "pitch": 35,
            "start": 55.543181818181814,
            "end": 55.59318181818182,
            "velocity": 114,
            "duration": 0.05000000000000426
          },
          {
            "pitch": 42,
            "start": 55.543181818181814,
            "end": 55.59318181818182,
            "velocity": 88,
            "duration": 0.05000000000000426
          },
          {
            "pitch": 51,
            "start": 55.543181818181814,
            "end": 55.59318181818182,
            "velocity": 98,
            "duration": 0.05000000000000426
          },
          {
            "pitch": 51,
            "start": 55.913636363636364,
            "end": 55.96363636363636,
            "velocity": 74,
            "duration": 0.04999999999999716
          },
          {
            "pitch": 51,
            "start": 56.28409090909091,
            "end": 56.334090909090904,
            "velocity": 87,
            "duration": 0.04999999999999716
          },
          {
            "pitch": 35,
            "start": 56.470454545454544,
            "end": 56.52045454545454,
            "velocity": 72,
            "duration": 0.04999999999999716
          },
          {
            "pitch": 42,
            "start": 56.470454545454544,
            "end": 56.52045454545454,
            "velocity": 99,
            "duration": 0.04999999999999716
          },
          {
            "pitch": 37,
            "start": 56.65681818181818,
            "end": 56.70681818181818,
            "velocity": 95,
            "duration": 0.04999999999999716
          },
          {
            "pitch": 35,
            "start": 57.027272727272724,
            "end": 57.07727272727273,
            "velocity": 122,
            "duration": 0.05000000000000426
          },
          {
            "pitch": 42,
            "start": 57.027272727272724,
            "end": 57.07727272727273,
            "velocity": 80,
            "duration": 0.05000000000000426
          },
          {
            "pitch": 51,
            "start": 57.027272727272724,
            "end": 57.07727272727273,
            "velocity": 107,
            "duration": 0.05000000000000426
          },
          {
            "pitch": 37,
            "start": 57.77045454545454,
            "end": 57.820454545454545,
            "velocity": 67,
            "duration": 0.05000000000000426
          },
          {
            "pitch": 51,
            "start": 57.77045454545454,
            "end": 57.820454545454545,
            "velocity": 82,
            "duration": 0.05000000000000426
          },
          {
            "pitch": 35,
            "start": 57.95681818181818,
            "end": 58.006818181818176,
            "velocity": 76,
            "duration": 0.04999999999999716
          },
          {
            "pitch": 42,
            "start": 57.95681818181818,
            "end": 58.006818181818176,
            "velocity": 101,
            "duration": 0.04999999999999716
          },
          {
            "pitch": 37,
            "start": 58.143181818181816,
            "end": 58.19318181818181,
            "velocity": 83,
            "duration": 0.04999999999999716
          },
          {
            "pitch": 35,
            "start": 58.51363636363636,
            "end": 58.56363636363636,
            "velocity": 121,
            "duration": 0.05000000000000426
          },
          {
            "pitch": 42,
            "start": 58.51363636363636,
            "end": 58.56363636363636,
            "velocity": 112,
            "duration": 0.05000000000000426
          },
          {
            "pitch": 51,
            "start": 58.51363636363636,
            "end": 58.56363636363636,
            "velocity": 94,
            "duration": 0.05000000000000426
          },
          {
            "pitch": 37,
            "start": 58.699999999999996,
            "end": 58.75,
            "velocity": 93,
            "duration": 0.05000000000000426
          },
          {
            "pitch": 35,
            "start": 59.070454545454545,
            "end": 59.12045454545454,
            "velocity": 79,
            "duration": 0.04999999999999716
          },
          {
            "pitch": 42,
            "start": 59.256818181818176,
            "end": 59.30681818181818,
            "velocity": 101,
            "duration": 0.05000000000000426
          },
          {
            "pitch": 51,
            "start": 59.256818181818176,
            "end": 59.30681818181818,
            "velocity": 97,
            "duration": 0.05000000000000426
          },
          {
            "pitch": 37,
            "start": 59.62954545454545,
            "end": 59.679545454545455,
            "velocity": 68,
            "duration": 0.05000000000000426
          },
          {
            "pitch": 35,
            "start": 60.0,
            "end": 60.05,
            "velocity": 125,
            "duration": 0.04999999999999716
          },
          {
            "pitch": 42,
            "start": 60.0,
            "end": 60.05,
            "velocity": 114,
            "duration": 0.04999999999999716
          },
          {
            "pitch": 51,
            "start": 60.0,
            "end": 60.05,
            "velocity": 103,
            "duration": 0.04999999999999716
          },
          {
            "pitch": 45,
            "start": 60.18636363636363,
            "end": 60.236363636363635,
            "velocity": 66,
            "duration": 0.05000000000000426
          },
          {
            "pitch": 37,
            "start": 60.37272727272727,
            "end": 60.42272727272727,
            "velocity": 66,
            "duration": 0.05000000000000426
          },
          {
            "pitch": 35,
            "start": 60.55681818181818,
            "end": 60.60681818181818,
            "velocity": 101,
            "duration": 0.04999999999999716
          },
          {
            "pitch": 51,
            "start": 60.55681818181818,
            "end": 60.60681818181818,
            "velocity": 86,
            "duration": 0.04999999999999716
          },
          {
            "pitch": 42,
            "start": 60.74318181818182,
            "end": 60.793181818181814,
            "velocity": 88,
            "duration": 0.04999999999999716
          },
          {
            "pitch": 51,
            "start": 61.3,
            "end": 61.349999999999994,
            "velocity": 99,
            "duration": 0.04999999999999716
          },
          {
            "pitch": 42,
            "start": 61.486363636363635,
            "end": 61.53636363636363,
            "velocity": 90,
            "duration": 0.04999999999999716
          },
          {
            "pitch": 35,
            "start": 61.67272727272727,
            "end": 61.72272727272727,
            "velocity": 77,
            "duration": 0.04999999999999716
          },
          {
            "pitch": 35,
            "start": 62.043181818181814,
            "end": 62.09318181818182,
            "velocity": 65,
            "duration": 0.05000000000000426
          },
          {
            "pitch": 51,
            "start": 62.043181818181814,
            "end": 62.09318181818182,
            "velocity": 95,
            "duration": 0.05000000000000426
          },
          {
            "pitch": 51,
            "start": 62.78636363636363,
            "end": 62.836363636363636,
            "velocity": 100,
            "duration": 0.05000000000000426
          },
          {
            "pitch": 35,
            "start": 62.97272727272727,
            "end": 63.022727272727266,
            "velocity": 97,
            "duration": 0.04999999999999716
          },
          {
            "pitch": 42,
            "start": 62.97272727272727,
            "end": 63.022727272727266,
            "velocity": 91,
            "duration": 0.04999999999999716
          },
          {
            "pitch": 51,
            "start": 63.52954545454545,
            "end": 63.57954545454545,
            "velocity": 73,
            "duration": 0.05000000000000426
          },
          {
            "pitch": 42,
            "start": 63.715909090909086,
            "end": 63.76590909090909,
            "velocity": 79,
            "duration": 0.05000000000000426
          },
          {
            "pitch": 51,
            "start": 63.902272727272724,
            "end": 63.95227272727272,
            "velocity": 79,
            "duration": 0.04999999999999716
          },
          {
            "pitch": 51,
            "start": 64.27272727272727,
            "end": 64.32272727272726,
            "velocity": 94,
            "duration": 0.04999999999999716
          },
          {
            "pitch": 42,
            "start": 64.4590909090909,
            "end": 64.5090909090909,
            "velocity": 97,
            "duration": 0.04999999999999716
          },
          {
            "pitch": 51,
            "start": 64.82954545454545,
            "end": 64.87954545454545,
            "velocity": 76,
            "duration": 0.04999999999999716
          },
          {
            "pitch": 42,
            "start": 65.01590909090909,
            "end": 65.06590909090909,
            "velocity": 93,
            "duration": 0.04999999999999716
          },
          {
            "pitch": 41,
            "start": 65.20227272727273,
            "end": 65.25227272727273,
            "velocity": 79,
            "duration": 0.04999999999999716
          },
          {
            "pitch": 51,
            "start": 65.7590909090909,
            "end": 65.80909090909091,
            "velocity": 100,
            "duration": 0.05000000000001137
          },
          {
            "pitch": 35,
            "start": 65.94545454545454,
            "end": 65.99545454545454,
            "velocity": 74,
            "duration": 0.04999999999999716
          },
          {
            "pitch": 51,
            "start": 66.31590909090909,
            "end": 66.36590909090908,
            "velocity": 92,
            "duration": 0.04999999999999716
          },
          {
            "pitch": 35,
            "start": 66.50227272727273,
            "end": 66.55227272727272,
            "velocity": 82,
            "duration": 0.04999999999999716
          },
          {
            "pitch": 42,
            "start": 66.50227272727273,
            "end": 66.55227272727272,
            "velocity": 107,
            "duration": 0.04999999999999716
          },
          {
            "pitch": 42,
            "start": 67.24545454545454,
            "end": 67.29545454545455,
            "velocity": 69,
            "duration": 0.05000000000001137
          },
          {
            "pitch": 51,
            "start": 67.24545454545454,
            "end": 67.29545454545455,
            "velocity": 73,
            "duration": 0.05000000000001137
          },
          {
            "pitch": 51,
            "start": 67.80227272727272,
            "end": 67.85227272727272,
            "velocity": 82,
            "duration": 0.04999999999999716
          },
          {
            "pitch": 35,
            "start": 67.98863636363636,
            "end": 68.03863636363636,
            "velocity": 90,
            "duration": 0.04999999999999716
          },
          {
            "pitch": 42,
            "start": 67.98863636363636,
            "end": 68.03863636363636,
            "velocity": 77,
            "duration": 0.04999999999999716
          },
          {
            "pitch": 41,
            "start": 68.17272727272727,
            "end": 68.22272727272727,
            "velocity": 68,
            "duration": 0.04999999999999716
          },
          {
            "pitch": 42,
            "start": 68.73181818181818,
            "end": 68.78181818181818,
            "velocity": 79,
            "duration": 0.04999999999999716
          },
          {
            "pitch": 51,
            "start": 69.28863636363636,
            "end": 69.33863636363635,
            "velocity": 79,
            "duration": 0.04999999999999716
          },
          {
            "pitch": 35,
            "start": 69.475,
            "end": 69.52499999999999,
            "velocity": 86,
            "duration": 0.04999999999999716
          },
          {
            "pitch": 42,
            "start": 69.475,
            "end": 69.52499999999999,
            "velocity": 91,
            "duration": 0.04999999999999716
          },
          {
            "pitch": 41,
            "start": 69.84545454545454,
            "end": 69.89545454545454,
            "velocity": 75,
            "duration": 0.04999999999999716
          },
          {
            "pitch": 35,
            "start": 70.03181818181818,
            "end": 70.08181818181818,
            "velocity": 106,
            "duration": 0.04999999999999716
          },
          {
            "pitch": 51,
            "start": 70.03181818181818,
            "end": 70.08181818181818,
            "velocity": 94,
            "duration": 0.04999999999999716
          },
          {
            "pitch": 41,
            "start": 70.21818181818182,
            "end": 70.26818181818182,
            "velocity": 66,
            "duration": 0.04999999999999716
          },
          {
            "pitch": 42,
            "start": 70.21818181818182,
            "end": 70.26818181818182,
            "velocity": 70,
            "duration": 0.04999999999999716
          },
          {
            "pitch": 51,
            "start": 70.77499999999999,
            "end": 70.825,
            "velocity": 78,
            "duration": 0.05000000000001137
          },
          {
            "pitch": 35,
            "start": 70.9590909090909,
            "end": 71.0090909090909,
            "velocity": 81,
            "duration": 0.04999999999999716
          },
          {
            "pitch": 42,
            "start": 70.9590909090909,
            "end": 71.0090909090909,
            "velocity": 87,
            "duration": 0.04999999999999716
          },
          {
            "pitch": 37,
            "start": 71.14545454545454,
            "end": 71.19545454545454,
            "velocity": 120,
            "duration": 0.04999999999999716
          },
          {
            "pitch": 35,
            "start": 71.51818181818182,
            "end": 71.56818181818181,
            "velocity": 100,
            "duration": 0.04999999999999716
          },
          {
            "pitch": 42,
            "start": 71.70227272727273,
            "end": 71.75227272727273,
            "velocity": 66,
            "duration": 0.04999999999999716
          },
          {
            "pitch": 37,
            "start": 71.88863636363637,
            "end": 71.93863636363636,
            "velocity": 100,
            "duration": 0.04999999999999716
          },
          {
            "pitch": 35,
            "start": 72.075,
            "end": 72.125,
            "velocity": 75,
            "duration": 0.04999999999999716
          },
          {
            "pitch": 51,
            "start": 72.26136363636363,
            "end": 72.31136363636364,
            "velocity": 75,
            "duration": 0.05000000000001137
          },
          {
            "pitch": 35,
            "start": 72.44545454545454,
            "end": 72.49545454545454,
            "velocity": 77,
            "duration": 0.04999999999999716
          },
          {
            "pitch": 42,
            "start": 72.44545454545454,
            "end": 72.49545454545454,
            "velocity": 81,
            "duration": 0.04999999999999716
          },
          {
            "pitch": 45,
            "start": 72.63181818181818,
            "end": 72.68181818181817,
            "velocity": 95,
            "duration": 0.04999999999999716
          },
          {
            "pitch": 51,
            "start": 72.81818181818181,
            "end": 72.86818181818181,
            "velocity": 85,
            "duration": 0.04999999999999716
          },
          {
            "pitch": 35,
            "start": 73.00454545454545,
            "end": 73.05454545454545,
            "velocity": 109,
            "duration": 0.04999999999999716
          },
          {
            "pitch": 51,
            "start": 73.375,
            "end": 73.425,
            "velocity": 76,
            "duration": 0.04999999999999716
          },
          {
            "pitch": 41,
            "start": 73.74545454545454,
            "end": 73.79545454545455,
            "velocity": 69,
            "duration": 0.05000000000001137
          },
          {
            "pitch": 51,
            "start": 73.74545454545454,
            "end": 73.79545454545455,
            "velocity": 78,
            "duration": 0.05000000000001137
          },
          {
            "pitch": 35,
            "start": 74.48863636363636,
            "end": 74.53863636363636,
            "velocity": 114,
            "duration": 0.04999999999999716
          },
          {
            "pitch": 42,
            "start": 74.48863636363636,
            "end": 74.53863636363636,
            "velocity": 94,
            "duration": 0.04999999999999716
          },
          {
            "pitch": 51,
            "start": 74.48863636363636,
            "end": 74.53863636363636,
            "velocity": 93,
            "duration": 0.04999999999999716
          },
          {
            "pitch": 51,
            "start": 74.86136363636363,
            "end": 74.91136363636363,
            "velocity": 81,
            "duration": 0.04999999999999716
          },
          {
            "pitch": 35,
            "start": 75.04772727272727,
            "end": 75.09772727272727,
            "velocity": 72,
            "duration": 0.04999999999999716
          },
          {
            "pitch": 42,
            "start": 75.23181818181818,
            "end": 75.28181818181818,
            "velocity": 81,
            "duration": 0.04999999999999716
          },
          {
            "pitch": 51,
            "start": 75.23181818181818,
            "end": 75.28181818181818,
            "velocity": 80,
            "duration": 0.04999999999999716
          },
          {
            "pitch": 35,
            "start": 75.975,
            "end": 76.02499999999999,
            "velocity": 90,
            "duration": 0.04999999999999716
          },
          {
            "pitch": 42,
            "start": 75.975,
            "end": 76.02499999999999,
            "velocity": 88,
            "duration": 0.04999999999999716
          },
          {
            "pitch": 37,
            "start": 76.16136363636363,
            "end": 76.21136363636363,
            "velocity": 104,
            "duration": 0.04999999999999716
          },
          {
            "pitch": 35,
            "start": 76.5340909090909,
            "end": 76.5840909090909,
            "velocity": 101,
            "duration": 0.04999999999999716
          },
          {
            "pitch": 51,
            "start": 76.5340909090909,
            "end": 76.5840909090909,
            "velocity": 64,
            "duration": 0.04999999999999716
          },
          {
            "pitch": 42,
            "start": 76.71818181818182,
            "end": 76.76818181818182,
            "velocity": 81,
            "duration": 0.04999999999999716
          },
          {
            "pitch": 41,
            "start": 77.27499999999999,
            "end": 77.325,
            "velocity": 68,
            "duration": 0.05000000000001137
          },
          {
            "pitch": 51,
            "start": 77.27499999999999,
            "end": 77.325,
            "velocity": 85,
            "duration": 0.05000000000001137
          },
          {
            "pitch": 35,
            "start": 77.46136363636363,
            "end": 77.51136363636363,
            "velocity": 78,
            "duration": 0.04999999999999716
          },
          {
            "pitch": 42,
            "start": 77.46136363636363,
            "end": 77.51136363636363,
            "velocity": 95,
            "duration": 0.04999999999999716
          },
          {
            "pitch": 35,
            "start": 78.01818181818182,
            "end": 78.06818181818181,
            "velocity": 79,
            "duration": 0.04999999999999716
          },
          {
            "pitch": 42,
            "start": 78.01818181818182,
            "end": 78.06818181818181,
            "velocity": 71,
            "duration": 0.04999999999999716
          },
          {
            "pitch": 51,
            "start": 78.01818181818182,
            "end": 78.06818181818181,
            "velocity": 87,
            "duration": 0.04999999999999716
          },
          {
            "pitch": 37,
            "start": 78.20454545454545,
            "end": 78.25454545454545,
            "velocity": 70,
            "duration": 0.04999999999999716
          },
          {
            "pitch": 35,
            "start": 78.57727272727273,
            "end": 78.62727272727273,
            "velocity": 65,
            "duration": 0.04999999999999716
          },
          {
            "pitch": 37,
            "start": 78.76136363636363,
            "end": 78.81136363636364,
            "velocity": 85,
            "duration": 0.05000000000001137
          },
          {
            "pitch": 35,
            "start": 78.94772727272726,
            "end": 78.99772727272727,
            "velocity": 98,
            "duration": 0.05000000000001137
          },
          {
            "pitch": 42,
            "start": 78.94772727272726,
            "end": 78.99772727272727,
            "velocity": 106,
            "duration": 0.05000000000001137
          },
          {
            "pitch": 51,
            "start": 78.94772727272726,
            "end": 78.99772727272727,
            "velocity": 79,
            "duration": 0.05000000000001137
          },
          {
            "pitch": 37,
            "start": 79.1340909090909,
            "end": 79.18409090909091,
            "velocity": 109,
            "duration": 0.05000000000001137
          },
          {
            "pitch": 35,
            "start": 79.50454545454545,
            "end": 79.55454545454545,
            "velocity": 113,
            "duration": 0.04999999999999716
          },
          {
            "pitch": 42,
            "start": 79.50454545454545,
            "end": 79.55454545454545,
            "velocity": 74,
            "duration": 0.04999999999999716
          },
          {
            "pitch": 51,
            "start": 79.50454545454545,
            "end": 79.55454545454545,
            "velocity": 93,
            "duration": 0.04999999999999716
          },
          {
            "pitch": 51,
            "start": 79.87727272727273,
            "end": 79.92727272727272,
            "velocity": 79,
            "duration": 0.04999999999999716
          },
          {
            "pitch": 35,
            "start": 80.06136363636364,
            "end": 80.11136363636363,
            "velocity": 74,
            "duration": 0.04999999999999716
          },
          {
            "pitch": 37,
            "start": 80.24772727272727,
            "end": 80.29772727272727,
            "velocity": 84,
            "duration": 0.04999999999999716
          },
          {
            "pitch": 35,
            "start": 80.99090909090908,
            "end": 81.04090909090908,
            "velocity": 79,
            "duration": 0.04999999999999716
          },
          {
            "pitch": 42,
            "start": 80.99090909090908,
            "end": 81.04090909090908,
            "velocity": 92,
            "duration": 0.04999999999999716
          },
          {
            "pitch": 51,
            "start": 80.99090909090908,
            "end": 81.04090909090908,
            "velocity": 92,
            "duration": 0.04999999999999716
          },
          {
            "pitch": 35,
            "start": 81.54772727272727,
            "end": 81.59772727272727,
            "velocity": 68,
            "duration": 0.04999999999999716
          },
          {
            "pitch": 42,
            "start": 81.54772727272727,
            "end": 81.59772727272727,
            "velocity": 79,
            "duration": 0.04999999999999716
          },
          {
            "pitch": 51,
            "start": 81.54772727272727,
            "end": 81.59772727272727,
            "velocity": 87,
            "duration": 0.04999999999999716
          },
          {
            "pitch": 41,
            "start": 81.73409090909091,
            "end": 81.7840909090909,
            "velocity": 71,
            "duration": 0.04999999999999716
          },
          {
            "pitch": 35,
            "start": 82.47727272727272,
            "end": 82.52727272727272,
            "velocity": 104,
            "duration": 0.04999999999999716
          },
          {
            "pitch": 42,
            "start": 82.47727272727272,
            "end": 82.52727272727272,
            "velocity": 90,
            "duration": 0.04999999999999716
          },
          {
            "pitch": 51,
            "start": 82.66363636363636,
            "end": 82.71363636363635,
            "velocity": 93,
            "duration": 0.04999999999999716
          },
          {
            "pitch": 35,
            "start": 83.0340909090909,
            "end": 83.0840909090909,
            "velocity": 94,
            "duration": 0.04999999999999716
          },
          {
            "pitch": 51,
            "start": 83.0340909090909,
            "end": 83.0840909090909,
            "velocity": 89,
            "duration": 0.04999999999999716
          },
          {
            "pitch": 42,
            "start": 83.22045454545454,
            "end": 83.27045454545454,
            "velocity": 65,
            "duration": 0.04999999999999716
          },
          {
            "pitch": 51,
            "start": 83.77727272727272,
            "end": 83.82727272727273,
            "velocity": 70,
            "duration": 0.05000000000001137
          },
          {
            "pitch": 35,
            "start": 83.96363636363635,
            "end": 84.01363636363637,
            "velocity": 74,
            "duration": 0.05000000000001137
          },
          {
            "pitch": 37,
            "start": 84.14999999999999,
            "end": 84.2,
            "velocity": 97,
            "duration": 0.05000000000001137
          },
          {
            "pitch": 41,
            "start": 84.14999999999999,
            "end": 84.2,
            "velocity": 78,
            "duration": 0.05000000000001137
          },
          {
            "pitch": 35,
            "start": 84.52045454545454,
            "end": 84.57045454545454,
            "velocity": 69,
            "duration": 0.04999999999999716
          },
          {
            "pitch": 37,
            "start": 84.70681818181818,
            "end": 84.75681818181818,
            "velocity": 93,
            "duration": 0.04999999999999716
          },
          {
            "pitch": 42,
            "start": 84.89318181818182,
            "end": 84.94318181818181,
            "velocity": 92,
            "duration": 0.04999999999999716
          },
          {
            "pitch": 51,
            "start": 85.26363636363637,
            "end": 85.31363636363636,
            "velocity": 68,
            "duration": 0.04999999999999716
          },
          {
            "pitch": 35,
            "start": 85.45,
            "end": 85.5,
            "velocity": 80,
            "duration": 0.04999999999999716
          },
          {
            "pitch": 42,
            "start": 85.45,
            "end": 85.5,
            "velocity": 94,
            "duration": 0.04999999999999716
          },
          {
            "pitch": 37,
            "start": 85.82045454545454,
            "end": 85.87045454545454,
            "velocity": 70,
            "duration": 0.04999999999999716
          },
          {
            "pitch": 35,
            "start": 86.00681818181818,
            "end": 86.05681818181817,
            "velocity": 112,
            "duration": 0.04999999999999716
          },
          {
            "pitch": 42,
            "start": 86.00681818181818,
            "end": 86.05681818181817,
            "velocity": 97,
            "duration": 0.04999999999999716
          },
          {
            "pitch": 51,
            "start": 86.00681818181818,
            "end": 86.05681818181817,
            "velocity": 85,
            "duration": 0.04999999999999716
          },
          {
            "pitch": 51,
            "start": 86.37727272727273,
            "end": 86.42727272727272,
            "velocity": 82,
            "duration": 0.04999999999999716
          },
          {
            "pitch": 35,
            "start": 86.56363636363636,
            "end": 86.61363636363636,
            "velocity": 65,
            "duration": 0.04999999999999716
          },
          {
            "pitch": 51,
            "start": 86.75,
            "end": 86.8,
            "velocity": 75,
            "duration": 0.04999999999999716
          },
          {
            "pitch": 35,
            "start": 86.93636363636364,
            "end": 86.98636363636363,
            "velocity": 70,
            "duration": 0.04999999999999716
          },
          {
            "pitch": 35,
            "start": 87.49318181818181,
            "end": 87.54318181818181,
            "velocity": 111,
            "duration": 0.04999999999999716
          },
          {
            "pitch": 42,
            "start": 87.49318181818181,
            "end": 87.54318181818181,
            "velocity": 99,
            "duration": 0.04999999999999716
          },
          {
            "pitch": 51,
            "start": 87.49318181818181,
            "end": 87.54318181818181,
            "velocity": 81,
            "duration": 0.04999999999999716
          },
          {
            "pitch": 37,
            "start": 87.86363636363636,
            "end": 87.91363636363636,
            "velocity": 89,
            "duration": 0.04999999999999716
          },
          {
            "pitch": 35,
            "start": 88.05,
            "end": 88.1,
            "velocity": 74,
            "duration": 0.04999999999999716
          },
          {
            "pitch": 51,
            "start": 88.05,
            "end": 88.1,
            "velocity": 80,
            "duration": 0.04999999999999716
          },
          {
            "pitch": 51,
            "start": 88.79318181818181,
            "end": 88.84318181818182,
            "velocity": 75,
            "duration": 0.05000000000001137
          },
          {
            "pitch": 35,
            "start": 88.97954545454544,
            "end": 89.02954545454546,
            "velocity": 78,
            "duration": 0.05000000000001137
          },
          {
            "pitch": 42,
            "start": 88.97954545454544,
            "end": 89.02954545454546,
            "velocity": 85,
            "duration": 0.05000000000001137
          },
          {
            "pitch": 42,
            "start": 89.53636363636363,
            "end": 89.58636363636363,
            "velocity": 68,
            "duration": 0.04999999999999716
          },
          {
            "pitch": 51,
            "start": 89.53636363636363,
            "end": 89.58636363636363,
            "velocity": 67,
            "duration": 0.04999999999999716
          },
          {
            "pitch": 51,
            "start": 90.09318181818182,
            "end": 90.14318181818182,
            "velocity": 75,
            "duration": 0.04999999999999716
          },
          {
            "pitch": 35,
            "start": 90.4659090909091,
            "end": 90.51590909090909,
            "velocity": 90,
            "duration": 0.04999999999999716
          },
          {
            "pitch": 42,
            "start": 90.4659090909091,
            "end": 90.51590909090909,
            "velocity": 65,
            "duration": 0.04999999999999716
          },
          {
            "pitch": 35,
            "start": 91.02272727272727,
            "end": 91.07272727272726,
            "velocity": 107,
            "duration": 0.04999999999999716
          },
          {
            "pitch": 37,
            "start": 91.2090909090909,
            "end": 91.2590909090909,
            "velocity": 104,
            "duration": 0.04999999999999716
          },
          {
            "pitch": 35,
            "start": 91.57954545454545,
            "end": 91.62954545454545,
            "velocity": 66,
            "duration": 0.04999999999999716
          },
          {
            "pitch": 37,
            "start": 91.76590909090909,
            "end": 91.81590909090909,
            "velocity": 78,
            "duration": 0.04999999999999716
          },
          {
            "pitch": 35,
            "start": 91.94999999999999,
            "end": 92.0,
            "velocity": 71,
            "duration": 0.05000000000001137
          },
          {
            "pitch": 42,
            "start": 91.94999999999999,
            "end": 92.0,
            "velocity": 68,
            "duration": 0.05000000000001137
          },
          {
            "pitch": 35,
            "start": 92.5090909090909,
            "end": 92.5590909090909,
            "velocity": 107,
            "duration": 0.04999999999999716
          },
          {
            "pitch": 42,
            "start": 92.5090909090909,
            "end": 92.5590909090909,
            "velocity": 89,
            "duration": 0.04999999999999716
          },
          {
            "pitch": 51,
            "start": 92.5090909090909,
            "end": 92.5590909090909,
            "velocity": 86,
            "duration": 0.04999999999999716
          },
          {
            "pitch": 51,
            "start": 93.25227272727273,
            "end": 93.30227272727272,
            "velocity": 85,
            "duration": 0.04999999999999716
          },
          {
            "pitch": 42,
            "start": 93.43636363636364,
            "end": 93.48636363636363,
            "velocity": 65,
            "duration": 0.04999999999999716
          },
          {
            "pitch": 35,
            "start": 93.99545454545454,
            "end": 94.04545454545455,
            "velocity": 117,
            "duration": 0.05000000000001137
          },
          {
            "pitch": 42,
            "start": 93.99545454545454,
            "end": 94.04545454545455,
            "velocity": 84,
            "duration": 0.05000000000001137
          },
          {
            "pitch": 51,
            "start": 93.99545454545454,
            "end": 94.04545454545455,
            "velocity": 98,
            "duration": 0.05000000000001137
          },
          {
            "pitch": 35,
            "start": 94.55227272727272,
            "end": 94.60227272727272,
            "velocity": 64,
            "duration": 0.04999999999999716
          },
          {
            "pitch": 51,
            "start": 94.73636363636363,
            "end": 94.78636363636363,
            "velocity": 86,
            "duration": 0.04999999999999716
          },
          {
            "pitch": 35,
            "start": 94.92272727272727,
            "end": 94.97272727272727,
            "velocity": 68,
            "duration": 0.04999999999999716
          },
          {
            "pitch": 35,
            "start": 95.47954545454544,
            "end": 95.52954545454546,
            "velocity": 102,
            "duration": 0.05000000000001137
          },
          {
            "pitch": 42,
            "start": 95.47954545454544,
            "end": 95.52954545454546,
            "velocity": 83,
            "duration": 0.05000000000001137
          },
          {
            "pitch": 51,
            "start": 95.47954545454544,
            "end": 95.52954545454546,
            "velocity": 76,
            "duration": 0.05000000000001137
          },
          {
            "pitch": 37,
            "start": 95.66590909090908,
            "end": 95.71590909090908,
            "velocity": 83,
            "duration": 0.04999999999999716
          },
          {
            "pitch": 35,
            "start": 96.03863636363636,
            "end": 96.08863636363635,
            "velocity": 80,
            "duration": 0.04999999999999716
          },
          {
            "pitch": 51,
            "start": 96.03863636363636,
            "end": 96.08863636363635,
            "velocity": 77,
            "duration": 0.04999999999999716
          },
          {
            "pitch": 37,
            "start": 96.4090909090909,
            "end": 96.4590909090909,
            "velocity": 70,
            "duration": 0.04999999999999716
          },
          {
            "pitch": 51,
            "start": 96.78181818181818,
            "end": 96.83181818181818,
            "velocity": 75,
            "duration": 0.04999999999999716
          },
          {
            "pitch": 35,
            "start": 96.96590909090908,
            "end": 97.01590909090909,
            "velocity": 81,
            "duration": 0.05000000000001137
          },
          {
            "pitch": 42,
            "start": 96.96590909090908,
            "end": 97.01590909090909,
            "velocity": 92,
            "duration": 0.05000000000001137
          },
          {
            "pitch": 37,
            "start": 97.15227272727272,
            "end": 97.20227272727273,
            "velocity": 82,
            "duration": 0.05000000000001137
          },
          {
            "pitch": 35,
            "start": 97.52272727272727,
            "end": 97.57272727272726,
            "velocity": 88,
            "duration": 0.04999999999999716
          },
          {
            "pitch": 37,
            "start": 97.89545454545454,
            "end": 97.94545454545454,
            "velocity": 87,
            "duration": 0.04999999999999716
          },
          {
            "pitch": 35,
            "start": 98.45227272727273,
            "end": 98.50227272727273,
            "velocity": 78,
            "duration": 0.04999999999999716
          },
          {
            "pitch": 37,
            "start": 98.82499999999999,
            "end": 98.875,
            "velocity": 77,
            "duration": 0.05000000000001137
          },
          {
            "pitch": 35,
            "start": 99.0090909090909,
            "end": 99.0590909090909,
            "velocity": 104,
            "duration": 0.04999999999999716
          },
          {
            "pitch": 37,
            "start": 99.38181818181818,
            "end": 99.43181818181817,
            "velocity": 79,
            "duration": 0.04999999999999716
          },
          {
            "pitch": 35,
            "start": 99.56818181818181,
            "end": 99.61818181818181,
            "velocity": 63,
            "duration": 0.04999999999999716
          },
          {
            "pitch": 35,
            "start": 99.93863636363636,
            "end": 99.98863636363636,
            "velocity": 67,
            "duration": 0.04999999999999716
          },
          {
            "pitch": 42,
            "start": 99.93863636363636,
            "end": 99.98863636363636,
            "velocity": 75,
            "duration": 0.04999999999999716
          },
          {
            "pitch": 42,
            "start": 100.49545454545454,
            "end": 100.54545454545455,
            "velocity": 91,
            "duration": 0.05000000000001137
          },
          {
            "pitch": 35,
            "start": 101.05227272727272,
            "end": 101.10227272727272,
            "velocity": 64,
            "duration": 0.04999999999999716
          },
          {
            "pitch": 41,
            "start": 102.35454545454544,
            "end": 102.40454545454546,
            "velocity": 68,
            "duration": 0.05000000000001137
          },
          {
            "pitch": 35,
            "start": 102.725,
            "end": 102.77499999999999,
            "velocity": 76,
            "duration": 0.04999999999999716
          },
          {
            "pitch": 35,
            "start": 103.09772727272727,
            "end": 103.14772727272727,
            "velocity": 69,
            "duration": 0.04999999999999716
          },
          {
            "pitch": 41,
            "start": 103.28181818181818,
            "end": 103.33181818181818,
            "velocity": 67,
            "duration": 0.04999999999999716
          },
          {
            "pitch": 35,
            "start": 103.46818181818182,
            "end": 103.51818181818182,
            "velocity": 69,
            "duration": 0.04999999999999716
          },
          {
            "pitch": 51,
            "start": 104.02499999999999,
            "end": 104.07499999999999,
            "velocity": 75,
            "duration": 0.04999999999999716
          },
          {
            "pitch": 51,
            "start": 104.76818181818182,
            "end": 104.81818181818181,
            "velocity": 77,
            "duration": 0.04999999999999716
          },
          {
            "pitch": 35,
            "start": 104.95454545454545,
            "end": 105.00454545454545,
            "velocity": 96,
            "duration": 0.04999999999999716
          },
          {
            "pitch": 35,
            "start": 105.51136363636363,
            "end": 105.56136363636364,
            "velocity": 114,
            "duration": 0.05000000000001137
          },
          {
            "pitch": 42,
            "start": 105.51136363636363,
            "end": 105.56136363636364,
            "velocity": 94,
            "duration": 0.05000000000001137
          },
          {
            "pitch": 51,
            "start": 105.51136363636363,
            "end": 105.56136363636364,
            "velocity": 96,
            "duration": 0.05000000000001137
          },
          {
            "pitch": 51,
            "start": 106.25454545454545,
            "end": 106.30454545454545,
            "velocity": 87,
            "duration": 0.04999999999999716
          },
          {
            "pitch": 35,
            "start": 106.44090909090909,
            "end": 106.49090909090908,
            "velocity": 63,
            "duration": 0.04999999999999716
          },
          {
            "pitch": 42,
            "start": 106.44090909090909,
            "end": 106.49090909090908,
            "velocity": 64,
            "duration": 0.04999999999999716
          },
          {
            "pitch": 37,
            "start": 106.81136363636364,
            "end": 106.86136363636363,
            "velocity": 82,
            "duration": 0.04999999999999716
          },
          {
            "pitch": 35,
            "start": 106.99772727272726,
            "end": 107.04772727272727,
            "velocity": 114,
            "duration": 0.05000000000001137
          },
          {
            "pitch": 42,
            "start": 106.99772727272726,
            "end": 107.04772727272727,
            "velocity": 101,
            "duration": 0.05000000000001137
          },
          {
            "pitch": 51,
            "start": 106.99772727272726,
            "end": 107.04772727272727,
            "velocity": 98,
            "duration": 0.05000000000001137
          },
          {
            "pitch": 35,
            "start": 107.55454545454545,
            "end": 107.60454545454544,
            "velocity": 70,
            "duration": 0.04999999999999716
          },
          {
            "pitch": 37,
            "start": 107.74090909090908,
            "end": 107.79090909090908,
            "velocity": 68,
            "duration": 0.04999999999999716
          },
          {
            "pitch": 51,
            "start": 107.74090909090908,
            "end": 107.79090909090908,
            "velocity": 67,
            "duration": 0.04999999999999716
          },
          {
            "pitch": 37,
            "start": 108.29772727272727,
            "end": 108.34772727272727,
            "velocity": 81,
            "duration": 0.04999999999999716
          },
          {
            "pitch": 35,
            "start": 108.48409090909091,
            "end": 108.5340909090909,
            "velocity": 105,
            "duration": 0.04999999999999716
          },
          {
            "pitch": 42,
            "start": 108.48409090909091,
            "end": 108.5340909090909,
            "velocity": 99,
            "duration": 0.04999999999999716
          },
          {
            "pitch": 51,
            "start": 108.48409090909091,
            "end": 108.5340909090909,
            "velocity": 75,
            "duration": 0.04999999999999716
          },
          {
            "pitch": 35,
            "start": 109.04090909090908,
            "end": 109.09090909090908,
            "velocity": 93,
            "duration": 0.04999999999999716
          },
          {
            "pitch": 51,
            "start": 109.04090909090908,
            "end": 109.09090909090908,
            "velocity": 86,
            "duration": 0.04999999999999716
          },
          {
            "pitch": 35,
            "start": 109.97045454545454,
            "end": 110.02045454545454,
            "velocity": 97,
            "duration": 0.04999999999999716
          },
          {
            "pitch": 42,
            "start": 109.97045454545454,
            "end": 110.02045454545454,
            "velocity": 90,
            "duration": 0.04999999999999716
          },
          {
            "pitch": 37,
            "start": 110.15454545454546,
            "end": 110.20454545454545,
            "velocity": 92,
            "duration": 0.04999999999999716
          },
          {
            "pitch": 35,
            "start": 110.52727272727272,
            "end": 110.57727272727273,
            "velocity": 101,
            "duration": 0.05000000000001137
          },
          {
            "pitch": 42,
            "start": 110.52727272727272,
            "end": 110.57727272727273,
            "velocity": 90,
            "duration": 0.05000000000001137
          },
          {
            "pitch": 51,
            "start": 110.52727272727272,
            "end": 110.57727272727273,
            "velocity": 80,
            "duration": 0.05000000000001137
          },
          {
            "pitch": 37,
            "start": 110.89772727272727,
            "end": 110.94772727272726,
            "velocity": 67,
            "duration": 0.04999999999999716
          },
          {
            "pitch": 51,
            "start": 111.27045454545454,
            "end": 111.32045454545454,
            "velocity": 83,
            "duration": 0.04999999999999716
          },
          {
            "pitch": 35,
            "start": 111.45681818181818,
            "end": 111.50681818181818,
            "velocity": 91,
            "duration": 0.04999999999999716
          },
          {
            "pitch": 42,
            "start": 111.45681818181818,
            "end": 111.50681818181818,
            "velocity": 80,
            "duration": 0.04999999999999716
          },
          {
            "pitch": 37,
            "start": 111.64090909090909,
            "end": 111.69090909090909,
            "velocity": 75,
            "duration": 0.04999999999999716
          },
          {
            "pitch": 35,
            "start": 112.01363636363635,
            "end": 112.06363636363636,
            "velocity": 117,
            "duration": 0.05000000000001137
          },
          {
            "pitch": 51,
            "start": 112.01363636363635,
            "end": 112.06363636363636,
            "velocity": 99,
            "duration": 0.05000000000001137
          },
          {
            "pitch": 37,
            "start": 112.3840909090909,
            "end": 112.4340909090909,
            "velocity": 86,
            "duration": 0.04999999999999716
          },
          {
            "pitch": 51,
            "start": 112.75681818181818,
            "end": 112.80681818181817,
            "velocity": 79,
            "duration": 0.04999999999999716
          },
          {
            "pitch": 35,
            "start": 112.94090909090909,
            "end": 112.99090909090908,
            "velocity": 74,
            "duration": 0.04999999999999716
          },
          {
            "pitch": 35,
            "start": 113.5,
            "end": 113.55,
            "velocity": 115,
            "duration": 0.04999999999999716
          },
          {
            "pitch": 42,
            "start": 113.5,
            "end": 113.55,
            "velocity": 107,
            "duration": 0.04999999999999716
          },
          {
            "pitch": 51,
            "start": 113.5,
            "end": 113.55,
            "velocity": 98,
            "duration": 0.04999999999999716
          },
          {
            "pitch": 35,
            "start": 114.05681818181817,
            "end": 114.10681818181817,
            "velocity": 73,
            "duration": 0.04999999999999716
          },
          {
            "pitch": 51,
            "start": 114.05681818181817,
            "end": 114.10681818181817,
            "velocity": 85,
            "duration": 0.04999999999999716
          },
          {
            "pitch": 37,
            "start": 114.8,
            "end": 114.85,
            "velocity": 92,
            "duration": 0.04999999999999716
          },
          {
            "pitch": 35,
            "start": 114.98409090909091,
            "end": 115.0340909090909,
            "velocity": 107,
            "duration": 0.04999999999999716
          },
          {
            "pitch": 42,
            "start": 114.98409090909091,
            "end": 115.0340909090909,
            "velocity": 95,
            "duration": 0.04999999999999716
          },
          {
            "pitch": 51,
            "start": 114.98409090909091,
            "end": 115.0340909090909,
            "velocity": 91,
            "duration": 0.04999999999999716
          },
          {
            "pitch": 35,
            "start": 115.54318181818181,
            "end": 115.59318181818182,
            "velocity": 85,
            "duration": 0.05000000000001137
          },
          {
            "pitch": 51,
            "start": 115.54318181818181,
            "end": 115.59318181818182,
            "velocity": 77,
            "duration": 0.05000000000001137
          },
          {
            "pitch": 37,
            "start": 116.28636363636363,
            "end": 116.33636363636363,
            "velocity": 74,
            "duration": 0.04999999999999716
          },
          {
            "pitch": 51,
            "start": 116.28636363636363,
            "end": 116.33636363636363,
            "velocity": 70,
            "duration": 0.04999999999999716
          },
          {
            "pitch": 35,
            "start": 116.47045454545454,
            "end": 116.52045454545454,
            "velocity": 77,
            "duration": 0.04999999999999716
          },
          {
            "pitch": 42,
            "start": 116.47045454545454,
            "end": 116.52045454545454,
            "velocity": 97,
            "duration": 0.04999999999999716
          },
          {
            "pitch": 35,
            "start": 117.02954545454544,
            "end": 117.07954545454545,
            "velocity": 108,
            "duration": 0.05000000000001137
          },
          {
            "pitch": 51,
            "start": 117.02954545454544,
            "end": 117.07954545454545,
            "velocity": 90,
            "duration": 0.05000000000001137
          },
          {
            "pitch": 51,
            "start": 117.77272727272727,
            "end": 117.82272727272726,
            "velocity": 78,
            "duration": 0.04999999999999716
          },
          {
            "pitch": 35,
            "start": 117.95681818181818,
            "end": 118.00681818181818,
            "velocity": 82,
            "duration": 0.04999999999999716
          },
          {
            "pitch": 37,
            "start": 118.14318181818182,
            "end": 118.19318181818181,
            "velocity": 73,
            "duration": 0.04999999999999716
          },
          {
            "pitch": 35,
            "start": 118.51363636363635,
            "end": 118.56363636363636,
            "velocity": 111,
            "duration": 0.05000000000001137
          },
          {
            "pitch": 42,
            "start": 118.51363636363635,
            "end": 118.56363636363636,
            "velocity": 101,
            "duration": 0.05000000000001137
          },
          {
            "pitch": 51,
            "start": 118.51363636363635,
            "end": 118.56363636363636,
            "velocity": 81,
            "duration": 0.05000000000001137
          },
          {
            "pitch": 37,
            "start": 118.88636363636363,
            "end": 118.93636363636364,
            "velocity": 99,
            "duration": 0.05000000000001137
          },
          {
            "pitch": 35,
            "start": 119.07272727272726,
            "end": 119.12272727272726,
            "velocity": 64,
            "duration": 0.04999999999999716
          },
          {
            "pitch": 51,
            "start": 119.25681818181818,
            "end": 119.30681818181817,
            "velocity": 88,
            "duration": 0.04999999999999716
          },
          {
            "pitch": 35,
            "start": 119.44318181818181,
            "end": 119.49318181818181,
            "velocity": 65,
            "duration": 0.04999999999999716
          },
          {
            "pitch": 37,
            "start": 119.44318181818181,
            "end": 119.49318181818181,
            "velocity": 64,
            "duration": 0.04999999999999716
          },
          {
            "pitch": 51,
            "start": 119.81590909090909,
            "end": 119.86590909090908,
            "velocity": 93,
            "duration": 0.04999999999999716
          },
          {
            "pitch": 37,
            "start": 120.37272727272726,
            "end": 120.42272727272727,
            "velocity": 101,
            "duration": 0.05000000000001137
          },
          {
            "pitch": 51,
            "start": 120.5590909090909,
            "end": 120.60909090909091,
            "velocity": 64,
            "duration": 0.05000000000001137
          },
          {
            "pitch": 37,
            "start": 120.74318181818181,
            "end": 120.79318181818181,
            "velocity": 89,
            "duration": 0.04999999999999716
          },
          {
            "pitch": 37,
            "start": 121.11590909090908,
            "end": 121.16590909090908,
            "velocity": 101,
            "duration": 0.04999999999999716
          },
          {
            "pitch": 51,
            "start": 121.3,
            "end": 121.35,
            "velocity": 71,
            "duration": 0.04999999999999716
          },
          {
            "pitch": 37,
            "start": 121.48636363636363,
            "end": 121.53636363636363,
            "velocity": 66,
            "duration": 0.04999999999999716
          },
          {
            "pitch": 42,
            "start": 121.48636363636363,
            "end": 121.53636363636363,
            "velocity": 65,
            "duration": 0.04999999999999716
          },
          {
            "pitch": 51,
            "start": 122.04318181818181,
            "end": 122.09318181818182,
            "velocity": 78,
            "duration": 0.05000000000001137
          },
          {
            "pitch": 42,
            "start": 122.22954545454544,
            "end": 122.27954545454544,
            "velocity": 67,
            "duration": 0.04999999999999716
          },
          {
            "pitch": 51,
            "start": 122.41590909090908,
            "end": 122.46590909090908,
            "velocity": 76,
            "duration": 0.04999999999999716
          },
          {
            "pitch": 51,
            "start": 122.78636363636363,
            "end": 122.83636363636363,
            "velocity": 94,
            "duration": 0.04999999999999716
          },
          {
            "pitch": 42,
            "start": 122.97272727272727,
            "end": 123.02272727272727,
            "velocity": 87,
            "duration": 0.04999999999999716
          },
          {
            "pitch": 51,
            "start": 123.34545454545454,
            "end": 123.39545454545454,
            "velocity": 71,
            "duration": 0.04999999999999716
          },
          {
            "pitch": 51,
            "start": 123.71590909090908,
            "end": 123.76590909090909,
            "velocity": 69,
            "duration": 0.05000000000001137
          },
          {
            "pitch": 37,
            "start": 123.90227272727272,
            "end": 123.95227272727273,
            "velocity": 87,
            "duration": 0.05000000000001137
          },
          {
            "pitch": 51,
            "start": 124.27272727272727,
            "end": 124.32272727272726,
            "velocity": 87,
            "duration": 0.04999999999999716
          },
          {
            "pitch": 42,
            "start": 124.4590909090909,
            "end": 124.5090909090909,
            "velocity": 77,
            "duration": 0.04999999999999716
          },
          {
            "pitch": 35,
            "start": 125.01590909090909,
            "end": 125.06590909090909,
            "velocity": 110,
            "duration": 0.04999999999999716
          },
          {
            "pitch": 51,
            "start": 125.01590909090909,
            "end": 125.06590909090909,
            "velocity": 86,
            "duration": 0.04999999999999716
          },
          {
            "pitch": 51,
            "start": 125.7590909090909,
            "end": 125.8090909090909,
            "velocity": 90,
            "duration": 0.04999999999999716
          },
          {
            "pitch": 35,
            "start": 125.94545454545454,
            "end": 125.99545454545454,
            "velocity": 69,
            "duration": 0.04999999999999716
          },
          {
            "pitch": 37,
            "start": 126.13181818181818,
            "end": 126.18181818181817,
            "velocity": 107,
            "duration": 0.04999999999999716
          },
          {
            "pitch": 51,
            "start": 126.31590909090909,
            "end": 126.36590909090908,
            "velocity": 77,
            "duration": 0.04999999999999716
          },
          {
            "pitch": 42,
            "start": 126.50227272727273,
            "end": 126.55227272727272,
            "velocity": 72,
            "duration": 0.04999999999999716
          },
          {
            "pitch": 37,
            "start": 126.87272727272726,
            "end": 126.92272727272727,
            "velocity": 88,
            "duration": 0.05000000000001137
          },
          {
            "pitch": 51,
            "start": 127.0590909090909,
            "end": 127.10909090909091,
            "velocity": 63,
            "duration": 0.05000000000001137
          },
          {
            "pitch": 37,
            "start": 127.24545454545454,
            "end": 127.29545454545453,
            "velocity": 69,
            "duration": 0.04999999999999716
          },
          {
            "pitch": 35,
            "start": 127.98863636363636,
            "end": 128.03863636363636,
            "velocity": 86,
            "duration": 0.04999999999999716
          },
          {
            "pitch": 51,
            "start": 127.98863636363636,
            "end": 128.03863636363636,
            "velocity": 86,
            "duration": 0.04999999999999716
          },
          {
            "pitch": 42,
            "start": 128.54545454545453,
            "end": 128.59545454545454,
            "velocity": 63,
            "duration": 0.05000000000001137
          },
          {
            "pitch": 51,
            "start": 128.73181818181817,
            "end": 128.78181818181818,
            "velocity": 68,
            "duration": 0.05000000000001137
          },
          {
            "pitch": 51,
            "start": 129.28863636363636,
            "end": 129.33863636363637,
            "velocity": 71,
            "duration": 0.05000000000001137
          },
          {
            "pitch": 37,
            "start": 129.475,
            "end": 129.525,
            "velocity": 68,
            "duration": 0.05000000000001137
          },
          {
            "pitch": 35,
            "start": 130.03181818181818,
            "end": 130.08181818181816,
            "velocity": 85,
            "duration": 0.04999999999998295
          },
          {
            "pitch": 51,
            "start": 130.03181818181818,
            "end": 130.08181818181816,
            "velocity": 84,
            "duration": 0.04999999999998295
          },
          {
            "pitch": 37,
            "start": 130.40227272727273,
            "end": 130.4522727272727,
            "velocity": 66,
            "duration": 0.04999999999998295
          },
          {
            "pitch": 51,
            "start": 130.775,
            "end": 130.825,
            "velocity": 84,
            "duration": 0.04999999999998295
          },
          {
            "pitch": 35,
            "start": 130.96136363636364,
            "end": 131.01136363636363,
            "velocity": 92,
            "duration": 0.04999999999998295
          },
          {
            "pitch": 42,
            "start": 130.96136363636364,
            "end": 131.01136363636363,
            "velocity": 73,
            "duration": 0.04999999999998295
          },
          {
            "pitch": 37,
            "start": 131.14545454545453,
            "end": 131.19545454545454,
            "velocity": 97,
            "duration": 0.05000000000001137
          },
          {
            "pitch": 42,
            "start": 131.5181818181818,
            "end": 131.5681818181818,
            "velocity": 69,
            "duration": 0.05000000000001137
          },
          {
            "pitch": 51,
            "start": 131.5181818181818,
            "end": 131.5681818181818,
            "velocity": 67,
            "duration": 0.05000000000001137
          },
          {
            "pitch": 37,
            "start": 131.88863636363635,
            "end": 131.93863636363636,
            "velocity": 99,
            "duration": 0.05000000000001137
          },
          {
            "pitch": 51,
            "start": 132.26136363636363,
            "end": 132.31136363636364,
            "velocity": 65,
            "duration": 0.05000000000001137
          },
          {
            "pitch": 35,
            "start": 133.00454545454545,
            "end": 133.05454545454546,
            "velocity": 109,
            "duration": 0.05000000000001137
          },
          {
            "pitch": 35,
            "start": 133.9318181818182,
            "end": 133.98181818181817,
            "velocity": 68,
            "duration": 0.04999999999998295
          },
          {
            "pitch": 37,
            "start": 134.11818181818182,
            "end": 134.1681818181818,
            "velocity": 79,
            "duration": 0.04999999999998295
          },
          {
            "pitch": 37,
            "start": 134.86136363636362,
            "end": 134.91136363636363,
            "velocity": 91,
            "duration": 0.05000000000001137
          },
          {
            "pitch": 35,
            "start": 135.04772727272726,
            "end": 135.09772727272727,
            "velocity": 65,
            "duration": 0.05000000000001137
          },
          {
            "pitch": 35,
            "start": 135.4181818181818,
            "end": 135.46818181818182,
            "velocity": 67,
            "duration": 0.05000000000001137
          },
          {
            "pitch": 37,
            "start": 135.60454545454544,
            "end": 135.65454545454546,
            "velocity": 100,
            "duration": 0.05000000000001137
          },
          {
            "pitch": 37,
            "start": 136.5340909090909,
            "end": 136.5840909090909,
            "velocity": 75,
            "duration": 0.04999999999998295
          },
          {
            "pitch": 51,
            "start": 136.90454545454546,
            "end": 136.95454545454544,
            "velocity": 67,
            "duration": 0.04999999999998295
          },
          {
            "pitch": 51,
            "start": 137.46136363636364,
            "end": 137.51136363636363,
            "velocity": 78,
            "duration": 0.04999999999998295
          },
          {
            "pitch": 37,
            "start": 137.64772727272725,
            "end": 137.69772727272726,
            "velocity": 66,
            "duration": 0.05000000000001137
          },
          {
            "pitch": 37,
            "start": 138.20454545454544,
            "end": 138.25454545454545,
            "velocity": 90,
            "duration": 0.05000000000001137
          },
          {
            "pitch": 45,
            "start": 138.39090909090908,
            "end": 138.4409090909091,
            "velocity": 89,
            "duration": 0.05000000000001137
          },
          {
            "pitch": 41,
            "start": 139.1340909090909,
            "end": 139.1840909090909,
            "velocity": 67,
            "duration": 0.05000000000001137
          },
          {
            "pitch": 51,
            "start": 139.32045454545454,
            "end": 139.37045454545455,
            "velocity": 71,
            "duration": 0.05000000000001137
          },
          {
            "pitch": 41,
            "start": 139.50454545454545,
            "end": 139.55454545454546,
            "velocity": 64,
            "duration": 0.05000000000001137
          },
          {
            "pitch": 35,
            "start": 139.6909090909091,
            "end": 139.74090909090907,
            "velocity": 70,
            "duration": 0.04999999999998295
          },
          {
            "pitch": 41,
            "start": 140.24772727272727,
            "end": 140.29772727272726,
            "velocity": 83,
            "duration": 0.04999999999998295
          },
          {
            "pitch": 35,
            "start": 140.4340909090909,
            "end": 140.4840909090909,
            "velocity": 68,
            "duration": 0.04999999999998295
          },
          {
            "pitch": 35,
            "start": 140.99090909090907,
            "end": 141.04090909090908,
            "velocity": 101,
            "duration": 0.05000000000001137
          },
          {
            "pitch": 51,
            "start": 140.99090909090907,
            "end": 141.04090909090908,
            "velocity": 86,
            "duration": 0.05000000000001137
          },
          {
            "pitch": 51,
            "start": 141.54772727272726,
            "end": 141.59772727272727,
            "velocity": 71,
            "duration": 0.05000000000001137
          },
          {
            "pitch": 51,
            "start": 142.29090909090908,
            "end": 142.3409090909091,
            "velocity": 80,
            "duration": 0.05000000000001137
          },
          {
            "pitch": 35,
            "start": 142.47727272727272,
            "end": 142.52727272727273,
            "velocity": 84,
            "duration": 0.05000000000001137
          },
          {
            "pitch": 42,
            "start": 142.47727272727272,
            "end": 142.52727272727273,
            "velocity": 77,
            "duration": 0.05000000000001137
          },
          {
            "pitch": 37,
            "start": 142.85,
            "end": 142.9,
            "velocity": 79,
            "duration": 0.05000000000001137
          },
          {
            "pitch": 35,
            "start": 143.0340909090909,
            "end": 143.0840909090909,
            "velocity": 82,
            "duration": 0.04999999999998295
          },
          {
            "pitch": 51,
            "start": 143.0340909090909,
            "end": 143.0840909090909,
            "velocity": 85,
            "duration": 0.04999999999998295
          },
          {
            "pitch": 51,
            "start": 143.77727272727273,
            "end": 143.8272727272727,
            "velocity": 77,
            "duration": 0.04999999999998295
          },
          {
            "pitch": 35,
            "start": 143.96363636363637,
            "end": 144.01363636363635,
            "velocity": 79,
            "duration": 0.04999999999998295
          },
          {
            "pitch": 42,
            "start": 143.96363636363637,
            "end": 144.01363636363635,
            "velocity": 88,
            "duration": 0.04999999999998295
          },
          {
            "pitch": 37,
            "start": 144.15,
            "end": 144.2,
            "velocity": 73,
            "duration": 0.04999999999998295
          },
          {
            "pitch": 35,
            "start": 144.52045454545453,
            "end": 144.57045454545454,
            "velocity": 92,
            "duration": 0.05000000000001137
          },
          {
            "pitch": 42,
            "start": 144.52045454545453,
            "end": 144.57045454545454,
            "velocity": 67,
            "duration": 0.05000000000001137
          },
          {
            "pitch": 51,
            "start": 144.52045454545453,
            "end": 144.57045454545454,
            "velocity": 73,
            "duration": 0.05000000000001137
          },
          {
            "pitch": 51,
            "start": 145.26363636363635,
            "end": 145.31363636363636,
            "velocity": 83,
            "duration": 0.05000000000001137
          },
          {
            "pitch": 35,
            "start": 145.45,
            "end": 145.5,
            "velocity": 89,
            "duration": 0.05000000000001137
          },
          {
            "pitch": 42,
            "start": 145.45,
            "end": 145.5,
            "velocity": 77,
            "duration": 0.05000000000001137
          },
          {
            "pitch": 35,
            "start": 146.00681818181818,
            "end": 146.0568181818182,
            "velocity": 106,
            "duration": 0.05000000000001137
          },
          {
            "pitch": 42,
            "start": 146.00681818181818,
            "end": 146.0568181818182,
            "velocity": 70,
            "duration": 0.05000000000001137
          },
          {
            "pitch": 51,
            "start": 146.00681818181818,
            "end": 146.0568181818182,
            "velocity": 79,
            "duration": 0.05000000000001137
          },
          {
            "pitch": 37,
            "start": 146.37954545454545,
            "end": 146.42954545454543,
            "velocity": 64,
            "duration": 0.04999999999998295
          },
          {
            "pitch": 51,
            "start": 146.75,
            "end": 146.79999999999998,
            "velocity": 73,
            "duration": 0.04999999999998295
          },
          {
            "pitch": 35,
            "start": 146.93636363636364,
            "end": 146.98636363636362,
            "velocity": 72,
            "duration": 0.04999999999998295
          },
          {
            "pitch": 35,
            "start": 147.49318181818182,
            "end": 147.5431818181818,
            "velocity": 105,
            "duration": 0.04999999999998295
          },
          {
            "pitch": 42,
            "start": 147.49318181818182,
            "end": 147.5431818181818,
            "velocity": 80,
            "duration": 0.04999999999998295
          },
          {
            "pitch": 51,
            "start": 147.49318181818182,
            "end": 147.5431818181818,
            "velocity": 74,
            "duration": 0.04999999999998295
          },
          {
            "pitch": 37,
            "start": 147.67954545454543,
            "end": 147.72954545454544,
            "velocity": 69,
            "duration": 0.05000000000001137
          },
          {
            "pitch": 37,
            "start": 148.23636363636362,
            "end": 148.28636363636363,
            "velocity": 64,
            "duration": 0.05000000000001137
          },
          {
            "pitch": 35,
            "start": 148.97954545454544,
            "end": 149.02954545454546,
            "velocity": 96,
            "duration": 0.05000000000001137
          },
          {
            "pitch": 42,
            "start": 148.97954545454544,
            "end": 149.02954545454546,
            "velocity": 77,
            "duration": 0.05000000000001137
          },
          {
            "pitch": 51,
            "start": 148.97954545454544,
            "end": 149.02954545454546,
            "velocity": 86,
            "duration": 0.05000000000001137
          },
          {
            "pitch": 35,
            "start": 149.53636363636363,
            "end": 149.58636363636364,
            "velocity": 82,
            "duration": 0.05000000000001137
          },
          {
            "pitch": 51,
            "start": 149.53636363636363,
            "end": 149.58636363636364,
            "velocity": 84,
            "duration": 0.05000000000001137
          },
          {
            "pitch": 51,
            "start": 150.27954545454546,
            "end": 150.32954545454544,
            "velocity": 75,
            "duration": 0.04999999999998295
          },
          {
            "pitch": 35,
            "start": 150.4659090909091,
            "end": 150.51590909090908,
            "velocity": 71,
            "duration": 0.04999999999998295
          },
          {
            "pitch": 42,
            "start": 150.4659090909091,
            "end": 150.51590909090908,
            "velocity": 65,
            "duration": 0.04999999999998295
          },
          {
            "pitch": 37,
            "start": 150.83636363636364,
            "end": 150.88636363636363,
            "velocity": 64,
            "duration": 0.04999999999998295
          },
          {
            "pitch": 35,
            "start": 151.02272727272725,
            "end": 151.07272727272726,
            "velocity": 87,
            "duration": 0.05000000000001137
          },
          {
            "pitch": 51,
            "start": 151.02272727272725,
            "end": 151.07272727272726,
            "velocity": 83,
            "duration": 0.05000000000001137
          },
          {
            "pitch": 51,
            "start": 151.76590909090908,
            "end": 151.8159090909091,
            "velocity": 77,
            "duration": 0.05000000000001137
          },
          {
            "pitch": 35,
            "start": 151.9522727272727,
            "end": 152.00227272727273,
            "velocity": 75,
            "duration": 0.05000000000001137
          },
          {
            "pitch": 42,
            "start": 151.9522727272727,
            "end": 152.00227272727273,
            "velocity": 71,
            "duration": 0.05000000000001137
          },
          {
            "pitch": 37,
            "start": 152.13636363636363,
            "end": 152.18636363636364,
            "velocity": 71,
            "duration": 0.05000000000001137
          },
          {
            "pitch": 35,
            "start": 152.5090909090909,
            "end": 152.5590909090909,
            "velocity": 103,
            "duration": 0.05000000000001137
          },
          {
            "pitch": 42,
            "start": 152.5090909090909,
            "end": 152.5590909090909,
            "velocity": 82,
            "duration": 0.05000000000001137
          },
          {
            "pitch": 51,
            "start": 152.5090909090909,
            "end": 152.5590909090909,
            "velocity": 78,
            "duration": 0.05000000000001137
          },
          {
            "pitch": 51,
            "start": 153.25227272727273,
            "end": 153.3022727272727,
            "velocity": 80,
            "duration": 0.04999999999998295
          },
          {
            "pitch": 35,
            "start": 153.43636363636364,
            "end": 153.48636363636362,
            "velocity": 66,
            "duration": 0.04999999999998295
          },
          {
            "pitch": 37,
            "start": 153.8090909090909,
            "end": 153.8590909090909,
            "velocity": 79,
            "duration": 0.04999999999998295
          },
          {
            "pitch": 35,
            "start": 153.99545454545455,
            "end": 154.04545454545453,
            "velocity": 102,
            "duration": 0.04999999999998295
          },
          {
            "pitch": 42,
            "start": 153.99545454545455,
            "end": 154.04545454545453,
            "velocity": 98,
            "duration": 0.04999999999998295
          },
          {
            "pitch": 51,
            "start": 153.99545454545455,
            "end": 154.04545454545453,
            "velocity": 86,
            "duration": 0.04999999999998295
          },
          {
            "pitch": 37,
            "start": 154.73863636363635,
            "end": 154.78863636363636,
            "velocity": 75,
            "duration": 0.05000000000001137
          },
          {
            "pitch": 51,
            "start": 155.29545454545453,
            "end": 155.34545454545454,
            "velocity": 72,
            "duration": 0.05000000000001137
          },
          {
            "pitch": 35,
            "start": 155.48181818181817,
            "end": 155.53181818181818,
            "velocity": 84,
            "duration": 0.05000000000001137
          },
          {
            "pitch": 37,
            "start": 155.66590909090908,
            "end": 155.7159090909091,
            "velocity": 88,
            "duration": 0.05000000000001137
          },
          {
            "pitch": 51,
            "start": 155.85227272727272,
            "end": 155.90227272727273,
            "velocity": 82,
            "duration": 0.05000000000001137
          },
          {
            "pitch": 51,
            "start": 156.22272727272727,
            "end": 156.27272727272725,
            "velocity": 66,
            "duration": 0.04999999999998295
          },
          {
            "pitch": 37,
            "start": 156.4090909090909,
            "end": 156.4590909090909,
            "velocity": 74,
            "duration": 0.04999999999998295
          },
          {
            "pitch": 51,
            "start": 156.78181818181818,
            "end": 156.83181818181816,
            "velocity": 63,
            "duration": 0.04999999999998295
          },
          {
            "pitch": 37,
            "start": 157.15227272727273,
            "end": 157.2022727272727,
            "velocity": 94,
            "duration": 0.04999999999998295
          },
          {
            "pitch": 51,
            "start": 158.2681818181818,
            "end": 158.3181818181818,
            "velocity": 86,
            "duration": 0.05000000000001137
          },
          {
            "pitch": 51,
            "start": 159.01136363636363,
            "end": 159.06136363636364,
            "velocity": 76,
            "duration": 0.05000000000001137
          },
          {
            "pitch": 51,
            "start": 159.38181818181818,
            "end": 159.4318181818182,
            "velocity": 71,
            "duration": 0.05000000000001137
          },
          {
            "pitch": 35,
            "start": 159.93863636363636,
            "end": 159.98863636363635,
            "velocity": 72,
            "duration": 0.04999999999998295
          },
          {
            "pitch": 37,
            "start": 160.125,
            "end": 160.17499999999998,
            "velocity": 67,
            "duration": 0.04999999999998295
          },
          {
            "pitch": 51,
            "start": 160.31136363636364,
            "end": 160.36136363636362,
            "velocity": 70,
            "duration": 0.04999999999998295
          },
          {
            "pitch": 42,
            "start": 160.49545454545455,
            "end": 160.54545454545453,
            "velocity": 66,
            "duration": 0.04999999999998295
          },
          {
            "pitch": 51,
            "start": 161.23863636363635,
            "end": 161.28863636363636,
            "velocity": 82,
            "duration": 0.05000000000001137
          },
          {
            "pitch": 35,
            "start": 161.98181818181817,
            "end": 162.03181818181818,
            "velocity": 94,
            "duration": 0.05000000000001137
          },
          {
            "pitch": 51,
            "start": 161.98181818181817,
            "end": 162.03181818181818,
            "velocity": 75,
            "duration": 0.05000000000001137
          },
          {
            "pitch": 37,
            "start": 162.1681818181818,
            "end": 162.21818181818182,
            "velocity": 95,
            "duration": 0.05000000000001137
          },
          {
            "pitch": 37,
            "start": 162.53863636363636,
            "end": 162.58863636363637,
            "velocity": 70,
            "duration": 0.05000000000001137
          },
          {
            "pitch": 37,
            "start": 163.28181818181818,
            "end": 163.33181818181816,
            "velocity": 78,
            "duration": 0.04999999999998295
          },
          {
            "pitch": 37,
            "start": 163.65454545454546,
            "end": 163.70454545454544,
            "velocity": 68,
            "duration": 0.04999999999998295
          },
          {
            "pitch": 51,
            "start": 164.025,
            "end": 164.075,
            "velocity": 70,
            "duration": 0.04999999999998295
          },
          {
            "pitch": 37,
            "start": 164.39772727272725,
            "end": 164.44772727272726,
            "velocity": 65,
            "duration": 0.05000000000001137
          },
          {
            "pitch": 35,
            "start": 164.95454545454544,
            "end": 165.00454545454545,
            "velocity": 80,
            "duration": 0.05000000000001137
          },
          {
            "pitch": 37,
            "start": 165.14090909090908,
            "end": 165.1909090909091,
            "velocity": 83,
            "duration": 0.05000000000001137
          },
          {
            "pitch": 37,
            "start": 165.8840909090909,
            "end": 165.9340909090909,
            "velocity": 70,
            "duration": 0.05000000000001137
          },
          {
            "pitch": 51,
            "start": 166.25454545454545,
            "end": 166.30454545454543,
            "velocity": 71,
            "duration": 0.04999999999998295
          },
          {
            "pitch": 37,
            "start": 166.81136363636364,
            "end": 166.86136363636362,
            "velocity": 65,
            "duration": 0.04999999999998295
          },
          {
            "pitch": 35,
            "start": 166.99772727272727,
            "end": 167.04772727272726,
            "velocity": 93,
            "duration": 0.04999999999998295
          },
          {
            "pitch": 51,
            "start": 166.99772727272727,
            "end": 167.04772727272726,
            "velocity": 76,
            "duration": 0.04999999999998295
          },
          {
            "pitch": 37,
            "start": 167.1840909090909,
            "end": 167.2340909090909,
            "velocity": 67,
            "duration": 0.04999999999998295
          },
          {
            "pitch": 35,
            "start": 167.9272727272727,
            "end": 167.97727272727272,
            "velocity": 70,
            "duration": 0.05000000000001137
          },
          {
            "pitch": 37,
            "start": 168.11136363636362,
            "end": 168.16136363636363,
            "velocity": 65,
            "duration": 0.05000000000001137
          },
          {
            "pitch": 45,
            "start": 168.67045454545453,
            "end": 168.72045454545454,
            "velocity": 63,
            "duration": 0.05000000000001137
          },
          {
            "pitch": 35,
            "start": 169.97045454545454,
            "end": 170.02045454545453,
            "velocity": 78,
            "duration": 0.04999999999998295
          },
          {
            "pitch": 37,
            "start": 170.15681818181818,
            "end": 170.20681818181816,
            "velocity": 87,
            "duration": 0.04999999999998295
          },
          {
            "pitch": 37,
            "start": 170.71363636363637,
            "end": 170.76363636363635,
            "velocity": 71,
            "duration": 0.04999999999998295
          },
          {
            "pitch": 37,
            "start": 171.64090909090908,
            "end": 171.6909090909091,
            "velocity": 75,
            "duration": 0.05000000000001137
          }
        ],
        "melodic_notes": [],
        "instruments": [
          {
            "program": "0",
            "is_drum": true,
            "name": "",
            "note_count": 694
          }
        ],
        "duration": 171.6909090909091,
        "tempo_changes": 0
      }
    ]
  }
}